<?xml version="1.0" encoding="UTF-8" standalone="no"?>
<!-- Created with Inkscape (http://www.inkscape.org/) -->

<svg
   version="1.1"
   id="svg1"
   width="793.59998"
   height="559.35999"
   viewBox="0 0 793.59998 559.35999"
   sodipodi:docname="Cabbage.svg"
   inkscape:version="1.4 (86a8ad7, 2024-10-11)"
   xmlns:inkscape="http://www.inkscape.org/namespaces/inkscape"
   xmlns:sodipodi="http://sodipodi.sourceforge.net/DTD/sodipodi-0.dtd"
   xmlns="http://www.w3.org/2000/svg"
   xmlns:svg="http://www.w3.org/2000/svg">
  <defs
     id="defs1">
    <inkscape:path-effect
       effect="bspline"
       id="path-effect19"
       is_visible="true"
       lpeversion="1.3"
       weight="33.333333"
       steps="2"
       helper_size="0"
       apply_no_weight="true"
       apply_with_weight="true"
       only_selected="false"
       uniform="false" />
    <inkscape:path-effect
       effect="bspline"
       id="path-effect18"
       is_visible="true"
       lpeversion="1.3"
       weight="33.333333"
       steps="2"
       helper_size="0"
       apply_no_weight="true"
       apply_with_weight="true"
       only_selected="false"
       uniform="false" />
    <inkscape:path-effect
       effect="bspline"
       id="path-effect17"
       is_visible="true"
       lpeversion="1.3"
       weight="33.333333"
       steps="2"
       helper_size="0"
       apply_no_weight="true"
       apply_with_weight="true"
       only_selected="false"
       uniform="false" />
    <inkscape:path-effect
       effect="bspline"
       id="path-effect16"
       is_visible="true"
       lpeversion="1.3"
       weight="33.333333"
       steps="2"
       helper_size="0"
       apply_no_weight="true"
       apply_with_weight="true"
       only_selected="false"
       uniform="false" />
    <inkscape:path-effect
       effect="bspline"
       id="path-effect15"
       is_visible="true"
       lpeversion="1.3"
       weight="33.333333"
       steps="2"
       helper_size="0"
       apply_no_weight="true"
       apply_with_weight="true"
       only_selected="false"
       uniform="false" />
    <inkscape:path-effect
       effect="bspline"
       id="path-effect14"
       is_visible="true"
       lpeversion="1.3"
       weight="33.333333"
       steps="2"
       helper_size="0"
       apply_no_weight="true"
       apply_with_weight="true"
       only_selected="false"
       uniform="false" />
    <inkscape:path-effect
       effect="bspline"
       id="path-effect13"
       is_visible="true"
       lpeversion="1.3"
       weight="33.333333"
       steps="2"
       helper_size="0"
       apply_no_weight="true"
       apply_with_weight="true"
       only_selected="false"
       uniform="false" />
    <inkscape:path-effect
       effect="bspline"
       id="path-effect11"
       is_visible="true"
       lpeversion="1.3"
       weight="33.333333"
       steps="2"
       helper_size="0"
       apply_no_weight="true"
       apply_with_weight="true"
       only_selected="false"
       uniform="false" />
    <inkscape:path-effect
       effect="bspline"
       id="path-effect10"
       is_visible="true"
       lpeversion="1.3"
       weight="33.333333"
       steps="2"
       helper_size="0"
       apply_no_weight="true"
       apply_with_weight="true"
       only_selected="false"
       uniform="false" />
    <inkscape:path-effect
       effect="bspline"
       id="path-effect9"
       is_visible="true"
       lpeversion="1.3"
       weight="33.333333"
       steps="2"
       helper_size="0"
       apply_no_weight="true"
       apply_with_weight="true"
       only_selected="false"
       uniform="false" />
    <inkscape:path-effect
       effect="bspline"
       id="path-effect8"
       is_visible="true"
       lpeversion="1.3"
       weight="33.333333"
       steps="2"
       helper_size="0"
       apply_no_weight="true"
       apply_with_weight="true"
       only_selected="false"
       uniform="false" />
    <inkscape:path-effect
       effect="bspline"
       id="path-effect7"
       is_visible="true"
       lpeversion="1.3"
       weight="33.333333"
       steps="2"
       helper_size="0"
       apply_no_weight="true"
       apply_with_weight="true"
       only_selected="false"
       uniform="false" />
    <inkscape:path-effect
       effect="bspline"
       id="path-effect6"
       is_visible="true"
       lpeversion="1.3"
       weight="33.333333"
       steps="2"
       helper_size="0"
       apply_no_weight="true"
       apply_with_weight="true"
       only_selected="false"
       uniform="false" />
    <inkscape:path-effect
       effect="bspline"
       id="path-effect5"
       is_visible="true"
       lpeversion="1.3"
       weight="33.333333"
       steps="2"
       helper_size="0"
       apply_no_weight="true"
       apply_with_weight="true"
       only_selected="false"
       uniform="false" />
    <inkscape:path-effect
       effect="bspline"
       id="path-effect4"
       is_visible="true"
       lpeversion="1.3"
       weight="33.333333"
       steps="2"
       helper_size="0"
       apply_no_weight="true"
       apply_with_weight="true"
       only_selected="false"
       uniform="false" />
    <inkscape:path-effect
       effect="bspline"
       id="path-effect3"
       is_visible="true"
       lpeversion="1.3"
       weight="33.333333"
       steps="2"
       helper_size="0"
       apply_no_weight="true"
       apply_with_weight="true"
       only_selected="false"
       uniform="false" />
    <inkscape:path-effect
       effect="bspline"
       id="path-effect2"
       is_visible="true"
       lpeversion="1.3"
       weight="33.333333"
       steps="2"
       helper_size="0"
       apply_no_weight="true"
       apply_with_weight="true"
       only_selected="false"
       uniform="false" />
    <inkscape:path-effect
       effect="bspline"
       id="path-effect1"
       is_visible="true"
       lpeversion="1.3"
       weight="33.333333"
       steps="2"
       helper_size="0"
       apply_no_weight="true"
       apply_with_weight="true"
       only_selected="false"
       uniform="false" />
  </defs>
  <sodipodi:namedview
     id="namedview1"
     pagecolor="#ffffff"
     bordercolor="#111111"
     borderopacity="1"
     inkscape:showpageshadow="0"
     inkscape:pageopacity="0"
     inkscape:pagecheckerboard="1"
     inkscape:deskcolor="#d1d1d1"
     inkscape:zoom="1.3819365"
     inkscape:cx="421.50995"
     inkscape:cy="363.62017"
     inkscape:window-width="1920"
     inkscape:window-height="991"
     inkscape:window-x="-9"
     inkscape:window-y="-9"
     inkscape:window-maximized="1"
     inkscape:current-layer="svg1" />
  <g
     inkscape:groupmode="layer"
     inkscape:label="Image"
     id="g1"
     style="display:inline">
    <path
       style="fill:#92d498;fill-opacity:0.984314;stroke:none;stroke-width:1.89;stroke-opacity:1"
       d="m 229.75906,243.29508 c 0.49612,-1.2713 0.67246,-3.03471 1.09597,-4.62611 0.42351,-1.59141 1.19103,-3.97924 2.12702,-6.49002 0.93599,-2.51077 2.04925,-5.16548 2.9871,-7.55277 0.93785,-2.38729 1.70537,-4.51928 3.07017,-7.20612 1.36479,-2.68684 3.32525,-5.92586 5.32967,-8.56999 2.00442,-2.64414 4.05443,-4.69414 6.99475,-7.33598 2.94032,-2.64184 6.77791,-5.88247 9.67742,-7.75862 2.89951,-1.87615 4.86094,-2.38783 7.76045,-3.15535 2.89951,-0.76752 6.73709,-1.79087 9.38076,-2.38783 2.64368,-0.59696 4.09343,-0.76751 5.15943,-0.93807 1.06599,-0.17056 1.74823,-0.34112 2.77159,-0.46904 1.02335,-0.12792 2.38783,-0.2132 3.99622,-0.46633 1.60839,-0.25313 3.51143,-0.68564 5.2155,-1.28225 1.70408,-0.59662 3.23911,-1.36413 4.28299,-1.93213 1.04387,-0.56799 1.48426,-0.86158 3.63352,-2.45095 2.14925,-1.58936 5.89549,-4.39904 9.52707,-7.09063 3.63158,-2.69159 7.08219,-5.21643 9.78513,-7.01947 2.70295,-1.80305 4.5791,-2.8264 6.61303,-3.92816 2.03394,-1.10175 4.28272,-2.31263 6.1559,-3.20647 1.87318,-0.89383 3.40821,-1.49079 6.36506,-2.70738 2.95685,-1.21659 3.6935,-1.5255 5.44247,-2.11589 1.74896,-0.59039 2.4312,-0.59039 5.11751,-0.20663 2.68631,0.38376 7.3767,1.15128 11.55603,2.55874 4.17933,1.40747 7.84443,3.4531 10.659,5.2868 2.81456,1.83371 4.776,3.45402 6.23036,5.2976 1.45437,1.84357 2.37439,3.85089 4.26569,7.0751 1.8913,3.22421 4.68295,7.53858 7.93344,10.81976 3.25048,3.28118 7.09194,5.58605 9.72437,7.03759 2.63244,1.45155 3.91164,1.96323 4.89236,2.47491 0.98071,0.51167 1.66295,1.02335 2.45178,1.6048 0.78882,0.58144 1.77314,1.29731 2.95493,2.43573 1.18179,1.13842 2.6375,2.7654 3.5403,3.83962 0.90279,1.07422 1.24391,1.5859 2.06245,2.65171 0.81854,1.06581 2.26061,2.8684 3.44998,4.31248 1.18938,1.44408 2.21274,2.638 3.15081,3.83192 0.93808,1.19391 1.79087,2.38782 2.72895,3.66702 0.93808,1.2792 1.96143,2.64367 2.55839,3.53911 0.59696,0.89543 0.76752,1.32183 1.066,1.91879 0.29848,0.59696 0.72488,1.36448 1.80797,3.55493 1.08309,2.19045 0.83275,1.67052 2.13474,4.34513 1.30199,2.67462 2.06951,4.20966 2.58119,5.36093 0.51168,1.15128 0.76752,1.9188 1.23656,3.07007 0.46904,1.15128 1.15127,2.68631 1.70559,4.73302 0.55432,2.04672 0.98071,4.60511 1.27919,7.03558 0.29848,2.43047 0.46904,4.73302 -0.16777,7.92313 -0.6368,3.19012 -2.09243,7.30012 -3.63428,10.37857 -1.54186,3.07846 -3.14361,5.10172 -5.0823,7.16759 -1.93869,2.06587 -4.11937,4.0788 -6.87701,6.24394 -2.75763,2.16514 -6.19724,4.54641 -9.55727,6.47448 -3.36004,1.92808 -6.89546,3.56644 -9.55743,4.74983 -2.66196,1.18338 -4.55706,1.95865 -6.90662,2.81323 -2.34956,0.85459 -5.16379,1.79266 -8.44706,2.43226 -3.28327,0.6396 -7.03557,0.98072 -11.93971,1.36452 -4.90414,0.38379 -10.93298,0.80836 -15.03886,1.66203 -4.10588,0.85368 -6.23787,2.13287 -7.21858,3.49735 -0.98072,1.36447 -0.81016,2.81423 -0.98072,4.90358 -0.17056,2.08935 -0.68224,4.8183 -1.60462,6.80488 -0.92237,1.98657 -2.12078,3.10509 -4.47943,4.43948 -2.35864,1.33439 -5.76983,2.78415 -13.13279,4.51086 -7.36296,1.7267 0.0411,0.41556 -12.62902,2.37185 -12.67015,1.9563 -17.36053,2.21214 -20.42461,2.29777 -3.06408,0.0856 -4.52422,-2.6e-4 -7.93621,-0.51198 -3.41198,-0.51173 -8.7846,-1.4498 -12.40899,-2.17468 -3.62438,-0.72488 -5.50054,-1.23656 -7.72285,-1.70644 -2.2223,-0.46988 -4.76595,-0.89381 -6.90028,-1.36324 -2.13433,-0.46943 -3.83992,-0.98111 -5.11912,-1.36487 -1.27919,-0.38376 -2.13199,-0.63959 -3.32591,-1.27919 -1.19391,-0.6396 -2.72895,-1.66296 -4.69038,-2.98479 -1.96143,-1.32184 -4.34926,-2.94215 -6.10522,-4.35759 -1.75596,-1.41543 -2.84908,-2.59264 -3.91511,-3.87187 -1.06603,-1.27923 -2.08938,-2.6437 -2.94218,-3.7097 -0.8528,-1.066 -1.53503,-1.83351 -3.12408,-4.00002 -1.58905,-2.16651 -2.02002,-2.78219 -3.62668,-5.12614 -1.60666,-2.34396 -2.37417,-3.53787 -3.56809,-5.4993 -1.19391,-1.96144 -2.81423,-4.69039 -3.88022,-6.77975 -1.066,-2.08935 -1.57767,-3.5391 -2.04671,-4.90358 -0.46904,-1.36447 -0.89544,-2.64367 -1.23656,-4.51982 -0.34112,-1.87615 -0.59696,-4.34926 -0.8528,-6.99294 -0.25584,-2.64367 -0.51167,-5.4579 -0.34111,-8.35741 0.17056,-2.89951 0.76751,-5.88429 1.64208,-8.85291 0.87457,-2.96863 2.82357,-7.96297 3.31969,-9.23428 z"
       id="path1"
       inkscape:path-effect="#path-effect1"
       inkscape:original-d="m 230.25518,242.02378 c 0.43929,2.3993 0.25584,-1.75546 0.25584,-2.55839 0.76752,-2.38783 1.53504,-4.77566 2.30256,-7.16349 1.31677,-2.54469 2.26152,-5.27006 3.3259,-7.93101 0.76752,-2.132 1.53504,-4.26399 2.30256,-6.39598 1.94164,-3.25406 3.84977,-6.52475 5.88429,-9.72189 2.11181,-1.98236 3.95156,-4.24262 6.14014,-6.14014 3.83759,-3.24062 7.67518,-6.48125 11.51276,-9.72188 1.96144,-0.51168 3.92287,-1.02336 5.8843,-1.53504 3.83759,-1.02335 7.67517,-2.04671 11.51276,-3.07007 1.44976,-0.17055 2.89951,-0.34111 4.34927,-0.51167 0.68223,-0.17056 1.36447,-0.34112 2.04671,-0.51168 1.36447,-0.0853 2.72895,-0.17056 4.09342,-0.25584 1.76977,-0.78416 3.73456,-0.94498 5.62846,-1.2792 1.53504,-0.76751 3.07007,-1.53503 4.60511,-2.30255 0.42799,-0.55556 0.89456,-0.80987 1.53503,-1.02335 3.63395,-2.98095 7.38671,-5.78193 11.25692,-8.44269 2.86805,-3.44365 6.8712,-5.21335 10.4894,-7.67518 1.87616,-1.02335 3.75231,-2.04671 5.62846,-3.07007 2.04434,-1.45385 4.40442,-2.45805 6.65182,-3.58174 1.53504,-0.59696 3.07007,-1.19392 4.6051,-1.79088 4.25626,-2.12813 4.99014,-2.44365 7.93102,-3.32591 0.68223,0 1.36447,0 2.04671,0 4.69038,0.76752 9.38077,1.53504 14.07115,2.30256 3.60943,2.15284 7.28798,4.17438 11.00108,6.14013 1.96143,1.62032 3.92287,3.24063 5.8843,4.86095 1.34091,1.88643 2.09134,3.97147 2.81423,6.14014 2.7779,4.41983 6.24841,8.29493 8.44269,13.04779 2.58159,4.05143 7.26549,4.95222 11.51276,6.90765 1.27919,0.51168 2.55839,1.02336 3.83759,1.53504 0.68223,0.51168 1.36447,1.02336 2.04671,1.53503 1.1439,0.30953 1.94108,1.28272 2.81423,2.04672 1.40855,1.61557 2.91962,3.19302 4.34926,4.86094 0.34112,0.51168 0.68224,1.02336 1.02336,1.53503 1.55626,1.41171 2.81593,3.36022 4.09342,5.11679 1.02336,1.19391 2.04672,2.38783 3.07007,3.58174 0.8528,1.19392 1.7056,2.38783 2.55839,3.58175 1.02336,1.36448 2.04672,2.72895 3.07007,4.09343 0.17056,0.42639 0.34112,0.85279 0.51168,1.27919 0.4264,0.76752 0.8528,1.53504 1.2792,2.30255 1.2785,3.83549 1.97636,2.85902 3.32591,6.90766 0.76751,1.53503 1.53503,3.07007 2.30255,4.6051 0.25584,0.76752 0.51168,1.53504 0.76752,2.30255 0.68223,1.53504 1.36447,3.07007 2.04671,4.60511 0.4264,2.55839 0.85279,5.11678 1.27919,7.67517 0.17056,2.30255 0.34112,4.6051 0.51168,6.90766 -1.02516,4.22607 -2.82453,8.21433 -4.34926,12.28027 -1.43249,2.22403 -2.99733,4.27652 -4.86095,6.14014 -2.06203,2.28543 -4.04598,4.51149 -6.65181,6.14014 -3.05915,2.62519 -6.17086,5.48008 -9.97773,6.90766 -3.36719,1.85223 -7.01394,3.25036 -10.4894,4.86094 -1.62919,1.29222 -3.67753,1.69288 -5.62846,2.30255 -2.81423,0.93808 -5.62846,1.87615 -8.44269,2.81423 -3.75231,0.34112 -7.50461,0.68224 -11.25692,1.02336 -6.09712,-0.15785 -12.09353,0.72728 -18.16458,1.27919 -2.13199,1.2792 -4.26398,2.55839 -6.39597,3.83759 0.17056,1.44975 0.34112,2.89951 0.51168,4.34926 -0.51168,2.72895 -1.02336,5.4579 -1.53504,8.18685 -1.25513,1.32771 -2.33109,2.57742 -3.83759,3.58175 -3.41118,1.44976 -6.82237,2.89951 -10.23356,4.34927 -11.37646,1.65506 -3.91064,0.69251 -24.56055,4.34926 -4.69039,0.25584 -9.38077,0.51168 -14.07115,0.76752 -1.42078,-0.37362 -2.8929,-0.25584 -4.34927,-0.25584 -5.37262,-0.93808 -10.74524,-1.87616 -16.11786,-2.81423 -1.87615,-0.51168 -3.75231,-1.02336 -5.62846,-1.53504 -2.53322,-0.63954 -5.08023,-1.04328 -7.67517,-1.27919 -1.7056,-0.51168 -3.41119,-1.02336 -5.11679,-1.53504 -0.85279,-0.25584 -1.70559,-0.51167 -2.55839,-0.76751 -1.53503,-1.02336 -3.07007,-2.04672 -4.6051,-3.07007 -2.38783,-1.62032 -4.77566,-3.24063 -7.16349,-4.86095 -1.02318,-1.30425 -2.00128,-2.58827 -3.32591,-3.58174 -1.02336,-1.36448 -2.04672,-2.72895 -3.07007,-4.09343 -0.68224,-0.76752 -1.36448,-1.53503 -2.04671,-2.30255 -2.04008,-3.88455 -2.81226,-4.26138 -5.37263,-7.67517 -0.76751,-1.19392 -1.53503,-2.38783 -2.30255,-3.58175 -1.62031,-2.72895 -3.24063,-5.4579 -4.86094,-8.18685 -0.51168,-1.44976 -1.02336,-2.89951 -1.53503,-4.34927 -0.4264,-1.27919 -0.8528,-2.55839 -1.2792,-3.83758 -0.25584,-2.47311 -0.51168,-4.94622 -0.76752,-7.41934 -0.25584,-2.81423 -0.51168,-5.62846 -0.76751,-8.44269 0.59695,-2.98479 1.19391,-5.96957 1.79087,-8.95436 0.87306,-3.06138 4.90506,-7.24285 4.09342,-10.48941 z"
       inkscape:label="Base color"
       sodipodi:nodetypes="ccccccccccccccccccccccccccccccccccccccccccccccccccccccccccccccccccsccccccccccccccc"
       transform="matrix(2.8307863,0,0,2.8307863,-537.08169,-404.94799)" />
    <path
       style="display:inline;fill:#6abd72;fill-opacity:1;stroke-width:0.59;stroke-dasharray:none"
       d="m 305.73039,269.91109 c 0,0 0,0 -1.33297,1.75709 -1.33296,1.7571 -3.93282,5.18418 -5.34107,8.36806 -1.40826,3.18388 -1.52701,5.91514 -0.0798,8.26692 1.44724,2.35177 4.46233,4.28143 6.64006,5.21435 2.17772,0.93291 4.68764,0.81339 7.94846,0.54326 3.26082,-0.27014 6.03471,-0.63196 9.31093,-1.23947 3.27623,-0.60752 7.1652,-1.48567 9.06011,-1.88632 1.89491,-0.40065 2.1251,-0.40065 2.63994,-0.68117 0.51483,-0.28052 1.22032,-0.78963 1.63349,-1.10322 0.41316,-0.31359 0.4894,-0.39851 0.98614,-0.23253 0.49674,0.16597 1.37233,0.56936 1.89683,0.736 0.52451,0.16665 0.6759,0.087 0.82758,0.007 4.14942,-2.28915 8.24867,-4.55063 13.13048,-8.52212 4.88182,-3.97149 10.09135,-9.42333 12.74253,-12.43622 2.65118,-3.0129 2.77179,-3.61592 4.77072,-4.08111 1.99894,-0.46519 1.06185,-0.38607 4.98426,-2.14014 3.92242,-1.75406 3.85899,-1.63027 4.08369,-5.28736 0.22469,-3.6571 -0.0748,-9.0424 -1.37825,-14.20987 -1.30344,-5.16748 -3.59908,-9.90633 -7.73795,-14.10699 -4.13887,-4.20066 -9.11855,-7.24938 -12.13683,-8.54085 -3.01828,-1.29147 -3.57396,-0.51882 -3.85781,0.30868 -0.28385,0.82751 -0.29589,1.70987 0.52725,3.53047 0.82314,1.82059 2.48143,4.57939 3.37088,6.9387 0.88945,2.35931 0.99893,4.13831 1.03686,6.69015 0.0379,2.55183 -0.0102,5.10602 -0.28699,7.77886 -0.27675,2.67284 -0.78361,5.41248 -1.49965,7.56052 -0.71604,2.14804 -1.44056,3.2214 -2.31702,4.3929 -0.87646,1.1715 -1.70061,2.16328 -2.46602,3.00759 -0.7654,0.84432 -1.31143,1.36161 -2.01998,2.17568 -0.70854,0.81408 -1.55277,1.89951 -2.50252,2.93972 -0.94976,1.04021 -2.00504,2.03519 -2.99249,2.80404 -0.98744,0.76885 -1.90704,1.31156 -3.11308,1.91458 -1.20603,0.60302 -2.69851,1.26634 -3.90455,1.80152 -1.20604,0.53518 -2.12564,0.94222 -2.94725,1.20604 -0.82162,0.26382 -1.54522,0.38442 -2.33897,0.54567 -0.79376,0.16124 -6.37022,1.46443 -8.49344,1.54868 -2.12322,0.0842 -4.4918,-0.1873 -6.85865,-0.45866"
       id="path14"
       inkscape:path-effect="#path-effect15"
       inkscape:original-d="m 305.73039,269.91109 v 0 c -1.50858,4.39218 -4.13526,7.79891 -7.95984,10.49252 -0.12246,2.81651 -0.24121,5.54777 -0.36181,8.32166 3.01509,1.92966 6.03018,3.85932 9.04527,5.78898 1.33073,-0.26616 3.84178,-0.36181 7.59804,-0.36181 2.77388,-0.36181 5.54777,-0.72363 8.32165,-1.08544 3.85584,-0.51101 7.97458,-0.37164 11.21615,-2.53267 0.24121,0 0.4714,0 0.72362,0 0.77745,-0.56104 1.48294,-1.07015 2.23055,-1.60965 0.0787,-0.0877 0.15496,-0.1726 0.23483,-0.26155 0.91361,0.4209 1.7892,0.82429 2.68624,1.23756 0.15196,-0.08 0.45504,-0.23949 0.45504,-0.23949 2.7046,-4.90809 7.64633,-5.64246 12.84571,-7.08672 5.96514,-4.64383 10.66948,-10.5784 15.55788,-16.2815 0.1206,-0.60302 0.2412,-1.20604 0.36181,-1.80905 3.87727,-0.32737 2.94018,-0.24825 9.26099,-0.78194 1.52402,-2.97444 1.46059,-2.85065 2.23293,-4.35803 -0.32294,-5.80681 -0.62245,-11.19211 -0.93368,-16.78818 -2.29565,-4.73888 -4.59129,-9.47773 -6.88694,-14.21661 -5.98209,-3.66243 -10.96177,-6.71116 -16.44266,-10.06675 -0.55567,0.77265 -1.11135,1.5453 -1.66702,2.31794 -0.012,0.88237 -0.024,1.76473 -0.0361,2.6471 1.65831,2.75882 3.3166,5.51762 4.9749,8.27643 0.12061,1.95981 0.23008,3.73881 0.36181,5.87943 -0.0559,2.96305 -0.10403,5.51724 -0.15346,8.13832 -0.50408,2.7246 -1.01094,5.46424 -1.56514,8.45976 -0.87788,1.30056 -1.6024,2.37392 -2.44222,3.61811 -0.9131,1.09881 -1.73725,2.09059 -2.66836,3.21108 -0.5997,0.56814 -1.14573,1.08543 -1.7186,1.62815 -0.84422,1.08543 -1.68845,2.17086 -2.53268,3.2563 -1.05528,0.99498 -2.11056,1.98996 -3.16584,2.98494 -0.91961,0.54272 -1.83921,1.08543 -2.75882,1.62815 -1.49246,0.66332 -2.98494,1.32664 -4.47741,1.98996 -0.91961,0.40704 -1.83921,0.81408 -2.75881,1.22112 -0.72363,0.1206 -1.44723,0.2412 -2.17086,0.36181 -0.73848,0.73848 -6.40599,1.65206 -8.32166,1.94473 -2.50741,0.96996 -7.10055,-0.81407 -7.10055,-0.81407"
       sodipodi:nodetypes="cccccccccccccccccccccccccccccccccccccc"
       inkscape:label="Shadow 2"
       transform="matrix(2.8307863,0,0,2.8307863,-537.08169,-404.94799)" />
    <path
       style="display:inline;fill:#6abd72;fill-opacity:1;stroke-width:0.59;stroke-dasharray:none"
       d="m 413.52147,223.1091 c -1.53814,2.61669 -3.74106,6.50902 -6.08923,9.91411 -2.34816,3.40509 -4.84159,6.32295 -8.26527,10.16213 -3.42368,3.83919 -4.96546,5.52494 -8.34077,8.9971 -3.37531,3.47215 -4.97332,4.95122 -5.82099,6.52267 -0.84766,1.57145 -0.44292,2.77061 0.71504,4.08688 1.15796,1.31627 3.11181,2.78165 4.91801,3.50313 1.8062,0.72148 3.49465,0.72148 4.32134,0.82783 0.82669,0.10636 0.79163,0.31904 -0.32164,2.19899 -1.11327,1.87994 -3.30476,5.42716 -5.59678,8.5653 -2.29201,3.13814 -4.62601,5.80041 -8.1295,8.98461 -3.50349,3.1842 -9.60327,8.00851 -10.46632,8.70848 -0.86305,0.69997 -2.24098,1.82736 -2.78433,2.67211 -0.54335,0.84475 -0.30215,1.44777 1.62306,1.78759 1.92521,0.33982 5.98787,0.42608 10.86561,0.002 4.87774,-0.42399 12.33639,-1.50306 20.35177,-4.18694 8.01538,-2.68389 6.1604,-1.79557 13.83059,-5.99446 7.67019,-4.19889 9.22372,-5.16208 13.64583,-8.96362 4.42211,-3.80155 7.44024,-7.48281 9.85729,-11.36518 2.41706,-3.88237 3.66219,-7.12216 4.05344,-11.59561 0.39124,-4.47345 -0.0812,-9.57221 -1.76252,-15.42548 -1.68133,-5.85327 -4.48194,-12.0093 -9.6106,-16.62102 -5.12867,-4.61171 -6.30824,-5.08844 -10.44537,-5.91344 -4.13712,-0.82501 -5.01051,0.51605 -6.54866,3.13274 z"
       id="path16"
       inkscape:path-effect="#path-effect16"
       inkscape:original-d="m 414.18623,221.83347 c -2.2029,3.89232 -4.40582,7.78465 -6.60873,11.67698 -2.49343,2.91785 -4.98685,5.83571 -7.48027,8.75356 -4.35394,4.76052 -5.89572,6.44627 -10.0442,10.98214 -2.60214,2.40844 -4.20015,3.88751 -6.30022,5.83126 0.40474,1.19915 0.80948,2.39831 1.21422,3.59746 1.74164,1.65944 3.83147,2.94352 5.78897,4.34173 1.68846,0 3.37691,0 5.06536,0 -0.0351,0.2127 -0.0701,0.4254 -0.1052,0.63809 -2.19147,3.54719 -4.38296,7.09441 -6.57445,10.64163 -2.39254,2.72906 -4.72654,5.39133 -7.08982,8.08702 -4.36747,4.02197 -10.72256,8.52347 -11.1955,8.85453 -0.86891,1.53763 -2.54549,2.30001 -3.97992,3.2563 0.24121,0.60302 0.48242,1.20604 0.72362,1.80906 3.60326,0.35679 7.70316,-1.31102 11.06769,0.23497 6.35966,-0.92008 13.81831,-1.99915 20.72746,-2.99872 9.12161,-4.36819 7.26663,-3.47988 15.15574,-7.25785 7.45127,-4.61981 9.0048,-5.583 14.3146,-8.87509 3.53442,-4.311 6.55255,-7.99226 10.03488,-12.23972 1.35178,-3.51728 2.59691,-6.75707 3.89536,-10.1356 -0.51596,-5.56837 -0.9884,-10.66713 -1.49049,-16.08587 -2.86056,-6.2878 -5.66117,-12.44383 -8.49174,-18.66572 -7.27744,-3.371 -7.6096,-5.9445 -16.00719,-6.46934 -0.87339,1.34106 -1.74678,2.68212 -2.62017,4.02318 z"
       transform="matrix(2.8307863,0,0,2.8307863,-537.08169,-404.94799)"
       sodipodi:nodetypes="cccscccccccccccccccccccc"
       inkscape:label="Shadow 5" />
    <path
       style="display:inline;fill:#6abd72;fill-opacity:1;stroke-width:0.59;stroke-dasharray:none"
       d="m 336.28288,192.95577 c 0.20146,-0.11045 0.20146,-0.11045 1.10599,-0.23105 0.90452,-0.12061 2.71358,-0.36181 3.79901,-0.36181 1.08543,0 1.44725,0.24121 1.74876,0.72362 0.30151,0.48242 0.54271,1.20604 0.72362,1.56785 0.1809,0.36181 0.30151,0.36181 0.60302,0.78393 0.30151,0.42211 0.78392,1.26633 1.02512,1.74875 0.24121,0.48241 0.24121,0.60302 0.30151,0.78393 0.0603,0.1809 0.18091,0.4221 0.72363,1.20603 0.54272,0.78392 1.50755,2.11056 2.11056,2.89449 0.60302,0.78392 0.84423,1.02513 1.02514,1.32664 0.1809,0.30151 0.30151,0.66332 0.78392,1.44724 0.48242,0.78393 1.32664,1.98996 1.98996,3.13569 0.66332,1.14574 1.14574,2.23118 1.56785,3.0151 0.42211,0.78393 0.78392,1.26634 1.02513,1.92966 0.24121,0.66332 0.36181,1.50755 0.48242,2.05026 0.1206,0.54272 0.24121,0.78393 0.24121,1.02514 0,0.2412 -0.12061,0.48241 -0.18091,0.84422 -0.0603,0.36181 -0.0603,0.84423 -0.66724,1.38694 -0.60693,0.54272 -1.8208,1.14574 -2.76696,1.07042 -0.94615,-0.0753 -1.62458,-0.82895 -2.7664,-1.73349 -1.14183,-0.90453 -2.74702,-1.95993 -3.54963,-2.72884 -0.8026,-0.76891 -0.8026,-1.25133 -0.9851,-2.58755 -0.1825,-1.33622 -0.5421,-3.4938 -0.76383,-5.03403 -0.22172,-1.54024 -0.28173,-2.2051 -0.68378,-3.14322 -0.40205,-0.93811 -0.97808,-1.69514 -1.72806,-2.83701 -0.74999,-1.14187 -1.60184,-2.57385 -2.64753,-3.91064 -1.04568,-1.3368 -2.28519,-2.5784 -2.70349,-3.30966 -0.41829,-0.73125 -0.0154,-0.95216 0.18608,-1.06261 z"
       id="path19"
       inkscape:path-effect="#path-effect19"
       inkscape:original-d="m 336.48434,192.84532 v 0 c 1.80905,-0.24121 3.61811,-0.48241 5.42716,-0.72362 0.36181,0.24121 0.72363,0.48242 1.08544,0.72362 0.2412,0.72363 0.48241,1.44725 0.72362,2.17087 0.1206,0 0.24121,0 0.36181,0 0.48242,0.84423 0.96483,1.68845 1.44724,2.53268 0,0.1206 0,0.24121 0,0.36181 0.12061,0.24121 0.24121,0.48241 0.36182,0.72362 0.96483,1.32664 1.92966,2.65328 2.89448,3.97992 0.24121,0.24121 0.48242,0.48242 0.72363,0.72363 0.1206,0.36181 0.2412,0.72362 0.36181,1.08543 0.84422,1.20604 1.68845,2.41207 2.53268,3.61811 0.48241,1.08543 0.96483,2.17087 1.44724,3.2563 0.36181,0.48242 0.72362,0.96483 1.08543,1.44725 0.12061,0.84422 0.24121,1.68845 0.36182,2.53267 0.1206,0.24121 0.2412,0.48242 0.36181,0.72363 -0.12061,0.2412 -0.24121,0.48241 -0.36181,0.72362 0,0.48241 0,0.96483 0,1.44724 -1.21387,0.60302 -2.42774,1.20604 -3.64162,1.80906 -0.67843,-0.75365 -1.35686,-1.50729 -2.0353,-2.26095 -1.60521,-1.05541 -3.2104,-2.11081 -4.81561,-3.16622 0,-0.48241 0,-0.96483 0,-1.44724 -0.41825,-2.18116 -1.08543,-4.28747 -1.08543,-6.5126 -0.0826,-0.91548 -0.14263,-1.58034 -0.22654,-2.51009 -0.72019,-0.94648 -1.29622,-1.70351 -1.94433,-2.55527 -0.85186,-1.43198 -1.70371,-2.86396 -2.55557,-4.29594 -1.23951,-1.24161 -2.47902,-2.48321 -3.71853,-3.72482 0.40292,-0.2209 0.80583,-0.44181 1.20875,-0.66271 z"
       transform="matrix(2.8307863,0,0,2.8307863,-537.08169,-404.94799)"
       sodipodi:nodetypes="ccccccccccccccccccccccccccccc"
       inkscape:label="Shadow 4" />
    <path
       style="display:inline;fill:#6abd72;fill-opacity:1;stroke-width:0.59;stroke-dasharray:none"
       d="m 310.95566,250.38729 c -0.52172,0.34781 -0.52172,0.34781 -0.48538,-0.13538 0.0363,-0.48319 0.10901,-1.44959 0.77233,-2.65563 0.66332,-1.20603 1.91728,-2.65171 3.04893,-4.2418 1.13164,-1.5901 2.14095,-3.32459 3.04548,-4.83214 0.90454,-1.50755 1.70427,-2.78814 2.22474,-3.60935 0.52048,-0.8212 0.76168,-1.18301 1.72652,-1.72573 0.96483,-0.54272 2.65331,-1.26635 3.94865,-1.59979 1.29534,-0.33343 2.19764,-0.27669 3.06318,0.0513 0.86555,0.32798 1.6943,0.92718 2.14768,2.28575 0.45338,1.35856 0.53138,3.47651 0.63111,5.38573 0.0997,1.90923 0.21885,3.57678 0.70149,5.34077 0.48265,1.76399 0.34306,1.46122 -0.48842,5.20284 -0.83147,3.74162 -1.306,4.0382 -2.02453,5.02843 -0.71852,0.99024 -1.2709,2.19053 -2.51131,1.75274 -1.24042,-0.43779 -2.23108,-2.08244 -3.97521,-4.25035 -1.74412,-2.16792 -4.0617,-4.37872 -5.62955,-4.98173 -1.56784,-0.60302 -2.51449,0.27914 -3.43654,1.01938 -0.92206,0.74023 -2.23745,1.61716 -2.75917,1.96497 z"
       id="path13"
       inkscape:path-effect="#path-effect14"
       inkscape:original-d="m 310.43394,250.7351 v 0 c 0.0727,-0.96638 0.14535,-1.93278 0.21802,-2.89916 1.25397,-1.44569 2.50793,-2.89137 3.7619,-4.33706 1.00932,-1.7345 2.01863,-3.46899 3.02796,-5.2035 0.79974,-1.28059 1.59947,-2.56118 2.39921,-3.84178 0.24121,-0.36181 0.48241,-0.72362 0.72362,-1.08543 1.68846,-0.72363 3.37694,-1.44726 5.06535,-2.17087 0.90227,0.0567 1.80457,0.11348 2.70688,0.17022 0.82878,0.59922 1.65753,1.19842 2.48629,1.79763 0.078,2.11792 0.156,4.23587 0.234,6.35381 -0.11991,1.71775 0.0808,3.37947 0.36181,5.06535 0.84406,1.83069 0.70447,1.52792 3.01089,6.53032 -3.96937,2.48084 -4.4439,2.77742 -5.18176,3.23858 -0.69919,1.51931 -1.25157,2.7196 -2.09761,4.55801 -1.63479,-2.71399 -2.62545,-4.35864 -4.05317,-6.72887 -2.06053,-1.9656 -4.37811,-4.1764 -6.56716,-6.26459 -0.94664,0.88216 -1.89329,1.76432 -2.83993,2.64648 -1.31361,-0.0259 -2.29718,1.34876 -3.2563,2.17086 z"
       transform="matrix(2.8307863,0,0,2.8307863,-537.08169,-404.94799)"
       sodipodi:nodetypes="ccscccccccccccccccc"
       inkscape:label="Shadow 3" />
    <path
       style="display:inline;fill:#6abd72;fill-opacity:1;stroke-width:0.59;stroke-dasharray:none"
       d="m 320.98677,310.73545 c -0.78393,0.0603 -0.78393,0.0603 -1.73539,0.0387 -0.95145,-0.0216 -2.81147,-0.0639 -4.84757,0.30914 -2.03609,0.37307 -4.04729,1.12062 -5.57527,3.06396 -1.52798,1.94335 -2.53298,5.21179 -3.17737,7.32216 -0.6444,2.11037 -1.00621,3.31641 -1.06651,4.46214 -0.0603,1.14574 0.1809,2.23117 0.61002,3.06808 0.42911,0.83691 1.04614,1.4253 5.40282,1.13842 4.35667,-0.28688 12.34521,-1.43355 17.80085,-2.35933 5.45565,-0.92578 13.41379,-2.90694 18.0457,-4.73163 4.63192,-1.82469 6.43088,-3.23757 8.04692,-6.02098 1.61604,-2.78341 2.69665,-6.66043 3.46083,-9.73231 0.76418,-3.07189 1.21189,-5.33846 0.0896,-6.91823 -1.12233,-1.57976 -3.81433,-2.47257 -5.61396,-1.68794 -1.79962,0.78464 -2.70584,3.24615 -4.12882,5.00118 -1.42298,1.75503 -3.3615,2.80241 -5.53808,3.62817 -2.17659,0.82576 -4.57345,1.42497 -6.95092,1.8447 -2.37748,0.41972 -3.45231,0.52721 -7.96168,0.96005 -4.50938,0.43285 -6.07722,0.55346 -6.86114,0.61376 z"
       id="path17"
       inkscape:path-effect="#path-effect17"
       inkscape:original-d="m 320.20284,310.79575 v 0 c -1.90291,-0.0433 -3.76293,-0.0856 -5.70872,-0.12981 -2.1264,0.79038 -4.1376,1.53793 -6.23858,2.31886 -0.86973,3.13197 -0.92343,6.69292 -2.88696,9.3889 -0.36181,1.20604 -0.72362,2.41208 -1.08543,3.61811 0.24121,1.08544 0.48241,2.17087 0.72362,3.2563 0.61702,0.58839 1.23405,1.17678 1.85107,1.76516 8.09633,-1.16214 16.08487,-2.30881 24.289,-3.48643 2.70716,-0.67394 10.6653,-2.6551 17.42525,-4.33797 2.50388,-1.96651 4.30284,-3.37939 6.45429,-5.06911 1.08063,-3.8771 2.16124,-7.75412 3.24188,-11.63126 0.44772,-2.26663 0.89543,-4.5332 1.34315,-6.7998 -2.69237,-0.89293 -5.38437,-1.78574 -8.0771,-2.67879 -0.90652,2.46232 -1.81274,4.92383 -2.7192,7.38597 -1.9395,1.04792 -3.87802,2.0953 -5.81817,3.14357 -2.41302,0.60325 -4.76135,1.39657 -7.23623,1.80905 -2.3286,0.23286 -3.32892,1.08544 -10.85433,1.08544 -1.56785,0.1206 -3.13569,0.2412 -4.70354,0.36181 z"
       sodipodi:nodetypes="ccccccccccccccccccc"
       inkscape:label="Shadow 1"
       transform="matrix(2.8307863,0,0,2.8307863,-537.08169,-404.94799)" />
    <path
       style="display:inline;fill:none;stroke:#000000;stroke-width:1.19;stroke-dasharray:none;stroke-opacity:1"
       d="m 284.49307,194.69355 c 1.17948,-0.84248 2.38861,-1.70615 3.9659,-2.68659 1.57728,-0.98044 3.53872,-2.08907 5.96993,-3.24065 2.4312,-1.15158 5.36147,-2.35816 8.75654,-3.07641 3.39507,-0.71824 7.31794,-0.97407 9.62049,-1.01671 2.30255,-0.0426 2.98479,0.12791 4.43455,0.46903 1.44975,0.34112 3.66702,0.8528 5.50054,1.44976 1.83351,0.59696 3.28327,1.27919 5.41526,2.38783 2.13199,1.10864 4.94622,2.64367 7.41933,4.81831 2.47311,2.17463 4.60511,4.98886 5.92694,6.90765 1.32183,1.91879 1.83351,2.94215 2.25575,5.07619 0.42223,2.13404 0.77387,5.56251 0.94334,7.17213 0.16946,1.60961 0.16946,1.52435 0.16946,1.43907"
       id="path11"
       inkscape:path-effect="#path-effect11"
       inkscape:original-d="m 284.49307,194.69355 c 1.35396,-0.59821 2.4351,-1.64107 3.58175,-2.55839 1.96143,-1.10864 3.92287,-2.21727 5.8843,-3.32591 2.69489,-1.69504 5.56046,-3.05874 8.69853,-3.58175 3.92286,-0.25584 7.84573,-0.51167 11.7686,-0.76751 0.68223,0.17056 1.36447,0.34112 2.04671,0.51167 2.21727,0.51168 4.43454,1.02336 6.65182,1.53504 1.44975,0.68224 2.89951,1.36447 4.34926,2.04671 2.81423,1.53504 5.62846,3.07007 8.44269,4.60511 2.13199,2.81423 4.26399,5.62846 6.39598,8.44269 0.51168,1.02335 1.02335,2.04671 1.53503,3.07007 -0.49089,3.3292 0.38933,6.70346 1.02336,9.97772 0,-0.0853 0,-0.25584 0,-0.25584"
       sodipodi:insensitive="true"
       sodipodi:nodetypes="ccccccccccccc"
       inkscape:label="Stroke 10"
       transform="matrix(2.8307863,0,0,2.8307863,-537.08169,-404.94799)" />
    <path
       style="display:inline;fill:none;stroke:#000000;stroke-width:1.19;stroke-dasharray:none;stroke-opacity:1"
       d="m 349.4762,264.60158 c 1.2792,0.49036 2.55839,0.98072 4.47719,1.2259 1.91879,0.24518 4.47718,0.24518 7.41933,-0.0959 2.94215,-0.34112 6.26806,-1.02336 10.38417,-2.14503 4.11611,-1.12167 8.5564,-2.53449 12.93734,-5.62692 4.38094,-3.09243 8.35043,-7.69534 11.08411,-10.74958 2.73369,-3.05423 4.18344,-4.50399 5.16416,-5.56998 0.98072,-1.066 1.49239,-1.74824 2.34519,-2.68632 0.8528,-0.93807 2.04671,-2.13199 3.02743,-3.5391 0.98072,-1.40712 1.74823,-3.02743 2.3373,-4.37138 0.58906,-1.34396 1.07052,-2.59576 1.26409,-3.99445 0.19356,-1.3987 0.19356,-3.18957 0.19356,-4.25557 0,-1.066 0,-1.40711 -0.13858,-2.45179 -0.13858,-1.04468 -0.37486,-2.53503 -0.96201,-4.87142 -0.58716,-2.33639 -1.12206,-4.0022 -2.08641,-5.98717 -0.96436,-1.98498 -2.10501,-3.38886 -2.99812,-4.49462 -0.8931,-1.10577 -1.57534,-1.95857 -2.21494,-2.59816 -0.63959,-0.6396 -1.23655,-1.066 -2.17463,-1.87616 -0.93808,-0.81016 -2.21727,-2.00407 -3.19799,-2.81423 -0.98071,-0.81015 -1.66295,-1.23655 -2.13199,-1.57767 -0.46904,-0.34112 -0.72488,-0.59696 -1.4924,-1.02336 -0.76751,-0.4264 -2.0467,-1.02335 -2.6863,-1.32183 -0.6396,-0.29848 -0.6396,-0.29848 -1.25924,-0.54024 -0.61964,-0.24177 -3.38326,-1.33384 -5.56221,-1.85722 -2.17895,-0.52338 -3.88116,-0.52337 -6.65685,-0.54547 -2.77569,-0.0221 -6.14279,-0.0608 -9.7271,-0.0622 -3.5843,-0.001 -6.87157,0.0413 -9.91238,0.21203 -3.04081,0.17073 -5.81239,0.46921 -8.89433,0.6863 -3.08193,0.21708 -6.05886,0.33616 -8.27766,0.57517 -2.21879,0.23901 -3.25544,0.53733 -4.40947,0.86944"
       id="path10"
       inkscape:path-effect="#path-effect10"
       inkscape:original-d="m 349.4762,264.60158 c 1.2792,0.49036 2.55839,0.98072 3.83759,1.47108 2.55839,0 5.11678,0 7.67517,0 3.32591,-0.68224 6.65182,-1.36448 9.97773,-2.04672 4.90631,-1.5611 9.3466,-2.97392 14.07114,-4.47718 4.03734,-4.6816 8.00683,-9.28451 12.02444,-13.94323 1.44976,-1.44975 2.89951,-2.89951 4.34927,-4.34926 0.51168,-0.68224 1.02335,-1.36448 1.53503,-2.04672 1.19392,-1.19391 2.38783,-2.38783 3.58175,-3.58174 0.76752,-1.62032 1.53503,-3.24063 2.30255,-4.86095 0.53767,-1.01872 1.2792,-2.17049 1.2792,-3.32591 0,-1.79087 0,-3.58174 0,-5.37262 0,-0.34112 0,-0.68223 0,-1.02335 -0.27716,-1.74824 -0.51343,-3.23859 -0.83148,-5.2447 -0.85627,-2.66667 -1.39116,-4.33248 -2.2386,-6.97162 -0.73954,-1.60847 -2.14081,-2.8006 -3.3259,-4.09342 -0.68224,-0.8528 -1.36448,-1.7056 -2.04672,-2.55839 -0.59695,-0.4264 -1.19391,-0.8528 -1.79087,-1.2792 -1.2792,-1.19392 -2.55839,-2.38783 -3.83759,-3.58175 -0.68223,-0.4264 -1.36447,-0.85279 -2.04671,-1.27919 -0.25584,-0.25584 -0.51168,-0.51168 -0.76752,-0.76752 -1.27919,-0.59696 -2.55838,-1.19392 -3.83758,-1.79087 -5.85066,-3.29711 -2.12929,-1.28227 1.27919,0.51168 -2.51847,-0.99521 -5.28209,-2.08728 -7.93101,-3.13404 -1.70898,1e-5 -3.41119,1e-5 -5.11678,1e-5 -3.82769,-1.61857 -7.20393,-0.86245 -11.12899,-0.12792 -3.25734,-0.32935 -6.54133,-0.0348 -9.84981,0.12791 -2.77159,0.29848 -5.54317,0.59696 -8.31477,0.89544 -3.41621,-0.46277 -6.41491,-0.88786 -9.59397,0.38376 -1.21282,0.34903 -2.24947,0.64736 -3.4035,0.97946"
       sodipodi:nodetypes="ccccccccccsscccccccccccccccccc"
       inkscape:label="Stroke 9"
       transform="matrix(2.8307863,0,0,2.8307863,-537.08169,-404.94799)" />
    <path
       style="display:inline;fill:none;stroke:#000000;stroke-width:1.19;stroke-dasharray:none;stroke-opacity:1"
       d="m 322.51732,275.75065 c 2.53756,2.55583 5.07511,5.11166 7.56374,7.29146 2.48863,2.17981 4.92834,3.98359 6.74515,5.35452 1.81681,1.37093 3.01072,2.309 4.03408,3.07652 1.02336,0.76752 1.87615,1.36448 4.03493,2.6177 2.15878,1.25321 5.45624,3.07048 8.25924,4.0704 2.803,0.99993 4.93499,1.08521 9.94038,-0.84185 5.00539,-1.92706 4.96636,-1.90754 10.85364,-5.1923 5.88729,-3.28476 7.59289,-4.8198 10.58681,-8.26372 2.99392,-3.44392 -1.28833,1.90889 1.61118,-1.84342 2.89951,-3.75231 3.58175,-4.86094 5.78736,-8.4537 2.20562,-3.59276 4.00202,-6.52022 4.81693,-7.89408 0.81492,-1.37386 1.0609,-1.86581 1.28316,-2.94994 0.22227,-1.08413 0.39283,-2.70444 -0.21779,-4.38447 -0.61061,-1.68003 0.78118,0.0597 -1.16196,-1.81613 -1.94314,-1.87583 -3.78273,-3.06913 -5.62229,-4.26241"
       id="path9"
       inkscape:path-effect="#path-effect9"
       inkscape:original-d="m 322.51732,275.75065 c 2.53756,2.55583 5.07511,5.11166 7.61267,7.66749 2.4397,1.80378 4.87941,3.60756 7.31911,5.41134 1.19392,0.93807 2.38783,1.87615 3.58175,2.81423 0.8528,0.59696 1.70559,1.19392 2.55839,1.79088 3.95129,1.02666 7.01511,3.26786 10.23623,5.64131 2.13199,0.0853 4.26398,0.17056 6.39597,0.25584 9.41432,-0.86834 8.77528,-2.04884 17.90874,-8.95437 1.70559,-1.53503 3.41119,-3.07007 5.11678,-4.6051 3.7522,-5.77685 -3.57272,5.91427 5.11678,-6.39598 0.68224,-1.10864 1.36448,-2.21727 2.04672,-3.32591 3.8164,-6.02324 5.44061,-9.05636 6.90765,-11.25692 -0.0579,-0.64788 0.39392,-1.0369 0.76752,-1.53503 0.17056,-1.62032 0.34112,-3.24063 0.51168,-4.86095 -1.64818,-1.53463 1.25857,0.0859 -2.04671,-2.55839 -1.83957,-1.19328 -3.67916,-2.38658 -5.51872,-3.57986"
       sodipodi:nodetypes="cccccccccccccccc"
       inkscape:label="Stroke 8"
       transform="matrix(2.8307863,0,0,2.8307863,-537.08169,-404.94799)" />
    <path
       style="display:inline;fill:none;stroke:#000000;stroke-width:1.19;stroke-dasharray:none;stroke-opacity:1"
       d="m 271.50014,285.16419 c -0.3198,0.45838 -0.6396,0.91676 -0.98896,2.03542 -0.34935,1.11866 -0.72827,2.89757 0.0621,4.77381 0.79036,1.87623 2.74997,3.84976 5.13936,5.54131 2.38939,1.69155 2.32855,1.66113 4.31794,2.54923 1.9894,0.8881 3.09804,1.22921 5.57363,1.91211 2.47559,0.6829 6.29724,1.70201 9.24439,2.51348 2.94714,0.81148 4.98931,1.40711 6.65503,1.83432 1.66572,0.4272 2.94491,0.68304 5.54594,0.81096 2.60103,0.12792 6.5239,0.12792 9.84981,0.12792 3.32591,0 6.05486,0 8.47663,-0.0423 2.42177,-0.0423 4.5734,-0.12836 6.27787,-0.29887 1.70448,-0.17052 2.98367,-0.42635 5.41415,-1.10859 2.43047,-0.68224 6.01221,-1.79087 8.22941,-2.72888 2.21719,-0.93801 3.06934,-1.70494 3.92939,-2.95556 0.86005,-1.25062 1.72096,-2.97245 2.67986,-4.89025"
       id="path8"
       inkscape:path-effect="#path-effect8"
       inkscape:original-d="m 271.50014,285.16419 c 0,0 -0.6396,0.91676 -0.95939,1.37513 -0.37892,1.77895 -0.75784,3.55786 -1.13676,5.3368 1.95963,1.97353 3.91924,3.94706 5.87887,5.92059 2.56287,1.92213 2.8687,1.15837 5.62847,2.81423 1.10863,0.34111 2.21727,0.68223 3.3259,1.02335 3.98207,0.50147 7.72703,1.80816 11.51276,3.07007 2.13655,0.2853 4.12339,1.07061 6.14014,1.79087 1.2792,0.25584 2.55839,0.51168 3.83759,0.76752 3.92286,0 7.84573,0 11.7686,0 2.72895,0 5.4579,0 8.18685,0 2.10121,-0.419 4.26281,-0.25584 6.39597,-0.25584 1.2792,-0.25584 2.55839,-0.51168 3.83759,-0.76751 3.58175,-1.10864 7.16349,-2.21728 10.74524,-3.32591 0.77963,-0.8485 1.67552,-1.56683 2.55839,-2.30255 0.8665,-1.733 1.72741,-3.45483 2.68631,-5.37263"
       transform="matrix(2.8307863,0,0,2.8307863,-536.56958,-396.24222)"
       sodipodi:nodetypes="cccccccccscccccc"
       inkscape:label="Stroke 7" />
    <path
       style="display:inline;fill:none;stroke:#000000;stroke-width:1.19;stroke-dasharray:none;stroke-opacity:1"
       d="m 271.18944,211.57893 c 0,0 0,0 -0.51168,0.38376 -0.51168,0.38376 -1.53503,1.15127 -2.89951,2.47311 -1.36448,1.32184 -3.07007,3.19799 -4.09343,4.56246 -1.02335,1.36448 -1.36447,2.21728 -2.13199,4.56247 -0.76752,2.34519 -1.96143,6.18278 -2.68631,9.80716 -0.72488,3.62439 -0.98071,7.03558 -1.10863,9.39693 -0.12792,2.36136 -0.12792,3.58754 -0.12792,4.87708 0,1.28954 0,2.56873 0.29848,4.65809 0.29848,2.08935 0.89543,4.98886 1.36447,7.41933 0.46904,2.43047 0.81016,4.3919 1.44976,6.86501 0.6396,2.47312 1.57767,5.45791 2.17463,7.3767 0.59696,1.91879 0.85279,2.77159 1.40711,4.00815 0.55432,1.23655 1.40712,2.85687 2.25992,4.22134 0.8528,1.36448 1.70559,2.47311 2.38131,3.35986 0.67573,0.88675 1.18755,1.56918 2.13207,2.47321 0.94452,0.90403 2.30899,2.01266 3.67346,2.39642 1.36448,0.38376 2.72896,0.0426 3.74523,-0.22336 1.01626,-0.266 1.47759,-0.3978 2.19209,-0.62022 0.7145,-0.22241 1.48202,-0.47825 2.71858,-1.33105 1.23655,-0.8528 2.94215,-2.30255 3.92702,-3.37965 0.98488,-1.07709 1.23962,-1.75638 1.40657,-2.429 0.16695,-0.67261 0.25223,-1.35485 0.29487,-2.71932 0.0426,-1.36448 0.0426,-3.41119 0.0426,-4.69039 0,-1.27919 0,-1.79087 -0.0853,-2.60103 -0.0853,-0.81015 -0.25584,-1.91879 -0.29848,-2.55839 -0.0426,-0.6396 0.0426,-0.81015 0.0853,-1.06599 0.0426,-0.25584 0.0426,-0.59696 0.0426,-0.93808"
       id="path7"
       inkscape:path-effect="#path-effect7"
       inkscape:original-d="m 271.18944,211.57893 v 0 c -1.02336,0.76752 -2.04671,1.53504 -3.07007,2.30255 -1.70559,1.87616 -3.41119,3.75231 -5.11678,5.62846 -0.34112,0.8528 -0.68224,1.7056 -1.02336,2.55839 -1.19391,3.83759 -2.38783,7.67518 -3.58175,11.51276 -0.25583,3.41119 -0.51167,6.82238 -0.76751,10.23357 -0.27395,1.31152 -0.21665,2.5377 0,3.83758 0,1.2792 0,2.55839 0,3.83759 0.59696,2.89951 1.19391,5.79902 1.79087,8.69853 0.34112,1.96143 0.68224,3.92286 1.02336,5.8843 0.93807,2.98479 1.87615,5.96958 2.81423,8.95437 0.25584,0.85279 0.51168,1.70559 0.76751,2.55839 0.8528,1.62031 1.7056,3.24063 2.5584,4.86094 0.85279,1.10864 1.70559,2.21727 2.55839,3.32591 0.18548,0.89974 0.91055,1.42223 1.53503,2.04671 1.36448,1.10864 2.72895,2.21727 4.09343,3.32591 1.36447,-0.34112 2.72895,-0.68224 4.09342,-1.02336 0.75376,0.10906 1.18987,-0.111 1.79088,-0.51168 0.76751,-0.25583 1.53503,-0.51167 2.30255,-0.76751 1.70559,-1.44976 3.41119,-2.89951 5.11678,-4.34927 0.14725,-0.74827 0.40557,-1.42622 0.76752,-2.04671 0.0853,-0.68224 0.17056,-1.36448 0.25584,-2.04671 0,-2.04672 0,-4.09343 0,-6.14014 0,-0.51168 0,-1.02336 0,-1.53504 -0.17056,-1.10863 -0.34112,-2.21727 -0.51168,-3.3259 0.0853,-0.17056 0.17056,-0.34112 0.25584,-0.51168 0,-0.34112 0,-1.02336 0,-1.02336"
       sodipodi:nodetypes="cccccccccccccccccccccccscccc"
       inkscape:label="Stroke 6"
       transform="matrix(2.8307863,0,0,2.8307863,-537.08169,-404.94799)" />
    <path
       style="display:inline;fill:none;stroke:#000000;stroke-width:1.19;stroke-dasharray:none;stroke-opacity:1"
       d="m 331.30896,234.96626 c 1.1948,-0.71756 2.38962,-1.43513 3.54134,-2.0071 1.15171,-0.57198 2.26035,-0.99838 3.96594,-1.59534 1.70559,-0.59696 4.00815,-1.36447 6.49672,-1.53254 2.48857,-0.16807 5.09203,0.25184 7.40348,0.86958 2.31145,0.61773 4.29813,1.43216 6.28922,2.2484"
       id="path6"
       inkscape:original-d="m 331.30896,234.96626 c 0,0 2.38962,-1.43513 3.58441,-2.15268 1.10864,-0.4264 2.21728,-0.8528 3.32591,-1.2792 2.30255,-0.76752 4.60511,-1.53503 6.90766,-2.30255 2.73962,0.0282 5.37167,0.27082 7.93101,1.27919 2.07584,0.54923 3.99333,1.53245 5.94771,2.43824"
       inkscape:path-effect="#path-effect6"
       sodipodi:nodetypes="cccccc"
       inkscape:label="Stroke 5"
       transform="matrix(2.8307863,0,0,2.8307863,-537.08169,-404.94799)" />
    <path
       style="display:inline;fill:none;stroke:#000000;stroke-width:1.19;stroke-dasharray:none;stroke-opacity:1"
       d="m 293.76724,221.04498 c 3.25129,0.27236 8.14421,0.68224 11.30702,1.18665 3.16281,0.50441 5.50439,1.19821 7.27812,2.4464 1.77372,1.24819 3.06701,3.14501 4.23339,5.04332 1.16638,1.89831 2.18974,3.77447 3.2131,5.65062"
       id="path5"
       inkscape:path-effect="#path-effect5"
       inkscape:original-d="m 293.76724,221.04498 c 3.25129,0.27236 8.14421,0.68224 12.21632,1.02336 2.03741,1.39704 4.5328,1.57173 6.90765,2.0467 0.3208,2.43442 2.19128,3.93771 3.83759,5.62847 1.02335,1.87615 3.07007,5.62846 3.07007,5.62846"
       sodipodi:nodetypes="ccccc"
       inkscape:label="Stroke 4"
       transform="matrix(2.8307863,0,0,2.8307863,-537.08169,-404.94799)" />
    <path
       style="display:inline;fill:none;stroke:#000000;stroke-width:1.19;stroke-dasharray:none;stroke-opacity:1"
       d="m 310.34967,251.29473 c -0.006,-0.6172 -0.0112,-1.23441 0.11392,-1.96941 0.12512,-0.735 0.31891,-1.38095 1.77165,-2.8193 1.45275,-1.43835 1.71531,-1.62272 3.78477,-5.06603 2.06946,-3.4433 2.11406,-3.71401 3.26961,-5.90005 1.15555,-2.18604 2.14927,-2.6829 3.34464,-3.1525 1.19537,-0.46961 2.21746,-0.72514 2.89971,-0.8957 0.68225,-0.17056 1.02336,-0.25584 1.96144,-0.0853 0.93808,0.17056 2.42213,0.5828 3.13804,2.36707 0.71591,1.78427 0.57874,4.56675 0.54321,6.74962 -0.0355,2.18287 0.0497,3.37679 0.16691,4.30913 0.11717,0.93234 0.31257,1.81168 0.4316,2.50675 0.11904,0.69507 0.22032,1.60662 -0.079,2.62287 -0.29926,1.01625 -0.9815,2.29545 -1.88104,3.61802 -0.89953,1.32257 -1.94331,2.59918 -3.02081,3.91703"
       id="path4"
       inkscape:path-effect="#path-effect4"
       inkscape:original-d="m 310.34967,251.29473 c -0.006,-0.6172 -0.0112,-1.23441 -0.0168,-1.85161 0.25584,-0.8528 0.44963,-1.49875 0.76752,-2.55839 2.5876,-1.81706 2.85016,-2.00143 6.24751,-4.38711 0.74157,-4.50093 0.78617,-4.77164 1.3637,-8.27693 1.73357,-0.86679 2.72729,-1.36365 4.09342,-2.04671 1.02461,-0.25615 2.0467,-0.51168 3.07007,-0.76752 0.34113,-0.0853 0.68224,-0.17056 1.02336,-0.25584 1.53504,0.4264 3.01909,0.83863 4.6051,1.2792 -0.15419,3.12798 -0.29135,5.91046 -0.44771,9.08228 0.0853,1.19392 0.17056,2.38784 0.25584,3.58175 0.49577,0.59372 0.41564,1.53429 0.51167,2.30255 0.47625,0.59266 0.25584,1.53995 0.25584,2.30256 -0.68223,1.27919 -1.36447,2.55839 -2.04671,3.83758 -1.11683,1.36595 -2.16061,2.64256 -3.23811,3.96041"
       sodipodi:nodetypes="ccccccscccccccc"
       inkscape:label="Stroke 3"
       transform="matrix(2.8307863,0,0,2.8307863,-537.08169,-404.94799)" />
    <path
       style="display:inline;fill:none;stroke:#000000;stroke-width:1.19;stroke-dasharray:none;stroke-opacity:1"
       d="m 299.0759,259.165 c 3.41119,-2.38783 6.82236,-4.77565 9.08228,-6.35333 2.25992,-1.57768 3.36856,-2.3452 4.47735,-3.35274 1.10879,-1.00754 2.38767,-2.44628 3.93337,-2.25441 1.54569,0.19188 3.44316,1.91879 5.2447,3.82693 1.80154,1.90814 3.48137,3.96593 4.5943,5.80041 1.11294,1.83448 1.58852,3.32324 2.05221,4.61907 0.46369,1.29582 0.89009,2.31918 1.15568,4.54553 0.26559,2.22636 0.37247,5.72438 0.47871,9.20128"
       id="path3"
       inkscape:path-effect="#path-effect3"
       inkscape:original-d="m 299.0759,259.165 c 0,0 6.82236,-4.77565 10.23356,-7.16349 1.10864,-0.76752 2.21728,-1.53504 3.32591,-2.30255 1.10896,-1.24757 2.38784,-2.68631 3.58175,-4.02947 1.89747,1.72691 3.79494,3.45382 5.69242,5.18074 1.7056,2.08936 3.38543,4.14715 5.11678,6.26806 0.97714,1.39388 1.17409,2.97165 1.47108,4.6051 0.42639,1.02336 0.85279,2.04672 1.27919,3.07007 0.10479,3.42936 0.21167,6.92738 0.31791,10.40428"
       sodipodi:nodetypes="ccccccccc"
       inkscape:label="Stroke 2"
       transform="matrix(2.8307863,0,0,2.8307863,-537.08169,-404.94799)" />
    <path
       style="fill:none;stroke:#000000;stroke-width:1.19;stroke-dasharray:none;stroke-opacity:1"
       d="m 290.63321,225.1384 c 0,0 0,0 0.91602,-0.95964 0.91601,-0.95963 2.53331,-2.65394 4.46634,-4.14707 1.93303,-1.49313 4.74227,-2.89776 7.03642,-3.97979 2.29415,-1.08202 4.90105,-2.25933 8.00974,-3.40879 3.10868,-1.14946 6.69042,-2.25809 9.55087,-2.83729 2.86045,-0.57919 7.27735,-0.68191 10.50386,-0.40711 3.22652,0.27481 5.2345,0.92778 8.13402,2.20697 2.89951,1.2792 6.72115,3.2 9.94451,5.96787 3.22336,2.76787 5.90966,6.41356 7.62592,9.25978 1.71626,2.84622 2.46246,4.89293 2.82489,7.79244 0.36243,2.89951 0.34109,6.65181 0.10657,9.77518 -0.23453,3.12337 -0.68224,5.6178 -1.47108,7.87771 -0.78884,2.25992 -1.91879,4.28531 -3.65637,6.45994 -1.73757,2.17463 -4.05857,4.47454 -5.63479,6.03999 -1.57622,1.56545 -2.32586,2.31508 -3.30775,3.12641 -0.98188,0.81133 -2.1758,1.66413 -3.5527,2.38636 -1.37689,0.72224 -3.21381,1.419 -5.48092,2.26717 -2.2671,0.84818 -2.77878,1.01874 -3.8661,1.5091 -1.08732,0.49036 -2.69741,1.27476 -6.05204,1.47274 -3.35463,0.19798 -7.99269,-0.21066 -12.08344,-1.49171 -4.09074,-1.28105 -7.3205,-3.37089 -9.3992,-5.22573 -2.07869,-1.85484 -2.97729,-3.45947 -3.6172,-4.58832 -0.6399,-1.12884 -2.08626,-3.60833 -2.96019,-5.53288 -0.87392,-1.92456 -0.87392,-2.77736 -0.87392,-3.63015"
       id="path2"
       inkscape:path-effect="#path-effect2"
       inkscape:original-d="m 290.63321,225.1384 v 0 c 0.81845,-2.88678 3.03887,-4.00538 5.37262,-5.62846 1.68451,-1.4879 4.61631,-2.64741 6.65182,-3.32591 2.54575,-1.53022 5.07976,-2.86893 7.93101,-3.58174 3.58175,-1.10864 7.16349,-2.21728 10.74524,-3.32591 2.13617,-0.17806 6.54885,-0.46188 11.00108,-0.25584 2.008,0.65298 4.01598,1.30595 6.02398,1.95892 3.79103,1.90542 7.61267,3.82622 11.37308,5.71625 2.68631,3.64571 5.37261,7.2914 8.05893,10.93712 0.7462,2.04672 1.4924,4.09343 2.23859,6.14014 -0.0213,3.75231 -0.0426,7.50461 -0.064,11.25692 -0.44772,2.49443 -0.89543,4.98886 -1.34315,7.48329 -1.12995,2.0254 -2.25991,4.05079 -3.38987,6.07618 -2.34519,2.32387 -4.66619,4.62378 -7.03557,6.97162 -0.87215,0.69397 -1.68667,1.37872 -2.30256,2.30255 -1.19391,0.8528 -2.38783,1.7056 -3.58174,2.55839 -1.62973,0.40753 -3.09163,2.09299 -7.41934,2.81423 -0.51167,0.17056 -1.02335,0.34112 -1.53503,0.51168 -1.66296,0.81016 -3.27305,1.59457 -4.98886,2.43047 -4.99345,-0.43995 -9.63151,-0.84859 -14.51888,-1.27919 -3.29412,-2.1315 -6.52388,-4.22135 -9.78583,-6.33202 -0.89544,-1.599 -1.79404,-3.20363 -2.68632,-4.79698 -0.60561,-0.53713 -2.46108,-2.77797 -3.58174,-6.14014 0,-0.8528 0,-1.7056 0,-2.55839"
       sodipodi:nodetypes="ccccccccccccccccccccccccc"
       inkscape:label="Stroke 1"
       transform="matrix(2.8307863,0,0,2.8307863,-537.08169,-404.94799)" />
    <path
       style="fill:none;stroke:#000000;stroke-width:1.89;stroke-opacity:1"
       d="m 229.75906,243.29508 c 0.49612,-1.2713 0.67246,-3.03471 1.09597,-4.62611 0.42351,-1.59141 1.19103,-3.97924 2.12702,-6.49002 0.93599,-2.51077 2.04925,-5.16548 2.9871,-7.55277 0.93785,-2.38729 1.70537,-4.51928 3.07017,-7.20612 1.36479,-2.68684 3.32525,-5.92586 5.32967,-8.56999 2.00442,-2.64414 4.05443,-4.69414 6.99475,-7.33598 2.94032,-2.64184 6.77791,-5.88247 9.67742,-7.75862 2.89951,-1.87615 4.86094,-2.38783 7.76045,-3.15535 2.89951,-0.76752 6.73709,-1.79087 9.38076,-2.38783 2.64368,-0.59696 4.09343,-0.76751 5.15943,-0.93807 1.06599,-0.17056 1.74823,-0.34112 2.77159,-0.46904 1.02335,-0.12792 2.38783,-0.2132 3.99622,-0.46633 1.60839,-0.25313 3.51143,-0.68564 5.2155,-1.28225 1.70408,-0.59662 3.23911,-1.36413 4.28299,-1.93213 1.04387,-0.56799 1.48426,-0.86158 3.63352,-2.45095 2.14925,-1.58936 5.89549,-4.39904 9.52707,-7.09063 3.63158,-2.69159 7.08219,-5.21643 9.78513,-7.01947 2.70295,-1.80305 4.5791,-2.8264 6.61303,-3.92816 2.03394,-1.10175 4.28272,-2.31263 6.1559,-3.20647 1.87318,-0.89383 3.40821,-1.49079 6.36506,-2.70738 2.95685,-1.21659 3.6935,-1.5255 5.44247,-2.11589 1.74896,-0.59039 2.4312,-0.59039 5.11751,-0.20663 2.68631,0.38376 7.3767,1.15128 11.55603,2.55874 4.17933,1.40747 7.84443,3.4531 10.659,5.2868 2.81456,1.83371 4.776,3.45402 6.23036,5.2976 1.45437,1.84357 2.37439,3.85089 4.26569,7.0751 1.8913,3.22421 4.68295,7.53858 7.93344,10.81976 3.25048,3.28118 7.09194,5.58605 9.72437,7.03759 2.63244,1.45155 3.91164,1.96323 4.89236,2.47491 0.98071,0.51167 1.66295,1.02335 2.45178,1.6048 0.78882,0.58144 1.77314,1.29731 2.95493,2.43573 1.18179,1.13842 2.6375,2.7654 3.5403,3.83962 0.90279,1.07422 1.24391,1.5859 2.06245,2.65171 0.81854,1.06581 2.26061,2.8684 3.44998,4.31248 1.18938,1.44408 2.21274,2.638 3.15081,3.83192 0.93808,1.19391 1.79087,2.38782 2.72895,3.66702 0.93808,1.2792 1.96143,2.64367 2.55839,3.53911 0.59696,0.89543 0.76752,1.32183 1.066,1.91879 0.29848,0.59696 0.72488,1.36448 1.80797,3.55493 1.08309,2.19045 0.83275,1.67052 2.13474,4.34513 1.30199,2.67462 2.06951,4.20966 2.58119,5.36093 0.51168,1.15128 0.76752,1.9188 1.23656,3.07007 0.46904,1.15128 1.15127,2.68631 1.70559,4.73302 0.55432,2.04672 0.98071,4.60511 1.27919,7.03558 0.29848,2.43047 0.46904,4.73302 -0.16777,7.92313 -0.6368,3.19012 -2.09243,7.30012 -3.63428,10.37857 -1.54186,3.07846 -3.14361,5.10172 -5.0823,7.16759 -1.93869,2.06587 -4.11937,4.0788 -6.87701,6.24394 -2.75763,2.16514 -6.19724,4.54641 -9.55727,6.47448 -3.36004,1.92808 -6.89546,3.56644 -9.55743,4.74983 -2.66196,1.18338 -4.55706,1.95865 -6.90662,2.81323 -2.34956,0.85459 -5.16379,1.79266 -8.44706,2.43226 -3.28327,0.6396 -7.03557,0.98072 -11.93971,1.36452 -4.90414,0.38379 -10.93298,0.80836 -15.03886,1.66203 -4.10588,0.85368 -6.23787,2.13287 -7.21858,3.49735 -0.98072,1.36447 -0.81016,2.81423 -0.98072,4.90358 -0.17056,2.08935 -0.68224,4.8183 -1.60462,6.80488 -0.92237,1.98657 -2.12078,3.10509 -4.47943,4.43948 -2.35864,1.33439 -5.76983,2.78415 -13.13279,4.51086 -7.36296,1.7267 0.0411,0.41556 -12.62902,2.37185 -12.67015,1.9563 -17.36053,2.21214 -20.42461,2.29777 -3.06408,0.0856 -4.52422,-2.6e-4 -7.93621,-0.51198 -3.41198,-0.51173 -8.7846,-1.4498 -12.40899,-2.17468 -3.62438,-0.72488 -5.50054,-1.23656 -7.72285,-1.70644 -2.2223,-0.46988 -4.76595,-0.89381 -6.90028,-1.36324 -2.13433,-0.46943 -3.83992,-0.98111 -5.11912,-1.36487 -1.27919,-0.38376 -2.13199,-0.63959 -3.32591,-1.27919 -1.19391,-0.6396 -2.72895,-1.66296 -4.69038,-2.98479 -1.96143,-1.32184 -4.34926,-2.94215 -6.10522,-4.35759 -1.75596,-1.41543 -2.84908,-2.59264 -3.91511,-3.87187 -1.06603,-1.27923 -2.08938,-2.6437 -2.94218,-3.7097 -0.8528,-1.066 -1.53503,-1.83351 -3.12408,-4.00002 -1.58905,-2.16651 -2.02002,-2.78219 -3.62668,-5.12614 -1.60666,-2.34396 -2.37417,-3.53787 -3.56809,-5.4993 -1.19391,-1.96144 -2.81423,-4.69039 -3.88022,-6.77975 -1.066,-2.08935 -1.57767,-3.5391 -2.04671,-4.90358 -0.46904,-1.36447 -0.89544,-2.64367 -1.23656,-4.51982 -0.34112,-1.87615 -0.59696,-4.34926 -0.8528,-6.99294 -0.25584,-2.64367 -0.51167,-5.4579 -0.34111,-8.35741 0.17056,-2.89951 0.76751,-5.88429 1.64208,-8.85291 0.87457,-2.96863 2.82357,-7.96297 3.31969,-9.23428 z"
       id="path12"
       inkscape:path-effect="#path-effect13"
       inkscape:original-d="m 230.25518,242.02378 c 0.43929,2.3993 0.25584,-1.75546 0.25584,-2.55839 0.76752,-2.38783 1.53504,-4.77566 2.30256,-7.16349 1.31677,-2.54469 2.26152,-5.27006 3.3259,-7.93101 0.76752,-2.132 1.53504,-4.26399 2.30256,-6.39598 1.94164,-3.25406 3.84977,-6.52475 5.88429,-9.72189 2.11181,-1.98236 3.95156,-4.24262 6.14014,-6.14014 3.83759,-3.24062 7.67518,-6.48125 11.51276,-9.72188 1.96144,-0.51168 3.92287,-1.02336 5.8843,-1.53504 3.83759,-1.02335 7.67517,-2.04671 11.51276,-3.07007 1.44976,-0.17055 2.89951,-0.34111 4.34927,-0.51167 0.68223,-0.17056 1.36447,-0.34112 2.04671,-0.51168 1.36447,-0.0853 2.72895,-0.17056 4.09342,-0.25584 1.76977,-0.78416 3.73456,-0.94498 5.62846,-1.2792 1.53504,-0.76751 3.07007,-1.53503 4.60511,-2.30255 0.42799,-0.55556 0.89456,-0.80987 1.53503,-1.02335 3.63395,-2.98095 7.38671,-5.78193 11.25692,-8.44269 2.86805,-3.44365 6.8712,-5.21335 10.4894,-7.67518 1.87616,-1.02335 3.75231,-2.04671 5.62846,-3.07007 2.04434,-1.45385 4.40442,-2.45805 6.65182,-3.58174 1.53504,-0.59696 3.07007,-1.19392 4.6051,-1.79088 4.25626,-2.12813 4.99014,-2.44365 7.93102,-3.32591 0.68223,0 1.36447,0 2.04671,0 4.69038,0.76752 9.38077,1.53504 14.07115,2.30256 3.60943,2.15284 7.28798,4.17438 11.00108,6.14013 1.96143,1.62032 3.92287,3.24063 5.8843,4.86095 1.34091,1.88643 2.09134,3.97147 2.81423,6.14014 2.7779,4.41983 6.24841,8.29493 8.44269,13.04779 2.58159,4.05143 7.26549,4.95222 11.51276,6.90765 1.27919,0.51168 2.55839,1.02336 3.83759,1.53504 0.68223,0.51168 1.36447,1.02336 2.04671,1.53503 1.1439,0.30953 1.94108,1.28272 2.81423,2.04672 1.40855,1.61557 2.91962,3.19302 4.34926,4.86094 0.34112,0.51168 0.68224,1.02336 1.02336,1.53503 1.55626,1.41171 2.81593,3.36022 4.09342,5.11679 1.02336,1.19391 2.04672,2.38783 3.07007,3.58174 0.8528,1.19392 1.7056,2.38783 2.55839,3.58175 1.02336,1.36448 2.04672,2.72895 3.07007,4.09343 0.17056,0.42639 0.34112,0.85279 0.51168,1.27919 0.4264,0.76752 0.8528,1.53504 1.2792,2.30255 1.2785,3.83549 1.97636,2.85902 3.32591,6.90766 0.76751,1.53503 1.53503,3.07007 2.30255,4.6051 0.25584,0.76752 0.51168,1.53504 0.76752,2.30255 0.68223,1.53504 1.36447,3.07007 2.04671,4.60511 0.4264,2.55839 0.85279,5.11678 1.27919,7.67517 0.17056,2.30255 0.34112,4.6051 0.51168,6.90766 -1.02516,4.22607 -2.82453,8.21433 -4.34926,12.28027 -1.43249,2.22403 -2.99733,4.27652 -4.86095,6.14014 -2.06203,2.28543 -4.04598,4.51149 -6.65181,6.14014 -3.05915,2.62519 -6.17086,5.48008 -9.97773,6.90766 -3.36719,1.85223 -7.01394,3.25036 -10.4894,4.86094 -1.62919,1.29222 -3.67753,1.69288 -5.62846,2.30255 -2.81423,0.93808 -5.62846,1.87615 -8.44269,2.81423 -3.75231,0.34112 -7.50461,0.68224 -11.25692,1.02336 -6.09712,-0.15785 -12.09353,0.72728 -18.16458,1.27919 -2.13199,1.2792 -4.26398,2.55839 -6.39597,3.83759 0.17056,1.44975 0.34112,2.89951 0.51168,4.34926 -0.51168,2.72895 -1.02336,5.4579 -1.53504,8.18685 -1.25513,1.32771 -2.33109,2.57742 -3.83759,3.58175 -3.41118,1.44976 -6.82237,2.89951 -10.23356,4.34927 -11.37646,1.65506 -3.91064,0.69251 -24.56055,4.34926 -4.69039,0.25584 -9.38077,0.51168 -14.07115,0.76752 -1.42078,-0.37362 -2.8929,-0.25584 -4.34927,-0.25584 -5.37262,-0.93808 -10.74524,-1.87616 -16.11786,-2.81423 -1.87615,-0.51168 -3.75231,-1.02336 -5.62846,-1.53504 -2.53322,-0.63954 -5.08023,-1.04328 -7.67517,-1.27919 -1.7056,-0.51168 -3.41119,-1.02336 -5.11679,-1.53504 -0.85279,-0.25584 -1.70559,-0.51167 -2.55839,-0.76751 -1.53503,-1.02336 -3.07007,-2.04672 -4.6051,-3.07007 -2.38783,-1.62032 -4.77566,-3.24063 -7.16349,-4.86095 -1.02318,-1.30425 -2.00128,-2.58827 -3.32591,-3.58174 -1.02336,-1.36448 -2.04672,-2.72895 -3.07007,-4.09343 -0.68224,-0.76752 -1.36448,-1.53503 -2.04671,-2.30255 -2.04008,-3.88455 -2.81226,-4.26138 -5.37263,-7.67517 -0.76751,-1.19392 -1.53503,-2.38783 -2.30255,-3.58175 -1.62031,-2.72895 -3.24063,-5.4579 -4.86094,-8.18685 -0.51168,-1.44976 -1.02336,-2.89951 -1.53503,-4.34927 -0.4264,-1.27919 -0.8528,-2.55839 -1.2792,-3.83758 -0.25584,-2.47311 -0.51168,-4.94622 -0.76752,-7.41934 -0.25584,-2.81423 -0.51168,-5.62846 -0.76751,-8.44269 0.59695,-2.98479 1.19391,-5.96957 1.79087,-8.95436 0.87306,-3.06138 4.90506,-7.24285 4.09342,-10.48941 z"
       inkscape:label="Outline"
       sodipodi:nodetypes="ccccccccccccccccccccccccccccccccccccccccccccccccccccccccccccccccccsccccccccccccccc"
       transform="matrix(2.8307863,0,0,2.8307863,-537.08169,-404.94799)" />
  </g>
</svg>
