<?xml version="1.0" encoding="UTF-8" standalone="no"?>
<!-- Created with Inkscape (http://www.inkscape.org/) -->

<svg
   version="1.1"
   id="svg1"
   width="793.59998"
   height="559.35999"
   viewBox="0 0 793.59998 559.35999"
   sodipodi:docname="Basil.svg"
   inkscape:version="1.4 (86a8ad7, 2024-10-11)"
   xmlns:inkscape="http://www.inkscape.org/namespaces/inkscape"
   xmlns:sodipodi="http://sodipodi.sourceforge.net/DTD/sodipodi-0.dtd"
   xmlns="http://www.w3.org/2000/svg"
   xmlns:svg="http://www.w3.org/2000/svg">
  <defs
     id="defs1">
    <inkscape:path-effect
       effect="bspline"
       id="path-effect22"
       is_visible="true"
       lpeversion="1.3"
       weight="33.333333"
       steps="2"
       helper_size="0"
       apply_no_weight="true"
       apply_with_weight="true"
       only_selected="false"
       uniform="false" />
    <inkscape:path-effect
       effect="bspline"
       id="path-effect21"
       is_visible="true"
       lpeversion="1.3"
       weight="33.333333"
       steps="2"
       helper_size="0"
       apply_no_weight="true"
       apply_with_weight="true"
       only_selected="false"
       uniform="false" />
    <inkscape:path-effect
       effect="bspline"
       id="path-effect20"
       is_visible="true"
       lpeversion="1.3"
       weight="33.333333"
       steps="2"
       helper_size="0"
       apply_no_weight="true"
       apply_with_weight="true"
       only_selected="false"
       uniform="false" />
    <inkscape:path-effect
       effect="bspline"
       id="path-effect19"
       is_visible="true"
       lpeversion="1.3"
       weight="33.333333"
       steps="2"
       helper_size="0"
       apply_no_weight="true"
       apply_with_weight="true"
       only_selected="false"
       uniform="false" />
    <inkscape:path-effect
       effect="bspline"
       id="path-effect18"
       is_visible="true"
       lpeversion="1.3"
       weight="33.333333"
       steps="2"
       helper_size="0"
       apply_no_weight="true"
       apply_with_weight="true"
       only_selected="false"
       uniform="false" />
    <inkscape:path-effect
       effect="bspline"
       id="path-effect17"
       is_visible="true"
       lpeversion="1.3"
       weight="33.333333"
       steps="2"
       helper_size="0"
       apply_no_weight="true"
       apply_with_weight="true"
       only_selected="false"
       uniform="false" />
    <inkscape:path-effect
       effect="bspline"
       id="path-effect16"
       is_visible="true"
       lpeversion="1.3"
       weight="33.333333"
       steps="2"
       helper_size="0"
       apply_no_weight="true"
       apply_with_weight="true"
       only_selected="false"
       uniform="false" />
    <inkscape:path-effect
       effect="bspline"
       id="path-effect15"
       is_visible="true"
       lpeversion="1.3"
       weight="33.333333"
       steps="2"
       helper_size="0"
       apply_no_weight="true"
       apply_with_weight="true"
       only_selected="false"
       uniform="false" />
    <inkscape:path-effect
       effect="bspline"
       id="path-effect14"
       is_visible="true"
       lpeversion="1.3"
       weight="33.333333"
       steps="2"
       helper_size="0"
       apply_no_weight="true"
       apply_with_weight="true"
       only_selected="false"
       uniform="false" />
    <inkscape:path-effect
       effect="bspline"
       id="path-effect13"
       is_visible="true"
       lpeversion="1.3"
       weight="33.333333"
       steps="2"
       helper_size="0"
       apply_no_weight="true"
       apply_with_weight="true"
       only_selected="false"
       uniform="false" />
    <inkscape:path-effect
       effect="bspline"
       id="path-effect12"
       is_visible="true"
       lpeversion="1.3"
       weight="33.333333"
       steps="2"
       helper_size="0"
       apply_no_weight="true"
       apply_with_weight="true"
       only_selected="false"
       uniform="false" />
    <inkscape:path-effect
       effect="bspline"
       id="path-effect11"
       is_visible="true"
       lpeversion="1.3"
       weight="33.333333"
       steps="2"
       helper_size="0"
       apply_no_weight="true"
       apply_with_weight="true"
       only_selected="false"
       uniform="false" />
    <inkscape:path-effect
       effect="bspline"
       id="path-effect9"
       is_visible="true"
       lpeversion="1.3"
       weight="33.333333"
       steps="2"
       helper_size="0"
       apply_no_weight="true"
       apply_with_weight="true"
       only_selected="false"
       uniform="false" />
    <inkscape:path-effect
       effect="bspline"
       id="path-effect8"
       is_visible="true"
       lpeversion="1.3"
       weight="33.333333"
       steps="2"
       helper_size="0"
       apply_no_weight="true"
       apply_with_weight="true"
       only_selected="false"
       uniform="false" />
    <inkscape:path-effect
       effect="bspline"
       id="path-effect7"
       is_visible="true"
       lpeversion="1.3"
       weight="33.333333"
       steps="2"
       helper_size="0"
       apply_no_weight="true"
       apply_with_weight="true"
       only_selected="false"
       uniform="false" />
    <inkscape:path-effect
       effect="bspline"
       id="path-effect6"
       is_visible="true"
       lpeversion="1.3"
       weight="33.333333"
       steps="2"
       helper_size="0"
       apply_no_weight="true"
       apply_with_weight="true"
       only_selected="false"
       uniform="false" />
    <inkscape:path-effect
       effect="bspline"
       id="path-effect5"
       is_visible="true"
       lpeversion="1.3"
       weight="33.333333"
       steps="2"
       helper_size="0"
       apply_no_weight="true"
       apply_with_weight="true"
       only_selected="false"
       uniform="false" />
    <inkscape:path-effect
       effect="bspline"
       id="path-effect4"
       is_visible="true"
       lpeversion="1.3"
       weight="33.333333"
       steps="2"
       helper_size="0"
       apply_no_weight="true"
       apply_with_weight="true"
       only_selected="false"
       uniform="false" />
    <inkscape:path-effect
       effect="bspline"
       id="path-effect3"
       is_visible="true"
       lpeversion="1.3"
       weight="33.333333"
       steps="2"
       helper_size="0"
       apply_no_weight="true"
       apply_with_weight="true"
       only_selected="false"
       uniform="false" />
    <inkscape:path-effect
       effect="bspline"
       id="path-effect2"
       is_visible="true"
       lpeversion="1.3"
       weight="33.333333"
       steps="2"
       helper_size="0"
       apply_no_weight="true"
       apply_with_weight="true"
       only_selected="false"
       uniform="false" />
    <inkscape:path-effect
       effect="bspline"
       id="path-effect1"
       is_visible="true"
       lpeversion="1.3"
       weight="33.333333"
       steps="2"
       helper_size="0"
       apply_no_weight="true"
       apply_with_weight="true"
       only_selected="false"
       uniform="false" />
  </defs>
  <sodipodi:namedview
     id="namedview1"
     pagecolor="#ffffff"
     bordercolor="#111111"
     borderopacity="1"
     inkscape:showpageshadow="0"
     inkscape:pageopacity="0"
     inkscape:pagecheckerboard="1"
     inkscape:deskcolor="#d1d1d1"
     inkscape:zoom="1"
     inkscape:cx="229"
     inkscape:cy="325.5"
     inkscape:window-width="1920"
     inkscape:window-height="991"
     inkscape:window-x="-9"
     inkscape:window-y="-9"
     inkscape:window-maximized="1"
     inkscape:current-layer="g1" />
  <g
     inkscape:groupmode="layer"
     inkscape:label="Image"
     id="g1"
     style="display:inline">
    <g
       id="g22"
       transform="matrix(3.2525559,0,0,3.2525559,-1047.9673,-384.41039)">
      <path
         style="display:inline;fill:#4cac55;fill-opacity:0.992157;stroke:none;stroke-width:3.792;stroke-opacity:1"
         d="m 295.55771,283.60179 c -7.61328,-8.39582 -12.55454,-25.63277 -15.72368,-37.60153 -3.16914,-11.96877 -4.73698,-19.26528 -5.52091,-24.45125 -0.78392,-5.18597 -0.78392,-7.42286 -0.78392,-11.29838 0,-3.87552 0,-4.47715 0.64491,-9.45217 0.64491,-4.97502 1.04354,-6.62649 1.86995,-10.34616 0.8264,-3.71966 1.63789,-7.6757 2.81782,-11.98812 1.17992,-4.31243 2.26535,-6.7245 3.95381,-10.16171 1.68845,-3.4372 3.97992,-7.89954 5.78884,-11.03506 1.80893,-3.13552 3.13401,-4.94246 5.90881,-8.80301 2.77479,-3.86056 6.99592,-9.77014 10.97584,-13.08674 3.97993,-3.3166 3.20233,-3.1661 12.18966,-3.63211 8.98733,-0.46601 8.07177,-0.52872 13.98135,1.22004 5.90959,1.74875 16.32092,6.23494 20.00978,8.03207 3.68885,1.79713 6.64364,3.48558 9.26677,5.7469 2.62313,2.26132 3.13799,2.89811 6.65481,7.72045 3.51682,4.82234 5.71516,8.24198 8.50154,14.08894 2.78637,5.84696 5.35943,12.84806 6.87686,20.52627 1.51743,7.6782 1.876,14.64463 1.9145,23.94429 0.0385,9.29966 -0.28677,16.68601 -3.65309,25.99221 -3.36632,9.30621 -9.79801,20.40632 -18.28661,30.11605 -8.48861,9.70973 -13.3878,12.99832 -20.11785,17.25001 -6.73004,4.25169 -9.02735,5.3163 -11.83872,5.87857 -2.81137,0.56227 -5.65969,0.50414 -7.80041,0.53429 -2.14071,0.0301 -3.46735,0.15076 -9.1728,-0.14315 -5.70545,-0.29391 -10.84398,-0.65489 -18.45726,-9.0507 z"
         id="path1"
         inkscape:path-effect="#path-effect1"
         inkscape:original-d="m 292.54402,291.25106 c -4.59959,-16.04509 -9.54085,-33.28204 -14.31128,-49.92305 -1.56784,-7.29652 -3.13569,-14.59303 -4.70354,-21.88956 0,-3.07541 0,-5.3123 0,-9.22619 0,-3.83715 0,-4.43878 0,-9.04528 1.28982,-5.34354 1.68845,-6.99501 2.53268,-10.49252 0.65084,-3.97418 1.3549,-7.95225 2.89449,-14.11064 1.08543,-2.41207 2.17087,-4.82414 3.2563,-7.23622 2.29147,-4.46233 4.58294,-8.92467 6.87441,-13.38701 1.5286,-1.66041 2.73258,-3.55615 3.97992,-5.42717 4.22113,-5.90958 8.44226,-11.81916 12.66339,-17.72874 3.73872,-0.72362 2.96112,-0.57312 11.21615,-2.17086 9.71963,0.66572 8.80407,0.60301 13.20611,0.90452 7.41713,3.196 17.82846,7.68219 22.25138,9.588 2.95479,1.68845 5.90958,3.3769 8.86437,5.06535 2.29147,2.83419 2.80633,3.47098 6.87441,8.50256 0.96049,5.90207 3.91616,8.83486 8.14075,12.66339 2.5959,7.06327 5.16896,14.06437 7.77894,21.16595 0.42488,8.25483 0.78345,15.22126 1.26634,24.60316 -0.40589,9.21742 -0.73115,16.60377 -1.06442,24.17181 -6.39938,11.04437 -12.83107,22.14448 -20.43919,35.27494 -9.36909,6.289 -12.41316,12.34127 -25.17003,16.89539 -2.55834,1.18558 -4.85565,2.25019 -7.41712,3.43721 -3.06127,-0.0625 -5.90959,-0.12061 -8.86438,-0.18091 -1.32664,0.12061 -2.65328,0.24121 -3.97992,0.36181 -10.09647,-0.53459 -15.11239,-2.64095 -25.84976,-1.81594 z"
         transform="translate(114.98632,-7.9930888)"
         inkscape:label="Outline"
         sodipodi:nodetypes="cccccccccccccccccccccccccc" />
      <path
         style="display:inline;fill:#359c3f;fill-opacity:1;stroke:none;stroke-width:1.992;stroke-dasharray:none;stroke-opacity:1"
         d="m 443.52013,284.44384 c -0.66332,-0.0603 -0.66332,-0.0603 0.36181,-1.32664 1.02513,-1.26634 3.07539,-3.79902 4.69996,-5.96451 1.62457,-2.1655 2.78966,-3.91313 3.71825,-5.27585 0.92858,-1.36273 1.53159,-2.20695 1.9537,-2.93058 0.42212,-0.72362 0.66332,-1.32664 1.02513,-1.92966 0.36181,-0.60301 0.84423,-1.20603 1.45232,-2.21307 0.60808,-1.00705 3.31805,-6.21853 4.43049,-8.93779 1.11243,-2.71926 2.07691,-5.73326 2.68,-7.42191 0.60308,-1.68865 0.84429,-2.05046 1.14936,-2.78478 0.30507,-0.73432 0.65335,-1.77915 0.83746,-3.05509 0.18411,-1.27595 0.18411,-2.72319 0.30471,-3.74832 0.12061,-1.02513 0.36181,-1.62815 0.48242,-2.53268 0.1206,-0.90453 0.1206,-2.11056 0.0603,-2.83418 -0.0603,-0.72363 -0.18091,-0.96484 -0.30151,-1.68846 -0.1206,-0.72362 -0.24121,-1.92966 -0.3576,-2.81314 -0.11639,-0.88347 -0.23433,-1.47316 -0.42078,-2.3451 -0.18645,-0.87194 -0.42766,-1.95738 -0.60857,-2.8619 -0.1809,-0.90453 -0.30151,-1.62815 -0.48658,-2.73858 -0.18507,-1.11044 -0.41334,-2.48009 -0.47594,-3.45872 -0.0626,-0.97863 0.058,-1.46104 0.1183,-2.06406 0.0603,-0.60302 0.0603,-1.32664 0.16364,-2.41186 0.10335,-1.08522 0.38942,-3.08772 0.74606,-4.55906 0.35664,-1.47134 0.83905,-2.79798 1.08026,-3.7025 0.24121,-0.90453 0.24121,-1.38695 0.35604,-1.91524 0.11483,-0.52829 0.36099,-1.14368 0.48489,-1.81524 0.1239,-0.67156 0.1239,-1.39518 0.15085,-1.86479 0.0269,-0.46962 0.19212,-1.13031 0.44572,-2.50917 0.2536,-1.37885 0.61415,-3.54211 1.04337,-5.37043 0.42923,-1.82833 0.87397,-3.16254 1.31096,-4.65825 0.43698,-1.49571 0.79267,-2.91846 1.09737,-4.19958 0.30471,-1.28111 0.53513,-2.31796 0.79285,-3.20632 0.25772,-0.88835 0.45413,-1.37937 1.18665,-2.90838 0.73253,-1.52901 1.53841,-3.14077 2.37422,-4.59717 0.8358,-1.45641 1.1657,-1.7863 1.52838,-2.04892 0.36268,-0.26263 0.51745,-0.34001 1.08416,-0.56306 0.56672,-0.22306 1.53155,-0.58487 1.87828,-4.36127 0.34674,-3.77641 0.38004,-2.89388 -0.25998,-11.98219 -0.64002,-9.08831 -0.0323,-6.57472 0.0761,-8.03377 0.10848,-1.45904 1.22407,-0.66004 2.73161,1.26962 1.50754,1.92965 3.24895,4.73526 5.60795,8.80569 2.35899,4.07043 4.54298,8.03209 6.62339,14.40687 2.0804,6.37479 3.74729,14.69462 4.79047,21.33101 1.04318,6.63638 1.58696,12.75397 1.01382,18.55431 -0.57315,5.80034 -1.21716,8.45909 -2.44933,12.80159 -1.23217,4.34249 -2.26764,7.1285 -3.30312,9.9145 -1.64832,4.72445 -3.29666,9.44893 -7.9569,16.38789 -4.66025,6.93895 -12.30772,16.06295 -16.40675,20.85493 -4.09903,4.79198 -4.81521,5.36493 -8.16871,7.25277 -3.3535,1.88783 -9.20416,5.04719 -12.92986,6.64057 -3.72569,1.59338 -5.05233,1.47277 -5.71565,1.41247 z"
         id="path21"
         inkscape:path-effect="#path-effect21"
         inkscape:original-d="m 442.85681,284.38354 v 0 c 2.05026,-2.53268 4.10052,-5.06536 6.15079,-7.59804 2.04826,-1.23205 2.67021,-3.34178 3.61811,-5.42716 0.60301,-0.84423 1.20603,-1.68845 1.80905,-2.53268 0.24121,-0.60302 0.48242,-1.20604 0.72362,-1.80906 0.48242,-0.60301 0.96483,-1.20603 1.44725,-1.80905 0.50925,-1.52781 3.1005,-6.80102 4.70354,-9.04528 1.0389,-2.99216 1.98456,-6.01218 2.89449,-9.04528 0.24121,-0.36181 0.48242,-0.72362 0.72362,-1.08543 0.108,-1.19381 0.55942,-2.20426 1.08544,-3.2563 0,-1.44725 0,-2.89449 0,-4.34173 0.24121,-0.60302 0.48241,-1.20604 0.72362,-1.80906 0,-1.20604 0,-2.41207 0,-3.61811 -0.1206,-0.24121 -0.24121,-0.48242 -0.36181,-0.72362 -0.1206,-1.20604 -0.24121,-2.41208 -0.36181,-3.61811 -0.53605,-0.47615 -0.36181,-1.12427 -0.36181,-1.80906 -0.24121,-1.08543 -0.48242,-2.17087 -0.72363,-3.2563 -0.1206,-0.72362 -0.2412,-1.44724 -0.36181,-2.17087 0.16668,-1.56661 -0.1161,-2.92718 -0.72362,-4.34173 0.1206,-0.48242 0.24121,-0.96483 0.36181,-1.44724 0,-0.72363 0,-1.44725 0,-2.17087 0.80152,-1.36184 0.59815,-3.43426 0.72362,-5.06536 0.48242,-1.32664 0.96483,-2.65328 1.44725,-3.97992 0,-0.48241 0,-0.96483 0,-1.44724 0.52643,-0.45546 0.5603,-1.15577 0.72362,-1.80906 0,-0.72362 0,-1.44724 0,-2.17087 0.63508,-0.0703 0.36181,-0.84061 0.36181,-1.44724 0.44993,-2.17252 1.08544,-4.28995 1.08544,-6.5126 1.05667,-1.30785 1.21793,-2.73656 1.44724,-4.34173 0.4943,-1.44677 1.08543,-2.81066 1.08543,-4.34174 0.44193,-1.07837 0.72363,-2.10383 0.72363,-3.2563 0.48652,-0.59242 0.72362,-1.06716 0.72362,-1.80905 1.36526,-2.34044 2.56063,-3.75746 3.2563,-6.5126 0.65079,-0.21006 0.82534,-0.6953 1.08543,-1.08544 0.63405,0.26747 0.55868,-0.27018 0.72362,-0.36181 0.96483,-0.36181 1.92966,-0.72362 2.89449,-1.08543 -0.27136,-7.191 -0.23806,-6.30847 -0.81408,-21.57299 -0.70401,-2.9121 -0.0963,-0.39852 -0.99497,-4.1156 1.11558,0.799 2.23117,1.598 3.34675,2.397 1.8995,3.06031 3.64091,5.86592 5.69852,9.18096 1.08661,5.69341 3.04571,9.77905 7.36791,13.36506 2.03557,8.09219 3.30416,16.49182 4.93367,24.6251 0.45685,5.13949 2.74203,11.10229 1.44725,16.2815 -0.25393,6.90059 1.07068,10.03618 -3.66578,15.134 -1.03548,2.786 -2.07095,5.57201 -3.10643,8.35801 0,0 -3.29666,9.44893 -4.94497,14.17336 -7.67218,9.15348 -15.31965,18.27748 -23.01669,27.46063 -0.75583,0.0823 -1.26981,0.908 -1.80906,1.44725 -5.43862,4.555 -11.38655,7.53423 -18.09055,9.7689 -1.32664,-0.12061 -2.65328,-0.24121 -3.97992,-0.36181 z"
         inkscape:label="Shadow1"
         sodipodi:nodetypes="ccccccccccccccccccccccccccccccccccccccccccccccccccc" />
      <path
         style="display:inline;fill:#359c3f;fill-opacity:1;stroke:none;stroke-width:1.992;stroke-dasharray:none;stroke-opacity:1"
         d="m 410.29381,240.24258 c 0,0 0,0 0.12464,-0.68552 0.12464,-0.68552 0.37081,-2.03948 0.84671,-2.72724 0.47589,-0.68776 1.19951,-0.80837 1.68193,-0.68776 0.48241,0.1206 0.72362,0.48241 1.56785,1.44724 0.84422,0.96483 2.29147,2.53268 3.3166,3.61811 1.02513,1.08543 1.62815,1.68845 2.59298,2.53268 0.96483,0.84422 2.29147,1.92966 3.29113,2.6966 0.99966,0.76695 1.72876,1.25302 2.65602,1.93149 0.92726,0.67848 2.01269,1.5227 3.15843,2.24632 1.14573,0.72362 2.35177,1.32664 3.07539,1.50755 0.72362,0.18091 0.96483,-0.0603 0.87151,-1.09775 -0.0933,-1.03745 -0.68264,-3.56305 -1.58062,-9.15462 -0.89798,-5.59156 -1.12485,-9.38405 -1.83111,-12.54655 -0.70626,-3.1625 -1.55785,-4.74416 -2.2503,-7.31298 -0.69245,-2.56882 -0.63634,-3.54783 -0.33821,-6.58694 0.29813,-3.0391 0.63792,-5.87972 0.50852,-9.29829 -0.1294,-3.41857 -0.53929,-5.52588 -0.92485,-10.1708 -0.38555,-4.64493 -0.38851,-4.55669 -0.0786,-17.58217 0.30994,-13.02548 0.31268,-13.17373 0.40594,-18.98644 0.0933,-5.81272 0.1307,-9.36955 0.7771,-11.39279 0.64641,-2.02324 1.85371,-2.05466 2.4502,-2.02986 0.5965,0.0248 0.7909,0.10818 1.11827,0.43855 0.32736,0.33037 0.57916,0.66611 0.90655,1.18302 0.32738,0.51691 0.56859,0.99933 1.17693,1.8502 0.60833,0.85086 1.56562,2.04747 2.33293,2.935 0.76731,0.88753 1.93803,2.05826 2.51347,2.75431 0.57545,0.69604 0.93726,1.29906 1.33134,1.98428 0.39408,0.68522 0.6586,1.16136 1.58276,2.65449 0.92416,1.49312 1.64455,2.45364 2.42684,2.87356 0.78228,0.41993 1.6265,0.29932 2.28982,0.0581 0.66332,-0.24121 1.14574,-0.60302 1.82363,-1.25274 0.67789,-0.64971 2.48222,-2.58677 3.04863,-3.42435 0.5664,-0.83757 1.22284,-2.00132 1.94556,-2.60527 0.72271,-0.60394 1.51168,-0.6481 1.9361,-0.5786 0.42442,0.0695 0.48428,0.25268 0.44193,0.69738 -0.0424,0.44469 -0.18692,1.15084 -0.62101,2.77027 -0.43409,1.61943 -0.90784,3.27756 -1.55685,5.22456 -0.64901,1.94701 -0.85046,2.24919 -1.10335,2.70556 -0.25289,0.45637 -0.49105,0.93269 -0.67978,1.31014 -0.18873,0.37745 -0.26611,0.53222 -1.01129,1.24925 -0.74519,0.71703 -1.52469,1.41858 -2.96458,2.24413 -1.43989,0.82555 -2.88714,1.18736 -3.91227,1.66978 -1.02513,0.48241 -1.62815,1.08543 -1.92966,3.90547 -0.30151,2.82004 -0.30151,10.75147 -0.30151,15.85677 0,5.1053 0,10.32952 0.0607,12.7116 0.0607,2.38207 0.094,2.44874 0.61969,2.65589 0.52569,0.20715 1.36991,0.20715 1.96156,0.13934 0.59164,-0.0678 1.42438,-0.40091 2.28572,-0.70926 0.86135,-0.30836 1.94679,-0.67017 3.01715,-1.06967 1.07035,-0.3995 0.0753,0.0128 4.68935,-2.29429 4.61409,-2.30705 1.61913,-0.67935 3.83929,-1.94757 2.22016,-1.26822 3.5468,-2.11245 4.69253,-2.95668 1.14574,-0.84422 2.11057,-1.68845 3.05279,-2.4573 0.94222,-0.76885 1.86181,-1.46232 2.30576,-1.71743 0.44395,-0.25511 0.41225,-0.0719 0.1032,1.71458 -0.30905,1.78646 -0.89544,5.17608 -1.33938,6.93874 -0.44395,1.76265 -0.74546,1.89833 -1.07712,2.14708 -0.33167,0.24875 -0.69348,0.61056 -2.68344,1.8769 -1.98996,1.26633 1.62815,-0.90453 -1.28405,0.70621 -2.9122,1.61074 -5.86349,3.01612 -9.25457,3.89868 -3.39108,0.88257 -7.03982,1.38934 -9.5572,2.04049 -2.51737,0.65114 -2.51737,1.25416 -2.51737,1.61875 0,0.36459 0,1.39995 0.0603,1.90462 0.0603,0.50467 0.18091,0.86648 0.24121,1.4092 0.0603,0.54272 0.0603,1.26634 0.2412,1.98996 0.18091,0.72362 0.54272,1.44725 0.84423,2.23117 0.30151,0.78392 0.54272,1.62815 1.44725,1.44725 0.90452,-0.1809 2.47237,-1.38694 3.55929,-2.11116 1.08692,-0.72422 1.64214,-0.94631 2.6545,-1.56762 1.01236,-0.62131 3.13478,-2.13733 4.08465,-2.86347 0.94987,-0.72615 1.10255,-0.87883 1.40209,-1.11807 0.29953,-0.23923 0.66135,-0.48044 2.10859,-1.68647 1.44724,-1.20604 0.039,0.001 0.81483,-0.52568 0.77582,-0.5267 1.86073,0.63569 1.99281,1.61336 0.13208,0.97767 -0.17191,1.90088 -1.62661,3.96958 -1.4547,2.06869 -2.88455,3.61113 -4.50517,5.12621 -1.62061,1.51509 -2.94725,2.47992 -3.97238,3.32414 -1.02513,0.84423 -1.67522,1.49431 -2.33952,2.15861 -0.6643,0.6643 -1.06899,1.069 -2.05519,1.68988 -0.98621,0.62088 -2.94484,1.60019 -3.88816,2.31306 -0.94331,0.71286 -1.18452,1.31588 -1.24594,2.68277 -0.0614,1.36689 0.0617,3.58367 1.08798,4.42468 1.02624,0.841 2.9527,0.35939 5.3048,-0.78643 2.3521,-1.14582 5.12599,-2.95487 7.35715,-4.22121 2.23117,-1.26634 3.91963,-1.98997 5.36687,-2.71359 1.44724,-0.72362 2.65328,-1.44724 3.61811,-1.98995 0.96483,-0.54272 1.68845,-0.90453 2.25379,-1.09298 0.56533,-0.18844 0.96726,-0.20331 1.17417,-0.18229 0.20692,0.021 0.20733,0.0349 0.27119,2.09399 0.0639,2.05908 0.0763,2.45942 0.11618,3.74244 0.0399,1.28301 0.0419,1.34519 -0.20335,1.62322 -0.24523,0.27802 -0.71756,0.75035 -1.56178,1.71518 -0.84423,0.96482 -2.05027,2.41207 -3.0151,3.4975 -0.96483,1.08543 -1.68845,1.80905 -2.47237,2.47238 -0.78393,0.66332 -1.62815,1.26634 -2.65152,1.95047 -1.02338,0.68413 -2.49097,1.61805 -3.6886,2.27601 -1.19762,0.65797 -2.28305,1.14038 -3.165,1.51729 -0.88196,0.3769 -1.37298,0.57331 -1.93396,0.88212 -0.56099,0.30882 -1.04341,0.67063 -1.67893,1.02053 -0.63552,0.3499 -1.52648,0.73174 -2.37514,1.03515 -0.84866,0.30341 -1.69288,0.54461 -2.1753,1.20793 -0.48241,0.66332 -0.60302,1.74876 -0.77461,2.62534 -0.17159,0.87658 -0.42816,1.64632 -0.79067,2.55362 -0.3625,0.90731 -0.84208,1.98637 -1.26655,2.83589 -0.42447,0.84952 -0.78628,1.45254 -3.13805,4.10583 -2.35177,2.65328 1.98996,-2.05027 -0.36181,0.54271 -2.35177,2.59298 -2.71359,3.0754 -3.0754,3.2563 -0.36181,0.18091 -0.72362,0.0603 -1.02513,0 -0.30151,-0.0603 -0.54271,-0.0603 -0.78392,-0.66332 -0.24121,-0.60302 -0.48241,-1.80905 -0.73871,-2.75131 -0.2563,-0.94226 -0.45271,-1.43327 -0.82183,-2.17517 -0.36912,-0.74189 -0.85154,-1.58612 -1.09274,-2.18914 -0.24121,-0.60302 -0.24121,-0.96483 -0.37233,-1.47353 -0.13112,-0.5087 -0.34846,-1.05205 -0.67374,-1.89913 -0.32528,-0.84709 -0.62843,-1.65546 -1.11105,-3.11438 -0.48262,-1.45893 -0.74817,-2.32195 -1.79884,-3.78737 -1.05068,-1.46541 -2.44369,-2.39408 -4.67287,-4.2022 -2.22918,-1.80812 -5.23093,-4.44966 -6.86391,-6.20267 -1.63299,-1.75301 -1.87419,-2.59723 -2.59782,-3.26055 -0.72362,-0.66332 -1.92966,-1.14574 -3.1357,-1.62815"
         id="path22"
         inkscape:path-effect="#path-effect22"
         inkscape:original-d="m 410.29381,240.24258 v 0 c -0.20399,-1.45345 0.72362,-2.68352 0.72362,-3.97992 0.72362,-0.1206 1.44724,-0.24121 2.17086,-0.36181 0.24121,0.36181 0.48242,0.72362 0.72363,1.08543 1.44724,1.56785 2.89449,3.1357 4.34173,4.70355 0.60302,0.60301 1.20604,1.20603 1.80906,1.80905 1.32664,1.08543 2.65328,2.17087 3.97992,3.2563 0.32977,0.96282 1.29384,1.09644 2.17086,1.44725 1.08544,0.84422 2.17087,1.68845 3.2563,2.53267 1.20604,0.60302 2.41208,1.20604 3.61812,1.80906 0.2412,-0.24121 0.48241,-0.48242 0.72362,-0.72362 -0.86579,-1.73151 -0.91488,-4.38316 -2.53268,-10.85434 -0.28044,-4.68808 -0.50731,-8.48057 -0.75642,-12.64475 -1.16342,-2.16082 -2.01501,-3.74248 -3.53278,-6.56145 0.13287,-2.31867 0.18898,-3.29768 0.30928,-5.39695 0.47596,-3.97894 0.81575,-6.81956 1.22362,-10.22934 -0.66667,-3.42736 -1.07656,-5.53467 -2,-10.28209 0.15233,-4.54243 0.14937,-4.45419 0.45699,-13.62726 0.31226,-16.87789 0.315,-17.02614 0.46388,-25.07334 0.0376,-3.57823 0.0751,-7.13506 0.11731,-11.14899 1.25058,-0.0325 2.45788,-0.064 3.47358,-0.0904 0.1773,0.076 0.37169,0.15941 0.60635,0.26005 0.42008,0.5601 0.39617,1.10261 1.08543,1.44725 0.24121,0.48241 0.48242,0.96483 0.72363,1.44724 0.6685,1.46489 1.95219,2.40038 2.89449,3.61811 0.68366,0.4621 1.7436,1.74361 2.53267,2.53268 0.36182,0.60302 0.72363,1.20604 1.08544,1.80905 0.9514,0.47574 1.23088,0.94357 1.80905,3.2563 0.77516,0.93976 1.62439,1.80365 2.17087,2.89449 0.84423,-0.1206 1.68845,-0.2412 2.53268,-0.36181 0.48241,-0.36181 0.96483,-0.72362 1.44724,-1.08543 1.38452,-0.4615 3.28286,-2.31099 3.15407,-3.38609 0.65644,-1.16374 1.31288,-2.32749 1.96932,-3.49123 0.78899,-0.0442 1.57796,-0.0883 2.36695,-0.13246 0.0598,0.18317 0.11971,0.36633 0.17957,0.54951 -0.14457,0.70621 -0.28913,1.41236 -0.43369,2.11854 -0.72362,2.53268 -1.19737,4.19081 -2.17086,7.59803 0.009,0.70914 -0.46669,0.8285 -0.72362,1.08543 0.0367,0.7887 -0.45379,1.13886 -0.72363,1.44725 0.26747,0.63405 -0.27018,0.55868 -0.36181,0.72362 -1.11514,1.58871 -1.8299,2.3622 -3.61811,3.2563 -1.44724,0.36181 -2.89449,0.72362 -4.34173,1.08543 -0.60302,0.60302 -1.20604,1.20604 -1.80906,1.80906 0.0927,5.03706 0,12.96849 0,18.81418 -1.6405,4.36491 -0.48031,9.58913 0,14.11063 0.48703,0.0598 0.36181,0.20575 0.36181,0.72362 0.84423,0 1.68845,0 2.53268,0 0.12123,-0.68021 1.12459,-0.58673 1.80906,-0.72362 1.08543,-0.36181 2.17087,-0.72362 3.2563,-1.08543 1.05528,-0.43719 0.0602,-0.0249 3.16585,-1.31157 6.12252,-3.32746 3.12756,-1.69976 6.24124,-3.39198 1.32664,-0.84422 2.65328,-1.68845 3.97992,-2.53268 0.96483,-0.84422 1.92966,-1.68845 2.89449,-2.53267 0.91961,-0.69348 1.8392,-1.38695 2.7588,-2.08042 -0.0317,0.18325 -0.0634,0.36649 -0.0951,0.54974 -0.58639,3.38966 -1.17278,6.77928 -1.75918,10.16892 -0.3015,0.13568 -0.60301,0.27135 -0.90452,0.40703 -0.36181,0.36182 -0.72363,0.72363 -1.08544,1.08544 -4.37378,2.18684 1.96184,-0.61911 -3.61811,2.17086 -2.25807,0.94189 -5.17564,2.41806 -7.59803,3.61812 -4.34171,0.60301 -7.89333,1.80905 -13.0252,1.80905 0,0.60302 0,1.20604 0,1.80906 -0.67113,0.12616 -0.12951,1.16152 0,1.80905 0.1206,0.36181 0.24121,0.72362 0.36181,1.08544 0,0.72362 0,1.44724 0,2.17086 0.36181,0.72362 0.72362,1.44725 1.08543,2.17087 0.24121,0.84422 0.48242,1.68845 0.72363,2.53268 1.56784,-1.20604 3.13569,-2.41208 4.70354,-3.61811 0.74714,0.11046 1.21577,-0.3281 1.80906,-0.72363 1.8982,-0.25361 3.58277,-2.38263 5.06535,-3.61811 0.59686,-0.0705 0.52026,-0.45247 0.72362,-0.72362 0.36181,-0.24121 0.72363,-0.48242 1.08544,-0.72362 2.84491,-1.89663 0.97813,-1.13451 2.53267,-2.17087 0.83888,-0.49545 1.35959,1.19353 1.89952,2.03519 -0.40705,1.2362 -0.71103,2.15941 -1.22112,3.70857 -2.39931,2.58823 -3.82916,4.13067 -5.74375,6.19601 -1.32664,0.96483 -2.65328,1.92966 -3.97992,2.89449 -0.72362,0.72362 -1.37371,1.3737 -2.17087,2.17086 -0.36049,0.70239 -0.76576,1.10651 -1.44724,1.44725 -0.95199,1.74926 -3.27685,1.99612 -5.06536,2.53268 -0.24121,0.60301 -0.48242,1.20603 -0.72362,1.80905 0.60877,2.10352 0.36181,4.34086 0.36181,6.5126 1.91421,-0.55499 3.83568,-1.05659 5.78898,-1.44724 2.77388,-1.80906 5.54777,-3.61811 8.32165,-5.42717 1.68845,-0.72362 3.37691,-1.44724 5.06536,-2.17087 1.20603,-0.72362 2.41207,-1.44724 3.61811,-2.17086 0.72362,-0.36181 1.44724,-0.72363 2.17087,-1.08544 0.40704,-0.0151 0.80897,-0.03 1.22111,-0.0452 0.002,0.0573 0.002,0.0712 0.005,0.16978 0.12483,4.01957 0.13727,4.41991 0.21506,6.92494 0.002,0.061 0.004,0.12318 0.006,0.18673 -0.4925,0.4925 -0.96483,0.96483 -1.44724,1.44724 -1.20604,1.44724 -2.41208,2.89449 -3.61812,4.34173 -0.72362,0.72362 -1.44724,1.44724 -2.17086,2.17087 -0.84423,0.60302 -1.68845,1.20604 -2.53268,1.80906 -1.26187,0.67197 -2.71122,1.63456 -3.97992,2.53267 -1.08544,0.48242 -2.17087,0.96483 -3.2563,1.44725 -0.59242,0.48653 -1.06717,0.72362 -1.80906,0.72362 -0.48241,0.36181 -0.96483,0.72362 -1.44724,1.08543 -0.97338,-0.0931 -1.72945,0.6035 -2.53268,1.08544 -0.84423,0.2412 -1.68845,0.48241 -2.53268,0.72362 -0.1206,1.08543 -0.24121,2.17087 -0.36181,3.2563 -0.58465,0.54704 -0.57083,1.40691 -0.72362,2.17087 -0.77736,0.94929 -1.06619,2.11313 -1.44725,3.2563 -0.36181,0.60301 -0.72362,1.20603 -1.08543,1.80905 -4.54901,4.54901 3.58875,-2.23565 -4.34173,4.70355 -0.36181,0.48241 -0.72363,0.96483 -1.08544,1.44724 -0.36181,-0.1206 -0.72362,-0.24121 -1.08543,-0.36181 -0.24121,0 -0.48241,0 -0.72362,0 -0.24121,-1.20604 -0.48242,-2.41207 -0.72362,-3.61811 -0.48653,-0.59242 -0.72363,-1.06716 -0.72363,-1.80906 -0.48241,-0.84422 -0.96483,-1.68845 -1.44724,-2.53268 0,-0.36181 0,-0.72362 0,-1.08543 -0.0664,-0.73393 -0.35113,-1.25032 -0.72362,-1.80905 -0.1119,-1.19454 -0.25418,-2.06324 -1.08544,-2.89449 0,-2.09716 -1.44724,-2.59659 -1.44724,-4.70355 -1.323,-1.28529 -2.78217,-2.11471 -4.34173,-2.89449 -3.40491,-2.21771 -6.19042,-5.10498 -9.04528,-7.95984 -0.24121,-0.84423 -0.48242,-1.68845 -0.72362,-2.53268 -1.20604,-0.48241 -2.41208,-0.96483 -3.61812,-1.44724"
         inkscape:label="Shadow2"
         sodipodi:nodetypes="ccccccccccccccccccccccccccccccccccccccccccccccccccccccccccccccccccccccccscccccccccccccccccccccccccccccccccccccccccccccccc" />
      <path
         style="fill:none;fill-opacity:1;stroke:#000000;stroke-width:1.992;stroke-dasharray:none;stroke-opacity:1"
         d="m 321.07806,249.69896 c 2.13199,-0.4264 4.26399,-0.8528 6.73626,-1.70522 2.47227,-0.85241 5.28872,-2.13262 8.09436,-3.4503 2.80565,-1.31768 5.63812,-2.691 7.64139,-3.79924 2.00327,-1.10825 3.19718,-1.96104 4.13526,-2.7712 0.93808,-0.81016 1.62032,-1.57768 2.6825,-2.93621 1.06219,-1.35854 2.5042,-3.30791 3.94627,-5.25737"
         id="path11"
         inkscape:path-effect="#path-effect12"
         inkscape:original-d="m 321.07806,249.69896 c 0,0 4.26399,-0.8528 6.39598,-1.2792 2.77796,-1.35452 5.62234,-2.57329 8.44269,-3.83759 2.6067,-1.75013 5.57966,-2.83369 8.44269,-4.09342 1.19392,-0.8528 2.38783,-1.7056 3.58175,-2.55839 0.68224,-0.76752 1.36447,-1.53504 2.04671,-2.30255 1.44214,-1.94956 2.88414,-3.89893 4.32622,-5.84839"
         sodipodi:nodetypes="ccccccc"
         transform="translate(118.4535,-3.8375864)" />
      <path
         style="fill:none;fill-opacity:1;stroke:#000000;stroke-width:1.992;stroke-dasharray:none;stroke-opacity:1"
         d="m 301.89013,255.07158 c -0.51168,-0.51168 -1.02336,-1.02336 -2.25991,-2.17464 -1.23656,-1.15128 -3.19799,-2.94215 -4.82045,-4.56246 -1.62245,-1.62032 -2.90593,-3.07006 -4.27425,-5.51864 -1.36831,-2.44858 -2.82147,-5.89598 -4.27462,-9.34338"
         id="path12"
         inkscape:path-effect="#path-effect13"
         inkscape:original-d="m 301.89013,255.07158 c 0,0 -1.02336,-1.02336 -1.53503,-1.53504 -1.96144,-1.79087 -3.92287,-3.58175 -5.8843,-5.37262 -1.28348,-1.44976 -2.56696,-2.8995 -3.85044,-4.34926 -1.45316,-3.4474 -2.90631,-6.8948 -4.35946,-10.3422"
         sodipodi:nodetypes="ccccc"
         transform="translate(118.4535,-3.8375864)" />
      <path
         style="fill:none;fill-opacity:1;stroke:#000000;stroke-width:1.992;stroke-dasharray:none;stroke-opacity:1"
         d="m 325.68317,231.27854 c 2.47311,-1.44975 4.94622,-2.89951 6.95029,-4.51982 2.00408,-1.62032 3.53911,-3.41119 4.64774,-4.69039 1.10864,-1.27919 1.79088,-2.04671 2.47312,-2.81423"
         id="path14"
         inkscape:path-effect="#path-effect14"
         inkscape:original-d="m 325.68317,231.27854 c 0,0 4.94622,-2.89951 7.41933,-4.34926 1.53503,-1.79088 3.07007,-3.58175 4.6051,-5.37262 0.68224,-0.76752 1.36448,-1.53504 2.04672,-2.30256"
         transform="translate(118.4535,-3.8375864)"
         sodipodi:nodetypes="cccc" />
      <path
         style="fill:none;fill-opacity:1;stroke:#000000;stroke-width:1.992;stroke-dasharray:none;stroke-opacity:1"
         d="m 312.63537,233.06941 c -2.21727,-3.15534 -4.43454,-6.31069 -6.18277,-8.95436 -1.74824,-2.64367 -3.02743,-4.77567 -3.79495,-6.0975 -0.76752,-1.32184 -1.02336,-1.83352 -1.2792,-2.34519"
         id="path15"
         inkscape:path-effect="#path-effect15"
         inkscape:original-d="m 312.63537,233.06941 c -2.21727,-3.15534 -4.43454,-6.31069 -6.65181,-9.46604 -1.2792,-2.13199 -2.55839,-4.26399 -3.83759,-6.39598 -0.25584,-0.51168 -0.51168,-1.02336 -0.76752,-1.53503"
         transform="translate(118.4535,-3.8375864)" />
      <path
         style="fill:none;fill-opacity:1;stroke:#000000;stroke-width:1.992;stroke-dasharray:none;stroke-opacity:1"
         d="m 333.61418,211.06725 c 2.21727,-1.36447 4.43454,-2.72895 6.14014,-3.79494 1.70559,-1.066 2.89951,-1.83352 4.52803,-2.66348 1.62852,-0.82996 3.69163,-1.72236 6.26902,-3.30004 2.57738,-1.57768 5.66903,-3.84062 8.76067,-6.10356"
         id="path16"
         inkscape:path-effect="#path-effect16"
         inkscape:original-d="m 333.61418,211.06725 c 0,0 4.43454,-2.72895 6.65181,-4.09342 1.19392,-0.76752 2.38784,-1.53504 3.58175,-2.30255 2.06313,-0.89241 4.12624,-1.78481 6.18936,-2.67722 3.09165,-2.26295 6.1833,-4.52589 9.27494,-6.78883"
         sodipodi:nodetypes="ccccc"
         transform="translate(118.4535,-3.8375864)" />
      <path
         style="fill:none;fill-opacity:1;stroke:#000000;stroke-width:1.992;stroke-dasharray:none;stroke-opacity:1"
         d="m 309.30946,211.06725 c -0.17056,-0.25584 -0.34112,-0.51168 -0.89543,-1.10863 -0.55432,-0.59696 -1.4924,-1.53504 -2.64368,-3.02743 -1.15127,-1.4924 -2.51574,-3.53911 -3.3259,-4.98886 -0.81016,-1.44976 -1.066,-2.30256 -1.23657,-2.7716 -0.17057,-0.46905 -0.25583,-0.55431 -0.59695,-1.36447 -0.34112,-0.81016 -0.93807,-2.34519 -1.32183,-3.58174 -0.38376,-1.23656 -0.55432,-2.17464 -0.81016,-3.53913 -0.25584,-1.36449 -0.5909,-3.12354 -0.84976,-4.16279 -0.25887,-1.03926 -0.42943,-1.2951 -0.68527,-1.89206 -0.25584,-0.59695 -0.59696,-1.53503 -1.17382,-2.75863 -0.57687,-1.22361 -1.1433,-2.27555 -1.47713,-2.87117 -0.33384,-0.59561 -0.58968,-1.02201 -0.84552,-1.44841"
         id="path17"
         inkscape:path-effect="#path-effect17"
         inkscape:original-d="m 309.30946,211.06725 c 0,0 -0.34111,-0.51168 -0.51167,-0.76751 -0.93808,-0.93808 -1.87616,-1.87616 -2.81423,-2.81423 -1.36448,-2.04672 -2.72895,-4.09343 -4.09343,-6.14014 -0.25584,-0.8528 -0.51168,-1.7056 -0.76752,-2.55839 -0.0853,-0.0853 -0.17056,-0.17056 -0.25584,-0.25584 -0.59695,-1.53504 -1.19391,-3.07007 -1.79087,-4.60511 -0.17056,-0.93807 -0.34112,-1.87615 -0.51168,-2.81423 0.14994,-1.88443 -0.48734,-3.58591 -1.02335,-5.37262 -0.17056,-0.25584 -0.34112,-0.51168 -0.51168,-0.76752 -0.34112,-0.93807 -0.68224,-1.87615 -1.02336,-2.81423 -0.95499,-1.43246 -1.51205,-2.48945 -1.79087,-3.3259 -0.25584,-0.4264 -0.51168,-0.8528 -0.76752,-1.2792"
         sodipodi:nodetypes="ccccccccccccc"
         transform="translate(118.4535,-3.8375864)" />
      <path
         style="fill:none;fill-opacity:1;stroke:#000000;stroke-width:1.992;stroke-dasharray:none;stroke-opacity:1"
         d="m 322.6131,170.90051 c 1.19391,-0.34112 2.38783,-0.68223 3.58174,-1.32183 1.19392,-0.6396 2.38784,-1.57768 3.28652,-2.30533 0.89867,-0.72765 1.46248,-1.21092 2.28597,-1.98986 0.82349,-0.77895 1.84685,-1.80231 2.57172,-2.74039 0.72488,-0.93807 1.15128,-1.79087 1.36448,-2.43047 0.2132,-0.63959 0.2132,-1.06599 0.2132,-1.49239"
         id="path18"
         inkscape:path-effect="#path-effect18"
         inkscape:original-d="m 322.6131,170.90051 c 0,0 2.38783,-0.68223 3.58174,-1.02335 1.19392,-0.93808 2.38784,-1.87616 3.58175,-2.81423 0.37708,-0.78132 1.07647,-1.1064 1.79088,-1.53504 1.02335,-1.02335 2.04671,-2.04671 3.07006,-3.07007 0.4264,-0.85279 0.8528,-1.70559 1.2792,-2.55839 0,-0.42639 0,-1.27919 0,-1.27919"
         sodipodi:nodetypes="ccccccc"
         transform="translate(118.4535,-3.8375864)" />
      <path
         style="fill:none;fill-opacity:1;stroke:#000000;stroke-width:1.992;stroke-dasharray:none;stroke-opacity:1"
         d="m 300.86677,156.82936 c 2.04672,3.75231 4.09343,7.50461 6.14014,11.25692"
         id="path19"
         inkscape:path-effect="#path-effect19"
         inkscape:original-d="m 300.86677,156.82936 c 2.04672,3.75231 6.14014,11.25692 6.14014,11.25692"
         sodipodi:nodetypes="cc"
         transform="translate(118.4535,-3.8375864)" />
      <path
         style="fill:none;fill-opacity:1;stroke:#000000;stroke-width:1.992;stroke-dasharray:none;stroke-opacity:1"
         d="m 314.93792,267.86353 c 0.17056,-0.4264 0.34112,-0.8528 0.46904,-1.74823 0.12792,-0.89542 0.2132,-2.25992 0.12792,-4.05079 -0.0853,-1.79087 -0.34112,-4.00814 -0.63598,-5.86801 -0.29486,-1.85986 -0.64274,-3.42536 -0.85618,-4.49242 -0.21343,-1.06705 -0.29871,-1.66401 -0.42663,-2.34624 -0.12792,-0.68224 -0.29848,-1.44976 -0.46904,-2.47312 -0.17056,-1.02335 -0.34112,-2.30255 -0.47278,-3.22042 -0.13166,-0.91788 -0.20562,-1.36166 -0.20754,-1.71429 -0.002,-0.35264 0.0834,-0.52319 0.126,-2.1435 0.0426,-1.62031 0.0426,-4.69038 0.004,-6.9976 -0.0386,-2.30723 -0.13999,-4.33489 -0.17861,-5.91742 -0.0386,-1.58253 -0.0386,-3.20284 0.004,-4.52468 0.0426,-1.32183 0.12792,-2.34519 0.0426,-3.53911 -0.0853,-1.19391 -0.34111,-2.55839 -0.46903,-4.09343 -0.12792,-1.53503 -0.12792,-3.24062 -0.17056,-4.86094 -0.0426,-1.62031 -0.12792,-3.15534 -0.0853,-4.3919 0.0426,-1.23655 0.21319,-2.17463 0.42639,-3.07007 0.2132,-0.89543 0.46904,-1.74823 0.68357,-2.65098 0.21453,-0.90275 0.37799,-1.80177 0.50813,-2.70942 0.13014,-0.90765 0.21542,-1.76045 0.38598,-2.74117 0.17056,-0.98071 0.4264,-2.08935 0.6007,-2.92195 0.1743,-0.83259 0.24826,-1.27637 0.33546,-2.39652 0.0872,-1.12015 0.17247,-2.82574 0.25775,-5.21357 0.0853,-2.38783 0.17056,-5.4579 0.2132,-7.29142 0.0426,-1.83351 0.0426,-2.43047 -0.0426,-3.02743 -0.0853,-0.59695 -0.25583,-1.19391 -0.34111,-1.79087 -0.0853,-0.59696 -0.0853,-1.19391 -0.12792,-1.66295 -0.0426,-0.46904 -0.12792,-0.81016 -0.2132,-1.62032 -0.0853,-0.81015 -0.17056,-2.08935 -0.25584,-2.81423 -0.0853,-0.72488 -0.17056,-0.89543 -0.2132,-1.19391 -0.0426,-0.29848 -0.0426,-0.72488 -0.17056,-1.62032 -0.12792,-0.89543 -0.38376,-2.25991 -0.51168,-3.15534 -0.12792,-0.89544 -0.12792,-1.32184 -0.34112,-2.81424 -0.2132,-1.49239 -0.63959,-4.05078 -0.90048,-5.61611 -0.26089,-1.56533 -0.34131,-2.04785 -0.38133,-3.05549 -0.04,-1.00764 -0.04,-2.54268 -2.3e-4,-3.82746 0.0398,-1.28478 0.13181,-2.48103 0.30185,-3.58291 0.17003,-1.10188 0.42587,-2.21052 0.76697,-3.57492 0.3411,-1.3644 0.76789,-2.98621 1.15148,-4.30738 0.38358,-1.32116 0.72469,-2.34451 0.96169,-3.36717 0.23699,-1.02265 0.36986,-2.04461 0.50273,-3.06656"
         id="path20"
         inkscape:path-effect="#path-effect20"
         inkscape:original-d="m 314.93792,267.86353 c 0,0 0.34112,-0.8528 0.51168,-1.27919 0.0853,-1.36446 0.17056,-2.72896 0.25584,-4.09343 -0.25584,-2.21727 -0.51168,-4.43454 -0.76752,-6.65182 0.1122,-1.60158 -0.55879,-3.09528 -1.02335,-4.6051 -0.0853,-0.59696 -0.17056,-1.19392 -0.25584,-1.79087 -0.17056,-0.76752 -0.34112,-1.53504 -0.51168,-2.30256 -0.17056,-1.27919 -0.34112,-2.55839 -0.51168,-3.83758 0.10935,-0.59024 -0.0706,-1.01636 -0.25584,-1.53504 0.0853,-0.17056 0.17056,-0.34112 0.25584,-0.51167 0,-3.07007 0,-6.14014 0,-9.21021 -0.0772,-1.54438 0.49957,-3.60595 -0.25584,-5.11678 0,-1.62032 0,-3.24063 0,-4.86095 0.0853,-1.02335 0.17056,-2.04671 0.25584,-3.07007 -0.25584,-1.36447 -0.51168,-2.72895 -0.76751,-4.09342 0,-1.7056 0,-3.41119 0,-5.11678 -0.0853,-1.53504 -0.17056,-3.07007 -0.25584,-4.60511 0.17056,-0.93807 0.34112,-1.87615 0.51167,-2.81423 0.25584,-0.85279 0.51168,-1.70559 0.76752,-2.55839 -0.12592,-1.00709 0.19918,-1.87672 0.51168,-2.81423 0.0853,-0.85279 0.17056,-1.70559 0.25584,-2.55839 0.25584,-1.10863 0.51168,-2.21727 0.76752,-3.32591 -0.10935,-0.59024 0.0706,-1.01635 0.25584,-1.53503 0.0853,-1.7056 0.17055,-3.41119 0.25583,-5.11678 0.0853,-3.07007 0.17056,-6.14014 0.25584,-9.21021 0,-0.59696 0,-1.19392 0,-1.79087 -0.17056,-0.59696 -0.34112,-1.19392 -0.51167,-1.79088 0,-0.59696 0,-1.19391 0,-1.79087 -0.0853,-0.34112 -0.17056,-0.68224 -0.25584,-1.02336 -0.0853,-1.27919 -0.17056,-2.55839 -0.25584,-3.83758 -0.0853,-0.17056 -0.17056,-0.34112 -0.25584,-0.51168 0,-0.4264 0,-0.8528 0,-1.2792 -0.25584,-1.36447 -0.51168,-2.72895 -0.76752,-4.09342 0,-0.4264 0,-0.8528 0,-1.2792 -0.4264,-2.55839 -0.8528,-5.11678 -1.27919,-7.67517 0.16139,-0.61506 -0.1,-1.06742 -0.25584,-1.53504 0,-1.53503 0,-3.07007 0,-4.6051 0.47377,-1.00421 0.25584,-2.2243 0.25584,-3.32591 0.25583,-1.10863 0.51167,-2.21727 0.76751,-3.32591 0.44074,-1.61638 0.8581,-3.24067 1.2792,-4.86094 0.34112,-1.02336 0.68224,-2.04671 1.02335,-3.07007 0.13287,-1.02195 0.39861,-3.06586 0.39861,-3.06586"
         sodipodi:nodetypes="cccccccccccccccccccccccccccccccccccccccccc"
         transform="translate(118.4535,-3.8375864)" />
      <path
         style="display:inline;fill:none;stroke:#000000;stroke-width:3.792"
         d="m 295.55771,283.60179 c -7.61328,-8.39582 -12.55454,-25.63277 -15.72368,-37.60153 -3.16914,-11.96877 -4.73698,-19.26528 -5.52091,-24.45125 -0.78392,-5.18597 -0.78392,-7.42286 -0.78392,-11.29838 0,-3.87552 0,-4.47715 0.64491,-9.45217 0.64491,-4.97502 1.04354,-6.62649 1.86995,-10.34616 0.8264,-3.71966 1.63789,-7.6757 2.81782,-11.98812 1.17992,-4.31243 2.26535,-6.7245 3.95381,-10.16171 1.68845,-3.4372 3.97992,-7.89954 5.78884,-11.03506 1.80893,-3.13552 3.13401,-4.94246 5.90881,-8.80301 2.77479,-3.86056 6.99592,-9.77014 10.97584,-13.08674 3.97993,-3.3166 3.20233,-3.1661 12.18966,-3.63211 8.98733,-0.46601 8.07177,-0.52872 13.98135,1.22004 5.90959,1.74875 16.32092,6.23494 20.00978,8.03207 3.68885,1.79713 6.64364,3.48558 9.26677,5.7469 2.62313,2.26132 3.13799,2.89811 6.65481,7.72045 3.51682,4.82234 5.71516,8.24198 8.50154,14.08894 2.78637,5.84696 5.35943,12.84806 6.87686,20.52627 1.51743,7.6782 1.876,14.64463 1.9145,23.94429 0.0385,9.29966 -0.28677,16.68601 -3.65309,25.99221 -3.36632,9.30621 -9.79801,20.40632 -18.28661,30.11605 -8.48861,9.70973 -13.3878,12.99832 -20.11785,17.25001 -6.73004,4.25169 -9.02735,5.3163 -11.83872,5.87857 -2.81137,0.56227 -5.65969,0.50414 -7.80041,0.53429 -2.14071,0.0301 -3.46735,0.15076 -9.1728,-0.14315 -5.70545,-0.29391 -10.84398,-0.65489 -18.45726,-9.0507 z"
         id="path10"
         inkscape:path-effect="#path-effect11"
         inkscape:original-d="m 292.54402,291.25106 c -4.59959,-16.04509 -9.54085,-33.28204 -14.31128,-49.92305 -1.56784,-7.29652 -3.13569,-14.59303 -4.70354,-21.88956 0,-3.07541 0,-5.3123 0,-9.22619 0,-3.83715 0,-4.43878 0,-9.04528 1.28982,-5.34354 1.68845,-6.99501 2.53268,-10.49252 0.65084,-3.97418 1.3549,-7.95225 2.89449,-14.11064 1.08543,-2.41207 2.17087,-4.82414 3.2563,-7.23622 2.29147,-4.46233 4.58294,-8.92467 6.87441,-13.38701 1.5286,-1.66041 2.73258,-3.55615 3.97992,-5.42717 4.22113,-5.90958 8.44226,-11.81916 12.66339,-17.72874 3.73872,-0.72362 2.96112,-0.57312 11.21615,-2.17086 9.71963,0.66572 8.80407,0.60301 13.20611,0.90452 7.41713,3.196 17.82846,7.68219 22.25138,9.588 2.95479,1.68845 5.90958,3.3769 8.86437,5.06535 2.29147,2.83419 2.80633,3.47098 6.87441,8.50256 0.96049,5.90207 3.91616,8.83486 8.14075,12.66339 2.5959,7.06327 5.16896,14.06437 7.77894,21.16595 0.42488,8.25483 0.78345,15.22126 1.26634,24.60316 -0.40589,9.21742 -0.73115,16.60377 -1.06442,24.17181 -6.39938,11.04437 -12.83107,22.14448 -20.43919,35.27494 -9.36909,6.289 -12.41316,12.34127 -25.17003,16.89539 -2.55834,1.18558 -4.85565,2.25019 -7.41712,3.43721 -3.06127,-0.0625 -5.90959,-0.12061 -8.86438,-0.18091 -1.32664,0.12061 -2.65328,0.24121 -3.97992,0.36181 -10.09647,-0.53459 -15.11239,-2.64095 -25.84976,-1.81594 z"
         transform="translate(114.98632,-7.9930888)"
         inkscape:label="Outline"
         sodipodi:nodetypes="cccccccccccccccccccccccccc" />
    </g>
  </g>
</svg>
