<?xml version="1.0" encoding="UTF-8" standalone="no"?>
<!-- Created with Inkscape (http://www.inkscape.org/) -->

<svg
   version="1.1"
   id="svg1"
   width="793.59998"
   height="559.35999"
   viewBox="0 0 793.59998 559.35999"
   sodipodi:docname="Bell Pepper.svg"
   inkscape:version="1.4 (86a8ad7, 2024-10-11)"
   xmlns:inkscape="http://www.inkscape.org/namespaces/inkscape"
   xmlns:sodipodi="http://sodipodi.sourceforge.net/DTD/sodipodi-0.dtd"
   xmlns="http://www.w3.org/2000/svg"
   xmlns:svg="http://www.w3.org/2000/svg">
  <defs
     id="defs1">
    <inkscape:path-effect
       effect="bspline"
       id="path-effect27"
       is_visible="true"
       lpeversion="1.3"
       weight="33.333333"
       steps="2"
       helper_size="0"
       apply_no_weight="true"
       apply_with_weight="true"
       only_selected="false"
       uniform="false" />
    <inkscape:path-effect
       effect="bspline"
       id="path-effect24"
       is_visible="true"
       lpeversion="1.3"
       weight="33.333333"
       steps="2"
       helper_size="0"
       apply_no_weight="true"
       apply_with_weight="true"
       only_selected="false"
       uniform="false" />
    <inkscape:path-effect
       effect="bspline"
       id="path-effect23"
       is_visible="true"
       lpeversion="1.3"
       weight="33.333333"
       steps="2"
       helper_size="0"
       apply_no_weight="true"
       apply_with_weight="true"
       only_selected="false"
       uniform="false" />
    <inkscape:path-effect
       effect="bspline"
       id="path-effect22"
       is_visible="true"
       lpeversion="1.3"
       weight="33.333333"
       steps="2"
       helper_size="0"
       apply_no_weight="true"
       apply_with_weight="true"
       only_selected="false"
       uniform="false" />
    <inkscape:path-effect
       effect="bspline"
       id="path-effect21"
       is_visible="true"
       lpeversion="1.3"
       weight="33.333333"
       steps="2"
       helper_size="0"
       apply_no_weight="true"
       apply_with_weight="true"
       only_selected="false"
       uniform="false" />
    <inkscape:path-effect
       effect="bspline"
       id="path-effect20"
       is_visible="true"
       lpeversion="1.3"
       weight="33.333333"
       steps="2"
       helper_size="0"
       apply_no_weight="true"
       apply_with_weight="true"
       only_selected="false"
       uniform="false" />
    <inkscape:path-effect
       effect="bspline"
       id="path-effect19"
       is_visible="true"
       lpeversion="1.3"
       weight="33.333333"
       steps="2"
       helper_size="0"
       apply_no_weight="true"
       apply_with_weight="true"
       only_selected="false"
       uniform="false" />
    <inkscape:path-effect
       effect="bspline"
       id="path-effect18"
       is_visible="true"
       lpeversion="1.3"
       weight="33.333333"
       steps="2"
       helper_size="0"
       apply_no_weight="true"
       apply_with_weight="true"
       only_selected="false"
       uniform="false" />
  </defs>
  <sodipodi:namedview
     id="namedview1"
     pagecolor="#ffffff"
     bordercolor="#111111"
     borderopacity="1"
     inkscape:showpageshadow="0"
     inkscape:pageopacity="0"
     inkscape:pagecheckerboard="1"
     inkscape:deskcolor="#d1d1d1"
     inkscape:zoom="0.5"
     inkscape:cx="-42"
     inkscape:cy="485"
     inkscape:window-width="1920"
     inkscape:window-height="991"
     inkscape:window-x="-9"
     inkscape:window-y="-9"
     inkscape:window-maximized="1"
     inkscape:current-layer="g1" />
  <g
     inkscape:groupmode="layer"
     inkscape:label="Image"
     id="g1"
     style="display:inline"
     transform="matrix(1.2827885,0,0,1.2827885,63.042549,-98.366253)">
    <g
       id="g2"
       transform="translate(19.838973,-0.67796389)">
      <path
         id="path18"
         style="display:inline;fill:#cf1111;fill-opacity:1;stroke:none;stroke-width:0.59;stroke-opacity:1"
         d="m 230.6102,181.05667 c -6.17069,0.22043 -12.25432,-0.30149 -20.39768,-0.21691 -5.39488,0.056 -11.49281,-0.61606 -18.95249,1.87051 -32.9323,8.18619 -46.11796,8.52489 -55.17355,35.14453 -0.13364,0.39285 -0.27344,0.76334 -0.41911,1.11327 -2.88421,6.92815 -8.07414,5.7982 -13.46964,10.62859 -2.88365,2.58162 -5.28351,4.32928 -7.73372,8.12621 -3.74034,5.7962 -6.98068,16.56496 -9.54506,24.33663 -0.0956,0.28972 -0.039,0.61128 -0.0527,0.92093 -0.58602,13.25246 -0.90823,31.29398 -0.66279,41.27918 0.0169,0.68734 0.078,0.16108 0.064,1.87513 -0.2621,32.02407 -1.26296,18.23136 1.51269,60.33685 5.07307,50.71873 2.73395,51.38458 4.95474,60.55975 0.0902,0.37278 0.33237,0.72071 0.52591,1.11798 0.82845,1.70052 3.27031,12.19541 6.42527,18.29312 3.01556,5.82831 7.19664,10.7924 7.9862,12.15256 7.09819,12.22797 23.06005,13.28388 36.76686,9.80357 7.78351,-1.97632 13.71314,-6.19544 19.68783,-8.71807 1.30046,-0.54908 2.81451,-1.61852 3.58203,-2.04492 0.76752,-0.4264 4.47663,-3.26189 4.90303,-2.23853 0.42639,1.02335 3.13426,6.2252 4.92514,8.86888 8.77326,11.66991 19.7746,26.72426 33.4721,31.89442 6.72052,2.46551 13.70205,5.65114 20.98047,5.79883 1.96143,0 5.71381,-0.17058 9.125,-0.25586 3.41118,-0.0853 6.47995,-0.0866 8.18554,-0.17188 1.7056,-0.0853 2.0463,-0.25522 2.98438,-0.42578 15.90786,-1.62994 29.95435,-9.0801 44.28176,-15.75524 4.28566,-2.66758 2.92557,-2.26684 5.00164,-2.07279 2.38783,-0.17055 4.04897,3.14651 9.08047,3.48763 11.38973,3.78183 21.85268,-0.73695 29.9218,-7.38357 1.02335,-0.68223 2.72993,-2.04642 4.17968,-4.51953 8.70055,-18.02143 13.35217,-38.60476 13.73041,-58.41795 0.57689,-34.03639 0.21377,7.84032 0.21377,-58.11821 0,-6.3107 -0.63963,-10.40285 -1.15131,-16.79883 -1.70478,-17.99055 -4.67939,-35.6249 -7.16409,-53.51466 -1.54387,-11.11582 -3.13371,-25.53339 -6.67121,-37.12543 -4.17833,-13.692 -11.80019,-24.30752 -12.09038,-25.46828 -0.0853,-0.34112 -0.25656,-0.5118 -0.85352,-1.53515 -0.59695,-1.02336 -1.62059,-2.90059 -3.58203,-5.45899 -1.96143,-2.55839 -4.86091,-5.79839 -7.8457,-8.52734 -2.98479,-2.72895 -6.05423,-4.94611 -8.52734,-6.82227 -2.47311,-1.87615 -4.3485,-3.41157 -6.73633,-4.86132 -2.38783,-1.44976 -5.54187,-2.23039 -9.04102,-4.09376 -3.69132,-1.9657 -11.63976,-4.49838 -20.90546,-6.41546 -7.4398,-1.5393 -16.27169,-1.72232 -23.04596,-1.35901 -0.28405,0.0152 -0.69886,0.0873 -0.9247,0.25789 -0.4275,0.32294 -0.16755,0.72209 -0.50249,1.24557 -3.96025,6.18944 -2.95173,25.25801 0.98005,31.16087 0.28626,0.42977 1.04185,0.77075 0.58698,1.01082 -17.89051,9.442 -39.27269,8.82832 -49.82255,8.0138 -0.53952,-0.0417 -0.1035,-0.28848 -0.22685,-1.14708 -0.13944,-0.97061 0.65702,-2.20435 1.11642,-3.92104 0.59714,-2.23139 0.99902,-5.16959 1.87921,-8.28551 3.51557,-12.44525 9.06023,-29.4172 9.05279,-32.28628 -0.003,-1.00264 0.68487,-1.38405 -0.60844,-1.33785 z"
         sodipodi:nodetypes="ssssssssssssssssssssssssssssssssssssssssssssssssssssssss"
         inkscape:label="Outline" />
      <path
         style="display:inline;fill:#c20f0f;fill-opacity:1;stroke:none;stroke-width:0.59;stroke-opacity:1"
         d="m 238.95371,393.9922 c 0.3481,4.52526 0.68137,8.85774 1.27876,12.70101 0.5974,3.84326 1.45019,7.08388 1.96187,9.47171 0.51168,2.38784 0.68224,3.92287 1.24722,5.80969 0.56498,1.88681 1.52108,4.11772 3.68178,8.08614 2.16071,3.96842 5.47904,9.59056 8.32933,13.46953 2.85029,3.87897 5.16206,5.91503 8.63725,7.58866 3.47518,1.67363 8.10154,2.97413 10.92644,3.62439 2.8249,0.65026 3.84825,0.65026 6.15081,0.22386 2.30255,-0.4264 5.88429,-1.27919 8.10157,-1.87615 2.21727,-0.59696 3.07006,-0.93808 3.83758,-1.10864 0.76752,-0.17056 1.44976,-0.17056 2.04672,-0.25584 0.59695,-0.0853 1.10863,-0.25584 1.70559,-0.4264 0.59696,-0.17056 1.27919,-0.34112 1.96143,-0.4264 0.68224,-0.0853 1.36448,-0.0853 1.87616,-0.17056 0.51167,-0.0853 0.85279,-0.25584 1.53503,-0.4264 0.68224,-0.17056 1.70559,-0.34111 3.24063,-0.93807 1.53503,-0.59696 3.58175,-1.62032 5.54318,-2.55839 1.96143,-0.93808 3.83758,-1.79087 5.4579,-2.55839 1.62031,-0.76752 2.98479,-1.44976 4.00815,-0.8528 1.02335,0.59696 1.70559,2.47311 2.47311,4.09342 0.76752,1.62032 1.62031,2.98479 2.30255,3.92287 0.68224,0.93808 1.19392,1.44976 1.53503,1.96143 0.34112,0.51168 0.51168,1.02336 0.76752,1.44976 0.25584,0.4264 0.59696,0.76752 0.8528,1.19391 0.25584,0.4264 0.42639,0.93808 1.62031,2.5584 1.19392,1.62031 3.41119,4.34926 5.54318,6.65181 2.13199,2.30255 4.17871,4.17871 6.22542,5.71374 2.04671,1.53504 4.09342,2.72895 5.79901,3.83759 1.7056,1.10863 3.07008,2.13199 6.3107,3.75231 3.24063,1.62031 8.35742,3.83758 11.51277,5.20205 3.15534,1.36448 4.34926,1.87616 5.79902,2.30256 1.44975,0.4264 3.47988,0.83242 7.97229,0.97672 4.49241,0.1443 16.60331,0.16403 24.15779,-0.89071 7.55447,-1.05474 15.16911,-3.4853 23.39876,-6.76237 8.22966,-3.27707 15.95502,-6.91556 20.17705,-8.5026 4.22202,-1.58704 4.94876,-1.07345 7.73102,-0.14603 2.78225,0.92742 7.6425,2.28455 12.26857,2.59002 4.62608,0.30547 9.01799,-0.44073 12.40785,-1.54937 3.38987,-1.10863 5.7777,-2.5797 8.11223,-4.51981 2.33453,-1.94011 4.61577,-4.34927 7.46198,-10.92647 2.84621,-6.57719 6.2574,-17.32243 8.44373,-26.07089 2.18633,-8.74846 3.13942,-15.4413 3.64187,-24.88142 0.50244,-9.44011 0.5299,-17.49875 0.73006,-27.12298 0.20015,-9.62422 0.54127,-11.50037 0.53374,-16.80166 -0.008,-5.3013 -0.19418,-9.87414 -0.605,-16.86926 -0.41083,-6.99511 -0.75194,-9.21238 -1.07174,-12.10123 -0.3198,-2.88885 -0.61828,-6.44928 -1.19392,-11.56606 -0.57564,-5.11678 -1.42844,-11.78993 -2.21728,-18.22853 -0.78883,-6.43861 -1.51371,-12.64273 -2.44116,-19.53999 -0.92746,-6.89725 -2.05733,-14.48657 -2.62231,-18.28154 -0.56498,-3.79497 -1.25859,-4.44895 -3.48084,-3.81282 -2.22224,0.63613 -5.12175,3.36508 -7.25374,5.58236 -2.132,2.21727 -3.49647,3.92286 -4.86095,5.28734 -1.36447,1.36447 -2.72895,2.38783 -4.34927,3.92286 -1.62031,1.53504 -3.49646,3.58175 -6.08809,6.41614 -2.59162,2.83438 -2.70801,2.96185 -8.50187,8.32874 -5.79386,5.36688 -8.63233,7.17319 -11.13497,6.87412 -2.50265,-0.29907 -3.35544,-3.5397 -4.54936,-6.95089 -1.19391,-3.41119 -2.72895,-6.99293 -5.12402,-12.63855 -2.39508,-5.64561 -5.57779,-13.18362 -8.83835,-19.74672 -3.26055,-6.5631 -5.74055,-10.66049 -9.10744,-16.00071 -3.3669,-5.34022 -4.04913,-6.02246 -3.70801,-3.54935 0.34112,2.47311 1.70559,8.10157 3.15535,13.90059 1.44975,5.79902 2.98479,11.76859 4.1787,16.62954 1.19392,4.86094 2.04672,8.61325 2.55839,11.08636 0.51168,2.47311 0.68224,3.66702 0.76752,4.86094 0.0853,1.19392 0.0853,2.38783 0.25584,3.41119 0.17056,1.02335 0.51168,1.87615 1.02336,4.77566 0.51168,2.89951 1.19391,7.84573 -0.45183,12.2174 -1.64574,4.37167 0.14442,2.66107 -18.29215,11.85114 -18.43657,9.19007 -45.98506,18.65719 -59.84214,23.30464 -13.85708,4.64744 -14.02764,4.47688 -14.1982,4.3916 -0.17055,-0.0853 -0.34111,-0.0853 -0.61796,-1.95309 -0.27685,-1.8678 -4.22974,-40.40851 -5.1318,-56.42186 -0.90205,-16.01335 -0.90205,-30.82159 -2.41063,-33.3359 -1.50859,-2.51431 -4.63156,7.0281 -5.82096,21.39637 -1.18939,14.36828 -0.52472,32.97923 -0.17934,43.41736 0.34538,10.43814 0.34538,11.97317 0.34538,14.53156 0,2.55839 0,6.14014 -1.06852,9.42695 -1.06853,3.28681 -6.08493,10.30978 -8.73362,13.23337 -2.64869,2.92359 -4.86596,4.45862 -8.70355,6.93174 -3.83759,2.47311 -9.29549,5.8843 -18.36654,10.71866 -9.07104,4.83436 -21.97076,11.19822 -34.76271,17.50892"
         id="path19"
         inkscape:path-effect="#path-effect19"
         inkscape:original-d="m 238.95371,393.9922 c -0.1557,4.56401 -0.22694,8.92761 1.02336,13.30364 0.8528,3.24063 1.70559,6.48125 2.55839,9.72188 0.17056,1.53504 0.34112,3.07007 0.51168,4.60511 0.9594,2.23859 1.9155,4.4695 2.87819,6.71577 3.35871,5.69057 6.67705,11.31271 10.04168,17.0133 2.33595,2.05735 4.64772,4.09341 6.97162,6.14014 4.62647,1.30053 9.25283,2.60103 13.87927,3.90155 1.02336,0 2.04671,0 3.07007,0 3.58175,-0.8528 7.16349,-1.7056 10.74524,-2.55839 0.8528,-0.34112 1.70559,-0.68224 2.55839,-1.02336 0.68224,0 1.36448,0 2.04671,0 0.51168,-0.17056 1.02336,-0.34112 1.53504,-0.51168 0.68224,-0.17056 1.36447,-0.34112 2.04671,-0.51168 0.68224,0 1.36448,0 2.04671,0 0.34112,-0.17056 0.68224,-0.34112 1.02336,-0.51168 1.02336,-0.17055 2.04671,-0.34111 3.07007,-0.51167 2.04671,-1.02336 4.09343,-2.04672 6.14014,-3.07007 1.87615,-0.8528 3.7523,-1.7056 5.62846,-2.55839 1.36447,-0.68224 2.72895,-1.36448 4.09342,-2.04672 0.68224,1.87616 1.36448,3.75231 2.04672,5.62846 0.85279,1.36448 1.70559,2.72895 2.55839,4.09343 0.51168,0.51168 1.02335,1.02336 1.53503,1.53503 0.17056,0.51168 0.34112,1.02336 0.51168,1.53504 0.34112,0.34112 0.68224,0.68224 1.02336,1.02335 0.17056,0.51168 0.34112,1.02336 0.51167,1.53504 2.21728,2.72895 4.43455,5.4579 6.65182,8.18685 2.04671,1.87615 4.09343,3.75231 6.14014,5.62846 2.04671,1.19392 4.09342,2.38783 6.14014,3.58175 1.36447,1.02335 2.72895,2.04671 4.09342,3.07007 5.11678,2.21727 10.23357,4.43454 15.35035,6.65181 1.19391,0.51168 2.38783,1.02336 3.58175,1.53504 1.70559,0.34112 3.73572,0.74714 5.11678,1.02335 7.60376,0.0124 19.71466,0.0321 28.17172,0.0459 6.65189,-2.12326 14.26653,-4.55382 22.15844,-7.07289 8.5674,-4.03507 16.29276,-7.67356 24.05505,-11.32944 0.68176,0.4818 1.4085,0.99539 2.11276,1.49309 4.86025,1.35714 9.7205,2.71427 14.58075,4.07141 4.3919,-0.7462 8.78381,-1.4924 13.17571,-2.2386 2.38783,-1.47107 4.77566,-2.94214 7.16349,-4.41321 2.28123,-2.40915 4.56247,-4.81831 6.8437,-7.22746 3.41119,-10.74524 6.82238,-21.49048 10.23357,-32.23573 0.52578,-6.81371 1.82481,-13.45729 2.87818,-20.21129 0.78135,-12.11093 1.09324,-20.1686 0.12792,-37.54438 0.34112,-1.87616 0.68224,-3.75231 1.02336,-5.62846 1.15694,-8.7882 -1.02336,-13.27967 -1.02336,-25.07223 -0.34112,-2.21728 -0.68224,-4.43455 -1.02335,-6.65182 -0.29848,-3.56043 -0.59696,-7.12086 -0.89544,-10.68129 -0.8528,-6.67313 -1.7056,-13.34628 -2.5584,-20.0194 -0.72487,-6.20409 -1.44975,-12.40821 -2.17462,-18.61229 -1.13004,-7.59043 -2.25991,-15.17975 -3.38987,-22.76969 -1.72537,2.44808 -0.2552,-1.11896 -2.23859,-2.11067 -2.89951,2.72895 -5.79902,5.4579 -8.69853,8.18685 -1.36448,1.7056 -2.72895,3.41119 -4.09343,5.11679 -1.36447,1.02335 -2.72895,2.04671 -4.09342,3.07006 -1.87616,2.04672 -3.75231,4.09343 -5.62846,6.14014 -4.20431,2.80287 -3.05895,4.08237 -10.74525,11.7686 -3.81744,3.41951 -6.9786,4.71874 -11.25692,7.1635 -0.85279,-3.24063 -1.70559,-6.48126 -2.55839,-9.72189 -1.53503,-3.58175 -3.07007,-7.16349 -4.6051,-10.74524 -3.9269,-7.42584 -7.28159,-14.89124 -9.72189,-23.02552 -3.47103,-5.20655 -3.95389,-10.51274 -11.7686,-19.44377 -0.68223,-0.68224 -1.36447,-1.36448 -2.04671,-2.04671 1.36448,5.62846 2.72895,11.25692 4.09343,16.88538 1.53503,5.96958 3.07007,11.93915 4.6051,17.90873 0.8528,3.75231 1.7056,7.50462 2.55839,11.25692 0.17056,1.19392 0.34112,2.38783 0.51168,3.58175 0,1.19392 0,2.38783 0,3.58175 0.34112,0.85279 0.68224,1.70559 1.02336,2.55839 0.68223,4.94622 1.36447,9.89244 2.04671,14.83867 -3.97372,3.79711 -2.18356,2.08651 -11.51276,11.00108 -27.60549,9.28647 -55.00479,19.18772 -82.63603,28.39814 -0.17056,-0.17056 -0.34112,-0.34112 -0.51168,-0.51168 -0.17055,0 -0.34111,0 -0.51167,0 0,-3.77491 -6.14014,-42.09128 -6.14014,-59.86635 -1.9148,-14.43667 -3.88575,-29.24491 0,-43.49265 -3.01717,9.21912 -6.14014,18.76153 -9.21021,28.1423 -2.97846,19.48684 -0.91637,38.04788 2.04671,57.30796 0,1.53504 0,3.07007 0,4.60511 0,3.58174 0,7.16349 0,10.74524 1.13707,5.33052 -6.5979,10.41166 -10.23356,14.32699 -2.21727,1.53503 -4.43454,3.07007 -6.65182,4.6051 -5.4579,3.41119 -10.9158,6.82238 -16.3737,10.23356 -13.01985,5.57714 -38.37586,18.9321 -38.37586,18.9321"
         transform="translate(-130.252,13.748822)"
         sodipodi:nodetypes="cccccccccccccccccccccccccccccccccccccccccscccccccccccccccccsccccccccccccccccccsccccc"
         inkscape:label="Shadow 1" />
      <path
         style="display:inline;fill:#b10606;fill-opacity:1;stroke:none;stroke-width:0.59;stroke-opacity:1"
         d="m 349.22464,215.10038 c -0.26012,0.31614 -0.26012,0.31614 0.22141,1.13405 0.48152,0.81792 1.44457,2.45375 2.6385,3.90351 1.19392,1.44976 2.61868,2.71342 3.74725,3.6574 1.12857,0.94397 1.56311,1.26988 2.0383,1.47703 0.47519,0.20715 0.60257,0.0798 1.67272,-1.07664 1.07015,-1.1564 2.2236,-2.41314 4.85543,-3.5058 2.63182,-1.09265 7.09972,-1.71064 9.90415,-1.87171 2.80442,-0.16107 4.85114,0.009 7.49481,0.009 2.64367,0 5.8843,-0.17055 9.75261,0.16046 3.8683,0.33102 8.93232,1.2688 11.76919,1.89922 2.83688,0.63041 4.48851,1.18095 6.53522,0.0723 2.04671,-1.10864 4.6051,-3.83759 6.31069,-5.96958 1.7056,-2.13199 2.5584,-3.66703 3.15535,-5.03151 0.59696,-1.36447 0.93808,-2.55838 1.37904,-3.87642 0.44097,-1.31804 0.95229,-2.68158 1.27902,-3.32544 0.32673,-0.64387 0.49729,-0.64387 -0.10045,-0.79565 -0.59774,-0.15178 -3.0506,-0.69686 -4.82842,-0.73899 -1.77783,-0.0421 -4.54727,0.0483 -7.44678,-0.12223 -2.89951,-0.17056 -5.92907,-0.60213 -8.51609,-1.18394 -2.58702,-0.58181 -2.72639,-0.62939 -3.16172,0.89428 -0.43533,1.52366 0.0298,3.57934 -0.0182,5.0894 -0.048,1.51006 -0.80398,1.69429 -5.15029,2.70157 -4.34632,1.00729 -12.5781,2.90616 -20.33366,3.87864 -7.75557,0.97248 -14.82577,1.00616 -18.61983,1.33684 -3.79406,0.33068 -4.3181,0.96757 -4.57823,1.28371 z"
         id="path22"
         inkscape:path-effect="#path-effect22"
         inkscape:original-d="m 348.96452,215.41652 v 0 c 0.96305,1.63583 1.92611,3.27166 2.88916,4.9075 1.42479,1.26368 2.84955,2.52734 4.27434,3.79103 1.12429,0.235 1.55932,0.56026 2.04671,1.53503 0.17056,-0.17056 0.29794,-0.29794 0.51168,-0.51168 1.92656,-2.09907 3.08001,-3.35581 4.61199,-5.02497 3.57747,-1.631 8.36625,0.0709 11.76171,-1.62684 2.04671,0.17056 4.09343,0.34111 6.14014,0.51167 3.24063,-0.17056 6.48126,-0.34111 9.72189,-0.51167 4.58643,0.34416 9.41407,2.55839 13.81531,2.55839 1.41844,0.47281 3.07007,1.02335 4.6051,1.53503 2.55839,-2.72895 5.11678,-5.4579 7.67517,-8.18685 0.8528,-1.53503 1.7056,-3.07007 2.55839,-4.6051 0.34112,-1.19392 0.68224,-2.38783 1.02336,-3.58175 0.74133,-1.36697 1.15599,-2.76675 1.53503,-4.09343 0.17056,0 0.34112,0 0.51168,0 -1.40776,-0.11583 -3.54435,-2.0841 -4.6051,-1.02335 -2.76945,0.0905 -5.53889,0.18091 -8.30834,0.27136 -3.02957,-0.43157 -6.05913,-0.86315 -9.08872,-1.29472 -2.14445,-0.73204 -2.28382,-0.77962 -3.9746,-1.35679 0.82012,3.6245 1.28526,5.68018 1.92789,8.52029 -0.73869,0.18001 -1.49464,0.36424 -2.21609,0.54005 -7.97118,1.83875 -16.20296,3.73762 -24.4853,5.64816 -7.22879,0.0344 -14.29899,0.0681 -21.37065,0.10179 -0.51646,0.62768 -1.0405,1.26457 -1.56075,1.89685 z"
         transform="translate(-130.252,14.472445)"
         sodipodi:nodetypes="cccccscccccccccccccccccccc"
         inkscape:label="Shadow 2" />
      <path
         style="display:inline;fill:#b10606;fill-opacity:1;stroke:none;stroke-width:0.59;stroke-opacity:1"
         d="m 421.70811,485.66788 c 0.59696,-0.93808 1.79087,-2.81423 2.98537,-5.03276 1.19451,-2.21852 2.37519,-4.74858 4.94968,-15.04102 2.57448,-10.29244 6.44532,-27.96367 8.76382,-40.31674 2.3185,-12.35306 3.00073,-19.00488 3.88885,-25.62226 0.88812,-6.61739 1.98212,-13.2003 2.4938,-17.0379 0.51168,-3.8376 0.44104,-4.92982 0.40571,-8.11961 -0.0353,-3.18979 -0.0353,-8.47713 -0.4404,-14.7665 -0.40508,-6.28937 -1.21522,-13.58068 -1.30545,-17.23081 -0.0902,-3.65013 0.53944,-3.65887 1.82318,-0.0602 1.28375,3.59865 3.12524,10.44657 4.90507,17.26141 1.77982,6.81484 3.16309,12.30837 4.18947,15.96548 1.02638,3.65711 1.04349,3.69704 5.66768,0.39622 4.62418,-3.30082 7.76139,-6.7073 8.48076,-7.4884 0.71936,-0.78111 0.96398,-1.04672 1.20859,-1.31233 3.23941,-3.19981 0,0 6.64999,-7.61395 6.64998,-7.61394 5.45606,-5.73778 7.58805,-9.31953 2.132,-3.58175 5.20207,-8.86909 7.41934,-12.62139 2.21727,-3.75231 3.58175,-5.96959 5.41786,-8.97005 1.83612,-3.00046 4.13015,-6.7616 5.40033,-8.63975 1.27018,-1.87814 1.50251,-1.85179 1.95714,-0.57634 0.45463,1.27545 0.92655,3.03651 1.27451,12.25344 0.34796,9.21694 0.22786,19.03951 0.42306,25.70448 0.19521,6.66497 0.70688,10.07616 1.048,13.65791 0.34112,3.58174 0.51168,7.33405 0.68224,13.13307 0.17056,5.79902 0.34112,13.64475 -0.3198,22.55647 -0.66091,8.91173 -2.1533,18.88943 -6.56103,33.62574 -4.40772,14.73631 -4.43789,14.81661 -7.80607,21.33797 -3.36817,6.52137 -1.01523,5.14782 -6.72363,8.03134 -5.70841,2.88352 -10.82519,4.97287 -16.03591,5.65172 -5.21071,0.67884 -9.22202,0.12555 -13.07069,-0.63908 -3.84867,-0.76464 -6.0233,-1.53215 -11.22538,-0.16767 -5.20208,1.36448 -13.43153,4.86093 -18.05796,7.20612 -4.62642,2.34519 -5.64978,3.53911 -6.16146,4.13607 -0.51168,0.59696 -0.51168,0.59695 0.0853,-0.34113 z"
         id="path21"
         inkscape:path-effect="#path-effect21"
         inkscape:original-d="m 421.11115,486.60596 c 1.19391,-1.87616 2.38783,-3.75231 3.58175,-5.62846 0.71535,-2.78478 2.30593,-5.12355 3.58174,-7.67518 4.70402,-17.83396 8.2771,-35.57042 11.7686,-53.72621 0.68224,-6.65181 1.36448,-13.30363 2.04671,-19.95545 1.094,-6.58295 2.188,-13.16586 3.28201,-19.74882 -0.0707,-1.09224 -0.14129,-2.18446 -0.21194,-3.27669 0,-5.28735 0,-10.57469 0,-15.86203 -0.81016,-7.2914 -1.6203,-14.58271 -2.43047,-21.87424 0.6297,-0.009 1.25938,-0.0174 1.88908,-0.0262 1.93779,7.20603 3.77928,14.05395 5.78609,21.51664 1.55284,6.16699 2.93611,11.66052 4.47719,17.78082 0.51168,1.19392 0.52879,1.23385 1.53503,3.58175 8.24213,-8.94954 11.37934,-12.35602 12.57346,-13.65262 0.24461,-0.26561 0.73384,-0.79683 0.73384,-0.79683 0,0 0,0 9.71822,-9.59943 3.58175,-5.62846 2.38783,-3.7523 3.58175,-5.62846 3.07007,-5.28734 6.14014,-10.57468 9.21021,-15.86202 1.36447,-2.21727 2.72895,-4.43455 4.09342,-6.65182 2.30776,-3.78365 4.60179,-7.54479 6.90899,-11.32753 0.23317,0.0264 0.46549,0.0528 0.69824,0.0792 0.67651,2.5245 1.14843,4.28556 2.02953,7.57352 -0.18518,15.14591 -0.30528,24.96848 -0.42655,34.88723 0.51168,3.41119 1.02336,6.82238 1.53503,10.23357 0.17056,3.7523 0.34112,7.50461 0.51168,11.25692 0.17056,7.84573 0.34112,15.69146 0.51168,23.53719 -1.49239,9.97772 -2.98478,19.95542 -4.47718,29.93317 -6.13566,19.9409 -7.35322,19.57517 -11.73663,31.24435 -2.35294,1.37355 0,0 -6.30003,3.67769 -5.11678,2.08935 -10.23356,4.17871 -15.35035,6.26806 -5.57567,1.23331 -9.48765,-0.0401 -14.83866,-2.04671 -2.17463,-0.76752 -4.34926,-1.53503 -6.5239,-2.30255 -8.22952,3.49648 -16.45897,6.99293 -24.68847,10.4894 -1.02336,1.19391 -2.04672,2.38783 -3.07007,3.58175 z"
         transform="translate(-129.52838,10.130711)"
         sodipodi:nodetypes="cccccccsccccccccccccccccccccccccccc"
         inkscape:label="Deep shadow 1" />
      <path
         style="display:inline;fill:#44a94e;fill-opacity:1;stroke:none;stroke-width:2.956;stroke-dasharray:none;stroke-opacity:1"
         d="m 354.54067,214.65281 c -0.55883,-2.18835 0.49297,-6.73939 1.62293,-11.09932 1.12996,-4.35992 2.37211,-8.6462 3.89105,-14.43681 1.51895,-5.7906 -0.34488,1.73928 7.79052,-28.97085 8.1354,-30.71014 9.11815,-33.46185 9.95742,-35.74357 0.83927,-2.28173 1.86262,-5.01068 4.23753,-9.94634 2.3749,-4.93565 3.09125,-6.30865 5.64551,-9.81143 2.55427,-3.50277 5.96546,-7.255078 8.29939,-9.849335 2.33393,-2.594257 3.43932,-3.857558 6.26644,-6.174831 2.82711,-2.317273 7.26165,-5.5579 9.9906,-7.519333 2.72895,-1.961433 3.75231,-2.643672 6.22542,-3.240629 2.47311,-0.596956 6.39597,-1.108634 9.21004,-0.597098 2.81408,0.511536 4.51838,2.045411 8.21371,6.602621 3.69533,4.557211 9.22728,11.933146 12.49221,16.916975 3.26493,4.98383 4.10895,7.34709 4.79203,12.12511 0.68308,4.77801 0.1714,-2.38548 0.42724,1.36683 0.25584,3.7523 0.25584,4.09342 -0.0853,4.26398 -0.34112,0.17056 -1.02335,0.17056 -1.96143,0.4264 -0.93808,0.25584 -2.11516,0.7603 -3.69853,1.78249 -1.58338,1.02218 -3.50645,2.52199 -6.03313,5.04823 -2.52667,2.52624 -5.70938,6.13279 -9.92329,10.90828 -4.2139,4.77549 -9.33953,10.58453 -13.39062,15.31222 -4.0511,4.72768 -7.12117,8.47999 -9.69794,12.06467 -2.57677,3.58469 -4.66342,7.00697 -6.28376,11.35628 -1.62034,4.34931 -2.77588,9.62811 -2.67142,15.13506 0.10447,5.50695 1.46894,11.24199 2.23646,14.28008 0.76752,3.0381 0.93808,3.37922 0.8528,3.72034 -0.0853,0.34111 -0.4264,0.68223 -0.93808,0.85279 -0.51168,0.17056 -1.19391,0.17056 -4.34927,1.24722 -3.15536,1.07666 -8.78381,3.22997 -15.5661,4.37935 -6.7823,1.14937 -14.71846,1.29482 -19.77129,1.45472 -5.05284,0.15989 -7.22232,0.33425 -7.78116,-1.8541 z"
         id="path23"
         inkscape:path-effect="#path-effect23"
         inkscape:original-d="m 352.93003,217.01551 c 1.05181,-4.55105 2.10361,-9.10209 3.15542,-13.65314 1.20811,-4.1688 2.45026,-8.45508 3.62432,-12.50641 1.71945,-7.56562 -4.00959,17.92667 12.79195,-51.67949 3.12697,-9.86645 4.23924,-12.5719 5.11678,-14.32699 1.02336,-2.72895 2.04672,-5.4579 3.07007,-8.18685 3.64369,-7.18554 4.96492,-8.24295 6.14014,-11.7686 3.41119,-3.75231 6.82238,-7.504615 10.23356,-11.256922 0.94746,-1.706782 1.98534,-3.029154 3.58175,-4.093425 4.43455,-3.240629 8.86909,-6.481257 13.30363,-9.721886 1.02336,-0.682237 2.04672,-1.364475 3.07007,-2.046713 3.92287,-0.511678 7.84573,-1.023356 11.7686,-1.535034 1.55925,1.697003 3.35105,3.13366 5.11678,4.605104 6.18221,7.203877 11.72364,14.572705 16.88538,22.513836 0.65385,2.48129 1.41392,4.87453 2.55839,7.1635 0,9.60005 0.51168,-2.43656 0.51168,7.16349 0,0.34112 0,0.68224 0,1.02336 -0.68224,0 -1.36447,0 -2.04671,0 -1.19392,0.51168 -2.371,1.01614 -3.58175,1.53503 -1.956,1.52548 -4.01269,2.85396 -5.78643,4.51283 -3.48855,3.26264 -6.3287,7.17149 -9.56391,10.83752 -5.1926,5.88495 -11.09272,11.01062 -15.35035,17.39706 -3.07007,3.7523 -6.14014,7.50461 -9.21021,11.25692 -2.28878,3.29187 -4.2314,6.80198 -6.25526,10.25914 -1.15554,5.27882 -2.31108,10.55762 -3.46663,15.83645 1.36448,5.73507 2.72895,11.47011 4.09343,17.20518 0.17056,0.34112 0.34112,0.68224 0.51168,1.02336 -0.34112,0.34111 -0.68224,0.68223 -1.02336,1.02335 -0.68224,0 -1.36447,0 -2.04671,0 -5.62848,2.15332 -11.25693,4.30663 -16.88537,6.45994 -7.93615,0.14544 -15.87231,0.29088 -23.80849,0.43633 -2.16949,0.17435 -4.33897,0.34871 -6.50845,0.52306 z"
         transform="translate(-134.05969,11.768598)"
         sodipodi:nodetypes="cscccccccccccccscccccccccccccccc"
         inkscape:label="Stem" />
      <path
         style="display:inline;fill:#349a3e;fill-opacity:1;stroke:none;stroke-width:0.59;stroke-opacity:1"
         d="m 353.34659,204.5593 c 2.60425,-2.40475 6.78626,-2.93726 10.58286,-3.54464 3.79661,-0.60737 7.2078,-1.28961 10.81913,-2.75685 3.61132,-1.46723 7.27023,-3.62931 10.27214,-5.4303 3.00191,-1.80099 5.21918,-3.16546 6.66893,-3.76242 1.44976,-0.59696 2.13199,-0.4264 2.47311,0 0.34112,0.4264 0.34112,1.10864 0.4264,2.13199 0.0853,1.02336 0.25584,2.38783 0.68224,4.69039 0.4264,2.30255 1.10863,5.54318 1.44975,7.67517 0.34112,2.13199 0.34112,3.15535 0.51168,4.1787 0.17056,1.02336 0.51168,2.04672 -1.02335,2.98479 -1.53504,0.93808 -4.94623,1.79088 -8.0163,2.55839 -3.07006,0.76752 -5.79901,1.44976 -8.35741,1.96144 -2.55839,0.51168 -4.94622,0.85279 -8.3574,1.19391 -3.41119,0.34112 -7.84574,0.68224 -10.74525,0.76752 -2.89951,0.0853 -4.26398,-0.0853 -5.84331,-0.41598 -1.57933,-0.3307 -3.37351,-0.82154 -4.44117,-1.06697 -1.06767,-0.24542 -1.40878,-0.24542 -1.06144,-2.40335 0.34735,-2.15794 1.35513,-6.35704 3.95939,-8.76179 z"
         id="path24"
         inkscape:path-effect="#path-effect24"
         inkscape:original-d="m 351.76881,202.68706 c 4.18203,-0.53251 8.36404,-1.06502 12.54606,-1.59753 3.41119,-0.68224 6.82238,-1.36448 10.23356,-2.04672 3.7707,-2.32123 7.6645,-4.08579 11.25692,-6.65181 2.21728,-1.36448 4.43455,-2.72895 6.65182,-4.09343 0.68224,0.17056 1.36447,0.34112 2.04671,0.51168 0,0.68224 0,1.36448 0,2.04671 0.17056,1.36448 0.34112,2.72895 0.51168,4.09343 0.68224,3.24063 1.36448,6.48126 2.04671,9.72188 0,1.02336 0,2.04672 0,3.07007 0.34112,1.02336 0.68224,2.04672 1.02336,3.07007 -3.41119,0.8528 -6.82238,1.7056 -10.23356,2.55839 -2.72895,0.68224 -5.4579,1.36448 -8.18685,2.04672 -2.38784,0.34112 -4.77567,0.68223 -7.1635,1.02335 -4.43454,0.34112 -8.86909,0.68224 -13.30363,1.02336 -1.36448,-0.17056 -2.72895,-0.34112 -4.09343,-0.51168 -1.79418,-0.49084 -3.58836,-0.98168 -5.38257,-1.47253 -0.34112,0 -0.68223,0 -1.02335,0 1.47843,-4.20964 2.66484,-8.36587 3.07007,-12.79196 z"
         transform="translate(-129.75,11.75)"
         sodipodi:nodetypes="cccccccccccsccccccc" />
      <path
         id="path25"
         style="display:inline;fill:none;fill-opacity:1;stroke:#000000;stroke-width:2.956;stroke-dasharray:none;stroke-opacity:1"
         d="m 230.6102,181.05667 c -6.17069,0.22043 -12.25432,-0.30149 -20.39768,-0.21691 -5.39488,0.056 -11.49281,-0.61606 -18.95249,1.87051 -32.9323,8.18619 -46.11796,8.52489 -55.17355,35.14453 -0.13364,0.39285 -0.27344,0.76334 -0.41911,1.11327 -2.88421,6.92815 -8.07414,5.7982 -13.46964,10.62859 -2.88365,2.58162 -5.28351,4.32928 -7.73372,8.12621 -3.74034,5.7962 -6.98068,16.56496 -9.54506,24.33663 -0.0956,0.28972 -0.039,0.61128 -0.0527,0.92093 -0.58602,13.25246 -0.90823,31.29398 -0.66279,41.27918 0.0169,0.68734 0.078,0.16108 0.064,1.87513 -0.2621,32.02407 -1.26296,18.23136 1.51269,60.33685 5.07307,50.71873 2.73395,51.38458 4.95474,60.55975 0.0902,0.37278 0.33237,0.72071 0.52591,1.11798 0.82845,1.70052 3.27031,12.19541 6.42527,18.29312 3.01556,5.82831 7.19664,10.7924 7.9862,12.15256 7.09819,12.22797 23.06005,13.28388 36.76686,9.80357 7.78351,-1.97632 13.71314,-6.19544 19.68783,-8.71807 1.30046,-0.54908 2.81451,-1.61852 3.58203,-2.04492 0.76752,-0.4264 4.47663,-3.26189 4.90303,-2.23853 0.42639,1.02335 3.13426,6.2252 4.92514,8.86888 8.77326,11.66991 19.7746,26.72426 33.4721,31.89442 6.72052,2.46551 13.70205,5.65114 20.98047,5.79883 1.96143,0 5.71381,-0.17058 9.125,-0.25586 3.41118,-0.0853 6.47995,-0.0866 8.18554,-0.17188 1.7056,-0.0853 2.0463,-0.25522 2.98438,-0.42578 15.90786,-1.62994 29.95435,-9.0801 44.28176,-15.75524 4.28566,-2.66758 2.92557,-2.26684 5.00164,-2.07279 2.38783,-0.17055 4.10516,2.66383 9.08047,3.48763 12.79685,2.11888 21.85268,-0.73695 29.9218,-7.38357 1.02335,-0.68223 2.72993,-2.04642 4.17968,-4.51953 8.70055,-18.02143 13.35217,-38.60476 13.73041,-58.41795 0.57689,-34.03639 0.21377,7.84032 0.21377,-58.11821 0,-6.3107 -0.63963,-10.40285 -1.15131,-16.79883 -1.70478,-17.99055 -4.67939,-35.6249 -7.16409,-53.51466 -1.54387,-11.11582 -3.13371,-25.53339 -6.67121,-37.12543 -4.17833,-13.692 -11.80019,-24.30752 -12.09038,-25.46828 -0.0853,-0.34112 -0.25656,-0.5118 -0.85352,-1.53515 -0.59695,-1.02336 -1.62059,-2.90059 -3.58203,-5.45899 -1.96143,-2.55839 -4.86091,-5.79839 -7.8457,-8.52734 -2.98479,-2.72895 -6.05423,-4.94611 -8.52734,-6.82227 -2.47311,-1.87615 -4.3485,-3.41157 -6.73633,-4.86132 -2.38783,-1.44976 -5.54187,-2.23039 -9.04102,-4.09376 -3.69132,-1.9657 -11.63976,-4.49838 -20.90546,-6.41546 -7.4398,-1.5393 -15.75159,-1.67709 -22.52586,-1.31378 -1.03254,0.0554 -1.67664,0.5858 -1.94729,1.45823 -3.96025,6.18944 -2.95173,25.25801 0.98005,31.16087 0.28626,0.42977 1.04185,0.77075 0.58698,1.01082 -17.89051,9.442 -39.27269,8.82832 -49.82255,8.0138 -0.53952,-0.0417 -0.1035,-0.28848 -0.22685,-1.14708 -0.13944,-0.97061 0.65702,-2.20435 1.11642,-3.92104 0.59714,-2.23139 0.99902,-5.16959 1.87921,-8.28551 3.51557,-12.44525 9.06023,-29.4172 9.05279,-32.28628 -0.003,-1.00264 0.68487,-1.38405 -0.60844,-1.33785 z"
         sodipodi:nodetypes="sssssssssssssssssssssssssssssssssssssssssssssssssssssss"
         inkscape:label="Outline" />
      <path
         style="display:inline;fill:none;fill-opacity:1;stroke:#000000;stroke-width:2.956;stroke-dasharray:none;stroke-opacity:1"
         d="m 365.18447,171.4348 c 0.90405,-4.44208 1.8081,-8.88415 2.43068,-11.78744 0.62259,-2.90328 0.9637,-4.26775 1.73122,-7.4231 0.76752,-3.15535 1.96143,-8.10157 3.73095,-13.79923 1.76953,-5.69766 5.1087,-14.88039 7.04221,-19.68587 1.93352,-4.80548 3.29799,-7.53443 4.33369,-9.51745 1.03569,-1.98302 1.67851,-3.10796 3.73259,-5.59397 2.05409,-2.48602 5.46528,-6.238328 9.85452,-10.310199 4.38925,-4.07187 10.35051,-8.949263 13.64059,-11.563623 3.29009,-2.61436 4.31345,-3.296599 6.78656,-3.893556 2.47311,-0.596956 6.39597,-1.108634 9.21004,-0.597098 2.81408,0.511536 4.51838,2.045411 7.08181,4.865445 2.56343,2.820033 5.96925,6.90702 8.78193,10.657464 2.81268,3.750445 5.02995,7.161632 6.6657,11.327067 1.63574,4.16544 2.61235,8.72294 2.92947,11.24909 0.31713,2.52615 -0.4067,2.88806 -1.4626,3.37337 -1.05591,0.48532 -1.1846,0.54047 -4.1814,2.35563 -2.99679,1.81516 -2.46358,1.43506 -4.46129,3.08023 -1.9977,1.64517 -0.72183,0.29346 -5.43661,5.85831 -4.71478,5.56485 -2.49751,2.8359 -4.71478,5.30901 -2.21728,2.47311 -4.43455,4.69038 -8.53677,9.47686 -4.10223,4.78647 -9.98055,12.00841 -13.34329,16.23236 -3.36273,4.22395 -4.04497,5.24731 -5.18551,7.28883 -1.14053,2.04152 -2.73936,5.1012 -4.33819,8.16087"
         id="path26"
         inkscape:path-effect="#path-effect27"
         inkscape:original-d="m 365.18447,171.4348 c 0,0 1.8081,-8.88415 2.71215,-13.32624 0.34112,-1.36448 0.68223,-2.72895 1.02335,-4.09343 1.19392,-4.94622 2.38783,-9.89244 3.58175,-14.83866 2.30807,-6.46257 5.61549,-15.65685 8.18685,-22.51384 1.36448,-2.72895 2.72895,-5.4579 4.09343,-8.18685 0.9883,-1.0763 1.59367,-2.22263 2.04671,-3.58175 3.41119,-3.75231 6.82238,-7.504615 10.23356,-11.256922 3.996,-6.067486 11.07986,-9.57281 16.88538,-13.815311 1.02336,-0.682237 2.04672,-1.364475 3.07007,-2.046713 3.92287,-0.511678 7.84573,-1.023356 11.7686,-1.535034 1.55925,1.697003 3.35105,3.13366 5.11678,4.605104 3.31405,4.191596 6.45369,8.500403 10.23357,12.280276 2.21727,3.411188 4.43454,6.822376 6.65181,10.23356 1.74086,4.77255 3.07007,9.2545 3.07007,14.32699 0.20783,1.42814 -0.89934,1.02336 -2.04671,1.02336 -1.19392,0.51168 -1.32261,0.56683 -3.58175,1.53503 -3.73445,2.66212 -3.20124,2.28202 -5.92078,4.22065 -1.27587,1.35171 0,0 -2.77775,2.94285 -6.65181,8.18685 -4.43454,5.4579 -6.65181,8.18685 -2.21728,2.21727 -4.43455,4.43454 -6.65182,6.65182 -5.76978,7.53262 -11.84666,14.59295 -17.90874,22.00216 -0.68223,1.02335 -1.36447,2.04671 -2.04671,3.07007 -1.59883,3.05968 -3.19767,6.11936 -4.79649,9.17903"
         transform="translate(-134.05969,11.768598)"
         sodipodi:nodetypes="ccccccccccccccsccccccccc"
         inkscape:label="Stem outline" />
    </g>
  </g>
</svg>
