<?xml version="1.0" encoding="UTF-8" standalone="no"?>
<!-- Created with Inkscape (http://www.inkscape.org/) -->

<svg
   version="1.1"
   id="svg1"
   width="793.59998"
   height="559.35999"
   viewBox="0 0 793.59998 559.35999"
   sodipodi:docname="Blueberry.svg"
   inkscape:version="1.4 (86a8ad7, 2024-10-11)"
   xmlns:inkscape="http://www.inkscape.org/namespaces/inkscape"
   xmlns:sodipodi="http://sodipodi.sourceforge.net/DTD/sodipodi-0.dtd"
   xmlns="http://www.w3.org/2000/svg"
   xmlns:svg="http://www.w3.org/2000/svg">
  <defs
     id="defs1">
    <inkscape:path-effect
       effect="bspline"
       id="path-effect9"
       is_visible="true"
       lpeversion="1.3"
       weight="33.333333"
       steps="2"
       helper_size="0"
       apply_no_weight="true"
       apply_with_weight="true"
       only_selected="false"
       uniform="false" />
    <inkscape:path-effect
       effect="bspline"
       id="path-effect8"
       is_visible="true"
       lpeversion="1.3"
       weight="33.333333"
       steps="2"
       helper_size="0"
       apply_no_weight="true"
       apply_with_weight="true"
       only_selected="false"
       uniform="false" />
    <inkscape:path-effect
       effect="bspline"
       id="path-effect7"
       is_visible="true"
       lpeversion="1.3"
       weight="33.333333"
       steps="2"
       helper_size="0"
       apply_no_weight="true"
       apply_with_weight="true"
       only_selected="false"
       uniform="false" />
    <inkscape:path-effect
       effect="bspline"
       id="path-effect6"
       is_visible="true"
       lpeversion="1.3"
       weight="33.333333"
       steps="2"
       helper_size="0"
       apply_no_weight="true"
       apply_with_weight="true"
       only_selected="false"
       uniform="false" />
    <inkscape:path-effect
       effect="bspline"
       id="path-effect4"
       is_visible="true"
       lpeversion="1.3"
       weight="33.333333"
       steps="2"
       helper_size="0"
       apply_no_weight="true"
       apply_with_weight="true"
       only_selected="false"
       uniform="false" />
    <inkscape:path-effect
       effect="bspline"
       id="path-effect3"
       is_visible="true"
       lpeversion="1.3"
       weight="33.333333"
       steps="2"
       helper_size="0"
       apply_no_weight="true"
       apply_with_weight="true"
       only_selected="false"
       uniform="false" />
    <inkscape:path-effect
       effect="bspline"
       id="path-effect2"
       is_visible="true"
       lpeversion="1.3"
       weight="33.333333"
       steps="2"
       helper_size="0"
       apply_no_weight="true"
       apply_with_weight="true"
       only_selected="false"
       uniform="false" />
    <inkscape:path-effect
       effect="bspline"
       id="path-effect1"
       is_visible="true"
       lpeversion="1.3"
       weight="33.333333"
       steps="2"
       helper_size="0"
       apply_no_weight="true"
       apply_with_weight="true"
       only_selected="false"
       uniform="false" />
  </defs>
  <sodipodi:namedview
     id="namedview1"
     pagecolor="#ffffff"
     bordercolor="#111111"
     borderopacity="1"
     inkscape:showpageshadow="0"
     inkscape:pageopacity="0"
     inkscape:pagecheckerboard="1"
     inkscape:deskcolor="#d1d1d1"
     showgrid="false"
     inkscape:zoom="1.3819365"
     inkscape:cx="244.94612"
     inkscape:cy="221.79021"
     inkscape:window-width="1920"
     inkscape:window-height="991"
     inkscape:window-x="-9"
     inkscape:window-y="-9"
     inkscape:window-maximized="1"
     inkscape:current-layer="layer1" />
  <g
     inkscape:groupmode="layer"
     id="layer1"
     inkscape:label="Image 1"
     style="display:inline"
     transform="matrix(2.1339347,0,0,2.1339347,-391.35939,-291.78218)">
    <path
       style="display:inline;fill:#4f6eb2;fill-opacity:1;stroke:none;stroke-width:3.77953;stroke-dasharray:none;stroke-opacity:1"
       d="m 285.09003,195.97274 c 16.62954,-15.69146 39.48404,-28.82427 66.43296,-28.31258 26.94893,0.51168 57.9895,14.66755 83.14751,31.97967 25.15802,17.31213 44.43046,37.77844 49.12094,61.57195 4.69047,23.79351 -5.20157,50.91137 -20.29638,71.03779 -15.09482,20.12641 -35.39056,33.25895 -60.12217,34.96458 -24.73162,1.70563 -53.8961,-8.01587 -73.51082,-16.37345 -19.61473,-8.35758 -29.67733,-15.35023 -35.81759,-21.9169 -6.14026,-6.56667 -8.35749,-12.70668 -15.43582,-26.0958 -7.07834,-13.38912 -19.01702,-34.02598 -19.78456,-53.47014 -0.76753,-19.44416 9.63639,-37.69365 26.26593,-53.38512 z"
       id="path1"
       inkscape:path-effect="#path-effect1"
       inkscape:original-d="m 278.86461,193.41435 c 22.85496,-13.13307 45.70946,-26.26588 68.56488,-39.39922 31.04243,14.15671 62.083,28.31258 93.12543,42.46929 19.2736,20.46754 38.54604,40.93385 57.81963,61.40139 -9.89264,27.11948 -19.78468,54.23734 -29.67732,81.35683 -20.29699,13.13334 -40.59273,26.26588 -60.88971,39.39922 -29.16625,-9.72208 -58.33073,-19.44357 -87.49697,-29.16566 -10.06321,-6.99307 -20.12581,-13.98573 -30.18902,-20.97881 -2.21731,-6.14026 -4.43454,-12.28027 -6.65181,-18.42041 -11.9394,-20.6381 -23.87808,-41.27496 -35.81748,-61.91306 10.40433,-18.25022 20.80825,-36.49971 31.21237,-54.74957 z"
       sodipodi:nodetypes="ccccccccccc"
       transform="translate(-2.0467069)"
       inkscape:label="Main color" />
    <path
       style="display:inline;fill:#2f4e94;fill-opacity:0.996078;stroke:none;stroke-width:1.88976;stroke-dasharray:none;stroke-opacity:1"
       d="m 366.06503,226.38584 c 0.274,-1.82652 0.80543,-5.36919 1.65203,-7.93633 0.8466,-2.56713 2.00121,-4.05598 2.73614,-4.89535 0.73494,-0.83937 1.0666,-1.05043 3.49382,-1.30675 2.42722,-0.25632 6.9498,-0.55789 9.58804,-0.25641 2.63824,0.30148 3.39201,1.20601 3.8292,1.91456 0.43718,0.70854 0.55779,1.22111 0.5288,2.23643 -0.029,1.01532 -0.21903,2.63087 -0.30605,3.40075 -0.087,0.76989 -0.087,0.83019 -1.96278,2.52327 -1.87576,1.69307 -7.31567,6.51574 -9.31239,8.24877 -1.99672,1.73304 -2.40455,2.02435 -2.84438,2.14683 -0.43982,0.12249 -0.89208,0.0622 -1.16342,0.002 -0.27135,-0.0603 -0.36183,-0.12061 -1.41873,-0.83026 -1.05689,-0.70964 -3.13709,-2.10681 -4.11549,-2.76396 -0.9784,-0.65715 -0.97878,-0.65692 -0.70479,-2.48344 z"
       id="path9"
       inkscape:path-effect="#path-effect9"
       inkscape:original-d="m 365.79104,228.21236 c 0.43174,-3.67048 0.92461,-7.21893 1.62824,-10.85433 1.1787,-1.44904 2.11343,-3.1084 3.4372,-4.43219 0.33166,-0.21105 0.66332,-0.42211 0.99499,-0.63317 4.52277,-0.30158 9.04535,-0.60315 13.56805,-0.90472 0.75378,0.90453 1.50755,1.80906 2.26132,2.71359 0.12061,0.51256 0.24121,1.02513 0.36181,1.5377 0.0348,1.54317 0.33503,3.21639 -0.54266,4.61309 0,0.0603 0,0.1206 0,0.1809 -4.4601,2.52658 -8.82792,8.55856 -12.75375,11.30664 -0.37371,0.38832 -0.79075,0.66674 -1.26633,0.90453 -0.45227,-0.0603 -0.90453,-0.12061 -1.3568,-0.18091 -0.0904,-0.0603 -0.1809,-0.1206 -0.27135,-0.1809 -2.63883,-0.44262 -4.44293,-2.25086 -6.06034,-4.07046 z"
       inkscape:label="Shadow in stem"
       sodipodi:nodetypes="ccccccccccccccc" />
    <path
       style="display:inline;fill:#2f4e94;fill-opacity:0.996078;stroke:none;stroke-width:1.88976;stroke-dasharray:none;stroke-opacity:1"
       d="m 374.3539,232.40334 c 0.12061,-0.48241 0.12061,-0.48241 0.12061,-0.48241 2.77388,-2.05026 5.54777,-4.10053 7.77894,-5.12566 2.23116,-1.02513 3.91961,-1.02513 5.38856,-1.09454 1.46895,-0.0694 2.24695,-0.15586 3.10258,-0.22413 0.85564,-0.0683 1.33806,-0.0683 2.22222,-0.16055 0.88415,-0.0923 2.17001,-0.27685 2.84491,0.29935 0.6749,0.57621 0.72834,1.69405 2.47249,1.3197 1.74415,-0.37435 3.99079,-1.76476 5.69344,-3.72479 1.70264,-1.96003 2.19892,-4.03587 3.04959,-4.25323 0.85067,-0.21736 1.54539,0.73788 2.21274,1.67857 0.66735,0.94069 1.0045,1.45043 1.30601,1.87255 0.30151,0.42211 0.56738,0.75659 0.70032,1.28564 0.13293,0.52905 0.13293,1.25267 -0.60592,3.02502 -0.73886,1.77236 -1.8422,3.87874 -2.75268,5.50949 -0.91048,1.63074 -2.04123,3.21379 -2.41054,3.63435 -0.36932,0.42056 -0.85174,0.90298 -1.45476,1.20449 -0.60302,0.3015 -1.32664,0.42211 -1.81652,1.05875 -0.48989,0.63664 -0.70924,1.62374 -0.93422,2.63614 -0.22498,1.01241 -0.51792,2.33064 -0.84734,3.06053 -0.32942,0.72989 -0.65406,1.05453 -1.18127,1.40083 -0.52721,0.34631 -0.88902,0.34631 -1.61264,0.40661 -0.72363,0.0603 -1.80906,0.18091 -3.79902,0.24121 -1.98996,0.0603 -4.88445,0.0603 -6.84014,-0.0922 -1.95569,-0.15254 -3.3186,-0.56141 -3.99806,-0.80746 -0.67946,-0.24605 -0.80006,-0.36666 -1.70459,-1.39178 -0.90452,-1.02513 -2.59298,-2.95479 -3.97992,-4.58294 -1.38694,-1.62815 -2.47237,-2.95479 -2.89448,-4.10053 -0.42212,-1.14574 -0.18091,-2.11056 -0.0603,-2.59298 z"
       id="path8"
       inkscape:path-effect="#path-effect8"
       inkscape:original-d="m 374.47451,231.92093 v 0 c 0,0 5.54777,-4.10053 8.32165,-6.15079 1.68845,0 3.3769,0 5.06536,0 1.31623,0.46226 2.07774,0.22746 3.2563,-0.36181 0.48241,0 0.96483,0 1.44724,0 1.2859,-0.18457 2.57176,-0.36913 3.85765,-0.5537 -0.55004,1.36633 -0.18527,2.46928 0.18283,3.82445 3.42282,-2.11833 5.66946,-3.50874 8.56617,-5.30147 0.50859,-2.12733 1.00486,-4.20317 1.50398,-6.29094 1.26239,1.60929 1.68037,2.76579 2.89449,3.97992 0.33715,0.50975 0.6743,1.01949 1.01145,1.52924 0.26587,0.33448 0.53174,0.66896 0.79761,1.00344 0,0.72362 0,1.44724 0,2.17087 -1.25279,2.93889 -2.63144,4.90107 -3.97992,7.59803 0.0115,0.90063 -1.80906,1.99095 -1.80906,2.53268 -0.48241,0.48241 -0.96483,0.96483 -1.44724,1.44724 -0.72363,0.12061 -1.44725,0.24121 -2.17087,0.36181 -0.28763,1.14568 -0.72362,2.08464 -0.72362,3.2563 -0.73175,0.79053 -0.59219,2.20487 -0.72362,3.2563 -0.20821,0.6518 -0.75464,0.75464 -1.44725,1.44725 -0.36181,0 -0.72362,0 -1.08543,0 -1.08544,0.1206 -2.17087,0.24121 -3.2563,0.36181 -2.89449,0 -5.78898,0 -8.68347,0 -0.9971,-0.37103 -2.36252,-0.77154 -3.61811,-1.08543 0.20984,-0.45105 -0.24121,-0.24122 -0.36181,-0.36182 -1.68845,-1.92965 -3.37691,-3.85931 -5.06536,-5.78897 -1.08543,-1.32664 -2.17086,-2.65328 -3.2563,-3.97993 0.24121,-0.96483 0.48242,-1.92965 0.72363,-2.89448 z"
       sodipodi:nodetypes="cccccccccccccccccccccccsccccc"
       inkscape:label="Shadow near stem" />
    <path
       style="display:inline;fill:none;fill-opacity:1;stroke:#000000;stroke-width:1.88976;stroke-dasharray:none;stroke-opacity:1"
       d="m 362.53671,200.28949 c 2.80152,-2.78172 7.40661,-7.38682 10.47669,-10.03049 3.07007,-2.64367 4.6051,-3.3259 5.62113,-3.48064 1.01604,-0.15473 1.8461,0.46782 2.03752,1.32705 0.19141,0.85923 -0.15265,2.06346 -1.53087,6.09806 -1.37822,4.03459 -3.42491,9.85981 -4.61244,13.52961 -1.18752,3.6698 -1.33806,4.57307 -0.0515,4.79235 1.28657,0.21928 7.68258,-1.23436 10.49949,-1.99233 2.8169,-0.75796 -0.70641,0.27831 5.26317,-1.08617 5.96958,-1.36447 9.2102,-1.53503 12.10971,-1.53503 2.89951,0 5.45791,0.17056 5.79903,1.02336 0.34111,0.8528 -1.53504,2.38783 -3.15535,3.83759 -1.62032,1.44975 -2.98479,2.81423 -4.34927,5.0315 -1.36447,2.21727 -2.72895,5.28734 -3.41118,7.67992 -0.68224,2.39258 -0.68224,4.77091 -0.68224,4.08867 0,-0.68223 0,-2.04671 -0.34112,-3.83758 -0.34112,-1.79087 -1.02336,-4.00815 -1.70496,-5.96799 -0.6816,-1.95983 -1.36064,-3.65744 -2.30096,-3.7483 -0.94031,-0.0909 -2.13422,1.44416 -3.75454,3.23503 -1.62032,1.79088 -3.66702,3.83758 -5.28734,5.28734 -1.62031,1.44976 -2.81423,2.30256 -4.33234,3.92645 -1.5181,1.62389 -2.55798,2.97572 -4.10168,4.00182 -1.54371,1.0261 -2.3965,0.17331 -3.83205,-0.75766 -1.43555,-0.93098 -3.57341,-1.99991 -5.07708,-2.75175 -1.50366,-0.75183 -2.52702,-1.26351 -3.12398,-0.66655 -0.59695,0.59696 -0.76751,2.30255 -0.85279,3.66785 -0.0853,1.3653 -0.0853,2.27787 -0.0853,2.84412 0,0.56625 -3.31101,-3.98638 -3.99563,-6.08914 -0.68461,-2.10275 -2.14452,-9.88889 -2.48563,-13.21479 -0.34112,-3.3259 0,-4.51982 0.52439,-5.91681 0.52439,-1.39699 1.23204,-2.99706 2.08484,-4.27626 0.8528,-1.27919 1.85074,-2.23752 4.65226,-5.01923 z"
       id="path2"
       inkscape:path-effect="#path-effect2"
       inkscape:original-d="m 360.73312,202.11288 c 4.60511,-4.6051 9.21021,-9.2102 13.81531,-13.81531 1.53504,-0.68223 3.07007,-1.36447 4.60511,-2.04671 0.0812,0.92721 1.22896,1.12616 2.04671,1.53503 -0.65687,1.0873 -0.77805,2.35521 -1.02336,3.58175 -4.1691,6.25374 -3.6721,12.97269 -6.65181,18.9321 0.11576,1.15308 -0.007,2.06098 -0.51168,3.07006 2.75041,-0.62509 9.03741,-2.55839 11.25692,-2.55839 3.30794,-1.76853 -0.86359,0.62898 8.69853,-2.55839 3.24063,-0.17056 6.48125,-0.34112 9.72188,-0.51168 2.55839,0.17056 5.11679,0.34112 7.67518,0.51168 -1.87616,1.53504 -3.75231,3.07007 -5.62846,4.60511 -1.36448,1.36447 -2.72895,2.72895 -4.09343,4.09342 -1.36447,3.07007 -2.72895,6.14014 -4.09342,9.21021 -0.291,1.71509 1.42268,8.5913 0,4.09342 0,-1.36447 0,-2.72895 0,-4.09342 -0.68224,-2.21727 -1.36448,-4.43455 -2.04672,-6.65182 -0.29479,-1.85687 -1.21694,-3.45723 -2.04671,-5.11678 -1.19392,1.53504 -2.38783,3.07007 -3.58175,4.6051 -2.04671,2.04672 -4.09342,4.09342 -6.14014,6.14014 -1.19391,0.8528 -2.38783,1.7056 -3.58174,2.55839 -1.37661,2.75322 -3.21948,3.48736 -5.11679,6.65182 -0.85279,-0.8528 -1.70559,-1.70559 -2.55839,-2.55839 -1.88303,-1.27968 -4.33428,-1.72185 -6.14013,-3.07007 -1.02336,-0.51168 -2.04672,-1.02336 -3.07007,-1.53503 -0.17056,1.70559 -0.34112,3.41118 -0.51168,5.11678 0.72305,1.025 0.28312,1.93757 0,3.07007 1.49645,3.77482 -3.37289,-4.50763 -4.09343,-5.62846 -0.58681,-3.12968 -2.04672,-10.91582 -3.07007,-16.37371 0.34112,-1.19391 0.68224,-2.38783 1.02336,-3.58174 0.70766,-1.60007 1.41531,-3.20014 2.12297,-4.80021 0.99794,-0.95832 1.99588,-1.91665 2.99381,-2.87497 z"
       inkscape:label="Stem lines"
       sodipodi:nodetypes="cccccccccccccccccccccccccccccccc" />
    <path
       id="path3"
       style="display:inline;fill:none;fill-opacity:1;stroke:#000000;stroke-width:1.88976;stroke-dasharray:none;stroke-opacity:1"
       d="m 373.78703,210.75629 c -0.4264,0.34112 -2.82095,1.58947 -3.67375,2.35699 -0.8528,0.76752 -1.02282,1.28065 -1.44922,1.96289 -0.4264,0.68224 -1.10941,1.53394 -1.62109,2.64258 -0.51168,1.10864 -0.85288,2.47282 -1.02344,4.51953 -0.17056,2.04672 -1.84268,8.30114 -0.78369,5.78604"
       sodipodi:nodetypes="cssssc"
       inkscape:label="Stem line" />
    <path
       style="display:inline;fill:#2f4e94;fill-opacity:0.996078;stroke:none;stroke-width:1.88976;stroke-dasharray:none;stroke-opacity:1"
       d="m 475.17719,242.67497 c 1.10562,3.01054 3.25437,8.8614 4.71008,13.68832 1.45572,4.82692 2.13232,8.37354 2.44198,12.45154 0.30967,4.078 0.26292,8.79431 -0.32408,13.77461 -0.587,4.98029 -1.67789,9.9732 -2.57866,13.64558 -0.90077,3.67237 -1.59366,5.94293 -2.28123,7.63253 -0.68757,1.68961 -1.3698,2.79824 -3.80933,7.46008 -2.43952,4.66184 -5.76655,11.17431 -8.73107,16.36799 -2.96452,5.19368 -5.68574,8.19921 -5.94009,8.4648 -0.25434,0.26559 -4.61232,4.72072 -9.73786,9.56299 -5.12555,4.84226 -8.83397,7.71113 -13.68763,10.56086 -4.85366,2.84973 -9.17304,4.78601 -14.42846,6.4467 -5.25542,1.66069 -7.91327,2.187 -16.17199,3.60169 -8.25873,1.4147 -10.38458,1.39332 -14.94833,0.87589 -4.56375,-0.51744 -11.5967,-1.53424 -19.06642,-3.03352 -7.46972,-1.49928 -15.37737,-3.4813 -21.88668,-5.50074 -6.50931,-2.01944 -11.66832,-4.09159 -14.32318,-5.23775 -2.65486,-1.14616 -2.81475,-1.37001 -2.23377,-1.62052 0.58097,-0.25051 1.90278,-0.52767 4.01346,-0.87945 2.11067,-0.35178 5.01018,-0.77818 7.14217,-1.16194 2.132,-0.38376 3.49647,-0.72488 5.97073,-1.55105 2.47425,-0.82618 5.82255,-2.05116 7.89956,-2.82977 2.07702,-0.7786 2.67398,-1.03444 9.24051,-5.89539 6.56654,-4.86094 4.32839,-3.17091 6.00178,-4.48496 1.67339,-1.31405 2.78203,-2.25213 5.42571,-4.38413 2.64368,-2.132 6.82237,-5.45789 9.76452,-8.01628 2.94214,-2.55839 4.64774,-4.34927 6.52389,-6.39598 1.87615,-2.04671 3.92286,-4.34926 6.05064,-6.81735 2.12777,-2.46808 4.35378,-5.12217 6.78411,-7.93622 2.43032,-2.81405 5.07399,-5.79884 7.63238,-8.95419 2.55839,-3.15534 5.0315,-6.48125 6.99293,-9.12492 1.96144,-2.64367 3.41119,-4.60511 5.62847,-7.3767 2.21727,-2.77159 5.20206,-6.35334 7.20825,-8.9149 2.00619,-2.56156 3.02444,-4.08894 4.61278,-6.62212 1.58834,-2.53319 3.6955,-5.98894 5.36064,-8.67883 1.66514,-2.68989 2.85906,-4.56605 4.05297,-6.74068 1.19392,-2.17463 2.38783,-4.64774 3.36967,-7.03893 0.98184,-2.3912 1.75349,-4.70617 2.32048,-7.91913 0.56698,-3.21297 0.95678,-7.54413 1.57928,-9.20853 0.6225,-1.6644 1.46732,-0.68825 4.6451,2.98354 3.17778,3.67179 8.29471,9.58418 10.98289,12.69025 2.68817,3.10607 2.68817,3.10608 3.7938,6.11661 z"
       id="path6"
       inkscape:path-effect="#path-effect7"
       inkscape:original-d="m 474.07156,239.66444 c 2.21125,6.02107 4.36,11.87193 6.58614,17.93355 0.68529,3.59222 1.74216,7.0663 2.02747,10.62773 0.37423,4.67128 -0.093,9.38342 -0.14062,14.18866 -1.12638,5.15535 -2.21727,10.14826 -3.32591,15.22243 -0.6929,2.27058 -1.38579,4.54114 -2.07869,6.81171 -0.68224,1.10864 -1.36448,2.21727 -2.04671,3.32591 -2.93538,8.85947 -8.33484,14.31319 -12.02444,23.5372 -1.42844,1.57767 -4.14966,4.5832 -4.28531,4.73302 -0.37304,0.38136 -4.13265,5.42181 -11.78479,12.04753 -3.06067,2.65013 -6.90574,5.34236 -11.04884,8.54752 -5.56422,2.4943 -9.89517,4.40477 -14.83867,6.65181 -5.58912,0.93174 -7.82923,3.56761 -22.60978,4.47718 -2.12305,0.1541 -4.24714,-0.0427 -6.364,-0.064 -7.01064,-1.01358 -14.04359,-2.03038 -21.07632,-3.04715 -7.90671,-1.98179 -15.81436,-3.96381 -23.69552,-5.9392 -5.13746,-2.06349 -10.34397,-4.01739 -15.44629,-6.2041 -0.1599,-0.22386 -0.31979,-0.44771 -0.47969,-0.67157 1.32185,-0.27717 2.64366,-0.55432 3.9655,-0.83148 2.89951,-0.4264 5.79902,-0.8528 8.69853,-1.2792 1.36448,-0.34112 2.72895,-0.68224 4.09343,-1.02336 3.87027,-0.52885 7.14456,-1.95611 10.4894,-3.83758 0.59696,-0.25584 1.19392,-0.51168 1.79087,-0.76752 21.86364,-16.10992 10.29246,-7.78331 12.53612,-9.46605 1.10863,-0.93807 2.21727,-1.87615 3.32591,-2.81423 4.18512,-3.31788 8.36571,-6.64138 12.53611,-9.97772 1.7056,-1.79087 3.41119,-3.58175 5.11678,-5.37262 2.04672,-2.30255 4.09343,-4.6051 6.14014,-6.90766 2.52937,-2.36477 4.52437,-5.21261 6.65182,-7.93101 2.64367,-2.98479 5.28734,-5.96958 7.93101,-8.95437 2.47311,-3.3259 4.94622,-6.65181 7.41933,-9.97772 1.44976,-1.96143 2.89951,-3.92287 4.34927,-5.8843 2.98479,-3.58175 5.96958,-7.1635 8.95437,-10.74524 0.93499,-1.60311 1.91224,-3.15782 3.07007,-4.60511 2.24388,-3.47427 3.97438,-7.15969 6.39597,-10.4894 1.19392,-1.87615 2.38784,-3.75231 3.58175,-5.62846 1.19392,-2.47311 2.38783,-4.94622 3.58175,-7.41933 0.77728,-2.30677 1.9401,-4.49135 2.30255,-6.90766 2.67022,-3.93575 0.76263,-8.47368 1.15128,-12.79196 0.85635,0.98948 1.70117,1.96563 2.53675,2.93111 5.51998,6.3781 10.63691,12.29049 16.01326,18.50263 z"
       sodipodi:nodetypes="cccccccccccccccccccccccccccccccccccccccccc"
       inkscape:label="Main shadow" />
    <path
       style="display:inline;fill:none;fill-opacity:1;stroke:#000000;stroke-width:1.88976;stroke-dasharray:none;stroke-opacity:1"
       d="m 285.09003,195.97274 c 16.62954,-15.69146 39.48404,-28.82427 66.43296,-28.31258 26.94893,0.51168 57.9895,14.66755 83.14751,31.97967 25.15802,17.31213 44.43046,37.77844 49.12094,61.57195 4.69047,23.79351 -5.20157,50.91137 -20.29638,71.03779 -15.09482,20.12641 -35.39056,33.25895 -60.12217,34.96458 -24.73162,1.70563 -53.8961,-8.01587 -73.51082,-16.37345 -19.61473,-8.35758 -29.67733,-15.35023 -35.81759,-21.9169 -6.14026,-6.56667 -8.35749,-12.70668 -15.43582,-26.0958 -7.07834,-13.38912 -19.01702,-34.02598 -19.78456,-53.47014 -0.76753,-19.44416 9.63639,-37.69365 26.26593,-53.38512 z"
       id="path5"
       inkscape:path-effect="#path-effect6"
       inkscape:original-d="m 278.86461,193.41435 c 22.85496,-13.13307 45.70946,-26.26588 68.56488,-39.39922 31.04243,14.15671 62.083,28.31258 93.12543,42.46929 19.2736,20.46754 38.54604,40.93385 57.81963,61.40139 -9.89264,27.11948 -19.78468,54.23734 -29.67732,81.35683 -20.29699,13.13334 -40.59273,26.26588 -60.88971,39.39922 -29.16625,-9.72208 -58.33073,-19.44357 -87.49697,-29.16566 -10.06321,-6.99307 -20.12581,-13.98573 -30.18902,-20.97881 -2.21731,-6.14026 -4.43454,-12.28027 -6.65181,-18.42041 -11.9394,-20.6381 -23.87808,-41.27496 -35.81748,-61.91306 10.40433,-18.25022 20.80825,-36.49971 31.21237,-54.74957 z"
       sodipodi:nodetypes="ccccccccccc"
       transform="translate(-2.0467069)"
       inkscape:label="Border" />
  </g>
</svg>
