<?xml version="1.0" encoding="UTF-8" standalone="no"?>
<!-- Created with Inkscape (http://www.inkscape.org/) -->

<svg
   version="1.1"
   id="svg1"
   width="793.59998"
   height="559.35999"
   viewBox="0 0 793.59998 559.35999"
   sodipodi:docname="Broccoli.svg"
   inkscape:version="1.4 (86a8ad7, 2024-10-11)"
   xmlns:inkscape="http://www.inkscape.org/namespaces/inkscape"
   xmlns:sodipodi="http://sodipodi.sourceforge.net/DTD/sodipodi-0.dtd"
   xmlns="http://www.w3.org/2000/svg"
   xmlns:svg="http://www.w3.org/2000/svg">
  <defs
     id="defs1">
    <inkscape:path-effect
       effect="bspline"
       id="path-effect16"
       is_visible="true"
       lpeversion="1.3"
       weight="33.333333"
       steps="2"
       helper_size="0"
       apply_no_weight="true"
       apply_with_weight="true"
       only_selected="false"
       uniform="false" />
    <inkscape:path-effect
       effect="bspline"
       id="path-effect15"
       is_visible="true"
       lpeversion="1.3"
       weight="33.333333"
       steps="2"
       helper_size="0"
       apply_no_weight="true"
       apply_with_weight="true"
       only_selected="false"
       uniform="false" />
    <inkscape:path-effect
       effect="bspline"
       id="path-effect14"
       is_visible="true"
       lpeversion="1.3"
       weight="33.333333"
       steps="2"
       helper_size="0"
       apply_no_weight="true"
       apply_with_weight="true"
       only_selected="false"
       uniform="false" />
    <inkscape:path-effect
       effect="bspline"
       id="path-effect13"
       is_visible="true"
       lpeversion="1.3"
       weight="33.333333"
       steps="2"
       helper_size="0"
       apply_no_weight="true"
       apply_with_weight="true"
       only_selected="false"
       uniform="false" />
    <inkscape:path-effect
       effect="bspline"
       id="path-effect12"
       is_visible="true"
       lpeversion="1.3"
       weight="33.333333"
       steps="2"
       helper_size="0"
       apply_no_weight="true"
       apply_with_weight="true"
       only_selected="false"
       uniform="false" />
    <inkscape:path-effect
       effect="bspline"
       id="path-effect11"
       is_visible="true"
       lpeversion="1.3"
       weight="33.333333"
       steps="2"
       helper_size="0"
       apply_no_weight="true"
       apply_with_weight="true"
       only_selected="false"
       uniform="false" />
    <inkscape:path-effect
       effect="bspline"
       id="path-effect10"
       is_visible="true"
       lpeversion="1.3"
       weight="33.333333"
       steps="2"
       helper_size="0"
       apply_no_weight="true"
       apply_with_weight="true"
       only_selected="false"
       uniform="false" />
    <inkscape:path-effect
       effect="bspline"
       id="path-effect9"
       is_visible="true"
       lpeversion="1.3"
       weight="33.333333"
       steps="2"
       helper_size="0"
       apply_no_weight="true"
       apply_with_weight="true"
       only_selected="false"
       uniform="false" />
    <inkscape:path-effect
       effect="bspline"
       id="path-effect8"
       is_visible="true"
       lpeversion="1.3"
       weight="33.333333"
       steps="2"
       helper_size="0"
       apply_no_weight="true"
       apply_with_weight="true"
       only_selected="false"
       uniform="false" />
    <inkscape:path-effect
       effect="bspline"
       id="path-effect7"
       is_visible="true"
       lpeversion="1.3"
       weight="33.333333"
       steps="2"
       helper_size="0"
       apply_no_weight="true"
       apply_with_weight="true"
       only_selected="false"
       uniform="false" />
    <inkscape:path-effect
       effect="bspline"
       id="path-effect6"
       is_visible="true"
       lpeversion="1.3"
       weight="33.333333"
       steps="2"
       helper_size="0"
       apply_no_weight="true"
       apply_with_weight="true"
       only_selected="false"
       uniform="false" />
    <inkscape:path-effect
       effect="bspline"
       id="path-effect5"
       is_visible="true"
       lpeversion="1.3"
       weight="33.333333"
       steps="2"
       helper_size="0"
       apply_no_weight="true"
       apply_with_weight="true"
       only_selected="false"
       uniform="false" />
    <inkscape:path-effect
       effect="bspline"
       id="path-effect4"
       is_visible="true"
       lpeversion="1.3"
       weight="33.333333"
       steps="2"
       helper_size="0"
       apply_no_weight="true"
       apply_with_weight="true"
       only_selected="false"
       uniform="false" />
    <inkscape:path-effect
       effect="bspline"
       id="path-effect3"
       is_visible="true"
       lpeversion="1.3"
       weight="33.333333"
       steps="2"
       helper_size="0"
       apply_no_weight="true"
       apply_with_weight="true"
       only_selected="false"
       uniform="false" />
    <inkscape:path-effect
       effect="bspline"
       id="path-effect2"
       is_visible="true"
       lpeversion="1.3"
       weight="33.333333"
       steps="2"
       helper_size="0"
       apply_no_weight="true"
       apply_with_weight="true"
       only_selected="false"
       uniform="false" />
    <inkscape:path-effect
       effect="bspline"
       id="path-effect1"
       is_visible="true"
       lpeversion="1.3"
       weight="33.333333"
       steps="2"
       helper_size="0"
       apply_no_weight="true"
       apply_with_weight="true"
       only_selected="false"
       uniform="false" />
  </defs>
  <sodipodi:namedview
     id="namedview1"
     pagecolor="#ffffff"
     bordercolor="#111111"
     borderopacity="1"
     inkscape:showpageshadow="0"
     inkscape:pageopacity="0"
     inkscape:pagecheckerboard="1"
     inkscape:deskcolor="#d1d1d1"
     showgrid="false"
     inkscape:zoom="0.76920204"
     inkscape:cx="390.01457"
     inkscape:cy="187.85702"
     inkscape:window-width="1920"
     inkscape:window-height="991"
     inkscape:window-x="-9"
     inkscape:window-y="-9"
     inkscape:window-maximized="1"
     inkscape:current-layer="g1" />
  <g
     inkscape:groupmode="layer"
     inkscape:label="Image"
     id="g1">
    <g
       id="g2"
       transform="matrix(2.0083523,0,0,2.0083523,-446.46479,-210.78577)">
      <path
         id="path1"
         style="display:inline;fill:#4cab55;fill-opacity:0.996078;stroke:none;stroke-width:1.992;stroke-opacity:1"
         inkscape:label="Base color"
         d="m 355.49609,107.68555 c -1.11087,-0.0342 -2.26216,-0.0316 -3.45312,0.0137 -9.5277,0.36181 -21.58849,3.4971 -28.94531,5.66797 -11.13716,3.02907 -21.0276,8.75677 -30.03125,15.79883 -3.85932,3.01509 -9.16607,7.11673 -12.54297,9.89062 -3.37691,2.77389 -4.82424,4.21976 -5.78906,6.39063 -3.71216,11.10332 -6.05427,22.91879 -4.46094,34.61328 0.36181,2.29147 0.36183,3.73881 1.44726,6.27148 5.5887,14.98204 17.49784,24.50258 29.42578,34.49414 4.46234,3.73872 4.70413,3.979 5.91016,3.61719 1.20604,-0.36181 3.37795,-1.32618 4.58398,-1.80859 1.20604,-0.48242 1.4473,-0.48247 3.37696,-3.37696 1.92966,-2.89449 5.54641,-8.68364 7.35547,-12.06054 1.98464,-3.23262 2.15346,-7.01306 3.01562,-10.61329 0.24121,-0.96483 0.24072,-0.72264 0.36133,-0.24023 8.58266,19.97127 -0.56955,1.47807 16.28125,37.98828 2.32164,5.79389 5.45191,11.13824 8.56445,16.52344 0.72452,1.99948 1.73245,3.80722 2.16992,5.91015 0.36183,2.29148 0.3618,5.91021 -0.96484,9.28711 -1.32664,3.37691 -3.9805,6.51226 -6.39258,10.00977 -2.41207,3.49751 -4.58205,7.35697 -6.02929,9.64844 -1.44725,2.29147 -2.17189,3.01466 -3.13672,4.2207 -8.39566,9.64873 -16.3001,19.70637 -21.22461,31.71875 -1.92966,5.42717 -0.72507,8.32134 1.08398,11.93945 1.80906,3.61811 4.2217,7.95902 5.42774,10.3711 2.97611,7.37247 8.44691,13.2786 13.99023,18.81445 0.72362,0.96483 1.20512,2.17045 4.09961,4.70313 2.89449,2.53267 8.20171,6.39308 11.2168,8.44336 3.01509,2.05025 3.73832,2.29054 6.63281,3.13476 2.89449,0.84423 7.96052,2.2915 12.66406,1.44727 6.47225,-1.10038 10.99372,-5.80826 15.91992,-9.64844 2.05026,-1.56785 5.90974,-4.21929 10.61329,-7.7168 4.70354,-3.49751 10.25102,-7.84086 13.38671,-10.49414 12.69985,-11.27628 9.96591,-11.41317 13.26563,-14.71289 1.85152,-1.62514 4.40185,-2.09867 6.75391,-2.5332 8.54689,-1.90731 17.24553,-1.90198 25.92968,-2.16992 2.77389,-0.12061 4.94485,-0.60255 6.75391,-0.84375 3.26318,-0.0321 6.29979,-0.95177 9.4082,-1.81055 10.2236,-2.87495 17.63931,-2.25517 27.37696,-4.3418 1.68845,-0.36181 2.89405,-0.84375 3.73828,-0.84375 0.84422,0 1.32667,0.48292 2.41211,1.08594 3.56357,1.97977 10.28837,3.64588 13.99023,5.78906 2.29147,1.32664 3.25686,2.77396 4.94531,4.82422 4.74027,5.75604 10.45183,10.8199 13.50586,12.7832 1.68846,1.08544 2.41262,1.08594 3.49805,1.08594 1.08543,0 2.53373,4.6e-4 5.06641,-1.80859 2.53267,-1.80906 6.14944,-5.42875 8.32031,-8.08203 2.17086,-2.65328 2.89454,-4.34083 3.37695,-5.06446 0.92252,-1.38376 3.2322,1.05333 5.78906,-1.92968 1.44725,-1.68846 2.65382,-5.06548 3.49805,-7.71875 2.52433,-7.39223 2.46105,-15.2057 2.16992,-22.91407 -1.0992,-4.22102 -1.26042,-8.6472 -2.65234,-12.78515 -2.91579,-11.28398 -4.69686,-10.8368 -5.54688,-13.38672 -0.1206,-0.36181 -0.12159,-0.60208 -1.20703,-2.65235 -1.08543,-2.05026 -3.25586,-5.91022 -3.73828,-10.73437 -0.48241,-4.82415 0.72315,-10.61382 1.32617,-14.11133 1.24903,-5.753 0.89032,-11.55791 0.84375,-17.36523 0,-3.01509 0.24265,-8.08116 -1.5664,-15.07618 -1.80906,-6.99501 -5.66996,-15.91999 -8.08203,-20.74414 -2.41208,-4.82415 -3.3765,-5.54787 -5.18555,-7.23632 -1.80906,-1.68845 -4.46195,-4.34134 -6.63281,-6.63282 -2.17087,-2.29147 -3.85842,-4.2217 -5.06446,-5.42773 -1.75976,-1.38538 -3.16552,-3.0978 -4.70508,-4.70313 -1.08542,-1.08543 -2.77247,-2.53273 -3.97851,-3.85937 -1.2698,-1.71412 -2.62251,-3.30138 -4.10156,-4.82422 -2.94857,-4.2225 -6.82038,-7.53714 -10.3711,-11.2168 -1.20603,-1.20603 -2.65482,-2.41215 -5.1875,-4.82421 -4.55807,-4.89815 -9.67524,-9.08144 -14.95312,-13.14454 -3.2563,-2.53267 -8.80525,-7.11674 -13.75,-9.89062 -4.94475,-2.77389 -9.28618,-3.73829 -12.42188,-4.2207 -7.16819,-1.21145 -14.37339,-0.90567 -21.58789,-0.60352 -3.01509,0.1206 -4.70317,0.12061 -7.59765,0.48242 -2.89449,0.36181 -6.99467,1.08643 -9.52735,1.68946 -6.20355,1.47701 8.41696,-1.73849 -7.47851,1.92968 -1.56785,0.36181 -3.98004,1.08595 -7.71875,1.56836 -3.73872,0.48242 -8.80278,0.72217 -11.69727,0.60156 -2.26618,-0.0944 -4.62908,-0.81257 -6.51367,-1.5664 -8.06188,-2.74389 -10.48639,-16.25783 -35.25977,-17.01953 z m 0.90625,80.12695 c 0.28644,0.0151 0.7986,0.16724 1.70313,0.46875 1.80906,0.60302 5.18605,1.80862 6.27148,3.73828 1.08544,1.92966 -0.12082,4.58199 -0.72656,6.62891 -0.60573,2.04691 -0.61182,3.48927 -1.21484,4.69531 -0.60302,1.20604 -1.80205,2.17729 -2.88477,0.01 -1.08272,-2.16752 -2.04932,-7.47564 -2.65234,-10.61133 -0.60302,-3.1357 -0.84375,-4.09962 -0.84375,-4.58203 0,-0.24121 0.0612,-0.36274 0.34765,-0.34766 z m 69.58008,0.88086 c 0.27849,-0.019 0.48663,0.19506 0.76367,0.74609 0.49253,0.97962 1.20024,3.02991 2.35352,5.88672 1.15328,2.85681 2.75225,6.51992 2.70703,9.31641 -0.0452,2.7965 -1.73341,4.72512 -2.93945,6.29297 -1.20603,1.56785 -1.9302,2.77442 -2.53321,3.49804 -0.60302,0.72362 -1.08545,0.96486 -1.44726,1.44727 -0.36182,0.48242 -0.60361,1.20644 -1.02344,-0.45898 -0.41982,-1.66542 -1.02599,-5.775 -1.48633,-9.99219 -0.46033,-4.2172 -0.79003,-8.73355 -0.90429,-10.95313 -0.11427,-2.21958 -0.0389,-2.49071 0.69726,-3.13867 0.73612,-0.64795 2.13401,-1.67268 2.9707,-2.23047 0.36605,-0.24403 0.6252,-0.39928 0.8418,-0.41406 z m -45.64258,7.92383 c 1.9629,-0.003 3.68378,1.19085 4.97461,1.92578 2.06534,1.17589 3.02932,1.17676 4.47657,1.41797 1.44724,0.2412 3.37794,0.72364 4.10156,1.44726 0.72362,0.72363 0.2412,1.68801 -0.48242,3.25586 -0.72363,1.56785 -1.68947,3.73832 -2.6543,6.15039 -0.96483,2.41208 -1.92974,5.066 -5.30664,10.25196 -3.37691,5.18596 -9.16606,12.90433 -12.54297,15.79882 -3.37691,2.89449 -4.34132,0.96483 -5.18555,-0.48242 -0.84422,-1.44724 -1.56739,-2.41114 -2.29101,-3.61719 -0.72363,-1.20604 -1.44727,-2.65333 -1.92969,-3.37695 -0.48242,-0.72362 -0.72314,-0.72316 -0.36133,-2.29101 0.36181,-1.56785 1.32566,-4.70505 3.72266,-10.70508 2.39699,-6.00003 6.2271,-14.86284 9.72461,-18.11914 1.31156,-1.22112 2.57616,-1.65466 3.7539,-1.65625 z m 92.58008,54.59179 c 0.14887,0.01 0.32911,0.0528 0.57031,0.10743 0.96483,0.21859 2.89355,0.65543 6.92969,1.26562 4.03614,0.61019 9.72194,1.3353 12.36328,2.43555 2.64134,1.10024 1.6626,2.50197 1.30078,3.94922 -0.36181,1.44725 -0.10558,2.93956 -0.82421,3.92773 -0.71863,0.98817 -2.33908,1.45108 -4.71485,1.97266 -2.37577,0.52157 -5.31579,1.05327 -9.61523,1.54492 -4.29945,0.49165 -9.41104,0.88824 -12.12891,0.86719 -2.71787,-0.0211 -2.47606,-0.50393 -1.87305,-1.95118 0.60302,-1.44724 1.5679,-3.8599 2.89454,-6.39257 1.32664,-2.53268 3.01514,-5.18508 3.85937,-6.51172 0.63317,-0.99498 0.79167,-1.24488 1.23828,-1.21485 z m 11.67969,28.4629 c 1.84665,0.0178 3.44585,0.23938 4.65039,0.5957 3.21211,0.95018 3.60996,2.85386 1.55273,6.23828 -2.05724,3.38442 -6.53539,8.21347 -9.15039,11.84961 -2.615,3.63614 -3.33786,6.04761 -5.38476,7.85547 -2.04691,1.80786 -5.52839,3.05258 -9.31446,4.23437 -3.78606,1.18179 -8.31014,2.43828 -12.11914,3.66211 -3.809,1.22383 -7.22074,2.50294 -9.15039,3.22656 -1.92966,0.72362 -2.37804,0.89186 -3.32617,-1.07421 -0.94813,-1.96608 -2.39443,-6.06616 -2.85156,-8.28907 -0.45712,-2.22291 0.0743,-2.56916 8.56055,-8.99023 8.48629,-6.42107 19.84994,-15.05738 25.90429,-17.35938 3.78398,-1.43875 7.55117,-1.97887 10.62891,-1.94921 z m 12.63086,19.98828 c 0.0969,0.009 0.18439,0.0708 0.25976,0.1914 0.60302,0.96482 0.48167,5.77395 -0.18164,8.17774 -0.6633,2.4038 -1.86915,2.40479 -2.83398,2.52539 -0.96483,0.12061 -1.68703,0.36229 -2.53125,0.12109 -0.84423,-0.24121 -1.80908,-0.96534 -1.44727,-2.05078 0.36181,-1.08543 2.04909,-2.53198 3.55664,-4.69531 1.3191,-1.89292 2.49922,-4.33518 3.17774,-4.26953 z" />
      <path
         style="display:inline;fill:#379c41;fill-opacity:1;stroke:none;stroke-width:1.992;stroke-opacity:1"
         d="m 332.25392,359.61624 c 0.17883,-1.88409 0.357,-3.76115 2.73684,-5.31332 2.37985,-1.55216 7.07099,-2.79476 9.92051,-3.55814 2.84952,-0.76338 4.19114,-1.13675 5.51637,-1.60448 1.32522,-0.46773 2.62042,-1.02463 4.89517,-0.56327 2.27476,0.46136 5.76121,2.00034 8.6878,2.14111 2.9266,0.14078 5.38288,-1.08736 8.28459,-2.84284 2.90171,-1.75548 6.33048,-4.09328 8.22646,-5.53573 1.89598,-1.44244 2.35561,-2.05529 3.19828,-2.82135 0.84267,-0.76606 2.06837,-1.68533 2.75782,-2.29818 0.68946,-0.61285 0.84267,-0.91927 1.91605,-1.83923 1.07338,-0.91996 3.06157,-2.44934 5.36064,-3.98215 2.29907,-1.5328 4.90368,-3.06493 7.35508,-4.29062 2.45139,-1.2257 4.74957,-2.14497 6.20509,-2.83443 1.45551,-0.68945 2.06836,-1.14909 3.21745,-1.3023 1.1491,-0.15322 2.83443,0 5.13261,1.2257 2.29819,1.2257 5.20922,3.52388 7.04776,5.74545 1.83855,2.22158 2.60461,4.36655 2.61098,5.63247 0.006,1.26593 -0.74694,1.65281 -1.79102,2.78238 -1.04407,1.12958 -2.3789,3.00185 -5.67933,6.25569 -3.30044,3.25383 -8.37144,7.71755 -15.15358,13.29882 -6.78215,5.58127 -13.97256,11.22081 -19.64466,15.28763 -5.6721,4.06683 -8.86846,5.81002 -12.13331,6.61418 -3.26486,0.80416 -7.24493,0.64314 -10.74651,-0.47433 -3.50157,-1.11748 -9.56055,-4.10204 -14.65009,-7.77394 -5.08955,-3.67189 -9.04792,-7.6766 -13.271,-11.94912"
         id="path10"
         inkscape:path-effect="#path-effect10"
         inkscape:original-d="m 332.25392,359.61624 c 0.17883,-1.88409 0.357,-3.76115 0.5365,-5.65227 4.58019,-1.21321 9.27133,-2.45581 13.68952,-3.62611 1.28085,-0.35646 2.62247,-0.72983 3.96863,-1.10447 1.30429,-0.56082 2.59949,-1.11772 3.8452,-1.65335 3.3038,1.45835 6.79025,2.99732 10.19804,4.50158 2.30076,-1.51198 4.85626,-2.54167 7.35419,-3.67709 3.48066,-2.09441 6.47161,-5.07434 10.112,-6.89455 0.45964,-0.61285 0.91927,-1.2257 1.37891,-1.83855 1.2257,-0.91927 2.4514,-1.83854 3.67709,-2.75781 0.15322,-0.30643 0.30643,-0.61285 0.45964,-0.91928 2.10285,-1.3914 4.04164,-2.98501 5.97528,-4.59636 2.6046,-1.53213 5.20921,-3.06425 7.81382,-4.59637 2.29818,-0.91927 4.59636,-1.83855 6.89455,-2.75782 0.61284,-0.45964 1.22569,-0.91927 1.83854,-1.37891 1.68534,0.15321 3.37067,0.30643 5.056,0.45964 2.91104,2.29818 5.82207,4.59636 8.7331,6.89455 0.76606,2.14497 1.53212,4.28994 2.29818,6.43491 -0.75331,0.38688 -1.50663,0.77376 -2.25995,1.16064 -1.33483,1.87227 -2.66966,3.74454 -4.00449,5.61681 -5.26604,4.6354 -10.33704,9.09912 -15.79811,13.9062 -6.11429,8.89135 -13.98853,13.659 -23.44147,18.38546 -3.19636,1.74319 -6.39272,3.48637 -9.58907,5.22956 -3.33336,-0.13486 -7.31343,-0.29588 -10.00006,-0.40457 -4.31652,-2.12626 -10.3755,-5.11082 -16.0668,-7.91428 -4.48779,-4.54033 -12.66924,-12.81756 -12.66924,-12.81756"
         sodipodi:nodetypes="cccccccccccccccccccccccccc"
         inkscape:label="Stem shadow 1" />
      <path
         style="display:inline;fill:#379c41;fill-opacity:1;stroke:none;stroke-width:1.992;stroke-opacity:1"
         d="m 327.21637,199.11836 c 0.59426,3.3647 2.75118,8.65091 4.35486,12.22897 1.60369,3.57805 2.65413,5.44792 3.41595,6.79085 0.76181,1.34294 1.23499,2.15891 1.54818,2.72012 0.3132,0.5612 0.46641,0.86761 0.54302,1.02083 0.0766,0.15322 0.31908,0.15322 1.15351,0.072 0.83443,-0.0812 2.28606,-0.24375 3.16511,-0.40161 0.87904,-0.15786 1.18547,-0.31107 2.18135,-0.38768 0.99588,-0.0766 2.68121,-0.0766 4.45448,-0.0766 1.77327,0 3.90204,0 5.58415,-0.0766 1.6821,-0.0766 3.06101,-0.22982 4.51652,-0.15321 1.45552,0.0766 2.98764,0.38303 4.01033,0.62178 1.02269,0.23876 1.33619,0.34326 1.61227,0.43528 0.27607,0.092 1.35701,-1.34923 1.73581,-2.16072 0.3788,-0.81149 0.81847,-1.98394 2.10927,-4.86553 1.29079,-2.8816 3.19997,-6.95453 5.132,-10.35492 1.93204,-3.40038 3.72518,-5.81362 4.17512,-7.04004 0.44995,-1.22641 -0.46594,-1.22641 -1.232,-1.30302 -0.76606,-0.0766 -1.37891,-0.22982 -3.2602,-1.00729 -1.8813,-0.77748 -5.03104,-2.17922 -6.48869,-2.64138 -1.45765,-0.46217 -1.2518,-0.043 -1.54766,2.29065 -0.29586,2.33368 -1.00327,5.75285 -1.78456,7.55865 -0.78128,1.8058 -1.61677,1.92126 -2.41478,0.69786 -0.79802,-1.22339 -1.56074,-3.7915 -2.14047,-6.40008 -0.57973,-2.60858 -0.89641,-4.72516 -1.42713,-6.63769 -0.53072,-1.91253 -0.83374,-2.25286 -1.48858,-2.31761 -0.65484,-0.0647 -1.2523,0.36534 -1.89557,0.63593 -0.64327,0.27059 -1.10985,0.37302 -2.68085,0.72772 -1.57099,0.3547 -2.27073,0.51671 -3.45719,0.43356 -1.18645,-0.0831 -4.67088,-0.71889 -6.16931,-0.92973 -1.49844,-0.21084 -1.69954,-0.12792 -4.81937,1.15843 -3.11983,1.28635 -0.60718,0.25035 -5.03734,3.11421 -4.43016,2.86386 -4.44249,2.88223 -3.84823,6.24692 z"
         id="path15"
         inkscape:path-effect="#path-effect15"
         inkscape:original-d="m 325.65371,197.19684 c 2.15692,5.28622 4.31384,10.57243 6.47076,15.85866 1.05045,1.86988 2.10089,3.73975 3.15134,5.60963 0.47318,0.81599 0.94636,1.63196 1.41954,2.44795 0.15321,0.30642 0.30642,0.61283 0.45964,0.91927 -0.19445,0.83515 0.24247,0 0.45963,0 1.4517,-0.16251 2.90333,-0.32501 4.355,-0.48752 0.30642,-0.15321 0.61285,-0.30642 0.91927,-0.45963 1.68534,0 3.37067,0 5.056,0 1.86121,-0.2692 3.98998,0 5.97528,0 1.37891,-0.15322 2.75782,-0.30643 4.13673,-0.45964 1.53212,0.30642 3.06424,0.61285 4.59636,0.91927 0.39938,0.51273 0.76541,0.45964 1.37891,0.45964 -0.0187,1.07609 1.12204,-1.41044 1.37891,-1.83855 0.45964,-1.22569 0.8993,-2.39814 1.37891,-3.67709 2.10198,-4.48424 4.01116,-8.55717 6.04337,-12.89258 1.83186,-2.46536 3.625,-4.8786 5.44755,-7.33143 -0.92266,0 -1.83855,0 -2.75782,0 -0.61285,-0.15321 -1.2257,-0.30642 -1.83855,-0.45964 -3.14974,-1.40174 -6.29948,-2.80349 -9.44924,-4.20523 0.23447,0.47742 0.44031,0.89657 0.7034,1.43228 -0.85481,4.13164 -1.56222,7.55081 -2.28544,11.04641 -0.83935,0.116 -1.67484,0.23146 -2.5099,0.34686 -0.76097,-2.56219 -1.52369,-5.1303 -2.2872,-7.70104 -0.39595,-2.64642 -0.71263,-4.763 -1.18614,-7.92774 -0.58793,-0.66032 -0.89095,-1.00065 -1.47276,-1.6541 -0.72787,0.52395 -1.32533,0.95404 -1.84246,1.3263 -0.76941,0.16892 -1.23599,0.27135 -2.7413,0.60183 -1.63668,0.37893 -2.33642,0.54093 -2.98053,0.69005 -1.7288,-0.31542 -5.21323,-0.95115 -7.99976,-1.45956 -0.21035,0.0867 -0.41144,0.16964 -0.60387,0.24898 -6.04723,2.49336 -3.53458,1.45736 -10.47043,4.31711 -1.92447,2.86797 -1.9368,2.88634 -2.9052,4.32951 z"
         sodipodi:nodetypes="ccccccccccccccccccccccccccccccccc"
         inkscape:label="Stem shadow 2" />
      <path
         style="display:inline;fill:#379c41;fill-opacity:1;stroke:none;stroke-width:1.992;stroke-opacity:1"
         d="m 399.66403,198.10627 c -2.25076,0.85891 -3.80202,1.2611 -5.1466,3.26318 -1.34457,2.00208 -2.48244,5.60406 -3.34426,8.25655 -0.86182,2.65248 -1.44758,4.35547 -2.04689,5.66661 -0.59931,1.31113 -1.21215,2.2304 -1.82501,2.99646 -0.61285,0.76607 -1.22569,1.37891 -1.68533,2.06837 -0.45964,0.68946 -0.76606,1.45552 -0.99588,1.91515 -0.22982,0.45964 -0.38303,0.61285 0.0766,0.45964 0.45964,-0.15322 1.53212,-0.61285 2.91103,-0.99588 1.37891,-0.38303 3.06424,-0.68946 4.6251,-0.86182 1.56085,-0.17236 2.99721,-0.21067 4.19272,-0.46848 1.19551,-0.25782 2.00523,-0.66268 4.03407,-0.91104 2.02884,-0.24836 5.09309,-0.24836 8.38715,-0.24836 3.29406,0 6.81794,0 9.06001,-0.13718 2.24206,-0.13718 3.43147,-0.47701 4.21434,-1.26155 0.78287,-0.78454 1.2808,-2.04854 1.2425,-6.58746 -0.0383,-4.53892 -0.59265,-12.07804 -1.92616,-15.61793 -1.3335,-3.53989 -3.28349,-2.59069 -5.71228,-1.98349 -2.42878,0.6072 -5.20494,0.84762 -8.22235,1.64479 -3.01741,0.79717 -5.58801,1.94352 -7.83877,2.80244 z"
         id="path16"
         inkscape:path-effect="#path-effect16"
         inkscape:original-d="m 398.96455,198.563 c -1.55128,0.40218 -3.10254,0.80437 -4.65382,1.20655 -1.13787,3.60198 -2.27574,7.20396 -3.41361,10.80593 -0.58577,1.703 -1.17153,3.40599 -1.7573,5.10899 -0.61285,0.91927 -1.22569,1.83854 -1.83855,2.75782 -0.61285,0.61285 -1.22569,1.22569 -1.83854,1.83854 -0.30643,0.76607 -0.61285,1.53213 -0.91928,2.29819 -0.15321,0.15321 -0.30642,0.30642 -0.45963,0.45963 1.07249,-0.45964 2.14497,-0.91927 3.21745,-1.37891 1.68534,-0.30642 3.37067,-0.61285 5.05601,-0.91927 1.43637,-0.0383 2.87273,-0.0766 4.30909,-0.11491 0.71051,-0.96563 1.654,-1.10296 2.75782,-1.37891 3.06424,0 6.12849,0 9.19273,0 3.52388,0 7.04776,0 10.57164,0 0.80818,-0.80662 2.11499,-0.73553 3.21746,-0.91927 0.49794,-1.264 0.99588,-2.528 1.49381,-3.792 -0.57454,-7.81384 -1.12888,-15.35296 -1.72363,-23.44147 -2.07227,1.00873 -4.02226,1.95794 -6.0057,2.92342 -2.87413,0.24891 -5.65029,0.48933 -8.70267,0.75367 -2.98244,1.33 -5.55304,2.47635 -8.50328,3.792 z"
         sodipodi:nodetypes="cccccccccccccccccccc"
         inkscape:label="Stem shadow 3" />
      <path
         style="display:inline;fill:#379c41;fill-opacity:1;stroke:none;stroke-width:1.992;stroke-opacity:1"
         d="m 518.24025,326.95482 c 0.22982,-2.14497 1.60873,-4.59636 3.7537,-7.73721 2.14497,-3.14085 5.056,-6.97116 6.66473,-9.03952 1.60872,-2.06837 1.91515,-2.37479 2.45139,-2.68122 0.53624,-0.30642 1.30231,-0.61285 2.14497,-0.99588 0.84267,-0.38303 1.76194,-0.84266 7.15928,-0.43534 5.39735,0.40732 15.27278,1.68161 20.51692,3.39123 5.24413,1.70963 5.85698,3.8546 6.31662,5.1569 0.45963,1.30231 0.76606,1.76194 1.14909,2.60462 0.38303,0.84267 0.84266,2.06836 0.12373,5.16753 -0.71893,3.09917 -2.61641,8.07175 -4.39802,10.64359 -1.78161,2.57184 -3.24409,2.72198 -5.31302,4.28861 -2.06893,1.56662 -3.604,3.55662 -5.04184,5.32975 -1.43784,1.77313 -2.05069,2.38598 -3.61335,3.70543 -1.56265,1.31946 -4.33105,3.55191 -6.77132,3.92596 -2.44026,0.37405 -4.71373,-0.98015 -8.61807,-4.19422 -3.90433,-3.21406 -9.35885,-8.21403 -12.5971,-11.68037 -3.23826,-3.46634 -4.15753,-5.30489 -3.92771,-7.44986 z"
         id="path11"
         inkscape:path-effect="#path-effect11"
         inkscape:original-d="m 517.09116,327.26125 c 1.37891,-2.4514 2.75782,-4.90279 4.13673,-7.35419 2.91103,-3.8303 5.82206,-7.66061 8.73309,-11.49091 0.30642,-0.30643 0.61285,-0.61285 0.91927,-0.91928 0.76606,-0.30642 1.53213,-0.61284 2.29819,-0.91927 0.91927,-0.45964 1.83854,-0.91927 2.75782,-1.37891 9.87541,1.27428 19.75084,2.54857 29.62626,3.82285 0.61285,2.14497 1.2257,4.28994 1.83855,6.43491 0.30642,0.45964 0.61284,0.91928 0.91927,1.37891 0.45963,1.22571 0.91927,2.4514 1.37891,3.6771 -1.8975,4.97264 -3.79498,9.94522 -5.6925,14.91789 -1.6657,0.17101 -3.12818,0.32115 -4.99706,0.51302 -2.26898,2.94138 -3.80405,4.93138 -6.06688,7.86479 -0.61285,0.61285 -1.2257,1.2257 -1.83855,1.83855 -3.2642,1.09385 -5.56216,3.90968 -7.8879,6.36083 -2.27349,-1.35422 -4.54696,-2.70842 -6.82047,-4.06265 -6.16935,-4.38206 -11.21116,-9.83225 -16.54691,-15.168 -0.91928,-1.83855 -1.83855,-3.6771 -2.75782,-5.51564 z"
         sodipodi:nodetypes="cccccccccccccccccc"
         inkscape:label="Shadow1" />
      <path
         style="display:inline;fill:#379c41;fill-opacity:1;stroke:none;stroke-width:1.992;stroke-opacity:1"
         d="m 471.1275,243.60739 c 1.53212,-3.21746 3.06424,-6.43491 4.13672,-8.50328 1.07249,-2.06836 1.68534,-2.98764 2.54272,-5.30675 0.85738,-2.3191 2.51517,-7.91416 3.3569,-9.76868 0.84172,-1.85452 1.60778,-2.46736 3.23045,-3.72174 1.62266,-1.25438 4.65584,-3.57387 6.7258,-5.06666 2.06996,-1.49278 3.90851,-2.71848 5.21081,-3.79097 1.30231,-1.07248 2.06837,-1.99176 3.59041,-3.3626 1.52204,-1.37084 3.88143,-3.25836 5.92927,-5.15709 2.04784,-1.89874 3.88639,-3.8905 5.87815,-5.95886 1.99176,-2.06837 4.13673,-4.21334 6.02967,-7.07591 1.89294,-2.86256 3.96552,-7.38457 4.78999,-9.23216 0.82446,-1.84758 1.13089,-2.61364 1.69377,-3.20151 0.56289,-0.58786 0.88684,-0.74984 1.90164,-0.63536 1.0148,0.11448 0.95785,0.0899 5.86965,4.50683 4.91181,4.41695 2.23018,1.63307 7.67865,7.94086 5.44847,6.3078 5.97313,7.02694 7.84398,9.75447 1.87085,2.72752 3.44859,5.22881 5.03249,8.58354 1.5839,3.35472 3.05544,7.28505 4.11836,11.08664 1.06291,3.80159 1.67576,7.36376 1.99204,10.90784 0.31628,3.54408 0.3342,6.74845 0.26472,8.52546 -0.0695,1.77702 -0.21707,1.77702 -1.04663,2.52997 -0.82956,0.75296 0.0507,-0.12734 -1.49416,0.68979 -1.5449,0.81714 -3.42173,1.23847 -4.8198,1.67895 -1.39807,0.44049 -2.31734,0.90012 -3.38982,1.58958 -1.07249,0.68945 -2.29818,1.60873 -3.83031,2.4514 -1.53212,0.84266 -3.37066,1.60872 -4.74957,2.22157 -1.37891,0.61285 -2.29818,1.07249 -3.52388,1.37891 -1.2257,0.30643 -2.75782,0.45964 -4.74958,0.45964 -1.99176,0 -4.44314,-0.15321 -8.90547,-0.48875 -4.46232,-0.33553 1.42704,0.13562 -4.80159,-0.0681 -6.22863,-0.20375 -7.77519,0.26022 -8.90801,0.71497 -1.13282,0.45476 -1.89888,0.91439 -3.34748,1.44866 -1.44859,0.53427 -3.67875,1.17145 -7.04465,3.3832 -3.36591,2.21175 -2.75706,1.71101 -3.90605,2.54739 -1.14899,0.83638 -1.34394,0.78468 -6.30137,-0.53 -4.95743,-1.31468 -2.709,-0.71841 -5.3017,-2.12352 -2.5927,-1.40511 -7.71255,-5.34346 -11.69607,-8.4077"
         id="path12"
         inkscape:path-effect="#path-effect12"
         inkscape:original-d="m 471.1275,243.60739 c 1.53212,-3.21746 3.06424,-6.43491 4.59636,-9.65237 0.61285,-0.91927 1.2257,-1.83855 1.83855,-2.75782 0.35318,-3.94079 3.67709,-9.04218 3.67709,-12.41019 0.76606,-0.61285 1.53212,-1.22569 2.29819,-1.83854 2.23599,-2.21403 6.37191,-3.09148 7.81382,-5.97528 1.83854,-1.2257 3.67709,-2.45139 5.51564,-3.67709 0.76606,-0.91927 1.53212,-1.83855 2.29818,-2.75782 2.53559,-1.50045 4.39215,-4.01651 6.89455,-5.51564 1.83854,-1.99176 3.67709,-3.98352 5.51564,-5.97528 2.14497,-2.14497 4.28994,-4.28994 6.43491,-6.43491 1.87576,-3.47252 5.056,-7.48686 5.056,-11.03128 0.30643,-0.76606 0.61285,-1.53212 0.91927,-2.29818 1.01023,-0.0279 1.1433,-0.57164 1.83855,-0.91927 1.33435,0.57658 1.2774,0.55197 3.5286,1.52472 7.57241,7.86116 4.89078,5.07728 11.86923,12.32183 3.91849,5.37104 4.44315,6.09018 6.66473,9.13528 1.52012,2.40995 3.09786,4.91124 4.71127,7.46909 1.55439,4.1516 3.02593,8.08193 4.53891,12.12292 0.61285,3.56219 1.2257,7.12436 1.83855,10.68655 0.0197,3.52597 0.0376,6.73034 0.0575,10.28437 -0.15883,0 -0.30642,0 -0.45963,0 -1.00395,2.00787 -0.62561,0.6256 -1.83855,1.83855 -1.87686,0.42133 -3.75369,0.84266 -5.63055,1.26399 -0.91928,0.45964 -1.83855,0.91927 -2.75782,1.37891 -1.22569,0.91928 -2.45139,1.83855 -3.67709,2.75782 -1.83855,0.76606 -3.67709,1.53212 -5.51564,2.29819 -0.91927,0.45963 -1.83854,0.91927 -2.75782,1.37891 -1.53212,0.15321 -3.06424,0.30642 -4.59636,0.45963 -2.4514,-0.15321 -4.90278,-0.30642 -7.35419,-0.45963 -6.41614,-1.23167 -0.58388,-0.0467 -11.49091,-0.91928 -1.53879,0.50322 -2.96183,1.37891 -4.59637,1.37891 -0.76606,0.45964 -1.53212,0.91927 -2.29818,1.37891 -2.15994,0.50807 -4.19201,1.83855 -6.43491,1.83855 -4.65819,3.83103 -4.04934,3.33029 -6.14765,5.056 -0.19966,-0.053 -0.39462,-0.10465 -0.58499,-0.15514 -9.72449,-2.57887 -7.47606,-1.9826 -9.81428,-2.60268 -2.84718,-2.19014 -11.95055,-9.19273 -11.95055,-9.19273"
         sodipodi:nodetypes="cccccccccccccccccccccccccccccccccccccc"
         inkscape:label="Shadow 2" />
      <path
         style="display:inline;fill:#379c41;fill-opacity:1;stroke:none;stroke-width:1.992;stroke-opacity:1"
         d="m 363.31252,189.18866 c 0.41323,-1.65694 2.86462,-3.49548 5.0862,-7.01936 2.22158,-3.52388 4.21334,-8.7331 5.28583,-11.87395 1.07248,-3.14085 1.22569,-4.21333 1.53211,-4.82618 0.30643,-0.61285 0.76607,-0.76606 2.29819,-1.68534 1.53212,-0.91927 4.13673,-2.60461 6.51151,-4.51976 2.37479,-1.91515 4.51977,-4.06012 6.51153,-6.43491 1.99175,-2.37479 3.8303,-4.97939 5.51563,-7.35418 1.68534,-2.37479 3.21746,-4.51976 4.51976,-5.28582 1.30231,-0.76606 2.37479,-0.15322 4.20746,0.96347 1.83267,1.11669 4.1487,2.56422 6.48774,4.29591 2.33903,1.73169 4.69736,3.77558 6.73045,5.75303 2.03309,1.97746 2.35383,2.33384 4.29175,4.48707 1.93791,2.15324 2.53738,2.81931 4.314,5.15083 1.77662,2.33152 -0.0619,-0.4263 1.31698,1.56546 1.37891,1.99175 2.29818,3.21745 2.75782,4.82618 0.45964,1.60873 0.45964,3.60049 0.22982,5.28583 -0.22982,1.68533 -0.68945,3.06423 -0.91927,4.06011 -0.22982,0.99588 -0.22982,1.60873 -0.5401,3.52043 -0.31027,1.91171 -0.93082,5.12226 -3.01498,7.79843 -2.08416,2.67617 -5.6359,4.82034 -10.54098,6.62224 -4.90509,1.8019 -10.06256,3.00716 -13.77533,3.93612 -3.71276,0.92896 -2.69445,0.56837 -6.08795,1.46694 -3.39349,0.89856 -2.14948,0.66011 -7.22434,-0.42592 -5.07485,-1.08603 -13.35474,-3.32714 -18.9492,-5.36949 -5.59446,-2.04234 -6.95786,-3.28021 -6.54463,-4.93714 z"
         id="path13"
         inkscape:path-effect="#path-effect13"
         inkscape:original-d="m 361.27435,189.37027 c 2.4514,-1.83854 4.90279,-3.67709 7.35419,-5.51564 1.99176,-5.20921 3.98352,-10.41843 5.97528,-15.62764 0.15321,-1.07249 0.30642,-2.14497 0.45963,-3.21746 0.45964,-0.15321 0.91928,-0.30642 1.37891,-0.45963 2.60461,-1.68534 5.20922,-3.37067 7.81382,-5.05601 2.14497,-2.14497 4.28995,-4.28994 6.43492,-6.43491 1.83854,-2.60461 3.67709,-5.20921 5.51563,-7.81382 1.53213,-2.14497 3.06425,-4.28994 4.59637,-6.43491 1.07249,0.61285 2.14497,1.2257 3.21746,1.83854 2.83599,1.23151 5.49937,2.12328 7.35418,4.59637 2.84237,1.23169 4.63864,3.92411 6.89455,5.97528 1.22243,2.44486 2.41617,2.01554 4.13673,4.59636 2.61814,1.30907 1.67356,3.36478 4.13673,4.59637 1.607,3.214 -0.53459,-1.98838 1.83855,2.75782 0.91927,1.22569 1.83854,2.45139 2.75782,3.67709 0,1.99176 0,3.98352 0,5.97528 -0.45964,1.37891 -0.91928,2.75781 -1.37891,4.13672 0,0.61285 0,1.2257 0,1.83855 -0.62055,3.21056 -1.2411,6.42111 -1.86165,9.63167 -3.54777,2.14178 -7.09951,4.28595 -10.64332,6.42534 -6.26636,1.46441 -11.42383,2.66968 -17.83105,4.167 -1.01831,0.36059 0,0 -3.05495,1.08178 -3.73204,0.71535 -2.48803,0.4769 -3.73204,0.71535 -8.9057,-2.41051 -17.18559,-4.65162 -26.71711,-7.23152 -1.6574,-1.50479 -3.0208,-2.74266 -4.64574,-4.21798 z"
         sodipodi:nodetypes="cccccccccccccccccccccccccc"
         inkscape:label="Shadow 3" />
      <path
         style="display:inline;fill:#379c41;fill-opacity:1;stroke:none;stroke-width:1.992;stroke-opacity:1"
         d="m 275.60028,191.9094 c 0.16851,-2.7804 2.78628,-6.21622 5.46746,-9.74007 2.68119,-3.52384 5.59227,-7.35421 10.603,-14.18955 5.01073,-6.83533 1.24807,-1.62805 3.80197,-5.03325 2.5539,-3.4052 2.90339,-3.82172 4.70596,-5.0927 1.80257,-1.27097 4.56038,-2.80309 6.24572,-3.56915 1.68533,-0.76606 2.29818,-0.76606 3.29406,-0.61285 0.99588,0.15321 2.37479,0.45964 3.60049,0.53624 1.2257,0.0766 2.29818,-0.0766 3.56021,-0.44352 1.26204,-0.36692 2.84966,-1.00197 4.60933,-1.76622 1.75968,-0.76425 3.77687,-1.69525 5.15785,-2.30906 1.38098,-0.6138 2.14704,-0.92023 3.14292,-1.45647 0.99588,-0.53624 2.22158,-1.30231 3.42609,-1.98117 1.2045,-0.67886 2.46724,-1.31022 4.15524,-1.46477 1.68801,-0.15455 3.83298,0.15188 5.2885,0.53491 1.45551,0.38303 2.22157,0.84266 3.41586,1.95749 1.19429,1.11483 2.96305,3.04439 4.10184,4.56527 1.13878,1.52088 1.75163,2.74657 1.02388,4.22124 -0.72776,1.47466 -2.30121,2.78588 -3.82019,5.08808 -1.51898,2.30221 -1.77366,3.62654 -1.41689,6.019 0.35678,2.39247 1.29187,4.53972 1.6749,6.1293 0.38302,1.58957 0.11827,2.38383 -2.28848,6.34788 -2.40675,3.96405 -5.95895,9.52746 -8.28701,10.70869 -2.32807,1.18122 -6.98418,3.54366 -9.2566,5.91584 -2.27241,2.37219 -2.21672,3.5643 -4.37003,7.98225 -2.15331,4.41794 -6.48944,11.95176 -9.83202,15.98746 -3.34259,4.03569 -5.62496,4.47096 -11.04007,0.59609 -5.41511,-3.87487 -14.06025,-12.12088 -19.49183,-17.6832 -5.43157,-5.56231 -7.64066,-8.46736 -7.47216,-11.24776 z"
         id="path14"
         inkscape:path-effect="#path-effect14"
         inkscape:original-d="m 273.48377,192.12809 c 2.28502,-2.99909 4.90279,-6.43491 7.35418,-9.65237 2.87382,-3.85847 5.81067,-7.66926 8.7331,-11.49091 7.11042,-9.84036 3.34776,-4.63308 7.11042,-9.84036 1.34514,-1.60312 1.69463,-2.01964 2.54195,-3.02947 2.75782,-1.53212 5.51563,-3.06424 8.27345,-4.59636 0.61285,0 1.2257,0 1.83855,0 1.37891,0.30642 2.75782,0.61285 4.13673,0.91927 1.07249,-0.15321 2.14497,-0.30642 3.21746,-0.45963 1.75747,0.18409 3.12611,-0.9984 4.59636,-1.83855 2.2015,-0.38712 4.04831,-1.68728 5.97528,-2.75782 0.76606,-0.30642 1.53212,-0.61285 2.29818,-0.91927 1.2257,-0.76606 2.4514,-1.53213 3.67709,-2.29819 1.09356,-0.77118 2.44606,-1.22302 3.6771,-1.83854 2.14497,0.30642 4.28994,0.61285 6.43491,0.91927 0.76606,0.45964 1.53212,0.91927 2.29818,1.37891 1.20939,2.14872 3.31232,3.77196 5.056,5.51564 0.61285,1.2257 1.2257,2.45139 1.83855,3.67709 -2.06836,1.72363 -3.64181,3.03485 -6.20509,5.17092 -0.47468,2.46834 -0.72936,3.79267 -1.14909,5.97526 1.13327,2.60234 2.06837,4.74959 3.10255,7.12437 -0.26813,0.80437 -0.53288,1.59863 -0.80437,2.4131 -8.79557,4.39776 -11.29532,11.14443 -8.09421,12.67704 -4.65613,2.36245 -9.31224,4.72489 -13.96835,7.08733 -1.01682,2.43463 -2.40887,3.69438 0.22545,4.82578 -4.3651,7.58415 -8.70123,15.11797 -13.09527,22.75242 -2.29113,0.43694 -4.5735,0.87221 -6.8281,1.30218 -8.57562,-8.17971 -17.22076,-16.42572 -25.97148,-24.77243 -2.11242,-2.77793 -4.32152,-5.68297 -6.26953,-8.24468 z"
         inkscape:label="Shadow 4"
         sodipodi:nodetypes="ccccccccccccccccccccccccccccc" />
      <path
         style="display:inline;fill:none;stroke:#000000;stroke-width:1.29509;stroke-dasharray:none;stroke-opacity:1"
         d="m 314.05205,327.07725 c 3.49751,-0.45226 6.99501,-0.90453 10.49252,-0.66332 3.49751,0.24121 6.99501,1.17588 11.65333,3.70856 4.65833,2.53268 10.47745,6.66336 15.72371,11.41213 5.24626,4.74877 10.29754,10.5496 15.08856,16.66277 4.79101,6.11317 4.2584,5.37837 7.00711,9.92321 2.7487,4.54485 3.23111,6.71571 3.71353,8.88658"
         id="path8"
         inkscape:path-effect="#path-effect8"
         inkscape:original-d="m 314.05205,327.07725 c 3.49751,-0.45226 6.99501,-0.90453 10.49252,-1.35679 3.49751,0.93468 6.99501,1.86935 10.49252,2.80403 5.81914,4.13068 11.63826,8.26136 17.45739,12.39204 4.67339,5.36686 9.72467,11.16769 14.02018,16.10059 5.28652,7.29344 4.75391,6.55864 9.7689,13.47746 0.48242,2.17087 1.44725,6.5126 1.44725,6.5126"
         sodipodi:nodetypes="ccccccc"
         inkscape:label="Shadow line; possibly delete" />
      <path
         style="display:inline;fill:none;stroke:#000000;stroke-width:1.29509;stroke-dasharray:none;stroke-opacity:1"
         d="m 504.22901,325.63001 c -1.88443,-2.89449 -3.76886,-5.78898 -4.85821,-7.67764 -1.08936,-1.88867 -1.243,-2.34959 -1.50295,-3.73992 -0.25995,-1.39033 -0.49471,-3.26842 -0.37584,-5.33252 0.11888,-2.0641 0.60129,-4.23497 0.13501,-6.73539 -0.46629,-2.50042 -2.02864,-5.62511 -2.83144,-7.83374 -0.80281,-2.20863 -1.04401,-3.89708 -1.40582,-6.42975 -0.36181,-2.53268 -0.84423,-5.90959 -1.03267,-9.94228 -0.18844,-4.03268 -0.0829,-8.72115 0.42965,-12.08298 0.51257,-3.36183 1.43217,-5.397 1.88052,-6.55774 0.44836,-1.16073 0.29035,-3.13578 -2.46386,-3.85427 -2.75422,-0.71849 -8.45166,-2.20478 -13.22064,-4.24065 -4.76899,-2.03587 -8.86952,-4.68916 -11.73352,-7.22106 -2.864,-2.53189 -4.39535,-4.80002 -5.01239,-6.65115 -0.61705,-1.85114 -0.2342,-3.0733 -1.12366,-3.21651 -0.88945,-0.14322 -3.06032,0.82161 -5.4347,0.87438 -2.37439,0.0528 -4.95229,-0.80654 -7.48497,-2.25378 -2.53268,-1.44725 -5.02013,-3.48244 -7.34929,-7.51513 -2.32916,-4.03268 -4.50002,-10.06287 -6.30908,-15.00762 -1.80905,-4.94475 -3.2563,-8.80409 -4.30741,-11.88344 -1.05111,-3.07935 -1.72588,-5.44821 -2.13228,-7.48875 -0.40641,-2.04053 -0.41962,-3.04502 -1.21109,-3.02241 -0.79146,0.0226 -2.3593,1.21357 -4.25127,2.64574 -1.89197,1.43217 -4.10807,3.10555 -6.7013,3.84423 -2.59322,0.73868 -5.56673,0.54246 -7.41141,0.68581 -1.84467,0.14336 -2.56829,0.62577 -3.89493,1.10818 -1.32664,0.48242 -3.2563,0.96483 -4.34173,1.32665 -1.08544,0.36181 -1.3264,0.60277 -2.56569,1.18265 -1.23929,0.57988 -3.47329,1.49691 -6.42376,1.21658 -2.95047,-0.28032 -6.62121,-1.75901 -8.45697,-2.49852 -1.83576,-0.73951 -2.47636,-1.0442 -4.87685,-1.61819 -2.40049,-0.574 -5.29498,-0.8152 -7.10403,-0.93581 -1.80906,-0.1206 -2.53268,-0.1206 -3.48923,-0.69067 -0.95655,-0.57008 -2.14603,-1.71022 -3.4771,-2.72379 -1.33108,-1.01357 -2.80376,-1.90056 -4.05776,-2.55155 -1.25401,-0.65098 -2.28934,-1.06597 -3.24974,-1.25845 -0.9604,-0.19248 -1.84585,-0.16244 -2.52978,0.0938 -0.68393,0.25622 -1.16635,0.73864 -1.76937,1.10045 -0.60302,0.36181 -1.32664,0.60301 -2.89449,0.72362 -1.56784,0.1206 -3.97992,0.1206 -5.66837,-0.24121 -1.68845,-0.36181 -2.65328,-1.08543 -3.85932,-0.96482 -1.20604,0.1206 -2.65328,1.08543 -3.61811,1.56785 -0.96483,0.48241 -1.44724,0.48241 -1.68845,0.60301 -0.24121,0.1206 -0.24121,0.36181 -1.68846,0.96483 -1.44724,0.60302 -4.34173,1.56785 -5.78898,2.77388 -1.44724,1.20604 -1.44724,2.65329 -1.56784,3.73872 -0.12061,1.08543 -0.36181,1.80906 -0.24121,1.68845 0.12061,-0.1206 0.60302,-1.08543 1.08544,-2.05026"
         id="path6"
         inkscape:path-effect="#path-effect6"
         inkscape:original-d="m 504.22901,325.63001 c 0,0 -3.76886,-5.78898 -5.65329,-8.68347 0.11859,-1.02046 -0.0344,-1.4816 -0.72362,-2.17087 0.2108,-2.01043 -0.24171,-3.8613 -0.72363,-5.78898 0.48242,-2.17086 0.96483,-4.34173 1.44725,-6.5126 -2.15702,-2.45895 -2.6342,-6.12623 -4.34174,-8.68346 -0.2412,-1.68846 -0.48241,-3.37691 -0.72362,-5.06536 -0.48241,-3.3769 -0.96483,-6.75381 -1.44724,-10.13071 0.10553,-4.68847 0.21106,-9.37694 0.31658,-14.06541 0.91961,-2.03519 1.83921,-4.07036 2.75882,-6.10556 0.95066,-0.36416 8.22771,-6.46563 -0.18091,-2.26132 -5.42756,-1.74698 -11.49068,-1.83148 -16.64331,-4.34173 -4.10053,-2.65328 -8.20106,-5.30657 -12.30158,-7.95985 -1.62748,-2.41051 -3.15883,-4.67864 -4.794,-7.10054 0.40108,-1.28037 0.78393,-2.50253 1.17589,-3.75379 -2.17087,0.96483 -4.34174,1.92966 -6.5126,2.89449 -2.57791,-0.8593 -5.15581,-1.7186 -7.73372,-2.5779 -2.48745,-2.03519 -4.9749,-4.07038 -7.46235,-6.10557 -2.17087,-6.03018 -4.34173,-12.06037 -6.5126,-18.09055 -1.44724,-3.85932 -2.89449,-7.71866 -4.34173,-11.57796 -0.65498,-2.2994 -1.32975,-4.66826 -2.12564,-7.46236 -0.0169,-1.28697 -0.0301,-2.29146 -0.0452,-3.4372 -1.56786,1.19097 -3.1357,2.38192 -4.70355,3.57288 -2.21609,1.67338 -4.43219,3.34676 -6.64828,5.02013 -2.97117,-0.18379 -5.93096,-0.58794 -8.90959,-0.58794 -0.72363,0.48242 -1.44725,0.96483 -2.17087,1.44724 -1.92966,0.48242 -3.85932,0.96483 -5.78898,1.44725 -0.24121,0.24121 -0.48217,0.48217 -0.72362,0.72362 -2.23713,0.91831 -4.47113,1.83534 -6.70452,2.75211 -3.66755,-1.47742 -7.33829,-2.95611 -11.00981,-4.43513 3.07886,-2.69915 -0.008,-1.63472 -2.54709,-1.21147 -2.89449,-0.2412 -5.78898,-0.48241 -8.68347,-0.72362 -0.72362,0 -1.44724,0 -2.17087,0 -1.18947,-1.14015 -2.37895,-2.28029 -3.56842,-3.42044 -1.47268,-0.88699 -2.94536,-1.77398 -4.41804,-2.66097 -1.03533,-0.41498 -2.07066,-0.82997 -3.106,-1.24496 -0.88546,0.03 -1.77091,0.0601 -2.65636,0.0901 -0.48241,0.48241 -0.96483,0.96483 -1.44724,1.44724 -0.72363,0.24121 -1.44725,0.48242 -2.17087,0.72362 -2.41207,0 -4.82415,0 -7.23622,0 -0.96483,-0.72362 -1.92966,-1.44724 -2.89449,-2.17086 -1.44725,0.96483 -2.89449,1.92966 -4.34173,2.89449 -0.48242,0 -0.96483,0 -1.44725,0 0,0.2412 0,0.48241 0,0.72362 -2.89449,0.96483 -5.78898,1.92966 -8.68347,2.89449 0,1.44724 0,2.89449 0,4.34173 -0.2412,0.72362 -0.48241,1.44725 -0.72362,2.17087 0.48242,-0.96483 0.96483,-1.92966 1.44725,-2.89449"
         sodipodi:nodetypes="ccccccsccccccccccccccccccccccccccccccccccccccccc"
         inkscape:label="Separate stem" />
      <path
         id="path9"
         style="display:inline;fill:none;fill-opacity:1;stroke:#000000;stroke-width:1.992;stroke-opacity:1"
         inkscape:label="Outline"
         d="m 355.49609,107.68555 c -1.11087,-0.0342 -2.26216,-0.0316 -3.45312,0.0137 -9.5277,0.36181 -21.58849,3.4971 -28.94531,5.66797 -11.13716,3.02907 -21.0276,8.75677 -30.03125,15.79883 -3.85932,3.01509 -9.16607,7.11673 -12.54297,9.89062 -3.37691,2.77389 -4.82424,4.21976 -5.78906,6.39063 -3.71216,11.10332 -6.05427,22.91879 -4.46094,34.61328 0.36181,2.29147 0.36183,3.73881 1.44726,6.27148 5.5887,14.98204 17.49784,24.50258 29.42578,34.49414 4.46234,3.73872 4.70413,3.979 5.91016,3.61719 1.20604,-0.36181 3.37795,-1.32618 4.58398,-1.80859 1.20604,-0.48242 1.4473,-0.48247 3.37696,-3.37696 1.92966,-2.89449 5.54641,-8.68364 7.35547,-12.06054 1.98464,-3.23262 2.15346,-7.01306 3.01562,-10.61329 0.24121,-0.96483 0.24072,-0.72264 0.36133,-0.24023 8.58266,19.97127 -0.56955,1.47807 16.28125,37.98828 2.32164,5.79389 5.45191,11.13824 8.56445,16.52344 0.72452,1.99948 1.73245,3.80722 2.16992,5.91015 0.36183,2.29148 0.3618,5.91021 -0.96484,9.28711 -1.32664,3.37691 -3.9805,6.51226 -6.39258,10.00977 -2.41207,3.49751 -4.58205,7.35697 -6.02929,9.64844 -1.44725,2.29147 -2.17189,3.01466 -3.13672,4.2207 -8.39566,9.64873 -16.3001,19.70637 -21.22461,31.71875 -1.92966,5.42717 -0.72507,8.32134 1.08398,11.93945 1.80906,3.61811 4.2217,7.95902 5.42774,10.3711 2.97611,7.37247 8.44691,13.2786 13.99023,18.81445 0.72362,0.96483 1.20512,2.17045 4.09961,4.70313 2.89449,2.53267 8.20171,6.39308 11.2168,8.44336 3.01509,2.05025 3.73832,2.29054 6.63281,3.13476 2.89449,0.84423 7.96052,2.2915 12.66406,1.44727 6.47225,-1.10038 10.99372,-5.80826 15.91992,-9.64844 2.05026,-1.56785 5.90974,-4.21929 10.61329,-7.7168 4.70354,-3.49751 10.25102,-7.84086 13.38671,-10.49414 12.69985,-11.27628 9.96591,-11.41317 13.26563,-14.71289 1.85152,-1.62514 4.40185,-2.09867 6.75391,-2.5332 8.54689,-1.90731 17.24553,-1.90198 25.92968,-2.16992 2.77389,-0.12061 4.94485,-0.60255 6.75391,-0.84375 3.26318,-0.0321 6.29979,-0.95177 9.4082,-1.81055 10.2236,-2.87495 17.63931,-2.25517 27.37696,-4.3418 1.68845,-0.36181 2.89405,-0.84375 3.73828,-0.84375 0.84422,0 1.32667,0.48292 2.41211,1.08594 3.56357,1.97977 10.28837,3.64588 13.99023,5.78906 2.29147,1.32664 3.25686,2.77396 4.94531,4.82422 4.74027,5.75604 10.45183,10.8199 13.50586,12.7832 1.68846,1.08544 2.41262,1.08594 3.49805,1.08594 1.08543,0 2.53373,4.6e-4 5.06641,-1.80859 2.53267,-1.80906 6.14944,-5.42875 8.32031,-8.08203 2.17086,-2.65328 2.89454,-4.34083 3.37695,-5.06446 0.92252,-1.38376 3.2322,1.05333 5.78906,-1.92968 1.44725,-1.68846 2.65382,-5.06548 3.49805,-7.71875 2.52433,-7.39223 2.46105,-15.2057 2.16992,-22.91407 -1.0992,-4.22102 -1.26042,-8.6472 -2.65234,-12.78515 -2.91579,-11.28398 -4.69686,-10.8368 -5.54688,-13.38672 -0.1206,-0.36181 -0.12159,-0.60208 -1.20703,-2.65235 -1.08543,-2.05026 -3.25586,-5.91022 -3.73828,-10.73437 -0.48241,-4.82415 0.72315,-10.61382 1.32617,-14.11133 1.24903,-5.753 0.89032,-11.55791 0.84375,-17.36523 0,-3.01509 0.24265,-8.08116 -1.5664,-15.07618 -1.80906,-6.99501 -5.66996,-15.91999 -8.08203,-20.74414 -2.41208,-4.82415 -3.3765,-5.54787 -5.18555,-7.23632 -1.80906,-1.68845 -4.46195,-4.34134 -6.63281,-6.63282 -2.17087,-2.29147 -3.85842,-4.2217 -5.06446,-5.42773 -1.75976,-1.38538 -3.16552,-3.0978 -4.70508,-4.70313 -1.08542,-1.08543 -2.77247,-2.53273 -3.97851,-3.85937 -1.2698,-1.71412 -2.62251,-3.30138 -4.10156,-4.82422 -2.94857,-4.2225 -6.82038,-7.53714 -10.3711,-11.2168 -1.20603,-1.20603 -2.65482,-2.41215 -5.1875,-4.82421 -4.55807,-4.89815 -9.67524,-9.08144 -14.95312,-13.14454 -3.2563,-2.53267 -8.80525,-7.11674 -13.75,-9.89062 -4.94475,-2.77389 -9.28618,-3.73829 -12.42188,-4.2207 -7.16819,-1.21145 -14.37339,-0.90567 -21.58789,-0.60352 -3.01509,0.1206 -4.70317,0.12061 -7.59765,0.48242 -2.89449,0.36181 -6.99467,1.08643 -9.52735,1.68946 -6.20355,1.47701 8.41696,-1.73849 -7.47851,1.92968 -1.56785,0.36181 -3.98004,1.08595 -7.71875,1.56836 -3.73872,0.48242 -8.80278,0.72217 -11.69727,0.60156 -2.26618,-0.0944 -4.62908,-0.81257 -6.51367,-1.5664 -8.06188,-2.74389 -10.48639,-16.25783 -35.25977,-17.01953 z m 0.90625,80.12695 c 0.28644,0.0151 0.7986,0.16724 1.70313,0.46875 1.80906,0.60302 5.18605,1.80862 6.27148,3.73828 1.08544,1.92966 -0.12082,4.58199 -0.72656,6.62891 -0.60573,2.04691 -0.61182,3.48927 -1.21484,4.69531 -0.60302,1.20604 -1.80205,2.17729 -2.88477,0.01 -1.08272,-2.16752 -2.04932,-7.47564 -2.65234,-10.61133 -0.60302,-3.1357 -0.84375,-4.09962 -0.84375,-4.58203 0,-0.24121 0.0612,-0.36274 0.34765,-0.34766 z m 69.58008,0.88086 c 0.27849,-0.019 0.48663,0.19506 0.76367,0.74609 0.49253,0.97962 1.20024,3.02991 2.35352,5.88672 1.15328,2.85681 2.75225,6.51992 2.70703,9.31641 -0.0452,2.7965 -1.73341,4.72512 -2.93945,6.29297 -1.20603,1.56785 -1.9302,2.77442 -2.53321,3.49804 -0.60302,0.72362 -1.08545,0.96486 -1.44726,1.44727 -0.36182,0.48242 -0.60361,1.20644 -1.02344,-0.45898 -0.41982,-1.66542 -1.02599,-5.775 -1.48633,-9.99219 -0.46033,-4.2172 -0.79003,-8.73355 -0.90429,-10.95313 -0.11427,-2.21958 -0.0389,-2.49071 0.69726,-3.13867 0.73612,-0.64795 2.13401,-1.67268 2.9707,-2.23047 0.36605,-0.24403 0.6252,-0.39928 0.8418,-0.41406 z m -45.64258,7.92383 c 1.9629,-0.003 3.68378,1.19085 4.97461,1.92578 2.06534,1.17589 3.02932,1.17676 4.47657,1.41797 1.44724,0.2412 3.37794,0.72364 4.10156,1.44726 0.72362,0.72363 0.2412,1.68801 -0.48242,3.25586 -0.72363,1.56785 -1.68947,3.73832 -2.6543,6.15039 -0.96483,2.41208 -1.92974,5.066 -5.30664,10.25196 -3.37691,5.18596 -9.16606,12.90433 -12.54297,15.79882 -3.37691,2.89449 -4.34132,0.96483 -5.18555,-0.48242 -0.84422,-1.44724 -1.56739,-2.41114 -2.29101,-3.61719 -0.72363,-1.20604 -1.44727,-2.65333 -1.92969,-3.37695 -0.48242,-0.72362 -0.72314,-0.72316 -0.36133,-2.29101 0.36181,-1.56785 1.32566,-4.70505 3.72266,-10.70508 2.39699,-6.00003 6.2271,-14.86284 9.72461,-18.11914 1.31156,-1.22112 2.57616,-1.65466 3.7539,-1.65625 z m 92.58008,54.59179 c 0.14887,0.01 0.32911,0.0528 0.57031,0.10743 0.96483,0.21859 2.89355,0.65543 6.92969,1.26562 4.03614,0.61019 9.72194,1.3353 12.36328,2.43555 2.64134,1.10024 1.6626,2.50197 1.30078,3.94922 -0.36181,1.44725 -0.10558,2.93956 -0.82421,3.92773 -0.71863,0.98817 -2.33908,1.45108 -4.71485,1.97266 -2.37577,0.52157 -5.31579,1.05327 -9.61523,1.54492 -4.29945,0.49165 -9.41104,0.88824 -12.12891,0.86719 -2.71787,-0.0211 -2.47606,-0.50393 -1.87305,-1.95118 0.60302,-1.44724 1.5679,-3.8599 2.89454,-6.39257 1.32664,-2.53268 3.01514,-5.18508 3.85937,-6.51172 0.63317,-0.99498 0.79167,-1.24488 1.23828,-1.21485 z m 11.67969,28.4629 c 1.84665,0.0178 3.44585,0.23938 4.65039,0.5957 3.21211,0.95018 3.60996,2.85386 1.55273,6.23828 -2.05724,3.38442 -6.53539,8.21347 -9.15039,11.84961 -2.615,3.63614 -3.33786,6.04761 -5.38476,7.85547 -2.04691,1.80786 -5.52839,3.05258 -9.31446,4.23437 -3.78606,1.18179 -8.31014,2.43828 -12.11914,3.66211 -3.809,1.22383 -7.22074,2.50294 -9.15039,3.22656 -1.92966,0.72362 -2.37804,0.89186 -3.32617,-1.07421 -0.94813,-1.96608 -2.39443,-6.06616 -2.85156,-8.28907 -0.45712,-2.22291 0.0743,-2.56916 8.56055,-8.99023 8.48629,-6.42107 19.84994,-15.05738 25.90429,-17.35938 3.78398,-1.43875 7.55117,-1.97887 10.62891,-1.94921 z m 12.63086,19.98828 c 0.0969,0.009 0.18439,0.0708 0.25976,0.1914 0.60302,0.96482 0.48167,5.77395 -0.18164,8.17774 -0.6633,2.4038 -1.86915,2.40479 -2.83398,2.52539 -0.96483,0.12061 -1.68703,0.36229 -2.53125,0.12109 -0.84423,-0.24121 -1.80908,-0.96534 -1.44727,-2.05078 0.36181,-1.08543 2.04909,-2.53198 3.55664,-4.69531 1.3191,-1.89292 2.49922,-4.33518 3.17774,-4.26953 z" />
    </g>
  </g>
</svg>
