<?xml version="1.0" encoding="UTF-8" standalone="no"?>
<!-- Created with Inkscape (http://www.inkscape.org/) -->

<svg
   version="1.1"
   id="svg1"
   width="793.59998"
   height="559.35999"
   viewBox="0 0 793.59998 559.35999"
   sodipodi:docname="Carrot.svg"
   inkscape:version="1.4 (86a8ad7, 2024-10-11)"
   xmlns:inkscape="http://www.inkscape.org/namespaces/inkscape"
   xmlns:sodipodi="http://sodipodi.sourceforge.net/DTD/sodipodi-0.dtd"
   xmlns="http://www.w3.org/2000/svg"
   xmlns:svg="http://www.w3.org/2000/svg">
  <defs
     id="defs1">
    <inkscape:path-effect
       effect="bspline"
       id="path-effect13"
       is_visible="true"
       lpeversion="1.3"
       weight="33.333333"
       steps="2"
       helper_size="0"
       apply_no_weight="true"
       apply_with_weight="true"
       only_selected="false"
       uniform="false" />
    <inkscape:path-effect
       effect="bspline"
       id="path-effect12"
       is_visible="true"
       lpeversion="1.3"
       weight="33.333333"
       steps="2"
       helper_size="0"
       apply_no_weight="true"
       apply_with_weight="true"
       only_selected="false"
       uniform="false" />
    <inkscape:path-effect
       effect="bspline"
       id="path-effect11"
       is_visible="true"
       lpeversion="1.3"
       weight="33.333333"
       steps="2"
       helper_size="0"
       apply_no_weight="true"
       apply_with_weight="true"
       only_selected="false"
       uniform="false" />
    <inkscape:path-effect
       effect="bspline"
       id="path-effect10"
       is_visible="true"
       lpeversion="1.3"
       weight="33.333333"
       steps="2"
       helper_size="0"
       apply_no_weight="true"
       apply_with_weight="true"
       only_selected="false"
       uniform="false" />
    <inkscape:path-effect
       effect="bspline"
       id="path-effect9"
       is_visible="true"
       lpeversion="1.3"
       weight="33.333333"
       steps="2"
       helper_size="0"
       apply_no_weight="true"
       apply_with_weight="true"
       only_selected="false"
       uniform="false" />
    <inkscape:path-effect
       effect="bspline"
       id="path-effect8"
       is_visible="true"
       lpeversion="1.3"
       weight="33.333333"
       steps="2"
       helper_size="0"
       apply_no_weight="true"
       apply_with_weight="true"
       only_selected="false"
       uniform="false" />
    <inkscape:path-effect
       effect="bspline"
       id="path-effect7"
       is_visible="true"
       lpeversion="1.3"
       weight="33.333333"
       steps="2"
       helper_size="0"
       apply_no_weight="true"
       apply_with_weight="true"
       only_selected="false"
       uniform="false" />
    <inkscape:path-effect
       effect="bspline"
       id="path-effect4"
       is_visible="true"
       lpeversion="1.3"
       weight="33.333333"
       steps="2"
       helper_size="0"
       apply_no_weight="true"
       apply_with_weight="true"
       only_selected="false"
       uniform="false" />
    <inkscape:path-effect
       effect="bspline"
       id="path-effect2"
       is_visible="true"
       lpeversion="1.3"
       weight="33.333333"
       steps="2"
       helper_size="0"
       apply_no_weight="true"
       apply_with_weight="true"
       only_selected="false"
       uniform="false" />
    <inkscape:path-effect
       effect="bspline"
       id="path-effect1"
       is_visible="true"
       lpeversion="1.3"
       weight="33.333333"
       steps="2"
       helper_size="0"
       apply_no_weight="true"
       apply_with_weight="true"
       only_selected="false"
       uniform="false" />
  </defs>
  <sodipodi:namedview
     id="namedview1"
     pagecolor="#ffffff"
     bordercolor="#111111"
     borderopacity="1"
     inkscape:showpageshadow="0"
     inkscape:pageopacity="0"
     inkscape:pagecheckerboard="1"
     inkscape:deskcolor="#d1d1d1"
     showgrid="false"
     inkscape:zoom="0.69096827"
     inkscape:cx="335.76071"
     inkscape:cy="123.7394"
     inkscape:window-width="1920"
     inkscape:window-height="991"
     inkscape:window-x="-9"
     inkscape:window-y="-9"
     inkscape:window-maximized="1"
     inkscape:current-layer="g1" />
  <g
     inkscape:groupmode="layer"
     inkscape:label="Image"
     id="g1"
     transform="matrix(1.2526861,0,0,1.2526861,-47.817414,-30.978079)">
    <g
       id="g2"
       transform="translate(-18.692233,-0.14877601)">
      <path
         style="fill:#d36a2a;fill-opacity:0.996078;stroke:none;stroke-width:1.89;stroke-opacity:1"
         d="m 363.23311,217.42107 c -2.93989,-1.71602 -6.33267,-2.58219 -9.58897,-3.06461 -3.2563,-0.48241 -6.37509,-0.58103 -13.4514,1.31641 -7.0763,1.89744 -1.10525,-0.20999 -5.08749,1.18841 -3.98224,1.3984 -4.70586,1.6396 -7.75389,4.36783 -3.04803,2.72823 -8.4204,7.94342 -11.65235,12.2675 -3.23195,4.32407 -4.32344,7.75697 -5.14572,10.72275 -0.82229,2.96578 -1.37535,5.46438 -1.53127,7.91972 -0.15593,2.45534 0.0853,4.86741 0.20588,7.6413 0.1206,2.77389 0.1206,5.90958 0.008,10.52133 -0.11273,4.61176 -0.39771,12.3061 -0.50429,16.51057 -0.10659,4.20446 -0.10659,6.85774 -0.3478,11.32008 -0.24121,4.46235 -0.72362,10.73372 -1.08543,15.55787 -0.36182,4.82416 -0.60302,8.20106 -0.96483,10.49253 -0.36181,2.29147 -0.84423,3.49751 -1.20604,5.18596 -0.36181,1.68845 -0.60301,3.85932 -1.18291,9.07839 -0.5799,5.21907 -1.29547,11.65923 -1.74473,16.06438 -0.44926,4.40514 -0.44926,5.12876 -0.81107,6.69661 -0.36181,1.56785 -1.08544,3.97992 -1.44725,5.66837 -0.36181,1.68845 -0.36181,2.65328 -0.48241,3.2563 -0.1206,0.60302 -0.36181,0.84423 -0.60302,2.17087 -0.24121,1.32664 -0.48241,3.73871 -0.72362,5.18596 -0.24121,1.44724 -0.48242,1.92966 -0.60302,2.77389 -0.1206,0.84422 -0.1206,2.05026 -0.36181,3.97992 -0.24121,1.92965 -0.72362,4.58294 -0.96483,9.04527 -0.24121,4.46234 -0.24121,10.73373 -0.36181,14.35184 -0.12061,3.61812 -0.36181,4.58294 -0.36181,7.59803 0,3.0151 0.2412,8.08046 0.36181,12.6634 0.1206,4.58294 0.1206,8.68346 0.2412,11.09554 0.12061,2.41207 0.36182,3.13569 0.48242,4.34173 0.12061,1.20604 0.12061,2.89449 0.36182,4.70354 0.2412,1.80906 0.72362,3.73872 1.08543,5.42717 0.36181,1.68845 0.60301,3.1357 1.08543,4.34173 0.48241,1.20604 1.20604,2.17087 3.3769,3.61812 2.17087,1.44724 5.78898,3.3769 7.95985,4.10052 2.17086,0.72363 2.89449,0.24121 3.97992,-0.36181 1.08543,-0.60301 2.53268,-1.32664 3.97992,-3.1357 1.44725,-1.80905 2.89449,-4.70354 3.8895,-6.82926 0.99502,-2.12571 1.38783,-3.10775 2.84969,-5.31516 1.46186,-2.20742 3.87394,-5.34311 6.88903,-10.04666 3.01509,-4.70354 6.6332,-10.97493 8.92467,-14.95486 2.29148,-3.97992 3.2563,-5.66837 4.73154,-7.87773 1.47524,-2.20936 3.29357,-4.70956 4.67542,-7.3721 1.38186,-2.66255 2.42068,-6.12525 3.20037,-8.88502 0.77969,-2.75977 1.98572,-7.10151 3.07116,-10.35781 1.08543,-3.2563 2.05026,-5.42716 3.3769,-9.04527 1.32664,-3.61811 3.01509,-8.68347 4.70354,-14.35185 1.68845,-5.66837 3.37691,-11.93976 4.34174,-15.19606 0.96483,-3.2563 1.20604,-3.49751 1.68845,-4.70355 0.48241,-1.20603 1.20604,-3.3769 1.80905,-5.66837 0.60302,-2.29147 1.08544,-4.70354 2.05027,-9.16588 0.96483,-4.46234 2.41207,-10.97494 3.61811,-18.33176 1.20604,-7.35683 2.17087,-15.55788 2.65329,-20.98505 0.48241,-5.42717 0.48241,-8.08045 0.36181,-13.0252 -0.12061,-4.94475 -0.36182,-12.18097 -0.48242,-18.69357 -0.12061,-6.5126 -0.12061,-12.30158 -0.12061,-15.91969 0,-3.61811 0,-5.06536 -0.91184,-7.52101 -0.91184,-2.45565 -2.73553,-5.91972 -4.55921,-9.38379 -3.82274,-3.94397 -8.98124,-9.26606 -11.92113,-10.98207 z"
         id="path1"
         inkscape:path-effect="#path-effect1"
         inkscape:original-d="m 363.68602,216.57123 c -3.3928,-0.86618 -6.78558,-1.73235 -10.17837,-2.59853 -3.11981,-0.0986 -6.2386,-0.19727 -9.35943,-0.29596 -10.90141,4.26296 -5.86307,-0.48716 -12.30158,4.34173 -0.72363,0.24121 -1.44725,0.48241 -2.17087,0.72362 -5.37244,5.21525 -10.74481,10.43044 -16.11722,15.64567 -1.09149,3.43292 -2.18298,6.86582 -3.27448,10.29876 -0.55306,2.49862 -1.10612,4.99722 -1.65919,7.49583 0.24121,2.41207 0.48242,4.82414 0.72362,7.23622 0,3.1357 0,6.27139 0,9.40709 -1.19846,6.05177 2.0026,13.87523 -0.72362,19.5378 0,2.65328 0,5.30656 0,7.95985 -0.48241,6.2714 -0.96483,12.54277 -1.44725,18.81417 -0.2412,3.37691 -0.48241,6.75381 -0.72362,10.13071 -0.48241,1.20604 -0.96482,2.41208 -1.44724,3.61812 -0.2412,2.17086 -0.48241,4.34173 -0.72362,6.5126 1.9513,8.58615 0.60258,14.95596 -2.53268,22.79409 0,0.72363 0,1.44725 0,2.17087 -0.72362,2.41208 -1.44724,4.82415 -2.17087,7.23622 0,0.96483 0,1.92966 0,2.89449 -0.2412,0.24121 -0.48241,0.48242 -0.72362,0.72363 -0.24121,2.41207 -0.48241,4.82414 -0.72362,7.23622 -0.24121,0.48241 -0.48242,0.96483 -0.72362,1.44724 0,1.20604 0,2.41208 0,3.61811 -0.48242,2.65328 -0.96483,5.30657 -1.44725,7.95985 0,6.27139 0,12.54278 0,18.81418 -0.2412,0.96483 -0.48241,1.92965 -0.72362,2.89448 0.24121,5.06536 0.48242,10.13072 0.72362,15.19607 0,4.10053 0,8.20105 0,12.30158 0.24121,0.72362 0.48242,1.44724 0.72363,2.17087 0,1.68845 0,3.3769 0,5.06535 0.48241,1.92966 0.96482,3.85932 1.44724,5.78898 0.24121,1.44724 0.48241,2.89449 0.72362,4.34173 0.72362,0.96483 1.44725,1.92966 2.17087,2.89449 3.61811,1.92966 7.23622,3.85932 10.85433,5.78898 0.72362,-0.48242 1.44725,-0.96483 2.17087,-1.44724 1.44724,-0.72363 2.89449,-1.44725 4.34173,-2.17087 1.44725,-2.89449 2.89449,-5.78898 4.34174,-8.68347 0.97306,-1.18483 1.44724,-2.13432 1.44724,-3.61811 2.41207,-3.1357 4.82415,-6.27139 7.23622,-9.40709 3.61811,-6.27139 7.23622,-12.54278 10.85434,-18.81418 0.96483,-1.68845 1.92966,-3.3769 2.89448,-5.06535 2.76908,-2.1605 4.25888,-4.89963 5.78898,-7.95985 0,-2.82932 1.18332,-6.24867 2.17087,-7.23622 1.20604,-4.34173 2.41207,-8.68347 3.61811,-13.0252 0.96483,-2.17087 1.92966,-4.34173 2.89449,-6.5126 1.68845,-5.06535 3.3769,-10.13071 5.06535,-15.19607 1.68846,-6.27139 3.37691,-12.54278 5.06536,-18.81417 0.24121,-0.24121 0.48242,-0.48242 0.72362,-0.72363 0.72363,-2.17086 1.44725,-4.34173 2.17087,-6.5126 0.48241,-2.41207 0.96483,-4.82414 1.44724,-7.23622 1.44725,-6.5126 2.89449,-13.0252 4.34174,-19.5378 0.96483,-8.20105 1.92966,-16.4021 2.89449,-24.60315 0,-2.65329 0,-5.30657 0,-7.95985 -0.24121,-7.23622 -0.48242,-14.47244 -0.72363,-21.70867 0,-5.78897 0,-11.57795 0,-17.36693 0,-1.44724 0,-2.89449 0,-4.34173 -1.82368,-3.46406 -5.47105,-10.3922 -5.47105,-10.3922 0,0 -8.57373,-9.66104 -11.46822,-11.83191 z"
         sodipodi:nodetypes="cccccccccscccccccccccccccccccccccccccccccccccccccccccccsscc"
         inkscape:label="Main carrot color" />
      <path
         style="fill:#44a84e;fill-opacity:1;stroke:none;stroke-width:1.89;stroke-opacity:1"
         d="m 344.09701,213.59397 c -0.12061,-1.20604 1.19872,-3.92202 1.97898,-5.40062 0.78027,-1.4786 1.02147,-1.71981 1.14208,-2.20222 0.1206,-0.48242 0.1206,-1.20604 0.72362,-2.77389 0.60302,-1.56784 1.80906,-3.97992 3.1357,-6.75381 1.32664,-2.77388 2.77389,-5.90958 3.85932,-7.95984 1.08543,-2.05026 1.80905,-3.01509 3.25629,-5.30656 1.44725,-2.29147 3.61812,-5.90958 5.30657,-8.80407 1.68845,-2.89449 2.89449,-5.06536 2.53267,-6.392 -0.36181,-1.32664 -2.29146,-1.80905 -4.58293,-3.2563 -2.29148,-1.44725 -4.94476,-3.85932 -6.2714,-5.30656 -1.32664,-1.44725 -1.32664,-1.92966 -1.68845,-2.89449 -0.36181,-0.96483 -1.08543,-2.41207 -1.92966,-4.70354 -0.84423,-2.29148 -1.80905,-5.42717 -2.65328,-7.71864 -0.84422,-2.29147 -1.56785,-3.73872 -2.05026,-5.06536 -0.48242,-1.32664 -0.72362,-2.53268 -1.08544,-3.37691 -0.36181,-0.84422 -0.84422,-1.32663 -1.32664,-2.29146 -0.48241,-0.96483 -0.96483,-2.41208 -1.92966,-4.82415 -0.96483,-2.41207 -2.41207,-5.78898 -3.85932,-9.04528 -1.44724,-3.2563 -2.89448,-6.39199 -3.73871,-9.8895 -0.84423,-3.49751 -1.08543,-7.35683 -1.32664,-9.768903 -0.24121,-2.412074 -0.48241,-3.376905 -0.60302,-4.944752 -0.1206,-1.567847 -0.1206,-3.738714 -0.24121,-5.306562 -0.1206,-1.567848 -0.36181,-2.532678 -0.36181,-3.497507 0,-0.96483 0.24121,-1.92966 0.96483,-5.54777 0.72363,-3.618111 1.92966,-9.889504 4.10053,-15.678481 2.17086,-5.788976 5.30656,-11.095541 7.47743,-14.35184 2.17086,-3.256299 3.3769,-4.462338 4.34173,-5.185961 0.96483,-0.723623 1.68845,-0.964831 2.41207,-1.447247 0.72363,-0.482417 1.44725,-1.206037 2.77389,-2.050262 1.32664,-0.844225 3.2563,-1.809055 5.18596,-2.412073 1.92966,-0.603019 3.85932,-0.844226 4.94475,-0.844228 1.08543,-10e-7 1.32664,0.241207 3.85932,-0.844226 2.53268,-1.085433 7.35683,-3.497508 10.13071,-4.703544 2.77389,-1.206036 3.49751,-1.206036 5.66837,-1.567847 2.17087,-0.361811 5.78898,-1.085433 11.45736,-1.085433 5.66837,0 13.38701,0.723622 17.48754,1.32664 4.10052,0.603017 4.58294,1.085436 5.78897,1.688453 1.20604,0.603018 3.1357,1.32664 4.58295,2.050262 1.44724,0.723623 2.41207,1.447245 2.89449,2.412074 0.48241,0.96483 0.48241,2.170867 0.84422,3.738715 0.36181,1.567849 1.08543,3.497508 2.65328,6.753809 1.56785,3.2563 3.97992,7.839238 5.54777,10.130709 1.56785,2.291471 2.29147,2.291471 2.65328,2.170867 0.36181,-0.120603 0.36181,-0.36181 0.96483,-1.085433 0.60302,-0.723624 1.80906,-1.929662 2.65328,-2.532679 0.84423,-0.603017 1.32664,-0.603017 2.05026,-0.964828 0.72363,-0.361811 1.68846,-1.085433 3.1357,-1.567848 1.44725,-0.482415 3.37691,-0.723623 4.22113,-0.120604 0.84423,0.603019 0.60302,2.050263 0.36181,3.979922 -0.24121,1.929659 -0.48241,4.341734 -0.84422,6.030185 -0.36181,1.688452 -0.84423,2.653283 -1.08543,3.376905 -0.24121,0.723622 -0.24121,1.206036 -0.96483,2.412074 -0.72363,1.206038 -2.17087,3.135694 -3.49751,6.030183 -1.32665,2.894489 -2.53268,6.753808 -3.0151,9.648298 -0.48241,2.894489 -0.24121,4.824149 -0.24121,6.391996 0,1.567848 -0.2412,2.773885 -0.2412,3.497509 0,0.723623 0.24121,0.964832 0.24121,1.809056 -10e-6,0.844224 -0.24121,2.291468 -0.36182,3.979921 -0.1206,1.68845 -0.1206,3.61811 -0.72362,6.75381 -0.60302,3.13569 -1.80905,7.47743 -2.41207,10.0101 -0.60302,2.53268 -0.60302,3.2563 -0.96483,4.58294 -0.36181,1.32665 -1.08544,3.25631 -1.44725,4.70355 -0.36181,1.44724 -0.36181,2.41207 -1.08543,4.58294 -0.72362,2.17087 -2.17087,5.54777 -3.61811,8.08045 -1.44724,2.53268 -2.89449,4.22113 -4.70354,6.87441 -1.80906,2.65328 -3.97993,6.27139 -6.5126,9.6483 -2.53268,3.3769 -5.42717,6.5126 -7.95985,9.04527 -2.53268,2.53268 -4.70354,4.46234 -6.27139,5.66838 -1.56785,1.20604 -2.53268,1.68845 -3.1357,2.17087 -0.60302,0.48241 -0.84422,0.96483 -1.56785,1.68845 -0.72362,0.72362 -1.92966,1.68845 -2.65328,2.65328 -0.72362,0.96483 -0.96482,1.92966 -1.44724,2.65328 -0.48242,0.72363 -1.20604,1.20604 -1.68845,2.65328 -0.48242,1.44725 -0.72362,3.85932 -0.84423,5.42717 -0.1206,1.56785 -0.1206,2.29147 -0.96483,3.61811 -0.84423,1.32664 -2.53268,3.2563 -3.3769,4.34174 -0.84423,1.08543 -0.84423,1.32663 -1.08544,1.56784 -0.2412,0.24121 -0.72362,0.48242 -0.96483,0.84423 -0.2412,0.36181 -0.2412,0.84422 -2.89448,3.3769 -2.65329,2.53268 -7.95985,7.11562 -11.33675,9.7689 -3.37691,2.65328 -4.82415,3.37691 -5.90959,3.73872 -1.08543,0.36181 -1.80905,0.36181 -2.29146,0.48241 -0.48242,0.1206 -0.72363,0.36181 -1.20604,0.48242 -0.48242,0.1206 -1.20604,0.1206 -1.95307,-0.064 -0.74703,-0.18457 -1.51746,-0.55369 -2.87212,-1.02607 -1.35466,-0.47239 -3.29351,-1.04802 -5.44096,-1.34588 -2.14746,-0.29785 -4.50352,-0.31791 -6.46181,-0.17599 -1.9583,0.14192 -3.51883,0.44584 -3.63943,-0.7602 z"
         id="path2"
         inkscape:path-effect="#path-effect2"
         inkscape:original-d="m 342.65708,215.10392 c 1.31932,-2.71599 2.63865,-5.43197 3.95797,-8.14796 0.24121,-0.24121 0.48241,-0.48242 0.72362,-0.72362 0,-0.72363 0,-1.44725 0,-2.17087 1.20604,-2.41207 2.41208,-4.82415 3.61811,-7.23622 1.44725,-3.1357 2.89449,-6.2714 4.34174,-9.40709 0.72362,-0.96483 1.44724,-1.92966 2.17086,-2.89449 2.17087,-3.61811 4.34174,-7.23622 6.5126,-10.85433 1.20604,-2.17087 2.41208,-4.34174 3.61811,-6.5126 -1.92966,-0.48242 -3.85931,-0.96483 -5.78897,-1.44725 -2.65329,-2.41207 -5.30657,-4.82415 -7.95985,-7.23622 0,-0.48242 0,-0.96483 0,-1.44725 -0.72362,-1.44724 -1.44724,-2.89448 -2.17087,-4.34173 -0.96482,-3.1357 -1.92965,-6.27139 -2.89448,-9.40709 -0.72363,-1.44724 -1.44725,-2.89449 -2.17087,-4.34173 -0.24121,-1.20604 -0.48242,-2.41208 -0.72362,-3.61811 -0.48242,-0.48242 -0.96483,-0.96483 -1.44725,-1.44725 -0.48241,-1.44724 -0.96483,-2.89449 -1.44724,-4.34173 -1.44725,-3.3769 -2.89449,-6.75381 -4.34174,-10.13071 -1.44724,-3.1357 -2.89448,-6.27139 -4.34173,-9.40709 -0.24121,-3.85932 -0.48241,-7.71864 -0.72362,-11.577956 -0.24121,-0.96483 -0.48242,-1.92966 -0.72362,-2.894489 0,-2.170867 0,-4.341734 0,-6.5126 -0.24121,-0.96483 -0.48242,-1.92966 -0.72363,-2.894489 0.24121,-0.96483 0.48242,-1.92966 0.72363,-2.894489 1.20603,-6.271393 2.41207,-12.542786 3.61811,-18.814178 3.13569,-5.306563 6.27139,-10.613126 9.40709,-15.919689 1.20603,-1.206038 2.41207,-2.412075 3.61811,-3.618112 0.72362,-0.241207 1.44724,-0.482414 2.17086,-0.723622 0.72363,-0.723622 1.44725,-1.447244 2.17087,-2.170867 1.92966,-0.964829 3.85932,-1.929659 5.78898,-2.894488 1.92966,-0.241208 3.85932,-0.482415 5.78898,-0.723623 0.2412,0.241208 0.48241,0.482415 0.72362,0.723623 4.82415,-2.412075 9.6483,-4.824149 14.47244,-7.236223 0.72363,0 1.44725,0 2.17087,0 3.61811,-0.723622 7.23622,-1.447244 10.85433,-2.170866 7.71864,0.723622 15.43728,1.447244 23.15592,2.170866 0.48241,0.482415 0.96483,0.96483 1.44724,1.447245 1.92966,0.723622 3.85932,1.447244 5.78898,2.170866 0.96483,0.723623 1.92966,1.447245 2.89449,2.170867 0,1.206037 0,2.412074 0,3.618111 0.72362,1.92966 1.44724,3.859319 2.17086,5.788978 2.41208,4.582941 4.82415,9.165882 7.23623,13.748822 0.72362,0 1.44724,0 2.17086,0 0,-0.241207 0,-0.482414 0,-0.723622 1.20604,-1.206037 2.41208,-2.412074 3.61811,-3.618111 0.48242,0 0.96483,0 1.44725,0 0.96483,-0.723622 1.92966,-1.447244 2.89449,-2.170867 1.92966,-0.241207 3.85932,-0.482414 5.78898,-0.723622 -0.24121,1.447245 -0.48242,2.894489 -0.72363,4.341734 -0.2412,2.412074 -0.48241,4.824148 -0.72362,7.236222 -0.48241,0.96483 -0.96483,1.929659 -1.44724,2.894489 0,0.482415 0,0.964829 0,1.447244 -1.44725,1.92966 -2.89449,3.859319 -4.34174,5.788978 -1.20603,3.859319 -2.41207,7.718637 -3.61811,11.577956 0.24121,1.929659 0.48242,3.859318 0.72362,5.788978 -0.2412,1.206037 -0.48241,2.412074 -0.72362,3.618111 0.24121,0.241207 0.48242,0.482415 0.72362,0.723622 -0.2412,1.447245 -0.48241,2.894489 -0.72362,4.341731 0,1.92966 0,3.85932 0,5.78898 -1.20604,4.34173 -2.41207,8.68347 -3.61811,13.0252 0,0.72362 0,1.44724 0,2.17087 -0.72362,1.92966 -1.44724,3.85932 -2.17087,5.78898 0,0.96482 0,1.92965 0,2.89448 -1.44724,3.37691 -2.89449,6.75381 -4.34173,10.13072 -1.44724,1.68845 -2.89449,3.3769 -4.34173,5.06535 -2.17087,3.61811 -4.34174,7.23622 -6.5126,10.85433 -2.89449,3.1357 -5.78898,6.2714 -8.68347,9.40709 -2.17087,1.92966 -4.34173,3.85932 -6.5126,5.78898 -0.96483,0.48242 -1.92966,0.96483 -2.89449,1.44725 -0.24121,0.48241 -0.48241,0.96483 -0.72362,1.44724 -1.20604,0.96483 -2.41208,1.92966 -3.61811,2.89449 -0.24121,0.96483 -0.48242,1.92966 -0.72362,2.89449 -0.72363,0.48241 -1.44725,0.96483 -2.17087,1.44724 -0.24121,2.41208 -0.48242,4.82415 -0.72362,7.23622 0,0.72363 0,1.44725 0,2.17087 -1.68846,1.92966 -3.37691,3.85932 -5.06536,5.78898 0,0.24121 0,0.48241 0,0.72362 -0.48241,0.24121 -0.96483,0.48242 -1.44724,0.72362 0,0.48242 0,0.96483 0,1.44725 -5.30657,4.58294 -10.61313,9.16588 -15.91969,13.74882 -1.44725,0.72362 -2.89449,1.44725 -4.34174,2.17087 -0.72362,0 -1.44724,0 -2.17086,0 -0.24121,0.2412 -0.48242,0.48241 -0.72363,0.72362 -0.72362,0 -1.44724,0 -2.17086,0 -0.77044,-0.36913 -1.54087,-0.73825 -2.31132,-1.10738 -1.93887,-0.57564 -3.87772,-1.15127 -5.81657,-1.72691 -2.35606,-0.0201 -4.71212,-0.0401 -7.06818,-0.0602 -1.56053,0.30391 -3.12106,0.60782 -4.68159,0.91174 z"
         inkscape:label="Main leaves color"
         sodipodi:nodetypes="ccccccccccccccccccccccccccccccccccccccccccccccccccccccccccccccccccccccccccccccccccccccccc" />
      <path
         style="fill:#c15d20;fill-opacity:1;stroke:none;stroke-width:1.89;stroke-opacity:1"
         d="m 302.64967,458.97146 c -0.24656,-2.51862 1.24483,-6.44493 2.46428,-9.35013 1.21946,-2.90521 2.18429,-4.83486 3.26972,-7.24694 1.08544,-2.41207 2.29147,-5.30656 3.37691,-7.11562 1.08543,-1.80905 2.05026,-2.53268 3.13569,-3.61811 1.08543,-1.08543 2.29147,-2.53267 3.61811,-4.82415 1.32665,-2.29147 2.77389,-5.42716 1.20604,-7.23622 -1.56785,-1.80905 -6.15079,-2.29147 -7.71332,-4.96246 -1.56254,-2.67099 -0.11917,-7.48222 2.04833,-9.40063 2.16749,-1.91841 5.06197,-0.95358 7.59465,-0.71237 2.53268,0.24121 4.70355,-0.24121 7.83925,-1.56785 3.13569,-1.32664 7.23622,-3.49751 10.73373,-10.01011 3.4975,-6.5126 0.60301,4.34174 1.32663,-1.44724 0.72363,-5.78898 -0.72362,-6.5126 -2.90286,-7.21032 -2.17924,-0.69772 -6.09023,-1.60026 -8.82992,-2.62215 -2.7397,-1.02188 -5.63417,-2.46912 -5.87538,-5.00178 -0.2412,-2.53266 2.17089,-6.1508 6.63322,-7.95986 4.46234,-1.80905 10.97494,-1.80905 14.71366,-1.80905 3.73871,0 4.70354,0 5.54776,-0.24121 0.84423,-0.2412 1.56786,-0.72362 2.17088,-0.96482 0.60301,-0.24121 1.08543,-0.24121 2.05026,-0.84423 0.96483,-0.60302 2.41207,-1.80905 3.3769,-4.46234 0.96483,-2.65328 1.44725,-6.75381 0.96483,-9.16588 -0.48241,-2.41207 -1.92966,-3.1357 -2.89449,-3.37691 -0.96483,-0.2412 -1.44724,0 -4.22113,-0.1206 -2.77388,-0.1206 -7.83924,-0.60302 -10.97494,-1.08543 -3.13569,-0.48242 -4.34173,-0.96484 -6.28024,-1.57027 -1.93851,-0.60543 -4.59684,-1.33042 -5.7915,-3.13638 -1.19466,-1.80595 -0.95346,-4.70044 0.49379,-6.14769 1.44724,-1.44724 4.10053,-1.44724 6.75381,-1.32664 2.65328,0.12061 5.30656,0.36181 8.08045,0.12061 2.77388,-0.24121 5.66837,-0.96483 9.40709,-1.32664 3.73871,-0.36181 8.32165,-0.36181 11.90961,-0.26382 3.58796,0.098 6.18094,0.29397 7.10808,1.6583 0.92714,1.36433 0.18851,3.89679 -1.46818,9.32779 -1.65669,5.43099 -9.02975,29.28339 -11.19414,36.11486 -2.16438,6.83147 -4.3176,13.45677 -5.76614,17.90047 -1.44854,4.4437 -2.18723,6.68994 -3.39327,9.34322 -1.20604,2.65328 -2.96163,5.86397 -4.41568,8.37855 -1.45405,2.51458 -2.75297,4.6048 -4.68549,7.85616 -1.93253,3.25136 -5.01778,8.55917 -6.99848,11.88118 -1.9807,3.322 -3.20182,5.25166 -4.54354,6.93257 -1.34171,1.68091 -2.80403,3.11308 -3.65579,4.31158 -0.85177,1.1985 -1.09297,2.16332 -1.45478,3.00755 -0.36181,0.84423 -0.84422,1.56785 -1.08543,2.17087 -0.24121,0.60303 -0.24121,1.08544 -0.72363,1.92967 -0.48242,0.84423 -1.44724,2.05026 -1.92965,2.89449 -0.48242,0.84422 -0.48242,1.32663 -1.32664,2.53267 -0.84423,1.20603 -2.53268,3.13569 -4.11856,4.38352 -1.58589,1.24783 -3.0692,1.81383 -4.36488,1.87446 -1.29568,0.0606 -2.40372,-0.38409 -3.21403,-0.73837 -0.8103,-0.35427 -1.32287,-0.61809 -2.55906,-1.33794 -1.23618,-0.71986 -3.19598,-1.89574 -3.44253,-4.41436 z"
         id="path7"
         inkscape:path-effect="#path-effect8"
         inkscape:original-d="m 300.9364,460.31419 c 1.85951,-3.71215 3.03567,-7.75819 4.43218,-11.66841 0.96483,-1.92966 1.92966,-3.85931 2.89449,-5.78897 1.20604,-2.89449 2.41207,-5.78898 3.61811,-8.68347 0.96483,-0.72362 1.92966,-1.44725 2.89449,-2.17087 1.20603,-1.44724 2.41207,-2.89448 3.61811,-4.34173 1.44725,-3.1357 2.89449,-6.27139 4.34174,-9.40709 -4.58295,-0.48241 -9.16589,-0.96483 -13.74883,-1.44724 1.28305,-4.91202 2.06616,-9.92133 4.34174,-14.47245 2.89449,0.96483 5.78897,1.92966 8.68346,2.89449 2.17087,-0.48241 4.34174,-0.96483 6.5126,-1.44724 4.10053,-2.17087 8.20106,-4.34174 12.30158,-6.5126 2.34193,-11.70957 -0.81275,5.82841 2.89449,-10.85434 -1.44724,-0.72362 -2.89449,-1.44724 -4.34173,-2.17086 -2.8158,-1.08538 -7.19505,0.0412 -9.40709,-2.17087 -2.89453,-1.44726 -5.789,-2.8945 -8.68347,-4.34173 2.41206,-3.61809 4.82415,-7.23623 7.23622,-10.85434 6.5126,0 13.0252,0 19.5378,0 0.96483,0 1.92966,0 2.89449,0 0.72362,-0.48241 1.44725,-0.96483 2.17087,-1.44724 0.48241,0 0.96483,0 1.44724,0 1.44725,-1.20604 2.89449,-2.41208 4.34174,-3.61811 0.48241,-4.10053 0.96483,-8.20106 1.44724,-12.30158 -1.44724,-0.72362 -2.89449,-1.44725 -4.34173,-2.17087 -0.48242,0.24121 -0.96483,0.48242 -1.44725,0.72362 -5.06535,-0.48241 -10.13071,-0.96483 -15.19606,-1.44724 -1.20604,-0.48242 -2.41208,-0.96483 -3.61811,-1.44725 -2.68712,-0.66929 -5.4728,-0.92734 -7.95985,-2.17086 0.24121,-2.89449 0.48242,-5.78898 0.72362,-8.68347 2.65328,0 5.30657,0 7.95985,0 2.65328,0.24121 5.30656,0.48242 7.95984,0.72362 2.89449,-0.72362 5.78898,-1.44724 8.68347,-2.17086 4.58294,0 9.16588,0 13.74882,0 2.59298,0.19598 5.18596,0.39196 7.77894,0.58794 -0.7387,2.53268 -1.47733,5.06514 -2.21609,7.59803 2.39654,9.86575 -5.98008,33.40793 -12.12067,39.21128 -2.15578,6.63316 -4.309,13.25846 -6.46738,19.89961 -0.7387,2.24625 -1.4774,4.49249 -2.21609,6.73873 -1.67338,3.06032 -3.42897,6.27101 -5.02013,9.18096 -1.67105,1.89915 -2.79008,4.10116 -3.9347,6.3317 -0.27268,5.70198 -4.82122,10.15923 -8.37175,14.40261 -1.22111,1.92966 -2.44223,3.85932 -3.66334,5.78897 -1.46232,1.43217 -2.92464,2.86434 -4.38696,4.29651 -0.24121,0.96483 -0.48241,1.92965 -0.72362,2.89449 -0.48241,0.72362 -0.96482,1.44724 -1.44724,2.17087 0,0.48242 0,0.96483 0,1.44725 -0.96484,1.20604 -1.92966,2.41207 -2.89449,3.61811 0,0.48241 0,0.96482 0,1.44724 -1.68845,1.92965 -3.3769,3.85931 -5.06536,5.78898 -1.48331,0.56599 -2.96662,1.13199 -4.44993,1.69798 -1.10805,-0.44472 -2.21609,-0.88945 -3.32414,-1.33418 -0.51256,-0.26382 -1.02513,-0.52764 -1.53769,-0.79146 -1.95981,-1.17589 -3.91961,-2.35177 -5.87943,-3.52766 z"
         inkscape:label="Carrot shadow 1"
         sodipodi:nodetypes="cccccccccccccccccsccccccccccccccsccccccccccccccccsccc" />
      <path
         style="fill:#c15d20;fill-opacity:1;stroke:none;stroke-width:1.89;stroke-opacity:1"
         d="m 305.73039,323.86618 c 5.42717,0.10553 10.85432,0.21105 15.25636,0.0226 4.40205,-0.18844 7.77895,-0.67086 10.2798,-1.18286 2.50084,-0.51201 5.24105,-1.42541 8.30055,-2.53098 3.0595,-1.10557 4.64641,-1.78568 6.49989,-2.77931 1.85349,-0.99364 3.83188,-2.23013 5.33504,-3.31575 1.50317,-1.08562 2.93165,-2.31931 2.44923,-3.16354 -0.48241,-0.84423 -2.77387,-1.38694 -4.52262,-1.5377 -1.74876,-0.15075 -2.9548,0.0905 -4.64325,0.57287 -1.68845,0.48242 -3.85932,1.20604 -7.58844,1.45291 -3.72912,0.24686 -9.99631,-0.0256 -15.20527,-0.14378 -5.20896,-0.11816 -10.53813,-0.13322 -13.25172,1.98489 -2.71359,2.11811 -2.81158,6.36939 -2.86058,8.49502 -0.049,2.12564 -0.049,2.12563 -0.049,2.12562 z"
         id="path8"
         inkscape:path-effect="#path-effect9"
         inkscape:original-d="m 305.73039,323.86618 c 0,0 10.85432,0.21105 16.2815,0.31658 3.37691,-0.48241 6.75381,-0.96483 10.13071,-1.44724 1.35448,-1.35254 4.18505,-1.99484 8.68347,-2.89449 1.68148,-1.04943 3.07925,-2.17087 5.06536,-2.17087 1.92961,-1.42726 3.31153,-3.61811 5.78897,-3.61811 1.2248,-1.05778 2.65328,-2.29147 3.97992,-3.43721 -2.29147,-0.54272 -4.58293,-1.08543 -6.8744,-1.62815 -1.20604,0.24121 -2.41208,0.48242 -3.61812,0.72363 -2.17086,0.72362 -4.34173,1.44724 -6.5126,2.17086 -5.28389,-0.30999 -11.65342,1.77131 -16.64331,-0.72362 -5.32917,-0.0151 -10.65834,-0.0301 -15.98753,-0.0452 -0.098,4.25129 -0.19598,8.50257 -0.29397,12.75385 0,-1e-5 0,-3e-5 0,-3e-5 z"
         inkscape:label="Carrot shadow 2"
         sodipodi:nodetypes="cccccccccccccc" />
      <path
         style="fill:#c15d20;fill-opacity:1;stroke:none;stroke-width:1.89;stroke-opacity:1"
         d="m 354.21308,262.79547 c -1.08543,0.60302 -1.08543,0.60302 -1.92966,1.68845 -0.84422,1.08544 -2.53268,3.2563 -3.49751,6.15079 -0.96483,2.89449 -1.20603,6.5126 -0.72362,8.44226 0.48242,1.92967 1.68846,2.17087 5.66838,1.92967 3.97992,-0.24121 10.73373,-0.96484 14.83426,-1.32665 4.10052,-0.36181 5.54776,-0.36181 6.7538,-0.48241 1.20604,-0.12061 2.17087,-0.36181 2.89449,-0.72362 0.72362,-0.36182 1.20604,-0.84423 1.66584,-1.20605 0.4598,-0.36181 0.89699,-0.60301 1.1382,-2.05026 0.24121,-1.44724 0.28643,-4.10052 0.23367,-7.16084 -0.0528,-3.06032 -0.20352,-6.52767 -1.40956,-8.33673 -1.20604,-1.80906 -3.46735,-1.95982 -5.44224,-2.03519 -1.97489,-0.0754 -3.66334,-0.0754 -6.07542,0.28643 -2.41207,0.36181 -5.54776,1.08544 -8.20105,2.05027 -2.65328,0.96483 -4.82414,2.17086 -5.90958,2.77388 z"
         id="path9"
         inkscape:path-effect="#path-effect10"
         inkscape:original-d="m 353.12765,263.39849 v 0 c -1.68845,2.17087 -3.3769,4.34174 -5.06536,6.5126 -0.2412,3.61811 -0.48241,7.23622 -0.72362,10.85434 1.20604,0.2412 2.41208,0.48241 3.61811,0.72362 6.75381,-0.72362 13.50762,-1.44725 20.26143,-2.17087 1.44724,0 2.89448,0 4.34173,0 0.96483,-0.24121 1.92966,-0.48241 2.89449,-0.72362 0.48241,-0.48242 0.96483,-0.96483 1.44724,-1.44725 0.43719,-0.24121 0.87438,-0.48241 1.31157,-0.72362 0.0452,-2.65328 0.0905,-5.30656 0.13568,-7.95984 -0.15075,-3.46736 -0.30151,-6.93471 -0.45226,-10.40208 -2.26133,-0.15075 -4.52264,-0.30151 -6.78397,-0.45226 -1.68845,0 -3.3769,0 -5.06535,0 -3.1357,0.72363 -6.27139,1.44725 -9.40709,2.17087 -2.17087,1.20604 -4.34173,2.41208 -6.5126,3.61811 z"
         inkscape:label="Carrot shadow 3"
         sodipodi:nodetypes="ccccccccccccsccc" />
      <path
         style="fill:#369e40;fill-opacity:0.996078;stroke:none;stroke-width:1.89;stroke-opacity:1"
         d="m 353.45237,210.35837 c 1.35381,-1.44443 4.0026,-4.27049 5.64167,-6.17271 1.63908,-1.90222 2.15076,-2.75501 2.6198,-3.43725 0.46904,-0.68224 0.89544,-1.19392 2.85688,-3.88024 1.96144,-2.68632 5.45786,-7.5472 7.85589,-10.62747 2.39802,-3.08026 3.66168,-4.34392 4.72526,-5.57807 1.06359,-1.23415 1.91638,-2.42806 2.59862,-3.36614 0.68224,-0.93807 1.19392,-1.62031 1.70558,-2.65017 0.51166,-1.02986 1.80916,-4.52313 2.90486,-7.61905 1.0957,-3.09592 1.78503,-5.25009 2.38224,-6.99912 0.59722,-1.74903 1.1089,-3.11351 1.45001,-4.17951 0.34112,-1.06599 0.51168,-1.83351 0.93827,-3.02787 0.42659,-1.19437 1.10918,-2.81552 1.70301,-4.29968 0.59383,-1.48416 1.11008,-2.86082 1.49431,-3.97073 0.38424,-1.10991 0.64008,-1.96271 1.15176,-2.90078 0.51168,-0.93808 1.27919,-1.96143 1.75317,-2.78888 0.47398,-0.82745 0.64194,-1.41531 1.75174,-4.04506 1.1098,-2.62975 3.16612,-7.31777 1.83955,-8.27181 -1.32656,-0.95404 -6.03601,1.8259 -8.04873,2.23383 -2.01272,0.40792 -1.34028,-1.52294 -0.13269,-4.21525 1.20758,-2.69232 2.86497,-5.95711 3.88399,-8.22617 1.01902,-2.26906 1.35913,-3.45946 1.81919,-5.78078 0.46006,-2.32131 0.44706,-2.2439 1.19307,-6.78239 0.746,-4.538487 1.05691,-6.541139 3.10224,-7.795648 2.04533,-1.254509 5.27754,-1.283716 7.41541,-1.897296 2.13788,-0.613579 2.73483,-1.807497 3.45971,-3.299891 0.72488,-1.492393 1.57767,-3.283269 2.38596,-5.02734 0.80829,-1.744072 1.5795,-3.457877 3.3704,-5.888403 1.7909,-2.430527 4.60513,-5.585876 6.31072,-7.504667 1.70559,-1.918792 2.30255,-2.601031 2.85687,-3.155351 0.55432,-0.55432 1.066,-0.98072 2.08935,-1.918796 1.02336,-0.938076 2.55839,-2.387827 3.92287,-3.453823 1.36447,-1.065995 2.55839,-1.748234 3.53911,-2.131993 0.98071,-0.383759 1.74823,-0.46904 2.25991,-0.59696 0.51168,-0.127921 0.76752,-0.298482 1.67298,-1.827769 0.90545,-1.529287 -0.18994,0.505018 2.09209,-1.206501 2.28202,-1.711519 1.94867,-1.613474 4.26879,-2.440885 2.32012,-0.82741 3.11646,-1.134022 3.99358,0.699219 0.87711,1.83324 0.89416,1.517252 -1.29733,9.260082 -2.19148,7.742831 0.58824,-0.15074 -1.36393,4.634207 -1.95217,4.784948 -1.9575,4.7929 -2.60343,6.486012 -0.64593,1.693111 -3.31736,11.043101 -3.37194,12.886897 -0.0546,1.843797 0.0204,4.91706 -0.15824,8.778779 -0.17862,3.861717 -0.5975,8.385627 -1.24346,12.063797 -0.64596,3.67817 -1.50941,6.40711 -2.35598,9.5019 -0.84657,3.09478 -1.62683,6.34929 -2.50158,9.11619 -0.87476,2.76691 -1.8235,4.92315 -3.19792,7.58392 -1.37441,2.66078 -3.11828,5.73332 -4.69807,8.57539 -1.5798,2.84207 -2.92295,5.32585 -4.85457,8.16787 -1.93162,2.84203 -4.19656,5.71831 -6.12666,7.99935 -1.93011,2.28104 -3.34788,3.74145 -4.42454,4.69552 -1.07666,0.95407 -1.81219,1.40178 -4.2972,3.47045 -2.48502,2.06866 -3.50515,2.95752 -6.29066,5.84433 -2.78552,2.8868 -4.24015,4.78302 -5.29548,7.29877 -1.05534,2.51575 -1.37514,5.21272 -1.75116,6.95022 -0.37601,1.7375 -0.78934,2.48149 -1.98687,3.9804 -1.19754,1.4989 -3.15897,3.71617 -6.20906,6.69886 -3.05009,2.98268 -7.26875,6.80315 -10.54136,9.692 -3.27261,2.88885 -5.63929,4.88241 -7.78178,5.88971 -2.1425,1.0073 -4.06066,1.02863 -6.66274,0.18083 -2.60208,-0.8478 -5.88403,-2.56337 -7.52566,-3.42149 -1.64163,-0.85813 -1.64163,-0.85817 -0.28782,-2.30259 z"
         id="path10"
         inkscape:path-effect="#path-effect11"
         inkscape:original-d="m 352.09856,211.80279 c 2.70762,-2.88885 5.35641,-5.71491 8.12288,-8.66655 0.51168,-0.8528 1.02336,-1.70559 1.53504,-2.55839 0.4264,-0.51168 0.8528,-1.02336 1.27919,-1.53503 3.46306,-4.88501 6.97744,-9.73298 10.48941,-14.58283 1.39588,-1.20322 2.38116,-2.74526 3.83758,-3.83759 0.8528,-1.19392 1.7056,-2.38783 2.55839,-3.58175 0.51168,-0.68223 1.02336,-1.36447 1.53504,-2.04671 0,-1.56752 2.26287,-4.70222 3.32591,-8.95437 1.10875,-1.9693 1.43678,-4.23909 2.04671,-6.39598 0.51168,-1.36447 1.02336,-2.72895 1.53503,-4.09342 0.17056,-0.76752 0.34112,-1.53504 0.51168,-2.30255 0.66941,-1.62678 1.24829,-3.2916 2.04672,-4.86095 0.19167,-1.46767 0.92949,-2.76124 1.53503,-4.09342 0.25584,-0.8528 0.51168,-1.7056 0.76752,-2.55839 0.76751,-1.02336 1.53503,-2.04671 2.30255,-3.07007 -0.002,-0.68367 0.25831,-1.24514 0.51168,-1.79087 2.05632,-4.68803 4.11264,-9.37605 6.16896,-14.06408 -4.70945,2.77995 -9.4189,5.55989 -14.12835,8.33984 0.68401,-1.9641 1.35645,-3.89496 2.05204,-5.89229 1.71958,-3.3873 3.37696,-6.65209 5.07289,-9.99279 0.34211,-1.19742 0.68223,-2.38782 1.02335,-3.58174 -0.0978,-3.56234 0.84122,-3.32509 1.66594,-9.92286 0.39207,-2.525417 0.70299,-4.528068 1.08731,-7.003596 3.7184,1.301849 6.94853,1.042653 10.61733,-0.09594 0.59696,-1.193916 1.19392,-2.387832 1.79087,-3.581748 0.8528,-1.790873 1.7056,-3.581747 2.55839,-5.372621 0.52025,-1.806859 1.46537,-3.442406 2.30256,-5.116781 2.81423,-3.155349 5.62846,-6.310698 8.44269,-9.466047 0.59695,-0.682237 1.19391,-1.364475 1.79087,-2.046713 0.51168,-0.426398 1.02336,-0.852797 1.53503,-1.279195 1.53504,-1.449755 3.07007,-2.89951 4.60511,-4.349265 1.19391,-0.682237 2.38783,-1.364475 3.58175,-2.046712 0.76751,-0.08528 1.53503,-0.17056 2.30255,-0.25584 0.25584,-0.170559 0.51168,-0.341118 0.76751,-0.511678 1.55509,-2.888015 0.45969,-0.853714 1.79087,-3.325908 3.23287,-0.950844 2.89952,-0.852797 4.34927,-1.279195 3.19049,-1.228422 3.98683,-1.535035 5.98024,-2.302552 -0.23918,4.433997 -0.22213,4.118009 -0.41574,7.707153 -4.18936,11.896517 -1.40964,4.002945 -4.18936,11.896517 -1.12462,1.676324 -1.12996,1.684273 -1.69493,2.526411 -0.59575,2.581555 -3.3704,11.902052 -3.58175,12.536115 0.0743,3.045555 0.14923,6.118819 0.22385,9.178229 0.37338,4.738586 -0.51317,9.219196 -1.27919,13.815316 -0.86346,2.72896 -1.72692,5.4579 -2.59037,8.18685 -0.19115,3.61371 -1.0239,6.85563 -2.43047,10.13762 -0.83575,2.15234 -1.86981,4.27104 -2.81423,6.39598 -1.15008,3.56899 -3.20514,6.46491 -5.37262,9.46604 -1.34316,2.48377 -2.68631,4.96755 -4.02947,7.45132 -3.1183,2.72921 -5.54543,5.47777 -7.22745,9.17823 -1.41778,1.46041 -2.83555,2.92082 -4.25333,4.38124 -0.73554,0.44772 -1.47107,0.89543 -2.20661,1.34315 -4.23449,3.68961 -5.25462,4.57847 -8.69853,7.57923 -2.12712,2.77285 -3.58175,4.66907 -5.37262,7.0036 -0.3198,2.69697 -0.6396,5.39394 -0.9594,8.09091 -0.62802,0.66926 -0.9449,1.46683 -1.27919,2.30256 -1.96144,2.21727 -3.92287,4.43454 -5.8843,6.65181 -4.13875,3.7481 -8.35741,7.56857 -12.53612,11.35286 -2.36651,1.99341 -4.73319,3.98697 -7.09953,5.98024 -1.91865,0.0213 -3.83681,0.0426 -5.75638,0.064 -3.28459,-1.71694 -6.56654,-3.4325 -9.8498,-5.14876 z"
         inkscape:label="Leaves shadow 1"
         sodipodi:nodetypes="cccccccccccccccccccccccccccccccccccccccccccccccccccccccccccccc" />
      <path
         style="fill:#369e3f;fill-opacity:1;stroke:none;stroke-width:1.89;stroke-opacity:1"
         d="m 372.75731,120.07416 c -0.68249,0.34147 -1.36421,1.27884 -2.38758,1.74788 -1.02336,0.46905 -2.38783,0.46905 -3.52547,-2.18053 -1.13763,-2.64958 -2.09197,-8.2021 -2.52388,-11.04839 -0.43191,-2.8463 -0.34663,-3.01685 -0.34663,-3.35797 0,-0.34112 -0.0853,-0.8528 0.94069,-6.384886 1.02597,-5.532086 2.06045,-10.639859 2.69187,-13.682887 0.63143,-3.043029 0.97254,-4.578061 1.18574,-5.64406 0.2132,-1.065998 0.29848,-1.662953 0.38376,-2.046716 0.0853,-0.383762 0.17056,-0.554313 0.96185,-2.802365 0.7913,-2.248052 2.36504,-6.79442 4.00378,-9.965015 1.63875,-3.170595 3.45378,-5.158482 5.25629,-6.620991 1.80252,-1.462509 3.59339,-2.400585 5.04315,-3.125462 1.44975,-0.724877 2.55839,-1.236557 3.32591,-1.492396 0.76751,-0.25584 1.19391,-0.25584 2.64366,-0.25584 1.44976,0 3.92287,0 6.27301,0.193667 2.35014,0.193667 3.72293,0.432413 5.55329,1.065697 1.83036,0.633284 3.49414,1.684087 4.63674,2.212632 1.14261,0.528546 1.50348,0.456371 1.73043,0.752099 0.22695,0.295729 0.22695,0.977966 0.22695,1.532284 0,0.554318 0,0.980717 -0.0149,1.223769 -0.0149,0.243053 -0.14157,0.496341 -0.69634,1.311244 -0.55478,0.814904 -1.58733,2.277682 -4.53145,5.819594 -2.94413,3.541912 -7.80507,9.170371 -11.12499,14.187048 -3.31992,5.016677 -5.11035,9.450107 -7.32668,16.554824 -2.21634,7.10472 -3.46977,11.74982 -4.47052,13.89333 -1.00075,2.14352 -2.53578,4.70191 -3.60178,6.15166 -1.06599,1.44976 -1.66295,1.79087 -2.30255,1.83351 -0.6396,0.0426 -1.32183,-0.21319 -2.00432,0.12827 z"
         id="path11"
         inkscape:path-effect="#path-effect12"
         inkscape:original-d="m 372.75756,119.47686 c -0.70246,0.92443 -1.40275,1.84829 -2.04671,2.81423 -1.36448,0 -2.72895,0 -4.09343,0 -2.8688,-4.96263 -2.11857,-10.80812 -2.81423,-16.37371 0.0853,-0.17055 0.17056,-0.34111 0.25584,-0.51167 -0.0853,-0.51168 -0.17056,-1.02336 -0.25584,-1.53504 1.33957,-10.714041 2.61406,-15.773205 4.09343,-20.211286 0.34112,-1.535035 0.68223,-3.070069 1.02335,-4.605104 0.0853,-0.596958 0.17056,-1.193916 0.25584,-1.790874 0.0853,-0.170559 0.17056,-0.341118 0.25584,-0.511678 0.14961,-4.792055 2.73509,-8.988206 4.60511,-13.303633 1.23531,-2.373402 3.46814,-3.979818 5.37262,-5.884299 1.79087,-0.938077 3.58174,-1.876153 5.37262,-2.81423 1.10863,-0.511678 2.21727,-1.023356 3.32591,-1.535034 0.42639,0 0.85279,0 1.27919,0 2.47311,0 4.94622,0 7.41933,0 2.39878,-0.599423 3.62893,0.459511 5.8843,1.023356 2.02805,-0.16252 3.24779,1.59134 4.86095,3.070069 0.5024,0.09704 0.84085,-0.08725 1.27919,-0.255839 0,0.682238 0,1.364475 0,2.046713 0,0.426398 0,0.852797 0,1.279195 -0.41429,-0.132512 -0.1565,0.312994 -0.25584,0.511678 -0.81722,1.567349 -2.02218,2.908426 -3.07007,4.349265 -4.86094,5.628461 -9.72188,11.25692 -14.58282,16.88538 -2.281,4.202124 -4.13719,8.608995 -5.37263,13.303633 -3.19691,9.590978 -3.7821,14.416398 -4.34926,16.117858 -1.53503,2.5584 -3.07007,5.11679 -4.6051,7.67518 -0.59696,0.34112 -1.19392,0.68224 -1.79088,1.02335 -0.68224,-0.25583 -1.36447,-0.51167 -2.04671,-0.76751 z"
         inkscape:label="Leaves shadow 2"
         sodipodi:nodetypes="ccccccccccccccsscccsccccccccc" />
      <path
         style="fill:#369e3f;fill-opacity:1;stroke:none;stroke-width:1.89;stroke-opacity:1"
         d="m 384.52616,32.704763 c -0.25584,0.29848 -0.25584,0.29848 -0.2132,0.6396 0.0426,0.34112 0.12792,1.023355 0.12792,1.833513 0,0.810159 -0.0853,1.748233 -0.17056,2.643671 -0.0853,0.895438 -0.17056,1.748233 -0.79303,3.025046 -0.62247,1.276812 -2.24934,3.662884 -2.68542,5.059808 -0.43608,1.396925 -0.30188,2.336317 0.53896,3.113745 0.84085,0.777428 2.37136,0.947485 3.63614,0.865342 1.26478,-0.08214 2.20286,-0.423262 2.8851,-0.593822 0.68223,-0.17056 1.10863,-0.17056 1.44975,-0.2132 0.34112,-0.04264 0.59696,-0.127919 1.50886,-0.954539 0.9119,-0.82662 1.37743,-1.292148 2.91159,-3.924139 1.53417,-2.63199 1.10686,-1.58746 1.75439,-3.620413 0.64754,-2.032954 0.73282,-3.141588 0.65558,-3.975631 -0.0772,-0.834042 -0.35107,-1.472954 -0.61308,-1.994296 -0.26202,-0.521343 -0.4864,-0.895303 -0.84209,-1.566785 -0.35568,-0.671482 -0.74882,-1.467852 -1.81482,-1.851612 -1.066,-0.38376 -2.78225,-0.309141 -4.06678,-0.229191 -1.28452,0.07995 -2.13732,0.165229 -2.81956,0.506346 -0.68223,0.341118 -1.19391,0.938077 -1.44975,1.236557 z"
         id="path12"
         inkscape:path-effect="#path-effect13"
         inkscape:original-d="m 384.27032,33.003243 v 0 c 0.0853,0.682238 0.17056,1.364475 0.25584,2.046713 -0.0853,0.938077 -0.17056,1.876153 -0.25584,2.81423 -0.0853,0.852797 -0.17056,1.705594 -0.25584,2.558391 -0.97008,1.830085 -1.75903,4.787465 -3.83759,5.62846 -0.83602,1.397278 -0.025,2.239981 0.51168,3.581747 1.47508,0.237061 3.01915,0.285114 4.60511,0.511678 0.93807,-0.341118 1.87615,-0.682237 2.81423,-1.023356 0.42639,0 0.85279,0 1.27919,0 0.25584,-0.08528 0.51168,-0.170559 0.76752,-0.255839 2.30366,-0.832261 2.34314,-1.723838 3.58175,-3.581747 2.08957,-3.482744 0.63945,-2.856637 2.30255,-5.62846 0.0853,-1.108637 0.17056,-2.217273 0.25584,-3.325909 -0.46029,-0.464938 -0.56296,-1.1772 -0.76752,-1.790873 -0.45586,-0.338719 -0.59561,-0.763456 -0.76752,-1.279196 -0.43833,-0.8879 -0.83147,-1.684272 -1.24721,-2.526411 -1.71626,0.07462 -3.43251,0.149239 -5.14877,0.223859 -0.85279,0.08528 -1.70559,0.17056 -2.55839,0.255839 -0.51167,0.596958 -1.02335,1.193916 -1.53503,1.790874 z"
         inkscape:label="Leaves shadow 3"
         sodipodi:nodetypes="cccccccccccccccccccc" />
      <path
         style="fill:none;fill-opacity:0.984314;stroke:#000000;stroke-width:1.89;stroke-opacity:1"
         d="m 363.23311,217.42107 c -2.93989,-1.71602 -6.33267,-2.58219 -9.58897,-3.06461 -3.2563,-0.48241 -6.37509,-0.58103 -13.4514,1.31641 -7.0763,1.89744 -1.10525,-0.20999 -5.08749,1.18841 -3.98224,1.3984 -4.70586,1.6396 -7.75389,4.36783 -3.04803,2.72823 -8.4204,7.94342 -11.65235,12.2675 -3.23195,4.32407 -4.32344,7.75697 -5.14572,10.72275 -0.82229,2.96578 -1.37535,5.46438 -1.53127,7.91972 -0.15593,2.45534 0.0853,4.86741 0.20588,7.6413 0.1206,2.77389 0.1206,5.90958 0.008,10.52133 -0.11273,4.61176 -0.39771,12.3061 -0.50429,16.51057 -0.10659,4.20446 -0.10659,6.85774 -0.3478,11.32008 -0.24121,4.46235 -0.72362,10.73372 -1.08543,15.55787 -0.36182,4.82416 -0.60302,8.20106 -0.96483,10.49253 -0.36181,2.29147 -0.84423,3.49751 -1.20604,5.18596 -0.36181,1.68845 -0.60301,3.85932 -1.18291,9.07839 -0.5799,5.21907 -1.29547,11.65923 -1.74473,16.06438 -0.44926,4.40514 -0.44926,5.12876 -0.81107,6.69661 -0.36181,1.56785 -1.08544,3.97992 -1.44725,5.66837 -0.36181,1.68845 -0.36181,2.65328 -0.48241,3.2563 -0.1206,0.60302 -0.36181,0.84423 -0.60302,2.17087 -0.24121,1.32664 -0.48241,3.73871 -0.72362,5.18596 -0.24121,1.44724 -0.48242,1.92966 -0.60302,2.77389 -0.1206,0.84422 -0.1206,2.05026 -0.36181,3.97992 -0.24121,1.92965 -0.72362,4.58294 -0.96483,9.04527 -0.24121,4.46234 -0.24121,10.73373 -0.36181,14.35184 -0.12061,3.61812 -0.36181,4.58294 -0.36181,7.59803 0,3.0151 0.2412,8.08046 0.36181,12.6634 0.1206,4.58294 0.1206,8.68346 0.2412,11.09554 0.12061,2.41207 0.36182,3.13569 0.48242,4.34173 0.12061,1.20604 0.12061,2.89449 0.36182,4.70354 0.2412,1.80906 0.72362,3.73872 1.08543,5.42717 0.36181,1.68845 0.60301,3.1357 1.08543,4.34173 0.48241,1.20604 1.20604,2.17087 3.3769,3.61812 2.17087,1.44724 5.78898,3.3769 7.95985,4.10052 2.17086,0.72363 2.89449,0.24121 3.97992,-0.36181 1.08543,-0.60301 2.53268,-1.32664 3.97992,-3.1357 1.44725,-1.80905 2.89449,-4.70354 3.8895,-6.82926 0.99502,-2.12571 1.38783,-3.10775 2.84969,-5.31516 1.46186,-2.20742 3.87394,-5.34311 6.88903,-10.04666 3.01509,-4.70354 6.6332,-10.97493 8.92467,-14.95486 2.29148,-3.97992 3.2563,-5.66837 4.73154,-7.87773 1.47524,-2.20936 3.29357,-4.70956 4.67542,-7.3721 1.38186,-2.66255 2.42068,-6.12525 3.20037,-8.88502 0.77969,-2.75977 1.98572,-7.10151 3.91265,-12.88305 1.92694,-5.78154 4.58532,-13.03169 6.75636,-19.78597 2.17104,-6.75428 3.8595,-13.02567 4.82433,-16.28197 0.96483,-3.2563 1.20604,-3.49751 1.68845,-4.70355 0.48241,-1.20603 1.20604,-3.3769 1.80905,-5.66837 0.60302,-2.29147 1.08544,-4.70354 2.05027,-9.16588 0.96483,-4.46234 2.41207,-10.97494 3.61811,-18.33176 1.20604,-7.35683 2.17087,-15.55788 2.65329,-20.98505 0.48241,-5.42717 0.48241,-8.08045 0.36181,-13.0252 -0.12061,-4.94475 -0.36182,-12.18097 -0.48242,-18.69357 -0.12061,-6.5126 -0.12061,-12.30158 -0.12061,-15.91969 0,-3.61811 0,-5.06536 -0.91184,-7.52101 -0.91184,-2.45565 -2.73553,-5.91972 -4.55921,-9.38379 -3.82274,-3.94397 -8.98124,-9.26606 -11.92113,-10.98207 z"
         id="path3"
         inkscape:path-effect="#path-effect4"
         inkscape:original-d="m 363.68602,216.57123 c -3.3928,-0.86618 -6.78558,-1.73235 -10.17837,-2.59853 -3.11981,-0.0986 -6.2386,-0.19727 -9.35943,-0.29596 -10.90141,4.26296 -5.86307,-0.48716 -12.30158,4.34173 -0.72363,0.24121 -1.44725,0.48241 -2.17087,0.72362 -5.37244,5.21525 -10.74481,10.43044 -16.11722,15.64567 -1.09149,3.43292 -2.18298,6.86582 -3.27448,10.29876 -0.55306,2.49862 -1.10612,4.99722 -1.65919,7.49583 0.24121,2.41207 0.48242,4.82414 0.72362,7.23622 0,3.1357 0,6.27139 0,9.40709 -1.19846,6.05177 2.0026,13.87523 -0.72362,19.5378 0,2.65328 0,5.30656 0,7.95985 -0.48241,6.2714 -0.96483,12.54277 -1.44725,18.81417 -0.2412,3.37691 -0.48241,6.75381 -0.72362,10.13071 -0.48241,1.20604 -0.96482,2.41208 -1.44724,3.61812 -0.2412,2.17086 -0.48241,4.34173 -0.72362,6.5126 1.9513,8.58615 0.60258,14.95596 -2.53268,22.79409 0,0.72363 0,1.44725 0,2.17087 -0.72362,2.41208 -1.44724,4.82415 -2.17087,7.23622 0,0.96483 0,1.92966 0,2.89449 -0.2412,0.24121 -0.48241,0.48242 -0.72362,0.72363 -0.24121,2.41207 -0.48241,4.82414 -0.72362,7.23622 -0.24121,0.48241 -0.48242,0.96483 -0.72362,1.44724 0,1.20604 0,2.41208 0,3.61811 -0.48242,2.65328 -0.96483,5.30657 -1.44725,7.95985 0,6.27139 0,12.54278 0,18.81418 -0.2412,0.96483 -0.48241,1.92965 -0.72362,2.89448 0.24121,5.06536 0.48242,10.13072 0.72362,15.19607 0,4.10053 0,8.20105 0,12.30158 0.24121,0.72362 0.48242,1.44724 0.72363,2.17087 0,1.68845 0,3.3769 0,5.06535 0.48241,1.92966 0.96482,3.85932 1.44724,5.78898 0.24121,1.44724 0.48241,2.89449 0.72362,4.34173 0.72362,0.96483 1.44725,1.92966 2.17087,2.89449 3.61811,1.92966 7.23622,3.85932 10.85433,5.78898 0.72362,-0.48242 1.44725,-0.96483 2.17087,-1.44724 1.44724,-0.72363 2.89449,-1.44725 4.34173,-2.17087 1.44725,-2.89449 2.89449,-5.78898 4.34174,-8.68347 0.97306,-1.18483 1.44724,-2.13432 1.44724,-3.61811 2.41207,-3.1357 4.82415,-6.27139 7.23622,-9.40709 3.61811,-6.27139 7.23622,-12.54278 10.85434,-18.81418 0.96483,-1.68845 1.92966,-3.3769 2.89448,-5.06535 2.76908,-2.1605 4.25888,-4.89963 5.78898,-7.95985 0,-2.82932 1.18332,-6.24867 2.17087,-7.23622 1.20604,-4.34173 2.41207,-8.68347 3.61811,-13.0252 3.36471,-6.95849 5.52118,-14.39268 7.95984,-21.70867 1.68846,-6.27139 3.37691,-12.54278 5.06536,-18.81417 0.24121,-0.24121 0.48242,-0.48242 0.72362,-0.72363 0.72363,-2.17086 1.44725,-4.34173 2.17087,-6.5126 0.48241,-2.41207 0.96483,-4.82414 1.44724,-7.23622 1.44725,-6.5126 2.89449,-13.0252 4.34174,-19.5378 0.96483,-8.20105 1.92966,-16.4021 2.89449,-24.60315 0,-2.65329 0,-5.30657 0,-7.95985 -0.24121,-7.23622 -0.48242,-14.47244 -0.72363,-21.70867 0,-5.78897 0,-11.57795 0,-17.36693 0,-1.44724 0,-2.89449 0,-4.34173 -1.82368,-3.46406 -5.47105,-10.3922 -5.47105,-10.3922 0,0 -8.57373,-9.66104 -11.46822,-11.83191 z"
         sodipodi:nodetypes="cccccccccsccccccccccccccccccccccccccccccccccccccccccccsscc"
         inkscape:label="Main carrot outline" />
      <path
         style="fill:none;fill-opacity:0.984314;stroke:#000000;stroke-width:1.89;stroke-opacity:1"
         d="m 344.09701,213.59397 c -0.12061,-1.20604 1.19872,-3.92202 1.97898,-5.40062 0.78027,-1.4786 1.02147,-1.71981 1.14208,-2.20222 0.1206,-0.48242 0.1206,-1.20604 0.72362,-2.77389 0.60302,-1.56784 1.80906,-3.97992 3.1357,-6.75381 1.32664,-2.77388 2.77389,-5.90958 3.85932,-7.95984 1.08543,-2.05026 1.80905,-3.01509 3.25629,-5.30656 1.44725,-2.29147 3.61812,-5.90958 5.30657,-8.80407 1.68845,-2.89449 2.89449,-5.06536 2.53267,-6.392 -0.36181,-1.32664 -2.29146,-1.80905 -4.58293,-3.2563 -2.29148,-1.44725 -4.94476,-3.85932 -6.2714,-5.30656 -1.32664,-1.44725 -1.32664,-1.92966 -1.68845,-2.89449 -0.36181,-0.96483 -1.08543,-2.41207 -1.92966,-4.70354 -0.84423,-2.29148 -1.80905,-5.42717 -2.65328,-7.71864 -0.84422,-2.29147 -1.56785,-3.73872 -2.05026,-5.06536 -0.48242,-1.32664 -0.72362,-2.53268 -1.08544,-3.37691 -0.36181,-0.84422 -0.84422,-1.32663 -1.32664,-2.29146 -0.48241,-0.96483 -0.96483,-2.41208 -1.92966,-4.82415 -0.96483,-2.41207 -2.41207,-5.78898 -3.85932,-9.04528 -1.44724,-3.2563 -2.89448,-6.39199 -3.73871,-9.8895 -0.84423,-3.49751 -1.08543,-7.35683 -1.32664,-9.768903 -0.24121,-2.412074 -0.48241,-3.376905 -0.60302,-4.944752 -0.1206,-1.567847 -0.1206,-3.738714 -0.24121,-5.306562 -0.1206,-1.567848 -0.36181,-2.532678 -0.36181,-3.497507 0,-0.96483 0.24121,-1.92966 0.96483,-5.54777 0.72363,-3.618111 1.92966,-9.889504 4.10053,-15.678481 2.17086,-5.788976 5.30656,-11.095541 7.47743,-14.35184 2.17086,-3.256299 3.3769,-4.462338 4.34173,-5.185961 0.96483,-0.723623 1.68845,-0.964831 2.41207,-1.447247 0.72363,-0.482417 1.44725,-1.206037 2.77389,-2.050262 1.32664,-0.844225 3.2563,-1.809055 5.18596,-2.412073 1.92966,-0.603019 3.85932,-0.844226 4.94475,-0.844228 1.08543,-10e-7 1.32664,0.241207 3.85932,-0.844226 2.53268,-1.085433 7.35683,-3.497508 10.13071,-4.703544 2.77389,-1.206036 3.49751,-1.206036 5.66837,-1.567847 2.17087,-0.361811 5.78898,-1.085433 11.45736,-1.085433 5.66837,0 13.38701,0.723622 17.48754,1.32664 4.10052,0.603017 4.58294,1.085436 5.78897,1.688453 1.20604,0.603018 3.1357,1.32664 4.58295,2.050262 1.44724,0.723623 2.41207,1.447245 2.89449,2.412074 0.48241,0.96483 0.48241,2.170867 0.84422,3.738715 0.36181,1.567849 1.08543,3.497508 2.65328,6.753809 1.56785,3.2563 3.97992,7.839238 5.54777,10.130709 1.56785,2.291471 2.29147,2.291471 2.65328,2.170867 0.36181,-0.120603 0.36181,-0.36181 0.96483,-1.085433 0.60302,-0.723624 1.80906,-1.929662 2.65328,-2.532679 0.84423,-0.603017 1.32664,-0.603017 2.05026,-0.964828 0.72363,-0.361811 1.68846,-1.085433 3.1357,-1.567848 1.44725,-0.482415 3.37691,-0.723623 4.22113,-0.120604 0.84423,0.603019 0.60302,2.050263 0.36181,3.979922 -0.24121,1.929659 -0.48241,4.341734 -0.84422,6.030185 -0.36181,1.688452 -0.84423,2.653283 -1.08543,3.376905 -0.24121,0.723622 -0.24121,1.206036 -0.96483,2.412074 -0.72363,1.206038 -2.17087,3.135694 -3.49751,6.030183 -1.32665,2.894489 -2.53268,6.753808 -3.0151,9.648298 -0.48241,2.894489 -0.24121,4.824149 -0.24121,6.391996 0,1.567848 -0.2412,2.773885 -0.2412,3.497509 0,0.723623 0.24121,0.964832 0.24121,1.809056 -10e-6,0.844224 -0.24121,2.291468 -0.36182,3.979921 -0.1206,1.68845 -0.1206,3.61811 -0.72362,6.75381 -0.60302,3.13569 -1.80905,7.47743 -2.41207,10.0101 -0.60302,2.53268 -0.60302,3.2563 -0.96483,4.58294 -0.36181,1.32665 -1.08544,3.25631 -1.44725,4.70355 -0.36181,1.44724 -0.36181,2.41207 -1.08543,4.58294 -0.72362,2.17087 -2.17087,5.54777 -3.61811,8.08045 -1.44724,2.53268 -2.89449,4.22113 -4.70354,6.87441 -1.80906,2.65328 -3.97993,6.27139 -6.5126,9.6483 -2.53268,3.3769 -5.42717,6.5126 -7.95985,9.04527 -2.53268,2.53268 -4.70354,4.46234 -6.27139,5.66838 -1.56785,1.20604 -2.53268,1.68845 -3.1357,2.17087 -0.60302,0.48241 -0.84422,0.96483 -1.56785,1.68845 -0.72362,0.72362 -1.92966,1.68845 -2.65328,2.65328 -0.72362,0.96483 -0.96482,1.92966 -1.44724,2.65328 -0.48242,0.72363 -1.20604,1.20604 -1.68845,2.65328 -0.48242,1.44725 -0.72362,3.85932 -0.84423,5.42717 -0.1206,1.56785 -0.1206,2.29147 -0.96483,3.61811 -0.84423,1.32664 -2.53268,3.2563 -3.3769,4.34174 -0.84423,1.08543 -0.84423,1.32663 -1.08544,1.56784 -0.2412,0.24121 -0.72362,0.48242 -0.96483,0.84423 -0.2412,0.36181 -0.2412,0.84422 -2.89448,3.3769 -2.65329,2.53268 -7.95985,7.11562 -11.33675,9.7689 -3.37691,2.65328 -4.82415,3.37691 -5.90959,3.73872 -1.08543,0.36181 -1.80905,0.36181 -2.29146,0.48241 -0.48242,0.1206 -0.72363,0.36181 -1.20604,0.48242 -0.48242,0.1206 -1.20604,0.1206 -1.95307,-0.064 -0.74703,-0.18457 -1.51746,-0.55369 -2.87212,-1.02607 -1.35466,-0.47239 -3.29351,-1.04802 -5.44096,-1.34588 -2.14746,-0.29785 -4.50352,-0.31791 -6.46181,-0.17599 -1.9583,0.14192 -3.51883,0.44584 -3.63943,-0.7602 z"
         id="path6"
         inkscape:path-effect="#path-effect7"
         inkscape:original-d="m 342.65708,215.10392 c 1.31932,-2.71599 2.63865,-5.43197 3.95797,-8.14796 0.24121,-0.24121 0.48241,-0.48242 0.72362,-0.72362 0,-0.72363 0,-1.44725 0,-2.17087 1.20604,-2.41207 2.41208,-4.82415 3.61811,-7.23622 1.44725,-3.1357 2.89449,-6.2714 4.34174,-9.40709 0.72362,-0.96483 1.44724,-1.92966 2.17086,-2.89449 2.17087,-3.61811 4.34174,-7.23622 6.5126,-10.85433 1.20604,-2.17087 2.41208,-4.34174 3.61811,-6.5126 -1.92966,-0.48242 -3.85931,-0.96483 -5.78897,-1.44725 -2.65329,-2.41207 -5.30657,-4.82415 -7.95985,-7.23622 0,-0.48242 0,-0.96483 0,-1.44725 -0.72362,-1.44724 -1.44724,-2.89448 -2.17087,-4.34173 -0.96482,-3.1357 -1.92965,-6.27139 -2.89448,-9.40709 -0.72363,-1.44724 -1.44725,-2.89449 -2.17087,-4.34173 -0.24121,-1.20604 -0.48242,-2.41208 -0.72362,-3.61811 -0.48242,-0.48242 -0.96483,-0.96483 -1.44725,-1.44725 -0.48241,-1.44724 -0.96483,-2.89449 -1.44724,-4.34173 -1.44725,-3.3769 -2.89449,-6.75381 -4.34174,-10.13071 -1.44724,-3.1357 -2.89448,-6.27139 -4.34173,-9.40709 -0.24121,-3.85932 -0.48241,-7.71864 -0.72362,-11.577956 -0.24121,-0.96483 -0.48242,-1.92966 -0.72362,-2.894489 0,-2.170867 0,-4.341734 0,-6.5126 -0.24121,-0.96483 -0.48242,-1.92966 -0.72363,-2.894489 0.24121,-0.96483 0.48242,-1.92966 0.72363,-2.894489 1.20603,-6.271393 2.41207,-12.542786 3.61811,-18.814178 3.13569,-5.306563 6.27139,-10.613126 9.40709,-15.919689 1.20603,-1.206038 2.41207,-2.412075 3.61811,-3.618112 0.72362,-0.241207 1.44724,-0.482414 2.17086,-0.723622 0.72363,-0.723622 1.44725,-1.447244 2.17087,-2.170867 1.92966,-0.964829 3.85932,-1.929659 5.78898,-2.894488 1.92966,-0.241208 3.85932,-0.482415 5.78898,-0.723623 0.2412,0.241208 0.48241,0.482415 0.72362,0.723623 4.82415,-2.412075 9.6483,-4.824149 14.47244,-7.236223 0.72363,0 1.44725,0 2.17087,0 3.61811,-0.723622 7.23622,-1.447244 10.85433,-2.170866 7.71864,0.723622 15.43728,1.447244 23.15592,2.170866 0.48241,0.482415 0.96483,0.96483 1.44724,1.447245 1.92966,0.723622 3.85932,1.447244 5.78898,2.170866 0.96483,0.723623 1.92966,1.447245 2.89449,2.170867 0,1.206037 0,2.412074 0,3.618111 0.72362,1.92966 1.44724,3.859319 2.17086,5.788978 2.41208,4.582941 4.82415,9.165882 7.23623,13.748822 0.72362,0 1.44724,0 2.17086,0 0,-0.241207 0,-0.482414 0,-0.723622 1.20604,-1.206037 2.41208,-2.412074 3.61811,-3.618111 0.48242,0 0.96483,0 1.44725,0 0.96483,-0.723622 1.92966,-1.447244 2.89449,-2.170867 1.92966,-0.241207 3.85932,-0.482414 5.78898,-0.723622 -0.24121,1.447245 -0.48242,2.894489 -0.72363,4.341734 -0.2412,2.412074 -0.48241,4.824148 -0.72362,7.236222 -0.48241,0.96483 -0.96483,1.929659 -1.44724,2.894489 0,0.482415 0,0.964829 0,1.447244 -1.44725,1.92966 -2.89449,3.859319 -4.34174,5.788978 -1.20603,3.859319 -2.41207,7.718637 -3.61811,11.577956 0.24121,1.929659 0.48242,3.859318 0.72362,5.788978 -0.2412,1.206037 -0.48241,2.412074 -0.72362,3.618111 0.24121,0.241207 0.48242,0.482415 0.72362,0.723622 -0.2412,1.447245 -0.48241,2.894489 -0.72362,4.341731 0,1.92966 0,3.85932 0,5.78898 -1.20604,4.34173 -2.41207,8.68347 -3.61811,13.0252 0,0.72362 0,1.44724 0,2.17087 -0.72362,1.92966 -1.44724,3.85932 -2.17087,5.78898 0,0.96482 0,1.92965 0,2.89448 -1.44724,3.37691 -2.89449,6.75381 -4.34173,10.13072 -1.44724,1.68845 -2.89449,3.3769 -4.34173,5.06535 -2.17087,3.61811 -4.34174,7.23622 -6.5126,10.85433 -2.89449,3.1357 -5.78898,6.2714 -8.68347,9.40709 -2.17087,1.92966 -4.34173,3.85932 -6.5126,5.78898 -0.96483,0.48242 -1.92966,0.96483 -2.89449,1.44725 -0.24121,0.48241 -0.48241,0.96483 -0.72362,1.44724 -1.20604,0.96483 -2.41208,1.92966 -3.61811,2.89449 -0.24121,0.96483 -0.48242,1.92966 -0.72362,2.89449 -0.72363,0.48241 -1.44725,0.96483 -2.17087,1.44724 -0.24121,2.41208 -0.48242,4.82415 -0.72362,7.23622 0,0.72363 0,1.44725 0,2.17087 -1.68846,1.92966 -3.37691,3.85932 -5.06536,5.78898 0,0.24121 0,0.48241 0,0.72362 -0.48241,0.24121 -0.96483,0.48242 -1.44724,0.72362 0,0.48242 0,0.96483 0,1.44725 -5.30657,4.58294 -10.61313,9.16588 -15.91969,13.74882 -1.44725,0.72362 -2.89449,1.44725 -4.34174,2.17087 -0.72362,0 -1.44724,0 -2.17086,0 -0.24121,0.2412 -0.48242,0.48241 -0.72363,0.72362 -0.72362,0 -1.44724,0 -2.17086,0 -0.77044,-0.36913 -1.54087,-0.73825 -2.31132,-1.10738 -1.93887,-0.57564 -3.87772,-1.15127 -5.81657,-1.72691 -2.35606,-0.0201 -4.71212,-0.0401 -7.06818,-0.0602 -1.56053,0.30391 -3.12106,0.60782 -4.68159,0.91174 z"
         inkscape:label="Main leaves outline"
         sodipodi:nodetypes="ccccccccccccccccccccccccccccccccccccccccccccccccccccccccccccccccccccccccccccccccccccccccc" />
    </g>
  </g>
</svg>
