<?xml version="1.0" encoding="UTF-8" standalone="no"?>
<!-- Created with Inkscape (http://www.inkscape.org/) -->

<svg
   version="1.1"
   id="svg1"
   width="793.59998"
   height="559.35999"
   viewBox="0 0 793.59998 559.35999"
   sodipodi:docname="Corn.svg"
   inkscape:version="1.4 (86a8ad7, 2024-10-11)"
   xmlns:inkscape="http://www.inkscape.org/namespaces/inkscape"
   xmlns:sodipodi="http://sodipodi.sourceforge.net/DTD/sodipodi-0.dtd"
   xmlns="http://www.w3.org/2000/svg"
   xmlns:svg="http://www.w3.org/2000/svg">
  <defs
     id="defs1">
    <inkscape:path-effect
       effect="bspline"
       id="path-effect26"
       is_visible="true"
       lpeversion="1.3"
       weight="33.333333"
       steps="2"
       helper_size="0"
       apply_no_weight="true"
       apply_with_weight="true"
       only_selected="false"
       uniform="false" />
    <inkscape:path-effect
       effect="bspline"
       id="path-effect25"
       is_visible="true"
       lpeversion="1.3"
       weight="33.333333"
       steps="2"
       helper_size="0"
       apply_no_weight="true"
       apply_with_weight="true"
       only_selected="false"
       uniform="false" />
    <inkscape:path-effect
       effect="bspline"
       id="path-effect24"
       is_visible="true"
       lpeversion="1.3"
       weight="33.333333"
       steps="2"
       helper_size="0"
       apply_no_weight="true"
       apply_with_weight="true"
       only_selected="false"
       uniform="false" />
    <inkscape:path-effect
       effect="bspline"
       id="path-effect23"
       is_visible="true"
       lpeversion="1.3"
       weight="33.333333"
       steps="2"
       helper_size="0"
       apply_no_weight="true"
       apply_with_weight="true"
       only_selected="false"
       uniform="false" />
    <inkscape:path-effect
       effect="bspline"
       id="path-effect22"
       is_visible="true"
       lpeversion="1.3"
       weight="33.333333"
       steps="2"
       helper_size="0"
       apply_no_weight="true"
       apply_with_weight="true"
       only_selected="false"
       uniform="false" />
    <inkscape:path-effect
       effect="bspline"
       id="path-effect21"
       is_visible="true"
       lpeversion="1.3"
       weight="33.333333"
       steps="2"
       helper_size="0"
       apply_no_weight="true"
       apply_with_weight="true"
       only_selected="false"
       uniform="false" />
    <inkscape:path-effect
       effect="bspline"
       id="path-effect7"
       is_visible="true"
       lpeversion="1.3"
       weight="33.333333"
       steps="2"
       helper_size="0"
       apply_no_weight="true"
       apply_with_weight="true"
       only_selected="false"
       uniform="false" />
    <inkscape:path-effect
       effect="bspline"
       id="path-effect6"
       is_visible="true"
       lpeversion="1.3"
       weight="33.333333"
       steps="2"
       helper_size="0"
       apply_no_weight="true"
       apply_with_weight="true"
       only_selected="false"
       uniform="false" />
    <inkscape:path-effect
       effect="bspline"
       id="path-effect5"
       is_visible="true"
       lpeversion="1.3"
       weight="33.333333"
       steps="2"
       helper_size="0"
       apply_no_weight="true"
       apply_with_weight="true"
       only_selected="false"
       uniform="false" />
    <inkscape:path-effect
       effect="bspline"
       id="path-effect4"
       is_visible="true"
       lpeversion="1.3"
       weight="33.333333"
       steps="2"
       helper_size="0"
       apply_no_weight="true"
       apply_with_weight="true"
       only_selected="false"
       uniform="false" />
    <inkscape:path-effect
       effect="bspline"
       id="path-effect2"
       is_visible="true"
       lpeversion="1.3"
       weight="33.333333"
       steps="2"
       helper_size="0"
       apply_no_weight="true"
       apply_with_weight="true"
       only_selected="false"
       uniform="false" />
    <inkscape:path-effect
       effect="bspline"
       id="path-effect1"
       is_visible="true"
       lpeversion="1.3"
       weight="33.333333"
       steps="2"
       helper_size="0"
       apply_no_weight="true"
       apply_with_weight="true"
       only_selected="false"
       uniform="false" />
  </defs>
  <sodipodi:namedview
     id="namedview1"
     pagecolor="#ffffff"
     bordercolor="#111111"
     borderopacity="1"
     inkscape:showpageshadow="0"
     inkscape:pageopacity="0"
     inkscape:pagecheckerboard="1"
     inkscape:deskcolor="#d1d1d1"
     inkscape:zoom="0.9771767"
     inkscape:cx="360.22144"
     inkscape:cy="339.24264"
     inkscape:window-width="1920"
     inkscape:window-height="991"
     inkscape:window-x="-9"
     inkscape:window-y="-9"
     inkscape:window-maximized="1"
     inkscape:current-layer="g1" />
  <g
     inkscape:groupmode="layer"
     inkscape:label="Image"
     id="g1"
     transform="matrix(1.7515122,0,0,1.7515122,-204.19686,-93.09364)">
    <g
       id="g2"
       transform="translate(10.079806,3.8464205)">
      <path
         style="display:inline;fill:#8cd292;fill-opacity:0.945098;stroke:none;stroke-width:1.89;stroke-opacity:1"
         d="m 235.68776,242.31799 c -4.51752,-4.84962 -7.98191,-9.30385 -12.44728,-14.13189 -4.46536,-4.82804 -10.01313,-10.1346 -14.41522,-16.91265 -4.40208,-6.77806 -11.20117,-24.00242 -12.32421,-27.54696 -1.12304,-3.54453 -2.56927,-8.60634 -3.65522,-12.10563 -1.08594,-3.49929 -1.80956,-5.42895 -2.54219,-7.25903 -0.73263,-1.83008 -1.41468,-3.42151 -2.19925,-5.23606 -0.78456,-1.81454 -11.92784,-27.37852 -12.69903,-29.33218 -0.77119,-1.95366 -1.97723,-5.08936 -2.70139,-8.11088 -0.72416,-3.02151 -0.96301,-5.88773 -0.72244,-9.03114 0.24056,-3.14341 0.96419,-6.52031 2.17022,-10.01782 1.20604,-3.497504 2.89449,-7.115615 4.18013,-9.07181 1.28565,-1.956195 1.74656,-2.109831 5.04517,1.553259 3.29862,3.66309 8.89422,11.035071 14.15417,17.704761 5.25996,6.66968 9.99761,12.39684 14.56181,18.13061 4.56421,5.73377 8.92877,11.44248 11.47287,14.89986 2.5441,3.45739 3.26772,4.66342 4.11194,5.74886 0.84423,1.08543 1.80906,2.05026 3.2563,3.73871 1.44725,1.68845 3.37691,4.10053 5.7476,7.35934 2.37069,3.25881 5.18241,7.36435 10.6408,15.48848 5.45839,8.12413 1.30575,1.9028 7.38282,11.68911 6.07707,9.78631 8.18648,14.31029 9.86553,11.84909 1.67905,-2.4612 2.92772,-11.90762 4.98195,-19.42202 2.05422,-7.51439 4.91403,-13.09688 8.00248,-19.52023 3.08846,-6.42335 6.40556,-13.68753 7.9432,-17.92437 1.53763,-4.23684 1.30194,-5.41524 4.00124,-12.8634 2.6993,-7.44816 4.45677,-11.7031 10.75932,-26.60716 6.30254,-14.904059 12.61453,-29.470189 16.21884,-37.398192 3.60431,-7.928003 4.56914,-9.375247 6.46051,-8.148011 1.89137,1.227235 5.47258,6.185839 8.05809,10.50912 2.5855,4.323281 4.93226,9.185603 8.41846,9.883303 3.48619,0.697699 8.20377,-2.578904 12.88663,-4.92953 4.68285,-2.350626 9.17995,-3.728997 13.51354,-5.225817 4.33359,-1.49682 8.02184,-2.948743 12.38728,-4.238424 4.36544,-1.289682 9.36858,-2.409264 15.25452,-3.265161 5.88594,-0.855897 11.38053,-1.295465 15.97837,0.677532 4.59783,1.972997 7.61355,6.413387 9.42261,10.996327 1.80905,4.582941 2.42012,9.376555 3.32,14.237919 0.89987,4.861363 2.1059,9.92672 2.70892,14.027244 0.60302,4.10053 0.60302,7.23622 0.72362,9.16588 0.12061,1.92966 0.36181,2.65328 1.08544,6.99502 0.72362,4.34173 1.92966,12.30157 1.9144,19.18246 -0.0153,6.88089 -1.25182,12.68285 0.55849,12.92134 1.81031,0.23849 6.66749,-5.08647 13.33203,-11.38 6.66455,-6.29353 10.37213,-9.47166 14.55707,-13.62066 4.18494,-4.14901 4.60222,-5.30433 5.21527,-6.60296 0.61305,-1.29864 1.33667,-2.50467 2.66332,-3.95191 1.32664,-1.44725 3.25629,-3.1357 5.16381,-5.15828 1.90751,-2.02259 3.89326,-4.50477 6.39324,-6.6394 2.49999,-2.13463 5.4652,-3.935565 8.03655,-5.209534 2.57135,-1.27397 4.69044,-1.98549 5.85033,-2.286312 1.15989,-0.300822 3.31765,0.879404 3.67946,1.964835 0.36181,1.085432 -0.0939,2.611271 -0.69541,4.626211 -0.60156,2.01494 -1.34901,4.51898 -5.48933,20.2096 -4.14032,15.69063 -4.7895,18.17917 -10.29541,31.63306 -5.5059,13.4539 4.32896,-9.92635 -1.19149,2.72861 -5.52045,12.65496 -6.72648,14.58461 -7.93252,17.23789 -1.20604,2.65329 -2.41207,6.03018 -3.35307,8.50725 -0.94099,2.47707 -1.70469,4.25903 -2.59807,7.53484 -0.89337,3.27582 -1.94892,8.12129 -2.8385,11.38825 -0.88958,3.26696 -1.61321,4.95541 -3.98921,8.82951 -2.37601,3.87409 -6.19701,9.62186 -10.47366,16.04156 -4.27665,6.4197 -8.79401,13.18777 -12.25107,18.12818 -3.45706,4.94041 -5.86914,8.0761 -13.33068,17.51518 -7.46155,9.43907 -19.97256,25.18152 -27.84114,33.82158 -7.86858,8.64007 -11.09472,10.17776 -13.6274,12.22803 -2.53268,2.05026 -4.37189,4.61309 -6.04526,6.48244 -1.67337,1.86935 -3.18092,3.04524 -7.81186,6.21287 -4.63094,3.16764 -12.06925,8.11674 -18.01637,11.91514 -5.94713,3.79839 -10.02875,6.19934 -15.73933,9.33701 -5.71058,3.13767 -12.51842,6.7299 -20.09305,10.30593 -7.57463,3.57603 -15.50756,6.92881 -24.54509,5.6572 -9.03753,-1.27161 -19.00443,-7.15568 -24.49266,-12.523 -5.48824,-5.36732 -6.45307,-10.19146 -8.14152,-16.6136 -1.68845,-6.42214 -4.10052,-14.44229 -5.18596,-23.36698 -1.08543,-8.9247 -0.8207,-19.71251 -0.10884,-26.19806 0.71186,-6.48554 1.91789,-10.58607 2.27971,-14.08358 0.36181,-3.4975 -0.12061,-6.39199 -0.60302,-9.28648 -2.96339,-2.82228 -9.44439,-8.99466 -13.96191,-13.84428 z"
         id="path3"
         sodipodi:nodetypes="ccccccccccccccccccccscccccccccccccccccccccccccccccccccccccccccccccccccccccccccc"
         inkscape:label="Leaf color"
         inkscape:original-d="m 234.4536,241.68983 c -3.7967,-3.8222 -6.92528,-8.53761 -10.13071,-13.0252 -5.54777,-5.30657 -11.09554,-10.61313 -16.64331,-15.91969 -5.38853,-7.40792 -10.85433,-25.15858 -10.85433,-27.49765 -1.85366,-4.94921 -3.06243,-10.07887 -4.34174,-15.19607 -0.72362,-1.92965 -1.44724,-3.85931 -2.17086,-5.78897 -1.3013,-1.49065 -1.70488,-3.20142 -2.17087,-5.06536 -1.4276,-1.62166 -12.13266,-27.37666 -12.30158,-28.22127 -1.20603,-3.13569 -2.41207,-6.27139 -3.61811,-9.40709 0.22483,-2.94626 -0.24195,-5.79348 -0.72362,-8.68346 0.72362,-3.37691 1.44724,-6.75381 2.17087,-10.13071 1.68845,-3.618114 3.3769,-7.236225 5.06535,-10.854337 1.02046,0.118593 1.4816,-0.03435 2.17087,-0.723622 5.77011,7.601885 11.36571,14.973869 17.09557,22.522739 4.79005,5.7905 9.52769,11.51766 14.29154,17.27648 4.36457,5.70872 8.72913,11.41743 13.09371,17.12616 0.72362,1.20604 1.44724,2.41207 2.17086,3.61811 0.96483,0.96483 1.92966,1.92966 2.89449,2.89449 1.92966,2.41207 3.85932,4.82415 5.78898,7.23622 2.81172,4.10555 5.62344,8.21109 8.43516,12.31664 10.58444,10.48776 6.19824,4.42233 13.99713,20.96999 2.10943,4.52401 4.21884,9.04799 6.32826,13.572 1.24868,-9.44641 2.49736,-18.89283 3.74602,-28.33918 2.85978,-5.58244 5.71959,-11.16493 8.57938,-16.7474 3.31712,-7.26423 6.63422,-14.52841 9.95137,-21.79269 0.15225,-1.28823 -0.32377,-2.41856 -0.72363,-3.61811 6.62959,-13.25919 3.82789,-19.39727 13.74883,-33.28663 5.85444,-14.617483 13.82942,-28.462983 18.81417,-43.41733 0.96483,-1.447245 1.92966,-2.894489 2.89449,-4.341734 4.12874,2.955003 6.61247,8.706234 9.40709,13.025201 2.16304,4.481683 4.5098,9.344004 6.76468,14.015958 4.71751,-3.276558 9.43509,-6.55316 14.15264,-9.829741 4.64816,-1.424669 9.14526,-2.803041 13.94447,-4.274008 3.86797,-1.522674 7.55622,-2.974595 11.2387,-4.424248 5.0484,-1.129711 10.05154,-2.249293 15.4074,-3.447806 6.25898,-2.476252 11.75849,-2.854367 18.09056,-1.447245 3.01572,4.44039 6.03144,8.88078 9.04716,13.321169 0.60239,4.725492 1.21346,9.519107 1.80717,14.176476 1.20604,5.065356 2.41208,10.130712 3.61811,15.196068 0,3.1357 0,6.27139 0,9.40709 0.24121,0.72362 0.48242,1.44724 0.72362,2.17086 1.20604,7.95985 2.41208,15.91969 3.61812,23.87954 -1.23655,5.80193 -2.47311,11.60389 -3.70967,17.40582 4.85717,-5.32495 9.71435,-10.64991 14.57153,-15.97488 8.47191,-7.26209 12.17949,-10.44022 19.96169,-17.11109 0.58768,-1.62714 1.00496,-2.78246 1.50744,-4.17369 0.72362,-1.20604 1.44724,-2.41207 2.17087,-3.61811 1.92966,-1.68845 3.85931,-3.3769 5.78898,-5.06536 1.3874,-2.75508 3.76534,-4.9235 5.78897,-7.23622 3.08211,-1.87193 6.04732,-3.672866 9.07099,-5.509303 2.11903,-0.711501 4.23812,-1.423021 6.35709,-2.134502 0.20081,0.109838 2.35857,1.290061 3.53785,1.935092 -0.45566,1.525835 -0.91133,3.051673 -1.36699,4.577503 -0.74745,2.50405 -1.4949,5.00809 -2.24235,7.51213 -7.53318,28.87721 -8.35579,31.32051 -8.68347,33.28662 -14.77303,44.23065 -1.08905,1.43286 -10.51071,24.98692 -1.20604,1.92967 -2.41207,3.85932 -3.61811,5.78898 -1.20604,3.37691 -2.41207,6.7538 -3.61811,10.13071 0.18627,1.94675 -1.20699,3.4589 -2.17086,5.06535 -1.05554,4.84547 -2.11109,9.69094 -3.16663,14.53641 -0.72362,1.68845 -1.44725,3.3769 -2.17087,5.06535 -4.02839,6.05974 -7.84939,11.80751 -11.92535,17.93881 -5.0706,6.31213 -8.99838,13.47372 -13.49675,20.22129 -2.41207,3.1357 -4.82415,6.27139 -7.23622,9.40709 -12.51102,15.74245 -25.02203,31.4849 -37.53304,47.22733 -3.22615,1.5377 -6.45229,3.07539 -9.67844,4.61309 -1.83921,2.56283 -3.67842,5.12566 -5.51762,7.68848 -1.50754,1.17588 -3.01509,2.35177 -4.52264,3.52766 -6.46646,7.095 -14.55016,11.0741 -22.97501,15.28652 -3.89556,2.78649 -8.04513,5.07193 -12.30158,7.23622 -7.88209,2.78046 -15.0299,5.72838 -21.25639,11.21615 -8.01379,3.38695 -15.94672,6.73974 -23.96999,10.13071 -10.05179,-5.9342 -20.01869,-11.81826 -30.03033,-17.72875 -0.96483,-4.82415 -1.92966,-9.64829 -2.89449,-14.47244 -2.41207,-8.02013 -4.82414,-16.04028 -7.23622,-24.06044 0.24121,-9.82923 0.50594,-20.61704 0.72362,-29.48761 1.20604,-4.10052 2.41208,-8.20105 3.61811,-12.30157 -0.48241,-2.89449 -1.44724,-8.68347 -1.44724,-8.68347 -2.51883,-3.28907 -8.97064,-9.4921 -15.19607,-14.47244 z"
         inkscape:path-effect="#path-effect4" />
      <path
         style="display:inline;fill:#d9cc44;fill-opacity:0.996078;stroke:none;stroke-width:1.89;stroke-opacity:1"
         d="m 352.59127,89.28503 c -3.08173,2.614993 -3.08173,2.614993 -5.77557,7.598596 -2.69384,4.983604 2.69384,-4.983603 -15.12535,26.162304 -17.8192,31.1459 -23.19784,38.17206 -27.95957,47.26265 -4.76174,9.09058 -4.23342,6.39869 -6.07093,18.30847 -1.83751,11.90979 -1.42969,7.42377 -2.89066,22.28843 -1.46098,14.86466 -1.94339,17.75915 -2.1846,20.77424 -0.24121,3.01509 -0.24121,6.15079 -0.69166,15.92683 -0.45045,9.77604 -1.9826,37.6953 -1.76106,46.79399 0.22155,9.09869 1.48789,12.29469 5.1663,12.92786 3.67842,0.63317 9.7689,-1.2965 15.03158,-4.28454 5.26268,-2.98804 34.18997,-29.38154 45.78256,-40.50097 11.59259,-11.11942 19.11104,-19.14759 23.80197,-24.43252 4.69094,-5.28492 7.22362,-8.54122 8.61056,-14.23974 1.38694,-5.69852 1.62815,-13.83927 1.80905,-19.05538 0.18091,-5.21612 0.30151,-7.50759 1.7744,-19.34145 1.47288,-11.83386 4.32328,-33.40107 5.04965,-50.35312 0.72637,-16.95205 -0.65741,-29.45774 -1.08472,-37.867344 -0.42731,-8.409604 -0.12222,-10.714704 -1.02627,-14.847471 -0.90404,-4.132767 -1.10029,-4.315935 -7.02584,-5.143278 -5.92554,-0.827343 -13.9941,-0.111309 -20.59138,2.45906 -6.59728,2.570368 -11.75672,6.948389 -14.83846,9.563383 z"
         id="path2"
         sodipodi:nodetypes="cccccccssccccccccccccc"
         inkscape:label="Corn"
         inkscape:original-d="m 349.50954,91.900023 v 0 c -5.06959,10.139147 9.51362,-19.763502 -28.94489,53.548047 -6.6935,8.74376 -12.07214,15.76992 -20.08051,26.23131 -1.5151,7.71978 -0.98679,5.02789 -3.79902,19.35689 0,9.569 -2.89449,4.78277 -2.89449,31.83938 -0.48242,2.89449 -0.96483,5.78898 -1.44725,8.68346 0,3.1357 0,6.2714 0,9.40709 -2.10317,16.35041 2.1503,44.58718 -3.2563,59.33703 1.26634,3.196 2.53268,6.392 3.79902,9.588 6.09049,-1.92966 12.18097,-3.85932 18.27146,-5.78899 4.43487,-4.04642 33.36216,-30.43992 49.56813,-45.22639 6.97921,-7.45238 14.49766,-15.48055 21.34685,-22.7941 2.53268,-3.2563 5.06536,-6.5126 7.59804,-9.76889 0.2412,-8.14075 0.4824,-16.2815 0.72361,-24.42226 0.12061,-2.29147 0.24121,-4.58294 0.36182,-6.87441 1.90532,-21.49782 5.61543,-42.95141 8.50824,-64.3766 -1.37994,-12.47096 -2.76372,-24.97665 -4.16651,-37.654133 0.54817,-4.141725 0.85326,-6.446825 1.62815,-12.301579 -2.58298,-2.41078 -2.77923,-2.593951 -5.42717,-5.065355 -9.20315,0.816721 -17.27171,1.532755 -25.24149,2.240023 -5.22478,4.433473 -10.38422,8.811492 -16.54769,14.041477 z"
         inkscape:path-effect="#path-effect2" />
      <path
         style="display:inline;fill:#6dc276;fill-opacity:1;stroke:none;stroke-width:1.89;stroke-opacity:1"
         d="m 288.42377,313.32843 c -1.74876,2.89448 -5.24627,8.68346 -9.34679,12.06037 -4.10053,3.3769 -8.60845,4.3016 -15.41493,5.47437 -6.80648,1.17277 1.90731,-0.16781 -3.03744,0.67641 -4.94475,0.84423 -5.42717,1.08544 -6.03019,1.08544 -0.60302,0 -1.32176,-0.23958 -2.42201,-4.88627 -1.10024,-4.64668 -2.55799,-13.60959 -2.31768,-20.4584 0.24031,-6.84881 2.18009,-11.59596 3.27973,-14.96087 1.09964,-3.36492 1.33936,-5.28266 1.70117,-8.29775 0.36181,-3.0151 0.84423,-7.11562 4.97609,-13.54288 4.13187,-6.42725 11.71681,-14.96032 15.5212,-24.55755 3.80438,-9.59722 3.62345,-20.03094 3.86466,-27.02577 0.24121,-6.99483 0.90453,-10.55263 6.87953,-22.60241 5.975,-12.04978 19.23722,-36.18702 25.77694,-48.21958 6.53973,-12.03256 7.98698,-14.92705 9.67543,-17.82154 1.68845,-2.89449 3.61811,-5.78898 4.58294,-7.47743 0.96483,-1.68845 0.96483,-2.17086 1.92966,-4.10052 0.96483,-1.92966 2.89449,-5.30657 5.84364,-8.79007 2.94914,-3.4835 6.9574,-7.10945 7.8529,-6.51245 0.89549,0.597 -1.28564,5.44102 -4.65903,11.90837 -3.37338,6.46735 -8.15742,14.95516 -12.78901,22.93455 -4.6316,7.97938 -9.11318,15.46835 -11.9221,19.83847 -2.80892,4.37012 -3.77375,5.33495 -4.70089,7.10632 -0.92714,1.77136 -1.81659,4.34926 -2.69213,6.35624 -0.87554,2.00698 -1.42433,2.92162 -2.16637,4.39956 -0.74203,1.47794 -1.46565,3.16639 -2.27972,4.74931 -0.81408,1.58292 -1.7186,3.06031 -2.18595,4.89952 -0.46735,1.83921 -0.49751,4.04022 -0.9121,6.71612 -0.41458,2.6759 -1.21358,5.82666 -1.62061,9.13573 -0.40704,3.30907 -0.4221,6.77643 -0.7613,10.35685 -0.33919,3.58042 -1.00251,7.27391 -1.44724,11.79655 -0.44472,4.52264 -0.67086,9.87443 -0.60302,15.083 0.0678,5.20857 0.42966,10.27393 0.008,22.21369 -0.42212,11.93976 -1.62815,30.75395 -2.23117,40.16104 -0.60302,9.40709 -0.60301,9.40709 -2.35176,12.30158 z"
         id="path5"
         inkscape:label="Leaf shadow 2"
         inkscape:original-d="m 290.17252,310.43394 c -3.49751,5.78897 -6.99502,11.57795 -10.49253,17.36693 -4.70354,0.96483 -9.21146,1.88953 -14.11063,2.89449 -8.71379,1.34058 7.35219,1.44724 -9.40709,1.44724 -0.48241,0.24121 -0.96483,0.48242 -1.44724,0.72363 -0.72363,-0.24121 -1.44237,-0.4808 -2.17087,-0.72363 -1.47199,-9.05053 -2.92974,-18.01344 -4.38644,-26.96994 1.93732,-4.74112 3.8771,-9.48827 5.83368,-14.27652 0.2427,-1.94158 0.48242,-3.85932 0.72363,-5.78898 0.48241,-4.10053 0.96483,-8.20105 1.44724,-12.30158 8.43729,-8.1709 15.94196,-16.77532 23.15591,-26.0504 -0.0807,-10.43284 -0.34339,-20.86514 -0.54271,-31.29666 0.66332,-3.55782 1.32664,-7.11562 1.98996,-10.67343 9.18656,-21.69566 24.22061,-44.85937 36.18111,-65.84962 1.44724,-2.89449 2.89449,-5.78898 4.34173,-8.68347 1.92966,-2.89449 3.85932,-5.78898 5.78898,-8.68347 0,-0.48241 0,-0.96482 0,-1.44724 1.92966,-3.3769 3.85932,-6.75381 5.78898,-10.13071 3.96863,-3.5901 7.97689,-7.21605 11.9059,-10.77031 -2.13802,4.74826 -4.31915,9.59228 -6.47873,14.38842 -3.20152,8.91958 -8.99,16.84124 -14.02018,24.87451 -4.21249,7.95105 -9.08682,15.20499 -13.74883,22.97502 -0.96483,0.96482 -1.92966,1.92965 -2.89449,2.89448 -0.88945,2.5779 -1.7789,5.1558 -2.66835,7.73371 -1.3179,1.16229 -2.17087,1.89442 -2.17087,3.61811 -0.72363,1.68846 -1.44724,3.37691 -2.17086,5.06536 -0.90453,1.47739 -1.80906,2.95478 -2.71358,4.43218 -0.0302,2.20102 -0.0603,4.40203 -0.0905,6.60305 -0.799,3.15078 -1.598,6.30154 -2.397,9.45232 -0.0151,3.46736 -0.0302,6.93472 -0.0452,10.40207 -0.66332,3.69349 -1.32664,7.38698 -1.98996,11.08047 -0.22613,5.35179 -0.45227,10.70358 -0.6784,16.05537 0.36181,5.06535 0.72363,10.13071 1.08544,15.19606 -1.20604,18.81417 -2.41207,37.62836 -3.61811,56.44254 z"
         inkscape:path-effect="#path-effect5"
         sodipodi:nodetypes="cccccccsccccccccccccccccccccccccccc" />
      <path
         style="display:inline;fill:#6dc276;fill-opacity:1;stroke:none;stroke-width:1.89;stroke-opacity:1"
         d="m 308.40935,303.8988 c -1.35232,1.0929 -1.83473,2.29893 -3.7644,7.38691 -1.92966,5.08799 -5.30655,14.05783 -8.4724,20.06542 -3.16586,6.00759 -6.12062,9.05281 -7.56787,11.10308 -1.44726,2.05028 -1.38695,3.10557 -0.27137,4.16085 1.11558,1.05527 3.28645,2.11055 5.33671,2.51759 2.05027,0.40704 3.97992,0.16584 4.34174,0.88946 0.36181,0.72362 -0.84422,2.41206 -1.68845,3.85931 -0.84423,1.44725 -1.32664,2.65328 -1.56785,3.37691 -0.24121,0.72362 -0.24121,0.96483 1.32664,0.36181 1.56785,-0.60302 4.70354,-2.05026 6.6332,-3.01509 1.92966,-0.96483 2.65328,-1.44724 5.14806,-2.52629 2.49478,-1.07905 8.31882,-3.36676 15.9461,-6.96737 7.62728,-3.60062 14.92963,-7.65229 22.44125,-12.19487 7.51162,-4.54258 14.91034,-9.37349 20.04748,-13.2841 5.13714,-3.9106 7.42438,-6.46984 9.43296,-8.36027 2.00858,-1.89043 3.78292,-3.15186 5.9835,-4.96961 2.20059,-1.81774 4.65015,-4.04272 12.87285,-13.78328 8.22269,-9.74057 22.18927,-26.97054 33.68965,-42.33298 11.50039,-15.36244 20.5343,-28.85675 25.40771,-36.56068 4.87342,-7.70392 5.58089,-9.59871 6.10524,-11.58076 0.52435,-1.98205 0.83636,-3.9348 2.04159,-8.2133 1.20524,-4.2785 3.27382,-10.76129 4.42756,-14.30325 1.15375,-3.54196 1.34629,-4.00106 0.90339,-4.10395 -0.4429,-0.1029 -1.48906,0.14902 -2.78658,0.40635 -1.29753,0.25733 -2.70965,0.49269 -4.15461,0.73351 -1.44495,0.24083 -2.8922,0.48204 -4.46005,0.96446 -1.56785,0.48241 -3.2563,1.20603 -4.82414,1.68845 -1.56785,0.48241 -3.0151,0.72362 -5.78898,2.05026 -2.77389,1.32664 -6.87441,3.73871 -9.52769,5.42717 -2.65329,1.68845 -3.85932,2.65328 -5.42717,3.97992 -1.56785,1.32664 -3.49751,3.01509 -5.06536,4.70354 -1.56785,1.68845 -2.77388,3.37691 -3.74485,4.58908 -0.97096,1.21216 -1.78079,2.02199 -2.57579,3.0582 -0.79499,1.03621 -1.75981,2.48343 -3.08645,4.05128 -1.32664,1.56785 -3.0151,3.25631 -3.85932,3.0151 -0.84422,-0.24121 -0.84422,-2.41208 -0.15867,-5.8284 0.68556,-3.41632 1.48713,-6.14165 4.10936,-12.91048 2.62223,-6.76883 6.22805,-14.95347 8.88293,-21.84821 2.65489,-6.89474 4.02608,-11.81498 4.43722,-14.86624 0.41113,-3.05125 0.17911,-5.13949 -0.13275,-6.58872 -0.31185,-1.44923 -0.69436,-2.17683 -0.69582,-4.40623 -0.001,-2.22939 0.37812,-5.96056 0.15041,-11.8744 -0.2277,-5.91383 -1.06268,-14.01021 -2.53783,-17.76126 -1.47515,-3.75105 -3.59046,-3.15674 -8.53677,1.19544 -4.94631,4.35218 -12.72359,12.46219 -16.55658,16.92067 -3.83299,4.45848 -3.72167,5.26541 -3.82863,6.15391 -0.10696,0.88849 -0.43218,1.85853 -0.69409,5.25742 -0.2619,3.3989 -0.46046,9.22647 -0.87664,13.96199 -0.41619,4.73552 -1.04998,8.37893 -1.4421,12.58073 -0.39212,4.20179 -0.54256,8.96197 -1.23525,12.96862 -0.69269,4.00664 -1.92762,7.25974 -2.29293,13.99726 -0.36532,6.73752 0.139,16.95947 -1.37639,24.04896 -1.51538,7.08949 -5.05045,11.04653 -12.06224,18.54225 -7.01179,7.49571 -17.50028,18.5301 -28.54787,29.32178 -11.04758,10.79168 -22.65425,21.34065 -29.5687,27.10502 -6.91444,5.76437 -9.13664,6.74412 -10.48896,7.83703 z"
         id="path6"
         inkscape:path-effect="#path-effect6"
         inkscape:original-d="m 307.53945,303.78566 c -0.48242,1.20604 -0.96483,2.41207 -1.44725,3.61811 -3.37691,8.96993 -6.7538,17.93977 -10.13071,26.9097 -2.9548,3.04525 -5.90956,6.09047 -8.86437,9.13573 0.0603,1.05529 0.12061,2.11058 0.18091,3.16585 2.17086,1.05528 4.34173,2.11056 6.5126,3.16585 1.92966,-0.24121 3.85931,-0.48242 5.78898,-0.72362 -1.20604,1.68845 -2.41207,3.37689 -3.61811,5.06535 -0.48242,1.20604 -0.96484,2.41207 -1.44725,3.61811 0,0.24121 0,0.48242 0,0.72363 3.1357,-1.44725 6.27139,-2.89449 9.40709,-4.34174 0.72362,-0.48242 1.44724,-0.96483 2.17087,-1.44724 4.62158,-0.77027 10.31621,-3.38743 17.88237,-7.02428 7.46216,-4.14034 14.76451,-8.19201 22.14601,-12.2876 7.64174,-4.98957 15.04046,-9.82048 22.92675,-14.96973 2.38799,-2.67196 4.67523,-5.2312 6.94227,-7.76784 1.75012,-1.24421 3.52446,-2.50565 5.35931,-3.81011 2.56632,-2.33103 4.7055,-4.89772 7.49582,-6.80857 13.84041,-17.32993 27.90687,-34.47894 41.89783,-51.68754 9.03497,-13.49588 18.06888,-26.99019 27.0993,-40.47929 0.71641,-1.91875 1.42387,-3.81354 2.14987,-5.75795 0.3227,-2.01969 0.63471,-3.97244 0.95562,-5.98086 2.08957,-6.54858 4.15815,-13.03137 6.26868,-19.64565 0.19696,-0.46964 0.3895,-0.92874 0.58501,-1.39491 -1.08131,0.26038 -2.12747,0.5123 -3.23558,0.77914 -1.48694,0.24782 -2.85899,0.72362 -4.34173,0.72362 -1.44724,0.24121 -2.89449,0.48242 -4.34173,0.72363 -1.68846,0.72362 -3.37691,1.44724 -5.06536,2.17086 -1.44724,0.24121 -2.89449,0.48242 -4.34173,0.72363 -4.10053,2.41207 -8.20105,4.82414 -12.30158,7.23622 -1.20604,0.96483 -2.41207,1.92966 -3.61811,2.89449 -1.92966,1.68845 -3.85932,3.3769 -5.78898,5.06535 -1.20604,1.68845 -2.41207,3.37691 -3.61811,5.06536 -0.72627,0.7455 -1.50905,1.58238 -2.17087,2.17086 -0.96484,1.44727 -1.92966,2.89449 -2.89449,4.34174 -1.68845,1.68845 -3.37691,3.37691 -5.06535,5.06535 0,-2.17086 0,-4.34173 0,-6.5126 1.02954,-4.76223 1.29059,-7.64654 3.61811,-12.30157 3.79903,-8.62319 7.40485,-16.80783 11.39705,-25.8695 1.31757,-4.72781 2.68876,-9.64805 3.76142,-13.49707 -0.25039,-2.25349 -0.48242,-4.34173 -0.72362,-6.5126 -0.38251,-0.72759 -0.76501,-1.45519 -1.14751,-2.18278 0.37958,-3.7312 0.75916,-7.46237 1.13874,-11.19358 -0.83499,-8.09646 -1.66998,-16.19284 -2.50496,-24.28926 -2.11531,0.59431 -4.23062,1.18863 -6.34594,1.78295 -7.7773,8.11004 -15.55458,16.22005 -23.33188,24.33008 0.11132,0.80693 0.22264,1.61386 0.33396,2.42079 -0.32524,0.97006 -0.65046,1.9401 -0.9757,2.91017 -0.19857,5.82772 -0.39714,11.65529 -0.5957,17.48293 -0.6338,3.6434 -1.2676,7.28681 -1.90139,10.93021 -0.15044,4.76019 -0.30088,9.52037 -0.45132,14.28056 -1.23494,3.2531 -2.46987,6.5062 -3.70481,9.7593 0.50431,10.22194 1.00862,20.44389 1.51294,30.66583 -3.53508,3.95704 -7.07015,7.91408 -10.60523,11.87112 -10.4885,11.03439 -20.97699,22.06878 -31.46549,33.10317 -11.60667,10.54897 -23.21334,21.09794 -34.82001,31.64691 -2.22222,0.97977 -4.44442,1.95952 -6.66664,2.93929 z"
         sodipodi:nodetypes="ccccccccccccccccccccccccccccccccccccccccccccccccccccccccc"
         inkscape:label="Leaf shadow 1" />
      <path
         style="display:inline;fill:#cfc12a;fill-opacity:1;stroke:none;stroke-width:1.89;stroke-opacity:1"
         d="m 291.83601,283.52265 c 0.24778,-2.06489 0.58452,-3.11904 2.4963,-6.07383 1.91178,-2.95479 5.38859,-7.77892 7.48881,-10.91463 2.10022,-3.1357 2.82384,-4.58294 4.68593,-6.5568 1.8621,-1.97386 4.54346,-4.20833 7.73268,-6.665 3.18922,-2.45668 6.56613,-4.86876 8.9782,-6.79842 2.41208,-1.92966 3.85932,-3.3769 4.82415,-4.22113 0.96483,-0.84422 1.44724,-1.08543 1.92966,-1.56784 0.48241,-0.48242 0.96483,-1.20604 3.01384,-2.89357 2.04901,-1.68753 5.66902,-4.34221 8.24432,-6.30736 2.57531,-1.96516 3.81781,-3.00057 5.2045,-4.25665 1.38669,-1.25608 2.59272,-2.46211 5.96,-6.18995 3.36728,-3.72784 8.95468,-10.04403 15.69828,-17.26871 6.74359,-7.22468 14.70348,-15.42577 18.80401,-19.7675 4.10053,-4.34174 4.34173,-4.82415 4.70354,-5.18596 0.36181,-0.36182 0.84423,-0.60302 1.20604,-0.72363 0.36181,-0.1206 0.60302,-0.1206 0.24122,7.23602 -0.3618,7.35663 -1.32532,22.05042 -2.91998,31.9166 -1.59465,9.86618 -3.23256,13.5488 -13.17087,24.7612 -9.93831,11.2124 -20.63254,21.31407 -28.1459,28.24327 -7.51335,6.92921 -9.67877,8.63897 -15.00951,13.28618 -5.33074,4.64722 -13.82921,12.23404 -19.12916,16.41319 -5.29995,4.17914 -5.80544,4.36532 -11.57036,6.35146 -5.76491,1.98614 -5.45177,1.88753 -7.70582,1.50514 -2.25404,-0.38239 -3.59821,-1.35995 -4.31114,-4.56919 -0.71293,-3.20925 -0.25691,-7.38657 0.0572,-11.10389 0.31414,-3.71732 0.44624,-6.58412 0.69403,-8.649 z"
         id="path7"
         inkscape:path-effect="#path-effect7"
         inkscape:original-d="m 291.72706,282.57448 c 0.35673,-1.11672 0.69347,-2.17087 1.04021,-3.2563 3.47682,-4.82415 6.95363,-9.64828 10.43045,-14.47244 0.72362,-1.44725 1.44724,-2.89449 2.17086,-4.34174 3.78973,-1.55348 6.1405,-4.18465 8.68347,-7.23622 3.3769,-2.41207 6.75381,-4.82415 10.13071,-7.23622 1.44724,-1.44725 2.89449,-2.89449 4.34173,-4.34173 0.48242,-0.24121 0.96483,-0.48242 1.44725,-0.72363 0.48241,-0.72362 0.96483,-1.44724 1.44724,-2.17086 3.43724,-2.89467 7.17716,-5.38583 10.85434,-7.95985 0.93226,-1.99613 2.46707,-2.68077 4.34173,-3.61811 1.20604,-1.20604 2.41207,-2.41207 3.61811,-3.61811 6.54424,-5.35112 11.97026,-11.81007 16.64331,-18.81418 7.9598,-8.20101 15.91969,-16.4021 23.87954,-24.60315 0.2412,-0.48242 0.48241,-0.96483 0.72362,-1.44725 0.48241,-0.24121 0.96483,-0.48241 1.44724,-0.72362 0.24121,0 0.48242,0 0.72362,0 -0.9648,14.71325 -1.92832,29.40704 -2.89448,44.14096 -2.22315,4.99844 -3.86106,8.68106 -6.66027,14.97471 -17.07741,16.13115 -27.77164,26.23282 -40.63291,38.38145 -2.16544,1.70978 -4.33086,3.41954 -6.4963,5.12931 -8.49604,7.58466 -16.99451,15.17148 -25.48811,22.75397 -2.1063,0.77579 -2.61179,0.96198 -9.00433,3.3165 -5.13729,1.61776 -4.82415,1.51915 -7.23622,2.27872 -2.09602,-1.52435 -3.44019,-2.50191 -5.41031,-3.93469 0.54426,-4.98571 1.00028,-9.16303 1.49465,-13.69167 0.13391,-2.906 0.26601,-5.7728 0.40485,-8.78585 z"
         inkscape:label="Corn shadow"
         sodipodi:nodetypes="ccccccccccccccccccccccccccc" />
      <path
         style="fill:#e0d459;fill-opacity:1;stroke:none;stroke-width:1.89;stroke-opacity:1"
         d="m 307.12455,224.9604 c 0.7949,-2.40205 2.26597,-4.02236 3.84448,-5.27166 1.5785,-1.2493 3.26444,-2.1276 5.19076,-2.64533 1.92631,-0.51774 4.09297,-0.67492 5.5348,-0.1252 1.44183,0.54972 0.72489,-0.70691 2.69197,2.98707 1.96707,3.69399 0.97649,1.68428 1.47178,3.05094 0.49529,1.36667 0.49529,2.09029 -0.72353,3.67092 -1.21881,1.58063 -3.58437,3.94618 -5.64511,5.64512 -2.06075,1.69893 -3.7492,2.66376 -6.28045,2.68608 -2.53125,0.0223 -4.50032,-0.5147 -5.74932,-2.46342 -1.24901,-1.94871 -1.13028,-5.13248 -0.33538,-7.53452 z"
         id="path21"
         inkscape:path-effect="#path-effect21"
         inkscape:original-d="m 306.44837,224.17867 c 1.47108,-1.62032 2.94215,-3.24063 4.41323,-4.86094 1.68593,-0.87829 3.37187,-1.75659 5.05781,-2.63488 2.16669,-0.15719 4.33335,-0.31437 6.50007,-0.47155 0.71695,1.25663 0,0 2.1508,3.76986 1.78335,3.61811 0.79277,1.6084 1.78335,3.61811 0,0.72362 0,1.44724 0,2.17087 -2.00462,2.87064 -4.53285,5.07352 -7.23623,7.23622 -1.68845,0.96483 -3.3769,1.92966 -5.06535,2.89449 -3.63019,0.019 -5.48585,-0.93386 -7.95985,-2.17087 0.11872,-3.18377 0.23745,-6.36754 0.35617,-9.55131 z"
         sodipodi:nodetypes="ccccccccccc"
         inkscape:label="Highlight 1" />
      <path
         style="fill:#e0d459;fill-opacity:1;stroke:none;stroke-width:1.89;stroke-opacity:1"
         d="m 315.01688,168.48338 c -1.44725,-0.12061 -2.65328,0.36181 -2.65328,0.36181 0,0 1.20603,-0.48242 0.84422,-0.24121 -0.36181,0.24121 -2.29147,1.20604 -3.85932,2.53268 -1.56784,1.32664 -2.77388,3.01509 -3.2575,4.43748 -0.48362,1.4224 -0.32051,2.2122 1.94143,3.48454 2.26195,1.27235 5.27469,2.188 8.05923,3.94709 2.78453,1.7591 4.7142,4.17117 5.79963,6.10084 1.08544,1.92966 1.32664,3.3769 2.09747,4.39859 0.77083,1.0217 0.98032,1.11773 4.01148,0.0811 3.03117,-1.03661 7.43497,-3.52787 10.99146,-5.94859 3.55648,-2.42073 5.9349,-4.56131 7.62335,-6.00855 1.68845,-1.44724 2.65328,-2.17087 3.8853,-3.03242 1.23202,-0.86154 2.53862,-1.73261 4.20253,-3.01254 1.66391,-1.27993 3.24889,-2.63849 3.96584,-4.33093 0.71694,-1.69245 0.46236,-3.63001 -0.27527,-4.96398 -0.73763,-1.33396 -1.95829,-2.06427 -3.71928,-2.52536 -1.76098,-0.4611 -4.06227,-0.65298 -6.91728,-0.13605 -2.85501,0.51693 -3.67096,0.81033 -6.2382,2.40296 -2.56724,1.59263 -7.50997,5.55986 -8.80484,6.71977 -1.29487,1.15991 -1.29487,1.40112 -1.89788,1.76293 -0.60302,0.36181 -1.80906,0.84423 -3.25631,0.60302 -1.44724,-0.24121 -3.13569,-1.20604 -4.37543,-2.08397 -1.23974,-0.87793 -2.39338,-2.03157 -3.71252,-2.86829 -1.31914,-0.83672 -3.00759,-1.56034 -4.45483,-1.68094 z"
         id="path22"
         inkscape:path-effect="#path-effect22"
         inkscape:original-d="m 314.77567,167.88036 c -1.20604,0.48241 -2.41207,0.96483 -3.61811,1.44724 1.20604,-0.48241 2.41207,-0.96483 3.61811,-1.44724 -1.92966,0.96483 -3.85932,1.92966 -5.78898,2.89449 -1.20603,1.68845 -2.41207,3.3769 -3.61811,5.06535 0.2388,1.15634 0.40191,1.94614 0.65966,3.19423 4.26614,1.29659 7.27888,2.21225 10.9183,3.31837 1.92965,2.41207 3.85932,4.82414 5.78898,7.23622 0.2412,1.44725 0.48241,2.89449 0.72362,4.34174 1.30045,0.59614 1.50994,0.69216 2.83429,1.29926 4.72825,-2.69751 8.85036,-5.68672 13.80902,-7.81186 2.44573,-2.20116 4.82415,-4.34174 7.23622,-6.5126 0.96483,-0.72362 1.92966,-1.44725 2.89449,-2.17087 1.93662,-0.34336 3.0106,-1.56336 4.34173,-2.89449 1.7919,-1.53591 3.37688,-2.89447 5.06536,-4.34173 -0.25459,-1.93763 -0.50917,-3.87519 -0.76375,-5.8128 -1.22068,-0.73032 -2.44134,-1.46063 -3.66201,-2.19094 -2.3013,-0.19188 -4.60259,-0.38376 -6.90389,-0.57564 -3.40872,1.22574 -4.22467,1.51915 -6.33702,2.27872 -3.1919,2.21416 -6.29648,8.47153 -10.5546,8.47153 0,0.2412 0,0.48241 0,0.72362 -1.20603,0.48241 -2.41207,0.96483 -3.61811,1.44724 -1.68845,-0.96483 -3.3769,-1.92966 -5.06535,-2.89449 -0.64644,-0.93561 -1.94467,-1.94466 -2.89449,-2.89449 -1.68846,-0.72362 -3.37691,-1.44724 -5.06536,-2.17086 z"
         sodipodi:nodetypes="cccccccccccccccccsccccccc"
         inkscape:label="Highlight 2" />
      <path
         style="fill:#e0d459;fill-opacity:1;stroke:none;stroke-width:1.89;stroke-opacity:1"
         d="m 331.05717,211.78011 c 0.1206,-1.44725 0.60302,-2.41208 0.60302,-2.41208 0,0 -0.48242,0.96483 0.70854,-1.31156 1.19096,-2.27639 4.0553,-7.794 8.27644,-12.37696 4.22115,-4.58295 9.79906,-8.2312 14.51767,-11.02016 4.71861,-2.78896 8.57792,-4.71861 11.35181,-5.92466 2.7739,-1.20604 4.46235,-1.68845 7.23655,-2.53278 2.7742,-0.84432 6.63211,-2.04992 9.04457,-2.41185 2.41246,-0.36194 3.37729,0.12048 4.58333,0.84411 1.20604,0.72362 2.65328,1.68845 2.89449,2.89448 0.24121,1.20604 -0.72362,2.65329 -3.61811,5.90958 -2.89448,3.2563 -7.71869,8.32172 -10.73375,11.57798 -3.01506,3.25627 -4.22112,4.70353 -5.14113,5.74415 -0.92002,1.04062 -1.25137,1.37196 -2.09533,2.33654 -0.84397,0.96457 -2.05,2.41181 -4.10027,4.34147 -2.05026,1.92966 -4.94475,4.34174 -6.99502,5.78898 -2.05026,1.44725 -3.25629,1.92966 -4.22112,2.41208 -0.96483,0.48241 -1.68846,0.96483 -2.77389,1.32664 -1.08543,0.36181 -2.53268,0.60301 -5.78898,0.60301 -3.2563,0 -8.32165,-0.2412 -10.97493,-1.32664 -2.65329,-1.08543 -2.89449,-3.01509 -2.77389,-4.46233 z"
         id="path23"
         inkscape:path-effect="#path-effect23"
         inkscape:original-d="m 330.69536,211.29769 c 0.48241,-0.96483 0.96483,-1.92966 1.44724,-2.89449 -0.48241,0.96483 -0.96483,1.92966 -1.44724,2.89449 2.86433,-5.51761 5.72867,-11.03522 8.59301,-16.55285 5.57795,-3.64828 11.15586,-7.29653 16.73377,-10.94479 3.85931,-1.92966 7.71862,-3.85931 11.57795,-5.78898 1.68846,-0.48242 3.37691,-0.96483 5.06536,-1.44725 3.90469,-1.06306 7.74062,-2.33899 11.57796,-3.61811 0.96482,0.48242 1.92965,0.96483 2.89448,1.44725 1.44725,0.96483 2.89449,1.92966 4.34174,2.89449 -0.96483,1.44724 -1.92966,2.89449 -2.89449,4.34173 -4.82414,5.06535 -9.64835,10.13077 -14.47245,15.19607 -1.20602,1.44723 -2.41208,2.89449 -3.61811,4.34173 -0.85832,0.40968 -1.44724,0.48345 -1.44724,1.44724 -1.20604,1.44725 -2.41208,2.89449 -3.61811,4.34174 -2.89449,2.41207 -5.78898,4.82415 -8.68347,7.23622 -1.20604,0.48242 -2.41207,0.96483 -3.61811,1.44725 -0.72362,0.48241 -1.44725,0.96482 -2.17087,1.44724 -1.44724,0.24121 -2.89449,0.48241 -4.34173,0.72362 -5.06536,-0.24121 -10.13071,-0.48241 -15.19607,-0.72362 -0.24121,-1.92966 -0.48241,-3.85932 -0.72362,-5.78898 z"
         sodipodi:nodetypes="ccccccccccccccccccccc" />
      <path
         style="fill:#e0d459;fill-opacity:1;stroke:none;stroke-width:1.89;stroke-opacity:1"
         d="m 342.63512,147.37773 c -1.08543,0.96483 -1.08543,0.96483 -1.56784,2.17087 -0.48242,1.20603 -1.44725,3.61811 -1.08544,5.30656 0.36182,1.68845 2.05027,2.65328 3.85932,2.77388 1.80906,0.12061 3.73872,-0.60302 5.90959,-0.96483 2.17086,-0.36181 4.58294,-0.36181 11.93976,-2.17087 7.35683,-1.80905 -2.37639,1.05366 3.69625,-0.86011 6.07265,-1.91377 8.48473,-2.8786 11.49982,-3.96403 3.01509,-1.08544 6.6332,-2.29147 8.80407,-3.0151 2.17087,-0.72362 2.89449,-0.96482 3.13137,-1.7101 0.23687,-0.74527 0.0191,-1.83412 -0.36487,-2.98605 -0.38398,-1.15193 -0.83684,-2.05765 -1.69221,-3.10717 -0.85536,-1.04953 -2.08367,-2.18374 -3.0485,-2.78676 -0.96483,-0.60302 -1.66617,-0.67484 -4.54953,-0.71075 -2.88335,-0.0359 -7.9487,-0.0359 -11.67464,0.32207 -3.72595,0.35798 -6.08596,1.06598 -8.41623,2.04245 -2.33028,0.97647 -4.50115,2.18251 -6.3102,3.02674 -1.80906,0.84422 -3.2563,1.32664 -5.06536,2.53267 -1.80905,1.20604 -3.97992,3.1357 -5.06536,4.10053 z"
         id="path24"
         inkscape:path-effect="#path-effect24"
         inkscape:original-d="m 341.54969,148.34256 v 0 c -0.96483,2.41207 -1.92966,4.82415 -2.89449,7.23622 1.68846,0.96483 3.37691,1.92966 5.06536,2.89449 1.92966,-0.72362 3.85932,-1.44725 5.78898,-2.17087 2.41207,0 4.82415,0 7.23622,0 15.32206,-3.40486 2.45072,-1.15537 12.30158,-3.61811 2.41207,-0.96483 4.82415,-1.92966 7.23622,-2.89449 3.61811,-1.20604 7.23622,-2.41207 10.85433,-3.61811 0.72363,-0.24121 1.44725,-0.48241 2.17087,-0.72362 -0.79662,-1.13999 -0.72362,-2.28699 -0.72362,-3.61811 -0.51197,-1.02394 -0.96483,-1.92966 -1.44725,-2.89449 -1.22831,-1.13422 -2.45662,-2.26843 -3.68493,-3.40265 -0.70135,-0.0718 -1.40269,-0.14364 -2.10404,-0.21546 -5.06536,0 -10.13071,0 -15.19607,0 -2.06345,1.79288 -4.63399,1.79912 -7.23622,2.17086 -2.17087,1.20604 -4.34174,2.41208 -6.5126,3.61812 -1.44725,0.48241 -2.89449,0.96482 -4.34174,1.44724 -2.17086,1.92966 -4.34173,3.85932 -6.5126,5.78898 z"
         sodipodi:nodetypes="ccccccccscccccccccc" />
      <path
         style="fill:#e0d459;fill-opacity:1;stroke:none;stroke-width:1.89;stroke-opacity:1"
         d="m 358.55482,111.55843 c 3.2563,-2.53268 8.32165,-5.66837 11.93976,-7.47743 3.61811,-1.80906 5.78898,-2.29147 7.71864,-3.1357 1.92966,-0.84422 3.61811,-2.050262 5.87439,-2.436042 2.25628,-0.385779 5.699,0.14387 7.14852,0.867846 1.44953,0.723976 1.20832,1.688806 1.08772,3.015446 -0.1206,1.32664 -0.1206,3.01509 -1.20525,4.72704 -1.08465,1.71194 -3.75986,3.85211 -7.622,5.74984 -3.86215,1.89772 -4.63131,2.16919 -8.69606,3.8663 -4.06475,1.69711 -5.99441,2.90315 -8.8889,4.47099 -2.89448,1.56785 -6.7538,3.49751 -9.16588,4.46234 -2.41207,0.96483 -3.3769,0.96483 -4.3568,0.4372 -0.9799,-0.52764 -1.9749,-1.58294 -1.9749,-3.03017 0,-1.44724 1.08703,-3.45659 2.26212,-5.25596 1.17509,-1.79937 2.62234,-3.72902 5.87864,-6.2617 z"
         id="path25"
         inkscape:path-effect="#path-effect25"
         inkscape:original-d="m 356.74576,112.16145 c 5.06536,-3.1357 10.13071,-6.2714 15.19607,-9.40709 2.17086,-0.48242 4.34173,-0.96483 6.5126,-1.44725 1.68845,-1.20603 3.3769,-2.412072 5.06535,-3.618109 3.0946,-1.323726 6.33432,0.525414 9.40709,1.447245 -0.24121,0.964834 -0.48241,1.929664 -0.72362,2.894484 0,1.68846 0,3.37691 0,5.06536 -2.07364,1.85502 -4.78472,3.95035 -7.23622,5.78898 -5.60144,1.1203 -6.37526,1.37857 -12.30158,4.34173 -1.92966,1.20604 -3.85932,2.41208 -5.78898,3.61811 -3.85931,1.92966 -7.71863,3.85932 -11.57795,5.78898 -0.96483,0 -1.92966,0 -2.89449,0 -0.99497,-1.05527 -1.98997,-2.11057 -2.98494,-3.16584 0.99497,-1.8392 2.08199,-3.84855 2.98494,-5.51763 1.44724,-1.92966 2.89449,-3.85931 4.34173,-5.78897 z"
         sodipodi:nodetypes="ccccccccccccccc" />
      <path
         style="fill:#e0d459;fill-opacity:1;stroke:none;stroke-width:1.89;stroke-opacity:1"
         d="m 351.94422,91.330925 c -0.26382,0.569098 -0.26382,0.569098 0.56533,1.26257 0.82915,0.693471 2.48745,2.080413 4.01007,2.864338 1.52263,0.783925 2.90957,0.964829 4.13069,0.753773 1.22111,-0.211057 2.27639,-0.814075 4.49248,-1.959812 2.2161,-1.145736 5.593,-2.834187 7.88447,-4.28143 2.29147,-1.447244 3.49751,-2.653281 5.06594,-3.859681 1.56843,-1.2064 3.49633,-2.411338 4.4313,-3.57234 0.93498,-1.161001 0.87468,-2.27657 0.15106,-2.879593 -0.72363,-0.603022 -2.11057,-0.693475 -4.25128,-0.859304 -2.14072,-0.16583 -5.03521,-0.407038 -7.34176,-0.10176 -2.30654,0.305277 -4.02514,1.157039 -5.47616,1.797749 -1.45102,0.64071 -2.63443,1.070356 -3.93469,1.827901 -1.30027,0.757546 -2.71736,1.842978 -4.13822,2.92464 -1.42086,1.081663 -2.84549,2.159559 -3.82163,3.267605 -0.97613,1.108047 -1.50378,2.246246 -1.7676,2.815344 z"
         id="path26"
         inkscape:path-effect="#path-effect26"
         inkscape:original-d="m 351.6804,91.900023 v 0 c 1.6583,1.386943 3.3166,2.773883 4.9749,4.160829 1.38695,0.180905 2.77389,0.36181 4.16084,0.542716 1.05528,-0.60302 2.11056,-1.206037 3.16584,-1.809056 3.37691,-1.688451 6.75381,-3.376903 10.13071,-5.065355 1.20604,-1.206037 2.41208,-2.412074 3.61812,-3.618111 1.97488,-1.136262 3.8942,-2.354927 5.78897,-3.618112 -0.0603,-1.115592 -0.1206,-2.231161 -0.1809,-3.346753 -1.38695,-0.09045 -2.77389,-0.180905 -4.16083,-0.271358 -2.89449,-0.241207 -5.78898,-0.482415 -8.68347,-0.723622 -1.7186,0.851764 -3.4372,1.703525 -5.15581,2.555291 -1.18343,0.429652 -2.36684,0.8593 -3.55027,1.288952 -1.4171,1.085436 -2.83419,2.17087 -4.25128,3.2563 -1.42463,1.077893 -2.84926,2.155791 -4.27389,3.233687 -0.52764,1.138198 -1.05529,2.276395 -1.58293,3.414592 z"
         sodipodi:nodetypes="cccccccccccccccc" />
      <path
         style="display:inline;fill:none;stroke:#000000;stroke-width:1.89;stroke-opacity:1"
         d="m 235.68776,242.31799 c -4.51752,-4.84962 -7.98191,-9.30385 -12.44728,-14.13189 -4.46536,-4.82804 -10.01313,-10.1346 -14.41522,-16.91265 -4.40208,-6.77806 -11.20117,-24.00242 -12.32421,-27.54696 -1.12304,-3.54453 -2.56927,-8.60634 -3.65522,-12.10563 -1.08594,-3.49929 -1.80956,-5.42895 -2.54219,-7.25903 -0.73263,-1.83008 -1.41468,-3.42151 -2.19925,-5.23606 -0.78456,-1.81454 -11.92784,-27.37852 -12.69903,-29.33218 -0.77119,-1.95366 -1.97723,-5.08936 -2.70139,-8.11088 -0.72416,-3.02151 -0.96301,-5.88773 -0.72244,-9.03114 0.24056,-3.14341 0.96419,-6.52031 2.17022,-10.01782 1.20604,-3.497504 2.89449,-7.115615 4.18013,-9.07181 1.28565,-1.956195 1.74656,-2.109831 5.04517,1.553259 3.29862,3.66309 8.89422,11.035071 14.15417,17.704761 5.25996,6.66968 9.99761,12.39684 14.56181,18.13061 4.56421,5.73377 8.92877,11.44248 11.47287,14.89986 2.5441,3.45739 3.26772,4.66342 4.11194,5.74886 0.84423,1.08543 1.80906,2.05026 3.2563,3.73871 1.44725,1.68845 3.37691,4.10053 5.7476,7.35934 2.37069,3.25881 5.18241,7.36435 10.6408,15.48848 5.45839,8.12413 1.30575,1.9028 7.38282,11.68911 6.07707,9.78631 8.18648,14.31029 9.86553,11.84909 1.67905,-2.4612 2.92772,-11.90762 4.98195,-19.42202 2.05422,-7.51439 4.91403,-13.09688 8.00248,-19.52023 3.08846,-6.42335 6.40556,-13.68753 7.9432,-17.92437 1.53763,-4.23684 1.30194,-5.41524 4.00124,-12.8634 2.6993,-7.44816 4.45677,-11.7031 10.75932,-26.60716 6.30254,-14.904059 12.61453,-29.470189 16.21884,-37.398192 3.60431,-7.928003 4.56914,-9.375247 6.46051,-8.148011 1.89137,1.227235 5.47258,6.185839 8.05809,10.50912 2.5855,4.323281 4.93226,9.185603 8.41846,9.883303 3.48619,0.697699 8.20377,-2.578904 12.88663,-4.92953 4.68285,-2.350626 9.17995,-3.728997 13.51354,-5.225817 4.33359,-1.49682 8.02184,-2.948743 12.38728,-4.238424 4.36544,-1.289682 9.36858,-2.409264 15.25452,-3.265161 5.88594,-0.855897 11.38053,-1.295465 15.97837,0.677532 4.59783,1.972997 7.61355,6.413387 9.42261,10.996327 1.80905,4.582941 2.42012,9.376555 3.32,14.237919 0.89987,4.861363 2.1059,9.92672 2.70892,14.027244 0.60302,4.10053 0.60302,7.23622 0.72362,9.16588 0.12061,1.92966 0.36181,2.65328 1.08544,6.99502 0.72362,4.34173 1.92966,12.30157 1.9144,19.18246 -0.0153,6.88089 -1.25182,12.68285 0.55849,12.92134 1.81031,0.23849 6.66749,-5.08647 13.33203,-11.38 6.66455,-6.29353 10.37213,-9.47166 14.55707,-13.62066 4.18494,-4.14901 4.60222,-5.30433 5.21527,-6.60296 0.61305,-1.29864 1.33667,-2.50467 2.66332,-3.95191 1.32664,-1.44725 3.25629,-3.1357 5.16381,-5.15828 1.90751,-2.02259 3.89326,-4.50477 6.39324,-6.6394 2.49999,-2.13463 5.4652,-3.935565 8.03655,-5.209534 2.57135,-1.27397 4.69044,-1.98549 5.85033,-2.286312 1.15989,-0.300822 3.31765,0.879404 3.67946,1.964835 0.36181,1.085432 -0.0939,2.611271 -0.69541,4.626211 -0.60156,2.01494 -1.34901,4.51898 -5.48933,20.2096 -4.14032,15.69063 -4.7895,18.17917 -10.29541,31.63306 -5.5059,13.4539 4.32896,-9.92635 -1.19149,2.72861 -5.52045,12.65496 -6.72648,14.58461 -7.93252,17.23789 -1.20604,2.65329 -2.41207,6.03018 -3.35307,8.50725 -0.94099,2.47707 -1.70469,4.25903 -2.59807,7.53484 -0.89337,3.27582 -1.94892,8.12129 -2.8385,11.38825 -0.88958,3.26696 -1.61321,4.95541 -3.98921,8.82951 -2.37601,3.87409 -6.19701,9.62186 -10.47366,16.04156 -4.27665,6.4197 -8.79401,13.18777 -12.25107,18.12818 -3.45706,4.94041 -5.86914,8.0761 -13.33068,17.51518 -7.46155,9.43907 -19.97256,25.18152 -27.84114,33.82158 -7.86858,8.64007 -11.09472,10.17776 -13.6274,12.22803 -2.53268,2.05026 -4.37189,4.61309 -6.04526,6.48244 -1.67337,1.86935 -3.18092,3.04524 -7.81186,6.21287 -4.63094,3.16764 -12.06925,8.11674 -18.01637,11.91514 -5.94713,3.79839 -10.02875,6.19934 -15.73933,9.33701 -5.71058,3.13767 -12.51842,6.7299 -20.09305,10.30593 -7.57463,3.57603 -15.50756,6.92881 -24.54509,5.6572 -9.03753,-1.27161 -19.00443,-7.15568 -24.49266,-12.523 -5.48824,-5.36732 -6.45307,-10.19146 -8.14152,-16.6136 -1.68845,-6.42214 -4.10052,-14.44229 -5.18596,-23.36698 -1.08543,-8.9247 -0.8207,-19.71251 -0.10884,-26.19806 0.71186,-6.48554 1.91789,-10.58607 2.27971,-14.08358 0.36181,-3.4975 -0.12061,-6.39199 -0.60302,-9.28648 -2.96339,-2.82228 -9.44439,-8.99466 -13.96191,-13.84428 z"
         id="path1"
         inkscape:path-effect="#path-effect1"
         inkscape:original-d="m 234.4536,241.68983 c -3.7967,-3.8222 -6.92528,-8.53761 -10.13071,-13.0252 -5.54777,-5.30657 -11.09554,-10.61313 -16.64331,-15.91969 -5.38853,-7.40792 -10.85433,-25.15858 -10.85433,-27.49765 -1.85366,-4.94921 -3.06243,-10.07887 -4.34174,-15.19607 -0.72362,-1.92965 -1.44724,-3.85931 -2.17086,-5.78897 -1.3013,-1.49065 -1.70488,-3.20142 -2.17087,-5.06536 -1.4276,-1.62166 -12.13266,-27.37666 -12.30158,-28.22127 -1.20603,-3.13569 -2.41207,-6.27139 -3.61811,-9.40709 0.22483,-2.94626 -0.24195,-5.79348 -0.72362,-8.68346 0.72362,-3.37691 1.44724,-6.75381 2.17087,-10.13071 1.68845,-3.618114 3.3769,-7.236225 5.06535,-10.854337 1.02046,0.118593 1.4816,-0.03435 2.17087,-0.723622 5.77011,7.601885 11.36571,14.973869 17.09557,22.522739 4.79005,5.7905 9.52769,11.51766 14.29154,17.27648 4.36457,5.70872 8.72913,11.41743 13.09371,17.12616 0.72362,1.20604 1.44724,2.41207 2.17086,3.61811 0.96483,0.96483 1.92966,1.92966 2.89449,2.89449 1.92966,2.41207 3.85932,4.82415 5.78898,7.23622 2.81172,4.10555 5.62344,8.21109 8.43516,12.31664 10.58444,10.48776 6.19824,4.42233 13.99713,20.96999 2.10943,4.52401 4.21884,9.04799 6.32826,13.572 1.24868,-9.44641 2.49736,-18.89283 3.74602,-28.33918 2.85978,-5.58244 5.71959,-11.16493 8.57938,-16.7474 3.31712,-7.26423 6.63422,-14.52841 9.95137,-21.79269 0.15225,-1.28823 -0.32377,-2.41856 -0.72363,-3.61811 6.62959,-13.25919 3.82789,-19.39727 13.74883,-33.28663 5.85444,-14.617483 13.82942,-28.462983 18.81417,-43.41733 0.96483,-1.447245 1.92966,-2.894489 2.89449,-4.341734 4.12874,2.955003 6.61247,8.706234 9.40709,13.025201 2.16304,4.481683 4.5098,9.344004 6.76468,14.015958 4.71751,-3.276558 9.43509,-6.55316 14.15264,-9.829741 4.64816,-1.424669 9.14526,-2.803041 13.94447,-4.274008 3.86797,-1.522674 7.55622,-2.974595 11.2387,-4.424248 5.0484,-1.129711 10.05154,-2.249293 15.4074,-3.447806 6.25898,-2.476252 11.75849,-2.854367 18.09056,-1.447245 3.01572,4.44039 6.03144,8.88078 9.04716,13.321169 0.60239,4.725492 1.21346,9.519107 1.80717,14.176476 1.20604,5.065356 2.41208,10.130712 3.61811,15.196068 0,3.1357 0,6.27139 0,9.40709 0.24121,0.72362 0.48242,1.44724 0.72362,2.17086 1.20604,7.95985 2.41208,15.91969 3.61812,23.87954 -1.23655,5.80193 -2.47311,11.60389 -3.70967,17.40582 4.85717,-5.32495 9.71435,-10.64991 14.57153,-15.97488 8.47191,-7.26209 12.17949,-10.44022 19.96169,-17.11109 0.58768,-1.62714 1.00496,-2.78246 1.50744,-4.17369 0.72362,-1.20604 1.44724,-2.41207 2.17087,-3.61811 1.92966,-1.68845 3.85931,-3.3769 5.78898,-5.06536 1.3874,-2.75508 3.76534,-4.9235 5.78897,-7.23622 3.08211,-1.87193 6.04732,-3.672866 9.07099,-5.509303 2.11903,-0.711501 4.23812,-1.423021 6.35709,-2.134502 0.20081,0.109838 2.35857,1.290061 3.53785,1.935092 -0.45566,1.525835 -0.91133,3.051673 -1.36699,4.577503 -0.74745,2.50405 -1.4949,5.00809 -2.24235,7.51213 -7.53318,28.87721 -8.35579,31.32051 -8.68347,33.28662 -14.77303,44.23065 -1.08905,1.43286 -10.51071,24.98692 -1.20604,1.92967 -2.41207,3.85932 -3.61811,5.78898 -1.20604,3.37691 -2.41207,6.7538 -3.61811,10.13071 0.18627,1.94675 -1.20699,3.4589 -2.17086,5.06535 -1.05554,4.84547 -2.11109,9.69094 -3.16663,14.53641 -0.72362,1.68845 -1.44725,3.3769 -2.17087,5.06535 -4.02839,6.05974 -7.84939,11.80751 -11.92535,17.93881 -5.0706,6.31213 -8.99838,13.47372 -13.49675,20.22129 -2.41207,3.1357 -4.82415,6.27139 -7.23622,9.40709 -12.51102,15.74245 -25.02203,31.4849 -37.53304,47.22733 -3.22615,1.5377 -6.45229,3.07539 -9.67844,4.61309 -1.83921,2.56283 -3.67842,5.12566 -5.51762,7.68848 -1.50754,1.17588 -3.01509,2.35177 -4.52264,3.52766 -6.46646,7.095 -14.55016,11.0741 -22.97501,15.28652 -3.89556,2.78649 -8.04513,5.07193 -12.30158,7.23622 -7.88209,2.78046 -15.0299,5.72838 -21.25639,11.21615 -8.01379,3.38695 -15.94672,6.73974 -23.96999,10.13071 -10.05179,-5.9342 -20.01869,-11.81826 -30.03033,-17.72875 -0.96483,-4.82415 -1.92966,-9.64829 -2.89449,-14.47244 -2.41207,-8.02013 -4.82414,-16.04028 -7.23622,-24.06044 0.24121,-9.82923 0.50594,-20.61704 0.72362,-29.48761 1.20604,-4.10052 2.41208,-8.20105 3.61811,-12.30157 -0.48241,-2.89449 -1.44724,-8.68347 -1.44724,-8.68347 -2.51883,-3.28907 -8.97064,-9.4921 -15.19607,-14.47244 z"
         sodipodi:nodetypes="ccccccccccccccccccccscccccccccccccccccccccccccccccccccccccccccccccccccccccccccc"
         inkscape:label="Outline" />
    </g>
  </g>
</svg>
