<?xml version="1.0" encoding="UTF-8" standalone="no"?>
<!-- Created with Inkscape (http://www.inkscape.org/) -->

<svg
   version="1.1"
   id="svg1"
   width="793.59998"
   height="559.35999"
   viewBox="0 0 793.59998 559.35999"
   sodipodi:docname="Garlic.svg"
   inkscape:version="1.4 (86a8ad7, 2024-10-11)"
   xmlns:inkscape="http://www.inkscape.org/namespaces/inkscape"
   xmlns:sodipodi="http://sodipodi.sourceforge.net/DTD/sodipodi-0.dtd"
   xmlns="http://www.w3.org/2000/svg"
   xmlns:svg="http://www.w3.org/2000/svg">
  <defs
     id="defs1">
    <inkscape:path-effect
       effect="bspline"
       id="path-effect8"
       is_visible="true"
       lpeversion="1.3"
       weight="33.333333"
       steps="2"
       helper_size="0"
       apply_no_weight="true"
       apply_with_weight="true"
       only_selected="false"
       uniform="false" />
    <inkscape:path-effect
       effect="bspline"
       id="path-effect6"
       is_visible="true"
       lpeversion="1.3"
       weight="33.333333"
       steps="2"
       helper_size="0"
       apply_no_weight="true"
       apply_with_weight="true"
       only_selected="false"
       uniform="false" />
    <inkscape:path-effect
       effect="bspline"
       id="path-effect5"
       is_visible="true"
       lpeversion="1.3"
       weight="33.333333"
       steps="2"
       helper_size="0"
       apply_no_weight="true"
       apply_with_weight="true"
       only_selected="false"
       uniform="false" />
    <inkscape:path-effect
       effect="bspline"
       id="path-effect4"
       is_visible="true"
       lpeversion="1.3"
       weight="33.333333"
       steps="2"
       helper_size="0"
       apply_no_weight="true"
       apply_with_weight="true"
       only_selected="false"
       uniform="false" />
    <inkscape:path-effect
       effect="bspline"
       id="path-effect3"
       is_visible="true"
       lpeversion="1.3"
       weight="33.333333"
       steps="2"
       helper_size="0"
       apply_no_weight="true"
       apply_with_weight="true"
       only_selected="false"
       uniform="false" />
    <inkscape:path-effect
       effect="bspline"
       id="path-effect2"
       is_visible="true"
       lpeversion="1.3"
       weight="33.333333"
       steps="2"
       helper_size="0"
       apply_no_weight="true"
       apply_with_weight="true"
       only_selected="false"
       uniform="false" />
    <inkscape:path-effect
       effect="bspline"
       id="path-effect1"
       is_visible="true"
       lpeversion="1.3"
       weight="33.333333"
       steps="2"
       helper_size="0"
       apply_no_weight="true"
       apply_with_weight="true"
       only_selected="false"
       uniform="false" />
  </defs>
  <sodipodi:namedview
     id="namedview1"
     pagecolor="#ffffff"
     bordercolor="#111111"
     borderopacity="1"
     inkscape:showpageshadow="0"
     inkscape:pageopacity="0"
     inkscape:pagecheckerboard="1"
     inkscape:deskcolor="#d1d1d1"
     inkscape:zoom="1.3819365"
     inkscape:cx="264.84574"
     inkscape:cy="320.20285"
     inkscape:window-width="1920"
     inkscape:window-height="991"
     inkscape:window-x="-9"
     inkscape:window-y="-9"
     inkscape:window-maximized="1"
     inkscape:current-layer="g1" />
  <g
     inkscape:groupmode="layer"
     inkscape:label="Image"
     id="g1">
    <g
       id="g2"
       transform="translate(-7.9264356,8.1224537)">
      <path
         style="display:inline;fill:#d1c7ae;fill-opacity:0.992157;stroke:none;stroke-width:1.89;stroke-dasharray:none;stroke-opacity:1"
         d="m 321.7671,192.37577 c 4.35617,-5.81431 8.09734,-14.14691 9.79811,-27.02779 1.70077,-12.88089 1.35699,-30.06949 1.57216,-38.67144 0.21516,-8.60196 1.78687,-9.91172 6.74132,-10.54623 4.95446,-0.63452 15.04669,-1.35539 19.99727,-1.52017 4.95059,-0.16478 5.46227,0.17634 6.04929,6.4738 0.58702,6.29747 1.29447,19.38525 1.80348,26.07294 0.50901,6.6877 0.85012,7.54049 1.19124,8.81968 0.34112,1.2792 0.68224,2.9848 0.8528,4.17871 0.17056,1.19392 0.17056,1.87616 0.59696,4.00815 0.4264,2.13199 1.27919,5.71374 1.79087,7.67517 0.51168,1.96143 0.68224,2.30255 0.8528,2.72895 0.17056,0.4264 0.34112,0.93808 0.51168,1.79088 0.17056,0.85279 0.34111,2.04671 1.02335,3.75231 0.68224,1.70559 1.87616,3.92286 2.64367,5.4579 0.76752,1.53503 1.10864,2.38782 1.62032,3.07006 0.51168,0.68224 1.19391,1.19392 2.04671,2.132 0.8528,0.93807 1.87615,2.30255 3.07007,3.49646 1.19392,1.19392 2.55839,2.21727 5.33593,3.95121 2.77754,1.73394 6.44134,3.87115 11.32306,6.79774 4.88171,2.92658 10.15382,6.15787 14.14448,8.53498 3.99065,2.37711 6.7196,3.91215 9.19271,5.44718 2.47311,1.53504 4.69038,3.07007 6.39597,4.09343 1.7056,1.02336 2.89952,1.53504 5.96512,3.74876 3.0656,2.21373 7.10098,5.4142 10.46038,7.99622 3.3594,2.58201 4.21219,3.09369 7.02736,6.09219 2.81517,2.9985 7.52224,8.40292 10.45511,12.08298 2.93287,3.68005 4.4679,6.06788 6.25877,8.54099 1.79087,2.47311 3.83759,5.03151 5.37262,7.41934 1.53504,2.38783 2.73734,4.99282 4.70496,8.21721 1.96762,3.22439 4.94441,7.67318 8.1296,18.37453 3.18519,10.70135 4.38543,24.37476 4.30048,34.98092 -0.0849,10.60616 -1.43946,18.05597 -2.29432,23.61046 -0.85485,5.55448 -1.19596,9.13622 -2.72933,13.65271 -1.53337,4.5165 -4.25143,9.95263 -6.81694,14.82779 -2.5655,4.87516 -4.95333,9.13914 -9.41079,14.27704 -4.45747,5.13789 -10.82753,11.00504 -14.69779,14.36105 -3.87027,3.35601 -5.06418,4.03825 -6.00226,4.72048 -0.93807,0.68224 -1.62031,1.36448 -2.98478,2.30256 -1.36448,0.93807 -3.4112,2.13199 -5.37263,3.32591 -1.96143,1.19391 -3.83758,2.38782 -5.79902,3.41118 -1.96143,1.02336 -4.00814,1.87615 -8.24012,3.34318 -4.23198,1.46704 -10.43267,3.47808 -14.86895,4.50199 -4.43627,1.02392 -6.99466,1.02392 -13.63445,0.0997 -6.63978,-0.92424 1.23783,0.43397 -6.20948,-1.19705 -7.4473,-1.63102 -10.34681,-2.82493 -12.99048,-3.84829 -2.64367,-1.02336 -5.0315,-1.87615 -6.65181,-2.64367 -1.62032,-0.76752 -2.47312,-1.44976 -4.26399,-2.72895 -1.79087,-1.27919 -4.51982,-3.15534 -6.99294,-4.94622 -2.47311,-1.79087 -4.69038,-3.49647 -6.65182,-4.94622 -1.96143,-1.44976 -3.66702,-2.64367 -5.79901,-2.72895 -2.13199,-0.0853 -4.69039,0.93807 -7.07822,1.62031 -2.38783,0.68224 -4.6051,1.02336 -7.33405,1.44976 -2.72895,0.4264 -5.96958,0.93807 -9.80716,0.93807 -3.83759,0 -8.27214,-0.51167 -11.59804,-1.10863 -3.32591,-0.59696 -5.54319,-1.2792 -7.67518,-1.7056 -2.13199,-0.4264 -4.1787,-0.59695 -8.44269,-1.53503 -4.26398,-0.93808 -10.74524,-2.64367 -15.17978,-3.75231 -4.43455,-1.10864 -6.82238,-1.62031 -9.55133,-2.47311 -2.72895,-0.8528 -5.79902,-2.04671 -8.10157,-2.89951 -2.30255,-0.8528 -3.83759,-1.36447 -5.62846,-2.13199 -1.79088,-0.76752 -3.83759,-1.79087 -5.4579,-2.72895 -1.62032,-0.93808 -2.81423,-1.79087 -6.3107,-4.09343 -3.49647,-2.30255 -9.29549,-6.05486 -13.73004,-9.12492 -4.43454,-3.07007 -7.5046,-5.45791 -10.24729,-7.73871 -2.74269,-2.28081 -10.56724,-9.3229 -13.54888,-12.30486 -2.98165,-2.98195 -3.83444,-4.34643 -4.8578,-5.88146 -1.02336,-1.53504 -2.21727,-3.24063 -2.89951,-4.34927 -0.68224,-1.10863 -0.8528,-1.62031 -1.36448,-2.64366 -0.51167,-1.02336 -1.36447,-2.5584 -3.15535,-6.14014 -1.79087,-3.58175 -4.51982,-9.21021 -6.22541,-13.4742 -1.7056,-4.26398 -2.38783,-7.16349 -2.98479,-9.72188 -0.59696,-2.5584 -1.10864,-4.77567 -0.4264,-10.31885 0.68223,-5.54318 2.55839,-14.41227 4.09342,-20.80825 1.53504,-6.39597 2.72895,-10.31884 3.92849,-13.65758 1.19953,-3.33874 2.38503,-6.04847 3.57754,-8.26252 1.19251,-2.21405 2.38642,-3.91964 5.28593,-7.58667 2.89951,-3.66703 -0.26842,0.20489 1.99778,-2.32803 2.26621,-2.53291 3.63068,-3.72683 4.8246,-4.6649 1.19391,-0.93808 2.21727,-1.62032 3.93535,-2.84613 1.71807,-1.22581 4.29799,-3.11775 17.99078,-10.0233 13.6928,-6.90556 38.83057,-18.95791 52.28599,-25.43017 13.45541,-6.47225 15.50212,-7.4956 17.10123,-8.1992 1.59911,-0.7036 2.38824,-0.96664 5.43815,-2.78311 3.04991,-1.81647 7.97185,-5.04119 12.32803,-10.85551 z"
         id="path7"
         inkscape:path-effect="#path-effect8"
         inkscape:original-d="m 322.35726,194.94939 c 3.99458,-8.28531 8.72697,-16.17287 11.25692,-25.07223 0.77252,-17.43248 -1.15146,-34.58948 -1.02336,-51.16782 0,-1.54881 1.82186,-2.55839 3.07007,-2.55839 8.94722,-3.8057 19.21658,-2.04671 28.65398,-2.04671 0.51168,0.34111 1.02336,0.68223 1.53503,1.02335 -2.7064,12.43592 0.65959,25.37999 2.04672,37.86419 0.34112,0.8528 0.68223,1.70559 1.02335,2.55839 0.34112,1.70559 0.68224,3.41119 1.02336,5.11678 0,0.68224 0,1.36448 0,2.04671 0.8528,3.58175 1.70559,7.1635 2.55839,10.74525 0.17056,0.34111 0.34112,0.68223 0.51168,1.02335 0.17056,0.51168 0.34112,1.02336 0.51168,1.53504 0.17056,1.19391 0.34112,2.38783 0.51167,3.58174 1.19392,2.21728 2.38784,4.43455 3.58175,6.65182 0.34112,0.8528 0.68224,1.70559 1.02336,2.55839 0.68224,0.51168 1.36447,1.02336 2.04671,1.53504 1.02336,1.36447 2.04671,2.72895 3.07007,4.09342 1.36448,1.02336 2.72895,2.04671 4.09343,3.07007 3.62461,3.41479 7.78021,4.70892 12.28027,7.16349 5.62303,2.80564 10.13972,7.26947 15.86203,9.72189 2.72895,1.53504 5.4579,3.07007 8.18685,4.6051 2.21727,1.53504 4.43454,3.07007 6.65181,4.60511 1.19392,0.51168 2.38784,1.02335 3.58175,1.53503 4.43719,4.54634 9.15003,6.89262 14.83867,11.7686 0.8528,0.51168 1.70559,1.02336 2.55839,1.53504 5.12463,5.18301 12.02015,8.68137 13.81531,15.86202 1.53504,2.38783 3.07007,4.77566 4.6051,7.16349 2.04672,2.55839 4.09343,5.11679 6.14014,7.67518 1.02336,2.21727 2.22566,4.82226 3.07007,6.65181 3.09083,4.61923 6.06762,9.06802 11.2375,16.79437 1.35398,13.66288 2.54821,27.33682 3.60117,41.02527 -2.21487,7.38326 -3.29027,14.88382 -4.09343,22.51384 -0.34112,3.58175 -0.68223,7.16349 -1.02335,10.74524 -2.18728,5.72041 -4.92118,11.14862 -8.18685,16.3737 -2.38784,4.26399 -4.77567,8.52797 -7.1635,12.79196 -6.44622,6.09961 -12.74339,12.0459 -19.44377,17.90873 -1.19392,0.68224 -2.38783,1.36448 -3.58175,2.04672 -0.68223,0.68223 -1.36447,1.36447 -2.04671,2.04671 -2.04671,1.19391 -4.09343,2.38783 -6.14014,3.58175 -1.87615,1.19391 -3.7523,2.38783 -5.62846,3.58174 -2.04671,0.8528 -4.09342,1.7056 -6.14014,2.55839 -6.05846,3.1875 -12.54557,4.31543 -18.93209,6.14014 -2.55839,0 -5.11678,0 -7.67517,0 -10.73151,-1.78859 -2.76457,-0.9485 -14.83867,-2.55839 -2.89951,-1.19391 -5.79902,-2.38783 -8.69853,-3.58175 -2.38783,-0.85279 -4.77566,-1.70559 -7.16349,-2.55839 -0.8528,-0.68223 -1.7056,-1.36447 -2.55839,-2.04671 -2.72895,-1.87615 -5.4579,-3.75231 -8.18686,-5.62846 -2.21727,-1.70559 -4.43454,-3.41119 -6.65181,-5.11678 -1.7056,-1.19392 -3.41119,-2.38783 -5.11678,-3.58175 -2.55839,1.02336 -5.11679,2.04671 -7.67518,3.07007 -2.21727,0.34112 -4.43454,0.68224 -6.65181,1.02336 -3.24063,0.51168 -6.48126,1.02335 -9.72189,1.53503 -4.43454,-0.51168 -8.86909,-1.02335 -13.30363,-1.53503 -2.21727,-0.68224 -4.43455,-1.36448 -6.65182,-2.04672 -2.04671,-0.17055 -4.09342,-0.34111 -6.14014,-0.51167 -6.48125,-1.7056 -12.96251,-3.41119 -19.44377,-5.11679 -2.38783,-0.51167 -4.77566,-1.02335 -7.16349,-1.53503 -3.07007,-1.19392 -6.14014,-2.38783 -9.21021,-3.58175 -1.53503,-0.51168 -3.07007,-1.02335 -4.6051,-1.53503 -2.04672,-1.02336 -4.09343,-2.04671 -6.14014,-3.07007 -1.19392,-0.8528 -2.38783,-1.7056 -3.58175,-2.55839 -5.79902,-3.75231 -11.59804,-7.50462 -17.39706,-11.25692 -3.07007,-2.38783 -6.14013,-4.77567 -9.2102,-7.1635 -2.30091,-2.30089 -10.12858,-9.33951 -15.35035,-13.81531 -0.8528,-1.36447 -1.70559,-2.72895 -2.55839,-4.09342 -1.19392,-1.7056 -2.38783,-3.41119 -3.58175,-5.11679 -0.17056,-0.51167 -0.34112,-1.02335 -0.51168,-1.53503 -0.85279,-1.53503 -1.70559,-3.07007 -2.55839,-4.6051 -2.72895,-5.62846 -5.4579,-11.25692 -8.18685,-16.88538 -0.68224,-2.89951 -1.36447,-5.79902 -2.04671,-8.69853 -0.51168,-2.21728 -1.02336,-4.43455 -1.53504,-6.65182 1.87616,-8.86909 3.75231,-17.73818 5.62846,-26.60727 1.19392,-3.92286 2.38784,-7.84573 3.58175,-11.76859 1.35648,-2.68841 2.85079,-5.26304 3.58175,-8.18685 1.19392,-1.7056 2.38783,-3.41119 3.58175,-5.11679 5.60191,-8.40291 1.81677,-1.44596 4.6051,-5.62846 1.36448,-1.19391 2.72895,-2.38783 4.09343,-3.58174 1.02335,-0.68224 2.04671,-1.36448 3.07007,-2.04672 2.04954,-2.26473 5.04838,-3.5854 7.67517,-5.62846 23.64339,-14.05429 48.95017,-25.75414 74.70501,-35.81747 2.04672,-1.02336 4.09343,-2.04671 6.14014,-3.07007 0.98683,-0.87789 1.94064,-0.64688 3.07007,-1.02336 4.82866,-3.47278 9.51355,-7.05932 14.83867,-9.72188 z"
         inkscape:label="Base Color"
         sodipodi:nodetypes="ccccccccccccccccccccccccccccccccccccccccccccccccccccccccccccccccccccccccccccccccccccc"
         transform="matrix(1.5643475,0,0,1.5643475,-128.45113,-157.25505)" />
      <path
         style="display:inline;fill:#c0b494;fill-opacity:1;stroke:none;stroke-width:1.88976;stroke-opacity:1"
         d="m 354.33714,336.17256 c -0.25584,4.09343 -0.76751,12.28029 -1.02335,17.48235 -0.25584,5.20206 -0.25584,7.41933 -0.4264,9.38076 -0.17056,1.96144 -0.51168,3.66703 -0.68224,4.86094 -0.17056,1.19392 -0.17056,1.87616 -0.8528,4.17871 -0.68223,2.30255 -2.04671,6.22542 -2.8995,8.69853 -0.8528,2.47311 -1.19392,3.49647 -2.21728,5.11678 -1.02335,1.62032 -2.72895,3.83759 -4.09342,5.62847 -1.36448,1.79087 -2.38783,3.15534 -3.49647,4.43454 -1.10864,1.27919 -2.30255,2.47311 -3.49647,3.7523 -1.19391,1.2792 -2.38783,2.64367 -4.39537,5.23916 -2.00755,2.59549 -4.35346,5.77736 -4.60559,7.69534 -0.25214,1.91798 1.7349,1.46595 3.75234,1.17907 2.01745,-0.28689 3.66275,-0.31705 5.51392,-0.51777 1.85117,-0.20072 3.90823,-0.57199 6.918,-1.01864 3.00977,-0.44664 6.97224,-0.96867 9.51556,-2.49469 2.54332,-1.52602 3.66747,-4.05603 5.16763,-6.68551 1.50015,-2.62949 3.3763,-5.35844 4.6555,-8.08739 1.2792,-2.72895 1.96143,-5.4579 2.81423,-7.93101 0.8528,-2.47311 1.87615,-4.69038 2.80006,-9.64647 0.9239,-4.9561 2.99938,-24.32718 2.99917,-25.71813 -2.1e-4,-1.39095 -0.17077,-2.58487 -0.42661,-4.29046 -0.25584,-1.70559 -0.59696,-3.92287 -2.21728,-6.82238 -1.62031,-2.89951 -4.51982,-6.48125 -6.39597,-8.61324 -1.87615,-2.13199 -2.72895,-2.81423 -3.66703,-2.5584 -0.93807,0.25584 -1.96143,1.44976 -2.47311,2.04671 -0.51168,0.59696 -0.51168,0.59701 -0.76752,4.69043 z"
         id="path2"
         inkscape:path-effect="#path-effect2"
         inkscape:original-d="m 354.59298,332.07914 c -0.51167,8.18685 -1.02335,16.37371 -1.53503,24.56056 0,2.21727 0,4.43454 0,6.65181 -0.34112,1.7056 -0.68224,3.41119 -1.02336,5.11678 0,0.68224 0,1.36448 0,2.04672 -1.36447,3.92286 -2.72895,7.84573 -4.09342,11.7686 -0.34112,1.02335 -0.68224,2.04671 -1.02336,3.07007 -1.70559,2.21727 -3.41119,4.43454 -5.11678,6.65181 -1.02336,1.36448 -2.04671,2.72895 -3.07007,4.09343 -1.19392,1.19391 -2.38783,2.38783 -3.58175,3.58174 -1.19391,1.36448 -2.38783,2.72895 -3.58174,4.09343 -2.82118,3.8265 -5.16709,7.00837 -8.46354,11.47951 2.79218,-0.63518 4.77922,-1.0872 7.16882,-1.63081 1.64529,-0.0301 3.29059,-0.0603 4.93588,-0.0905 2.05705,-0.37127 4.11411,-0.74254 6.17117,-1.11381 3.96248,-0.52202 7.92495,-1.04405 11.88743,-1.56607 1.12416,-2.53002 2.24831,-5.06003 3.37247,-7.59005 1.87615,-2.72895 3.7523,-5.4579 5.62846,-8.18685 0.68223,-2.72895 1.36447,-5.4579 2.04671,-8.18685 1.02336,-2.21727 2.04671,-4.43454 3.07007,-6.65182 1.81701,-7.58856 3.91864,-26.95684 3.07007,-28.65398 -0.17056,-1.19391 -0.34112,-2.38783 -0.51168,-3.58174 -0.34112,-2.21727 -0.68224,-4.43455 -1.02336,-6.65182 -2.89951,-3.58175 -5.79902,-7.16349 -8.69853,-10.74524 -0.85279,-0.68224 -1.70559,-1.36448 -2.55839,-2.04671 -1.02335,1.19391 -2.04671,2.38783 -3.07007,3.58174 z"
         sodipodi:nodetypes="ccccccccccccccccccccccccccc"
         inkscape:label="Ridge shadow 1"
         transform="matrix(1.5643475,0,0,1.5643475,-128.45113,-157.25505)" />
      <path
         style="display:inline;fill:#ddd6c2;fill-opacity:0.996078;stroke:none;stroke-width:1.88976;stroke-opacity:1"
         d="m 278.78686,218.17282 c 0.8952,-0.23728 1.39784,-0.012 3.38146,0.66258 1.98363,0.67455 5.22426,1.6979 7.27097,2.20958 2.04672,0.51168 2.89951,0.51168 4.01262,0.3194 1.1131,-0.19228 6.42966,-1.68091 10.1588,-2.80645 3.72913,-1.12554 3.9839,-1.22744 4.62813,-0.99051 0.64423,0.23693 0.98535,1.08973 1.41174,2.53948 0.4264,1.44976 0.93808,3.49647 0.24194,6.74111 -0.69614,3.24463 -1.34767,4.76487 -1.40347,7.15609 -0.0558,2.39122 1.85873,2.39122 3.00252,3.49986 1.1438,1.10863 1.65548,3.32591 0.3693,6.15179 -1.28617,2.82588 -2.58837,4.27605 -15.5443,18.98608 -12.95593,14.71003 -19.35215,22.29624 -24.28635,30.17531 -4.9342,7.87907 -6.98092,14.36033 -8.08955,18.53904 -1.10864,4.1787 -1.2792,6.05486 -1.36448,7.50461 -0.0853,1.44976 -0.0853,2.47311 -0.0853,3.58175 0,1.10863 0,2.30255 -2.17294,2.55499 -2.17293,0.25244 -6.5188,-0.43659 -9.14828,-1.49394 -2.62947,-1.05735 -3.22278,-1.9837 -4.33109,-3.35751 -1.10832,-1.3738 -2.07231,-2.17993 -3.99974,-1.72823 -1.92742,0.45171 -4.66724,2.12614 -6.14969,3.23586 -1.48244,1.10971 -1.653,1.62139 -1.82356,2.13306 -0.17056,0.51168 -0.34112,1.02336 -1.17455,0.89625 -0.83344,-0.1271 -2.32974,-0.89299 -3.38887,-1.03045 -1.05913,-0.13745 -1.68106,0.35354 -2.29827,0.75407 -0.6172,0.40053 -1.22968,0.71061 -1.96232,1.37733 -0.73263,0.66671 -1.58543,1.69007 -2.01183,2.37231 -0.4264,0.68224 -0.4264,1.02335 -1.2792,2.21727 -0.8528,1.19392 -2.55839,3.24063 -3.83758,4.86095 -1.2792,1.62031 -2.13199,2.81422 -2.55839,3.49646 -0.4264,0.68224 -0.4264,0.8528 -0.51168,1.10864 -0.0853,0.25584 -0.25584,0.59695 -0.68224,1.19391 -0.4264,0.59696 -1.10864,1.44976 -1.53504,2.13199 -0.4264,0.68224 -0.59695,1.19392 -1.34315,4.16805 -0.7462,2.97414 -2.06803,8.41071 -4.71171,7.89903 -2.64367,-0.51168 -6.60917,-6.97161 -9.00766,-11.35286 -2.3985,-4.38124 -3.22997,-6.68379 -3.92287,-8.64523 -0.6929,-1.96144 -1.24721,-3.58174 -1.84417,-4.765 -0.59696,-1.18326 -1.23655,-1.92945 -1.8122,-3.24063 -0.57564,-1.31118 -1.08732,-3.18733 -1.34316,-4.29596 -0.25584,-1.10864 -0.25584,-1.44976 -0.4264,-1.87616 -0.17056,-0.4264 -0.51167,-0.93807 -0.68223,-1.53503 -0.17056,-0.59696 -0.17056,-1.27919 -0.25584,-1.70559 -0.0853,-0.4264 -0.25584,-0.59696 -0.0853,-2.38784 0.17056,-1.79087 0.68223,-5.20206 1.12995,-8.11223 0.44772,-2.91017 0.83148,-5.31932 1.08732,-7.19547 0.25584,-1.87616 0.38376,-3.21931 0.70356,-4.91425 0.3198,-1.69494 0.83147,-3.74164 1.42843,-5.44724 0.59696,-1.70559 1.2792,-3.07006 1.79088,-4.43454 0.51168,-1.36448 0.85279,-2.72895 1.09797,-4.31729 0.24518,-1.58834 0.39443,-3.40052 0.63961,-4.56246 0.24518,-1.16194 0.58629,-1.67361 0.75685,-2.10001 0.17056,-0.4264 0.17056,-0.76752 0.34112,-1.19392 0.17056,-0.4264 0.51168,-0.93807 0.68224,-1.36447 0.17056,-0.4264 0.17056,-0.76752 0.4264,-1.44976 0.25584,-0.68224 0.76751,-1.70559 1.02335,-2.38783 0.25584,-0.68224 0.25584,-1.02336 0.51168,-1.53504 0.25584,-0.51167 0.76752,-1.19391 1.92945,-2.53707 1.16194,-1.34315 2.97413,-3.34722 4.67973,-5.11678 1.7056,-1.76955 3.30459,-3.30458 4.95688,-4.66906 1.6523,-1.36447 3.35789,-2.55839 4.29597,-3.32591 0.93808,-0.76752 1.10864,-1.10864 1.79087,-1.7056 0.68224,-0.59695 1.87615,-1.44975 2.98479,-2.30254 1.10863,-0.8528 2.13199,-1.7056 3.58174,-2.5584 1.44976,-0.85279 3.3259,-1.70559 4.61577,-2.20661 1.28986,-0.50102 1.99342,-0.65025 2.97413,-1.08731 0.98071,-0.43706 2.23859,-1.16194 4.58378,-2.32388 2.34519,-1.16193 5.7777,-2.76092 8.09092,-3.81626 2.31321,-1.05534 3.50712,-1.56701 4.95688,-2.07869 1.44975,-0.51168 3.15534,-1.02336 6.05485,-2.47311 2.89951,-1.44976 6.99293,-3.83758 9.46604,-5.20206 2.47312,-1.36448 3.32592,-1.7056 4.6904,-2.38784 1.36447,-0.68224 3.24062,-1.70559 4.34926,-2.21727 1.10864,-0.51168 1.44976,-0.51168 2.19596,-0.88478 0.74619,-0.37309 1.8839,-1.1105 2.77911,-1.34778 z"
         id="path6"
         inkscape:path-effect="#path-effect6"
         inkscape:original-d="m 279.0565,217.65511 c 0.62556,0.28043 1.1282,0.50575 1.85482,0.83148 3.24063,1.02335 6.48126,2.04671 9.72189,3.07007 0.8528,0 1.70559,0 2.55839,0 1.72218,0.86104 7.15807,-0.20142 12.79196,-3.58175 1.64798,0.18672 1.79278,-0.19009 2.55839,-1.02336 0.34112,0.8528 0.68223,1.7056 1.02335,2.55839 0.51168,2.04672 1.02336,4.09343 1.53504,6.14014 -3.05976,3.94722 -4.41315,5.16666 -4.60511,10.74524 1.93803,0.10871 3.85255,0.88797 5.62846,0 0.51168,2.21727 1.02336,4.43455 1.53504,6.65182 -2.58713,3.88069 -4.4223,4.85227 -22.51384,25.07223 -10.74506,6.73612 -15.92659,15.34648 -22.00216,26.09559 -2.04672,6.48125 -4.09343,12.96251 -6.14014,19.44377 -0.17056,1.87615 -0.34112,3.75231 -0.51168,5.62846 0,1.02336 0,2.04671 0,3.07007 0,1.19391 0,2.38783 0,3.58175 -4.34587,-0.68904 -8.69174,-1.37807 -13.0376,-2.06711 -0.91309,-1.42566 -1.5064,-2.35201 -2.73929,-4.27699 -0.98374,-0.82263 -1.94773,-1.62876 -2.95125,-2.46794 -2.85133,1.74259 -5.59115,3.41703 -8.38548,5.12477 -0.17056,0.51168 -0.34112,1.02336 -0.51168,1.53503 -0.17056,0.51168 -0.34112,1.02336 -0.51168,1.53504 -1.49631,-0.76589 -2.99261,-1.53178 -4.48893,-2.29768 -0.62194,0.49099 -1.24387,0.98198 -1.8658,1.47296 -0.61248,0.31008 -1.22496,0.62016 -1.83744,0.93024 -0.8528,1.02335 -1.7056,2.04671 -2.55839,3.07007 0,0.34112 0,0.68223 0,1.02335 -1.7056,2.04672 -3.41119,4.09343 -5.11678,6.14014 -0.8528,1.19392 -1.7056,2.38783 -2.55839,3.58175 0,0.17056 0,0.34112 0,0.51168 -0.17056,0.34112 -0.34112,0.68223 -0.51168,1.02335 -0.68224,0.8528 -1.36448,1.7056 -2.04672,2.55839 -0.17056,0.51168 -0.34111,1.02336 -0.51167,1.53504 -1.32184,5.43659 -2.64367,10.87316 -3.96551,16.30974 -3.96551,-6.45994 -7.93101,-12.91987 -11.89652,-19.37981 -0.83148,-2.30255 -1.66295,-4.6051 -2.49443,-6.90766 -0.55432,-1.62032 -1.10863,-3.24062 -1.66295,-4.86094 -0.6396,-0.7462 -1.27919,-1.49239 -1.9188,-2.23859 -0.51168,-1.87616 -1.02336,-3.75231 -1.53504,-5.62846 0,-0.34112 0,-0.68224 0,-1.02336 -0.34111,-0.51168 -0.68223,-1.02335 -1.02335,-1.53503 0,-0.68224 0,-1.36447 0,-2.04671 -0.17056,-0.17056 -0.34112,-0.34112 -0.51168,-0.51168 0.51168,-3.41119 1.02336,-6.82238 1.53503,-10.23357 0.38376,-2.40915 0.76752,-4.8183 1.15128,-7.22745 0.12792,-1.34316 0.25584,-2.68631 0.38376,-4.02947 0.51168,-2.04672 1.02336,-4.09342 1.53503,-6.14013 0.68225,-1.36448 1.36448,-2.72895 2.04672,-4.09343 0.34112,-1.36448 0.68224,-2.72895 1.02335,-4.09343 0.14925,-1.8122 0.29849,-3.62438 0.44773,-5.43658 0.34111,-0.51168 0.68223,-1.02335 1.02335,-1.53503 0,-0.34112 0,-0.68224 0,-1.02336 0.34112,-0.51168 0.68224,-1.02335 1.02336,-1.53503 0,-0.34112 0,-0.68224 0,-1.02336 0.51168,-1.02336 1.02335,-2.04671 1.53503,-3.07007 0,-0.34112 0,-0.68224 0,-1.02335 0.51168,-0.68224 1.02336,-1.36448 1.53504,-2.04672 1.81219,-2.00407 3.62438,-4.00814 5.43657,-6.01221 1.59901,-1.53504 3.198,-3.07007 4.797,-4.60511 1.70559,-1.19391 3.41118,-2.38783 5.11678,-3.58175 0.17056,-0.34112 0.34112,-0.68224 0.51168,-1.02336 1.19391,-0.85279 2.38782,-1.70559 3.58174,-2.55839 1.02335,-0.85279 2.04671,-1.70559 3.07007,-2.55839 1.87615,-0.85279 3.75229,-1.70559 5.62846,-2.55839 0.70356,-0.14924 1.40712,-0.29847 2.11067,-0.44771 1.25787,-0.72488 2.51575,-1.44976 3.77362,-2.17464 3.43251,-1.59899 6.86502,-3.19799 10.29754,-4.79698 1.19391,-0.51168 2.38782,-1.02335 3.58174,-1.53503 1.70559,-0.51169 3.41118,-1.02336 5.11678,-1.53504 4.09342,-2.38783 8.18683,-4.77566 12.28028,-7.16349 0.85279,-0.34112 1.70559,-0.68224 2.55839,-1.02336 1.87615,-1.02336 3.7523,-2.04672 5.62846,-3.07007 0.34112,0 0.68224,0 1.02336,0 1.15127,-0.7462 2.28898,-1.4836 3.45383,-2.23859 z"
         inkscape:label="Main highlight"
         sodipodi:nodetypes="cccccccccccccccscccccsccccccccccccccccccccccccccccccccccccccccccccccccccccc"
         transform="matrix(1.5643475,0,0,1.5643475,-128.45113,-157.25505)" />
      <path
         style="display:inline;fill:#c0b494;fill-opacity:1;stroke:none;stroke-width:1.88976;stroke-opacity:1"
         d="m 207.11941,357.55886 c -0.40143,-1.26028 0.11025,-2.11308 0.11025,-2.11308 0,0 -0.51168,0.8528 -0.2352,-0.22904 0.27648,-1.08183 1.23655,-3.802 2.35619,-6.7327 1.11965,-2.9307 2.31356,-5.83021 4.95723,-9.75308 2.64368,-3.92287 6.7371,-8.86909 9.21021,-11.7686 2.47311,-2.89951 3.3259,-3.75231 4.41717,-4.67735 1.09127,-0.92505 2.45612,-1.94869 3.58194,-2.64382 1.12582,-0.69512 1.97861,-1.03624 3.85476,-1.6332 1.87616,-0.59696 4.77567,-1.44975 6.7371,-1.70559 1.96144,-0.25584 2.98479,0.0853 3.74165,0.50102 0.75686,0.41574 1.24722,0.9061 1.41777,1.41778 0.17056,0.51167 0.0213,1.04467 -0.0533,1.82285 -0.0746,0.77817 -0.0746,1.80153 -0.75686,3.42184 -0.68223,1.62032 -2.04671,3.83759 -2.81422,5.20207 -0.76752,1.36447 -0.93808,1.87615 -1.79088,3.15534 -0.85279,1.2792 -2.38782,3.32591 -3.73493,5.26006 -1.34711,1.93414 -2.57814,3.86861 -3.52606,5.50913 -0.94793,1.64052 -1.57689,2.89843 -2.10417,4.20884 -0.52728,1.3104 -0.8684,2.50431 -1.38008,4.12463 -0.51168,1.62031 -1.19391,3.66702 -1.53503,5.20205 -0.34112,1.53504 -0.34112,2.5584 -0.4264,3.24064 -0.0853,0.68223 -0.25584,1.02335 -0.34112,2.55839 -0.0853,1.53503 -0.0853,4.26398 -0.0853,6.04719 0,1.78321 0,2.1498 0.0853,3.42393 0.0853,1.27412 0.25584,2.97971 0.43115,4.19265 0.17532,1.21294 0.3249,1.81127 -0.0958,1.74892 -0.42067,-0.0623 -1.44403,-0.91515 -2.89378,-2.02378 -1.44976,-1.10864 -3.32591,-2.47311 -6.07983,-4.7093 -2.75393,-2.23619 -6.38563,-5.34409 -8.85874,-7.73193 -2.47312,-2.38783 -3.78764,-4.05558 -4.18906,-5.31586 z"
         id="path3"
         inkscape:path-effect="#path-effect3"
         inkscape:original-d="m 206.20631,357.15137 c 0.51168,-0.85279 1.02336,-1.70559 1.53503,-2.55839 -0.51167,0.8528 -1.02335,1.7056 -1.53503,2.55839 1.61659,-2.82165 2.54577,-5.55272 3.07007,-8.69852 1.19391,-2.89951 2.38783,-5.79902 3.58175,-8.69853 4.09342,-4.94623 8.18685,-9.89245 12.28027,-14.83867 0.8528,-0.8528 1.7056,-1.70559 2.55839,-2.55839 1.79949,-0.37096 2.84447,-1.82111 4.09343,-3.07007 0.8528,-0.34112 1.70559,-0.68224 2.55839,-1.02336 2.89951,-0.85279 5.79902,-1.70559 8.69853,-2.55839 1.02336,0.34112 2.04671,0.68224 3.07007,1.02336 0.49036,0.49036 0.98072,0.98072 1.47107,1.47107 -0.14924,0.533 -0.29848,1.066 -0.44772,1.599 0,1.02335 0,2.04671 0,3.07007 -1.36447,2.21727 -2.72895,4.43454 -4.09342,6.65181 -0.17056,0.51168 -0.34112,1.02336 -0.51168,1.53504 -1.53503,2.04671 -3.07007,4.09342 -4.6051,6.14014 -0.59341,2.18161 -2.24618,3.84769 -3.58175,5.62846 -0.17761,1.67197 -1.07383,2.79625 -2.04671,4.09342 -0.34112,1.19392 -0.68224,2.38783 -1.02336,3.58175 -0.68224,2.04671 -1.36447,4.09342 -2.04671,6.14014 0,1.02335 0,2.04671 0,3.07007 -0.17056,0.34111 -0.34112,0.68223 -0.51168,1.02335 0,2.72895 0,5.4579 0,8.18685 0.56707,0.83747 0.42133,1.20406 0,2.04672 0.17056,1.70559 0.34112,3.41118 0.51168,5.11678 -0.11714,0.79458 0.16786,1.35906 0.51168,2.04671 -1.02336,-0.8528 -2.04672,-1.70559 -3.07007,-2.55839 -1.87616,-1.36448 -3.75231,-2.72895 -5.62846,-4.09343 -3.6317,-3.1079 -7.2634,-6.2158 -10.89511,-9.32371 -1.31452,-1.66776 -2.62904,-3.33551 -3.94356,-5.00328 z"
         sodipodi:nodetypes="ccccccccccccscccccccccccccccccc"
         inkscape:label="Ridge Shadow 2"
         transform="matrix(1.5643475,0,0,1.5643475,-128.45113,-157.25505)" />
      <path
         style="display:inline;fill:#c0b494;fill-opacity:1;stroke:none;stroke-width:1.88976;stroke-opacity:1"
         d="m 370.88141,421.45227 c -0.0853,-1.02336 0.25584,-1.7056 0.25584,-1.7056 0,0 -0.34112,0.68224 0.0853,0.0853 0.4264,-0.59696 1.62031,-2.47311 2.8995,-4.17871 1.2792,-1.70559 2.64367,-3.24062 4.60511,-6.39597 1.96143,-3.15535 4.51982,-7.93101 6.31069,-10.40412 1.79088,-2.47311 2.81424,-2.64367 4.17871,-3.07007 1.36448,-0.4264 3.07007,-1.10864 4.26398,-1.7056 1.19392,-0.59695 1.87616,-1.10863 3.15536,-1.79087 1.27919,-0.68224 3.15534,-1.53503 5.11678,-2.30255 1.96143,-0.76752 4.00814,-1.44975 6.14014,-2.30255 2.13199,-0.8528 4.34926,-1.87615 6.99293,-2.89951 2.64367,-1.02336 5.71374,-2.04671 8.01629,-2.98479 2.30255,-0.93808 3.83759,-1.79088 6.3107,-3.07007 2.47311,-1.2792 5.8843,-2.98479 8.52797,-4.51983 2.64367,-1.53503 4.51982,-2.8995 7.41933,-5.0315 2.89951,-2.13199 6.82238,-5.0315 9.46605,-6.90766 2.64367,-1.87615 4.00815,-2.72895 5.11678,-3.3259 1.10864,-0.59696 1.96143,-0.93808 2.98479,-1.62032 1.02336,-0.68224 2.21727,-1.70559 3.92286,-2.98479 1.7056,-1.27919 3.92287,-2.81422 5.45791,-4.09342 1.53504,-1.2792 2.38783,-2.30255 3.15535,-3.07007 0.76751,-0.76751 1.44975,-1.27919 2.81423,-2.81423 1.36447,-1.53503 3.41119,-4.09343 4.6051,-5.54318 1.19392,-1.44976 1.53503,-1.79087 1.70559,-2.13199 0.17056,-0.34112 0.17056,-0.68224 0.34112,-1.10864 0.17056,-0.4264 0.51168,-0.93808 1.02336,-1.62031 0.51168,-0.68224 1.19392,-1.53504 1.53503,-2.132 0.34112,-0.59695 0.34112,-0.93807 0.51168,-1.44975 0.17056,-0.51168 0.51168,-1.19392 0.93808,-2.30255 0.4264,-1.10864 0.93807,-2.64367 1.36447,-3.83759 0.4264,-1.19391 0.76752,-2.04671 1.02336,-1.87615 0.25584,0.17056 0.4264,1.36447 0.59696,2.04671 0.17056,0.68224 0.34112,0.8528 0.25584,2.04672 -0.0853,1.19391 -0.4264,3.41118 -0.68224,6.05485 -0.25584,2.64367 -0.4264,5.71374 -0.59696,7.41934 -0.17056,1.70559 -0.34112,2.04671 -0.34112,2.89951 0,0.85279 0.17056,2.21727 0.17056,3.83758 0,1.62032 -0.17056,3.49647 -0.34112,4.60511 -0.17056,1.10863 -0.34111,1.44975 -0.42639,2.13199 -0.0853,0.68224 -0.0853,1.70559 -0.17056,2.38783 -0.0853,0.68224 -0.25584,1.02336 -0.34112,1.53503 -0.0853,0.51168 -0.0853,1.19392 -0.17056,1.62032 -0.0853,0.4264 -0.25584,0.59696 -0.59696,1.62032 -0.34112,1.02335 -0.8528,2.8995 -1.10864,4.1787 -0.25584,1.27919 -0.25584,1.96143 -0.59696,3.3259 -0.34112,1.36448 -1.02335,3.41119 -1.70559,5.20207 -0.68224,1.79087 -1.36447,3.32591 -1.87615,4.34926 -0.51168,1.02336 -0.8528,1.53504 -1.02336,1.96144 -0.17056,0.42639 -0.17056,0.76751 -0.34112,1.02335 -0.17056,0.25584 -0.51168,0.4264 -0.68223,0.68224 -0.17056,0.25584 -0.17056,0.59696 -0.34112,1.02336 -0.17056,0.42639 -0.51168,0.93807 -1.2792,2.55839 -0.76752,1.62031 -1.96143,4.34926 -2.81423,6.05485 -0.8528,1.7056 -1.36448,2.38784 -1.87615,3.24063 -0.51168,0.8528 -1.02336,1.87616 -1.53504,2.55839 -0.51167,0.68224 -1.02335,1.02336 -2.04671,1.96144 -1.02336,0.93808 -2.55839,2.47311 -3.58174,3.41119 -1.02336,0.93807 -1.53504,1.27919 -1.96144,1.70559 -0.4264,0.4264 -0.76752,0.93808 -1.62032,1.70559 -0.85279,0.76752 -2.21727,1.79088 -3.24063,2.72895 -1.02335,0.93808 -1.70559,1.79088 -2.98478,2.89952 -1.2792,1.10863 -3.15535,2.4731 -4.51982,3.58174 -1.36448,1.10864 -2.21728,1.96143 -3.58176,2.98479 -1.36447,1.02336 -3.24062,2.21727 -4.77566,3.24063 -1.53503,1.02336 -2.72895,1.87615 -3.7523,2.47311 -1.02336,0.59696 -1.87616,0.93808 -3.41119,1.7056 -1.53504,0.76752 -3.75231,1.96143 -7.26318,3.29926 -3.51087,1.33783 -7.70947,2.63273 -12.40474,3.64511 -4.69526,1.01238 0.0109,0.43231 -12.52517,0.43231 -12.53611,0 -1.21523,1.69494 -11.48078,-1.19924 -10.26554,-2.89418 -7.19547,-1.52971 -9.51934,-2.36118 -2.32387,-0.83148 -3.90155,-1.12995 -5.8843,-1.66295 -1.98275,-0.533 -4.37059,-1.30052 -5.82034,-2.36652 -1.44976,-1.06599 -1.96143,-2.43047 -2.04671,-3.45382 z"
         id="path4"
         inkscape:path-effect="#path-effect4"
         inkscape:original-d="m 370.45501,421.11115 c 0.34112,-0.68224 0.68224,-1.36448 1.02335,-2.04671 -0.34111,0.68223 -0.68223,1.36447 -1.02335,2.04671 1.19391,-1.87616 2.38783,-3.75231 3.58174,-5.62846 1.36448,-1.53504 2.72896,-3.07007 4.09343,-4.60511 2.55839,-4.77566 5.11678,-9.55132 7.67517,-14.32698 1.02336,-0.17056 2.04672,-0.34112 3.07007,-0.51168 1.7056,-0.68224 3.41119,-1.36448 5.11678,-2.04672 0.68224,-0.51167 1.36448,-1.02335 2.04672,-1.53503 1.87615,-0.8528 3.7523,-1.70559 5.62846,-2.55839 2.04671,-0.68224 4.09342,-1.36448 6.14014,-2.04671 2.21727,-1.02336 4.43454,-2.04672 6.65181,-3.07007 3.07007,-1.02336 6.14014,-2.04672 9.21021,-3.07007 1.53503,-0.8528 3.07007,-1.7056 4.6051,-2.55839 3.41119,-1.7056 6.82238,-3.41119 10.23357,-5.11679 1.87615,-1.36447 3.7523,-2.72895 5.62846,-4.09342 3.92286,-2.89951 7.84573,-5.79902 11.76859,-8.69853 1.36448,-0.8528 2.72896,-1.70559 4.09343,-2.55839 0.8528,-0.34112 1.70559,-0.68224 2.55839,-1.02336 1.19392,-1.02335 2.38783,-2.04671 3.58175,-3.07007 2.21727,-1.53503 4.43454,-3.07007 6.65182,-4.6051 0.85279,-1.02336 1.70559,-2.04671 2.55839,-3.07007 0.68223,-0.51168 1.36447,-1.02336 2.04671,-1.53503 2.04671,-2.55839 4.09342,-5.11679 6.14014,-7.67518 0.34112,-0.34112 0.68223,-0.68223 1.02335,-1.02335 0,-0.34112 0,-0.68224 0,-1.02336 0.34112,-0.51168 0.68224,-1.02336 1.02336,-1.53503 0.68224,-0.8528 1.36448,-1.7056 2.04671,-2.55839 0,-0.34112 0,-0.68224 0,-1.02336 0.34112,-0.68224 0.68224,-1.36448 1.02336,-2.04671 0.51168,-1.53504 1.02336,-3.07007 1.53503,-4.60511 0.34112,-0.85279 0.68224,-1.70559 1.02336,-2.55839 0.17056,1.19392 0.34112,2.38783 0.51168,3.58175 0.17056,0.17056 0.34112,0.34112 0.51168,0.51168 -0.34112,2.21727 -0.68224,4.43454 -1.02336,6.65181 -0.17056,3.07007 -0.34112,6.14014 -0.51168,9.21021 -0.17056,0.34112 -0.34112,0.68224 -0.51168,1.02336 0.17056,1.36447 0.34112,2.72895 0.51168,4.09342 -0.17056,1.87616 -0.34112,3.75231 -0.51168,5.62846 -0.17056,0.34112 -0.34112,0.68224 -0.51167,1.02336 0,1.02336 0,2.04671 0,3.07007 -0.17056,0.34112 -0.34112,0.68224 -0.51168,1.02335 0,0.68224 0,1.36448 0,2.04672 -0.17056,0.17056 -0.34112,0.34112 -0.51168,0.51168 -0.51168,1.87615 -1.02336,3.7523 -1.53504,5.62846 0,0.68223 0,1.36447 0,2.04671 -0.68223,2.04671 -1.36447,4.09342 -2.04671,6.14014 -0.68224,1.53503 -1.36447,3.07007 -2.04671,4.6051 -0.34112,0.51168 -0.68224,1.02336 -1.02336,1.53504 0,0.34111 0,0.68223 0,1.02335 -0.34112,0.17056 -0.68224,0.34112 -1.02335,0.51168 0,0.34112 0,0.68224 0,1.02336 -0.34112,0.51167 -0.68224,1.02335 -1.02336,1.53503 -1.19392,2.72895 -2.38783,5.4579 -3.58175,8.18685 -0.51168,0.68224 -1.02335,1.36448 -1.53503,2.04671 -0.51168,1.02336 -1.02336,2.04672 -1.53504,3.07007 -0.51167,0.34112 -1.02335,0.68224 -1.53503,1.02336 -1.53504,1.53503 -3.07007,3.07007 -4.6051,4.6051 -0.51168,0.34112 -1.02336,0.68224 -1.53504,1.02336 -0.34112,0.51168 -0.68224,1.02336 -1.02336,1.53503 -1.36447,1.02336 -2.72895,2.04672 -4.09342,3.07007 -0.68224,0.8528 -1.36448,1.7056 -2.04671,2.55839 -1.87616,1.36448 -3.75231,2.72895 -5.62846,4.09343 -0.8528,0.8528 -1.7056,1.70559 -2.5584,2.55839 -1.87615,1.19392 -3.7523,2.38783 -5.62846,3.58175 -1.19391,0.8528 -2.38783,1.70559 -3.58174,2.55839 -0.8528,0.34112 -1.7056,0.68224 -2.55839,1.02336 -2.21728,1.19391 -4.43455,2.38783 -6.65182,3.58174 -4.80447,1.48175 -9.00307,2.77665 -13.68739,4.22134 -4.70621,0.58007 0,0 -13.75135,1.69494 -11.32088,-1.69494 0,0 -11.32088,-1.69494 -9.21021,-4.09342 -6.14014,-2.72894 -9.21021,-4.09342 -1.57767,-0.29847 -3.15535,-0.59695 -4.73302,-0.89543 -2.38783,-0.76752 -4.77567,-1.53504 -7.1635,-2.30256 -0.51168,-1.36447 -1.02335,-2.72895 -1.53503,-4.09342 z"
         inkscape:label="Main shadow"
         sodipodi:nodetypes="ccccccccccccccccccccccccccccccccccccccccccccccccccccccccccccccccccccccccccc"
         transform="matrix(1.5643475,0,0,1.5643475,-128.45113,-157.25505)" />
      <path
         style="display:inline;fill:#ddd6c2;fill-opacity:1;stroke:none;stroke-width:1.88976;stroke-opacity:1"
         d="m 352.30639,119.58416 c 0.15031,4.63481 0.45094,13.90443 0.34541,20.92708 -0.10553,7.02264 -0.61721,11.7983 -0.87305,14.86837 -0.25584,3.07007 -0.25584,4.43454 -0.4264,5.79901 -0.17056,1.36448 -0.51167,2.72896 -1.02335,4.09343 -0.51168,1.36448 -1.19391,2.72895 -1.53503,3.66703 -0.34112,0.93808 -0.34112,1.44976 -1.7056,3.92287 -1.36447,2.47311 -4.09343,6.90765 -6.39598,9.55132 -2.30255,2.64367 -4.1787,3.49647 -6.85875,4.59699 -2.68004,1.10053 -6.54256,2.59528 -8.47208,3.4301 -1.92952,0.83481 -1.92952,0.99971 -1.92952,1.17027 -0.34112,-0.17056 -0.68224,-0.34112 -0.76752,-0.59696 -0.0853,-0.25584 0.0853,-0.59696 0.41177,-1.20427 0.32649,-0.6073 0.8089,-1.48078 1.3865,-2.3392 0.5776,-0.85842 1.25038,-1.70176 2.3797,-4.64648 1.12932,-2.94472 2.71521,-7.99088 3.74936,-12.0339 1.03414,-4.04303 1.51656,-7.08295 1.67248,-8.77347 0.15593,-1.69052 -0.0146,-2.03164 -0.0999,-3.05499 -0.0853,-1.02336 -0.0853,-2.72895 -0.0853,-4.86094 0,-2.132 0,-4.69039 0.0853,-6.56654 0.0853,-1.87616 0.25584,-3.07007 0.32799,-11.61585 0.0721,-8.54578 0.0685,-10.72949 2.15013,-15.40436 2.08159,-4.67487 6.2597,-4.98391 8.79541,-5.17376 2.5357,-0.18985 3.429,-0.26049 4.60828,-0.30572 1.17929,-0.0452 2.64456,-0.065 3.37719,-0.0749 0.73264,-0.01 0.73266,-0.01 0.88297,4.62489 z"
         id="path5"
         inkscape:path-effect="#path-effect5"
         inkscape:original-d="m 352.15608,114.94935 c 0.30062,9.26962 0.60125,18.53924 0.90187,27.80886 -0.51168,4.77567 -1.02336,9.55133 -1.53504,14.32699 0,1.36448 0,2.72895 0,4.09343 -0.34111,1.36447 -0.68223,2.72895 -1.02335,4.09342 -0.68224,1.36448 -1.36448,2.72895 -2.04671,4.09343 0,0.51168 0,1.02336 0,1.53503 -2.72895,4.43455 -5.45791,8.86909 -8.18686,13.30364 -1.87615,0.85279 -3.7523,1.70559 -5.62846,2.55839 -3.48393,1.34825 -7.34645,2.843 -11.20549,4.33641 0,0.17622 0,0.51168 0,0.51168 0,0 -0.68224,-0.34112 -1.02336,-0.51168 0.17056,-0.34112 0.34112,-0.68224 0.51168,-1.02336 0.48242,-0.87349 0.96483,-1.74697 1.44725,-2.62046 0.67278,-0.84335 1.34556,-1.68669 2.01833,-2.53003 1.58587,-5.0461 3.17176,-10.09226 4.75764,-15.13839 0.48241,-3.03992 0.96483,-6.07984 1.44724,-9.11976 -0.17056,-0.34112 -0.34112,-0.68224 -0.51168,-1.02336 0,-1.70559 0,-3.41118 0,-5.11678 0,-2.55839 0,-5.11678 0,-7.67517 0.17056,-1.19392 0.34112,-2.38783 0.51168,-3.58175 -0.0263,-15.89764 -0.0299,-18.08135 -0.0448,-27.12204 4.17811,-0.30905 8.35622,-0.61809 12.53433,-0.92714 0.8933,-0.0707 1.7866,-0.14129 2.67989,-0.21194 1.46528,-0.0198 2.93055,-0.0396 4.39582,-0.0594 z"
         inkscape:label="Stem highlight"
         sodipodi:nodetypes="ccccccccccccccccccsccccccc"
         transform="matrix(1.5643475,0,0,1.5643475,-128.45113,-157.25505)" />
      <path
         style="display:inline;fill:none;stroke:#000000;stroke-width:1.88976;stroke-opacity:1"
         d="m 321.7671,192.37577 c 4.35617,-5.81431 8.09734,-14.14691 9.79811,-27.02779 1.70077,-12.88089 1.35699,-30.06949 1.57216,-38.67144 0.21516,-8.60196 1.78687,-9.91172 6.74132,-10.54623 4.95446,-0.63452 15.04669,-1.35539 19.99727,-1.52017 4.95059,-0.16478 5.46227,0.17634 6.04929,6.4738 0.58702,6.29747 1.29447,19.38525 1.80348,26.07294 0.50901,6.6877 0.85012,7.54049 1.19124,8.81968 0.34112,1.2792 0.68224,2.9848 0.8528,4.17871 0.17056,1.19392 0.17056,1.87616 0.59696,4.00815 0.4264,2.13199 1.27919,5.71374 1.79087,7.67517 0.51168,1.96143 0.68224,2.30255 0.8528,2.72895 0.17056,0.4264 0.34112,0.93808 0.51168,1.79088 0.17056,0.85279 0.34111,2.04671 1.02335,3.75231 0.68224,1.70559 1.87616,3.92286 2.64367,5.4579 0.76752,1.53503 1.10864,2.38782 1.62032,3.07006 0.51168,0.68224 1.19391,1.19392 2.04671,2.132 0.8528,0.93807 1.87615,2.30255 3.07007,3.49646 1.19392,1.19392 2.55839,2.21727 5.33593,3.95121 2.77754,1.73394 6.44134,3.87115 11.32306,6.79774 4.88171,2.92658 10.15382,6.15787 14.14448,8.53498 3.99065,2.37711 6.7196,3.91215 9.19271,5.44718 2.47311,1.53504 4.69038,3.07007 6.39597,4.09343 1.7056,1.02336 2.89952,1.53504 5.96512,3.74876 3.0656,2.21373 7.10098,5.4142 10.46038,7.99622 3.3594,2.58201 4.21219,3.09369 7.02736,6.09219 2.81517,2.9985 7.52224,8.40292 10.45511,12.08298 2.93287,3.68005 4.4679,6.06788 6.25877,8.54099 1.79087,2.47311 3.83759,5.03151 5.37262,7.41934 1.53504,2.38783 2.73734,4.99282 4.70496,8.21721 1.96762,3.22439 4.94441,7.67318 8.1296,18.37453 3.18519,10.70135 4.38543,24.37476 4.30048,34.98092 -0.0849,10.60616 -1.43946,18.05597 -2.29432,23.61046 -0.85485,5.55448 -1.19596,9.13622 -2.72933,13.65271 -1.53337,4.5165 -4.25143,9.95263 -6.81694,14.82779 -2.5655,4.87516 -4.95333,9.13914 -9.41079,14.27704 -4.45747,5.13789 -10.82753,11.00504 -14.69779,14.36105 -3.87027,3.35601 -5.06418,4.03825 -6.00226,4.72048 -0.93807,0.68224 -1.62031,1.36448 -2.98478,2.30256 -1.36448,0.93807 -3.4112,2.13199 -5.37263,3.32591 -1.96143,1.19391 -3.83758,2.38782 -5.79902,3.41118 -1.96143,1.02336 -4.00814,1.87615 -8.24012,3.34318 -4.23198,1.46704 -10.43267,3.47808 -14.86895,4.50199 -4.43627,1.02392 -6.99466,1.02392 -13.63445,0.0997 -6.63978,-0.92424 1.23783,0.43397 -6.20948,-1.19705 -7.4473,-1.63102 -10.34681,-2.82493 -12.99048,-3.84829 -2.64367,-1.02336 -5.0315,-1.87615 -6.65181,-2.64367 -1.62032,-0.76752 -2.47312,-1.44976 -4.26399,-2.72895 -1.79087,-1.27919 -4.51982,-3.15534 -6.99294,-4.94622 -2.47311,-1.79087 -4.69038,-3.49647 -6.65182,-4.94622 -1.96143,-1.44976 -3.66702,-2.64367 -5.79901,-2.72895 -2.13199,-0.0853 -4.69039,0.93807 -7.07822,1.62031 -2.38783,0.68224 -4.6051,1.02336 -7.33405,1.44976 -2.72895,0.4264 -5.96958,0.93807 -9.80716,0.93807 -3.83759,0 -8.27214,-0.51167 -11.59804,-1.10863 -3.32591,-0.59696 -5.54319,-1.2792 -7.67518,-1.7056 -2.13199,-0.4264 -4.1787,-0.59695 -8.44269,-1.53503 -4.26398,-0.93808 -10.74524,-2.64367 -15.17978,-3.75231 -4.43455,-1.10864 -6.82238,-1.62031 -9.55133,-2.47311 -2.72895,-0.8528 -5.79902,-2.04671 -8.10157,-2.89951 -2.30255,-0.8528 -3.83759,-1.36447 -5.62846,-2.13199 -1.79088,-0.76752 -3.83759,-1.79087 -5.4579,-2.72895 -1.62032,-0.93808 -2.81423,-1.79087 -6.3107,-4.09343 -3.49647,-2.30255 -9.29549,-6.05486 -13.73004,-9.12492 -4.43454,-3.07007 -7.5046,-5.45791 -10.24729,-7.73871 -2.74269,-2.28081 -10.56724,-9.3229 -13.54888,-12.30486 -2.98165,-2.98195 -3.83444,-4.34643 -4.8578,-5.88146 -1.02336,-1.53504 -2.21727,-3.24063 -2.89951,-4.34927 -0.68224,-1.10863 -0.8528,-1.62031 -1.36448,-2.64366 -0.51167,-1.02336 -1.36447,-2.5584 -3.15535,-6.14014 -1.79087,-3.58175 -4.51982,-9.21021 -6.22541,-13.4742 -1.7056,-4.26398 -2.38783,-7.16349 -2.98479,-9.72188 -0.59696,-2.5584 -1.10864,-4.77567 -0.4264,-10.31885 0.68223,-5.54318 2.55839,-14.41227 4.09342,-20.80825 1.53504,-6.39597 2.72895,-10.31884 3.92849,-13.65758 1.19953,-3.33874 2.38503,-6.04847 3.57754,-8.26252 1.19251,-2.21405 2.38642,-3.91964 5.28593,-7.58667 2.89951,-3.66703 -0.26842,0.20489 1.99778,-2.32803 2.26621,-2.53291 3.63068,-3.72683 4.8246,-4.6649 1.19391,-0.93808 2.21727,-1.62032 3.93535,-2.84613 1.71807,-1.22581 4.29799,-3.11775 17.99078,-10.0233 13.6928,-6.90556 38.83057,-18.95791 52.28599,-25.43017 13.45541,-6.47225 15.50212,-7.4956 17.10123,-8.1992 1.59911,-0.7036 2.38824,-0.96664 5.43815,-2.78311 3.04991,-1.81647 7.97185,-5.04119 12.32803,-10.85551 z"
         id="path1"
         inkscape:path-effect="#path-effect1"
         inkscape:original-d="m 322.35726,194.94939 c 3.99458,-8.28531 8.72697,-16.17287 11.25692,-25.07223 0.77252,-17.43248 -1.15146,-34.58948 -1.02336,-51.16782 0,-1.54881 1.82186,-2.55839 3.07007,-2.55839 8.94722,-3.8057 19.21658,-2.04671 28.65398,-2.04671 0.51168,0.34111 1.02336,0.68223 1.53503,1.02335 -2.7064,12.43592 0.65959,25.37999 2.04672,37.86419 0.34112,0.8528 0.68223,1.70559 1.02335,2.55839 0.34112,1.70559 0.68224,3.41119 1.02336,5.11678 0,0.68224 0,1.36448 0,2.04671 0.8528,3.58175 1.70559,7.1635 2.55839,10.74525 0.17056,0.34111 0.34112,0.68223 0.51168,1.02335 0.17056,0.51168 0.34112,1.02336 0.51168,1.53504 0.17056,1.19391 0.34112,2.38783 0.51167,3.58174 1.19392,2.21728 2.38784,4.43455 3.58175,6.65182 0.34112,0.8528 0.68224,1.70559 1.02336,2.55839 0.68224,0.51168 1.36447,1.02336 2.04671,1.53504 1.02336,1.36447 2.04671,2.72895 3.07007,4.09342 1.36448,1.02336 2.72895,2.04671 4.09343,3.07007 3.62461,3.41479 7.78021,4.70892 12.28027,7.16349 5.62303,2.80564 10.13972,7.26947 15.86203,9.72189 2.72895,1.53504 5.4579,3.07007 8.18685,4.6051 2.21727,1.53504 4.43454,3.07007 6.65181,4.60511 1.19392,0.51168 2.38784,1.02335 3.58175,1.53503 4.43719,4.54634 9.15003,6.89262 14.83867,11.7686 0.8528,0.51168 1.70559,1.02336 2.55839,1.53504 5.12463,5.18301 12.02015,8.68137 13.81531,15.86202 1.53504,2.38783 3.07007,4.77566 4.6051,7.16349 2.04672,2.55839 4.09343,5.11679 6.14014,7.67518 1.02336,2.21727 2.22566,4.82226 3.07007,6.65181 3.09083,4.61923 6.06762,9.06802 11.2375,16.79437 1.35398,13.66288 2.54821,27.33682 3.60117,41.02527 -2.21487,7.38326 -3.29027,14.88382 -4.09343,22.51384 -0.34112,3.58175 -0.68223,7.16349 -1.02335,10.74524 -2.18728,5.72041 -4.92118,11.14862 -8.18685,16.3737 -2.38784,4.26399 -4.77567,8.52797 -7.1635,12.79196 -6.44622,6.09961 -12.74339,12.0459 -19.44377,17.90873 -1.19392,0.68224 -2.38783,1.36448 -3.58175,2.04672 -0.68223,0.68223 -1.36447,1.36447 -2.04671,2.04671 -2.04671,1.19391 -4.09343,2.38783 -6.14014,3.58175 -1.87615,1.19391 -3.7523,2.38783 -5.62846,3.58174 -2.04671,0.8528 -4.09342,1.7056 -6.14014,2.55839 -6.05846,3.1875 -12.54557,4.31543 -18.93209,6.14014 -2.55839,0 -5.11678,0 -7.67517,0 -10.73151,-1.78859 -2.76457,-0.9485 -14.83867,-2.55839 -2.89951,-1.19391 -5.79902,-2.38783 -8.69853,-3.58175 -2.38783,-0.85279 -4.77566,-1.70559 -7.16349,-2.55839 -0.8528,-0.68223 -1.7056,-1.36447 -2.55839,-2.04671 -2.72895,-1.87615 -5.4579,-3.75231 -8.18686,-5.62846 -2.21727,-1.70559 -4.43454,-3.41119 -6.65181,-5.11678 -1.7056,-1.19392 -3.41119,-2.38783 -5.11678,-3.58175 -2.55839,1.02336 -5.11679,2.04671 -7.67518,3.07007 -2.21727,0.34112 -4.43454,0.68224 -6.65181,1.02336 -3.24063,0.51168 -6.48126,1.02335 -9.72189,1.53503 -4.43454,-0.51168 -8.86909,-1.02335 -13.30363,-1.53503 -2.21727,-0.68224 -4.43455,-1.36448 -6.65182,-2.04672 -2.04671,-0.17055 -4.09342,-0.34111 -6.14014,-0.51167 -6.48125,-1.7056 -12.96251,-3.41119 -19.44377,-5.11679 -2.38783,-0.51167 -4.77566,-1.02335 -7.16349,-1.53503 -3.07007,-1.19392 -6.14014,-2.38783 -9.21021,-3.58175 -1.53503,-0.51168 -3.07007,-1.02335 -4.6051,-1.53503 -2.04672,-1.02336 -4.09343,-2.04671 -6.14014,-3.07007 -1.19392,-0.8528 -2.38783,-1.7056 -3.58175,-2.55839 -5.79902,-3.75231 -11.59804,-7.50462 -17.39706,-11.25692 -3.07007,-2.38783 -6.14013,-4.77567 -9.2102,-7.1635 -2.30091,-2.30089 -10.12858,-9.33951 -15.35035,-13.81531 -0.8528,-1.36447 -1.70559,-2.72895 -2.55839,-4.09342 -1.19392,-1.7056 -2.38783,-3.41119 -3.58175,-5.11679 -0.17056,-0.51167 -0.34112,-1.02335 -0.51168,-1.53503 -0.85279,-1.53503 -1.70559,-3.07007 -2.55839,-4.6051 -2.72895,-5.62846 -5.4579,-11.25692 -8.18685,-16.88538 -0.68224,-2.89951 -1.36447,-5.79902 -2.04671,-8.69853 -0.51168,-2.21728 -1.02336,-4.43455 -1.53504,-6.65182 1.87616,-8.86909 3.75231,-17.73818 5.62846,-26.60727 1.19392,-3.92286 2.38784,-7.84573 3.58175,-11.76859 1.35648,-2.68841 2.85079,-5.26304 3.58175,-8.18685 1.19392,-1.7056 2.38783,-3.41119 3.58175,-5.11679 5.60191,-8.40291 1.81677,-1.44596 4.6051,-5.62846 1.36448,-1.19391 2.72895,-2.38783 4.09343,-3.58174 1.02335,-0.68224 2.04671,-1.36448 3.07007,-2.04672 2.04954,-2.26473 5.04838,-3.5854 7.67517,-5.62846 23.64339,-14.05429 48.95017,-25.75414 74.70501,-35.81747 2.04672,-1.02336 4.09343,-2.04671 6.14014,-3.07007 0.98683,-0.87789 1.94064,-0.64688 3.07007,-1.02336 4.82866,-3.47278 9.51355,-7.05932 14.83867,-9.72188 z"
         inkscape:label="Outline"
         sodipodi:nodetypes="ccccccccccccccccccccccccccccccccccccccccccccccccccccccccccccccccccccccccccccccccccccc"
         transform="matrix(1.5643475,0,0,1.5643475,-128.45113,-157.25505)" />
    </g>
  </g>
</svg>
