<?xml version="1.0" encoding="UTF-8" standalone="no"?>
<!-- Created with Inkscape (http://www.inkscape.org/) -->

<svg
   version="1.1"
   id="svg1"
   width="793.59998"
   height="559.35999"
   viewBox="0 0 793.59998 559.35999"
   sodipodi:docname="Green bean.svg"
   inkscape:version="1.4 (86a8ad7, 2024-10-11)"
   xmlns:inkscape="http://www.inkscape.org/namespaces/inkscape"
   xmlns:sodipodi="http://sodipodi.sourceforge.net/DTD/sodipodi-0.dtd"
   xmlns="http://www.w3.org/2000/svg"
   xmlns:svg="http://www.w3.org/2000/svg">
  <defs
     id="defs1">
    <inkscape:path-effect
       effect="bspline"
       id="path-effect10"
       is_visible="true"
       lpeversion="1.3"
       weight="33.333333"
       steps="2"
       helper_size="0"
       apply_no_weight="true"
       apply_with_weight="true"
       only_selected="false"
       uniform="false" />
    <inkscape:path-effect
       effect="bspline"
       id="path-effect8"
       is_visible="true"
       lpeversion="1.3"
       weight="33.333333"
       steps="2"
       helper_size="0"
       apply_no_weight="true"
       apply_with_weight="true"
       only_selected="false"
       uniform="false" />
    <inkscape:path-effect
       effect="bspline"
       id="path-effect7"
       is_visible="true"
       lpeversion="1.3"
       weight="33.333333"
       steps="2"
       helper_size="0"
       apply_no_weight="true"
       apply_with_weight="true"
       only_selected="false"
       uniform="false" />
    <inkscape:path-effect
       effect="bspline"
       id="path-effect6"
       is_visible="true"
       lpeversion="1.3"
       weight="33.333333"
       steps="2"
       helper_size="0"
       apply_no_weight="true"
       apply_with_weight="true"
       only_selected="false"
       uniform="false" />
    <inkscape:path-effect
       effect="bspline"
       id="path-effect5"
       is_visible="true"
       lpeversion="1.3"
       weight="33.333333"
       steps="2"
       helper_size="0"
       apply_no_weight="true"
       apply_with_weight="true"
       only_selected="false"
       uniform="false" />
    <inkscape:path-effect
       effect="bspline"
       id="path-effect4"
       is_visible="true"
       lpeversion="1.3"
       weight="33.333333"
       steps="2"
       helper_size="0"
       apply_no_weight="true"
       apply_with_weight="true"
       only_selected="false"
       uniform="false" />
    <inkscape:path-effect
       effect="bspline"
       id="path-effect3"
       is_visible="true"
       lpeversion="1.3"
       weight="33.333333"
       steps="2"
       helper_size="0"
       apply_no_weight="true"
       apply_with_weight="true"
       only_selected="false"
       uniform="false" />
    <inkscape:path-effect
       effect="bspline"
       id="path-effect1"
       is_visible="true"
       lpeversion="1.3"
       weight="33.333333"
       steps="2"
       helper_size="0"
       apply_no_weight="true"
       apply_with_weight="true"
       only_selected="false"
       uniform="false" />
  </defs>
  <sodipodi:namedview
     id="namedview1"
     pagecolor="#ffffff"
     bordercolor="#111111"
     borderopacity="1"
     inkscape:showpageshadow="0"
     inkscape:pageopacity="0"
     inkscape:pagecheckerboard="1"
     inkscape:deskcolor="#d1d1d1"
     inkscape:zoom="0.25"
     inkscape:cx="-232"
     inkscape:cy="938"
     inkscape:window-width="1920"
     inkscape:window-height="991"
     inkscape:window-x="-9"
     inkscape:window-y="-9"
     inkscape:window-maximized="1"
     inkscape:current-layer="g1" />
  <g
     inkscape:groupmode="layer"
     inkscape:label="Image"
     id="g1">
    <g
       id="g10"
       transform="matrix(1.1272203,0,0,1.1272203,-89.894539,-5.2105952)">
      <path
         style="display:inline;fill:#4eac57;fill-opacity:1;stroke:none;stroke-width:1.992"
         d="m 215.20118,136.8243 c 1.16422,-1.60209 2.56612,-2.39391 4.37286,-3.11127 1.80675,-0.71735 3.9272,-1.32131 6.38558,-2.04859 2.45837,-0.72728 5.23225,-1.5715 7.64892,-1.50326 2.41668,0.0683 4.44578,1.0345 5.56853,4.14134 1.12275,3.10684 1.26909,8.01225 1.46881,11.44826 0.19972,3.436 0.44092,5.00385 0.80274,6.69231 0.36181,1.68845 0.84422,3.4975 1.20882,4.8339 0.3646,1.3364 0.58685,2.11425 1.08793,4.3664 0.50107,2.25216 1.21071,5.68204 1.56754,8.97459 0.35684,3.29256 0.35684,6.42826 0.47744,8.11671 0.12061,1.68845 0.36181,1.92966 2.0956,4.32068 1.7338,2.39102 5.03534,7.03762 6.71613,9.49922 1.68079,2.4616 1.8014,2.82341 2.22351,3.54703 0.42212,0.72363 1.14574,1.80906 2.20102,3.82917 1.05528,2.02011 2.44195,4.97431 4.07031,8.71349 1.62836,3.73919 3.49744,8.26117 4.49249,11.06536 0.99504,2.8042 1.11565,3.88963 1.11565,4.55295 0,0.66332 -0.12061,0.90453 0.3015,2.38193 0.42212,1.47739 1.38694,4.19097 4.39332,8.36774 3.00638,4.17678 8.07334,9.83801 11.6453,14.58972 3.57196,4.75171 5.46311,7.96911 7.4826,11.3189 2.01949,3.34979 3.40356,5.55301 4.50407,7.69372 1.10051,2.14072 1.82413,4.07038 3.28269,7.63999 1.45856,3.5696 1.78569,4.34655 2.27413,4.91111 0.48844,0.56456 1.09146,0.80576 4.25385,3.36273 3.1624,2.55697 4.19369,3.43523 9.29401,8.51051 5.10033,5.07528 8.01607,9.01303 11.76989,13.71662 3.75383,4.70358 8.33671,10.16082 11.66839,12.84426 3.33168,2.68343 5.41208,2.59298 7.23587,2.96968 1.82378,0.37669 3.39151,1.22085 5.38188,2.60801 1.99037,1.38717 4.40245,3.31683 6.40848,5.38933 2.00602,2.07251 3.50686,4.15059 4.50242,6.03694 0.99555,1.88635 1.19559,2.68651 2.03204,4.9318 0.83645,2.24529 1.65052,3.30057 3.1558,3.51655 1.50527,0.21597 3.74034,-0.4183 6.61364,-0.35717 2.8733,0.0611 6.26308,0.80451 9.12742,1.66381 2.86433,0.8593 5.1558,1.82413 7.02515,2.12564 1.86936,0.30151 4.14353,-0.26704 5.34019,-0.63959 1.19667,-0.37254 6.28815,-2.06685 12.18553,-4.82144 5.89738,-2.75458 9.58449,-4.91618 12.46476,-6.38626 2.88026,-1.47009 5.10886,-2.20743 6.92063,-2.26314 1.81177,-0.0557 3.46553,0.48461 4.23211,1.05628 0.76657,0.57166 0.64597,1.17468 -0.19826,2.80283 -0.84422,1.62815 -2.41207,4.28143 -4.5171,6.18822 -2.10503,1.90678 -4.75711,3.07141 -7.73512,4.4868 -2.97801,1.4154 -6.28125,3.08101 -8.84219,4.2375 -2.56095,1.15649 -4.38065,1.80396 -6.99526,2.67769 -2.61461,0.87373 -6.01988,1.97258 -8.48889,2.69348 -2.46902,0.7209 -3.99613,1.06203 -5.39007,1.33521 -1.39394,0.27319 -2.65474,0.47844 -4.48208,0.96117 -1.82735,0.48273 -4.22124,1.24293 -6.43904,1.40983 -2.21779,0.1669 -4.25947,-0.2595 -5.42527,-0.72854 -1.1658,-0.46904 -1.45571,-0.98072 -2.26399,-0.75414 -0.80827,0.22658 -2.13491,1.19141 -4.73185,1.93403 -2.59694,0.74263 -6.29399,1.24014 -9.82113,1.73622 -3.52714,0.49608 -5.82199,0.83658 -8.61167,0.83788 -2.78968,0.001 -5.29342,-0.45191 -7.0821,-1.32028 -1.78868,-0.86837 -2.86492,-2.15237 -4.11297,-2.13408 -1.24805,0.0183 -2.66791,1.33887 -4.79847,2.07743 -2.13055,0.73857 -4.97207,0.89513 -7.88487,0.39442 -2.91281,-0.5007 -5.89699,-1.65867 -7.87146,-2.35825 -1.97448,-0.69958 -2.93931,-0.94079 -4.56746,-1.60411 -1.62815,-0.66332 -3.91962,-1.74876 -5.96988,-2.71358 -2.05026,-0.96483 -3.85932,-1.80906 -5.30656,-2.65329 -1.44725,-0.84423 -2.53268,-1.68845 -4.34174,-3.07539 -1.80905,-1.38694 -4.34173,-3.3166 -8.53846,-7.05342 -4.19674,-3.73683 -9.02205,-8.30131 -10.3725,-9.57877 -1.35046,-1.27746 -18.71739,-19.36802 -19.9507,-21.52881 -1.23331,-2.1608 -3.65602,-6.40546 -5.53545,-9.66974 -1.87943,-3.26428 -3.20989,-5.53733 -4.44713,-7.89628 -1.23724,-2.35896 -2.41588,-4.86297 -4.03955,-8.78881 -1.62367,-3.92584 -3.65275,-9.1711 -4.93238,-12.21731 -1.27964,-3.04621 -1.76205,-3.76983 -3.02839,-6.0613 -1.26634,-2.29147 -3.31661,-6.15079 -5.01206,-9.28649 -1.69545,-3.13569 -3.0361,-5.54777 -3.87298,-8.14708 -0.83687,-2.59931 -1.16913,-5.37868 -1.78701,-8.44636 -0.61788,-3.06768 -2.12453,-8.66379 -2.30641,-9.07229 -0.18188,-0.40849 -0.42308,-0.77031 -0.60399,-1.27739 -0.1809,-0.50708 -0.30151,-1.15942 -0.94717,-3.60114 -0.64567,-2.44172 -6.67707,-24.23952 -6.84482,-27.68543 -0.16774,-3.44592 -0.17318,-9.14318 -0.42334,-18.48654 -0.25017,-9.34336 -0.66976,-20.35509 -0.94305,-28.15819 -0.27329,-7.80309 -0.30501,-9.43319 0.11256,-11.91283 0.41757,-2.47964 1.18649,-4.56673 2.35071,-6.16883 z"
         id="path2"
         inkscape:path-effect="#path-effect3"
         inkscape:original-d="m 214.9158,136.04098 c 1.4496,-0.81877 2.8515,-1.61059 4.29973,-2.42859 2.16526,-0.61671 4.28571,-1.22067 6.42857,-1.831 2.77389,-0.84423 5.54777,-1.68846 8.32166,-2.53268 2.05946,0.98071 4.08856,1.94697 6.17838,2.94215 0.15568,5.2185 0.30202,10.12391 0.46025,15.42808 0.24121,1.56784 0.48242,3.13569 0.72362,4.70354 0.48242,1.80906 0.96483,3.61811 1.44725,5.42717 -0.1413,0.97462 0.30195,1.68933 0.72362,2.53267 1.02367,3.5561 1.0492,7.12752 2.17087,10.49253 0,3.13569 0,6.27139 0,9.40709 0.24121,0.2412 0.48241,0.48241 0.72362,0.72362 2.77408,4.8622 6.41502,9.26765 9.7689,13.74882 0.1206,0.36181 0.24121,0.72362 0.36181,1.08543 0.72362,1.08544 1.44725,2.17087 2.17087,3.2563 1.38694,2.95479 2.77361,5.90899 4.16083,8.86437 1.96075,4.48527 3.79033,9.02358 5.60807,13.56792 0.1206,1.08544 0.24121,2.17087 0.36181,3.2563 -0.1206,0.24121 -0.24121,0.48242 -0.36181,0.72363 0.96483,2.71358 1.92965,5.42716 2.89448,8.14074 5.04793,5.63997 10.11489,11.3012 14.65336,16.37196 2.60545,4.43266 4.4966,7.65006 6.96486,11.84932 1.57072,2.50032 2.95479,4.70354 4.43219,7.05531 0.72362,1.92966 1.44724,3.85932 2.17086,5.78898 2.29617,5.16632 2.6279,5.94133 2.89449,6.87441 0.60302,0.24121 1.20604,0.48241 1.80906,0.72362 5.72177,4.87273 6.75306,5.75099 14.02018,11.93977 2.93353,3.96178 5.84927,7.89953 8.77391,11.84931 4.59793,5.44486 9.19802,10.88765 13.74883,16.37195 2.08042,-0.0904 4.16082,-0.1809 6.24125,-0.27135 1.49865,0.97104 3.10927,1.73554 4.70354,2.53267 2.41207,1.92966 4.82415,3.85932 7.23623,5.78898 2.01105,1.91846 3.11242,4.28505 4.70354,6.5126 0,1.65063 0.65088,2.33808 1.44724,5.78898 0.81407,1.05529 1.62815,2.11057 2.44222,3.16585 2.19648,-0.62333 4.43155,-1.2576 6.69351,-1.89951 3.48464,0.76417 6.87442,1.50755 10.31162,2.26132 2.29147,0.96483 4.58294,1.92966 6.87441,2.89449 1.44724,-0.36181 3.72141,-0.93036 4.34173,-1.08544 1.77301,-0.59001 6.86449,-2.28432 12.4096,-4.12959 6.24965,-3.6639 9.93676,-5.8255 13.98631,-8.19958 1.71098,-0.56609 3.93958,-1.30343 5.90936,-1.95515 1.65376,0.54031 3.30752,1.08062 4.96128,1.62093 -0.12061,0.60302 -0.24121,1.20604 -0.36182,1.80906 -1.56784,2.65328 -3.13569,5.30656 -4.70354,7.95984 -2.64221,1.16029 -5.29429,2.32492 -7.94355,3.48831 -3.30676,1.6674 -6.61,3.33301 -9.915,4.99952 -1.81689,0.64647 -3.63659,1.29394 -5.44911,1.93885 -3.4167,1.10255 -6.82197,2.2014 -10.23292,3.30209 -1.52708,0.34111 -3.05419,0.68224 -4.58127,1.02335 -1.2608,0.20526 -2.5216,0.41051 -3.78239,0.61577 -2.3939,0.7602 -4.78779,1.5204 -7.18169,2.2806 -2.04169,-0.4264 -4.08337,-0.8528 -6.12506,-1.2792 -0.28991,-0.51168 -0.57982,-1.02336 -0.86973,-1.53503 -1.32664,0.96483 -2.65328,1.92966 -3.97992,2.89449 -3.86724,0.52042 -7.56429,1.01793 -11.514,1.54945 -3.10457,0.46064 -5.39942,0.80114 -8.4734,1.25725 -2.50873,-0.43503 -5.039,-0.74163 -7.51025,-1.35946 -1.07623,-1.284 -2.15247,-2.568 -3.2287,-3.852 -1.41987,1.32058 -2.83973,2.64116 -4.2596,3.96174 -2.84124,0.15655 -5.68276,0.31311 -8.52418,0.46967 -2.98419,-1.15797 -5.96837,-2.31594 -8.95249,-3.47389 -0.96483,-0.24121 -1.92966,-0.48242 -2.89449,-0.72363 -2.29147,-1.08543 -4.58294,-2.17086 -6.87441,-3.2563 -1.80905,-0.84422 -3.61811,-1.68845 -5.42716,-2.53268 -1.08544,-0.84422 -2.17087,-1.68845 -3.2563,-2.53267 -2.53268,-1.92966 -5.06536,-3.85932 -7.59804,-5.78898 -5.70676,-5.70682 -11.12381,-9.64575 -13.38701,-12.66339 L 258.69495,315.8611 c -2.80094,-4.13077 -5.44929,-8.24664 -7.33843,-12.85715 -1.3256,-2.22839 -2.42964,-4.63397 -3.93603,-6.72454 -1.17867,-2.50408 -2.35731,-5.00809 -3.53597,-7.51213 -3.2025,-4.90903 -4.61529,-10.3927 -6.17462,-15.9617 -0.48241,-0.72362 -0.96483,-1.44724 -1.44724,-2.17087 -2.05026,-3.85931 -4.10053,-7.71863 -6.15079,-11.57795 -1.34064,-2.41207 -2.68129,-4.82415 -4.02193,-7.23622 -0.2793,-2.79298 -0.44695,-5.59203 -0.99765,-8.34548 -1.61479,-3.16429 -2.46552,-8.937 -2.53268,-9.40709 -0.2412,-0.36182 -0.48241,-0.72363 -0.72362,-1.08544 -0.1206,-0.65235 -0.2412,-1.30469 -0.36181,-1.95704 -1.22699,-4.21552 -7.53219,-25.93756 -7.53219,-27.22175 -0.005,-5.69897 -0.0109,-11.39623 -0.0163,-17.09479 -0.4949,-12.98816 -0.91449,-23.99989 -1.41088,-37.02701 -1.32013,-2.55436 -0.99005,-4.1915 -0.13168,-6.76655 0.13785,-2.67713 1.15634,-4.67228 2.53267,-6.87441 z"
         sodipodi:nodetypes="ccccccccccccccccccccccccccccccccccccscccccccccccccccscccccccccccccccccccccccccccccccc"
         inkscape:label="Base color"
         transform="matrix(2.8520668,0,0,2.017538,-488.37481,-247.01249)" />
      <path
         style="fill:#349a3e;fill-opacity:1;stroke:none;stroke-width:1.992"
         d="m 224.20229,189.46842 c 2.17087,-1.44724 5.66837,-3.73871 8.32166,-6.09048 2.65328,-2.35178 4.46233,-4.76385 5.78897,-6.69351 1.32664,-1.92966 2.17087,-3.37691 2.89449,-4.76385 0.72362,-1.38694 1.32664,-2.71358 1.71107,-3.88193 0.38442,-1.16835 0.55025,-2.17841 0.85176,-2.35931 0.3015,-0.18091 0.73869,0.46734 0.89699,1.63569 0.15829,1.16835 0.0377,2.85679 0.21859,4.48495 0.18091,1.62815 0.66332,3.196 1.08544,6.24124 0.42211,3.04524 0.0603,-1.4774 0.12026,1.47935 0.06,2.95676 -0.1827,4.35209 -0.48314,5.28061 -0.30044,0.92853 -0.66225,1.41094 -1.86829,2.67728 -1.20604,1.26634 -3.2563,3.3166 -6.09049,5.12566 -2.83419,1.80905 -6.4523,3.3769 -9.04528,4.16083 -2.59298,0.78392 -4.16082,0.78392 -5.54777,0.78392 -1.38694,0 -2.59298,0 -3.07539,-0.42211 -0.48241,-0.42212 -0.24121,-1.26634 -0.0603,-2.17087 0.1809,-0.90453 0.30151,-1.86936 0.78392,-2.65328 0.48242,-0.78393 1.32664,-1.38694 3.49751,-2.83419 z"
         id="path3"
         inkscape:path-effect="#path-effect4"
         inkscape:original-d="m 222.87565,190.31265 c 3.49751,-2.29147 6.99501,-4.58294 10.49252,-6.87441 1.80906,-2.41208 3.61811,-4.82415 5.42717,-7.23623 0.84422,-1.44724 1.68845,-2.89449 2.53267,-4.34173 0.60302,-1.32664 1.20604,-2.65328 1.80906,-3.97992 0.16583,-1.01006 0.33166,-2.02012 0.49749,-3.03017 0.43719,0.64824 0.87438,1.29649 1.31156,1.94474 -0.1206,1.68845 -0.2412,3.37689 -0.36181,5.06535 0.48242,1.56785 0.96483,3.1357 1.44725,4.70354 0.36181,4.52264 0,0 0.36181,4.52264 -0.23228,1.39254 -0.72362,2.74462 -0.72362,4.16083 -0.36181,0.48242 -0.72362,0.96483 -1.08544,1.44725 -2.05026,2.05026 -4.10052,4.10052 -6.15078,6.15078 -3.61812,1.56785 -7.23623,3.1357 -10.85434,4.70355 -1.56785,0 -3.13569,0 -4.70354,0 -1.20604,0 -2.41208,0 -3.61811,0 0.2412,-0.84423 0.48241,-1.68845 0.72362,-2.53268 0.1206,-0.96483 0.24121,-1.92966 0.36181,-2.89449 0.84423,-0.60302 1.68845,-1.20603 2.53268,-1.80905 z"
         sodipodi:nodetypes="ccccccccccccccscccc"
         transform="matrix(2.8520668,0,0,2.017538,-488.37481,-247.01249)" />
      <path
         style="fill:#349a3e;fill-opacity:1;stroke:none;stroke-width:1.992"
         d="m 257.91103,205.20721 c -0.18091,2.11056 -0.42212,5.00505 -0.60242,7.22833 -0.1803,2.22328 -0.30166,3.80095 -0.6034,5.73359 -0.30173,1.93263 -0.78415,4.2241 -1.02535,5.61105 -0.24121,1.38694 -0.24121,1.86935 -0.3635,2.78317 -0.1223,0.91383 -0.35803,2.21038 -0.66059,3.24126 -0.30255,1.03088 -0.66436,1.7545 -1.14678,2.96054 -0.48242,1.20604 -1.08543,2.89449 -1.57235,4.17134 -0.48692,1.27685 -0.82795,2.07256 -1.49716,3.17174 -0.66921,1.09918 -1.63404,2.42582 -2.65917,3.75246 -1.02513,1.32664 -2.11056,2.65328 -3.37691,3.97992 -1.26634,1.32665 -2.71358,2.65329 -3.67841,3.49751 -0.96482,0.84423 -1.44724,1.20604 -1.62373,1.64582 -0.17648,0.43977 -0.0727,0.85486 0.4137,1.41357 0.48641,0.55872 1.33064,1.16174 2.17487,1.40295 0.84422,0.24121 1.68845,0.1206 2.95479,0.0603 1.26634,-0.0603 2.95479,-0.0603 4.70354,-0.36181 1.74875,-0.30151 3.55781,-0.90453 4.86442,-1.40708 1.30662,-0.50255 1.89615,-0.79732 2.70685,-1.17252 0.81069,-0.37519 1.65491,-0.737 3.411,-1.70617 1.7561,-0.96916 4.40507,-2.53447 6.57075,-4.34046 2.16568,-1.80599 3.85413,-3.85625 4.81897,-5.4241 0.96483,-1.56785 1.20603,-2.65328 1.40167,-3.49201 0.19564,-0.83873 0.3457,-1.43072 -0.31763,-2.87798 -0.66333,-1.44726 -2.14002,-3.74971 -3.10453,-6.45685 -0.96452,-2.70715 -1.42884,-5.90145 -2.68155,-10.14943 -1.25272,-4.24798 -1.4841,-4.87123 -3.9388,-10.66619 -2.4547,-5.79495 -3.41953,-6.75978 -3.96225,-7.1819 -0.54271,-0.42211 -0.66332,-0.3015 -0.78392,0.42212 -0.1206,0.72362 -0.24121,2.05026 -0.42211,4.16083 z"
         id="path4"
         inkscape:path-effect="#path-effect5"
         inkscape:original-d="m 257.97133,204.42328 c -0.24121,2.89449 -0.48242,5.78898 -0.72363,8.68347 -0.5093,1.52208 -0.36181,3.12043 -0.36181,4.70354 -0.48241,2.29147 -0.96483,4.58294 -1.44724,6.87441 0,0.48242 0,0.96483 0,1.44725 -0.53575,1.29229 -0.72362,2.59754 -0.72362,3.97992 -0.36182,0.72362 -0.72363,1.44724 -1.08544,2.17087 -0.60302,1.68845 -1.20603,3.3769 -1.80905,5.06535 -0.65065,0.74532 -0.85244,1.60071 -1.08544,2.53268 -0.96483,1.32664 -1.92966,2.65328 -2.89449,3.97992 -1.08543,1.32664 -2.17086,2.65328 -3.2563,3.97992 -1.44725,1.32665 -2.89449,2.65329 -4.34173,3.97993 -0.48241,0.36181 -0.96483,0.72362 -1.44724,1.08543 0.32348,0.46923 0.36181,0.90068 0.36181,1.44724 0.84422,0.60302 1.68845,1.20604 2.53268,1.80906 0.84422,-0.1206 1.68845,-0.24121 2.53267,-0.36181 1.68846,0 3.37691,0 5.06536,0 1.80905,-0.60302 3.61811,-1.20604 5.42717,-1.80906 0.94772,-0.11498 1.52323,-0.4378 2.17086,-1.08543 0.84423,-0.36181 1.68845,-0.72362 2.53268,-1.08543 2.62152,-1.65511 5.07579,-3.54992 7.95984,-4.70355 1.68846,-2.05026 3.37691,-4.10052 5.06536,-6.15079 0.24121,-1.08543 0.48242,-2.17086 0.72362,-3.2563 0.15007,-0.59202 0.30013,-1.18401 0.4502,-1.77602 -1.47673,-2.30251 -2.95342,-4.60496 -4.43012,-6.90744 -0.41267,-3.11757 0.56036,-6.52081 -1.33408,-9.17786 -2.088,-5.62421 -2.31938,-6.24746 -6.26395,-16.87254 -0.96483,-0.96483 -1.92966,-1.92966 -2.89449,-2.89449 0.20984,0.45104 -0.24121,0.24121 -0.36181,0.36181 -0.12061,1.32664 -0.24121,2.65328 -0.36181,3.97992 z"
         sodipodi:nodetypes="cccccccccccccccccccccccccccccc"
         transform="matrix(2.8520668,0,0,2.017538,-488.37481,-247.01249)" />
      <path
         style="fill:#369b40;fill-opacity:1;stroke:none;stroke-width:1.992"
         d="m 291.76729,260.66547 c -0.87115,-0.16147 -0.87115,2.37121 -1.47417,5.44661 -0.60302,3.07539 -1.80905,6.6935 -2.65328,8.92467 -0.84423,2.23117 -1.32664,3.07539 -1.92966,4.46233 -0.60302,1.38695 -1.32664,3.31661 -1.92966,4.76386 -0.60302,1.44724 -1.08543,2.41207 -1.68957,4.04376 -0.60414,1.63169 -1.32514,3.91485 -1.80775,5.66422 -0.48261,1.74937 -0.72381,2.9554 -1.86955,5.30717 -1.14573,2.35178 -3.19599,5.84928 -4.52264,7.83924 -1.32664,1.98997 -1.92965,2.47238 -2.59297,3.1357 -0.66332,0.66332 -1.38695,1.50755 -2.23118,2.17087 -0.84422,0.66332 -1.88265,1.18253 -2.79708,1.61641 -0.91443,0.43387 -1.98155,0.9143 -2.78506,1.47058 -0.80351,0.55627 -1.39201,1.22532 -1.42405,1.84078 -0.032,0.61547 0.49359,1.40392 1.07376,1.93522 0.58017,0.53129 1.3194,0.9009 1.93746,1.08933 0.61807,0.18843 1.10049,0.18843 2.60803,0.24873 1.50755,0.0603 4.04023,0.18091 5.72868,0.24121 1.68845,0.0603 2.53268,0.0603 3.196,0.1206 0.66332,0.0603 1.14573,0.18091 2.17087,0.1206 1.02513,-0.0603 2.59297,-0.3015 4.04021,-0.78392 1.44725,-0.48241 2.77389,-1.20603 4.18113,-2.02564 1.40723,-0.8196 3.04319,-1.82635 4.19488,-2.79484 1.15169,-0.9685 1.87531,-1.93333 2.77984,-3.01876 0.90453,-1.08543 1.98996,-2.29147 3.196,-3.73871 1.20604,-1.44725 2.53268,-3.1357 3.37778,-4.70705 0.8451,-1.57134 1.20102,-2.99502 1.5649,-4.14904 0.36388,-1.15402 0.7257,-1.99825 1.08627,-3.8577 0.36057,-1.85946 0.72566,-4.78019 0.72253,-7.33563 -0.003,-2.55544 -0.33758,-4.57971 -1.01622,-6.74855 -0.67864,-2.16885 -1.59611,-4.11687 -2.83126,-6.75812 -1.23515,-2.64125 -2.80213,-6.00831 -4.39222,-8.9965 -1.5901,-2.98818 -3.04086,-5.36596 -3.91202,-5.52743 z"
         id="path5"
         inkscape:path-effect="#path-effect6"
         inkscape:original-d="m 290.89614,257.97133 c 0,2.53267 0,5.06535 0,7.59803 -1.20604,3.61811 -2.41208,7.23622 -3.61811,10.85433 -0.48242,0.84423 -0.96483,1.68845 -1.44725,2.53268 -0.72362,1.92966 -1.44724,3.85932 -2.17086,5.78898 -0.48242,0.96483 -0.96483,1.92966 -1.44725,2.89449 -0.65118,2.32213 -1.27543,4.63584 -2.17087,6.87441 -0.2412,1.20604 -0.48241,2.41207 -0.72362,3.61811 -2.05026,3.49751 -4.10052,6.99501 -6.15079,10.49252 -0.60302,0.48242 -1.20603,0.96483 -1.80905,1.44725 -0.72362,0.84422 -1.44725,1.68845 -2.17087,2.53267 -0.96483,0.48242 -2.00326,1.00163 -2.89449,1.44725 -0.93763,0.42213 -2.00475,0.90256 -3.04517,1.37097 -0.5666,0.64414 -1.1551,1.31319 -1.65837,1.88533 0.43919,0.65879 0.96483,1.44724 1.44724,2.17087 0.90403,-0.11327 1.48567,0.57153 2.17087,1.08543 0.48241,0 0.96483,0 1.44724,0 2.53268,0.1206 5.06536,0.24121 7.59804,0.36181 0.84422,0 1.68845,0 2.53267,0 0.48242,0.1206 0.96483,0.24121 1.44725,0.36181 1.56785,-0.24121 3.13569,-0.48241 4.70354,-0.72362 1.32664,-0.72362 2.65328,-1.44725 3.97993,-2.17087 1.70575,-0.56145 3.11286,-1.94008 4.70354,-2.89449 0.72362,-0.96483 1.44724,-1.92966 2.17087,-2.89449 1.08543,-1.20603 2.17086,-2.41207 3.2563,-3.61811 1.32664,-1.68845 2.65328,-3.3769 3.97992,-5.06535 0.71406,-1.36662 0.87091,-2.84006 1.08543,-4.34174 0.36181,-0.84422 0.72362,-1.68845 1.08544,-2.53267 0.0945,-2.90779 0.67376,-5.80175 1.08543,-8.68347 -1.1202,-2.09843 -1.08895,-4.18312 -1.07225,-6.48967 -0.98675,-2.09512 -1.90422,-4.04314 -2.90767,-6.17372 -0.72191,-3.4986 -2.87719,-6.59188 -4.53268,-9.73967 -1.68134,-2.75568 -3.1321,-5.13346 -4.87441,-7.98907 z"
         sodipodi:nodetypes="ccccccccccccccccccccccccccccccccc"
         transform="matrix(2.8520668,0,0,2.017538,-488.37481,-247.01249)" />
      <path
         style="fill:#359a3f;fill-opacity:1;stroke:none;stroke-width:1.992"
         d="m 327.25804,314.83411 c 0.0604,1.99182 -0.0602,2.23303 -0.18079,5.30821 -0.12059,3.07518 -0.24119,8.98455 -0.2412,12.18087 -10e-6,3.19632 0.1206,3.67873 0.1809,4.70387 0.0603,1.02513 0.0603,2.59297 0.27164,4.09125 0.21135,1.49828 0.3373,1.92401 0.23467,4.79778 -0.10264,2.87377 -0.72091,5.09086 -0.58346,6.15121 0.13745,1.06035 0.49926,2.8694 1.28318,4.55786 0.78393,1.68845 1.98997,3.2563 2.95479,4.10053 0.96483,0.84422 1.68846,0.96483 2.6218,1.04515 0.93334,0.0803 2.0764,0.12036 4.00078,0.66997 1.92438,0.54961 4.63009,1.6088 7.91788,2.01089 3.28778,0.40209 7.15765,0.14709 10.35893,-0.28192 3.20128,-0.42901 5.73396,-1.03202 7.48271,-1.57474 1.74875,-0.54272 2.71358,-1.02513 3.67841,-1.44725 0.96483,-0.42211 1.92966,-0.78392 2.41207,-1.56785 0.48242,-0.78392 0.48242,-1.98995 0.48242,-2.89448 0,-0.90453 0,-1.50755 -0.12058,-2.11051 -0.12058,-0.60295 -0.36119,-1.20449 -0.72332,-2.41133 -0.36213,-1.20684 -0.84455,-3.01589 -1.20636,-4.16163 -0.36181,-1.14573 -0.60302,-1.62815 -0.88069,-2.34355 -0.27766,-0.7154 -0.36842,-0.9894 -1.50581,-3.49858 -1.13738,-2.50919 -2.87246,-5.90044 -4.88623,-8.68247 -2.01376,-2.78203 0.23658,-0.65013 -6.02864,-5.5968 -6.26521,-4.94667 -4.38903,-3.82049 -6.29951,-4.96726 -3.15356,-1.109 -6.24729,-2.19696 -9.90161,-5.24505 -3.65432,-3.04808 -6.86754,-6.94461 -9.29074,-9.74435 -2.4232,-2.79975 -2.49099,-2.68976 -2.41192,-0.7549 0.0791,1.93487 0.32025,5.67326 0.38068,7.66508 z"
         id="path6"
         inkscape:path-effect="#path-effect7"
         inkscape:original-d="m 327.43906,316.58473 c -0.1206,0.2412 -0.24121,0.48241 -0.36181,0.72362 0.0949,5.91355 -0.15807,11.82022 -0.36181,17.72874 0.1206,0.48242 0.24121,0.96483 0.36181,1.44725 0,1.56785 0,3.13569 0,4.70354 0.42269,1.42871 0.54864,1.85444 1.26806,4.28612 -0.92469,3.31586 -1.54296,5.53295 -1.62987,5.84459 0.36181,1.80906 0.72362,3.61811 1.08543,5.42717 1.20604,1.56785 2.41208,3.1357 3.61811,4.70355 0.72362,0.1206 1.44725,0.2412 2.17087,0.36181 1.14306,0.04 2.28612,0.0801 3.42918,0.12012 2.7057,1.05918 5.41141,2.11837 8.11711,3.17755 3.86987,-0.255 7.73974,-0.51 11.60962,-0.765 2.53268,-0.60302 5.06536,-1.20603 7.59803,-1.80905 0.96483,-0.48242 1.92966,-0.96483 2.89449,-1.44725 0.96483,-0.36181 1.92966,-0.72362 2.89449,-1.08543 0,-1.20604 0,-2.41207 0,-3.61811 0,-0.60302 0,-1.20604 0,-1.80906 -0.33042,-0.56719 -0.51734,-1.1902 -0.72362,-1.80905 -0.48242,-1.80906 -0.96483,-3.61811 -1.44724,-5.42717 -0.24121,-0.48241 -0.48242,-0.96483 -0.72363,-1.44724 -0.31412,-0.94839 -0.40488,-1.22239 -0.94237,-2.84518 -1.6779,-3.42596 -3.31534,-6.86717 -5.20842,-10.18002 -2.29147,-2.17087 -0.0411,-0.039 -6.87441,-6.5126 -5.69715,-3.41971 -5.73145,-3.4403 -5.73145,-3.4403 0,0 -6.24729,-2.19697 -9.46069,-3.32701 -4.09524,-4.96612 -7.30846,-8.86265 -12.05697,-14.62095 -0.0979,0.1588 -0.16568,0.2688 -0.24853,0.40321 -0.17228,3.76198 0.33071,7.48348 0.72362,11.21615 z"
         sodipodi:nodetypes="ccccccccccccccccscccccccccccc"
         transform="matrix(2.8520668,0,0,2.017538,-488.37481,-247.01249)" />
      <path
         style="fill:#369c40;fill-opacity:1;stroke:none;stroke-width:1.992"
         d="m 405.53136,345.44496 c -1.62035,1.04353 -3.67671,2.37411 -4.82399,3.03844 -1.14729,0.66433 -1.3885,0.66433 -1.75031,0.84523 -0.36181,0.18091 -0.84423,0.54272 -1.38694,0.84423 -0.54272,0.30151 -1.14574,0.54271 -2.35178,1.32664 -1.20603,0.78392 -3.01509,2.11056 -4.22113,3.13569 -1.20604,1.02513 -1.80905,1.74876 -2.41207,2.35178 -0.60302,0.60302 -1.20604,1.08543 -1.50755,1.74875 -0.30151,0.66332 -0.30151,1.50755 -0.1809,1.92966 0.1206,0.42211 0.36181,0.42211 0.60302,0.48241 0.2412,0.0603 0.48241,0.18091 6.35822,-2.13056 5.87581,-2.31147 16.22895,-6.57811 22.63989,-9.25103 6.41093,-2.67293 6.97686,-2.93018 8.80911,-3.99031 1.83226,-1.06013 3.06063,-2.00938 4.28064,-3.57175 1.22002,-1.56237 2.3113,-3.79122 2.33319,-5.2455 0.0219,-1.45428 -0.9623,-2.19129 -2.52094,-2.20988 -1.55864,-0.0186 -3.65822,0.68408 -6.49272,1.80139 -2.83449,1.11731 -6.44272,2.66224 -9.39752,4.16979 -2.9548,1.50755 -6.35786,3.6815 -7.97822,4.72502 z"
         id="path7"
         inkscape:path-effect="#path-effect8"
         inkscape:original-d="m 405.95207,345.1678 c -2.26755,0.97066 -4.16989,2.53927 -6.15079,3.97993 -0.2412,0 -0.48241,0 -0.72362,0 -0.48241,0.36181 -0.96483,0.72362 -1.44724,1.08543 -0.60302,0.24121 -1.20604,0.48242 -1.80906,0.72362 -1.80905,1.32664 -3.61811,2.65328 -5.42717,3.97992 -0.60301,0.72363 -1.20603,1.44725 -1.80905,2.17087 -0.60302,0.48242 -1.20604,0.96483 -1.80906,1.44725 0,0.84422 0,1.68845 0,2.53267 0.24121,0 0.48242,0 0.72363,0 0.2412,0.12061 0.48241,0.24121 0.72362,0.36182 11.51041,-4.74356 21.86355,-9.01019 33.22881,-13.69392 1.45661,-0.66212 2.02254,-0.91937 4.2587,-1.93584 1.74632,-0.69232 2.67575,-2.02841 4.12077,-3.18442 0.97598,-1.99336 2.06726,-4.22221 3.12103,-6.37444 -1.00999,-0.75633 -1.99418,-1.49334 -2.99136,-2.24007 -2.14291,0.64138 -4.40689,0.85284 -6.28046,2.10191 -3.60821,1.54493 -7.21644,3.08987 -10.82467,4.6348 -2.30137,1.47016 -5.70443,3.64411 -6.90408,4.41047 z"
         sodipodi:nodetypes="scccccccccccccccccs"
         transform="matrix(2.8520668,0,0,2.017538,-488.37481,-247.01249)" />
      <path
         style="display:inline;fill:none;stroke:#000000;stroke-width:1.992"
         d="m 215.20118,136.8243 c 1.16422,-1.60209 2.56612,-2.39391 4.37286,-3.11127 1.80675,-0.71735 3.9272,-1.32131 6.38558,-2.04859 2.45837,-0.72728 5.23225,-1.5715 7.64892,-1.50326 2.41668,0.0683 4.44578,1.0345 5.56853,4.14134 1.12275,3.10684 1.26909,8.01225 1.46881,11.44826 0.19972,3.436 0.44092,5.00385 0.80274,6.69231 0.36181,1.68845 0.84422,3.4975 1.20882,4.8339 0.3646,1.3364 0.58685,2.11425 1.08793,4.3664 0.50107,2.25216 1.21071,5.68204 1.56754,8.97459 0.35684,3.29256 0.35684,6.42826 0.47744,8.11671 0.12061,1.68845 0.36181,1.92966 2.0956,4.32068 1.7338,2.39102 5.03534,7.03762 6.71613,9.49922 1.68079,2.4616 1.8014,2.82341 2.22351,3.54703 0.42212,0.72363 1.14574,1.80906 2.20102,3.82917 1.05528,2.02011 2.44195,4.97431 4.07031,8.71349 1.62836,3.73919 3.49744,8.26117 4.49249,11.06536 0.99504,2.8042 1.11565,3.88963 1.11565,4.55295 0,0.66332 -0.12061,0.90453 0.3015,2.38193 0.42212,1.47739 1.38694,4.19097 4.39332,8.36774 3.00638,4.17678 8.07334,9.83801 11.6453,14.58972 3.57196,4.75171 5.46311,7.96911 7.4826,11.3189 2.01949,3.34979 3.40356,5.55301 4.50407,7.69372 1.10051,2.14072 1.82413,4.07038 3.28269,7.63999 1.45856,3.5696 1.78569,4.34655 2.27413,4.91111 0.48844,0.56456 1.09146,0.80576 4.25385,3.36273 3.1624,2.55697 4.19369,3.43523 9.29401,8.51051 5.10033,5.07528 8.01607,9.01303 11.76989,13.71662 3.75383,4.70358 8.33671,10.16082 11.66839,12.84426 3.33168,2.68343 5.41208,2.59298 7.23587,2.96968 1.82378,0.37669 3.39151,1.22085 5.38188,2.60801 1.99037,1.38717 4.40245,3.31683 6.40848,5.38933 2.00602,2.07251 3.50686,4.15059 4.50242,6.03694 0.99555,1.88635 1.19559,2.68651 2.03204,4.9318 0.83645,2.24529 1.65052,3.30057 3.1558,3.51655 1.50527,0.21597 3.74034,-0.4183 6.61364,-0.35717 2.8733,0.0611 6.26308,0.80451 9.12742,1.66381 2.86433,0.8593 5.1558,1.82413 7.02515,2.12564 1.86936,0.30151 4.14353,-0.26704 5.34019,-0.63959 1.19667,-0.37254 6.28815,-2.06685 12.18553,-4.82144 5.89738,-2.75458 9.58449,-4.91618 12.46476,-6.38626 2.88026,-1.47009 5.10886,-2.20743 6.92063,-2.26314 1.81177,-0.0557 3.46553,0.48461 4.23211,1.05628 0.76657,0.57166 0.64597,1.17468 -0.19826,2.80283 -0.84422,1.62815 -2.41207,4.28143 -4.5171,6.18822 -2.10503,1.90678 -4.75711,3.07141 -7.73512,4.4868 -2.97801,1.4154 -6.28125,3.08101 -8.84219,4.2375 -2.56095,1.15649 -4.38065,1.80396 -6.99526,2.67769 -2.61461,0.87373 -6.01988,1.97258 -8.48889,2.69348 -2.46902,0.7209 -3.99613,1.06203 -5.39007,1.33521 -1.39394,0.27319 -2.65474,0.47844 -4.48208,0.96117 -1.82735,0.48273 -4.22124,1.24293 -6.43904,1.40983 -2.21779,0.1669 -4.25947,-0.2595 -5.42527,-0.72854 -1.1658,-0.46904 -1.45571,-0.98072 -2.26399,-0.75414 -0.80827,0.22658 -2.13491,1.19141 -4.73185,1.93403 -2.59694,0.74263 -6.29399,1.24014 -9.82113,1.73622 -3.52714,0.49608 -5.82199,0.83658 -8.61167,0.83788 -2.78968,0.001 -5.29342,-0.45191 -7.0821,-1.32028 -1.78868,-0.86837 -2.86492,-2.15237 -4.11297,-2.13408 -1.24805,0.0183 -2.66791,1.33887 -4.79847,2.07743 -2.13055,0.73857 -4.97207,0.89513 -7.88487,0.39442 -2.91281,-0.5007 -5.89699,-1.65867 -7.87146,-2.35825 -1.97448,-0.69958 -2.93931,-0.94079 -4.56746,-1.60411 -1.62815,-0.66332 -3.91962,-1.74876 -5.96988,-2.71358 -2.05026,-0.96483 -3.85932,-1.80906 -5.30656,-2.65329 -1.44725,-0.84423 -2.53268,-1.68845 -4.34174,-3.07539 -1.80905,-1.38694 -4.34173,-3.3166 -8.53846,-7.05342 -4.19674,-3.73683 -9.02205,-8.30131 -10.3725,-9.57877 -1.35046,-1.27746 -18.71739,-19.36802 -19.9507,-21.52881 -1.23331,-2.1608 -3.65602,-6.40546 -5.53545,-9.66974 -1.87943,-3.26428 -3.20989,-5.53733 -4.44713,-7.89628 -1.23724,-2.35896 -2.41588,-4.86297 -4.03955,-8.78881 -1.62367,-3.92584 -3.65275,-9.1711 -4.93238,-12.21731 -1.27964,-3.04621 -1.76205,-3.76983 -3.02839,-6.0613 -1.26634,-2.29147 -3.31661,-6.15079 -5.01206,-9.28649 -1.69545,-3.13569 -3.0361,-5.54777 -3.87298,-8.14708 -0.83687,-2.59931 -1.16913,-5.37868 -1.78701,-8.44636 -0.61788,-3.06768 -2.12453,-8.66379 -2.30641,-9.07229 -0.18188,-0.40849 -0.42308,-0.77031 -0.60399,-1.27739 -0.1809,-0.50708 -0.30151,-1.15942 -0.94717,-3.60114 -0.64567,-2.44172 -6.67707,-24.23952 -6.84482,-27.68543 -0.16774,-3.44592 -0.17318,-9.14318 -0.42334,-18.48654 -0.25017,-9.34336 -0.66976,-20.35509 -0.94305,-28.15819 -0.27329,-7.80309 -0.30501,-9.43319 0.11256,-11.91283 0.41757,-2.47964 1.18649,-4.56673 2.35071,-6.16883 z"
         id="path8"
         inkscape:path-effect="#path-effect10"
         inkscape:original-d="m 214.9158,136.04098 c 1.4496,-0.81877 2.8515,-1.61059 4.29973,-2.42859 2.16526,-0.61671 4.28571,-1.22067 6.42857,-1.831 2.77389,-0.84423 5.54777,-1.68846 8.32166,-2.53268 2.05946,0.98071 4.08856,1.94697 6.17838,2.94215 0.15568,5.2185 0.30202,10.12391 0.46025,15.42808 0.24121,1.56784 0.48242,3.13569 0.72362,4.70354 0.48242,1.80906 0.96483,3.61811 1.44725,5.42717 -0.1413,0.97462 0.30195,1.68933 0.72362,2.53267 1.02367,3.5561 1.0492,7.12752 2.17087,10.49253 0,3.13569 0,6.27139 0,9.40709 0.24121,0.2412 0.48241,0.48241 0.72362,0.72362 2.77408,4.8622 6.41502,9.26765 9.7689,13.74882 0.1206,0.36181 0.24121,0.72362 0.36181,1.08543 0.72362,1.08544 1.44725,2.17087 2.17087,3.2563 1.38694,2.95479 2.77361,5.90899 4.16083,8.86437 1.96075,4.48527 3.79033,9.02358 5.60807,13.56792 0.1206,1.08544 0.24121,2.17087 0.36181,3.2563 -0.1206,0.24121 -0.24121,0.48242 -0.36181,0.72363 0.96483,2.71358 1.92965,5.42716 2.89448,8.14074 5.04793,5.63997 10.11489,11.3012 14.65336,16.37196 2.60545,4.43266 4.4966,7.65006 6.96486,11.84932 1.57072,2.50032 2.95479,4.70354 4.43219,7.05531 0.72362,1.92966 1.44724,3.85932 2.17086,5.78898 2.29617,5.16632 2.6279,5.94133 2.89449,6.87441 0.60302,0.24121 1.20604,0.48241 1.80906,0.72362 5.72177,4.87273 6.75306,5.75099 14.02018,11.93977 2.93353,3.96178 5.84927,7.89953 8.77391,11.84931 4.59793,5.44486 9.19802,10.88765 13.74883,16.37195 2.08042,-0.0904 4.16082,-0.1809 6.24125,-0.27135 1.49865,0.97104 3.10927,1.73554 4.70354,2.53267 2.41207,1.92966 4.82415,3.85932 7.23623,5.78898 2.01105,1.91846 3.11242,4.28505 4.70354,6.5126 0,1.65063 0.65088,2.33808 1.44724,5.78898 0.81407,1.05529 1.62815,2.11057 2.44222,3.16585 2.19648,-0.62333 4.43155,-1.2576 6.69351,-1.89951 3.48464,0.76417 6.87442,1.50755 10.31162,2.26132 2.29147,0.96483 4.58294,1.92966 6.87441,2.89449 1.44724,-0.36181 3.72141,-0.93036 4.34173,-1.08544 1.77301,-0.59001 6.86449,-2.28432 12.4096,-4.12959 6.24965,-3.6639 9.93676,-5.8255 13.98631,-8.19958 1.71098,-0.56609 3.93958,-1.30343 5.90936,-1.95515 1.65376,0.54031 3.30752,1.08062 4.96128,1.62093 -0.12061,0.60302 -0.24121,1.20604 -0.36182,1.80906 -1.56784,2.65328 -3.13569,5.30656 -4.70354,7.95984 -2.64221,1.16029 -5.29429,2.32492 -7.94355,3.48831 -3.30676,1.6674 -6.61,3.33301 -9.915,4.99952 -1.81689,0.64647 -3.63659,1.29394 -5.44911,1.93885 -3.4167,1.10255 -6.82197,2.2014 -10.23292,3.30209 -1.52708,0.34111 -3.05419,0.68224 -4.58127,1.02335 -1.2608,0.20526 -2.5216,0.41051 -3.78239,0.61577 -2.3939,0.7602 -4.78779,1.5204 -7.18169,2.2806 -2.04169,-0.4264 -4.08337,-0.8528 -6.12506,-1.2792 -0.28991,-0.51168 -0.57982,-1.02336 -0.86973,-1.53503 -1.32664,0.96483 -2.65328,1.92966 -3.97992,2.89449 -3.86724,0.52042 -7.56429,1.01793 -11.514,1.54945 -3.10457,0.46064 -5.39942,0.80114 -8.4734,1.25725 -2.50873,-0.43503 -5.039,-0.74163 -7.51025,-1.35946 -1.07623,-1.284 -2.15247,-2.568 -3.2287,-3.852 -1.41987,1.32058 -2.83973,2.64116 -4.2596,3.96174 -2.84124,0.15655 -5.68276,0.31311 -8.52418,0.46967 -2.98419,-1.15797 -5.96837,-2.31594 -8.95249,-3.47389 -0.96483,-0.24121 -1.92966,-0.48242 -2.89449,-0.72363 -2.29147,-1.08543 -4.58294,-2.17086 -6.87441,-3.2563 -1.80905,-0.84422 -3.61811,-1.68845 -5.42716,-2.53268 -1.08544,-0.84422 -2.17087,-1.68845 -3.2563,-2.53267 -2.53268,-1.92966 -5.06536,-3.85932 -7.59804,-5.78898 -5.70676,-5.70682 -11.12381,-9.64575 -13.38701,-12.66339 L 258.69495,315.8611 c -2.80094,-4.13077 -5.44929,-8.24664 -7.33843,-12.85715 -1.3256,-2.22839 -2.42964,-4.63397 -3.93603,-6.72454 -1.17867,-2.50408 -2.35731,-5.00809 -3.53597,-7.51213 -3.2025,-4.90903 -4.61529,-10.3927 -6.17462,-15.9617 -0.48241,-0.72362 -0.96483,-1.44724 -1.44724,-2.17087 -2.05026,-3.85931 -4.10053,-7.71863 -6.15079,-11.57795 -1.34064,-2.41207 -2.68129,-4.82415 -4.02193,-7.23622 -0.2793,-2.79298 -0.44695,-5.59203 -0.99765,-8.34548 -1.61479,-3.16429 -2.46552,-8.937 -2.53268,-9.40709 -0.2412,-0.36182 -0.48241,-0.72363 -0.72362,-1.08544 -0.1206,-0.65235 -0.2412,-1.30469 -0.36181,-1.95704 -1.22699,-4.21552 -7.53219,-25.93756 -7.53219,-27.22175 -0.005,-5.69897 -0.0109,-11.39623 -0.0163,-17.09479 -0.4949,-12.98816 -0.91449,-23.99989 -1.41088,-37.02701 -1.32013,-2.55436 -0.99005,-4.1915 -0.13168,-6.76655 0.13785,-2.67713 1.15634,-4.67228 2.53267,-6.87441 z"
         sodipodi:nodetypes="ccccccccccccccccccccccccccccccccccccscccccccccccccccscccccccccccccccccccccccccccccccc"
         inkscape:label="Outline"
         transform="matrix(2.8520668,0,0,2.017538,-488.37481,-247.01249)" />
    </g>
  </g>
</svg>
