<?xml version="1.0" encoding="UTF-8" standalone="no"?>
<!-- Created with Inkscape (http://www.inkscape.org/) -->

<svg
   version="1.1"
   id="svg1"
   width="793.59998"
   height="559.35999"
   viewBox="0 0 793.59998 559.35999"
   sodipodi:docname="Onion.svg"
   inkscape:version="1.4 (86a8ad7, 2024-10-11)"
   xmlns:inkscape="http://www.inkscape.org/namespaces/inkscape"
   xmlns:sodipodi="http://sodipodi.sourceforge.net/DTD/sodipodi-0.dtd"
   xmlns="http://www.w3.org/2000/svg"
   xmlns:svg="http://www.w3.org/2000/svg">
  <defs
     id="defs1">
    <inkscape:path-effect
       effect="bspline"
       id="path-effect5"
       is_visible="true"
       lpeversion="1.3"
       weight="33.333333"
       steps="2"
       helper_size="0"
       apply_no_weight="true"
       apply_with_weight="true"
       only_selected="false"
       uniform="false" />
    <inkscape:path-effect
       effect="bspline"
       id="path-effect3"
       is_visible="true"
       lpeversion="1.3"
       weight="33.333333"
       steps="2"
       helper_size="0"
       apply_no_weight="true"
       apply_with_weight="true"
       only_selected="false"
       uniform="false" />
    <inkscape:path-effect
       effect="bspline"
       id="path-effect2"
       is_visible="true"
       lpeversion="1.3"
       weight="33.333333"
       steps="2"
       helper_size="0"
       apply_no_weight="true"
       apply_with_weight="true"
       only_selected="false"
       uniform="false" />
    <inkscape:path-effect
       effect="bspline"
       id="path-effect1"
       is_visible="true"
       lpeversion="1.3"
       weight="33.333333"
       steps="2"
       helper_size="0"
       apply_no_weight="true"
       apply_with_weight="true"
       only_selected="false"
       uniform="false" />
  </defs>
  <sodipodi:namedview
     id="namedview1"
     pagecolor="#ffffff"
     bordercolor="#111111"
     borderopacity="1"
     inkscape:showpageshadow="0"
     inkscape:pageopacity="0"
     inkscape:pagecheckerboard="1"
     inkscape:deskcolor="#d1d1d1"
     inkscape:zoom="0.9771767"
     inkscape:cx="504.00301"
     inkscape:cy="249.18728"
     inkscape:window-width="1920"
     inkscape:window-height="991"
     inkscape:window-x="-9"
     inkscape:window-y="-9"
     inkscape:window-maximized="1"
     inkscape:current-layer="g1" />
  <g
     inkscape:groupmode="layer"
     inkscape:label="Image"
     id="g1">
    <path
       style="fill:#cdb282;fill-opacity:0.992157;stroke:none;stroke-width:0.59"
       d="m 350.83618,127.1163 c -0.12061,0.48242 -0.36181,1.44725 -0.36181,1.44725 0,0 0.2412,-0.96483 0,0.2412 -0.24121,1.20604 -0.96483,4.58295 -1.56785,7.35684 -0.60302,2.77388 -1.08543,4.94475 -1.68845,6.99501 -0.60302,2.05026 -1.32665,3.97992 -1.92966,5.78897 -0.60302,1.80906 -1.08543,3.49751 -1.70863,4.97838 -0.62319,1.48087 -1.25783,2.53859 -2.40959,5.04116 -1.15177,2.50256 -2.68304,6.22058 -4.78634,11.4928 -2.1033,5.27222 -4.77862,12.09861 -7.14941,17.46966 -2.3708,5.37104 -4.43707,9.28674 -11.37221,18.19485 -6.93513,8.90812 -20.86484,25.31192 -27.32102,35.56166 -6.45618,10.24974 -8.2019,17.59924 -9.57579,22.25283 -1.37388,4.6536 -2.37591,6.61125 -3.00088,9.29716 -0.62497,2.68592 -0.87286,6.1 -1.23133,10.38886 -0.35847,4.28885 -0.82751,9.45248 -0.65632,13.10192 0.17119,3.64944 0.98261,5.78478 1.62952,8.90271 0.64691,3.11793 1.12933,7.21845 1.73234,10.47475 0.60302,3.2563 1.32665,5.66838 2.17087,9.4071 0.84423,3.73871 1.80906,8.80406 2.53268,11.69855 0.72362,2.89449 1.20604,3.61811 1.68845,4.82415 0.48242,1.20604 0.96483,2.89449 1.80906,4.94475 0.84422,2.05026 2.05026,4.46234 5.78898,9.8895 3.73871,5.42717 10.0101,13.86943 13.86942,18.57297 3.85932,4.70355 5.30656,5.66838 7.35683,7.1307 2.05026,1.46232 4.70354,3.42213 7.68849,5.18596 2.98494,1.76383 6.30153,3.33167 10.52266,4.64324 4.22114,1.31156 9.34679,2.36685 14.62321,3.33168 5.27641,0.96483 10.70358,1.8392 16.01014,2.32162 5.30656,0.48241 10.49252,0.57287 15.49757,0.8593 5.00506,0.28643 9.82921,0.76885 15.43728,1.79398 5.60807,1.02513 12.00007,2.59298 18.45237,3.0151 6.4523,0.42211 12.74276,-0.27683 17.48202,-0.90041 4.73926,-0.62359 7.23072,-1.07659 9.33609,-1.69581 2.10537,-0.61923 3.51371,-1.3234 4.47855,-1.68522 0.96483,-0.36181 1.44724,-0.36181 2.77388,-1.08543 1.32665,-0.72362 3.49751,-2.17086 6.15079,-3.4975 2.65329,-1.32665 5.78897,-2.53268 10.34177,-5.90959 4.5528,-3.37691 10.23546,-8.65778 14.37525,-12.82917 4.13979,-4.1714 5.96577,-6.45386 8.81069,-10.43777 2.84493,-3.98391 6.54588,-9.45457 9.17224,-13.86138 2.62635,-4.4068 4.14425,-7.69968 5.27893,-10.09759 1.13468,-2.39792 1.77207,-3.6727 2.52488,-5.29893 0.75281,-1.62622 1.47644,-3.31468 2.20622,-5.63078 0.72978,-2.31611 1.4319,-5.12457 1.91891,-7.79623 0.48701,-2.67166 0.72821,-5.08373 1.21063,-7.85761 0.48241,-2.77389 1.20604,-5.90959 1.56785,-9.2865 0.36181,-3.3769 0.36181,-6.99501 0.36181,-10.43404 0,-3.43904 0,-6.41049 0,-9.80738 0,-3.3969 0,-7.01501 -0.60302,-12.08036 -0.60302,-5.06536 -1.80906,-11.57796 -3.37691,-17.12573 -1.56785,-5.54777 -3.4975,-10.13071 -5.74335,-14.75131 -2.24585,-4.62059 -5.01356,-9.65279 -8.039,-14.36503 -3.02543,-4.71224 -6.34812,-9.2216 -9.00658,-12.60552 -2.65845,-3.38393 -4.58811,-5.55479 -8.20622,-8.93169 -3.61811,-3.37691 -8.92467,-7.95985 -13.62822,-11.09554 -4.70354,-3.1357 -8.80407,-4.82416 -12.42218,-6.39201 -3.61811,-1.56784 -6.75381,-3.01509 -13.50762,-5.18595 -6.7538,-2.17087 -17.12572,-5.06536 -22.55289,-6.63321 -5.42716,-1.56785 -5.90958,-1.80905 -6.6332,-1.92966 -0.72362,-0.1206 -1.68845,-0.1206 -3.13569,-0.48241 -1.44725,-0.36181 -3.37691,-1.08544 -5.54778,-2.53268 -2.17086,-1.44725 -4.58294,-3.61811 -6.39199,-5.06536 -1.80906,-1.44724 -3.0151,-2.17087 -3.73872,-2.77388 -0.72362,-0.60302 -0.96483,-1.08544 -3.2563,-3.49751 -2.29147,-2.41207 -6.63321,-6.7538 -9.52769,-9.52769 -2.89449,-2.77389 -4.34173,-3.97992 -5.90958,-5.66837 -1.56785,-1.68846 -3.2563,-3.85932 -5.18596,-6.15079 -1.92967,-2.29147 -4.10053,-4.70355 -5.42836,-6.51558 -1.32783,-1.81203 -1.772,-2.92246 -2.03114,-3.81151 -0.25914,-0.88906 -0.25914,-1.37147 -0.37975,-1.61268 -0.1206,-0.24121 -0.3618,-0.24121 -1.32663,-0.24121 -0.96483,0 -2.65329,0 -3.49752,0 -0.84422,0 -0.84419,0 -0.96479,0.48241 z"
       id="path1"
       inkscape:path-effect="#path-effect1"
       inkscape:original-d="m 350.95678,126.63389 c -0.2412,0.96483 -0.48241,1.92966 -0.72362,2.89449 0.24121,-0.96483 0.48242,-1.92966 0.72362,-2.89449 -0.72362,3.3769 -1.44724,6.75381 -2.17086,10.13071 -0.48242,2.17087 -0.96483,4.34174 -1.44725,6.5126 -0.72362,1.92966 -1.44724,3.85932 -2.17087,5.78898 -0.48241,1.68845 -0.96482,3.3769 -1.44724,5.06536 -1.28937,0.95804 -1.68463,2.15939 -2.17087,3.61811 -1.53127,3.71802 -3.06254,7.43604 -4.59381,11.15407 -2.67533,6.82641 -5.35065,13.6528 -8.02597,20.4792 -2.06627,3.91569 -4.13254,7.83139 -6.19881,11.74708 -10.80949,14.74505 -30.3288,26.4023 -36.90035,43.45431 -1.74572,7.34951 -3.49144,14.69901 -5.23717,22.04853 -1.00203,1.95767 -2.00406,3.91532 -3.00611,5.873 -0.2479,3.41415 -0.49579,6.82823 -0.74369,10.24234 -0.46904,5.1636 -0.93808,10.32723 -1.40711,15.4908 0.81141,2.13531 1.62283,4.27065 2.43424,6.40598 0.48241,4.10053 0.96483,8.20105 1.44724,12.30158 0.72362,2.41207 1.44725,4.82415 2.17087,7.23622 0.96483,5.06536 1.92966,10.13071 2.89449,15.19607 0.48241,0.72362 0.96483,1.44724 1.44724,2.17086 0.48242,1.68846 0.96483,3.37691 1.44725,5.06536 1.20603,2.41207 2.41207,4.82415 3.61811,7.23622 6.27139,8.44226 12.54278,16.88452 18.81418,25.32678 1.44724,0.96483 2.89448,1.92966 4.34173,2.89449 2.65328,1.95981 5.30656,3.91962 7.95985,5.87943 3.3166,1.56785 6.63319,3.13569 9.94979,4.70354 5.12567,1.05528 10.25132,2.11057 15.37699,3.16585 5.42716,0.87438 10.85433,1.74875 16.28149,2.62313 5.18596,0.0905 10.37192,0.18091 15.55788,0.27136 4.82415,0.48241 9.6483,0.96483 14.47244,1.44724 6.392,1.56785 12.784,3.1357 19.176,4.70355 6.5126,-0.72362 12.80306,-1.42256 19.5378,-2.17086 2.74378,-0.49887 5.23524,-0.95187 7.95984,-1.44725 1.48614,-0.74308 2.89448,-1.44725 4.34174,-2.17087 0.48241,0 0.96482,0 1.44724,0 2.17086,-1.44725 4.34172,-2.89449 6.5126,-4.34173 3.1357,-1.20604 6.27138,-2.41208 9.40709,-3.61811 5.96989,-5.54778 11.65255,-10.82865 17.90964,-16.64332 2.0225,-2.52811 3.84847,-4.81058 5.78898,-7.23622 3.74934,-5.54218 7.45029,-11.01284 11.18511,-16.53357 1.51789,-3.29288 3.03579,-6.58576 4.55368,-9.87864 1.52023,-1.11857 1.73642,-2.60395 2.17086,-4.34173 0.72363,-1.68845 1.44725,-3.37691 2.17087,-5.06536 0.14942,-3.09039 1.03833,-5.85215 2.17087,-8.68346 0.2412,-2.41208 0.48241,-4.82415 0.72362,-7.23623 0.72362,-3.13569 1.44725,-6.27139 2.17087,-9.40709 0,-3.61811 0,-7.23622 0,-10.85433 0.57833,-3.25996 0,-6.23141 0,-9.40709 0,-3.61811 0,-7.23622 0,-10.85433 -1.20604,-6.5126 -2.41208,-13.0252 -3.61812,-19.5378 -1.92965,-4.58294 -3.85931,-9.16588 -5.78897,-13.74882 -1.31732,-5.34285 -5.06284,-9.83725 -7.95985,-14.47245 -2.93968,-4.99697 -6.04695,-9.66506 -10.13071,-13.74882 -1.92966,-2.17087 -3.85932,-4.34173 -5.78898,-6.5126 -5.30656,-4.58294 -10.61312,-9.16588 -15.91969,-13.74882 -4.10052,-1.68846 -8.20105,-3.37691 -12.30157,-5.06536 -3.1357,-1.44724 -6.2714,-2.89449 -9.40709,-4.34173 -10.37192,-2.89449 -20.74384,-5.78898 -31.11576,-8.68347 -0.48241,-0.24121 -0.96483,-0.48241 -1.44724,-0.72362 -0.96483,0 -1.92966,0 -2.89449,0 -1.92966,-0.72362 -3.85932,-1.44725 -5.78898,-2.17087 -2.41207,-2.17087 -4.82415,-4.34173 -7.23622,-6.5126 -1.20604,-0.72362 -2.41208,-1.44724 -3.61811,-2.17087 -0.24121,-0.48241 -0.48242,-0.96483 -0.72363,-1.44724 -4.34173,-4.34173 -8.68346,-8.68347 -13.0252,-13.0252 -1.44724,-1.20604 -2.89448,-2.41207 -4.34173,-3.61811 -1.68845,-2.17087 -3.3769,-4.34173 -5.06536,-6.5126 -2.17086,-2.41208 -4.34173,-4.82415 -6.5126,-7.23622 0.22092,-1.49427 -0.65618,-2.43153 -1.44724,-3.61811 0,-0.48242 0,-0.96483 0,-1.44725 -0.24121,0 -0.48241,0 -0.72362,0 -1.68845,0 -3.37691,0 -5.06536,0 z"
       sodipodi:nodetypes="cccccccccccccccccccccccccccccccccccccccccccccccccccccccccccccccccccccccscc"
       inkscape:label="Outline"
       transform="matrix(1.8236559,0,0,1.8236559,-364.58755,-208.41317)" />
    <path
       style="display:inline;fill:#cea883;fill-opacity:1;stroke:none;stroke-width:0.59"
       d="m 279.38136,300.68555 c 3.55493,3.47699 10.79116,5.88907 14.89168,6.37148 4.10053,0.48242 5.06536,-0.96483 6.2714,-3.13569 1.20603,-2.17087 2.65328,-5.06536 4.22113,-8.80408 1.56784,-3.73871 3.2563,-8.32165 5.42716,-11.21614 2.17087,-2.89449 4.82415,-4.10052 7.71864,-4.58294 2.89449,-0.48241 6.03018,-0.24121 9.78083,0.12193 3.75066,0.36314 8.07708,0.84385 12.05272,0.96398 3.97564,0.12013 7.59375,-0.12108 11.69427,-0.24169 4.10053,-0.1206 8.68347,-0.1206 12.06764,-0.60624 3.38417,-0.48565 5.50001,-1.42602 8.05293,-2.64105 2.55293,-1.21504 5.44742,-2.66228 7.49768,-5.67738 2.05027,-3.0151 3.2563,-7.59803 3.61811,-10.85433 0.36182,-3.2563 -0.1206,-5.18596 -0.13722,-12.21445 -0.0166,-7.02849 -0.41196,3.6455 0.28475,-7.32639 0.6967,-10.9719 1.42033,-14.83122 2.41233,-17.39107 0.992,-2.55985 2.08691,-3.65475 3.68315,-3.68315 1.59624,-0.0284 3.5259,1.17765 5.54659,2.95384 2.02068,1.7762 4.24605,4.24883 6.66045,7.1459 2.4144,2.89707 5.06768,6.27398 8.44459,11.33933 3.3769,5.06536 7.47742,11.81916 10.61957,16.04531 3.14215,4.22615 5.30151,5.90565 9.38489,5.62484 4.08339,-0.28081 9.68413,-2.38109 13.89522,-4.06577 4.21108,-1.68469 6.86437,-2.89073 9.63826,-3.97616 2.77388,-1.08543 5.66837,-2.05026 8.44225,-0.36181 2.77388,1.68845 5.42716,6.03018 8.80407,9.64829 3.3769,3.61811 7.47743,6.5126 11.45735,8.44226 3.97993,1.92966 7.83924,2.89449 12.89842,4.08574 5.05917,1.19126 11.31817,2.60893 14.05389,0.95495 2.73572,-1.65398 1.94814,-6.3796 1.1101,-10.39272 -0.83804,-4.01312 -1.72653,-7.31368 -3.10363,-11.64312 -1.3771,-4.32944 -3.2428,-9.68775 -6.36396,-16.01565 -3.12115,-6.3279 -4.80345,-9.13293 -8.87658,-14.94456 -4.07314,-5.81162 -7.8989,-10.25961 -11.64276,-14.07693 -3.74385,-3.81733 -7.36196,-6.95303 -10.25645,-9.4857 -2.89449,-2.53268 -5.06536,-4.46234 -9.76151,-7.15009 -4.69615,-2.68775 -11.91759,-6.1336 -26.2017,-10.80721 -14.28411,-4.6736 -20.34135,-6.34814 -28.73441,-9.4457 -8.39307,-3.09755 -11.477,-5.50463 -14.04905,-7.88344 -2.57205,-2.3788 -4.63219,-4.72932 -8.54885,-8.71037 -3.91665,-3.98104 -9.95833,-9.8536 -14.39001,-14.70786 -4.43169,-4.85427 -7.32119,-8.7129 -8.98603,-11.21636 -1.66484,-2.50345 -1.96696,-3.4503 -3.08858,-3.95377 -1.12161,-0.50348 -3.05796,-0.54869 -4.58773,2.24713 -1.52978,2.79582 -1.92986,4.80374 -3.68282,11.31787 -1.75296,6.51413 -2.94042,10.12404 -5.48328,16.64004 -2.54287,6.516 -5.8808,14.23463 -8.40383,20.06133 -2.52304,5.8267 -4.38708,10.12062 -7.46339,15.39856 -3.07632,5.27794 -7.41837,11.66258 -13.74156,20.09254 -6.3232,8.42996 -14.70054,18.99742 -19.81961,26.53728 -5.11907,7.53985 -7.09502,12.28725 -8.95379,17.32141 -1.85878,5.03417 -3.86365,11.05372 -5.17643,16.51406 -1.31278,5.46033 -1.89579,10.14045 -2.24988,14.72588 -0.35408,4.58542 -0.48194,9.18088 3.07299,12.65787 z"
       id="path2"
       inkscape:path-effect="#path-effect2"
       inkscape:original-d="m 275.70007,301.75047 c 7.23622,2.41207 14.47245,4.82415 21.70867,7.23622 0.96483,-1.44724 1.92966,-2.89449 2.89449,-4.34173 1.44724,-2.89449 2.89449,-5.78898 4.34173,-8.68347 1.68845,-4.58294 3.3769,-9.16588 5.06536,-13.74882 2.65328,-1.20604 5.30656,-2.41207 7.95984,-3.61811 3.1357,0.24121 6.27139,0.48241 9.40709,0.72362 4.38429,0.31694 8.75709,0.38021 13.0252,1.44725 3.61811,-0.24121 7.23622,-0.48242 10.85433,-0.72363 4.58294,0 9.16588,0 13.74882,0 2.47385,-0.32228 4.42194,-1.64008 6.51261,-2.89449 2.89448,-1.44724 5.78897,-2.89448 8.68346,-4.34173 1.20604,-4.58295 2.41207,-9.16588 3.61811,-13.74882 -0.48241,-1.92966 -0.96483,-3.85932 -1.44724,-5.78898 0.63155,-12.12056 -2.54692,-1.54965 0.72362,-19.5378 0.72362,-3.85932 1.44725,-7.71864 2.17087,-11.57795 1.69797,-0.8228 2.60785,-2.10273 3.61811,-3.61812 1.92966,1.20604 3.85932,2.41208 5.78898,3.61812 2.9025,1.63464 4.55355,4.62416 6.5126,7.23622 2.65328,3.3769 5.30656,6.75381 7.95984,10.13071 4.10053,6.75381 8.20105,13.50761 12.30158,20.26142 2.26888,1.58906 4.55405,3.10681 6.5126,5.06536 6.08732,-2.00893 11.99539,-3.28967 17.36693,-6.5126 2.65328,-1.20604 5.30657,-2.41208 7.95985,-3.61811 2.89449,-0.96483 5.78898,-1.92966 8.68346,-2.89449 2.65329,4.34173 5.30657,8.68346 7.95985,13.0252 4.10052,2.89449 8.20105,5.78897 12.30158,8.68346 3.85932,0.96483 7.71863,1.92966 11.57795,2.89449 6.25903,1.41768 12.51803,2.83535 18.77705,4.25303 -0.78758,-4.72564 -1.57515,-9.45126 -2.36274,-14.17692 -0.8885,-3.30058 -1.77699,-6.60114 -2.66549,-9.90171 -1.8657,-5.35831 -3.7314,-10.71662 -5.5971,-16.07493 -4.37661,-7.29749 -6.05891,-10.10252 -10.32258,-17.2117 -4.91168,-3.62895 -8.3963,-8.37036 -11.57796,-13.46101 -3.61811,-3.1357 -7.23622,-6.2714 -10.85433,-9.40709 -2.17087,-1.92966 -4.34174,-3.85932 -6.5126,-5.78898 -7.22144,-3.44584 -14.44288,-6.89169 -21.66432,-10.33753 -21.34678,-5.90137 -27.40402,-7.57591 -41.10617,-11.36391 -3.08398,-2.40711 -6.16791,-4.81419 -9.25186,-7.22128 -2.06015,-2.35052 -4.12029,-4.70104 -6.18044,-7.05157 -4.76605,-6.64768 -11.61209,-11.6927 -17.66968,-17.17507 -3.00854,-4.01758 -5.89804,-7.87621 -8.91608,-11.9065 -0.31163,-0.97662 -0.61375,-1.92347 -0.92063,-2.8852 -1.93635,-0.0452 -3.8727,-0.0904 -5.8091,-0.13565 -1.12315,5.63686 -1.52323,7.64478 -2.72102,13.65624 -2.30813,7.0168 -3.49559,10.62671 -5.24338,15.94007 -3.33794,7.71864 -6.67587,15.43727 -10.01381,23.15591 -1.70813,3.93476 -3.57217,8.22868 -5.38333,12.40078 -4.34147,6.38378 -8.68352,12.76842 -13.0252,19.15251 -8.30471,10.47583 -16.68205,21.04329 -25.02299,31.56483 -1.8972,4.55817 -3.87315,9.30557 -5.69596,13.68504 -1.89474,5.68886 -3.89961,11.70841 -5.9207,17.77664 -0.60447,4.85244 -1.18748,9.53256 -1.77078,14.21505 -0.12487,4.48836 -0.25273,9.08382 -0.37909,13.62573 z"
       transform="matrix(1.8236559,0,0,1.8236559,-364.58755,-208.41317)"
       sodipodi:nodetypes="cccccccccccccccccccccccccccccccccccccccccccccccccccccc" />
    <path
       style="display:inline;fill:#cea883;fill-opacity:1;stroke:none;stroke-width:0.59"
       d="m 314.77567,382.07254 c 1.56593,-4.27148 3.13186,-8.54295 5.42333,-9.50778 2.29147,-0.96483 5.30848,1.37698 7.42,1.70367 2.11153,0.32668 3.31757,-1.36177 5.24723,-3.29143 1.92966,-1.92966 4.58294,-4.10053 8.68346,-4.70355 4.10053,-0.60302 9.6483,0.36181 13.99004,1.08543 4.34173,0.72363 7.47742,1.20604 9.88949,1.44725 2.41208,0.24121 4.10053,0.24121 5.18597,0.36181 1.08543,0.12061 1.56784,0.36181 3.97991,-0.24121 2.41208,-0.60301 6.75382,-2.05026 9.64831,-3.3769 2.89448,-1.32664 4.34173,-2.53268 5.30656,-3.2563 0.96483,-0.72362 1.44724,-0.96483 2.05026,-1.32664 0.60302,-0.36181 1.32664,-0.84423 2.53268,-1.92966 1.20604,-1.08544 2.89449,-2.77389 6.39199,-5.90958 3.49751,-3.1357 8.80408,-7.71864 11.93978,-10.61313 3.13569,-2.89449 4.10052,-4.10052 7.23621,-6.51259 3.1357,-2.41208 8.44226,-6.03019 11.81917,-8.56287 3.3769,-2.53268 4.82415,-3.97992 5.90958,-4.82415 1.08543,-0.84423 1.80905,-1.08543 3.2563,-1.92966 1.44724,-0.84422 3.61811,-2.29147 5.42717,-3.2563 1.80905,-0.96483 3.2563,-1.44724 5.66837,-2.65328 2.41207,-1.20604 5.78898,-3.1357 7.71864,-4.10052 1.92966,-0.96483 2.41207,-0.96483 3.01509,-1.20604 0.60302,-0.24121 1.32664,-0.72362 2.41207,-1.08543 1.08544,-0.36182 2.53268,-0.60302 5.54777,-1.08544 3.0151,-0.48241 7.59804,-1.20604 10.13072,-1.44725 2.53267,-0.2412 3.01509,10e-6 4.22113,0.24121 1.20603,0.24121 3.13569,0.48242 4.46233,0.96483 1.32664,0.48242 2.05027,1.20604 3.85932,3.0151 1.80906,1.80905 4.70355,4.70354 6.15079,7.59803 1.44724,2.89449 1.44724,5.78898 1.16323,10.42979 -0.28402,4.6408 -0.85204,11.02787 -1.66003,15.26939 -0.80798,4.24151 -1.61421,5.85399 -2.69459,7.80128 -1.08037,1.94729 -2.20079,3.76121 -3.00221,4.90938 -0.80141,1.14817 -1.28383,1.63059 -2.36926,3.31904 -1.08544,1.68845 -2.77389,4.58294 -4.47918,6.89125 -1.70529,2.30831 -3.32416,3.92718 -6.60056,7.32958 -3.27639,3.40239 -6.83295,7.14457 -10.02083,10.13604 -3.18788,2.99146 -6.04814,5.24994 -11.93142,8.6488 -5.88329,3.39885 -7.8204,4.34035 -17.92561,7.33202 -10.1052,2.99168 -19.25572,3.59957 -27.17277,3.22565 -7.91705,-0.37392 -12.51043,-1.30566 -21.57324,-2.48424 -9.06281,-1.17858 -13.9589,-1.4809 -22.23043,-2.29291 -8.27153,-0.81201 -17.69055,-1.99613 -24.32539,-3.19435 -6.63483,-1.19821 -10.48548,-2.41051 -14.12746,-3.92895 -3.64197,-1.51843 -7.07526,-3.34299 -9.63613,-4.89224 -2.56088,-1.54925 -4.24934,-2.8232 -5.93779,-4.09715"
       id="path3"
       inkscape:path-effect="#path-effect3"
       inkscape:original-d="m 314.77567,382.07254 c 1.56593,-4.27148 3.13186,-8.54295 4.69779,-12.81443 3.01701,2.34182 6.03402,4.68363 9.05103,7.02545 1.20604,-1.68845 2.41208,-3.3769 3.61811,-5.06535 2.65329,-2.17087 5.30657,-4.34174 7.95985,-6.51261 5.54777,0.96483 11.09554,1.92966 16.64331,2.89449 3.1357,0.48242 6.27139,0.96483 9.40709,1.44725 1.68845,0 3.3769,0 5.06536,0 0.48241,0.24121 0.96482,0.48241 1.44724,0.72362 4.34173,-1.44724 8.68347,-2.89449 13.0252,-4.34173 1.44724,-1.20604 2.89449,-2.41208 4.34173,-3.61811 0.48242,-0.24121 0.96483,-0.48242 1.44725,-0.72363 0.72362,-0.48241 1.44724,-0.96483 2.17086,-1.44724 1.68846,-1.68845 3.37691,-3.3769 5.06536,-5.06536 5.30656,-4.58294 10.61313,-9.16588 15.91969,-13.74882 0.96483,-1.20604 1.92966,-2.41207 2.89449,-3.61811 5.30656,-3.61811 10.61312,-7.23622 15.91969,-10.85433 1.44724,-1.44725 2.89449,-2.89449 4.34173,-4.34174 0.72362,-0.2412 1.44724,-0.48241 2.17087,-0.72362 2.17086,-1.44724 4.34173,-2.89449 6.5126,-4.34173 1.44724,-0.48242 2.89449,-0.96483 4.34173,-1.44725 3.3769,-1.92966 6.75381,-3.85932 10.13071,-5.78897 0.48242,0 0.96483,0 1.44725,0 0.72362,-0.48242 1.44724,-0.96483 2.17086,-1.44725 1.44725,-0.24121 2.89449,-0.48241 4.34174,-0.72362 4.58294,-0.72362 9.16588,-1.44725 13.74882,-2.17087 0.48241,0.24121 0.96483,0.48242 1.44724,0.72362 1.92966,0.24121 3.85932,0.48242 5.78898,0.72363 0.72362,0.72362 1.44725,1.44724 2.17087,2.17086 2.89449,2.89449 5.78898,5.78898 8.68346,8.68347 0,2.89449 0,5.78898 0,8.68347 -0.56803,6.38712 -1.13605,12.77419 -1.70409,19.16137 -1.14975,2.04494 -1.85416,3.70833 -2.89449,5.78898 -1.12042,1.81393 -2.24084,3.62785 -3.36126,5.44178 -0.48241,0.48242 -0.96483,0.96483 -1.44724,1.44724 -1.68846,2.89449 -3.37691,5.78898 -5.06536,8.68347 -2.17538,1.26888 -3.58734,3.09467 -5.06536,5.06536 -4.82843,5.08043 -8.38499,8.82261 -11.99748,12.62364 -2.76327,2.1819 -5.62353,4.44038 -9.17711,7.24632 -8.21299,3.99177 -10.1501,4.93327 -21.21,10.30873 -9.15051,0.60789 -18.30103,1.21578 -27.45157,1.82367 -6.68356,-1.35572 -11.27694,-2.28747 -20.05065,-4.06717 -9.35191,-0.57746 -14.248,-0.87978 -21.37202,-1.31967 -9.41904,-1.18413 -18.83806,-2.36826 -28.25709,-3.55238 -3.85064,-1.2123 -7.70129,-2.42461 -11.55195,-3.63691 -3.43329,-1.82456 -6.86658,-3.64912 -10.29988,-5.47368 -1.68845,-1.27394 -5.06536,-3.82184 -5.06536,-3.82184"
       transform="matrix(1.8236559,0,0,1.8236559,-364.58755,-208.41317)"
       sodipodi:nodetypes="ccccccccccccccccccccccccccccscccccccccccccccccc" />
    <path
       style="fill:none;stroke:#000000;stroke-width:2.07934;stroke-dasharray:none"
       d="m 350.77772,127.48164 c -0.17905,0.84775 -0.53717,2.54325 -0.53717,2.54325 0,0 0.35812,-1.6955 0.17536,-0.8548 -0.18275,0.8407 -0.90637,4.21761 -1.50939,6.9915 -0.60302,2.77388 -1.08543,4.94475 -1.68845,6.99501 -0.60302,2.05026 -1.32665,3.97992 -1.92966,5.78897 -0.60302,1.80906 -1.08543,3.49751 -1.70863,4.97838 -0.62319,1.48087 -1.25783,2.53859 -2.40959,5.04116 -1.15177,2.50256 -2.68304,6.22058 -4.78634,11.4928 -2.1033,5.27222 -4.77862,12.09861 -7.14941,17.46966 -2.3708,5.37104 -4.43707,9.28674 -11.37221,18.19485 -6.93513,8.90812 -20.86484,25.31192 -27.32102,35.56166 -6.45618,10.24974 -8.2019,17.59924 -9.57579,22.25283 -1.37388,4.6536 -2.37591,6.61125 -3.00088,9.29716 -0.62497,2.68592 -0.87286,6.1 -1.23133,10.38886 -0.35847,4.28885 -0.82751,9.45248 -0.65632,13.10192 0.17119,3.64944 0.98261,5.78478 1.62952,8.90271 0.64691,3.11793 1.12933,7.21845 1.73234,10.47475 0.60302,3.2563 1.32665,5.66838 2.17087,9.4071 0.84423,3.73871 1.80906,8.80406 2.53268,11.69855 0.72362,2.89449 1.20604,3.61811 1.68845,4.82415 0.48242,1.20604 0.96483,2.89449 1.80906,4.94475 0.84422,2.05026 2.05026,4.46234 5.78898,9.8895 3.73871,5.42717 10.0101,13.86943 13.86942,18.57297 3.85932,4.70355 5.30656,5.66838 7.35683,7.1307 2.05026,1.46232 4.70354,3.42213 7.68849,5.18596 2.98494,1.76383 6.30153,3.33167 10.52266,4.64324 4.22114,1.31156 9.34679,2.36685 14.62321,3.33168 5.27641,0.96483 10.70358,1.8392 16.01014,2.32162 5.30656,0.48241 10.49252,0.57287 15.49757,0.8593 5.00506,0.28643 9.82921,0.76885 15.43728,1.79398 5.60807,1.02513 12.00007,2.59298 18.45237,3.0151 6.4523,0.42211 12.74276,-0.27683 17.48202,-0.90041 4.73926,-0.62359 7.23072,-1.07659 9.33609,-1.69581 2.10537,-0.61923 3.51371,-1.3234 4.47855,-1.68522 0.96483,-0.36181 1.44724,-0.36181 2.77388,-1.08543 1.32665,-0.72362 3.49751,-2.17086 6.15079,-3.4975 2.65329,-1.32665 5.78897,-2.53268 10.34177,-5.90959 4.5528,-3.37691 10.23546,-8.65778 14.37525,-12.82917 4.13979,-4.1714 5.96577,-6.45386 8.81069,-10.43777 2.84493,-3.98391 6.54588,-9.45457 9.17224,-13.86138 2.62635,-4.4068 4.14425,-7.69968 5.27893,-10.09759 1.13468,-2.39792 1.77207,-3.6727 2.52488,-5.29893 0.75281,-1.62622 1.47644,-3.31468 2.20622,-5.63078 0.72978,-2.31611 1.4319,-5.12457 1.91891,-7.79623 0.48701,-2.67166 0.72821,-5.08373 1.21063,-7.85761 0.48241,-2.77389 1.20604,-5.90959 1.56785,-9.2865 0.36181,-3.3769 0.36181,-6.99501 0.36181,-10.43404 0,-3.43904 0,-6.41049 0,-9.80738 0,-3.3969 0,-7.01501 -0.60302,-12.08036 -0.60302,-5.06536 -1.80906,-11.57796 -3.37691,-17.12573 -1.56785,-5.54777 -3.4975,-10.13071 -5.74335,-14.75131 -2.24585,-4.62059 -5.01356,-9.65279 -8.039,-14.36503 -3.02543,-4.71224 -6.34812,-9.2216 -9.00658,-12.60552 -2.65845,-3.38393 -4.58811,-5.55479 -8.20622,-8.93169 -3.61811,-3.37691 -8.92467,-7.95985 -13.62822,-11.09554 -4.70354,-3.1357 -8.80407,-4.82416 -12.42218,-6.39201 -3.61811,-1.56784 -6.75381,-3.01509 -13.50762,-5.18595 -6.7538,-2.17087 -17.12572,-5.06536 -22.55289,-6.63321 -5.42716,-1.56785 -5.90958,-1.80905 -6.6332,-1.92966 -0.72362,-0.1206 -1.68845,-0.1206 -3.13569,-0.48241 -1.44725,-0.36181 -3.37691,-1.08544 -5.54778,-2.53268 -2.17086,-1.44725 -4.58294,-3.61811 -6.39199,-5.06536 -1.80906,-1.44724 -3.0151,-2.17087 -3.73872,-2.77388 -0.72362,-0.60302 -0.96483,-1.08544 -3.2563,-3.49751 -2.29147,-2.41207 -6.6332,-6.7538 -9.52769,-9.52769 -2.89449,-2.77389 -4.34173,-3.97992 -5.90958,-5.66837 -1.56785,-1.68846 -3.2563,-3.85932 -5.18596,-6.15079 -1.92967,-2.29147 -4.10053,-4.70355 -5.42836,-6.51558 -1.32783,-1.81203 -1.772,-2.92246 -2.03114,-3.81151 -0.25914,-0.88906 -0.25914,-1.37147 -0.37974,-1.61268 -0.12061,-0.24121 -0.36181,-0.24121 -1.32664,-0.24121 -0.96483,0 -2.65329,0 -3.49752,0 -0.84422,0 -0.84419,0 -1.02325,0.84775 z"
       id="path4"
       inkscape:path-effect="#path-effect5"
       inkscape:original-d="m 350.95678,126.63389 c -0.35811,1.6955 -0.71623,3.391 -1.07434,5.08651 0.35811,-1.69551 0.71623,-3.39101 1.07434,-5.08651 -0.72362,3.3769 -1.44724,6.75381 -2.17086,10.13071 -0.48242,2.17087 -0.96483,4.34174 -1.44725,6.5126 -0.72362,1.92966 -1.44724,3.85932 -2.17087,5.78898 -0.48241,1.68845 -0.96482,3.3769 -1.44724,5.06536 -1.28937,0.95804 -1.68463,2.15939 -2.17087,3.61811 -1.53127,3.71802 -3.06254,7.43604 -4.59381,11.15407 -2.67533,6.82641 -5.35065,13.6528 -8.02597,20.4792 -2.06627,3.91569 -4.13254,7.83139 -6.19881,11.74708 -10.80949,14.74505 -30.3288,26.4023 -36.90035,43.45431 -1.74572,7.34951 -3.49144,14.69901 -5.23717,22.04853 -1.00203,1.95767 -2.00406,3.91532 -3.00611,5.873 -0.2479,3.41415 -0.49579,6.82823 -0.74369,10.24234 -0.46904,5.1636 -0.93808,10.32723 -1.40711,15.4908 0.81141,2.13531 1.62283,4.27065 2.43424,6.40598 0.48241,4.10053 0.96483,8.20105 1.44724,12.30158 0.72362,2.41207 1.44725,4.82415 2.17087,7.23622 0.96483,5.06536 1.92966,10.13071 2.89449,15.19607 0.48241,0.72362 0.96483,1.44724 1.44724,2.17086 0.48242,1.68846 0.96483,3.37691 1.44725,5.06536 1.20603,2.41207 2.41207,4.82415 3.61811,7.23622 6.27139,8.44226 12.54278,16.88452 18.81418,25.32678 1.44724,0.96483 2.89448,1.92966 4.34173,2.89449 2.65328,1.95981 5.30656,3.91962 7.95985,5.87943 3.3166,1.56785 6.63319,3.13569 9.94979,4.70354 5.12567,1.05528 10.25132,2.11057 15.37699,3.16585 5.42716,0.87438 10.85433,1.74875 16.28149,2.62313 5.18596,0.0905 10.37192,0.18091 15.55788,0.27136 4.82415,0.48241 9.6483,0.96483 14.47244,1.44724 6.392,1.56785 12.784,3.1357 19.176,4.70355 6.5126,-0.72362 12.80306,-1.42256 19.5378,-2.17086 2.74378,-0.49887 5.23524,-0.95187 7.95984,-1.44725 1.48614,-0.74308 2.89448,-1.44725 4.34174,-2.17087 0.48241,0 0.96482,0 1.44724,0 2.17086,-1.44725 4.34172,-2.89449 6.5126,-4.34173 3.1357,-1.20604 6.27138,-2.41208 9.40709,-3.61811 5.96989,-5.54778 11.65255,-10.82865 17.90964,-16.64332 2.0225,-2.52811 3.84847,-4.81058 5.78898,-7.23622 3.74934,-5.54218 7.45029,-11.01284 11.18511,-16.53357 1.51789,-3.29288 3.03579,-6.58576 4.55368,-9.87864 1.52023,-1.11857 1.73642,-2.60395 2.17086,-4.34173 0.72363,-1.68845 1.44725,-3.37691 2.17087,-5.06536 0.14942,-3.09039 1.03833,-5.85215 2.17087,-8.68346 0.2412,-2.41208 0.48241,-4.82415 0.72362,-7.23623 0.72362,-3.13569 1.44725,-6.27139 2.17087,-9.40709 0,-3.61811 0,-7.23622 0,-10.85433 0.57833,-3.25996 0,-6.23141 0,-9.40709 0,-3.61811 0,-7.23622 0,-10.85433 -1.20604,-6.5126 -2.41208,-13.0252 -3.61812,-19.5378 -1.92965,-4.58294 -3.85931,-9.16588 -5.78897,-13.74882 -1.31732,-5.34285 -5.06284,-9.83725 -7.95985,-14.47245 -2.93968,-4.99697 -6.04695,-9.66506 -10.13071,-13.74882 -1.92966,-2.17087 -3.85932,-4.34173 -5.78898,-6.5126 -5.30656,-4.58294 -10.61312,-9.16588 -15.91969,-13.74882 -4.10052,-1.68846 -8.20105,-3.37691 -12.30157,-5.06536 -3.1357,-1.44724 -6.2714,-2.89449 -9.40709,-4.34173 -10.37192,-2.89449 -20.74384,-5.78898 -31.11576,-8.68347 -0.48241,-0.24121 -0.96483,-0.48241 -1.44724,-0.72362 -0.96483,0 -1.92966,0 -2.89449,0 -1.92966,-0.72362 -3.85932,-1.44725 -5.78898,-2.17087 -2.41207,-2.17087 -4.82415,-4.34173 -7.23622,-6.5126 -1.20604,-0.72362 -2.41208,-1.44724 -3.61811,-2.17087 -0.24121,-0.48241 -0.48242,-0.96483 -0.72363,-1.44724 -4.34173,-4.34173 -8.68346,-8.68347 -13.0252,-13.0252 -1.44724,-1.20604 -2.89448,-2.41207 -4.34173,-3.61811 -1.68845,-2.17087 -3.3769,-4.34173 -5.06536,-6.5126 -2.17086,-2.41208 -4.34173,-4.82415 -6.5126,-7.23622 0.22092,-1.49427 -0.65618,-2.43153 -1.44724,-3.61811 0,-0.48242 0,-0.96483 0,-1.44725 -0.24121,0 -0.48241,0 -0.72362,0 -1.68845,0 -3.37691,0 -5.06536,0 z"
       sodipodi:nodetypes="cccccccccccccccccccccccccccccccccccccccccccccccccccccccccccccccccccccccscc"
       inkscape:label="Outline"
       transform="matrix(1.8236559,0,0,1.8236559,-364.58755,-208.41317)" />
  </g>
</svg>
