<?xml version="1.0" encoding="UTF-8" standalone="no"?>
<!-- Created with Inkscape (http://www.inkscape.org/) -->

<svg
   version="1.1"
   id="svg1"
   width="793.59998"
   height="559.35999"
   viewBox="0 0 793.59998 559.35999"
   sodipodi:docname="Pumpkin.svg"
   inkscape:version="1.4 (86a8ad7, 2024-10-11)"
   xmlns:inkscape="http://www.inkscape.org/namespaces/inkscape"
   xmlns:sodipodi="http://sodipodi.sourceforge.net/DTD/sodipodi-0.dtd"
   xmlns="http://www.w3.org/2000/svg"
   xmlns:svg="http://www.w3.org/2000/svg">
  <defs
     id="defs1">
    <inkscape:path-effect
       effect="bspline"
       id="path-effect19"
       is_visible="true"
       lpeversion="1.3"
       weight="33.333333"
       steps="2"
       helper_size="0"
       apply_no_weight="true"
       apply_with_weight="true"
       only_selected="false"
       uniform="false" />
    <inkscape:path-effect
       effect="bspline"
       id="path-effect18"
       is_visible="true"
       lpeversion="1.3"
       weight="33.333333"
       steps="2"
       helper_size="0"
       apply_no_weight="true"
       apply_with_weight="true"
       only_selected="false"
       uniform="false" />
    <inkscape:path-effect
       effect="bspline"
       id="path-effect17"
       is_visible="true"
       lpeversion="1.3"
       weight="33.333333"
       steps="2"
       helper_size="0"
       apply_no_weight="true"
       apply_with_weight="true"
       only_selected="false"
       uniform="false" />
    <inkscape:path-effect
       effect="bspline"
       id="path-effect16"
       is_visible="true"
       lpeversion="1.3"
       weight="33.333333"
       steps="2"
       helper_size="0"
       apply_no_weight="true"
       apply_with_weight="true"
       only_selected="false"
       uniform="false" />
    <inkscape:path-effect
       effect="bspline"
       id="path-effect15"
       is_visible="true"
       lpeversion="1.3"
       weight="33.333333"
       steps="2"
       helper_size="0"
       apply_no_weight="true"
       apply_with_weight="true"
       only_selected="false"
       uniform="false" />
    <inkscape:path-effect
       effect="bspline"
       id="path-effect13"
       is_visible="true"
       lpeversion="1.3"
       weight="33.333333"
       steps="2"
       helper_size="0"
       apply_no_weight="true"
       apply_with_weight="true"
       only_selected="false"
       uniform="false" />
    <inkscape:path-effect
       effect="bspline"
       id="path-effect11"
       is_visible="true"
       lpeversion="1.3"
       weight="33.333333"
       steps="2"
       helper_size="0"
       apply_no_weight="true"
       apply_with_weight="true"
       only_selected="false"
       uniform="false" />
    <inkscape:path-effect
       effect="bspline"
       id="path-effect10"
       is_visible="true"
       lpeversion="1.3"
       weight="33.333333"
       steps="2"
       helper_size="0"
       apply_no_weight="true"
       apply_with_weight="true"
       only_selected="false"
       uniform="false" />
    <inkscape:path-effect
       effect="bspline"
       id="path-effect9"
       is_visible="true"
       lpeversion="1.3"
       weight="33.333333"
       steps="2"
       helper_size="0"
       apply_no_weight="true"
       apply_with_weight="true"
       only_selected="false"
       uniform="false" />
    <inkscape:path-effect
       effect="bspline"
       id="path-effect8"
       is_visible="true"
       lpeversion="1.3"
       weight="33.333333"
       steps="2"
       helper_size="0"
       apply_no_weight="true"
       apply_with_weight="true"
       only_selected="false"
       uniform="false" />
    <inkscape:path-effect
       effect="bspline"
       id="path-effect7"
       is_visible="true"
       lpeversion="1.3"
       weight="33.333333"
       steps="2"
       helper_size="0"
       apply_no_weight="true"
       apply_with_weight="true"
       only_selected="false"
       uniform="false" />
    <inkscape:path-effect
       effect="bspline"
       id="path-effect6"
       is_visible="true"
       lpeversion="1.3"
       weight="33.333333"
       steps="2"
       helper_size="0"
       apply_no_weight="true"
       apply_with_weight="true"
       only_selected="false"
       uniform="false" />
    <inkscape:path-effect
       effect="bspline"
       id="path-effect5"
       is_visible="true"
       lpeversion="1.3"
       weight="33.333333"
       steps="2"
       helper_size="0"
       apply_no_weight="true"
       apply_with_weight="true"
       only_selected="false"
       uniform="false" />
    <inkscape:path-effect
       effect="bspline"
       id="path-effect4"
       is_visible="true"
       lpeversion="1.3"
       weight="33.333333"
       steps="2"
       helper_size="0"
       apply_no_weight="true"
       apply_with_weight="true"
       only_selected="false"
       uniform="false" />
    <inkscape:path-effect
       effect="bspline"
       id="path-effect3"
       is_visible="true"
       lpeversion="1.3"
       weight="33.333333"
       steps="2"
       helper_size="0"
       apply_no_weight="true"
       apply_with_weight="true"
       only_selected="false"
       uniform="false" />
    <inkscape:path-effect
       effect="bspline"
       id="path-effect2"
       is_visible="true"
       lpeversion="1.3"
       weight="33.333333"
       steps="2"
       helper_size="0"
       apply_no_weight="true"
       apply_with_weight="true"
       only_selected="false"
       uniform="false" />
    <inkscape:path-effect
       effect="bspline"
       id="path-effect1"
       is_visible="true"
       lpeversion="1.3"
       weight="33.333333"
       steps="2"
       helper_size="0"
       apply_no_weight="true"
       apply_with_weight="true"
       only_selected="false"
       uniform="false" />
  </defs>
  <sodipodi:namedview
     id="namedview1"
     pagecolor="#ffffff"
     bordercolor="#111111"
     borderopacity="1"
     inkscape:showpageshadow="0"
     inkscape:pageopacity="0"
     inkscape:pagecheckerboard="1"
     inkscape:deskcolor="#d1d1d1"
     inkscape:zoom="0.48858835"
     inkscape:cx="173.97058"
     inkscape:cy="121.77941"
     inkscape:window-width="1920"
     inkscape:window-height="991"
     inkscape:window-x="-9"
     inkscape:window-y="-9"
     inkscape:window-maximized="1"
     inkscape:current-layer="g1" />
  <g
     inkscape:groupmode="layer"
     inkscape:label="Image"
     id="g1">
    <g
       id="g20"
       transform="matrix(2.2643634,0,0,2.2643634,-578.9884,-321.74658)">
      <path
         style="display:inline;fill:#d46e2f;fill-opacity:0.992157;stroke:none;stroke-width:2.601;stroke-opacity:1"
         d="m 450.89473,180.50341 c -4.37023,-0.39269 -6.5875,-0.90436 -8.9045,-1.24651 -2.317,-0.34215 -4.66199,-0.50965 -8.67584,-0.32253 -4.01386,0.18712 -10.00893,0.76873 -16.71324,1.8893 -6.70431,1.12057 -11.52961,2.16388 -20.94949,4.56305 -9.41989,2.39917 -17.53676,4.90004 -24.62083,8.21559 -7.08406,3.31556 -10.61693,5.63401 -17.80704,12.14892 -7.1901,6.51492 -13.01039,12.93292 -18.05647,19.24162 -5.04608,6.30869 -8.00081,10.96251 -10.26271,16.33377 -2.26191,5.37125 -4.55143,13.3612 -5.42554,20.67394 -0.87412,7.31273 -0.533,14.64678 0.74632,21.29892 1.27932,6.65215 3.49621,12.6207 5.54299,17.48183 2.04678,4.86113 3.92293,8.61343 5.91942,12.02908 1.99648,3.41566 2.81204,4.60192 5.7804,8.77999 2.96836,4.17806 6.20898,8.61261 10.72461,13.53218 4.51563,4.91957 2.16229,2.72311 5.98683,6.32111 3.82453,3.59799 7.23572,6.83862 10.37541,9.63995 3.13968,2.80133 6.0718,5.21601 9.3116,7.51792 3.2398,2.30191 6.82199,4.51946 9.81863,6.14484 2.99664,1.62539 5.32878,2.62488 7.75791,3.57884 2.42914,0.95397 4.77657,1.79234 8.18261,2.81386 3.40605,1.02152 7.8406,2.21544 12.18987,3.32407 4.34926,1.10864 8.61324,2.13199 12.66089,2.64367 4.04765,0.51168 7.71984,0.51168 10.27879,0.51168 2.55894,0 3.92342,0 7.07877,0 3.15534,0 8.10157,0 12.79195,-0.51168 4.69038,-0.51168 9.12493,-1.53503 13.81531,-2.55839 4.69038,-1.02336 9.63661,-2.04671 13.21835,-3.15535 3.58175,-1.10863 5.79902,-2.30254 7.50462,-3.07006 1.70559,-0.76752 2.89951,-1.10864 3.92287,-1.53504 1.02335,-0.4264 1.87615,-0.93808 2.98479,-1.44975 1.10863,-0.51168 2.46686,-1.02102 7.72103,-5.58361 5.25417,-4.5626 8.59243,-7.70854 17.33627,-19.60872 8.74384,-11.90019 11.71984,-17.19118 16.54866,-29.00268 4.82883,-11.8115 5.08466,-18.71914 5.16994,-23.15368 0.0853,-4.43454 9.7e-4,-6.37382 -0.9477,-11.61308 -0.94867,-5.23927 -2.71931,-13.54442 -4.63811,-20.47341 -1.9188,-6.92899 -3.9655,-12.38685 -5.79902,-16.60822 -1.83352,-4.22136 -3.45382,-7.20612 -6.77974,-11.87521 -3.32593,-4.66908 -8.50671,-11.21091 -12.05645,-15.82836 -3.54975,-4.61745 -5.767,-7.68749 -10.37212,-11.48245 -4.60512,-3.79496 -9.40035,-6.89432 -16.97665,-10.91927 -7.57631,-4.02495 -9.82741,-4.8215 -18.66468,-6.50478 -8.83727,-1.68329 -11.34848,-1.78866 -15.71871,-2.18135 z"
         id="path3"
         inkscape:path-effect="#path-effect3"
         inkscape:original-d="m 448.74177,180.6224 c -2.21727,-0.51168 -4.43454,-1.02336 -6.65182,-1.53503 -2.44002,0.15359 -4.78345,-0.0357 -7.16349,-0.51168 -5.54162,1.41487 -11.42078,3.19126 -17.14122,1.66295 -7.8884,1.7056 -12.7137,2.74891 -23.66511,5.11679 -7.88836,2.43046 -16.00523,4.93133 -23.66512,7.2914 -6.50824,4.27104 -10.04111,6.58949 -16.3737,10.74525 -8.04762,8.87407 -13.86791,15.29207 -20.80811,22.945 -3.15196,4.96446 -6.10669,9.61828 -8.74131,13.76791 -1.88919,6.59288 -4.17871,14.58283 -6.26806,21.87424 0.34112,7.33406 0.68224,14.66811 1.02336,22.00216 2.31883,5.93261 4.5097,11.91082 6.65182,17.90874 1.87615,3.75231 3.7523,7.50461 5.62846,11.25692 2.68695,2.68703 2.20614,4.76454 5.62846,8.18685 3.24062,4.43455 6.48125,8.86909 9.72188,13.30363 6.2032,4.96256 3.3103,3.34421 7.67517,7.1635 3.41119,3.24063 6.82238,6.48126 10.23357,9.72188 3.33779,1.7918 5.92697,4.62291 8.69853,7.1635 3.61942,2.15558 7.17308,4.41921 10.74524,6.65182 2.65372,0.46859 4.86274,1.75535 7.16349,3.07006 2.51206,0.66498 4.99823,1.11488 7.1635,2.5584 4.43454,1.19391 8.86909,2.38783 13.30363,3.58174 4.26399,1.02336 8.52797,2.04672 12.79196,3.07007 3.83131,-0.24154 7.5035,0.75068 11.25692,0 1.36447,0 2.72895,0 4.09342,0 4.94622,0 9.89245,0 14.83867,0 4.43454,-1.02335 8.86909,-2.04671 13.30363,-3.07007 4.94622,-1.02335 9.89245,-2.04671 14.83867,-3.07007 2.21727,-1.19391 4.43454,-2.38783 6.65182,-3.58174 1.19391,-0.34112 2.38783,-0.68224 3.58174,-1.02336 0.8528,-0.51168 1.7056,-1.02336 2.55839,-1.53503 1.36448,-0.51168 2.72271,-1.02102 4.09343,-1.53504 9.13762,-8.61117 12.47588,-11.75711 21.20204,-19.98052 17.53031,-10.64481 15.92952,-18.51009 21.13933,-37.58328 0.25584,-6.90767 0.51168,-13.81531 0.76751,-20.72296 -0.0853,-1.96143 -0.16959,-3.90071 -0.25583,-5.8843 -1.8111,-8.49494 -3.58174,-16.80009 -5.37262,-25.20016 -2.04672,-5.45791 -4.09342,-10.91577 -6.14014,-16.3737 -1.62032,-2.9848 -3.24062,-5.96956 -4.86094,-8.95436 -5.03153,-6.35337 -10.21231,-12.8952 -15.09451,-19.06001 -2.21728,-3.07009 -4.43453,-6.14013 -6.65182,-9.21021 -6.99296,-4.51985 -11.78819,-7.6192 -20.97881,-13.55948 -5.96199,-2.10962 -8.21309,-2.90616 -16.62953,-5.88429 -9.2581,-0.38845 -11.76931,-0.49382 -18.2925,-0.76752 z"
         inkscape:label="Base color"
         sodipodi:nodetypes="ccccccccccccccccccccccccsccccccccccccccccccc" />
      <path
         style="fill:#c66226;fill-opacity:1;stroke:none;stroke-width:0.801;stroke-dasharray:none;stroke-opacity:1"
         d="m 451.18329,262.22123 c -0.12267,4.63348 0.11716,13.39789 0.23707,20.79519 0.11991,7.3973 0.11991,13.42749 -6.9e-4,16.68379 -0.12061,3.2563 -0.36181,3.73871 -0.60302,4.82415 -0.24121,1.08544 -0.48241,2.77387 -0.61497,3.65993 -0.13256,0.88607 -1.06749,4.15832 -1.37168,6.76608 -0.30419,2.60776 -0.42417,6.11381 -0.84597,8.59049 -0.4218,2.47667 -1.14541,3.9239 -1.74205,5.46941 -0.59664,1.54551 -1.09003,3.27239 -1.35345,4.88998 -0.26342,1.61759 -0.30606,3.15805 -0.35502,5.48652 -0.049,2.32846 -0.10528,5.50368 0.10374,8.04065 0.20902,2.53697 0.68352,4.42776 0.93277,5.42101 0.24926,0.99326 0.27325,1.08891 5.58377,-3.83641 5.31052,-4.92533 25.06537,-23.46713 25.51111,-25.38027 0.44575,-1.91314 -0.10196,-4.38857 -0.71627,-6.32012 -0.6143,-1.93155 -1.29519,-3.31917 -1.86839,-5.06037 -0.57321,-1.74121 -1.07282,-3.98949 -1.91691,-7.00393 -0.84408,-3.01445 -2.05012,-6.87376 -3.13555,-10.85369 -1.08544,-3.97992 -2.05027,-8.08045 -2.77389,-10.73373 -0.72362,-2.65328 -1.20604,-3.85932 -1.69276,-5.07612 -0.48672,-1.2168 -0.92579,-2.31448 -1.54617,-3.92574 -0.62038,-1.61126 -1.34401,-3.54092 -2.18823,-5.953 -0.84423,-2.41207 -1.80906,-5.30656 -2.65329,-7.11561 -0.84422,-1.80906 -1.56784,-2.53268 -2.05026,-3.1357 -0.48242,-0.60302 -0.72362,-1.08543 -1.32457,-1.37718 -0.60094,-0.29175 -1.56162,-0.39282 -2.28455,-0.19209 -0.72292,0.20074 -1.20809,0.70329 -1.33077,5.33676 z"
         id="path17"
         inkscape:path-effect="#path-effect17"
         inkscape:original-d="m 450.8208,258.0903 c 0.23982,8.76441 0.47965,17.52882 0.71947,26.29324 0,6.03018 0,12.06037 0,18.09055 -0.24121,0.48242 -0.48241,0.96483 -0.72362,1.44725 -0.24121,1.68846 -0.48241,3.37689 -0.72362,5.06535 0,0.0905 -0.009,3.6273 -1.44725,5.06536 -0.11997,3.50608 -0.23995,7.01213 -0.35992,10.51823 -0.72363,1.44725 -1.44725,2.89448 -2.17087,4.34173 0.15298,1.82166 -0.78923,3.42031 -1.44724,5.06536 -0.0426,1.54047 -0.0853,3.08093 -0.12792,4.6214 0.88667,3.13317 0.18504,6.29694 -0.16806,9.47482 0.4745,1.8908 0.949,3.78159 1.4235,5.6724 0.024,0.0957 0.048,0.19135 0.072,0.28703 10.59704,-9.94633 30.72952,-28.08579 31.79109,-29.83896 -0.54771,-2.47545 -1.09542,-4.95088 -1.64313,-7.42633 -0.6809,-1.38765 -1.36179,-2.77527 -2.0427,-4.16293 -1.11861,-1.94961 -1.13201,-4.30594 -1.44724,-6.5126 -1.20604,-3.85932 -2.41208,-7.71863 -3.61812,-11.57795 -0.96483,-4.10053 -1.92966,-8.20106 -2.89449,-12.30158 -0.48241,-1.20604 -0.96482,-2.41208 -1.44724,-3.61811 0.2162,-1.51046 -0.65792,-2.43412 -1.44724,-3.61811 -0.72363,-1.92966 -1.44725,-3.85932 -2.17087,-5.78898 -0.96483,-2.89449 -1.92966,-5.78898 -2.89449,-8.68347 -0.72362,-0.72362 -1.44724,-1.44724 -2.17087,-2.17086 -0.2412,-0.48242 -0.48241,-0.96483 -0.72362,-1.44725 -0.96068,-0.10108 -1.92136,-0.20215 -2.88204,-0.30323 -0.48517,0.50255 -0.97034,1.0051 -1.45551,1.50764 z"
         sodipodi:nodetypes="ccccccccccccccccccccccccccc"
         transform="matrix(1.4061567,0,0,1.357558,-186.37153,-125.55618)" />
      <path
         style="fill:#c66226;fill-opacity:1;stroke:none;stroke-width:0.801;stroke-dasharray:none;stroke-opacity:1"
         d="m 468.9072,215.63942 c 2.41208,-3.61811 4.82415,-7.23622 8.68347,-5.06535 3.85933,2.17087 9.16589,10.13071 13.14581,16.04029 3.97992,5.90958 6.6332,9.7689 8.68359,13.327 2.05039,3.5581 2.11737,3.7088 3.07876,5.93978 0.96139,2.23098 1.35421,3.21302 1.97185,4.57621 0.61764,1.36319 1.34126,2.81043 2.52799,4.94821 1.18674,2.13777 3.12084,5.45337 4.70577,8.291 1.58493,2.83763 3.27338,5.97332 2.42915,8.74721 -0.84423,2.77389 -4.22113,5.18596 -6.392,5.42716 -2.17086,0.24121 -3.13569,-1.68845 -3.85931,-2.89449 -0.72362,-1.20603 -1.20604,-1.68845 -1.80906,-3.01509 -0.60302,-1.32664 -1.32664,-3.4975 -2.05026,-5.06535 -0.72362,-1.56785 -1.44724,-2.53268 -2.29147,-4.46234 -0.84423,-1.92966 -1.80906,-4.82415 -3.37691,-8.32165 -1.56784,-3.49751 -3.73871,-7.59804 -5.53702,-11.19286 -1.79831,-3.59483 -3.26404,-6.77057 -5.67762,-11.23617 -2.41357,-4.4656 -5.79048,-10.25458 -8.32315,-13.14907 -2.53268,-2.89449 -4.22114,-2.89449 -5.90959,-2.89449"
         id="path18"
         inkscape:path-effect="#path-effect18"
         inkscape:original-d="m 468.9072,215.63942 c 2.41208,-3.61811 4.82415,-7.23622 7.23623,-10.85433 5.30656,7.95985 10.61312,15.91969 15.91969,23.87953 2.65328,3.85932 5.30656,7.71864 7.95984,11.57796 0.7393,3.57164 2.89449,2.79424 2.89449,6.5126 0.97305,1.18483 1.44724,2.13432 1.44724,3.61811 0.72363,1.44725 1.44725,2.89449 2.17087,4.34173 1.47863,2.92819 5.06536,5.27976 5.06536,8.68347 1.68845,3.1357 3.3769,6.27139 5.06535,9.40709 -3.37691,2.41208 -6.75381,4.82415 -10.13071,7.23622 -0.96483,-1.92966 -1.92966,-3.85932 -2.89449,-5.78898 -0.48241,-0.48241 -0.96483,-0.96483 -1.44724,-1.44724 -0.72363,-2.17087 -1.44725,-4.34173 -2.17087,-6.5126 -0.72362,-0.96483 -1.44724,-1.92966 -2.17087,-2.89449 -0.96483,-2.89449 -1.92966,-5.78898 -2.89449,-8.68347 -2.17086,-4.10052 -4.34173,-8.20105 -6.5126,-12.30157 -0.60944,-3.46589 -2.65634,-6.3734 -4.34173,-9.40709 -3.3769,-5.78898 -6.75381,-11.57796 -10.13071,-17.36694 -1.68845,0 -5.06536,0 -5.06536,0"
         sodipodi:nodetypes="ccccccccccccccccccc" />
      <path
         style="fill:#c66226;fill-opacity:1;stroke:none;stroke-width:0.801;stroke-dasharray:none;stroke-opacity:1"
         d="m 405.95207,222.15202 c 0,0 0,0 -0.96483,1.08543 -0.96483,1.08544 -2.89449,3.25631 -4.46234,4.82415 -1.56784,1.56785 -2.77388,2.53268 -5.06535,5.18596 -2.29148,2.65329 -5.66838,6.99502 -7.59804,9.7689 -1.92965,2.77389 -2.41207,3.97993 -3.4975,5.90959 -1.08544,1.92966 -2.77389,4.58294 -3.98787,6.64909 -1.21398,2.06614 -1.93616,3.5105 -2.65256,4.8227 -0.7164,1.3122 -1.44002,2.51824 -1.91937,3.47385 -0.47934,0.95562 -0.72061,1.67944 -1.56788,3.2564 -0.84726,1.57696 -2.29451,3.98904 -3.50054,7.60715 -1.20604,3.61811 -2.17087,8.44226 -3.0151,11.69856 -0.84422,3.2563 -1.56784,4.94475 -2.19959,6.73376 -0.63175,1.78902 -1.00455,3.09382 -1.75228,5.6392 -0.74772,2.54539 -1.49455,5.04792 -2.13883,7.54881 -0.64428,2.50088 -1.02296,4.42099 -1.33436,6.51124 -0.3114,2.09025 -0.4496,3.47101 -0.55249,5.70502 -0.10289,2.23402 -0.10289,4.6461 -0.10289,7.07841 0,2.43232 0,4.70349 0,7.16577 0,2.46229 0,4.87436 0.0784,7.15587 0.0784,2.28151 0.26187,4.7966 3.86555,8.84723 3.60368,4.05063 10.64342,9.85381 17.1715,13.82078 6.52808,3.96697 12.54448,6.09771 15.67699,7.19572 3.13251,1.09802 3.38114,1.16333 3.32867,-0.0245 -0.0525,-1.18783 -0.40603,-3.62889 -0.99228,-6.0153 -0.58625,-2.38641 -1.40519,-4.71822 -1.93527,-6.96957 -0.53008,-2.25134 -0.77128,-4.4222 -0.89189,-6.59307 -0.1206,-2.17087 -0.1206,-4.34173 -0.2412,-6.392 -0.12061,-2.05026 -0.36181,-3.97992 -0.48242,-5.83688 -0.1206,-1.85696 -0.1206,-3.87938 1.4e-4,-6.92317 0.12075,-3.0438 0.36174,-7.14072 0.57523,-10.02671 0.2135,-2.88599 0.52688,-5.70643 0.75782,-7.90365 0.23094,-2.19722 0.47377,-4.62553 0.82258,-7.88649 0.34881,-3.26095 0.86932,-7.94552 1.94976,-13.56889 1.08043,-5.62338 2.76888,-12.6184 3.61311,-17.68375 0.84422,-5.06536 0.84422,-8.20105 0.96483,-10.37192 0.1206,-2.17087 0.24069,-2.77131 0.96534,-5.66992 0.72465,-2.89861 0.73859,-2.9497 1.39417,-5.5143 0.65558,-2.56461 0.89268,-3.75011 1.3833,-5.83527 0.49063,-2.08516 1.19275,-4.89363 1.91223,-7.65385 0.71948,-2.76022 1.45911,-5.47221 1.82165,-7.40456 0.36255,-1.93235 0.36255,-3.13838 0.48315,-5.30925 0.12061,-2.17087 0.36181,-5.30656 0,-6.99501 -0.36181,-1.68846 -1.32664,-1.92966 -2.41207,-1.20604 -1.08544,0.72362 -2.29147,2.41207 -3.49751,4.10052"
         id="path19"
         inkscape:path-effect="#path-effect19"
         inkscape:original-d="m 405.95207,222.15202 v 0 c -1.92966,2.17087 -3.85932,4.34174 -5.78898,6.5126 -1.20603,0.96483 -2.41207,1.92966 -3.61811,2.89449 -3.3769,4.34174 -6.75381,8.68347 -10.13071,13.0252 -0.48241,1.20604 -0.96483,2.41208 -1.44724,3.61811 -1.68846,2.65329 -3.37691,5.30657 -5.06536,7.95985 -0.65711,1.52021 -0.98889,3.15977 -2.17087,4.34173 -0.72362,1.20604 -1.44724,2.41208 -2.17086,3.61811 0.0971,0.81592 -0.37036,1.46435 -0.72363,2.17087 -1.44724,2.41207 -2.89448,4.82415 -4.34173,7.23622 -0.96483,4.82415 -1.92966,9.6483 -2.89449,14.47245 -0.72362,1.68845 -1.44724,3.3769 -2.17086,5.06535 0.30846,2.13196 -0.31397,3.36544 -1.44725,5.06536 -0.96088,3.21979 -0.38557,6.11689 -2.59852,8.70729 -0.39775,2.0168 -0.77643,3.93691 -1.19141,6.04105 -0.20782,2.07636 -0.34602,3.45712 -0.5518,5.51308 0,2.41207 0,4.82415 0,7.23622 -0.98606,2.45256 -0.41875,4.72373 0,7.23622 0,2.41208 0,4.82415 0,7.23623 1.20556,2.07446 0.6628,4.64251 0.50791,6.96408 7.03976,5.80321 14.0795,11.60639 21.11926,17.4096 6.0164,2.13073 12.0328,4.26147 18.0492,6.3922 0.24862,0.0653 0.49725,0.13061 0.74587,0.19591 -0.35356,-2.44097 -0.70712,-4.88203 -1.06068,-7.32304 -0.81894,-2.33181 -1.63789,-4.66362 -2.45683,-6.99544 -0.24121,-2.17087 -0.48241,-4.34173 -0.72362,-6.5126 0,-2.17087 0,-4.34173 0,-6.5126 -0.24121,-1.92966 -0.48242,-3.85932 -0.72362,-5.78898 1.16115,-1.78426 0.33038,-3.80668 0,-5.78898 0.32235,-4.10053 0.72362,-8.18803 0.72362,-12.30158 1.43994,-1.53327 0.72362,-4.46812 0.72362,-6.5126 1.01679,-2.29696 0.72362,-4.77887 0.72362,-7.23622 1.58877,-3.96284 1.18009,-8.75065 1.44725,-13.0252 1.68845,-6.99501 3.3769,-13.99003 5.06535,-20.98504 0,-3.1357 0,-6.27139 0,-9.40709 0.24121,-1.20604 0.3613,-1.80648 0.72363,-3.61811 1.88403,-3.76821 0.65071,-4.15946 2.17086,-7.95985 0.24121,-1.20604 0.47831,-2.39154 0.72362,-3.61811 0.14942,-3.09038 1.03835,-5.85215 2.17087,-8.68346 0.75962,-2.57462 1.50234,-5.28576 2.17087,-7.95985 0,-1.20604 0,-2.41207 0,-3.61811 0.24121,-3.1357 0.48241,-6.27139 0.72362,-9.40709 -0.96483,-0.24121 -1.92966,-0.48241 -2.89449,-0.72362 -1.20604,1.68845 -3.61811,5.06535 -3.61811,5.06535"
         sodipodi:nodetypes="ccccccccccccccccccccccccccccccccccccccccccccc" />
      <path
         style="display:inline;fill:#c66226;fill-opacity:1;stroke-width:2.601"
         d="m 425.89642,212.59863 c -1.58886,1.2956 -1.26706,4.63119 -0.98831,6.57784 0.27875,1.94665 0.51487,2.53696 0.82462,3.09451 0.30975,0.55755 0.66167,1.02678 0.96318,1.44889 0.30151,0.42212 0.54272,0.78393 1.50755,1.32665 0.96483,0.54271 2.65327,1.26633 4.58293,1.74875 1.92967,0.48242 4.10051,0.72362 4.9749,0.81407 0.87438,0.0905 0.45227,0.0301 1.02514,0 0.57287,-0.0301 2.14072,-0.0301 3.22615,-0.15075 1.08543,-0.1206 1.68845,-0.36181 2.65328,-0.60302 0.96483,-0.24121 2.29147,-0.48241 3.7764,-0.80654 1.48494,-0.32412 0.61305,-0.10815 3.81764,-1.02375 3.2046,-0.91559 2.21362,-0.56288 3.82239,-1.17535 1.60877,-0.61247 3.41783,-1.3361 4.62386,-1.93911 1.20604,-0.60302 1.80906,-1.08544 2.62561,-1.58416 0.81654,-0.49872 1.69647,-0.93869 2.67113,-1.72753 0.97466,-0.78884 1.93949,-1.87427 2.3616,-3.38181 0.42212,-1.50755 0.30151,-3.43721 0.18042,-4.94916 -0.12109,-1.51194 -0.24037,-2.58539 -0.66266,-4.21514 -0.42229,-1.62974 -1.14591,-3.80061 -1.68863,-4.94634 -0.54271,-1.14573 -0.90452,-1.26634 -1.56785,-1.44724 -0.66332,-0.18091 -1.62814,-0.42212 -2.59297,-0.36182 -0.96483,0.0603 -1.92966,0.42212 -2.93384,0.8639 -1.00417,0.44179 -1.7851,0.83225 -2.44073,1.22037 -0.65562,0.38811 -0.89683,0.62932 -1.18326,0.84791 -0.28643,0.21859 -0.6181,0.41457 -2.18379,1.79486 -1.56568,1.3803 -4.36534,3.94486 -7.70623,5.59654 -3.34088,1.65168 -6.25194,2.20563 -10.86439,2.21505 -4.61245,0.009 -7.23529,-0.53323 -8.82414,0.76238 z"
         id="path4"
         inkscape:path-effect="#path-effect4"
         inkscape:original-d="m 423.98776,210.5794 c 0.3198,3.31483 0.6416,6.65042 0.9594,9.94448 0.23969,0.59924 0.47582,1.18955 0.72362,1.80905 0.3717,0.4956 0.72362,0.96483 1.08544,1.44725 0.2412,0.36181 0.48241,0.72362 0.72362,1.08543 1.68845,0.72362 3.37689,1.44724 5.06535,2.17087 2.17087,0.2412 4.34171,0.48241 6.5126,0.72362 -0.42212,-0.0603 -0.84423,-0.12061 -1.26634,-0.18091 1.56785,0 3.1357,0 4.70355,0 0.60301,-0.24121 1.20603,-0.48241 1.80905,-0.72362 1.32664,-0.24121 2.65328,-0.48241 3.97992,-0.72362 1.64323,-0.40704 0.77134,-0.19107 4.92968,-1.22112 2.25085,-0.80114 1.25987,-0.44842 2.66836,-0.94975 1.80905,-0.72362 3.61811,-1.44724 5.42716,-2.17087 0.60302,-0.48241 1.20604,-0.96483 1.80906,-1.44724 1.03007,-0.51503 2.07408,-0.62684 2.89449,-1.44724 0.96483,-1.08544 1.92966,-2.17087 2.89449,-3.2563 -0.12061,-1.92966 -0.24121,-3.85932 -0.36181,-5.78898 -0.22979,-1.08221 -0.36182,-2.15424 -0.36182,-3.2563 -0.72362,-2.17087 -1.44724,-4.34174 -2.17086,-6.5126 -0.36181,-0.12061 -0.72362,-0.24121 -1.08544,-0.36181 -0.96483,-0.24121 -1.92965,-0.48242 -2.89448,-0.72363 -0.96483,0.36182 -1.92966,0.72363 -2.89449,1.08544 -0.77521,1.05839 -1.67854,1.20405 -2.89449,1.44724 -0.24121,0.24121 -0.48242,0.48242 -0.72362,0.72362 -0.33166,0.19598 -0.66333,0.39196 -0.99499,0.58794 -2.79971,2.56461 -5.59937,5.12917 -8.39913,7.69382 -3.88201,0.73871 -6.79307,1.29266 -11.6458,2.21609 -4.37217,-0.90459 -6.99501,-1.44724 -10.49252,-2.17086 z"
         sodipodi:nodetypes="ccccccccccccccccccccccccccccc"
         inkscape:label="Shadow1" />
      <path
         style="display:inline;fill:#c66326;fill-opacity:0.996078;stroke-width:2.601"
         d="m 410.64319,372.62156 c 0.90453,-0.36181 1.86936,-1.08543 3.97626,-2.67382 2.10691,-1.58839 4.6206,-3.48637 6.70408,-4.98201 2.08349,-1.49564 2.92771,-1.97805 4.55587,-2.94289 1.62816,-0.96484 4.04021,-2.41206 5.96987,-3.5578 1.92967,-1.14574 3.3769,-1.98996 6.75791,-4.76748 3.38101,-2.77753 8.5965,-7.40034 13.17097,-11.67748 4.57447,-4.27714 8.5948,-8.31648 10.96162,-10.99707 2.36682,-2.68059 3.33044,-4.24647 5.17127,-7.11372 1.84084,-2.86726 4.56726,-7.04949 8.02767,-12.27695 3.46042,-5.22746 7.52286,-11.3028 11.47091,-17.34479 3.94805,-6.04199 7.2504,-11.23545 10.16177,-16.4341 2.91136,-5.19865 5.15795,-9.93678 7.0615,-13.86082 1.90355,-3.92405 3.43125,-6.96483 6.2621,-10.86391 2.83085,-3.89908 4.57142,-5.90211 7.0797,-7.98643 2.50828,-2.08431 3.94668,-2.13521 5.1483,-1.06016 1.20162,1.07506 2.16645,3.27607 3.99058,10.09017 1.82413,6.8141 4.49964,18.20756 5.81517,26.93819 1.31552,8.73063 1.25523,14.72935 0.01,21.10182 -1.24527,6.37247 -3.6023,12.91322 -6.99766,20.01974 -3.39536,7.10653 -7.7371,14.52368 -13.18685,21.83525 -5.44976,7.31156 -8.77258,10.96285 -16.23466,17.73784 -7.46208,6.77499 -12.48547,9.50542 -19.37243,11.96226 -6.88696,2.45684 -15.75898,4.70502 -24.96435,6.08297 -9.20536,1.37794 -20.29585,1.9727 -28.38878,1.5035 -8.09293,-0.4692 -16.25347,-1.83795 -18.88873,-3.38296 -2.63526,-1.54502 0.25469,-3.26618 2.12197,-4.12686 1.86727,-0.86068 2.71144,-0.86068 3.61597,-1.22249 z"
         id="path5"
         inkscape:path-effect="#path-effect5"
         inkscape:original-d="m 410.58289,372.98337 c 0.96483,-0.72362 1.92966,-1.44724 2.89449,-2.17086 4.45265,-0.85901 6.40818,-3.49623 9.08541,-6.86 0.84423,-0.48241 1.68845,-0.96483 2.53267,-1.44725 2.4121,-1.44725 4.82415,-2.89448 7.23623,-4.34173 1.44725,-0.84423 2.89448,-1.68844 4.34173,-2.53268 5.31478,-4.71081 10.99599,-8.80819 15.91969,-14.11063 5.05208,-2.49079 9.40703,-6.19709 11.53783,-11.59237 1.03629,-1.54811 2.30256,-2.92774 2.89449,-4.70354 2.72645,-4.18228 5.45287,-8.36451 8.17931,-12.54677 4.19438,-6.27266 8.25683,-12.348 12.58314,-18.81794 3.56978,-5.61404 6.87214,-10.8075 10.38278,-16.32852 2.31209,-4.87628 4.55868,-9.61441 6.83805,-14.42167 1.52773,-3.04083 3.05543,-6.08161 4.58315,-9.12241 5.02771,-3.98074 8.49603,-4.48242 9.45271,-10.87811 1.4384,-0.0509 2.8768,-0.10181 4.31521,-0.15272 0.96483,2.20102 1.92966,4.40203 2.89449,6.60304 2.68343,11.42719 5.35894,22.82065 8.0503,34.28161 -0.0603,6.0003 -0.12059,11.99902 -0.18091,18.00011 -2.43021,6.74385 -4.78725,13.2846 -7.23623,20.08051 -4.34173,7.41714 -8.68348,14.83429 -13.02519,22.25138 -6.5578,7.20604 -9.88062,10.85733 -19.67348,21.61822 -5.1313,2.78909 -10.15469,5.51952 -15.06039,8.18598 -8.86822,2.24722 -17.74024,4.4954 -26.59312,6.73873 -9.55785,0.51256 -20.64834,1.10732 -28.67352,1.53769 -8.16068,-1.36877 -16.32122,-2.73752 -24.48186,-4.10628 2.89012,-1.72127 5.78007,-3.44243 8.67035,-5.16379 0.84427,0 1.68844,0 2.53267,0 z"
         transform="translate(8.186851,-4.6051037)"
         sodipodi:nodetypes="cccccccccccccccccscccccccccc"
         inkscape:label="Shadow2" />
      <path
         style="display:inline;fill:none;fill-opacity:0.992157;stroke:#000000;stroke-width:2.601;stroke-opacity:1"
         d="m 450.89473,180.50341 c -4.37023,-0.39269 -6.5875,-0.90436 -8.9045,-1.24651 -2.317,-0.34215 -4.66199,-0.50965 -8.67584,-0.32253 -4.01386,0.18712 -10.00893,0.76873 -16.71324,1.8893 -6.70431,1.12057 -11.52961,2.16388 -20.94949,4.56305 -9.41989,2.39917 -17.53676,4.90004 -24.62083,8.21559 -7.08406,3.31556 -10.61693,5.63401 -17.80704,12.14892 -7.1901,6.51492 -13.01039,12.93292 -18.05647,19.24162 -5.04608,6.30869 -8.00081,10.96251 -10.26271,16.33377 -2.26191,5.37125 -4.55143,13.3612 -5.42554,20.67394 -0.87412,7.31273 -0.533,14.64678 0.74632,21.29892 1.27932,6.65215 3.49621,12.6207 5.54299,17.48183 2.04678,4.86113 3.92293,8.61343 5.91942,12.02908 1.99648,3.41566 2.81204,4.60192 5.7804,8.77999 2.96836,4.17806 6.20898,8.61261 10.72461,13.53218 4.51563,4.91957 2.16229,2.72311 5.98683,6.32111 3.82453,3.59799 7.23572,6.83862 10.37541,9.63995 3.13968,2.80133 6.0718,5.21601 9.3116,7.51792 3.2398,2.30191 6.82199,4.51946 9.81863,6.14484 2.99664,1.62539 5.32878,2.62488 7.75791,3.57884 2.42914,0.95397 4.77657,1.79234 8.18261,2.81386 3.40605,1.02152 7.8406,2.21544 12.18987,3.32407 4.34926,1.10864 8.61324,2.13199 12.66089,2.64367 4.04765,0.51168 7.71984,0.51168 10.27879,0.51168 2.55894,0 3.92342,0 7.07877,0 3.15534,0 8.10157,0 12.79195,-0.51168 4.69038,-0.51168 9.12493,-1.53503 13.81531,-2.55839 4.69038,-1.02336 9.63661,-2.04671 13.21835,-3.15535 3.58175,-1.10863 5.79902,-2.30254 7.50462,-3.07006 1.70559,-0.76752 2.89951,-1.10864 3.92287,-1.53504 1.02335,-0.4264 1.87615,-0.93808 2.98479,-1.44975 1.10863,-0.51168 2.46686,-1.02102 7.72103,-5.58361 5.25417,-4.5626 8.59243,-7.70854 17.33627,-19.60872 8.74384,-11.90019 11.71984,-17.19118 16.54866,-29.00268 4.82883,-11.8115 5.08466,-18.71914 5.16994,-23.15368 0.0853,-4.43454 9.7e-4,-6.37382 -0.9477,-11.61308 -0.94867,-5.23927 -2.71931,-13.54442 -4.63811,-20.47341 -1.9188,-6.92899 -3.9655,-12.38685 -5.79902,-16.60822 -1.83352,-4.22136 -3.45382,-7.20612 -6.77974,-11.87521 -3.32593,-4.66908 -8.50671,-11.21091 -12.05645,-15.82836 -3.54975,-4.61745 -5.767,-7.68749 -10.37212,-11.48245 -4.60512,-3.79496 -9.40035,-6.89432 -16.97665,-10.91927 -7.57631,-4.02495 -9.82741,-4.8215 -18.66468,-6.50478 -8.83727,-1.68329 -11.34848,-1.78866 -15.71871,-2.18135 z"
         id="path1"
         inkscape:path-effect="#path-effect13"
         inkscape:original-d="m 448.74177,180.6224 c -2.21727,-0.51168 -4.43454,-1.02336 -6.65182,-1.53503 -2.44002,0.15359 -4.78345,-0.0357 -7.16349,-0.51168 -5.54162,1.41487 -11.42078,3.19126 -17.14122,1.66295 -7.8884,1.7056 -12.7137,2.74891 -23.66511,5.11679 -7.88836,2.43046 -16.00523,4.93133 -23.66512,7.2914 -6.50824,4.27104 -10.04111,6.58949 -16.3737,10.74525 -8.04762,8.87407 -13.86791,15.29207 -20.80811,22.945 -3.15196,4.96446 -6.10669,9.61828 -8.74131,13.76791 -1.88919,6.59288 -4.17871,14.58283 -6.26806,21.87424 0.34112,7.33406 0.68224,14.66811 1.02336,22.00216 2.31883,5.93261 4.5097,11.91082 6.65182,17.90874 1.87615,3.75231 3.7523,7.50461 5.62846,11.25692 2.68695,2.68703 2.20614,4.76454 5.62846,8.18685 3.24062,4.43455 6.48125,8.86909 9.72188,13.30363 6.2032,4.96256 3.3103,3.34421 7.67517,7.1635 3.41119,3.24063 6.82238,6.48126 10.23357,9.72188 3.33779,1.7918 5.92697,4.62291 8.69853,7.1635 3.61942,2.15558 7.17308,4.41921 10.74524,6.65182 2.65372,0.46859 4.86274,1.75535 7.16349,3.07006 2.51206,0.66498 4.99823,1.11488 7.1635,2.5584 4.43454,1.19391 8.86909,2.38783 13.30363,3.58174 4.26399,1.02336 8.52797,2.04672 12.79196,3.07007 3.83131,-0.24154 7.5035,0.75068 11.25692,0 1.36447,0 2.72895,0 4.09342,0 4.94622,0 9.89245,0 14.83867,0 4.43454,-1.02335 8.86909,-2.04671 13.30363,-3.07007 4.94622,-1.02335 9.89245,-2.04671 14.83867,-3.07007 2.21727,-1.19391 4.43454,-2.38783 6.65182,-3.58174 1.19391,-0.34112 2.38783,-0.68224 3.58174,-1.02336 0.8528,-0.51168 1.7056,-1.02336 2.55839,-1.53503 1.36448,-0.51168 2.72271,-1.02102 4.09343,-1.53504 9.13762,-8.61117 12.47588,-11.75711 21.20204,-19.98052 17.53031,-10.64481 15.92952,-18.51009 21.13933,-37.58328 0.25584,-6.90767 0.51168,-13.81531 0.76751,-20.72296 -0.0853,-1.96143 -0.16959,-3.90071 -0.25583,-5.8843 -1.8111,-8.49494 -3.58174,-16.80009 -5.37262,-25.20016 -2.04672,-5.45791 -4.09342,-10.91577 -6.14014,-16.3737 -1.62032,-2.9848 -3.24062,-5.96956 -4.86094,-8.95436 -5.03153,-6.35337 -10.21231,-12.8952 -15.09451,-19.06001 -2.21728,-3.07009 -4.43453,-6.14013 -6.65182,-9.21021 -6.99296,-4.51985 -11.78819,-7.6192 -20.97881,-13.55948 -5.96199,-2.10962 -8.21309,-2.90616 -16.62953,-5.88429 -9.2581,-0.38845 -11.76931,-0.49382 -18.2925,-0.76752 z"
         inkscape:label="Outline"
         sodipodi:nodetypes="ccccccccccccccccccccccccsccccccccccccccccccc" />
      <path
         style="display:inline;fill:#379c41;stroke:none;stroke-width:2.601"
         d="m 447.88897,155.80601 c -2.55839,-2.81423 -3.41118,-2.30256 -4.09342,-1.96144 -0.68224,0.34112 -1.19392,0.51168 -1.79088,0.93808 -0.59695,0.4264 -1.27919,1.10864 -2.50477,2.33421 -1.22557,1.22558 -2.83542,2.83544 -3.70443,4.04556 -0.86901,1.21012 -1.89237,2.91572 -4.43476,7.37868 -2.5424,4.46295 -0.62676,1.05738 -2.02697,3.84039 -1.40022,2.78301 -1.74133,3.97693 -2.904,6.84155 -1.16266,2.86462 -1.18227,2.90945 -2.22708,5.65088 -1.0448,2.74142 -1.55648,4.61757 -2.40928,6.74956 -0.85279,2.13199 -2.04671,4.51983 -2.64366,6.90766 -0.59696,2.38783 -0.59696,4.77566 -0.68224,6.39597 -0.0853,1.62032 -0.25584,2.47312 -0.0887,3.15197 0.16718,0.67886 0.29971,0.81139 1.26018,1.34547 0.96047,0.53407 2.4955,1.2163 4.62749,1.6427 2.132,0.4264 4.86095,0.59696 7.76046,0.76752 2.89951,0.17056 5.96958,0.34112 9.29549,-0.4264 3.3259,-0.76751 6.90765,-2.47311 9.04623,-3.67361 2.13857,-1.2005 2.76272,-1.82465 3.04102,-2.44407 0.2783,-0.61942 0.10774,-1.13109 0.0225,-1.72805 -0.0853,-0.59696 -0.0853,-1.2792 -0.25584,-2.21727 -0.17056,-0.93808 -0.51167,-2.132 -0.76901,-3.50996 -0.25734,-1.37796 -0.42257,-2.86504 -0.42373,-4.32528 -0.001,-1.46025 0.16939,-2.82473 0.33995,-4.6156 0.17056,-1.79087 0.34112,-4.00815 0.51168,-5.79902 0.17056,-1.79087 0.34111,-3.15535 0.76751,-4.26398 0.4264,-1.10864 1.10864,-1.96144 2.04672,-3.07007 0.93807,-1.10863 2.13199,-2.47311 2.72894,-3.32591 0.59696,-0.8528 0.59696,-1.19392 -1.53503,-4.43455 -2.13199,-3.24062 -6.39598,-9.38076 -8.95437,-12.19499 z"
         id="path2"
         inkscape:path-effect="#path-effect2"
         inkscape:original-d="m 446.18338,152.4801 c -0.8528,0.51168 -1.70559,1.02336 -2.55839,1.53503 -0.51168,0.17056 -1.02336,0.34112 -1.53504,0.51168 -0.68223,0.68224 -1.36447,1.36448 -2.04671,2.04672 -2.35859,1.17923 -3.23584,3.52169 -4.09342,4.09342 -1.02336,1.70559 -2.04672,3.41119 -3.07007,5.11678 -5.24407,6.55509 -1.56924,4.13906 -4.60511,8.18685 -0.34112,1.19392 -0.68223,2.38784 -1.02335,3.58175 -2.78886,4.18329 -1.36392,4.86012 -3.58175,8.18685 -0.51168,1.87616 -1.02336,3.75231 -1.53504,5.62846 -1.19391,2.38783 -2.38783,4.77567 -3.58174,7.1635 0,2.38783 0,4.77566 0,7.16349 -0.17056,0.8528 -0.34112,1.7056 -0.51168,2.55839 0.80093,0.20891 0.77963,0.49528 1.02336,1.02336 1.53503,0.68224 3.07006,1.36447 4.6051,2.04671 2.72895,0.17056 5.4579,0.34112 8.18685,0.51168 3.07007,0.17056 6.14014,0.34112 9.21021,0.51168 3.58174,-1.7056 7.16349,-3.41119 10.74524,-5.11678 0.34352,-1.04729 1.17412,-1.46499 2.04671,-2.04672 -0.17056,-0.51168 -0.34112,-1.02335 -0.51168,-1.53503 0,-0.68224 0,-1.36448 0,-2.04671 -0.34111,-1.19392 -0.68223,-2.38784 -1.02335,-3.58175 0.16653,-1.5998 -0.12851,-3.07245 -0.51168,-4.60511 0.17056,-1.36447 0.34112,-2.72895 0.51168,-4.09342 0.17056,-2.21727 0.34112,-4.43455 0.51168,-6.65182 0.17056,-1.36447 0.34111,-2.72895 0.51167,-4.09342 0.68224,-0.8528 1.36448,-1.7056 2.04672,-2.55839 1.19391,-1.36447 2.38783,-2.72895 3.58174,-4.09343 0,-0.34112 0,-0.68224 0,-1.02336 -4.26398,-6.14013 -8.52797,-12.28027 -12.79195,-18.42041 z"
         sodipodi:nodetypes="cccccccccccccccccccccccccccccc"
         inkscape:label="Stem color" />
      <path
         style="display:inline;fill:none;stroke:#000000;stroke-width:2.601;stroke-opacity:1"
         d="m 447.88897,155.80601 c -2.55839,-2.81423 -3.41118,-2.30256 -4.09342,-1.96144 -0.68224,0.34112 -1.19392,0.51168 -1.79088,0.93808 -0.59695,0.4264 -1.27919,1.10864 -2.50477,2.33421 -1.22557,1.22558 -2.83542,2.83544 -3.70443,4.04556 -0.86901,1.21012 -1.89237,2.91572 -4.43476,7.37868 -2.5424,4.46295 -0.62676,1.05738 -2.02697,3.84039 -1.40022,2.78301 -1.74133,3.97693 -2.904,6.84155 -1.16266,2.86462 -1.18227,2.90945 -2.22708,5.65088 -1.0448,2.74142 -1.55648,4.61757 -2.40928,6.74956 -0.85279,2.13199 -2.04671,4.51983 -2.64366,6.90766 -0.59696,2.38783 -0.59696,4.77566 -0.68224,6.39597 -0.0853,1.62032 -0.25584,2.47312 -0.0887,3.15197 0.16718,0.67886 0.29971,0.81139 1.26018,1.34547 0.96047,0.53407 2.4955,1.2163 4.62749,1.6427 2.132,0.4264 4.86095,0.59696 7.76046,0.76752 2.89951,0.17056 5.96958,0.34112 9.29549,-0.4264 3.3259,-0.76751 6.90765,-2.47311 9.04623,-3.67361 2.13857,-1.2005 2.76272,-1.82465 3.04102,-2.44407 0.2783,-0.61942 0.10774,-1.13109 0.0225,-1.72805 -0.0853,-0.59696 -0.0853,-1.2792 -0.25584,-2.21727 -0.17056,-0.93808 -0.51167,-2.132 -0.76901,-3.50996 -0.25734,-1.37796 -0.42257,-2.86504 -0.42373,-4.32528 -0.001,-1.46025 0.16939,-2.82473 0.33995,-4.6156 0.17056,-1.79087 0.34112,-4.00815 0.51168,-5.79902 0.17056,-1.79087 0.34111,-3.15535 0.76751,-4.26398 0.4264,-1.10864 1.10864,-1.96144 2.04672,-3.07007 0.93807,-1.10863 2.13199,-2.47311 2.72894,-3.32591 0.59696,-0.8528 0.59696,-1.19392 -1.53503,-4.43455 -2.13199,-3.24062 -6.39598,-9.38076 -8.95437,-12.19499 z"
         id="path13"
         inkscape:path-effect="#path-effect15"
         inkscape:original-d="m 446.18338,152.4801 c -0.8528,0.51168 -1.70559,1.02336 -2.55839,1.53503 -0.51168,0.17056 -1.02336,0.34112 -1.53504,0.51168 -0.68223,0.68224 -1.36447,1.36448 -2.04671,2.04672 -2.35859,1.17923 -3.23584,3.52169 -4.09342,4.09342 -1.02336,1.70559 -2.04672,3.41119 -3.07007,5.11678 -5.24407,6.55509 -1.56924,4.13906 -4.60511,8.18685 -0.34112,1.19392 -0.68223,2.38784 -1.02335,3.58175 -2.78886,4.18329 -1.36392,4.86012 -3.58175,8.18685 -0.51168,1.87616 -1.02336,3.75231 -1.53504,5.62846 -1.19391,2.38783 -2.38783,4.77567 -3.58174,7.1635 0,2.38783 0,4.77566 0,7.16349 -0.17056,0.8528 -0.34112,1.7056 -0.51168,2.55839 0.80093,0.20891 0.77963,0.49528 1.02336,1.02336 1.53503,0.68224 3.07006,1.36447 4.6051,2.04671 2.72895,0.17056 5.4579,0.34112 8.18685,0.51168 3.07007,0.17056 6.14014,0.34112 9.21021,0.51168 3.58174,-1.7056 7.16349,-3.41119 10.74524,-5.11678 0.34352,-1.04729 1.17412,-1.46499 2.04671,-2.04672 -0.17056,-0.51168 -0.34112,-1.02335 -0.51168,-1.53503 0,-0.68224 0,-1.36448 0,-2.04671 -0.34111,-1.19392 -0.68223,-2.38784 -1.02335,-3.58175 0.16653,-1.5998 -0.12851,-3.07245 -0.51168,-4.60511 0.17056,-1.36447 0.34112,-2.72895 0.51168,-4.09342 0.17056,-2.21727 0.34112,-4.43455 0.51168,-6.65182 0.17056,-1.36447 0.34111,-2.72895 0.51167,-4.09342 0.68224,-0.8528 1.36448,-1.7056 2.04672,-2.55839 1.19391,-1.36447 2.38783,-2.72895 3.58174,-4.09343 0,-0.34112 0,-0.68224 0,-1.02336 -4.26398,-6.14013 -8.52797,-12.28027 -12.79195,-18.42041 z"
         sodipodi:nodetypes="cccccccccccccccccccccccccccccc"
         inkscape:label="Stem outline" />
      <path
         style="display:inline;fill:none;stroke:#000000;stroke-width:0.6;stroke-dasharray:none;stroke-opacity:1"
         d="m 415.72097,208.04139 c -1.80905,-0.48241 -3.61811,-0.96483 -5.00505,-1.26634 -1.38694,-0.3015 -2.35177,-0.42211 -3.55781,-0.48241 -1.20604,-0.0603 -2.65328,-0.0603 -5.00506,-0.1206 -2.35177,-0.0603 -5.60807,-0.18091 -9.34678,0.0603 -3.73872,0.24121 -7.95985,0.84422 -12.36189,1.56785 -4.40203,0.72362 -8.98497,1.56784 -13.56791,3.07539 -4.58294,1.50755 -9.16587,3.67841 -14.42191,7.33012 -5.25605,3.6517 -11.18516,8.78422 -16.58098,15.24721 -5.39582,6.463 -8.68345,11.7323 -10.314,14.27899 -1.63055,2.54669 -1.98615,2.92097 -2.44403,3.85073 -0.45788,0.92977 -1.07485,2.47505 -1.69173,4.02013"
         id="path7"
         inkscape:path-effect="#path-effect7"
         inkscape:original-d="m 415.72097,208.04139 c 0,0 -3.61811,-0.96483 -5.42716,-1.44724 -0.96483,-0.12061 -1.92966,-0.24121 -2.89449,-0.36181 -1.44725,0 -2.89449,0 -4.34174,0 -3.2563,-0.12061 -6.5126,-0.24121 -9.7689,-0.36181 -4.22113,0.60301 -8.44226,1.20603 -12.66339,1.80905 -4.58294,0.84423 -9.16588,1.68845 -13.74882,2.53268 -4.58294,2.17087 -9.16587,4.34173 -13.74882,6.5126 -5.92914,5.13254 -11.85825,10.26506 -17.78738,15.3976 -3.75185,8.48641 -8.15014,13.06275 -11.16881,17.90096 -0.24243,0.25517 -0.59803,0.62945 -0.89699,0.94411 -0.6168,1.54487 -1.85065,4.63523 -1.85065,4.63523"
         sodipodi:nodetypes="cccccccccccc" />
      <path
         style="display:inline;fill:none;stroke:#000000;stroke-width:0.6;stroke-dasharray:none;stroke-opacity:1"
         d="m 404.14302,222.87565 c -1.56785,1.92966 -3.1357,3.85932 -4.10053,5.18596 -0.96483,1.32664 -1.32664,2.05026 -2.23117,3.67841 -0.90452,1.62815 -2.35177,4.16083 -3.5623,6.27927 -1.21054,2.11844 -2.16386,3.78674 -3.06964,5.598 -0.90579,1.81125 -1.75001,3.74091 -3.13696,7.11782 -1.38694,3.3769 -3.3166,8.20105 -4.52264,11.27644 -1.20603,3.07539 -1.68845,4.40204 -2.16834,6.67648 -0.47989,2.27443 -0.96889,5.57515 -1.26963,8.28356 -0.30074,2.7084 -0.42135,4.87927 -0.60225,6.56772 -0.18091,1.68845 -0.42211,2.89449 -0.66373,4.46562 -0.24162,1.57114 -0.47982,3.47677 -0.60152,5.11365 -0.12169,1.63688 -0.12169,2.96352 -0.2423,4.41076 -0.1206,1.44725 -0.36181,3.01509 -0.42211,5.06536 -0.0603,2.05026 0.0603,4.58294 0.12061,6.7538 0.0603,2.17087 0.0603,3.97993 0.0603,6.04869 0,2.06877 0,4.30401 0,6.8463 0,2.54229 0,5.31617 -0.0603,7.18553 -0.0603,1.86936 -0.18091,2.83419 -0.30152,3.79902"
         id="path8"
         inkscape:path-effect="#path-effect8"
         inkscape:original-d="m 404.14302,222.87565 c 0,0 -3.1357,3.85932 -4.70355,5.78898 -0.36181,0.72362 -0.72362,1.44724 -1.08543,2.17086 -1.44725,2.53268 -2.89449,5.06536 -4.34173,7.59804 -0.81236,1.79647 -1.71554,3.49342 -2.89449,5.06535 -0.84423,1.92966 -1.68846,3.85932 -2.53268,5.78898 -1.92966,4.82415 -3.85932,9.6483 -5.78898,14.47244 -0.48241,1.32664 -0.96483,2.65329 -1.44724,3.97993 -0.0699,3.2826 -0.88483,6.53503 -1.44725,9.7689 -0.1206,2.17086 -0.24121,4.34173 -0.36181,6.5126 -0.24121,1.20603 -0.48241,2.41207 -0.72362,3.61811 0.18831,1.99002 -0.29605,3.86488 -0.72362,5.78898 0,1.32664 0,2.65328 0,3.97992 -0.24121,1.56785 -0.48242,3.13569 -0.72363,4.70354 0.12061,2.53268 0.24121,5.06536 0.36182,7.59804 0,1.80905 0,3.61811 0,5.42716 0.36581,2.32848 0.33009,4.56372 0,6.87441 0,2.77389 0,5.54777 0,8.32166 -0.12061,0.96483 -0.24121,1.92966 -0.36182,2.89449"
         sodipodi:nodetypes="ccccccccccccccccccc"
         transform="matrix(0.99943445,0,0,1.1364787,4.5665491,-30.637032)" />
      <path
         style="display:inline;fill:none;stroke:#000000;stroke-width:0.6;stroke-dasharray:none;stroke-opacity:1"
         d="m 439.60051,220.52388 c 0.60301,3.25629 1.20603,6.51259 1.74875,8.98497 0.54272,2.47238 1.02513,4.16083 1.32664,5.48747 0.30151,1.32665 0.42212,2.29146 0.60302,3.07539 0.18091,0.78393 0.42211,1.38694 0.84422,3.67842 0.42212,2.29148 1.02513,6.27139 1.44725,12.33173 0.42211,6.06035 0.66332,14.20108 1.08543,20.74383 0.42212,6.54275 1.02513,11.48751 1.56785,15.88954 0.54272,4.40204 1.02513,8.26136 1.26634,12.12067 0.24121,3.85932 0.24121,7.71864 0.12061,10.79404 -0.12061,3.07539 -0.36181,5.36686 -0.42212,9.8292 -0.0603,4.46233 0.0603,11.09554 0,15.37697 -0.0603,4.28143 -0.30151,6.21109 -0.54272,8.14075"
         id="path9"
         inkscape:path-effect="#path-effect9"
         inkscape:original-d="m 439.60051,220.52388 c 0.60302,3.25629 1.20603,6.51259 1.80905,9.7689 0.48242,1.68845 0.96483,3.3769 1.44725,5.06536 0.1206,0.96483 0.24121,1.92964 0.36181,2.89448 0.24121,0.60302 0.48241,1.20603 0.72362,1.80906 0.60302,3.97993 1.20603,7.95984 1.80905,11.93977 0.24121,8.14076 0.48242,16.28149 0.72363,24.42224 0.60302,4.94475 1.20603,9.88951 1.80905,14.83426 0.48242,3.85932 0.96483,7.71864 1.44725,11.57795 0,3.85932 0,7.71864 0,11.57796 -0.24121,2.29147 -0.48242,4.58294 -0.72362,6.87441 0.1206,6.6332 0.2412,13.26641 0.36181,19.89961 -0.24121,1.92966 -0.48242,3.85932 -0.72363,5.78898"
         transform="translate(10.492522,0.72362223)"
         sodipodi:nodetypes="ccccccccccccc" />
      <path
         style="display:inline;fill:none;stroke:#000000;stroke-width:0.6;stroke-dasharray:none;stroke-opacity:1"
         d="m 455.08501,225.88741 c 2.73734,-0.94074 5.47468,-1.88148 9.28593,0.75226 3.81125,2.63373 8.69639,8.84195 12.40531,14.05662 3.70891,5.21467 6.24159,9.4358 8.29186,12.873 2.05026,3.43721 3.6181,6.09049 5.06535,8.92467 1.44724,2.83419 2.77388,5.84928 4.22112,9.6483 1.44725,3.79902 3.0151,8.38196 4.16084,11.45735 1.14573,3.0754 1.86936,4.64325 2.89449,8.80407 1.02513,4.16083 2.35177,10.91464 2.95479,15.37698 0.60302,4.46233 0.48241,6.6332 0.30151,8.20105 -0.18091,1.56785 -0.42212,2.53268 -0.54272,3.0754 -0.12061,0.54271 -0.12061,0.66331 -0.0603,0.3015 0.0603,-0.36181 0.18091,-1.20604 0.30152,-2.05026"
         id="path10"
         inkscape:path-effect="#path-effect10"
         inkscape:original-d="m 455.08501,225.88741 c 2.73734,-0.94074 5.47468,-1.88148 8.21203,-2.82222 4.88515,6.20821 9.77029,12.41643 14.65544,18.62464 2.53268,4.22113 5.06536,8.44226 7.59804,12.66338 1.56785,2.65329 3.13569,5.30657 4.70354,7.95985 1.32664,3.01509 2.65328,6.03018 3.97992,9.04528 1.56785,4.58294 3.1357,9.16588 4.70355,13.74882 0.72362,1.56785 1.44724,3.1357 2.17087,4.70354 1.32664,6.75381 2.65328,13.50762 3.97992,20.26143 -0.12061,2.17086 -0.24121,4.34173 -0.36181,6.5126 -0.24121,0.96483 -0.48242,1.92966 -0.72363,2.89449 0,0.1206 0,0.2412 0,0.36181 0.12061,-0.84423 0.24121,-1.68846 0.36182,-2.53268"
         transform="translate(11.577956,-10.492522)"
         sodipodi:nodetypes="ccccccccccccc" />
      <path
         style="display:inline;fill:none;stroke:#000000;stroke-width:0.6;stroke-dasharray:none;stroke-opacity:1"
         d="m 459.13831,215.27761 c 1.80905,-2.53267 3.61811,-5.06535 5.00505,-6.5126 1.38694,-1.44724 2.35177,-1.80905 3.61811,-2.23116 1.26634,-0.42212 2.83419,-0.90453 3.91962,-1.26634 1.08544,-0.36182 1.68845,-0.60302 4.82415,-0.30151 3.1357,0.30151 8.80407,1.14573 13.44731,2.17087 4.64325,1.02513 8.26136,2.23116 11.87947,3.4372"
         id="path11"
         inkscape:path-effect="#path-effect11"
         inkscape:original-d="m 459.13831,215.27761 c 1.80905,-2.53267 3.61811,-5.06535 5.42716,-7.59803 0.96483,-0.36181 1.92966,-0.72362 2.89449,-1.08543 1.56785,-0.48242 3.1357,-0.96483 4.70355,-1.44725 0.60302,-0.2412 1.20603,-0.48241 1.80905,-0.72362 5.66838,0.84423 11.33675,1.68845 17.00512,2.53268 3.61812,1.20604 10.85434,3.61811 10.85434,3.61811"
         transform="translate(1.0854333,-10.492522)"
         sodipodi:nodetypes="ccccccc" />
      <g
         id="g19"
         style="display:inline"
         inkscape:label="Can't decide whether to keep these" />
    </g>
  </g>
</svg>
