<?xml version="1.0" encoding="UTF-8" standalone="no"?>
<!-- Created with Inkscape (http://www.inkscape.org/) -->

<svg
   version="1.1"
   id="svg1"
   width="793.59998"
   height="559.35999"
   viewBox="0 0 793.59998 559.35999"
   sodipodi:docname="Rosemary.svg"
   inkscape:version="1.4 (86a8ad7, 2024-10-11)"
   xmlns:inkscape="http://www.inkscape.org/namespaces/inkscape"
   xmlns:sodipodi="http://sodipodi.sourceforge.net/DTD/sodipodi-0.dtd"
   xmlns="http://www.w3.org/2000/svg"
   xmlns:svg="http://www.w3.org/2000/svg">
  <defs
     id="defs1">
    <inkscape:path-effect
       effect="bspline"
       id="path-effect38"
       is_visible="true"
       lpeversion="1.3"
       weight="33.333333"
       steps="2"
       helper_size="0"
       apply_no_weight="true"
       apply_with_weight="true"
       only_selected="false"
       uniform="false" />
    <inkscape:path-effect
       effect="bspline"
       id="path-effect36"
       is_visible="true"
       lpeversion="1.3"
       weight="33.333333"
       steps="2"
       helper_size="0"
       apply_no_weight="true"
       apply_with_weight="true"
       only_selected="false"
       uniform="false" />
    <inkscape:path-effect
       effect="bspline"
       id="path-effect35"
       is_visible="true"
       lpeversion="1.3"
       weight="33.333333"
       steps="2"
       helper_size="0"
       apply_no_weight="true"
       apply_with_weight="true"
       only_selected="false"
       uniform="false" />
    <inkscape:path-effect
       effect="bspline"
       id="path-effect34"
       is_visible="true"
       lpeversion="1.3"
       weight="33.333333"
       steps="2"
       helper_size="0"
       apply_no_weight="true"
       apply_with_weight="true"
       only_selected="false"
       uniform="false" />
    <inkscape:path-effect
       effect="bspline"
       id="path-effect33"
       is_visible="true"
       lpeversion="1.3"
       weight="33.333333"
       steps="2"
       helper_size="0"
       apply_no_weight="true"
       apply_with_weight="true"
       only_selected="false"
       uniform="false" />
    <inkscape:path-effect
       effect="bspline"
       id="path-effect32"
       is_visible="true"
       lpeversion="1.3"
       weight="33.333333"
       steps="2"
       helper_size="0"
       apply_no_weight="true"
       apply_with_weight="true"
       only_selected="false"
       uniform="false" />
    <inkscape:path-effect
       effect="bspline"
       id="path-effect31"
       is_visible="true"
       lpeversion="1.3"
       weight="33.333333"
       steps="2"
       helper_size="0"
       apply_no_weight="true"
       apply_with_weight="true"
       only_selected="false"
       uniform="false" />
    <inkscape:path-effect
       effect="bspline"
       id="path-effect30"
       is_visible="true"
       lpeversion="1.3"
       weight="33.333333"
       steps="2"
       helper_size="0"
       apply_no_weight="true"
       apply_with_weight="true"
       only_selected="false"
       uniform="false" />
    <inkscape:path-effect
       effect="bspline"
       id="path-effect29"
       is_visible="true"
       lpeversion="1.3"
       weight="33.333333"
       steps="2"
       helper_size="0"
       apply_no_weight="true"
       apply_with_weight="true"
       only_selected="false"
       uniform="false" />
    <inkscape:path-effect
       effect="bspline"
       id="path-effect28"
       is_visible="true"
       lpeversion="1.3"
       weight="33.333333"
       steps="2"
       helper_size="0"
       apply_no_weight="true"
       apply_with_weight="true"
       only_selected="false"
       uniform="false" />
    <inkscape:path-effect
       effect="bspline"
       id="path-effect27"
       is_visible="true"
       lpeversion="1.3"
       weight="33.333333"
       steps="2"
       helper_size="0"
       apply_no_weight="true"
       apply_with_weight="true"
       only_selected="false"
       uniform="false" />
    <inkscape:path-effect
       effect="bspline"
       id="path-effect26"
       is_visible="true"
       lpeversion="1.3"
       weight="33.333333"
       steps="2"
       helper_size="0"
       apply_no_weight="true"
       apply_with_weight="true"
       only_selected="false"
       uniform="false" />
    <inkscape:path-effect
       effect="bspline"
       id="path-effect25"
       is_visible="true"
       lpeversion="1.3"
       weight="33.333333"
       steps="2"
       helper_size="0"
       apply_no_weight="true"
       apply_with_weight="true"
       only_selected="false"
       uniform="false" />
    <inkscape:path-effect
       effect="bspline"
       id="path-effect24"
       is_visible="true"
       lpeversion="1.3"
       weight="33.333333"
       steps="2"
       helper_size="0"
       apply_no_weight="true"
       apply_with_weight="true"
       only_selected="false"
       uniform="false" />
    <inkscape:path-effect
       effect="bspline"
       id="path-effect18"
       is_visible="true"
       lpeversion="1.3"
       weight="33.333333"
       steps="2"
       helper_size="0"
       apply_no_weight="true"
       apply_with_weight="true"
       only_selected="false"
       uniform="false" />
    <inkscape:path-effect
       effect="bspline"
       id="path-effect17"
       is_visible="true"
       lpeversion="1.3"
       weight="33.333333"
       steps="2"
       helper_size="0"
       apply_no_weight="true"
       apply_with_weight="true"
       only_selected="false"
       uniform="false" />
    <inkscape:path-effect
       effect="bspline"
       id="path-effect16"
       is_visible="true"
       lpeversion="1.3"
       weight="33.333333"
       steps="2"
       helper_size="0"
       apply_no_weight="true"
       apply_with_weight="true"
       only_selected="false"
       uniform="false" />
    <inkscape:path-effect
       effect="bspline"
       id="path-effect15"
       is_visible="true"
       lpeversion="1.3"
       weight="33.333333"
       steps="2"
       helper_size="0"
       apply_no_weight="true"
       apply_with_weight="true"
       only_selected="false"
       uniform="false" />
    <inkscape:path-effect
       effect="bspline"
       id="path-effect13"
       is_visible="true"
       lpeversion="1.3"
       weight="33.333333"
       steps="2"
       helper_size="0"
       apply_no_weight="true"
       apply_with_weight="true"
       only_selected="false"
       uniform="false" />
    <inkscape:path-effect
       effect="bspline"
       id="path-effect12"
       is_visible="true"
       lpeversion="1.3"
       weight="33.333333"
       steps="2"
       helper_size="0"
       apply_no_weight="true"
       apply_with_weight="true"
       only_selected="false"
       uniform="false" />
    <inkscape:path-effect
       effect="bspline"
       id="path-effect11"
       is_visible="true"
       lpeversion="1.3"
       weight="33.333333"
       steps="2"
       helper_size="0"
       apply_no_weight="true"
       apply_with_weight="true"
       only_selected="false"
       uniform="false" />
    <inkscape:path-effect
       effect="bspline"
       id="path-effect10"
       is_visible="true"
       lpeversion="1.3"
       weight="33.333333"
       steps="2"
       helper_size="0"
       apply_no_weight="true"
       apply_with_weight="true"
       only_selected="false"
       uniform="false" />
    <inkscape:path-effect
       effect="bspline"
       id="path-effect9"
       is_visible="true"
       lpeversion="1.3"
       weight="33.333333"
       steps="2"
       helper_size="0"
       apply_no_weight="true"
       apply_with_weight="true"
       only_selected="false"
       uniform="false" />
    <inkscape:path-effect
       effect="bspline"
       id="path-effect8"
       is_visible="true"
       lpeversion="1.3"
       weight="33.333333"
       steps="2"
       helper_size="0"
       apply_no_weight="true"
       apply_with_weight="true"
       only_selected="false"
       uniform="false" />
    <inkscape:path-effect
       effect="bspline"
       id="path-effect7"
       is_visible="true"
       lpeversion="1.3"
       weight="33.333333"
       steps="2"
       helper_size="0"
       apply_no_weight="true"
       apply_with_weight="true"
       only_selected="false"
       uniform="false" />
    <inkscape:path-effect
       effect="bspline"
       id="path-effect6"
       is_visible="true"
       lpeversion="1.3"
       weight="33.333333"
       steps="2"
       helper_size="0"
       apply_no_weight="true"
       apply_with_weight="true"
       only_selected="false"
       uniform="false" />
    <inkscape:path-effect
       effect="bspline"
       id="path-effect5"
       is_visible="true"
       lpeversion="1.3"
       weight="33.333333"
       steps="2"
       helper_size="0"
       apply_no_weight="true"
       apply_with_weight="true"
       only_selected="false"
       uniform="false" />
    <inkscape:path-effect
       effect="bspline"
       id="path-effect4"
       is_visible="true"
       lpeversion="1.3"
       weight="33.333333"
       steps="2"
       helper_size="0"
       apply_no_weight="true"
       apply_with_weight="true"
       only_selected="false"
       uniform="false" />
    <inkscape:path-effect
       effect="bspline"
       id="path-effect3"
       is_visible="true"
       lpeversion="1.3"
       weight="33.333333"
       steps="2"
       helper_size="0"
       apply_no_weight="true"
       apply_with_weight="true"
       only_selected="false"
       uniform="false" />
    <inkscape:path-effect
       effect="bspline"
       id="path-effect2"
       is_visible="true"
       lpeversion="1.3"
       weight="33.333333"
       steps="2"
       helper_size="0"
       apply_no_weight="true"
       apply_with_weight="true"
       only_selected="false"
       uniform="false" />
    <inkscape:path-effect
       effect="bspline"
       id="path-effect1"
       is_visible="true"
       lpeversion="1.3"
       weight="33.333333"
       steps="2"
       helper_size="0"
       apply_no_weight="true"
       apply_with_weight="true"
       only_selected="false"
       uniform="false" />
  </defs>
  <sodipodi:namedview
     id="namedview1"
     pagecolor="#ffffff"
     bordercolor="#111111"
     borderopacity="1"
     inkscape:showpageshadow="0"
     inkscape:pageopacity="0"
     inkscape:pagecheckerboard="1"
     inkscape:deskcolor="#d1d1d1"
     inkscape:zoom="0.69096827"
     inkscape:cx="221.4284"
     inkscape:cy="371.2182"
     inkscape:window-width="1920"
     inkscape:window-height="991"
     inkscape:window-x="-9"
     inkscape:window-y="-9"
     inkscape:window-maximized="1"
     inkscape:current-layer="g1" />
  <g
     inkscape:groupmode="layer"
     inkscape:label="Image"
     id="g1">
    <g
       id="g38"
       transform="matrix(2.2403071,0,0,1.8384088,-382.90841,-249.06145)">
      <path
         style="fill:#53b65c;fill-opacity:0.980392;stroke:none;stroke-width:1.8;stroke-opacity:1"
         d="m 371.3205,432.27645 c -1.37717,0.77386 -2.40053,1.4561 -4.70308,1.71193 -2.30255,0.25584 -5.8843,0.0853 -8.53163,-0.42823 -2.64734,-0.51351 -4.31445,-1.34707 -6.71239,-2.50682 -2.39794,-1.15974 -6.09828,-2.91503 -8.7734,-4.85093 -2.67512,-1.9359 -4.80711,-4.28109 -7.83454,-6.47705 -3.02744,-2.19595 -6.9503,-4.24266 -9.95641,-5.56449 -3.00611,-1.32184 -5.09137,-1.91763 -8.42378,-2.34487 -3.33242,-0.42723 -7.87986,-0.68223 -11.35806,-0.55448 -3.4782,0.12775 -5.86603,0.63943 -7.74218,0.80999 -1.87616,0.17056 -3.24063,0 -4.00815,-0.25584 -0.76752,-0.25584 -0.93807,-0.59696 0.59696,-1.96143 1.53503,-1.36448 4.77566,-3.75231 7.50461,-5.0315 2.72895,-1.2792 4.94622,-1.44976 6.48126,-1.79088 1.53503,-0.34111 2.38783,-0.85279 3.83759,-1.53503 1.44975,-0.68224 3.49646,-1.53503 5.20206,-2.04671 1.70559,-0.51168 3.07007,-0.68224 3.92286,-0.8528 0.8528,-0.17056 1.19392,-0.34112 1.53504,-0.4264 0.34112,-0.0853 0.68224,-0.0853 0,-1.10863 -0.68224,-1.02336 -2.38784,-3.07008 -4.69039,-5.79903 -2.30255,-2.72895 -5.20206,-6.14013 -7.50461,-8.69852 -2.30256,-2.5584 -4.00815,-4.26399 -5.20206,-5.71374 -1.19392,-1.44976 -1.87616,-2.64368 -2.55839,-4.17871 -0.68224,-1.53503 -1.36448,-3.41119 -1.2792,-4.51982 0.0853,-1.10864 0.93808,-1.44976 1.96144,-1.44976 1.02335,0 2.21727,0.34112 3.24062,0.59696 1.02336,0.25584 1.87616,0.4264 2.98479,0.8528 1.10864,0.42639 2.47312,1.10863 3.66703,1.62031 1.19392,0.51168 2.21727,0.8528 3.32591,1.36448 1.10864,0.51168 2.30255,1.19391 3.3259,1.62031 1.02336,0.4264 1.87616,0.59696 3.32591,1.19392 1.44976,0.59695 3.49647,1.62031 5.96958,3.3259 2.47312,1.7056 5.37263,4.09343 7.1635,5.4579 1.79087,1.36448 2.47311,1.7056 2.98479,2.04672 0.51168,0.34112 0.85279,0.68224 1.53503,1.10863 0.68224,0.4264 1.7056,0.93808 2.30256,1.36448 0.59695,0.4264 0.76751,0.76752 1.36447,1.36448 0.59696,0.59695 1.62031,1.44975 2.55839,2.21727 0.93808,0.76752 1.79088,1.44976 2.30255,1.87615 0.51168,0.4264 0.68224,0.59696 0.0853,-0.93807 -0.59696,-1.53504 -1.96143,-4.77567 -3.08745,-7.61637 -1.12601,-2.8407 -1.35512,-3.47074 -1.90542,-5.77292 -0.55031,-2.30218 -0.72087,-4.3489 -1.14727,-6.48089 -0.4264,-2.13199 -1.10863,-4.34926 -1.62031,-6.22541 -0.51168,-1.87616 -0.8528,-3.41119 -1.2792,-4.51983 -0.4264,-1.10864 -0.93807,-1.79087 -2.4731,-3.24063 -1.53504,-1.44975 -4.09343,-3.66702 -5.62846,-5.11678 -1.53504,-1.44975 -2.04672,-2.13199 -2.89952,-2.81423 -0.85279,-0.68224 -2.04671,-1.36447 -2.8995,-1.96143 -0.8528,-0.59696 -1.36448,-1.10864 -2.132,-1.62032 -0.76752,-0.51168 -1.79087,-1.02335 -2.89951,-1.79087 -1.10863,-0.76751 -2.30255,-1.79087 -3.66703,-2.89951 -1.36447,-1.10864 -2.8995,-2.30255 -3.66702,-3.24063 -0.76752,-0.93808 -0.76752,-1.62031 -0.51168,-2.13199 0.25584,-0.51168 0.76752,-0.8528 1.62032,-1.2792 0.85279,-0.4264 2.04671,-0.93807 5.62845,-0.59695 3.58175,0.34112 9.55133,1.53503 13.47419,2.81423 3.92287,1.27919 5.79903,2.64367 6.90767,3.41118 1.10863,0.76752 1.44975,0.93808 1.70559,1.10864 0.25583,0.17056 0.42639,0.34112 -10e-6,-1.44975 -0.4264,-1.79088 -1.44975,-5.54319 -1.96143,-7.93102 -0.51168,-2.38783 -0.51168,-3.41119 -1.24792,-5.54259 -0.73624,-2.1314 -2.96891,-7.04327 -3.93056,-8.93719 -0.96166,-1.89392 -1.47334,-2.57616 -3.69061,-4.28175 -2.21727,-1.7056 -6.14013,-4.43455 -9.6366,-6.90766 -3.49647,-2.47311 -6.56654,-4.69038 -9.89245,-6.99293 -3.3259,-2.30255 -6.90765,-4.69039 -9.38076,-6.3107 -2.47311,-1.62031 -3.83759,-2.47311 -5.96958,-4.09343 -2.13199,-1.62031 -5.0315,-4.00814 -6.82238,-5.71373 -1.79087,-1.7056 -2.47311,-2.72896 -2.38783,-3.32591 0.0853,-0.59696 0.93808,-0.76752 1.79087,-0.8528 0.8528,-0.0853 1.7056,-0.0853 4.94623,0.8528 3.24063,0.93807 8.86909,2.81423 13.90059,4.51982 5.0315,1.70559 9.46604,3.24062 12.62139,4.34926 3.15535,1.10864 5.0315,1.79088 6.48126,2.38784 1.44975,0.59695 2.47311,1.10863 2.10477,-0.57157 -0.36834,-1.68021 -2.09045,-5.46884 -4.39119,-11.32164 -2.30075,-5.8528 -3.75781,-9.83544 -7.34487,-15.13162 -3.58706,-5.29617 -7.50993,-7.00177 -10.1536,-8.19569 -2.64367,-1.19391 -4.00815,-1.87615 -6.82238,-2.98479 -2.81423,-1.10863 -7.07821,-2.64367 -10.14828,-3.66702 -3.07007,-1.02336 -4.94622,-1.53504 -6.69159,-1.61148 -1.74536,-0.0764 -3.14244,0.23402 -4.45084,0.58163 -1.30841,0.34761 -2.33176,0.68873 -3.18456,0.51817 -0.8528,-0.17056 -1.53503,-0.8528 -2.47311,-2.21728 -0.93808,-1.36447 -2.13199,-3.41118 -0.59696,-5.11678 1.53504,-1.70559 5.79902,-3.07007 8.35741,-3.83758 2.55839,-0.76752 3.41119,-0.93808 6.7371,-0.8528 3.32591,0.0853 9.12493,0.4264 13.79595,0.93439 4.67101,0.50799 8.48226,1.23394 10.51886,1.64217 2.03661,0.40823 2.71885,0.57879 2.88941,0.15239 0.17056,-0.4264 -0.17056,-1.44975 -0.34112,-2.47311 -0.17056,-1.02336 -0.17056,-2.04671 -0.93826,-5.288 -0.7677,-3.24128 -2.30207,-8.69682 -3.32557,-11.85269 -1.02351,-3.15588 -1.53519,-4.00868 -3.24078,-6.82291 -1.70559,-2.81423 -4.6051,-7.58989 -7.50461,-12.28027 -2.89951,-4.69039 -5.79902,-9.29549 -7.5899,-11.93916 -1.79087,-2.64367 -2.47311,-3.32591 -3.66703,-4.86094 -1.19391,-1.53504 -2.8995,-3.92287 -4.09342,-5.4579 -1.19392,-1.53504 -1.87616,-2.21727 -2.47311,-3.15535 -0.59696,-0.93808 -1.10864,-2.132 -1.53504,-3.07007 -0.4264,-0.93808 -0.76752,-1.62032 -1.10863,-2.13199 -0.34112,-0.51168 -0.68224,-0.8528 -0.8528,-3.02857 -0.17056,-2.17578 -0.17056,-6.27921 0.34112,-8.36242 0.51168,-2.08321 1.53503,-2.08321 2.89951,-1.65681 1.36448,0.4264 3.07007,1.2792 5.03151,2.38783 1.96143,1.10864 4.1787,2.47311 5.45821,2.98448 1.2795,0.51137 1.51107,0.2798 1.65082,-1.13914 0.13974,-1.41894 -0.0308,-3.80677 -0.19925,-6.49736 -0.16843,-2.69058 -0.35722,-6.08876 -0.26495,-7.92451 0.0923,-1.83574 0.43338,-2.68853 0.94506,-3.62661 0.51168,-0.93808 1.19391,-1.96143 1.86877,-2.39776 0.67485,-0.43634 1.25125,-0.30621 2.86591,1.22251 1.61467,1.52872 4.2477,4.47442 5.81137,6.1081 1.56366,1.63369 2.07534,1.97481 2.92814,2.91288 0.85279,0.93808 2.04671,2.47311 2.72895,2.30256 0.68224,-0.17056 0.85279,-2.04672 1.19391,-3.66703 0.34112,-1.62032 0.8528,-2.98479 1.3198,-3.87819 0.467,-0.8934 1.02284,-1.44924 2.0688,-1.72768 1.04595,-0.27843 2.58098,-0.27843 3.94546,0.4038 1.36447,0.68224 2.55839,2.04672 3.41119,3.24063 0.85279,1.19392 1.36447,2.21728 2.12797,4.50575 0.76349,2.28847 1.81371,5.96423 2.99822,10.02473 1.1845,4.0605 2.54898,8.6656 3.57233,12.07679 1.02336,3.41119 1.7056,5.62846 2.132,7.1635 0.4264,1.53503 0.59695,2.38783 0.68223,2.98479 0.0853,0.59695 0.0853,0.93807 0.25584,0.51167 0.17056,-0.4264 0.51168,-1.62031 1.44976,-3.66703 0.93807,-2.04671 2.47311,-4.94622 4.73941,-5.97965 2.2663,-1.03342 5.37525,-0.16983 7.01238,0.4318 1.63712,0.60163 1.80768,0.94275 1.89296,1.96611 0.0853,1.02335 0.0853,2.72895 -0.25584,4.34927 -0.34112,1.62031 -1.02335,3.15534 -1.44955,5.19911 -0.42621,2.04377 -0.5972,4.60859 -0.9383,7.50783 -0.3411,2.89924 -0.85278,6.13987 -1.1939,9.20993 -0.34112,3.07007 -0.51167,5.96958 -0.85279,8.69853 -0.34112,2.72896 -0.8528,5.28735 -1.19392,6.90766 -0.34112,1.62031 -0.51168,2.30255 -0.17056,2.13199 0.34112,-0.17056 1.19391,-1.19391 3.24063,-2.98479 2.04671,-1.79087 5.28734,-4.34926 7.5899,-6.22541 2.30255,-1.87616 3.66702,-3.07007 5.20205,-3.58175 1.53504,-0.51168 3.24063,-0.34112 4.2643,-0.085 1.02367,0.25615 1.25524,0.48773 1.7361,1.13915 0.48086,0.65141 0.99254,1.50421 0.82198,3.03925 -0.17056,1.53503 -1.02335,3.7523 -2.13199,6.14013 -1.10864,2.38783 -2.47311,4.94622 -4.1787,7.67517 -1.7056,2.72895 -3.75231,5.62846 -4.94623,7.41933 -1.19392,1.79088 -1.53503,2.47312 -1.79087,2.89952 -0.25584,0.4264 -0.4264,0.59696 0.17056,0.34112 0.59695,-0.25584 1.96143,-0.93808 4.43454,-2.30256 2.47311,-1.36447 6.05486,-3.41119 8.44269,-4.69038 2.38783,-1.27919 3.58175,-1.79087 4.79855,-2.15403 1.2168,-0.36316 1.81376,-0.46652 2.58976,-0.45212 0.776,0.0144 1.46235,0.18953 2.18907,0.36914 0.72673,0.1796 1.19812,0.29145 2.12107,0.88047 0.92295,0.58903 2.11686,1.61238 2.96966,2.29462 0.8528,0.68224 1.36447,1.02335 0.42639,2.21727 -0.93807,1.19392 -3.3259,3.24063 -6.22541,5.28734 -2.89951,2.04671 -6.3107,4.09343 -9.12493,5.71374 -2.81423,1.62032 -5.0315,2.81423 -7.67517,4.77567 -2.64367,1.96143 -5.71374,4.69038 -8.01629,6.65181 -2.30255,1.96143 -3.83759,3.15535 -4.84972,4.56771 -1.01214,1.41236 -1.55135,3.20972 -1.71937,4.39515 -0.16801,1.18543 0.003,1.86766 0.25839,2.46462 0.25584,0.59696 0.59696,1.10864 0.8528,2.04671 0.25584,0.93808 0.42639,2.30256 0.76751,3.49648 0.34112,1.19391 0.8528,2.21726 1.10864,3.07006 0.25584,0.8528 0.25584,1.53503 0.59696,2.55839 0.34112,1.02336 1.02335,2.38783 3.06474,2.02539 2.04139,-0.36244 5.44187,-2.45176 7.398,-3.83757 1.95612,-1.38581 2.46779,-2.06804 4.00283,-2.83556 1.53503,-0.76752 4.09343,-1.62032 6.22542,-1.51372 2.13199,0.1066 3.83757,1.17258 4.43987,2.72895 0.60229,1.55636 0.10127,3.60306 -0.3198,5.1381 -0.42107,1.53504 -0.76219,2.5584 -2.46779,3.75231 -1.70559,1.19392 -4.77565,2.55839 -7.16348,3.49647 -2.38784,0.93808 -4.09343,1.44975 -5.99681,2.14333 -1.90337,0.69358 -3.88333,1.51856 -4.91284,2.45921 -1.02951,0.94064 -1.02951,1.964 -0.77367,2.98735 0.25584,1.02336 0.76752,2.04672 1.44975,4.09343 0.68224,2.04671 1.53503,5.11678 2.11008,7.1721 0.57506,2.05532 0.96865,3.43291 1.64656,6.06141 0.67791,2.62851 1.70126,6.72194 2.21294,8.93921 0.51168,2.21727 0.51168,2.55839 1.02336,2.64367 0.51167,0.0853 1.53503,-0.0853 3.7523,-1.27919 2.21727,-1.19392 5.62846,-3.41119 7.76045,-4.51983 2.132,-1.10864 2.98479,-1.10864 3.49647,-0.59696 0.51168,0.51168 0.68224,1.53504 0.99867,2.04671 0.31643,0.51168 0.40032,0.51168 1.26637,-0.15724 0.86604,-0.66893 1.85005,-2.44014 2.69202,-3.69984 0.84197,-1.2597 1.69476,-2.28305 3.3262,-3.27675 1.63144,-0.99369 3.33417,-1.67479 5.79759,-2.38726 2.46342,-0.71247 3.82788,-0.71247 4.42484,-0.11551 0.59696,0.59696 0.42641,1.79087 -0.68223,4.00815 -1.10864,2.21727 -3.15535,5.4579 -4.69038,7.84573 -1.53504,2.38783 -2.55839,3.92286 -3.75231,5.54318 -1.19392,1.62031 -2.55839,3.32591 -4.09343,5.20206 -1.53503,1.87615 -3.24063,3.92287 -4.34926,5.4579 -1.10863,1.53503 -1.62031,2.55839 -2.30255,3.75231 -0.68224,1.19391 -1.53504,2.55839 -2.21727,4.09343 -0.68224,1.53503 -1.19392,3.24062 -1.36448,4.94621 -0.17056,1.7056 0,3.41119 0.1658,6.51847 0.1658,3.10729 0.3658,8.7073 0.36335,11.95685 -0.002,3.24956 -0.51786,10.80896 -0.86462,17.48674 -0.34677,6.67779 -0.17621,7.36003 0.33547,6.93363 0.51168,-0.4264 1.36448,-1.96143 2.47311,-3.41119 1.10864,-1.44975 2.47311,-2.81422 3.77363,-5.17465 1.30052,-2.36042 2.44969,-5.4796 3.13298,-7.52916 0.68329,-2.04957 0.85384,-2.90237 1.36552,-4.43741 0.51168,-1.53503 1.36447,-3.7523 2.30255,-5.79902 0.93808,-2.04671 1.96144,-3.92286 2.89951,-5.79902 0.93808,-1.87615 1.79088,-3.7523 2.64367,-5.0315 0.8528,-1.27919 1.7056,-1.96143 3.58175,-3.41118 1.87615,-1.44976 4.77566,-3.66703 6.65182,-4.94622 1.87615,-1.2792 2.72895,-1.62032 4.00814,-2.47312 1.2792,-0.85279 2.98479,-2.21726 4.09343,-3.07006 1.10864,-0.8528 1.62031,-1.19392 1.87615,-1.7056 0.25584,-0.51168 0.25584,-1.19392 1.32884,-3.68104 1.073,-2.48712 1.01053,-2.36217 2.27132,-3.51927 1.26079,-1.1571 2.79582,-1.49822 4.07501,-1.49822 1.2792,0 2.30256,0.34112 3.41119,0.8528 1.10864,0.51168 2.30256,1.19392 2.98479,2.04671 0.68224,0.8528 0.8528,1.87615 0.68224,4.09343 -0.17056,2.21727 -0.68224,5.62846 -1.2792,8.01629 -0.59696,2.38783 -1.27919,3.7523 -1.96143,4.86094 -0.68224,1.10864 -1.36447,1.96143 -2.81423,4.6051 -1.44975,2.64367 -3.66703,7.07822 -5.0315,9.55133 -1.36448,2.47311 -1.87615,2.98479 -3.15535,5.62846 -1.27919,2.64367 -3.3259,7.41933 -4.6051,10.31884 -1.27919,2.89951 -1.79087,3.92287 -2.72895,6.3107 -0.93807,2.38783 -2.30255,6.14014 -3.24063,8.95437 -0.93808,2.81423 -1.44975,4.69038 -2.29924,6.98538 -0.84949,2.29499 -2.04706,5.03228 -3.10388,7.27426 -1.05682,2.24198 -1.8863,3.82378 -3.10048,5.41156 -1.21418,1.58777 -2.46322,2.69348 -3.93011,4.17517 -1.46688,1.4817 -3.17247,3.35785 -4.19577,4.38118 -1.02329,1.02333 -9.18488,5.10412 -10.56205,5.87799 z"
         id="path11"
         inkscape:path-effect="#path-effect11"
         inkscape:original-d="m 370.96669,432.36807 c -1.02336,0.68224 -2.04672,1.36447 -3.07007,2.04671 -3.58175,-0.17056 -7.1635,-0.34112 -10.74525,-0.51168 -1.779,-0.7243 -3.44683,-1.55642 -5.11678,-2.55839 -3.46623,-0.59291 -6.82564,-3.06692 -9.97772,-4.73302 -2.13199,-2.34519 -4.26398,-4.69038 -6.39598,-7.03558 -3.92287,-2.04671 -7.84573,-4.09342 -11.7686,-6.14013 -2.08935,-0.59696 -4.17461,-1.19275 -6.26805,-1.79088 -4.57139,-0.25634 -9.11883,-0.51134 -13.6874,-0.76752 -2.38783,0.51168 -4.77566,1.02336 -7.16349,1.53504 -1.36448,-0.17056 -2.72895,-0.34112 -4.09343,-0.51168 -0.17056,-0.34112 -0.34112,-0.68224 -0.51167,-1.02336 3.24062,-2.38783 6.48125,-4.77566 9.72188,-7.16349 2.21727,-0.17056 4.43454,-0.34112 6.65182,-0.51168 0.85279,-0.51168 1.70559,-1.02335 2.55839,-1.53503 2.04671,-0.8528 4.09342,-1.7056 6.14014,-2.55839 1.36447,-0.17056 2.72895,-0.34112 4.09342,-0.51168 0.34112,-0.17056 0.68224,-0.34112 1.02336,-0.51168 0.34112,0 0.68224,0 1.02335,0 -1.70559,-2.04671 -3.41118,-4.09343 -5.11678,-6.14014 -2.89951,-3.41119 -5.79902,-6.82237 -8.69853,-10.23356 -1.70559,-1.7056 -3.41118,-3.41119 -5.11678,-5.11678 -0.68224,-1.19392 -1.36447,-2.38784 -2.04671,-3.58175 -0.68224,-1.87615 -1.36448,-3.75231 -2.04671,-5.62846 0.85279,-0.34112 1.70559,-0.68224 2.55839,-1.02336 1.19391,0.34112 2.38783,0.68224 3.58174,1.02336 0.8528,0.17056 1.7056,0.34112 2.5584,0.51168 1.36447,0.68223 2.72895,1.36447 4.09342,2.04671 1.02336,0.34112 2.04671,0.68224 3.07007,1.02336 1.19392,0.68223 2.38783,1.36447 3.58175,2.04671 0.85279,0.17056 1.70559,0.34112 2.55839,0.51168 2.04671,1.02335 4.09342,2.04671 6.14014,3.07007 2.89951,2.38783 5.79902,4.77566 8.69853,7.16349 0.68223,0.34112 1.36447,0.68224 2.04671,1.02336 0.34112,0.34112 0.68224,0.68223 1.02335,1.02335 1.02336,0.51168 2.04672,1.02336 3.07007,1.53504 0.17056,0.34112 0.34112,0.68224 0.51168,1.02335 1.02336,0.8528 2.04671,1.7056 3.07007,2.5584 0.8528,0.68223 1.7056,1.36447 2.55839,2.04671 0.17056,0.17056 0.34112,0.34112 0.51168,0.51168 -1.36447,-3.24063 -2.72895,-6.48126 -4.09343,-9.72189 -1.62847,-2.17134 -2.04671,-2.73261 -2.04671,-5.62846 -0.17056,-2.04671 -0.34112,-4.09343 -0.51168,-6.14014 -0.68223,-2.21727 -1.36447,-4.43454 -2.04671,-6.65181 -0.34112,-1.53504 -0.68224,-3.07007 -1.02336,-4.60511 -0.51167,-0.68224 -1.02335,-1.36447 -1.53503,-2.04671 -2.55839,-2.21727 -5.11678,-4.43454 -7.67517,-6.65182 -0.51168,-0.68223 -1.02336,-1.36447 -1.53504,-2.04671 -1.19391,-0.68224 -2.38783,-1.36447 -3.58174,-2.04671 -0.51168,-0.51168 -1.02336,-1.02336 -1.53504,-1.53504 -1.02336,-0.51168 -2.04671,-1.02335 -3.07007,-1.53503 -1.19391,-1.02336 -2.38783,-2.04671 -3.58175,-3.07007 -1.53503,-1.19392 -3.07006,-2.38783 -4.6051,-3.58175 0,-0.68224 0,-1.36447 0,-2.04671 0.51168,-0.34112 1.02336,-0.68224 1.53504,-1.02336 1.19391,-0.51168 2.38783,-1.02335 3.58174,-1.53503 5.96958,1.19391 11.93916,2.38783 17.90874,3.58175 1.87615,1.36447 3.75231,2.72895 5.62846,4.09342 0.34112,0.17056 0.68224,0.34112 1.02336,0.51168 0.17055,0.17056 0.34111,0.34112 0.51167,0.51168 -1.02335,-3.75231 -2.04671,-7.50462 -3.07007,-11.25692 0,-1.02336 0,-2.04672 0,-3.07007 0.21673,-4.00727 -5.11678,-7.50967 -5.11678,-11.25692 -0.51168,-0.68224 -1.02335,-1.36448 -1.53503,-2.04671 -3.92287,-2.72896 -7.84573,-5.45791 -11.7686,-8.18686 -3.07007,-2.21727 -6.14014,-4.43454 -9.21021,-6.65181 -3.58174,-2.38783 -7.16349,-4.77567 -10.74524,-7.1635 -1.36447,-0.85279 -2.72895,-1.70559 -4.09342,-2.55839 -2.89951,-2.38783 -5.79902,-4.77566 -8.69853,-7.16349 -0.68224,-1.02336 -1.36448,-2.04672 -2.04672,-3.07007 0.8528,-0.17056 1.7056,-0.34112 2.55839,-0.51168 0.8528,0 1.7056,0 2.5584,0 5.62846,1.87615 11.25692,3.75231 16.88538,5.62846 4.43454,1.53503 8.86908,3.07007 13.30363,4.6051 1.87615,0.68224 3.7523,1.36448 5.62846,2.04672 1.02335,0.51168 2.04671,1.02335 3.07007,1.53503 -1.99277,-3.7663 -5.11678,-6.91771 -5.11678,-11.25692 -2.83718,-8.15684 -4.27775,-12.14552 -7.67518,-20.9788 -3.92286,-1.7056 -7.84573,-3.41119 -11.7686,-5.11679 -1.36447,-0.68223 -2.72895,-1.36447 -4.09342,-2.04671 -4.26399,-1.53503 -8.52797,-3.07007 -12.79196,-4.6051 -1.87615,-0.51168 -3.7523,-1.02336 -5.62846,-1.53504 -1.51027,0.82816 -2.93296,1.02336 -4.6051,1.02336 -1.02336,0.34112 -2.04671,0.68224 -3.07007,1.02336 -0.68224,-0.68224 -1.36447,-1.36448 -2.04671,-2.04672 -1.19392,-2.04671 -2.38783,-4.09342 -3.58175,-6.14014 4.26399,-1.36447 8.52797,-2.72895 12.79196,-4.09342 0.85279,-0.17056 1.70559,-0.34112 2.55839,-0.51168 5.79902,0.34112 11.59804,0.68224 17.39706,1.02336 3.72964,-0.30494 7.23123,2.04671 10.74524,2.04671 0.68223,0.17056 1.36447,0.34112 2.04671,0.51168 -0.34112,-1.02336 -0.68224,-2.04671 -1.02336,-3.07007 0,-1.02336 0,-2.04671 0,-3.07007 -1.34999,-5.51136 -2.94417,-10.95007 -4.6051,-16.3737 -0.51168,-0.8528 -1.02336,-1.7056 -1.53503,-2.55839 -2.89951,-4.77567 -5.79902,-9.55133 -8.69853,-14.32699 -2.89951,-4.60511 -5.79902,-9.21021 -8.69853,-13.81531 -0.68224,-0.68224 -1.36448,-1.36448 -2.04672,-2.04672 -1.70559,-2.38783 -3.41118,-4.77566 -5.11678,-7.16349 -0.68224,-0.68224 -1.36447,-1.36448 -2.04671,-2.04671 -0.51168,-1.19392 -1.02336,-2.38784 -1.53504,-3.58175 -0.34111,-0.68224 -0.68223,-1.36448 -1.02335,-2.04671 -0.34112,-0.34112 -0.68224,-0.68224 -1.02336,-1.02336 -0.64631,-4.01043 -0.21929,-8.11386 0,-12.28028 1.02336,0 2.04671,0 3.07007,0 1.7056,0.8528 3.41119,1.7056 5.11678,2.55839 2.21728,1.36448 4.43455,2.72895 6.65182,4.09343 -0.005,-0.68849 0.4233,-0.72333 1.02336,-1.02336 -0.17056,-2.38783 -0.34112,-4.77566 -0.51168,-7.16349 -0.4241,-2.97902 0.86381,-6.45924 -0.51168,-9.21021 0.34112,-0.8528 0.68224,-1.70559 1.02336,-2.55839 0.68223,-1.02336 1.36447,-2.04671 2.04671,-3.07007 0.66747,0.15069 1.24387,0.28082 1.8658,0.42123 2.34705,3.14974 5.18492,5.91235 7.85608,8.78898 0.51168,0.34112 1.02336,0.68224 1.53504,1.02336 1.19391,1.53503 2.38783,3.07006 3.58175,4.6051 0.17056,-1.87615 0.34111,-3.75231 0.51167,-5.62846 0.51168,-1.36448 1.02336,-2.72895 1.53504,-4.09343 0.83444,-0.0102 1.08954,-0.86679 1.53503,-1.53503 1.53504,0 3.07007,0 4.60511,0 1.19391,1.36447 2.38783,2.72895 3.58174,4.09342 0.51168,1.02336 1.02336,2.04672 1.53504,3.07007 0.9762,3.56476 2.7926,7.02162 3.07007,10.74525 1.36447,4.6051 2.72895,9.2102 4.09342,13.81531 0.68224,2.21727 1.36448,4.43454 2.04672,6.65181 0.17056,0.8528 0.34112,1.7056 0.51167,2.55839 0,0.34112 0,0.68224 0,1.02336 0.34112,-1.19392 0.68224,-2.38783 1.02336,-3.58175 1.53504,-2.89951 3.07007,-5.79902 4.6051,-8.69853 2.9978,0.83184 6.13028,1.61072 9.21021,2.55839 0.17056,0.34112 0.34112,0.68224 0.51168,1.02336 0,1.70559 0,3.41119 0,5.11678 -0.68224,1.53504 -1.36447,3.07007 -2.04671,4.60511 0.0584,2.56774 -0.27952,5.12143 -0.51168,7.67517 -0.51168,3.24063 -1.02336,6.48126 -1.53504,9.72188 -0.17055,2.89951 -0.34111,5.79902 -0.51167,8.69853 -0.51168,2.5584 -1.02336,5.11679 -1.53504,7.67518 -0.17056,0.68223 -0.34112,1.36447 -0.51168,2.04671 0.8528,-1.02336 1.7056,-2.04671 2.55839,-3.07007 3.24063,-2.55839 6.48126,-5.11678 9.72189,-7.67517 1.36448,-1.19392 2.72895,-2.38783 4.09343,-3.58175 1.70559,0.17056 3.41118,0.34112 5.11678,0.51168 -0.005,0.68848 0.4233,0.72333 1.02335,1.02336 0.51168,0.85279 1.02336,1.70559 1.53504,2.55839 -0.8528,2.21727 -1.7056,4.43454 -2.55839,6.65181 -1.36448,2.55839 -2.72895,5.11678 -4.09343,7.67518 -2.04671,2.8995 -4.09342,5.79901 -6.14014,8.69852 -0.34111,0.68224 -0.68223,1.36448 -1.02335,2.04672 -0.17056,0.17056 -0.34112,0.34112 -0.51168,0.51168 1.36447,-0.68224 2.72895,-1.36448 4.09342,-2.04672 3.58175,-2.04671 7.1635,-4.09342 10.74525,-6.14014 1.19391,-0.51167 2.38783,-1.02335 3.58174,-1.53503 1.23969,-0.21464 1.83665,-0.318 2.69407,-0.46645 0.69458,0.17724 1.38093,0.35238 2.1824,0.5569 0.65198,0.15469 1.12337,0.26654 1.77535,0.42123 1.19392,1.02335 2.38783,2.04671 3.58175,3.07007 0.51168,0.34112 1.02335,0.68223 1.53503,1.02335 -2.38783,2.04672 -4.77566,4.09343 -7.16349,6.14014 -3.41119,2.04671 -6.82238,4.09343 -10.23357,6.14014 -2.21727,1.19392 -4.43454,2.38783 -6.65181,3.58175 -3.07007,2.72895 -6.14014,5.4579 -9.21021,8.18685 -1.53503,1.19391 -3.07007,2.38783 -4.6051,3.58175 0.0284,1.78609 -0.91461,3.46231 -1.53504,5.11678 0.17056,0.68224 0.34112,1.36447 0.51168,2.04671 0.34112,0.51168 0.68224,1.02336 1.02336,1.53503 0.17056,1.36448 0.34112,2.72896 0.51167,4.09343 0.51168,1.02336 1.02336,2.04671 1.53504,3.07007 0,0.68224 0,1.36447 0,2.04671 0.68224,1.36448 1.36447,2.72895 2.04671,4.09343 3.40054,-2.08936 6.80102,-4.17869 10.20159,-6.26806 0.51168,-0.68224 1.02335,-1.36447 1.53503,-2.04671 2.55839,-0.8528 5.11679,-1.7056 7.67518,-2.5584 1.70559,1.066 3.41117,2.13199 5.11678,3.19799 -0.50103,2.04672 -1.00204,4.09342 -1.50306,6.14014 -0.34112,1.02336 -0.68224,2.04672 -1.02336,3.07007 -3.07007,1.36448 -6.14013,2.72895 -9.2102,4.09343 -1.7056,0.51168 -3.41119,1.02335 -5.11679,1.53503 -2.21553,0.60098 -4.26098,1.26878 -6.14013,2.55839 0,1.02336 0,2.04672 0,3.07007 0.51167,1.02336 1.02335,2.04672 1.53503,3.07007 0.8528,3.07007 1.7056,6.14014 2.55839,9.21021 0.91729,0.86343 0.82313,2.38038 1.02336,3.58175 1.02335,4.09342 2.04671,8.18685 3.07007,12.28027 0,0.34112 0,0.68224 0,1.02336 1.02335,-0.17056 2.04671,-0.34112 3.07007,-0.51168 3.41118,-2.21727 6.82237,-4.43454 10.23356,-6.65182 0.8528,0 1.70559,0 2.55839,0 0.17056,1.02336 0.34112,2.04672 0.51168,3.07007 0.4623,2.84451 0.54619,2.47216 1.53503,0 -0.0539,-1.78071 1.55726,-3.20351 2.5584,-4.6051 0.85279,-1.02336 1.70559,-2.04671 2.55839,-3.07007 1.55342,-3.10568 3.70177,-2.67273 7.67517,-3.07007 1.36448,0 2.72894,0 4.09342,0 -0.17056,1.19392 -0.34111,2.38783 -0.51167,3.58175 -2.04672,3.24063 -4.09343,6.48126 -6.14014,9.72188 -1.02336,1.53504 -2.04671,3.07007 -3.07007,4.60511 -1.36448,1.70559 -2.72895,3.41119 -4.09343,5.11678 -1.70559,2.04671 -3.41118,4.09343 -5.11678,6.14014 -0.51168,1.02335 -1.02336,2.04671 -1.53503,3.07007 -0.8528,1.36447 -1.7056,2.72895 -2.55839,4.09342 -0.51168,1.7056 -1.02336,3.41119 -1.53504,5.11678 0.17056,1.7056 0.34112,3.41119 0.51168,5.11679 0.8576,4.48409 -1.56297,10.17769 0.51168,14.32699 -1.10811,2.21615 -1.53504,9.78158 -1.53504,22.51384 0.17056,0.68223 0.34112,1.36447 0.51168,2.04671 0.8528,-1.53504 1.7056,-3.07007 2.55839,-4.6051 1.36448,-1.36448 2.72895,-2.72896 4.09343,-4.09343 1.77408,-3.15833 1.60844,-6.76192 3.58175,-9.72189 0.17055,-0.85279 0.34111,-1.70559 0.51167,-2.55839 0.8528,-2.21727 1.7056,-4.43454 2.55839,-6.65181 1.02336,-1.87616 2.04672,-3.75231 3.07007,-5.62846 0.8528,-1.87616 1.7056,-3.75231 2.55839,-5.62846 0.8528,-0.68224 1.7056,-1.36448 2.5584,-2.04672 2.8995,-2.21727 5.79901,-4.43454 8.69852,-6.65181 0.8528,-0.34112 1.7056,-0.68224 2.5584,-1.02336 1.70559,-1.36447 3.41118,-2.72895 5.11678,-4.09342 0.51168,-0.34112 1.02335,-0.68224 1.53503,-1.02336 0,-0.68224 0,-1.36448 0,-2.04671 2.146,-4.29201 1.83689,-4.29038 3.07007,-6.14014 1.53504,-0.34112 3.07007,-0.68224 4.6051,-1.02336 1.02336,0.34112 2.04672,0.68224 3.07007,1.02336 1.19392,0.68224 2.38784,1.36447 3.58175,2.04671 0.17056,1.02336 0.34112,2.04671 0.51168,3.07007 -0.51168,3.41119 -1.02336,6.82238 -1.53504,10.23356 -0.68223,1.36448 -1.36447,2.72895 -2.04671,4.09343 -0.68224,0.8528 -1.36447,1.70559 -2.04671,2.55839 -2.21727,4.43454 -4.43455,8.86909 -6.65182,13.30363 -0.51168,0.51168 -1.02335,1.02336 -1.53503,1.53504 -2.04671,4.77566 -4.09342,9.55132 -6.14014,14.32699 -0.51167,1.02335 -1.02336,2.04671 -1.53503,3.07007 -1.36448,3.7523 -2.72896,7.50461 -4.09343,11.25692 -0.51168,1.87615 -1.02336,3.7523 -1.53503,5.62846 -1.72668,2.47785 -2.5592,5.37485 -3.58175,8.18685 -0.91676,1.74823 -1.74624,3.33003 -2.75027,5.2447 -1.42433,1.26088 -2.67337,2.36659 -3.90155,3.45383 -1.70559,1.87615 -3.41119,3.7523 -5.11678,5.62846 -0.28416,0.28416 -8.06984,5.11678 -10.23356,5.11678 z"
         sodipodi:nodetypes="ccccccccccccccccccccccccccccccccccccccccccccccccccccccccccccccccccccccccccccccccccccccccccccccccccccccccccccccccccccccccccccccccccccccccccccccccccccccccccccccccccccccccccccccccccccccccccccccccccccccccccccccccccccccccccccccccccccccccccccc"
         inkscape:label="Base color" />
      <path
         style="fill:#3ea247;fill-opacity:0.992157;stroke:none;stroke-width:1.8;stroke-opacity:1"
         d="m 418.6936,334.22237 c -1.1642,0.24461 -1.67588,1.60908 -2.27284,3.74107 -0.59696,2.132 -1.27919,5.0315 -2.21288,7.66639 -0.93369,2.6349 -2.12444,5.0164 -3.49489,7.50145 -1.37044,2.48506 -2.90547,5.04345 -4.31137,7.36002 -1.4059,2.31656 -3.11697,5.09704 -4.09616,6.5923 -0.9792,1.49525 -1.832,2.68917 -2.91207,4.8386 -1.08007,2.14942 -2.62916,5.82851 -3.50349,7.63856 -0.87434,1.81005 -1.38602,2.49229 -2.06826,3.94204 -0.68224,1.44976 -1.53503,3.66703 -2.47311,5.4579 -0.93808,1.79088 -1.96143,3.15535 -3.34541,5.58219 -1.38398,2.42684 -3.02962,5.71812 -4.22827,7.86389 -1.19866,2.14577 -1.84089,2.94856 -3.14582,5.45385 -1.30493,2.50528 -3.18109,6.5987 -3.9486,9.66877 -0.76752,3.07007 -0.4264,5.11678 0.44708,6.72246 0.87349,1.60568 2.27935,2.77034 4.15552,2.00281 1.87616,-0.76752 4.22259,-3.46719 6.00572,-5.3861 1.78312,-1.91892 0.56332,-0.78078 2.53146,-2.73073 1.96814,-1.94996 5.29349,-10.15947 7.84671,-16.90956 2.55321,-6.7501 5.92301,-15.96296 9.66764,-24.10136 3.74463,-8.13839 7.86406,-15.20225 10.39747,-19.71336 2.53342,-4.51111 3.48081,-6.46942 4.14058,-9.09136 0.65977,-2.62194 1.03192,-5.9075 1.25377,-8.11709 0.22184,-2.20959 0.29338,-3.3432 -0.57922,-4.34764 -0.8726,-1.00443 -2.68935,-1.87971 -3.85356,-1.6351 z"
         id="path24"
         inkscape:path-effect="#path-effect24"
         inkscape:original-d="m 418.04108,333.1025 c -0.51168,1.36448 -1.02336,2.72895 -1.53504,4.09343 -0.68223,2.89951 -1.36447,5.79901 -2.04671,8.69852 -1.42696,2.24937 -2.46521,4.70712 -3.58175,7.1635 -1.53503,2.55839 -3.07006,5.11678 -4.6051,7.67517 -0.77981,2.38056 -4.09342,4.17486 -4.09342,6.65182 -0.8528,1.19391 -1.7056,2.38783 -2.5584,3.58175 -0.90595,3.27394 -4.09342,6.26318 -4.09342,9.72188 -0.51168,0.68224 -1.02336,1.36448 -1.53504,2.04671 -0.85279,2.21728 -1.70559,4.43455 -2.55839,6.65182 -1.02335,1.36448 -2.04671,2.72895 -3.07007,4.09343 -1.08818,3.81741 -3.39024,6.78048 -5.11678,10.23356 -1.21587,0.40238 -1.50953,1.48403 -2.04671,2.55839 -1.87615,4.09343 -3.75231,8.18685 -5.62846,12.28028 0.34112,2.04671 0.68224,4.09342 1.02336,6.14014 1.40585,1.16464 2.81171,2.3293 4.21758,3.49395 2.34646,-2.6997 4.69289,-5.39937 7.03934,-8.09906 1.2198,-1.13814 0,0 3.78836,-3.53473 0.14792,-0.36518 3.47327,-8.57469 5.2099,-12.86202 3.3698,-9.21286 6.7396,-18.42572 10.10941,-27.63861 4.11945,-7.0639 8.23888,-14.12776 12.35833,-21.19167 0.94738,-1.95831 1.89477,-3.91662 2.84215,-5.87493 0.37216,-3.28557 0.74432,-6.57113 1.11647,-9.8567 0.0715,-1.13361 0.14307,-2.26722 0.2146,-3.40083 -1.81673,-0.87527 -3.63348,-1.75054 -5.45021,-2.6258 z"
         sodipodi:nodetypes="ccccccccccccccccccccccccc"
         inkscape:label="Shadow 1" />
      <path
         style="fill:#3ea247;fill-opacity:0.992157;stroke:none;stroke-width:1.8;stroke-opacity:1"
         d="m 407.27042,343.56648 c 0.5371,-0.0599 0.5371,0.62238 0.5371,0.62238 0,0 0,-0.68224 -0.0853,-0.34112 -0.0853,0.34112 -0.25584,1.7056 -0.73549,3.4132 -0.47965,1.70759 -1.42155,4.15654 -2.4748,6.3813 -1.05325,2.22477 -2.05066,4.01668 -3.19513,5.88945 -1.14447,1.87277 -1.52499,2.36493 -2.63393,3.65934 -1.10894,1.2944 -2.64397,2.99999 -3.83789,4.79086 -1.19391,1.79088 -2.04671,3.66703 -3.33181,6.58673 -1.2851,2.9197 -2.33304,5.33802 -4.66409,10.6756 -2.33105,5.33757 -3.23578,7.32798 -4.61288,9.31718 -1.3771,1.9892 -3.25325,4.03591 -4.36188,5.14454 -1.10863,1.10864 -1.44975,1.2792 -2.13199,1.10864 -0.68224,-0.17056 -1.7056,-0.68224 -2.90513,-1.26693 -1.19953,-0.58469 -2.57524,-1.24239 -3.11795,-2.10184 -0.54272,-0.85944 -0.73442,-0.15862 1.6083,-4.17483 2.34273,-4.01621 -0.0419,-0.84181 2.22503,-4.14309 2.26694,-3.30127 2.20427,-3.19631 3.6517,-4.98345 1.44742,-1.78715 2.98092,-3.35744 4.79097,-5.30779 1.81005,-1.95035 3.59688,-3.96841 5.15324,-5.78061 1.55636,-1.8122 2.81972,-3.3448 3.94906,-4.8908 1.12934,-1.54599 1.99818,-2.932 3.60115,-5.35719 1.60296,-2.42519 3.91249,-5.84558 5.67793,-8.94107 1.76545,-3.09548 3.08175,-6.08136 4.18211,-7.76003 1.10036,-1.67866 2.17456,-2.48061 2.71166,-2.54047 z"
         id="path25"
         inkscape:path-effect="#path-effect25"
         inkscape:original-d="m 407.80752,342.82439 c 0,0.68223 0,1.36447 0,2.04671 0,-0.68224 0,-1.36448 0,-2.04671 -0.17056,1.36447 -0.34112,2.72895 -0.51168,4.09342 -1.37221,1.82631 -1.82847,4.46204 -2.55839,6.65182 -1.27875,2.29738 -2.27616,4.08929 -3.83626,6.89213 -0.72884,0.9427 -1.10936,1.43486 -1.7922,2.31807 -1.53504,1.7056 -3.07007,3.41119 -4.60511,5.11679 -0.85279,1.87615 -1.70559,3.7523 -2.55839,5.62846 -3.28427,3.28427 -1.77264,6.81173 -6.65181,15.35034 -0.38351,1.88461 -1.72235,3.67769 -2.5584,5.62846 -1.87615,2.04672 -3.7523,4.09343 -5.62846,6.14014 -0.34111,0.17056 -0.68223,0.34112 -1.02335,0.51168 -1.02336,-0.51168 -2.04672,-1.02336 -3.07007,-1.53504 -1.37571,-0.6577 -2.75142,-1.3154 -4.12712,-1.9731 0.29027,-1.06119 0.0986,-0.36036 0.87082,-3.18358 3.9132,-5.20921 1.52856,-2.03481 4.41267,-5.87411 1.64977,-2.76325 1.5871,-2.65829 2.52414,-4.22777 1.95781,-2.00481 3.49131,-3.5751 5.27386,-5.40044 1.83755,-2.07536 3.62438,-4.09342 5.43658,-6.14014 1.30052,-1.57768 2.56388,-3.11028 3.90154,-4.73303 0.92102,-1.46924 1.78986,-2.85525 2.68631,-4.2853 2.30949,-3.42033 4.61901,-6.84072 6.9285,-10.26107 1.2214,-2.77062 2.5377,-5.7565 3.66421,-8.31188 1.07421,-0.80195 2.14841,-1.6039 3.22261,-2.40585 z"
         sodipodi:nodetypes="cccccccccccccsccccccccccc"
         inkscape:label="Shadow 2" />
      <path
         style="fill:#3ea247;fill-opacity:0.992157;stroke:none;stroke-width:1.8;stroke-opacity:1"
         d="m 366.95854,347.17365 c -0.59696,-0.25584 -0.59696,-0.25584 -0.68224,-1.79088 -0.0853,-1.53503 -0.2538,-4.56848 0.51901,-7.29947 0.77281,-2.731 2.4472,-5.02623 4.15613,-7.24784 1.70893,-2.22161 3.42436,-4.33132 5.55324,-6.48645 2.12888,-2.15512 4.69557,-4.37958 6.657,-5.65878 1.96144,-1.2792 3.32591,-1.62031 4.17871,-1.87615 0.8528,-0.25584 1.19391,-0.4264 1.81219,-0.36244 0.61828,0.064 1.51372,0.36244 1.47108,1.12995 -0.0426,0.76752 -1.02336,2.00408 -4.0188,6.05486 -2.99545,4.05078 -8.00564,10.9158 -11.11835,15.52091 -3.11272,4.60511 -4.32795,6.9503 -5.53252,7.86705 -1.20458,0.91676 -2.39849,0.40508 -2.99545,0.14924 z"
         id="path26"
         inkscape:path-effect="#path-effect26"
         inkscape:original-d="m 366.36158,346.91781 v 0 c -0.17056,-3.07007 -0.33908,-6.10352 -0.51167,-9.21021 1.71821,-2.3553 3.3926,-4.65053 5.09388,-6.98262 1.71658,-2.11113 3.43201,-4.22084 5.13968,-6.32101 2.55009,-2.21008 5.11678,-4.43454 7.67517,-6.65182 1.36448,-0.34111 2.72895,-0.68223 4.09343,-1.02335 0.34112,-0.17056 0.68223,-0.34112 1.02335,-0.51168 0.89544,0.29848 1.79088,0.59696 2.68631,0.89543 -0.98071,1.23656 -1.96143,2.47312 -2.94214,3.70968 -5.01018,6.865 -10.02037,13.73002 -15.03056,20.59504 -1.21523,2.3452 -2.43047,4.69039 -3.6457,7.03558 -1.19392,-0.51168 -2.38783,-1.02336 -3.58175,-1.53504 z"
         sodipodi:nodetypes="ccscccccccccc"
         inkscape:label="Shadow 3" />
      <path
         style="fill:#3ea247;fill-opacity:0.992157;stroke:none;stroke-width:1.8;stroke-opacity:1"
         d="m 364.14431,336.34313 c -0.34112,-1.19392 0.17056,-2.72895 0.85279,-4.00814 0.68224,-1.2792 1.53504,-2.30256 2.81424,-3.66703 1.27919,-1.36448 2.98478,-3.07007 3.92286,-4.09343 0.93808,-1.02336 1.10864,-1.36447 1.36448,-1.53503 0.25584,-0.17056 0.59696,-0.17056 0.85279,0.4264 0.25584,0.59695 0.4264,1.79087 0.4264,2.72894 0,0.93808 -0.17056,1.62032 -0.34112,2.04672 -0.17056,0.42639 -0.34112,0.59696 -0.51167,1.36447 -0.17056,0.76752 -0.34112,2.13199 -1.44975,3.83759 -1.10864,1.70559 -3.15536,3.75231 -4.77568,4.34927 -1.62031,0.59695 -2.81422,-0.25584 -3.15534,-1.44976 z"
         id="path27"
         inkscape:path-effect="#path-effect27"
         inkscape:original-d="m 363.29151,336.68425 c 0.51168,-1.53504 1.02336,-3.07007 1.53504,-4.60511 0.85279,-1.02335 1.70559,-2.04671 2.55839,-3.07007 1.70559,-1.70559 3.41119,-3.41118 5.11678,-5.11678 0.17056,-0.34112 0.34112,-0.68223 0.51168,-1.02335 0.34112,0 0.68224,0 1.02335,0 0.17056,1.19391 0.34112,2.38783 0.51168,3.58174 -0.17056,0.68224 -0.34112,1.36448 -0.51168,2.04672 -0.17055,0.17056 -0.34111,0.34112 -0.51167,0.51167 -0.17056,1.36448 -0.34112,2.72895 -0.51168,4.09343 -2.04671,2.04671 -4.09343,4.09343 -6.14014,6.14014 -1.19392,-0.8528 -2.38783,-1.7056 -3.58175,-2.55839 z"
         inkscape:label="Shadow 4" />
      <path
         style="fill:#3ea247;fill-opacity:0.992157;stroke:none;stroke-width:1.8;stroke-opacity:1"
         d="m 369.68749,279.10979 c -0.76752,0.2665 -0.76752,0.2665 -1.44976,0.60762 -0.68223,0.34112 -2.04671,1.02336 -3.41119,1.62031 -1.36447,0.59696 -2.72894,1.10864 -3.92285,1.79087 -1.19392,0.68224 -2.21728,1.53504 -3.07008,2.04672 -0.85279,0.51168 -1.53503,0.68224 -3.68834,1.81219 -2.15331,1.12996 -5.77769,3.21931 -6.72643,4.61577 -0.94874,1.39646 0.77817,2.10001 5.03149,0.81016 4.25332,-1.28985 11.03306,-4.57312 14.61373,-6.39224 3.58066,-1.81912 5.03258,-3.16975 5.94934,-4.02255 0.17056,-1.40711 0.34112,-2.81422 -0.34112,-3.25128 -0.68224,-0.43706 -2.21727,0.0959 -2.98479,0.36243 z"
         id="path28"
         inkscape:path-effect="#path-effect28"
         inkscape:original-d="m 368.91997,279.37629 v 0 c -1.36447,0.68224 -2.72895,1.36448 -4.09342,2.04671 -1.36448,0.51168 -2.72895,1.02336 -4.09343,1.53504 -1.02335,0.85279 -2.04671,1.70559 -3.07007,2.55839 -0.68223,0.17056 -1.36447,0.34112 -2.04671,0.51168 -3.62438,2.08935 -7.24876,4.1787 -10.87316,6.26806 1.72692,0.70356 3.45383,1.40711 5.18074,2.11067 6.77973,-3.28327 13.55947,-6.56654 20.33921,-9.8498 0.38159,-0.35497 2.75027,-2.5584 2.75027,-2.5584 0,0 0.34112,-2.81422 0.51168,-4.22134 -1.53504,0.533 -3.07007,1.06599 -4.60511,1.59899 z"
         sodipodi:nodetypes="cccccccccccc"
         inkscape:label="Shadow 5" />
      <path
         style="fill:#3ea247;fill-opacity:0.992157;stroke:none;stroke-width:1.8;stroke-opacity:1"
         d="m 343.63922,262.56536 c -1.37436,-0.3797 -2.55908,-3.73733 -0.88837,-7.02427 1.6707,-3.28693 6.12499,-6.45211 8.67496,-8.49726 2.54997,-2.04516 3.4678,-3.1637 4.32059,-4.10177 0.8528,-0.93808 1.63622,-1.69152 3.94613,-3.09577 2.3099,-1.40426 1.73623,-1.09751 7.60311,-4.03096 5.86689,-2.93344 5.5695,-2.80898 6.78759,-3.40995 1.21809,-0.60097 1.97097,-1.09846 3.09602,-1.22897 1.12504,-0.1305 2.62224,0.10597 3.55086,0.50547 0.92862,0.3995 1.28865,0.96202 0.49276,2.2597 -0.7959,1.29767 -2.74772,3.33048 -6.25542,5.74846 -3.5077,2.41798 -8.57127,5.22113 -13.34621,8.36924 -4.77494,3.14812 -9.48798,6.81775 -12.3551,9.70095 -2.86711,2.88321 -4.25257,5.18482 -5.62692,4.80513 z"
         id="path30"
         inkscape:path-effect="#path-effect30"
         inkscape:original-d="m 343.44957,265.54325 c -1.1847,-3.35759 -2.36943,-6.71522 -3.55415,-10.07286 4.6118,-3.09567 10.28116,-4.5509 13.16253,-9.35318 0.91783,-1.11854 1.83565,-2.23708 2.75349,-3.35562 0.78776,-0.75761 1.57118,-1.51105 2.36329,-2.27284 3.8277,-2.04672 3.25403,-1.73997 11.48305,-6.14014 3.50475,-1.46672 3.20736,-1.34226 4.89065,-2.04671 0.75289,-0.49749 1.50577,-0.99498 2.25866,-1.49247 1.4972,0.23648 2.9944,0.47295 4.4916,0.70943 0.36004,0.56252 0.72008,1.12504 1.08011,1.68757 -1.95183,2.03282 -3.90365,4.06563 -5.85547,6.09844 -5.06358,2.80315 -10.12715,5.6063 -15.19074,8.40945 -4.48629,3.49308 -9.19933,7.16271 -13.45883,10.47921 -1.47473,2.44991 -2.86019,4.75152 -4.42419,7.34972 z"
         sodipodi:nodetypes="cccccccccccccc"
         inkscape:label="Shadow 6" />
      <path
         style="fill:#3ea247;fill-opacity:0.992157;stroke:none;stroke-width:1.8;stroke-opacity:1"
         d="m 340.79407,238.19951 c 2.521,-4.52249 7.90411,-11.35018 11.36319,-15.78739 3.45908,-4.43721 4.99411,-6.48392 6.44386,-8.01896 1.44976,-1.53503 2.81424,-2.55839 3.58175,-2.98479 0.76752,-0.4264 0.93808,-0.25584 1.53504,-0.0853 0.59696,0.17056 1.62032,0.34112 1.87616,1.2792 0.25583,0.93807 -0.25584,2.64367 -0.51168,3.7523 -0.25584,1.10864 -0.25584,1.62032 -0.4264,2.04672 -0.17056,0.42639 -0.51168,0.76751 -0.68224,1.10863 -0.17056,0.34112 -0.17056,0.68224 -0.8123,2.132 -0.64174,1.44975 -1.92522,4.00813 -4.59181,8.24124 -2.66658,4.23311 -6.7162,10.14082 -8.99691,13.35061 -2.28071,3.20978 -2.79238,3.72145 -3.64518,4.74482 -0.8528,1.02336 -2.04671,2.55838 -3.00977,2.50665 -0.96306,-0.0517 -1.69524,-1.69022 -2.31718,-2.50947 -0.62194,-0.81925 -1.13362,-0.81925 -1.56001,-1.92789 -0.4264,-1.10863 -0.76752,-3.3259 1.75348,-7.84839 z"
         id="path31"
         inkscape:path-effect="#path-effect31"
         inkscape:original-d="m 337.93195,240.50472 c 5.38312,-6.8277 10.76623,-13.65539 16.14936,-20.4831 1.53503,-2.04671 3.07006,-4.09342 4.6051,-6.14014 1.36447,-1.02335 2.72895,-2.04671 4.09342,-3.07007 0.17056,0.17056 0.34112,0.34112 0.51168,0.51168 1.02336,0.17056 2.04672,0.34112 3.07007,0.51168 -0.51168,1.70559 -1.02335,3.41119 -1.53503,5.11678 0,0.51168 0,1.02336 0,1.53504 -0.34112,0.34111 -0.68224,0.68223 -1.02336,1.02335 0,0.34112 0,0.68224 0,1.02336 -1.28348,2.55839 -2.56696,5.11677 -3.85044,7.67517 -4.0497,5.90782 -8.09932,11.81553 -12.14905,17.72342 -0.51168,0.51168 -1.02335,1.02335 -1.53503,1.53504 -1.19392,1.53504 -2.38783,3.07006 -3.58175,4.6051 -0.7322,-1.6385 -1.46438,-3.27699 -2.19658,-4.91549 -0.51168,0 -1.02336,0 -1.53503,0 -0.34112,-2.21727 -0.68224,-4.43454 -1.02336,-6.65182 z"
         sodipodi:nodetypes="ccccccccccccccccc"
         inkscape:label="Shadow 7" />
      <path
         style="fill:#3ea247;fill-opacity:0.992157;stroke:none;stroke-width:1.8;stroke-opacity:1"
         d="m 346.42638,176.59829 c -0.87304,0.2718 -1.21416,1.1246 -1.47,2.40379 -0.25584,1.2792 -0.4264,2.9848 -0.76752,4.94623 -0.34112,1.96143 -0.85279,4.1787 -1.27919,6.14014 -0.4264,1.96143 -0.76752,3.66702 -0.93808,4.94622 -0.17056,1.27919 -0.17056,2.13199 -0.51168,3.75231 -0.34112,1.62031 -1.02335,4.00814 -2.14508,8.77067 -1.12173,4.76252 -2.68294,11.89972 -4.24416,19.03693 0.17055,0.17056 0.34111,0.34112 1.34413,1.70802 1.00302,1.36691 2.83846,3.93011 3.84564,4.73891 1.00719,0.80881 1.18609,-0.13681 1.51025,-1.85015 0.32416,-1.71334 0.79356,-4.19441 1.19883,-5.6055 0.40526,-1.4111 0.74638,-1.75221 1.05262,-3.78046 0.30624,-2.02825 0.5776,-5.7436 0.94049,-8.73734 0.36289,-2.99375 0.6054,-4.20628 0.76861,-5.70458 0.16321,-1.49829 0.16321,-2.86276 0.69223,-6.49779 0.52902,-3.63502 1.56033,-9.39145 2.26282,-13.75667 0.70249,-4.36523 1.06278,-7.2647 0.54045,-8.86902 -0.52234,-1.60432 -1.92732,-1.91351 -2.80036,-1.64171 z"
         id="path32"
         inkscape:path-effect="#path-effect32"
         inkscape:original-d="m 345.89445,176.0173 c -0.34111,0.85279 -0.68223,1.70559 -1.02335,2.55839 -0.17056,1.70559 -0.34112,3.41119 -0.51168,5.11678 -0.51168,2.21727 -1.02336,4.43454 -1.53503,6.65182 -0.34112,1.70559 -0.68224,3.41118 -1.02336,5.11678 0,0.85279 0,1.70559 0,2.55839 -0.68224,2.38783 -1.36448,4.77566 -2.04671,7.16349 -1.56122,7.13722 -4.68365,21.41163 -4.68365,21.41163 0.63787,-0.29675 0.34111,0.34112 0.51167,0.51168 1.83548,2.56325 3.67092,5.12645 5.50638,7.68967 0.17891,-0.94561 0.35781,-1.89123 0.53672,-2.83684 0.4694,-2.48107 0.93881,-4.96214 1.40822,-7.44321 0.34112,-0.34112 0.68224,-0.68223 1.02336,-1.02335 0.27136,-3.71538 0.54272,-7.43073 0.81408,-11.14608 1.26446,-2.11013 -0.39107,-3.70227 1.02335,-5.11678 0,-1.36448 0,-2.72895 0,-4.09343 1.05804,-5.90557 2.08935,-11.662 3.13403,-17.493 0.3603,-2.89945 0.72059,-5.79892 1.08089,-8.69837 -1.40497,-0.30919 -2.80995,-0.61838 -4.21492,-0.92757 z"
         sodipodi:nodetypes="ccccccccccccccccccc"
         inkscape:label="Shadow 8" />
      <path
         style="fill:#3ea247;fill-opacity:0.992157;stroke:none;stroke-width:1.8;stroke-opacity:1"
         d="m 315.70545,167.74517 c -1.36448,0.25583 -2.72896,1.44975 -4.51983,2.30255 -1.79088,0.8528 -4.00815,1.36447 -5.28734,1.62031 -1.2792,0.25584 -1.62032,0.25584 -1.7056,0.76752 -0.0853,0.51168 0.0853,1.53503 0.68224,2.55839 0.59696,1.02336 1.62031,2.04671 3.25583,3.60196 1.63553,1.55525 4.21461,3.95011 6.23577,5.9731 2.02116,2.02298 3.72675,3.89913 5.81021,4.59953 2.08346,0.70039 4.36333,0.26007 5.51003,-2.02118 1.1467,-2.28125 0.84188,-5.81695 -0.0382,-8.2818 -0.88011,-2.46484 -2.32565,-3.6667 -3.0643,-4.62749 -0.73866,-0.96079 -0.73866,-1.63195 -1.07978,-2.48475 -0.34112,-0.8528 -1.02335,-1.87615 -2.04671,-2.72895 -1.02336,-0.8528 -2.38783,-1.53503 -3.7523,-1.27919 z"
         id="path33"
         inkscape:path-effect="#path-effect33"
         inkscape:original-d="m 315.70544,166.80709 c -1.36447,1.19391 -2.72895,2.38783 -4.09342,3.58175 -2.21728,0.51167 -4.43455,1.02335 -6.65182,1.53503 -0.34112,0 -0.68224,0 -1.02336,0 0.17056,1.02336 0.34112,2.04671 0.51168,3.07007 1.02336,1.02336 2.04671,2.04671 3.07007,3.07007 1.68451,2.69364 4.72663,4.58985 7.1635,6.65182 1.70559,1.87615 3.41118,3.7523 5.11678,5.62846 2.46132,-0.47537 4.74119,-0.91569 7.38394,-1.4261 -0.34934,-4.05209 -0.65417,-7.58779 -0.97608,-11.32165 -1.4383,-1.19583 -2.88384,-2.39769 -4.36115,-3.62596 0,-0.69331 0,-1.36447 0,-2.04671 -0.68224,-1.02336 -1.36448,-2.04671 -2.04671,-3.07007 -1.36448,-0.68224 -2.72895,-1.36447 -4.09343,-2.04671 z"
         sodipodi:nodetypes="cccccccccccccc"
         inkscape:label="Shadow 9" />
      <path
         style="fill:#3ea247;fill-opacity:0.992157;stroke:none;stroke-width:1.8;stroke-opacity:1"
         d="m 321.84558,169.87716 c -0.51168,-0.68224 -1.02336,-1.36448 -1.02336,-1.36448 0,0 0.51168,0.68224 -0.0853,-0.17055 -0.59695,-0.8528 -2.30254,-3.24063 -3.3259,-4.77567 -1.02336,-1.53503 -1.36448,-2.21727 -1.53504,-2.72895 -0.17056,-0.51168 -0.17056,-0.8528 -0.34112,-1.2792 -0.17055,-0.42639 -0.51167,-0.93807 -0.0853,-1.27919 0.4264,-0.34112 1.62032,-0.51168 2.64368,-0.76752 1.02335,-0.25584 1.87615,-0.59696 2.38783,-1.02335 0.51167,-0.4264 0.68223,-0.93808 1.10863,-1.7056 0.4264,-0.76752 1.10863,-1.79087 1.75889,-2.36651 0.65026,-0.57564 1.26853,-0.70356 1.52437,-0.36244 0.25585,0.34112 0.14925,1.15128 0.43707,2.15332 0.28782,1.00203 0.97006,2.19595 1.31117,3.47514 0.34112,1.2792 0.34112,2.64367 0.4264,3.49647 0.0853,0.8528 0.25584,1.19391 0.34112,1.62031 0.0853,0.4264 0.0853,0.93808 0.25584,1.44976 0.17056,0.51168 0.51168,1.02335 0.68224,1.62031 0.17056,0.59696 0.17056,1.2792 0.51168,2.30255 0.34111,1.02336 1.02335,2.38784 2.06803,5.16476 1.04468,2.77692 2.45177,6.96624 2.62234,9.18353 0.17056,2.2173 -0.89545,2.46248 -2.79289,3.01145 -1.89743,0.54898 -4.62649,1.40181 -5.99094,1.8282 -1.36445,0.42639 -1.51022,0.28062 -1.87612,-2.28071 -0.3659,-2.56132 -0.34112,-2.23911 -0.4264,-3.85943 -0.0853,-1.62032 -0.0853,-2.64367 -0.16771,-4.39176 -0.0824,-1.74808 -0.25972,-4.40754 -0.77089,-6.44651 -0.51116,-2.03897 -1.36395,-3.574 -2.21675,-5.10904"
         id="path34"
         inkscape:path-effect="#path-effect34"
         inkscape:original-d="m 321.84558,169.87716 c -0.51168,-0.68224 -1.02336,-1.36448 -1.53503,-2.04671 0.51167,0.68223 1.02335,1.36447 1.53503,2.04671 -1.70559,-2.38783 -3.41119,-4.77566 -5.11678,-7.1635 -0.34112,-0.68223 -0.68224,-1.36447 -1.02336,-2.04671 0,-0.34112 0,-0.68224 0,-1.02336 -0.34112,-0.51167 -0.68224,-1.02335 -1.02335,-1.53503 1.19391,-0.17056 2.38783,-0.34112 3.58174,-0.51168 0.8528,-0.34112 1.7056,-0.68224 2.55839,-1.02335 0.17056,-0.51168 0.34112,-1.02336 0.51168,-1.53504 0.68224,-1.02336 1.36448,-2.04671 2.04671,-3.07007 0.61828,-0.12792 1.23655,-0.25584 1.85484,-0.38376 -0.1066,0.81016 -0.2132,1.62032 -0.3198,2.43047 0.68224,1.19392 1.36447,2.38784 2.04671,3.58175 0,1.36448 0,2.72895 0,4.09343 0.17056,0.34112 0.34112,0.68223 0.51168,1.02335 0,0.51168 0,1.02336 0,1.53504 0.34112,0.51168 0.68224,1.02335 1.02336,1.53503 0,0.68224 0,1.36448 0,2.04672 0.68223,1.36447 1.36447,2.72895 2.04671,4.09342 1.40712,4.18937 2.81421,8.37869 4.22134,12.5681 -1.066,0.24518 -2.13201,0.49036 -3.19798,0.73553 -2.7289,0.85278 -5.45796,1.70561 -8.18686,2.55839 -0.63059,0.75885 -0.51167,0.22013 -0.51167,-0.51167 -0.36591,-4.75675 -0.34112,-4.43454 -0.51168,-6.65182 0,-1.02336 0,-2.04671 0,-3.07007 -0.89374,-2.42422 -0.51168,-5.12097 -0.51168,-7.67517 -0.8528,-1.53504 -1.70559,-3.07007 -2.55839,-4.60511"
         sodipodi:nodetypes="cccccccccccccccccccccccscccc"
         inkscape:label="Shadow 10" />
      <path
         style="fill:#3ea247;fill-opacity:0.992157;stroke:none;stroke-width:1.8;stroke-opacity:1"
         d="m 307.00691,178.57569 c -0.17056,0.68223 -0.34112,1.36447 -0.34112,1.36447 0,0 0.17056,-0.68224 0.0853,-0.17056 -0.0853,0.51168 -0.42639,2.21728 -0.59695,3.4112 -0.17056,1.19391 -0.17056,1.87614 -0.39442,3.18732 -0.22386,1.31118 0.22386,-0.62894 -0.7995,3.72032 -1.02336,4.34927 -0.3198,1.47108 -0.96018,3.67977 -0.64037,2.20869 -1.16938,3.61938 -1.60765,4.67085 -0.43828,1.05147 -0.886,2.01087 -0.4596,3.88703 0.4264,1.87616 1.8595,4.9538 3.25978,7.6603 1.40029,2.70649 3.05091,5.64332 4.07427,6.92252 1.02336,1.2792 1.42844,0.91676 1.9721,0.4797 0.54366,-0.43706 1.22589,-0.94873 2.46648,-3.08528 1.24059,-2.13655 3.0064,-5.8287 4.03825,-8.58317 1.03186,-2.75448 1.03186,-3.94839 1.11714,-5.65399 0.0853,-1.70559 0.25584,-3.92286 0,-6.48126 -0.25584,-2.55839 -0.93807,-5.4579 -1.27919,-7.16349 -0.34112,-1.70559 -0.34112,-2.21727 -0.68224,-2.98479 -0.34112,-0.76752 -1.02336,-1.79087 -1.44976,-2.55839 -0.4264,-0.76752 -0.59696,-1.2792 -1.02335,-1.96144 -0.4264,-0.68223 -1.10864,-1.53503 -1.79088,-2.38783"
         id="path35"
         inkscape:path-effect="#path-effect35"
         inkscape:original-d="m 307.00691,178.57569 c -0.17056,0.68223 -0.34112,1.36447 -0.51168,2.04671 0.17056,-0.68224 0.34112,-1.36448 0.51168,-2.04671 -0.34112,1.70559 -0.68224,3.41119 -1.02335,5.11678 0,0.68224 0,1.36447 0,2.04671 -0.44772,1.94012 0,0 -1.34316,5.82034 -0.70356,2.87819 0,0 -0.70356,2.87819 -0.8054,1.45361 -1.53503,2.78907 -1.53503,4.09343 -0.44772,0.95939 -0.89544,1.91879 -1.34316,2.87819 1.30052,2.79292 2.73362,5.87056 3.90155,8.37873 1.63264,2.90482 3.28326,5.84165 4.9249,8.76249 0.40508,-0.36244 0.81016,-0.72488 1.21524,-1.08732 0.68224,-0.51168 1.36447,-1.02336 2.04671,-1.53503 3.00622,-3.18403 4.01113,-7.24008 5.62846,-11.7686 0,-1.19392 0,-2.38783 0,-3.58175 0.17056,-2.21727 0.34112,-4.43454 0.51168,-6.65182 -0.68224,-2.89951 -1.36448,-5.79902 -2.04671,-8.69853 0,-0.51167 0,-1.02335 0,-1.53503 -0.68224,-1.02336 -1.36448,-2.04671 -2.04672,-3.07007 -0.17056,-0.51168 -0.34112,-1.02336 -0.51167,-1.53503 -0.68224,-0.8528 -1.36448,-1.7056 -2.04672,-2.5584"
         sodipodi:nodetypes="ccccccccccccccccccccc"
         inkscape:label="Shadow 11" />
      <path
         style="fill:#3ea247;fill-opacity:0.992157;stroke:none;stroke-width:1.8;stroke-opacity:1"
         d="m 315.10848,188.46813 c 0.25584,1.87616 0.4264,3.41119 1.53504,7.07821 1.10863,3.66703 3.15535,9.46605 4.51982,14.15644 1.36448,4.69038 2.04671,8.27213 2.55839,11.00108 0.51168,2.72895 0.8528,4.6051 1.2792,6.05486 0.4264,1.44975 0.93808,2.47311 1.19391,3.32591 0.25584,0.85279 0.25584,1.53503 0.59696,2.98478 0.34112,1.44976 1.02336,3.66703 1.62032,6.22542 0.59696,2.55839 1.10863,5.4579 1.70559,8.61325 0.59696,3.15535 1.27919,6.56654 1.87615,9.89245 0.59696,3.3259 1.10864,6.56653 1.36448,8.61325 0.25584,2.04671 0.25584,2.89951 0.4264,3.83759 0.17056,0.93807 0.51168,1.96143 0.85279,3.58174 0.34112,1.62031 0.68224,3.83759 1.02336,6.65182 0.34112,2.81423 0.68224,6.22541 1.02336,8.44269 0.34112,2.21727 0.68223,3.24063 1.02335,4.77566 0.34112,1.53503 0.68224,3.58175 1.02336,5.0315 0.34112,1.44976 0.68224,2.30255 1.53504,6.65181 0.85279,4.34927 2.21727,12.195 3.7523,19.18794 1.53503,6.99294 3.24063,13.13307 4.69038,18.24986 1.44976,5.11678 2.64367,9.2102 3.24063,11.59804 0.59696,2.38783 0.59696,3.07006 0.8528,4.1787 0.25584,1.10864 0.76752,2.64367 1.19392,4.6051 0.4264,1.96144 0.76751,4.34927 0.93807,7.50462 0.17056,3.15535 0.17056,7.07821 0.25584,10.14828 0.0853,3.07007 0.25584,5.28734 0.17056,7.07821 -0.0853,1.79088 -0.4264,3.15535 -0.51168,5.20207 -0.0853,2.04671 0.0853,4.77566 0.25884,10.11276 0.17356,5.33711 0.33704,12.6936 0.7813,18.18954 0.44425,5.49593 1.16293,8.77226 2.38527,10.5422 1.22234,1.76995 2.92792,1.94051 4.20712,2.11107 1.2792,0.17056 2.132,0.34112 2.81423,0.25584 0.68224,-0.0853 1.19392,-0.4264 3.77363,-1.60965 2.57971,-1.18326 7.22745,-3.20865 9.50869,-4.51983 2.28123,-1.31117 2.19595,-1.90813 2.23859,-3.14469 0.0426,-1.23655 0.2132,-3.1127 0.29848,-4.56328 0.0853,-1.45058 0.0853,-2.36315 0.0853,-4.37916 0,-2.016 0,-4.91551 -0.0853,-6.87694 -0.0853,-1.96143 -0.25584,-2.98479 -0.51168,-3.92287 -0.25583,-0.93807 -0.59695,-1.79087 -0.93807,-2.98479 -0.34112,-1.19391 -0.68224,-2.72895 -1.19392,-3.7523 -0.51168,-1.02336 -1.19392,-1.53504 -1.7056,-1.96143 -0.51167,-0.4264 -0.85279,-0.76752 -1.95077,-1.09798 -1.09798,-0.33046 -2.95281,-0.65026 -3.96556,-1.02197 -1.01276,-0.37171 -1.18344,-0.79533 -1.21542,-7.78828 -0.032,-6.99295 0.001,-11.24535 -0.0164,-28.88362 -0.0179,-17.63828 -0.058,-19.94455 -0.12195,-23.79279 -0.064,-3.84825 -0.064,-4.18937 -1.00204,-5.46856 -0.93807,-1.2792 -1.77473,-2.26797 -3.84778,-3.69744 -2.07305,-1.42947 -2.67443,-1.14266 -3.15004,-0.91583 -0.47561,0.22683 -1.25229,0.59724 -1.57048,0.66875 -0.3182,0.0715 -0.35669,-0.0696 -2.11299,-6.50941 -1.7563,-6.43977 -3.31112,-12.14077 -4.90684,-17.87804 -1.59572,-5.73726 -2.25664,-7.93323 -2.67238,-10.05456 -0.41574,-2.12133 -0.5863,-4.16804 -0.75686,-5.27668 -0.17056,-1.10864 -0.34112,-1.27919 -0.4264,-1.70559 -0.0853,-0.4264 -0.0853,-1.10864 -2.70763,-9.22087 -2.62235,-8.11223 2.62235,7.42999 0.14771,-0.69698 -2.47463,-8.12696 -2.23521,-8.70376 -2.35415,-11.49897 -0.11895,-2.79521 -0.20271,-3.05846 -0.50119,-4.93461 -0.29848,-1.87615 -0.29848,-3.75231 -0.38006,-5.34301 -0.0816,-1.5907 -0.25761,-2.99899 -0.42238,-5.10253 -0.16478,-2.10354 -0.35372,-5.50447 -0.60711,-7.59247 -0.2534,-2.088 -0.59452,-3.28191 -0.76508,-4.13471 -0.17056,-0.8528 -0.17056,-1.36448 -0.42335,-2.37868 -0.25278,-1.0142 -0.8163,-2.70474 -1.28224,-4.72384 -0.46595,-2.0191 -1.02336,-5.17776 -1.7056,-8.24783 -0.68224,-3.07007 -1.53503,-6.31069 -2.04177,-8.89507 -0.50674,-2.58438 -0.7311,-5.27677 -0.79442,-6.54826 -0.0633,-1.27149 -0.0633,-2.29484 -0.48972,-4.42683 -0.4264,-2.132 -1.27919,-5.37263 -2.04671,-7.50462 -0.76751,-2.13199 -1.44975,-3.15535 -1.79087,-3.83758 -0.34112,-0.68224 -0.34112,-1.02336 -0.51168,-1.36448 -0.17056,-0.34112 -0.51168,-0.68224 -1.87853,-2.21999 -1.36685,-1.53775 -3.74974,-4.26106 -5.88183,-5.19924 -2.13209,-0.93818 -4.00824,-0.0854 -5.20215,0.59685 -1.19392,0.68224 -1.7056,1.19392 -2.132,1.53504 -0.4264,0.34112 -0.76751,0.51167 -0.76751,1.70559 0,1.19392 0.34111,3.41119 0.59695,5.28734 z"
         id="path36"
         inkscape:path-effect="#path-effect36"
         inkscape:original-d="m 315.19376,188.80925 c 0.17056,1.53504 0.34112,3.07007 0.51168,4.6051 2.04671,5.79902 4.09343,11.59804 6.14014,17.39706 0.68224,3.58175 1.36448,7.1635 2.04671,10.74525 0.34112,1.87615 0.68224,3.7523 1.02336,5.62846 0.51168,1.02335 1.02336,2.04671 1.53503,3.07006 0,0.68224 0,1.36448 0,2.04672 0.68224,2.21727 1.36448,4.43454 2.04672,6.65181 0.51167,2.89951 1.02335,5.79902 1.53503,8.69853 0.68224,3.41119 1.36448,6.82238 2.04671,10.23357 0.51168,3.24062 1.02336,6.48125 1.53504,9.72188 0,0.8528 0,1.7056 0,2.55839 0.34112,1.02336 0.68224,2.04672 1.02335,3.07007 0.34112,2.21727 0.68224,4.43455 1.02336,6.65182 0.34112,3.41119 0.68224,6.82237 1.02336,10.23356 0.34112,1.02336 0.68223,2.04672 1.02335,3.07007 0.34112,2.04671 0.68224,4.09343 1.02336,6.14014 0.34112,0.8528 0.68224,1.70559 1.02336,2.55839 1.36447,7.84573 2.72895,15.69146 4.09342,23.5372 1.7056,6.14014 3.41119,12.28027 5.11678,18.42041 1.19392,4.09343 2.38784,8.18685 3.58175,12.28028 0,0.68224 0,1.36447 0,2.04671 0.51168,1.53504 1.02336,3.07007 1.53504,4.6051 0.34111,2.38784 0.68223,4.77567 1.02335,7.1635 0,3.92287 0,7.84573 0,11.7686 0.17056,2.21727 0.34112,4.43454 0.51168,6.65181 -0.34112,1.36448 -0.68224,2.72895 -1.02336,4.09343 0.17056,2.72895 0.34112,5.4579 0.51168,8.18685 1.21603,7.92216 0.51168,15.29794 0.51168,23.02552 1.96373,2.9946 1.81569,6.46104 2.17463,9.91376 1.7056,0.17056 3.41118,0.34112 5.11678,0.51168 0.8528,0.17056 1.7056,0.34112 2.55839,0.51168 0.51168,-0.34112 1.02336,-0.68224 1.53504,-1.02336 4.64774,-2.02539 9.29548,-4.05078 13.94323,-6.07617 -0.0853,-0.59696 -0.17056,-1.19392 -0.25584,-1.79088 0.17056,-1.87615 0.34112,-3.7523 0.51168,-5.62846 0.72305,-1.025 0.28313,-1.93757 0,-3.07007 0,-2.89951 0,-5.79902 0,-8.69853 -0.17056,-1.02335 -0.34112,-2.04671 -0.51168,-3.07007 -0.34112,-0.85279 -0.68224,-1.70559 -1.02335,-2.55839 -0.34112,-1.53503 -0.68224,-3.07007 -1.02336,-4.6051 -0.68224,-0.51168 -1.36448,-1.02336 -2.04671,-1.53503 -0.34112,-0.34112 -0.68224,-0.68224 -1.02336,-1.02336 -1.85484,-0.3198 -3.70967,-0.6396 -5.5645,-0.9594 -0.17068,-0.42362 -0.34136,-0.84724 -0.51204,-1.27087 0.10672,-13.56227 0.14018,-17.81467 0.32016,-40.68674 -0.21573,-12.40448 -0.25584,-14.71075 -0.38376,-22.06612 0,-0.34112 0,-0.68224 0,-1.02336 -1.87615,-2.21727 -2.71281,-3.20604 -5.62846,-6.65181 -1.23045,0.58683 -1.83183,0.87364 -2.3753,1.13283 -0.40775,0.19447 -1.18443,0.56488 -1.78209,0.84992 -0.0387,-0.14203 -0.0772,-0.28318 -0.11549,-0.42349 -3.47433,-12.73922 -5.02915,-18.44022 -7.55967,-27.71881 -0.66899,-2.19351 -1.3238,-4.39132 -1.98276,-6.58786 -0.17056,-2.04671 -0.34112,-4.09342 -0.51168,-6.14014 -0.17056,-0.17056 -0.34112,-0.34111 -0.51168,-0.51167 0,-0.68224 0,-1.36448 0,-2.04672 -5.2447,-15.54222 0,0 -5.2447,-15.54222 0.29543,-0.71171 0.53485,-1.28851 1.40712,-3.38987 -1.11016,-3.48906 -1.19392,-3.75231 -1.79088,-5.62846 0,-1.87615 0,-3.75231 0,-5.62846 -0.77315,-1.229 -0.51167,-2.69198 -0.51167,-4.09343 -1.08848,-2.77544 -0.51168,-6.21892 -0.51168,-9.2102 -0.34112,-1.19392 -0.68224,-2.38783 -1.02336,-3.58175 0,-0.51168 0,-1.02336 0,-1.53503 -0.57624,-1.49317 -0.37018,-3.44024 -1.53503,-4.60511 -0.46595,-2.64036 -1.02336,-5.79902 -1.53504,-8.69853 -0.8528,-3.24063 -1.70559,-6.48125 -2.55839,-9.72188 -0.19794,-1.92502 -0.4391,-4.61602 -0.51168,-6.14014 0,-1.02336 0,-2.04671 0,-3.07007 -0.85279,-3.24063 -1.70559,-6.48126 -2.55839,-9.72189 -0.68224,-1.02335 -1.36447,-2.04671 -2.04671,-3.07007 0,-0.34111 0,-0.68223 0,-1.02335 -0.34112,-0.34112 -0.68224,-0.68224 -1.02336,-1.02336 -2.29834,-2.81684 -4.59353,-5.61689 -7.16349,-8.18685 -1.87616,0.8528 -3.75231,1.70559 -5.62846,2.55839 -0.51168,0.51168 -1.02336,1.02336 -1.53504,1.53504 -0.34112,0.17056 -0.68223,0.34112 -1.02335,0.51167 0.34112,2.21728 0.68223,4.43455 1.02335,6.65182 z"
         sodipodi:nodetypes="ccccccccccccccccccccccccccccccccccccccccccccccccccccccccccccccccccccccccccccccc" />
      <path
         style="fill:none;fill-opacity:0.941176;stroke:#000000;stroke-width:1.8;stroke-opacity:1"
         d="m 371.3205,432.27645 c -1.37717,0.77386 -2.40053,1.4561 -4.70308,1.71193 -2.30255,0.25584 -5.8843,0.0853 -8.53163,-0.42823 -2.64734,-0.51351 -4.31445,-1.34707 -6.71239,-2.50682 -2.39794,-1.15974 -6.09828,-2.91503 -8.7734,-4.85093 -2.67512,-1.9359 -4.80711,-4.28109 -7.83454,-6.47705 -3.02744,-2.19595 -6.9503,-4.24266 -9.95641,-5.56449 -3.00611,-1.32184 -5.09137,-1.91763 -8.42378,-2.34487 -3.33242,-0.42723 -7.87986,-0.68223 -11.35806,-0.55448 -3.4782,0.12775 -5.86603,0.63943 -7.74218,0.80999 -1.87616,0.17056 -3.24063,0 -4.00815,-0.25584 -0.76752,-0.25584 -0.93807,-0.59696 0.59696,-1.96143 1.53503,-1.36448 4.77566,-3.75231 7.50461,-5.0315 2.72895,-1.2792 4.94622,-1.44976 6.48126,-1.79088 1.53503,-0.34111 2.38783,-0.85279 3.83759,-1.53503 1.44975,-0.68224 3.49646,-1.53503 5.20206,-2.04671 1.70559,-0.51168 3.07007,-0.68224 3.92286,-0.8528 0.8528,-0.17056 1.19392,-0.34112 1.53504,-0.4264 0.34112,-0.0853 0.68224,-0.0853 0,-1.10863 -0.68224,-1.02336 -2.38784,-3.07008 -4.69039,-5.79903 -2.30255,-2.72895 -5.20206,-6.14013 -7.50461,-8.69852 -2.30256,-2.5584 -4.00815,-4.26399 -5.20206,-5.71374 -1.19392,-1.44976 -1.87616,-2.64368 -2.55839,-4.17871 -0.68224,-1.53503 -1.36448,-3.41119 -1.2792,-4.51982 0.0853,-1.10864 0.93808,-1.44976 1.96144,-1.44976 1.02335,0 2.21727,0.34112 3.24062,0.59696 1.02336,0.25584 1.87616,0.4264 2.98479,0.8528 1.10864,0.42639 2.47312,1.10863 3.66703,1.62031 1.19392,0.51168 2.21727,0.8528 3.32591,1.36448 1.10864,0.51168 2.30255,1.19391 3.3259,1.62031 1.02336,0.4264 1.87616,0.59696 3.32591,1.19392 1.44976,0.59695 3.49647,1.62031 5.96958,3.3259 2.47312,1.7056 5.37263,4.09343 7.1635,5.4579 1.79087,1.36448 2.47311,1.7056 2.98479,2.04672 0.51168,0.34112 0.85279,0.68224 1.53503,1.10863 0.68224,0.4264 1.7056,0.93808 2.30256,1.36448 0.59695,0.4264 0.76751,0.76752 1.36447,1.36448 0.59696,0.59695 1.62031,1.44975 2.55839,2.21727 0.93808,0.76752 1.79088,1.44976 2.30255,1.87615 0.51168,0.4264 0.68224,0.59696 0.0853,-0.93807 -0.59696,-1.53504 -1.96143,-4.77567 -3.08745,-7.61637 -1.12601,-2.8407 -1.35512,-3.47074 -1.90542,-5.77292 -0.55031,-2.30218 -0.72087,-4.3489 -1.14727,-6.48089 -0.4264,-2.13199 -1.10863,-4.34926 -1.62031,-6.22541 -0.51168,-1.87616 -0.8528,-3.41119 -1.2792,-4.51983 -0.4264,-1.10864 -0.93807,-1.79087 -2.4731,-3.24063 -1.53504,-1.44975 -4.09343,-3.66702 -5.62846,-5.11678 -1.53504,-1.44975 -2.04672,-2.13199 -2.89952,-2.81423 -0.85279,-0.68224 -2.04671,-1.36447 -2.8995,-1.96143 -0.8528,-0.59696 -1.36448,-1.10864 -2.132,-1.62032 -0.76752,-0.51168 -1.79087,-1.02335 -2.89951,-1.79087 -1.10863,-0.76751 -2.30255,-1.79087 -3.66703,-2.89951 -1.36447,-1.10864 -2.8995,-2.30255 -3.66702,-3.24063 -0.76752,-0.93808 -0.76752,-1.62031 -0.51168,-2.13199 0.25584,-0.51168 0.76752,-0.8528 1.62032,-1.2792 0.85279,-0.4264 2.04671,-0.93807 5.62845,-0.59695 3.58175,0.34112 9.55133,1.53503 13.47419,2.81423 3.92287,1.27919 5.79903,2.64367 6.90767,3.41118 1.10863,0.76752 1.44975,0.93808 1.70559,1.10864 0.25583,0.17056 0.42639,0.34112 -10e-6,-1.44975 -0.4264,-1.79088 -1.44975,-5.54319 -1.96143,-7.93102 -0.51168,-2.38783 -0.51168,-3.41119 -1.24792,-5.54259 -0.73624,-2.1314 -2.96891,-7.04327 -3.93056,-8.93719 -0.96166,-1.89392 -1.47334,-2.57616 -3.69061,-4.28175 -2.21727,-1.7056 -6.14013,-4.43455 -9.6366,-6.90766 -3.49647,-2.47311 -6.56654,-4.69038 -9.89245,-6.99293 -3.3259,-2.30255 -6.90765,-4.69039 -9.38076,-6.3107 -2.47311,-1.62031 -3.83759,-2.47311 -5.96958,-4.09343 -2.13199,-1.62031 -5.0315,-4.00814 -6.82238,-5.71373 -1.79087,-1.7056 -2.47311,-2.72896 -2.38783,-3.32591 0.0853,-0.59696 0.93808,-0.76752 1.79087,-0.8528 0.8528,-0.0853 1.7056,-0.0853 4.94623,0.8528 3.24063,0.93807 8.86909,2.81423 13.90059,4.51982 5.0315,1.70559 9.46604,3.24062 12.62139,4.34926 3.15535,1.10864 5.0315,1.79088 6.48126,2.38784 1.44975,0.59695 2.47311,1.10863 2.10477,-0.57157 -0.36834,-1.68021 -2.09045,-5.46884 -4.39119,-11.32164 -2.30075,-5.8528 -3.75781,-9.83544 -7.34487,-15.13162 -3.58706,-5.29617 -7.50993,-7.00177 -10.1536,-8.19569 -2.64367,-1.19391 -4.00815,-1.87615 -6.82238,-2.98479 -2.81423,-1.10863 -7.07821,-2.64367 -10.14828,-3.66702 -3.07007,-1.02336 -4.94622,-1.53504 -6.69159,-1.61148 -1.74536,-0.0764 -3.14244,0.23402 -4.45084,0.58163 -1.30841,0.34761 -2.33176,0.68873 -3.18456,0.51817 -0.8528,-0.17056 -1.53503,-0.8528 -2.47311,-2.21728 -0.93808,-1.36447 -2.13199,-3.41118 -0.59696,-5.11678 1.53504,-1.70559 5.79902,-3.07007 8.35741,-3.83758 2.55839,-0.76752 3.41119,-0.93808 6.7371,-0.8528 3.32591,0.0853 9.12493,0.4264 13.79595,0.93439 4.67101,0.50799 8.48226,1.23394 10.51886,1.64217 2.03661,0.40823 2.71885,0.57879 2.88941,0.15239 0.17056,-0.4264 -0.17056,-1.44975 -0.34112,-2.47311 -0.17056,-1.02336 -0.17056,-2.04671 -0.93826,-5.288 -0.7677,-3.24128 -2.30207,-8.69682 -3.32557,-11.85269 -1.02351,-3.15588 -1.53519,-4.00868 -3.24078,-6.82291 -1.70559,-2.81423 -4.6051,-7.58989 -7.50461,-12.28027 -2.89951,-4.69039 -5.79902,-9.29549 -7.5899,-11.93916 -1.79087,-2.64367 -2.47311,-3.32591 -3.66703,-4.86094 -1.19391,-1.53504 -2.8995,-3.92287 -4.09342,-5.4579 -1.19392,-1.53504 -1.87616,-2.21727 -2.47311,-3.15535 -0.59696,-0.93808 -1.10864,-2.132 -1.53504,-3.07007 -0.4264,-0.93808 -0.76752,-1.62032 -1.10863,-2.13199 -0.34112,-0.51168 -0.68224,-0.8528 -0.8528,-3.02857 -0.17056,-2.17578 -0.17056,-6.27921 0.34112,-8.36242 0.51168,-2.08321 1.53503,-2.08321 2.89951,-1.65681 1.36448,0.4264 3.07007,1.2792 5.03151,2.38783 1.96143,1.10864 4.1787,2.47311 5.45821,2.98448 1.2795,0.51137 1.51107,0.2798 1.65082,-1.13914 0.13974,-1.41894 -0.0308,-3.80677 -0.19925,-6.49736 -0.16843,-2.69058 -0.35722,-6.08876 -0.26495,-7.92451 0.0923,-1.83574 0.43338,-2.68853 0.94506,-3.62661 0.51168,-0.93808 1.19391,-1.96143 1.86877,-2.39776 0.67485,-0.43634 1.25125,-0.30621 2.86591,1.22251 1.61467,1.52872 4.2477,4.47442 5.81137,6.1081 1.56366,1.63369 2.07534,1.97481 2.92814,2.91288 0.85279,0.93808 2.04671,2.47311 2.72895,2.30256 0.68224,-0.17056 0.85279,-2.04672 1.19391,-3.66703 0.34112,-1.62032 0.8528,-2.98479 1.3198,-3.87819 0.467,-0.8934 1.02284,-1.44924 2.0688,-1.72768 1.04595,-0.27843 2.58098,-0.27843 3.94546,0.4038 1.36447,0.68224 2.55839,2.04672 3.41119,3.24063 0.85279,1.19392 1.36447,2.21728 2.12797,4.50575 0.76349,2.28847 1.81371,5.96423 2.99822,10.02473 1.1845,4.0605 2.54898,8.6656 3.57233,12.07679 1.02336,3.41119 1.7056,5.62846 2.132,7.1635 0.4264,1.53503 0.59695,2.38783 0.68223,2.98479 0.0853,0.59695 0.0853,0.93807 0.25584,0.51167 0.17056,-0.4264 0.51168,-1.62031 1.44976,-3.66703 0.93807,-2.04671 2.47311,-4.94622 4.73941,-5.97965 2.2663,-1.03342 5.37525,-0.16983 7.01238,0.4318 1.63712,0.60163 1.80768,0.94275 1.89296,1.96611 0.0853,1.02335 0.0853,2.72895 -0.25584,4.34927 -0.34112,1.62031 -1.02335,3.15534 -1.44955,5.19911 -0.42621,2.04377 -0.5972,4.60859 -0.9383,7.50783 -0.3411,2.89924 -0.85278,6.13987 -1.1939,9.20993 -0.34112,3.07007 -0.51167,5.96958 -0.85279,8.69853 -0.34112,2.72896 -0.8528,5.28735 -1.19392,6.90766 -0.34112,1.62031 -0.51168,2.30255 -0.17056,2.13199 0.34112,-0.17056 1.19391,-1.19391 3.24063,-2.98479 2.04671,-1.79087 5.28734,-4.34926 7.5899,-6.22541 2.30255,-1.87616 3.66702,-3.07007 5.20205,-3.58175 1.53504,-0.51168 3.24063,-0.34112 4.2643,-0.085 1.02367,0.25615 1.25524,0.48773 1.7361,1.13915 0.48086,0.65141 0.99254,1.50421 0.82198,3.03925 -0.17056,1.53503 -1.02335,3.7523 -2.13199,6.14013 -1.10864,2.38783 -2.47311,4.94622 -4.1787,7.67517 -1.7056,2.72895 -3.75231,5.62846 -4.94623,7.41933 -1.19392,1.79088 -1.53503,2.47312 -1.79087,2.89952 -0.25584,0.4264 -0.4264,0.59696 0.17056,0.34112 0.59695,-0.25584 1.96143,-0.93808 4.43454,-2.30256 2.47311,-1.36447 6.05486,-3.41119 8.44269,-4.69038 2.38783,-1.27919 3.58175,-1.79087 4.79855,-2.15403 1.2168,-0.36316 1.81376,-0.46652 2.58976,-0.45212 0.776,0.0144 1.46235,0.18953 2.18907,0.36914 0.72673,0.1796 1.19812,0.29145 2.12107,0.88047 0.92295,0.58903 2.11686,1.61238 2.96966,2.29462 0.8528,0.68224 1.36447,1.02335 0.42639,2.21727 -0.93807,1.19392 -3.3259,3.24063 -6.22541,5.28734 -2.89951,2.04671 -6.3107,4.09343 -9.12493,5.71374 -2.81423,1.62032 -5.0315,2.81423 -7.67517,4.77567 -2.64367,1.96143 -5.71374,4.69038 -8.01629,6.65181 -2.30255,1.96143 -3.83759,3.15535 -4.84972,4.56771 -1.01214,1.41236 -1.55135,3.20972 -1.71937,4.39515 -0.16801,1.18543 0.003,1.86766 0.25839,2.46462 0.25584,0.59696 0.59696,1.10864 0.8528,2.04671 0.25584,0.93808 0.42639,2.30256 0.76751,3.49648 0.34112,1.19391 0.8528,2.21726 1.10864,3.07006 0.25584,0.8528 0.25584,1.53503 0.59696,2.55839 0.34112,1.02336 1.02335,2.38783 3.06474,2.02539 2.04139,-0.36244 5.44187,-2.45176 7.398,-3.83757 1.95612,-1.38581 2.46779,-2.06804 4.00283,-2.83556 1.53503,-0.76752 4.09343,-1.62032 6.22542,-1.51372 2.13199,0.1066 3.83757,1.17258 4.43987,2.72895 0.60229,1.55636 0.10127,3.60306 -0.3198,5.1381 -0.42107,1.53504 -0.76219,2.5584 -2.46779,3.75231 -1.70559,1.19392 -4.77565,2.55839 -7.16348,3.49647 -2.38784,0.93808 -4.09343,1.44975 -5.99681,2.14333 -1.90337,0.69358 -3.88333,1.51856 -4.91284,2.45921 -1.02951,0.94064 -1.02951,1.964 -0.77367,2.98735 0.25584,1.02336 0.76752,2.04672 1.44975,4.09343 0.68224,2.04671 1.53503,5.11678 2.11008,7.1721 0.57506,2.05532 0.96865,3.43291 1.64656,6.06141 0.67791,2.62851 1.70126,6.72194 2.21294,8.93921 0.51168,2.21727 0.51168,2.55839 1.02336,2.64367 0.51167,0.0853 1.53503,-0.0853 3.7523,-1.27919 2.21727,-1.19392 5.62846,-3.41119 7.76045,-4.51983 2.132,-1.10864 2.98479,-1.10864 3.49647,-0.59696 0.51168,0.51168 0.68224,1.53504 0.99867,2.04671 0.31643,0.51168 0.40032,0.51168 1.26637,-0.15724 0.86604,-0.66893 1.85005,-2.44014 2.69202,-3.69984 0.84197,-1.2597 1.69476,-2.28305 3.3262,-3.27675 1.63144,-0.99369 3.33417,-1.67479 5.79759,-2.38726 2.46342,-0.71247 3.82788,-0.71247 4.42484,-0.11551 0.59696,0.59696 0.42641,1.79087 -0.68223,4.00815 -1.10864,2.21727 -3.15535,5.4579 -4.69038,7.84573 -1.53504,2.38783 -2.55839,3.92286 -3.75231,5.54318 -1.19392,1.62031 -2.55839,3.32591 -4.09343,5.20206 -1.53503,1.87615 -3.24063,3.92287 -4.34926,5.4579 -1.10863,1.53503 -1.62031,2.55839 -2.30255,3.75231 -0.68224,1.19391 -1.53504,2.55839 -2.21727,4.09343 -0.68224,1.53503 -1.19392,3.24062 -1.36448,4.94621 -0.17056,1.7056 0,3.41119 0.1658,6.51847 0.1658,3.10729 0.3658,8.7073 0.36335,11.95685 -0.002,3.24956 -0.51786,10.80896 -0.86462,17.48674 -0.34677,6.67779 -0.17621,7.36003 0.33547,6.93363 0.51168,-0.4264 1.36448,-1.96143 2.47311,-3.41119 1.10864,-1.44975 2.47311,-2.81422 3.77363,-5.17465 1.30052,-2.36042 2.44969,-5.4796 3.13298,-7.52916 0.68329,-2.04957 0.85384,-2.90237 1.36552,-4.43741 0.51168,-1.53503 1.36447,-3.7523 2.30255,-5.79902 0.93808,-2.04671 1.96144,-3.92286 2.89951,-5.79902 0.93808,-1.87615 1.79088,-3.7523 2.64367,-5.0315 0.8528,-1.27919 1.7056,-1.96143 3.58175,-3.41118 1.87615,-1.44976 4.77566,-3.66703 6.65182,-4.94622 1.87615,-1.2792 2.72895,-1.62032 4.00814,-2.47312 1.2792,-0.85279 2.98479,-2.21726 4.09343,-3.07006 1.10864,-0.8528 1.62031,-1.19392 1.87615,-1.7056 0.25584,-0.51168 0.25584,-1.19392 1.32884,-3.68104 1.073,-2.48712 1.01053,-2.36217 2.27132,-3.51927 1.26079,-1.1571 2.79582,-1.49822 4.07501,-1.49822 1.2792,0 2.30256,0.34112 3.41119,0.8528 1.10864,0.51168 2.30256,1.19392 2.98479,2.04671 0.68224,0.8528 0.8528,1.87615 0.68224,4.09343 -0.17056,2.21727 -0.68224,5.62846 -1.2792,8.01629 -0.59696,2.38783 -1.27919,3.7523 -1.96143,4.86094 -0.68224,1.10864 -1.36447,1.96143 -2.81423,4.6051 -1.44975,2.64367 -3.66703,7.07822 -5.0315,9.55133 -1.36448,2.47311 -1.87615,2.98479 -3.15535,5.62846 -1.27919,2.64367 -3.3259,7.41933 -4.6051,10.31884 -1.27919,2.89951 -1.79087,3.92287 -2.72895,6.3107 -0.93807,2.38783 -2.30255,6.14014 -3.24063,8.95437 -0.93808,2.81423 -1.44975,4.69038 -2.29924,6.98538 -0.84949,2.29499 -2.04706,5.03228 -3.10388,7.27426 -1.05682,2.24198 -1.8863,3.82378 -3.10048,5.41156 -1.21418,1.58777 -2.46322,2.69348 -3.93011,4.17517 -1.46688,1.4817 -3.17247,3.35785 -4.19577,4.38118 -1.02329,1.02333 -9.18488,5.10412 -10.56205,5.87799 z"
         id="path37"
         inkscape:path-effect="#path-effect38"
         inkscape:original-d="m 370.96669,432.36807 c -1.02336,0.68224 -2.04672,1.36447 -3.07007,2.04671 -3.58175,-0.17056 -7.1635,-0.34112 -10.74525,-0.51168 -1.779,-0.7243 -3.44683,-1.55642 -5.11678,-2.55839 -3.46623,-0.59291 -6.82564,-3.06692 -9.97772,-4.73302 -2.13199,-2.34519 -4.26398,-4.69038 -6.39598,-7.03558 -3.92287,-2.04671 -7.84573,-4.09342 -11.7686,-6.14013 -2.08935,-0.59696 -4.17461,-1.19275 -6.26805,-1.79088 -4.57139,-0.25634 -9.11883,-0.51134 -13.6874,-0.76752 -2.38783,0.51168 -4.77566,1.02336 -7.16349,1.53504 -1.36448,-0.17056 -2.72895,-0.34112 -4.09343,-0.51168 -0.17056,-0.34112 -0.34112,-0.68224 -0.51167,-1.02336 3.24062,-2.38783 6.48125,-4.77566 9.72188,-7.16349 2.21727,-0.17056 4.43454,-0.34112 6.65182,-0.51168 0.85279,-0.51168 1.70559,-1.02335 2.55839,-1.53503 2.04671,-0.8528 4.09342,-1.7056 6.14014,-2.55839 1.36447,-0.17056 2.72895,-0.34112 4.09342,-0.51168 0.34112,-0.17056 0.68224,-0.34112 1.02336,-0.51168 0.34112,0 0.68224,0 1.02335,0 -1.70559,-2.04671 -3.41118,-4.09343 -5.11678,-6.14014 -2.89951,-3.41119 -5.79902,-6.82237 -8.69853,-10.23356 -1.70559,-1.7056 -3.41118,-3.41119 -5.11678,-5.11678 -0.68224,-1.19392 -1.36447,-2.38784 -2.04671,-3.58175 -0.68224,-1.87615 -1.36448,-3.75231 -2.04671,-5.62846 0.85279,-0.34112 1.70559,-0.68224 2.55839,-1.02336 1.19391,0.34112 2.38783,0.68224 3.58174,1.02336 0.8528,0.17056 1.7056,0.34112 2.5584,0.51168 1.36447,0.68223 2.72895,1.36447 4.09342,2.04671 1.02336,0.34112 2.04671,0.68224 3.07007,1.02336 1.19392,0.68223 2.38783,1.36447 3.58175,2.04671 0.85279,0.17056 1.70559,0.34112 2.55839,0.51168 2.04671,1.02335 4.09342,2.04671 6.14014,3.07007 2.89951,2.38783 5.79902,4.77566 8.69853,7.16349 0.68223,0.34112 1.36447,0.68224 2.04671,1.02336 0.34112,0.34112 0.68224,0.68223 1.02335,1.02335 1.02336,0.51168 2.04672,1.02336 3.07007,1.53504 0.17056,0.34112 0.34112,0.68224 0.51168,1.02335 1.02336,0.8528 2.04671,1.7056 3.07007,2.5584 0.8528,0.68223 1.7056,1.36447 2.55839,2.04671 0.17056,0.17056 0.34112,0.34112 0.51168,0.51168 -1.36447,-3.24063 -2.72895,-6.48126 -4.09343,-9.72189 -1.62847,-2.17134 -2.04671,-2.73261 -2.04671,-5.62846 -0.17056,-2.04671 -0.34112,-4.09343 -0.51168,-6.14014 -0.68223,-2.21727 -1.36447,-4.43454 -2.04671,-6.65181 -0.34112,-1.53504 -0.68224,-3.07007 -1.02336,-4.60511 -0.51167,-0.68224 -1.02335,-1.36447 -1.53503,-2.04671 -2.55839,-2.21727 -5.11678,-4.43454 -7.67517,-6.65182 -0.51168,-0.68223 -1.02336,-1.36447 -1.53504,-2.04671 -1.19391,-0.68224 -2.38783,-1.36447 -3.58174,-2.04671 -0.51168,-0.51168 -1.02336,-1.02336 -1.53504,-1.53504 -1.02336,-0.51168 -2.04671,-1.02335 -3.07007,-1.53503 -1.19391,-1.02336 -2.38783,-2.04671 -3.58175,-3.07007 -1.53503,-1.19392 -3.07006,-2.38783 -4.6051,-3.58175 0,-0.68224 0,-1.36447 0,-2.04671 0.51168,-0.34112 1.02336,-0.68224 1.53504,-1.02336 1.19391,-0.51168 2.38783,-1.02335 3.58174,-1.53503 5.96958,1.19391 11.93916,2.38783 17.90874,3.58175 1.87615,1.36447 3.75231,2.72895 5.62846,4.09342 0.34112,0.17056 0.68224,0.34112 1.02336,0.51168 0.17055,0.17056 0.34111,0.34112 0.51167,0.51168 -1.02335,-3.75231 -2.04671,-7.50462 -3.07007,-11.25692 0,-1.02336 0,-2.04672 0,-3.07007 0.21673,-4.00727 -5.11678,-7.50967 -5.11678,-11.25692 -0.51168,-0.68224 -1.02335,-1.36448 -1.53503,-2.04671 -3.92287,-2.72896 -7.84573,-5.45791 -11.7686,-8.18686 -3.07007,-2.21727 -6.14014,-4.43454 -9.21021,-6.65181 -3.58174,-2.38783 -7.16349,-4.77567 -10.74524,-7.1635 -1.36447,-0.85279 -2.72895,-1.70559 -4.09342,-2.55839 -2.89951,-2.38783 -5.79902,-4.77566 -8.69853,-7.16349 -0.68224,-1.02336 -1.36448,-2.04672 -2.04672,-3.07007 0.8528,-0.17056 1.7056,-0.34112 2.55839,-0.51168 0.8528,0 1.7056,0 2.5584,0 5.62846,1.87615 11.25692,3.75231 16.88538,5.62846 4.43454,1.53503 8.86908,3.07007 13.30363,4.6051 1.87615,0.68224 3.7523,1.36448 5.62846,2.04672 1.02335,0.51168 2.04671,1.02335 3.07007,1.53503 -1.99277,-3.7663 -5.11678,-6.91771 -5.11678,-11.25692 -2.83718,-8.15684 -4.27775,-12.14552 -7.67518,-20.9788 -3.92286,-1.7056 -7.84573,-3.41119 -11.7686,-5.11679 -1.36447,-0.68223 -2.72895,-1.36447 -4.09342,-2.04671 -4.26399,-1.53503 -8.52797,-3.07007 -12.79196,-4.6051 -1.87615,-0.51168 -3.7523,-1.02336 -5.62846,-1.53504 -1.51027,0.82816 -2.93296,1.02336 -4.6051,1.02336 -1.02336,0.34112 -2.04671,0.68224 -3.07007,1.02336 -0.68224,-0.68224 -1.36447,-1.36448 -2.04671,-2.04672 -1.19392,-2.04671 -2.38783,-4.09342 -3.58175,-6.14014 4.26399,-1.36447 8.52797,-2.72895 12.79196,-4.09342 0.85279,-0.17056 1.70559,-0.34112 2.55839,-0.51168 5.79902,0.34112 11.59804,0.68224 17.39706,1.02336 3.72964,-0.30494 7.23123,2.04671 10.74524,2.04671 0.68223,0.17056 1.36447,0.34112 2.04671,0.51168 -0.34112,-1.02336 -0.68224,-2.04671 -1.02336,-3.07007 0,-1.02336 0,-2.04671 0,-3.07007 -1.34999,-5.51136 -2.94417,-10.95007 -4.6051,-16.3737 -0.51168,-0.8528 -1.02336,-1.7056 -1.53503,-2.55839 -2.89951,-4.77567 -5.79902,-9.55133 -8.69853,-14.32699 -2.89951,-4.60511 -5.79902,-9.21021 -8.69853,-13.81531 -0.68224,-0.68224 -1.36448,-1.36448 -2.04672,-2.04672 -1.70559,-2.38783 -3.41118,-4.77566 -5.11678,-7.16349 -0.68224,-0.68224 -1.36447,-1.36448 -2.04671,-2.04671 -0.51168,-1.19392 -1.02336,-2.38784 -1.53504,-3.58175 -0.34111,-0.68224 -0.68223,-1.36448 -1.02335,-2.04671 -0.34112,-0.34112 -0.68224,-0.68224 -1.02336,-1.02336 -0.64631,-4.01043 -0.21929,-8.11386 0,-12.28028 1.02336,0 2.04671,0 3.07007,0 1.7056,0.8528 3.41119,1.7056 5.11678,2.55839 2.21728,1.36448 4.43455,2.72895 6.65182,4.09343 -0.005,-0.68849 0.4233,-0.72333 1.02336,-1.02336 -0.17056,-2.38783 -0.34112,-4.77566 -0.51168,-7.16349 -0.4241,-2.97902 0.86381,-6.45924 -0.51168,-9.21021 0.34112,-0.8528 0.68224,-1.70559 1.02336,-2.55839 0.68223,-1.02336 1.36447,-2.04671 2.04671,-3.07007 0.66747,0.15069 1.24387,0.28082 1.8658,0.42123 2.34705,3.14974 5.18492,5.91235 7.85608,8.78898 0.51168,0.34112 1.02336,0.68224 1.53504,1.02336 1.19391,1.53503 2.38783,3.07006 3.58175,4.6051 0.17056,-1.87615 0.34111,-3.75231 0.51167,-5.62846 0.51168,-1.36448 1.02336,-2.72895 1.53504,-4.09343 0.83444,-0.0102 1.08954,-0.86679 1.53503,-1.53503 1.53504,0 3.07007,0 4.60511,0 1.19391,1.36447 2.38783,2.72895 3.58174,4.09342 0.51168,1.02336 1.02336,2.04672 1.53504,3.07007 0.9762,3.56476 2.7926,7.02162 3.07007,10.74525 1.36447,4.6051 2.72895,9.2102 4.09342,13.81531 0.68224,2.21727 1.36448,4.43454 2.04672,6.65181 0.17056,0.8528 0.34112,1.7056 0.51167,2.55839 0,0.34112 0,0.68224 0,1.02336 0.34112,-1.19392 0.68224,-2.38783 1.02336,-3.58175 1.53504,-2.89951 3.07007,-5.79902 4.6051,-8.69853 2.9978,0.83184 6.13028,1.61072 9.21021,2.55839 0.17056,0.34112 0.34112,0.68224 0.51168,1.02336 0,1.70559 0,3.41119 0,5.11678 -0.68224,1.53504 -1.36447,3.07007 -2.04671,4.60511 0.0584,2.56774 -0.27952,5.12143 -0.51168,7.67517 -0.51168,3.24063 -1.02336,6.48126 -1.53504,9.72188 -0.17055,2.89951 -0.34111,5.79902 -0.51167,8.69853 -0.51168,2.5584 -1.02336,5.11679 -1.53504,7.67518 -0.17056,0.68223 -0.34112,1.36447 -0.51168,2.04671 0.8528,-1.02336 1.7056,-2.04671 2.55839,-3.07007 3.24063,-2.55839 6.48126,-5.11678 9.72189,-7.67517 1.36448,-1.19392 2.72895,-2.38783 4.09343,-3.58175 1.70559,0.17056 3.41118,0.34112 5.11678,0.51168 -0.005,0.68848 0.4233,0.72333 1.02335,1.02336 0.51168,0.85279 1.02336,1.70559 1.53504,2.55839 -0.8528,2.21727 -1.7056,4.43454 -2.55839,6.65181 -1.36448,2.55839 -2.72895,5.11678 -4.09343,7.67518 -2.04671,2.8995 -4.09342,5.79901 -6.14014,8.69852 -0.34111,0.68224 -0.68223,1.36448 -1.02335,2.04672 -0.17056,0.17056 -0.34112,0.34112 -0.51168,0.51168 1.36447,-0.68224 2.72895,-1.36448 4.09342,-2.04672 3.58175,-2.04671 7.1635,-4.09342 10.74525,-6.14014 1.19391,-0.51167 2.38783,-1.02335 3.58174,-1.53503 1.23969,-0.21464 1.83665,-0.318 2.69407,-0.46645 0.69458,0.17724 1.38093,0.35238 2.1824,0.5569 0.65198,0.15469 1.12337,0.26654 1.77535,0.42123 1.19392,1.02335 2.38783,2.04671 3.58175,3.07007 0.51168,0.34112 1.02335,0.68223 1.53503,1.02335 -2.38783,2.04672 -4.77566,4.09343 -7.16349,6.14014 -3.41119,2.04671 -6.82238,4.09343 -10.23357,6.14014 -2.21727,1.19392 -4.43454,2.38783 -6.65181,3.58175 -3.07007,2.72895 -6.14014,5.4579 -9.21021,8.18685 -1.53503,1.19391 -3.07007,2.38783 -4.6051,3.58175 0.0284,1.78609 -0.91461,3.46231 -1.53504,5.11678 0.17056,0.68224 0.34112,1.36447 0.51168,2.04671 0.34112,0.51168 0.68224,1.02336 1.02336,1.53503 0.17056,1.36448 0.34112,2.72896 0.51167,4.09343 0.51168,1.02336 1.02336,2.04671 1.53504,3.07007 0,0.68224 0,1.36447 0,2.04671 0.68224,1.36448 1.36447,2.72895 2.04671,4.09343 3.40054,-2.08936 6.80102,-4.17869 10.20159,-6.26806 0.51168,-0.68224 1.02335,-1.36447 1.53503,-2.04671 2.55839,-0.8528 5.11679,-1.7056 7.67518,-2.5584 1.70559,1.066 3.41117,2.13199 5.11678,3.19799 -0.50103,2.04672 -1.00204,4.09342 -1.50306,6.14014 -0.34112,1.02336 -0.68224,2.04672 -1.02336,3.07007 -3.07007,1.36448 -6.14013,2.72895 -9.2102,4.09343 -1.7056,0.51168 -3.41119,1.02335 -5.11679,1.53503 -2.21553,0.60098 -4.26098,1.26878 -6.14013,2.55839 0,1.02336 0,2.04672 0,3.07007 0.51167,1.02336 1.02335,2.04672 1.53503,3.07007 0.8528,3.07007 1.7056,6.14014 2.55839,9.21021 0.91729,0.86343 0.82313,2.38038 1.02336,3.58175 1.02335,4.09342 2.04671,8.18685 3.07007,12.28027 0,0.34112 0,0.68224 0,1.02336 1.02335,-0.17056 2.04671,-0.34112 3.07007,-0.51168 3.41118,-2.21727 6.82237,-4.43454 10.23356,-6.65182 0.8528,0 1.70559,0 2.55839,0 0.17056,1.02336 0.34112,2.04672 0.51168,3.07007 0.4623,2.84451 0.54619,2.47216 1.53503,0 -0.0539,-1.78071 1.55726,-3.20351 2.5584,-4.6051 0.85279,-1.02336 1.70559,-2.04671 2.55839,-3.07007 1.55342,-3.10568 3.70177,-2.67273 7.67517,-3.07007 1.36448,0 2.72894,0 4.09342,0 -0.17056,1.19392 -0.34111,2.38783 -0.51167,3.58175 -2.04672,3.24063 -4.09343,6.48126 -6.14014,9.72188 -1.02336,1.53504 -2.04671,3.07007 -3.07007,4.60511 -1.36448,1.70559 -2.72895,3.41119 -4.09343,5.11678 -1.70559,2.04671 -3.41118,4.09343 -5.11678,6.14014 -0.51168,1.02335 -1.02336,2.04671 -1.53503,3.07007 -0.8528,1.36447 -1.7056,2.72895 -2.55839,4.09342 -0.51168,1.7056 -1.02336,3.41119 -1.53504,5.11678 0.17056,1.7056 0.34112,3.41119 0.51168,5.11679 0.8576,4.48409 -1.56297,10.17769 0.51168,14.32699 -1.10811,2.21615 -1.53504,9.78158 -1.53504,22.51384 0.17056,0.68223 0.34112,1.36447 0.51168,2.04671 0.8528,-1.53504 1.7056,-3.07007 2.55839,-4.6051 1.36448,-1.36448 2.72895,-2.72896 4.09343,-4.09343 1.77408,-3.15833 1.60844,-6.76192 3.58175,-9.72189 0.17055,-0.85279 0.34111,-1.70559 0.51167,-2.55839 0.8528,-2.21727 1.7056,-4.43454 2.55839,-6.65181 1.02336,-1.87616 2.04672,-3.75231 3.07007,-5.62846 0.8528,-1.87616 1.7056,-3.75231 2.55839,-5.62846 0.8528,-0.68224 1.7056,-1.36448 2.5584,-2.04672 2.8995,-2.21727 5.79901,-4.43454 8.69852,-6.65181 0.8528,-0.34112 1.7056,-0.68224 2.5584,-1.02336 1.70559,-1.36447 3.41118,-2.72895 5.11678,-4.09342 0.51168,-0.34112 1.02335,-0.68224 1.53503,-1.02336 0,-0.68224 0,-1.36448 0,-2.04671 2.146,-4.29201 1.83689,-4.29038 3.07007,-6.14014 1.53504,-0.34112 3.07007,-0.68224 4.6051,-1.02336 1.02336,0.34112 2.04672,0.68224 3.07007,1.02336 1.19392,0.68224 2.38784,1.36447 3.58175,2.04671 0.17056,1.02336 0.34112,2.04671 0.51168,3.07007 -0.51168,3.41119 -1.02336,6.82238 -1.53504,10.23356 -0.68223,1.36448 -1.36447,2.72895 -2.04671,4.09343 -0.68224,0.8528 -1.36447,1.70559 -2.04671,2.55839 -2.21727,4.43454 -4.43455,8.86909 -6.65182,13.30363 -0.51168,0.51168 -1.02335,1.02336 -1.53503,1.53504 -2.04671,4.77566 -4.09342,9.55132 -6.14014,14.32699 -0.51167,1.02335 -1.02336,2.04671 -1.53503,3.07007 -1.36448,3.7523 -2.72896,7.50461 -4.09343,11.25692 -0.51168,1.87615 -1.02336,3.7523 -1.53503,5.62846 -1.72668,2.47785 -2.5592,5.37485 -3.58175,8.18685 -0.91676,1.74823 -1.74624,3.33003 -2.75027,5.2447 -1.42433,1.26088 -2.67337,2.36659 -3.90155,3.45383 -1.70559,1.87615 -3.41119,3.7523 -5.11678,5.62846 -0.28416,0.28416 -8.06984,5.11678 -10.23356,5.11678 z"
         sodipodi:nodetypes="ccccccccccccccccccccccccccccccccccccccccccccccccccccccccccccccccccccccccccccccccccccccccccccccccccccccccccccccccccccccccccccccccccccccccccccccccccccccccccccccccccccccccccccccccccccccccccccccccccccccccccccccccccccccccccccccccccccccccccccc"
         inkscape:label="Outline" />
    </g>
  </g>
</svg>
