<?xml version="1.0" encoding="UTF-8" standalone="no"?>
<!-- Created with Inkscape (http://www.inkscape.org/) -->

<svg
   version="1.1"
   id="svg1"
   width="793.59998"
   height="559.35999"
   viewBox="0 0 793.59998 559.35999"
   sodipodi:docname="Rose.svg"
   inkscape:version="1.4 (86a8ad7, 2024-10-11)"
   xmlns:inkscape="http://www.inkscape.org/namespaces/inkscape"
   xmlns:sodipodi="http://sodipodi.sourceforge.net/DTD/sodipodi-0.dtd"
   xmlns="http://www.w3.org/2000/svg"
   xmlns:svg="http://www.w3.org/2000/svg">
  <defs
     id="defs1">
    <inkscape:path-effect
       effect="bspline"
       id="path-effect17"
       is_visible="true"
       lpeversion="1.3"
       weight="33.333333"
       steps="2"
       helper_size="0"
       apply_no_weight="true"
       apply_with_weight="true"
       only_selected="false"
       uniform="false" />
    <inkscape:path-effect
       effect="bspline"
       id="path-effect14"
       is_visible="true"
       lpeversion="1.3"
       weight="33.333333"
       steps="2"
       helper_size="0"
       apply_no_weight="true"
       apply_with_weight="true"
       only_selected="false"
       uniform="false" />
    <inkscape:path-effect
       effect="bspline"
       id="path-effect13"
       is_visible="true"
       lpeversion="1.3"
       weight="33.333333"
       steps="2"
       helper_size="0"
       apply_no_weight="true"
       apply_with_weight="true"
       only_selected="false"
       uniform="false" />
    <inkscape:path-effect
       effect="bspline"
       id="path-effect12"
       is_visible="true"
       lpeversion="1.3"
       weight="33.333333"
       steps="2"
       helper_size="0"
       apply_no_weight="true"
       apply_with_weight="true"
       only_selected="false"
       uniform="false" />
    <inkscape:path-effect
       effect="bspline"
       id="path-effect11"
       is_visible="true"
       lpeversion="1.3"
       weight="33.333333"
       steps="2"
       helper_size="0"
       apply_no_weight="true"
       apply_with_weight="true"
       only_selected="false"
       uniform="false" />
    <inkscape:path-effect
       effect="bspline"
       id="path-effect8"
       is_visible="true"
       lpeversion="1.3"
       weight="33.333333"
       steps="2"
       helper_size="0"
       apply_no_weight="true"
       apply_with_weight="true"
       only_selected="false"
       uniform="false" />
    <inkscape:path-effect
       effect="bspline"
       id="path-effect7"
       is_visible="true"
       lpeversion="1.3"
       weight="33.333333"
       steps="2"
       helper_size="0"
       apply_no_weight="true"
       apply_with_weight="true"
       only_selected="false"
       uniform="false" />
    <inkscape:path-effect
       effect="bspline"
       id="path-effect6"
       is_visible="true"
       lpeversion="1.3"
       weight="33.333333"
       steps="2"
       helper_size="0"
       apply_no_weight="true"
       apply_with_weight="true"
       only_selected="false"
       uniform="false" />
    <inkscape:path-effect
       effect="bspline"
       id="path-effect5"
       is_visible="true"
       lpeversion="1.3"
       weight="33.333333"
       steps="2"
       helper_size="0"
       apply_no_weight="true"
       apply_with_weight="true"
       only_selected="false"
       uniform="false" />
    <inkscape:path-effect
       effect="bspline"
       id="path-effect4"
       is_visible="true"
       lpeversion="1.3"
       weight="33.333333"
       steps="2"
       helper_size="0"
       apply_no_weight="true"
       apply_with_weight="true"
       only_selected="false"
       uniform="false" />
    <inkscape:path-effect
       effect="bspline"
       id="path-effect3"
       is_visible="true"
       lpeversion="1.3"
       weight="33.333333"
       steps="2"
       helper_size="0"
       apply_no_weight="true"
       apply_with_weight="true"
       only_selected="false"
       uniform="false" />
    <inkscape:path-effect
       effect="bspline"
       id="path-effect2"
       is_visible="true"
       lpeversion="1.3"
       weight="33.333333"
       steps="2"
       helper_size="0"
       apply_no_weight="true"
       apply_with_weight="true"
       only_selected="false"
       uniform="false" />
    <inkscape:path-effect
       effect="bspline"
       id="path-effect1"
       is_visible="true"
       lpeversion="1.3"
       weight="33.333333"
       steps="2"
       helper_size="0"
       apply_no_weight="true"
       apply_with_weight="true"
       only_selected="false"
       uniform="false" />
  </defs>
  <sodipodi:namedview
     id="namedview1"
     pagecolor="#ffffff"
     bordercolor="#111111"
     borderopacity="1"
     inkscape:showpageshadow="0"
     inkscape:pageopacity="0"
     inkscape:pagecheckerboard="1"
     inkscape:deskcolor="#d1d1d1"
     inkscape:zoom="0.69096827"
     inkscape:cx="219.98116"
     inkscape:cy="282.93629"
     inkscape:window-width="1920"
     inkscape:window-height="991"
     inkscape:window-x="-9"
     inkscape:window-y="-9"
     inkscape:window-maximized="1"
     inkscape:current-layer="g1" />
  <g
     inkscape:groupmode="layer"
     inkscape:label="Image"
     id="g1">
    <g
       id="g17"
       transform="matrix(1.5869579,0,0,1.2897777,-248.16114,-20.902215)">
      <path
         style="display:inline;fill:#44a94e;fill-opacity:0.964706;stroke:none;stroke-width:1.72532;stroke-dasharray:none;stroke-opacity:1"
         d="m 411.99213,204.69441 c 0.0912,-1.5119 0.27343,-4.53317 0.22062,-6.05804 -0.0528,-1.52488 -0.3407,-1.54824 -4.07269,-1.3807 -3.73199,0.16755 -10.77017,0.51909 -14.45522,0.80171 -3.68505,0.28263 -3.72247,0.47756 -4.79647,6.26239 -1.07401,5.78482 -0.55826,3.0053 -1.30896,9.65563 -0.7507,6.65033 -0.7507,8.60463 -0.7507,12.86862 0,4.26398 0,9.2102 0,14.03712 0,4.82693 0,4.20061 0.50973,14.58945 0.50974,10.38883 1.52921,19.89748 0.76168,24.16151 -0.76752,4.26402 -3.32205,3.2833 -4.99939,2.59289 -1.67734,-0.6904 -6.15808,-2.93077 -7.70133,-3.57389 -1.54324,-0.64313 -3.7718,-1.50027 -5.46673,-2.1784 -1.69493,-0.67813 -2.88885,-1.18981 -4.3507,-1.96458 -1.46184,-0.77477 -3.14469,-1.78448 -4.76429,-3.40437 -1.61959,-1.61988 -3.15463,-3.83716 -6.48054,-5.45747 -3.3259,-1.62032 -8.44269,-2.64367 -11.51276,-2.89951 -3.07006,-0.25584 -4.09342,0.25584 -5.36673,1.0829 -1.2733,0.82706 -2.38562,1.6613 -4.82014,3.57247 -2.43452,1.91117 -5.84571,4.64012 -8.65994,6.68683 -2.81423,2.04671 -5.0315,3.41119 -7.33405,4.94622 -2.30255,1.53503 -4.69039,3.24063 -6.48126,4.43454 -1.79087,1.19392 -2.98479,1.87616 -4.09342,2.64368 -1.10864,0.76752 -2.132,1.62032 -3.80189,3.14059 -1.6699,1.52027 -5.77277,5.3952 -7.6799,7.31008 -1.90713,1.91488 -2.93048,3.1088 -3.87166,4.30705 -0.94118,1.19826 -1.67745,2.22905 -2.75597,3.75603 -1.07852,1.52698 -2.27243,3.23257 -3.03995,4.68232 -0.76752,1.44976 -1.10863,2.64367 -1.79087,4.34927 -0.68224,1.70559 -1.70559,3.92286 -2.21727,6.3107 -0.51168,2.38783 -0.51168,4.94622 -0.59696,8.01629 -0.0853,3.07007 -0.25584,6.65181 0.59696,8.52796 0.85279,1.87616 2.72895,2.04672 5.75743,2.2124 3.02849,0.16568 7.82157,0.35003 10.5834,0.007 2.76182,-0.34314 3.95573,-1.19593 5.23493,-2.30457 1.27919,-1.10864 2.64367,-2.47311 3.60399,-3.43344 0.96033,-0.96033 1.34443,-1.34442 2.15349,-2.0682 0.80906,-0.72378 1.83241,-1.57657 3.02633,-2.77049 1.19391,-1.19392 2.55839,-2.72895 3.58174,-3.92287 1.02336,-1.19391 1.7056,-2.04671 2.64368,-2.89951 0.93807,-0.8528 2.13199,-1.70559 4.30232,-3.52027 2.17034,-1.81467 4.58596,-3.9461 6.92155,-6.60889 2.3356,-2.66279 3.87063,-5.22118 6.08791,-7.60901 2.21727,-2.38784 5.11678,-4.60511 6.82237,-5.8843 1.70559,-1.2792 2.21727,-1.62032 2.89951,-1.87616 0.68224,-0.25584 1.53503,-0.4264 3.07006,-1.19392 1.53504,-0.76751 3.75232,-2.13199 5.45791,-2.8995 1.70559,-0.76752 2.89951,-0.93808 3.83028,-1.10681 0.93076,-0.16874 1.57777,-0.33049 3.42155,-0.23728 1.84378,0.0932 4.34622,0.40601 6.39339,0.74725 2.04716,0.34123 3.51914,0.70923 4.57356,0.86623 1.05443,0.15701 1.90723,0.15701 3.18642,0.41285 1.2792,0.25584 2.98479,0.76751 5.2319,1.53503 2.24712,0.76751 5.03576,1.79087 6.55192,2.66807 1.51616,0.8772 1.75984,1.60824 1.74746,5.76563 -0.0124,4.15738 -0.28082,11.74111 -0.28486,17.02537 -0.004,5.28426 0.25633,8.26904 0.4049,10.37972 0.14857,2.11068 0.18534,3.34723 -0.0267,9.72673 -0.21206,6.3795 -0.74479,19.69774 -1.04896,22.62043 -0.30416,2.92269 -0.88276,8.02483 -1.0015,11.76982 -0.11874,3.745 0.22238,6.13283 0.10129,9.70511 -0.12109,3.57229 -0.70439,8.32903 -1.11713,12.93503 -0.41274,4.606 -0.65492,9.06123 -0.0938,13.50612 0.56115,4.44489 1.92562,8.87943 2.8637,11.69366 0.93807,2.81423 1.44975,4.00815 1.79087,4.86095 0.34112,0.8528 0.51168,1.36448 0.59696,1.79088 0.0853,0.42639 0.0853,0.76751 4.63224,0.41087 4.54696,-0.35664 13.64066,-1.41102 18.01502,-4.50618 4.37436,-3.09516 4.04572,-7.98536 3.94793,-12.15931 -0.0978,-4.17395 0.0728,-7.07345 0.0161,-9.3391 -0.0566,-2.26565 -0.93965,-7.34311 -1.3796,-10.98143 -0.43994,-3.63831 -0.43994,-5.85558 -0.43994,-13.04827 0,-7.1927 0,-5.12692 0,-13.46466 0,-8.33774 0,-10.04334 0,-11.40999 0,-1.36665 0,-2.25671 2.47311,-5.81765 2.47311,-3.56094 7.41933,-9.53052 11.00108,-13.28282 3.58175,-3.75231 5.79902,-5.28735 7.84574,-6.7371 2.04671,-1.44976 3.92286,-2.81423 5.69737,-4.0541 1.77452,-1.23986 2.989,-2.04951 5.21235,-2.53682 2.22335,-0.4873 4.9523,-0.31674 7.55114,0.52815 2.59883,0.84488 4.44967,1.98386 6.82634,3.00412 2.37667,1.02025 3.88752,1.39796 7.23855,1.86123 3.35104,0.46327 7.04402,0.77102 10.28465,1.11214 3.24063,0.34112 5.62848,0.68224 7.33877,0.76673 1.71029,0.0845 2.69352,-0.0794 5.01143,-0.67889 2.31791,-0.59952 5.89966,-1.62287 8.79917,-2.81679 2.89951,-1.19392 5.11678,-2.55839 6.69119,-3.70708 1.57441,-1.14869 2.50595,-2.0816 3.87043,-3.53135 1.36447,-1.44976 3.16187,-3.41636 4.57225,-4.91134 1.41039,-1.49498 2.43375,-2.51834 1.92207,-3.79754 -0.51168,-1.27919 -2.55839,-2.81422 -4.60511,-4.34926 -2.04671,-1.53503 -4.09342,-3.07007 -5.67186,-4.15478 -1.57844,-1.08471 -2.84949,-1.81102 -7.35041,-3.12919 -4.50093,-1.31818 -4.56259,-1.3336 -8.56212,-2.39743 -3.99952,-1.06384 -7.58126,-2.0872 -12.44221,-2.51359 -4.86094,-0.4264 -11.00108,-0.25585 -14.6166,0.12121 -3.61551,0.37706 -4.63332,0.92152 -6.96213,2.6442 -2.32882,1.72269 -5.84909,4.54939 -8.15446,6.50715 -2.30537,1.95775 -3.29664,2.94902 -4.07853,3.91992 -0.78189,0.97089 -1.21175,1.68732 -1.48083,2.4769 -0.26908,0.78959 -0.26908,1.47183 -2.05995,3.09215 -1.79088,1.62031 -5.37262,4.1787 -8.37025,6.75084 -2.99762,2.57214 -5.37315,5.11735 -8.09542,7.41275 -2.72227,2.29539 -5.79233,4.3421 -7.75376,5.70658 -1.96144,1.36447 -2.81424,2.04671 -3.49647,2.64367 -0.68224,0.59695 -1.19392,1.10863 -1.44976,0.51168 -0.25584,-0.59696 -0.25584,-2.30256 -0.34112,-3.92287 -0.0853,-1.62032 -0.25584,-3.15535 -0.76898,-7.00345 -0.51314,-3.84809 -1.3562,-9.91817 -1.61036,-16.30669 -0.25416,-6.38852 0.0971,-12.97637 0.41173,-17.0698 0.3146,-4.09343 0.41051,-4.64523 0.11984,-7.66188 -0.29068,-3.01665 -0.50781,-3.72295 -0.73714,-5.68438 -0.22932,-1.96144 -0.0588,-3.8376 0.28236,-9.80718 0.34112,-5.96958 0.85279,-16.03258 1.10863,-22.85496 0.25584,-6.82237 0.25584,-10.40412 0.25584,-13.04779 0,-2.64367 0,-4.34926 -0.0882,-7.76034 -0.0882,-3.41108 -0.25068,-8.12286 -0.11257,-11.22669 0.13812,-3.10382 0.72389,-4.66589 0.97402,-5.33291 0.25013,-0.66701 0.25013,-0.66703 0.34132,-2.17893 z"
         id="path2"
         inkscape:path-effect="#path-effect2"
         inkscape:original-d="m 411.90094,206.20631 c 0.18239,-3.0238 0.36462,-6.04507 0.54716,-9.07143 -0.28815,-0.0234 -0.57605,-0.0468 -0.86372,-0.0701 -7.17631,0.35844 -14.21449,0.70998 -21.54638,1.07619 -0.0382,0.19904 -0.0759,0.39392 -0.11228,0.58491 -2.16821,11.36816 -1.59561,8.59919 -3.09701,16.69066 0,5.20919 0,7.16349 0,10.74524 0,4.94622 0,9.89244 0,14.83867 -1.56924,4.70762 1.87819,4.0813 0,15.35034 1.01947,9.50863 2.03894,19.01728 3.05842,28.52606 -2.55453,-0.98073 -5.10906,-1.96145 -7.66352,-2.94215 -0.71487,-0.57081 -5.06617,-3.07007 -6.14014,-3.07007 -2.05644,-1.30091 -4.57113,-1.41413 -6.65182,-2.55839 -1.19391,-0.51168 -2.38783,-1.02336 -3.58175,-1.53503 -1.53913,-1.3556 -3.33397,-2.17866 -5.11678,-3.07007 -1.53503,-2.21727 -3.07007,-4.43455 -4.6051,-6.65182 -5.11678,-1.02336 -10.23357,-2.04671 -15.35035,-3.07007 -1.02335,0.51168 -2.04671,1.02336 -3.07007,1.53504 -0.99967,1.84055 -2.3412,2.36918 -4.09342,3.07007 -3.41119,2.72895 -6.82238,5.4579 -10.23357,8.18685 -2.21727,1.36447 -4.43454,2.72895 -6.65181,4.09342 -2.38783,1.7056 -4.77567,3.41119 -7.1635,5.11678 -1.19391,0.68224 -2.38783,1.36448 -3.58174,2.04672 -1.02336,0.85279 -2.04672,1.70559 -3.07007,2.55839 -3.43763,1.00061 -6.57463,5.89823 -9.21021,8.69853 -1.02336,1.19391 -2.04671,2.38783 -3.07007,3.58174 -1.55441,0.70588 -1.92487,1.99796 -2.55839,3.58175 -1.19392,1.7056 -2.38783,3.41119 -3.58175,5.11678 -0.34112,1.19392 -0.68224,2.38783 -1.02335,3.58175 -1.02336,2.21727 -2.04672,4.43454 -3.07007,6.65182 0,2.55839 0,5.11678 0,7.67517 -0.17056,3.58175 -0.34112,7.16349 -0.51168,10.74524 1.87615,0.17056 3.75231,0.34112 5.62846,0.51168 4.14168,1.17843 8.9675,0.51168 13.30363,0.51168 1.19392,-0.8528 2.38783,-1.7056 3.58175,-2.55839 1.36447,-1.36448 2.72895,-2.72895 4.09342,-4.09343 0.84324,-0.26912 1.13853,-0.74202 1.53504,-1.53503 1.02336,-0.8528 2.04671,-1.7056 3.07007,-2.55839 1.36447,-1.53504 2.72895,-3.07007 4.09342,-4.60511 0.68224,-0.85279 1.36448,-1.70559 2.04672,-2.55839 1.19391,-0.8528 2.38783,-1.70559 3.58174,-2.55839 4.34708,-1.41619 6.13576,-4.25814 8.69853,-7.67517 1.53504,-2.55839 3.07007,-5.11678 4.60511,-7.67517 2.89951,-2.21728 5.79902,-4.43455 8.69853,-6.65182 0.51167,-0.34112 1.02335,-0.68224 1.53503,-1.02336 0.8528,-0.17056 1.70559,-0.34112 2.55839,-0.51168 2.21727,-1.36447 4.43455,-2.72895 6.65182,-4.09342 1.19391,-0.17056 2.38783,-0.34112 3.58174,-0.51168 0.5324,-0.70779 1.26887,-0.51168 2.04672,-0.51168 2.95547,0.36944 5.45791,0.68224 8.18685,1.02336 1.3593,0.36573 3.02578,-0.0443 4.09342,1.02336 0.8528,0 1.7056,0 2.55839,0 1.7056,0.51167 3.41119,1.02335 5.11679,1.53503 2.78863,1.02335 5.57727,2.04671 8.36591,3.07007 0.24368,0.73104 0.48736,1.46208 0.73104,2.19312 -0.26844,7.58373 -0.53688,15.16746 -0.80532,22.75119 0.26036,2.98479 0.52073,5.96957 0.78109,8.95436 0.0368,1.23657 0.0735,2.47312 0.11033,3.70968 -2.0832,11.45755 -1.0808,24.83719 -1.02336,25.58391 -0.5786,5.10215 -1.1572,10.20429 -1.7358,15.30644 0.34112,2.38784 0.68224,4.77567 1.02336,7.1635 -0.5833,4.75674 -1.1666,9.51348 -1.7499,14.27023 -0.24218,4.45525 -0.48436,8.91048 -0.72654,13.36572 1.36448,4.43454 2.72896,8.86908 4.09343,13.30363 0.51168,1.19391 1.02336,2.38783 1.53503,3.58175 0.17056,0.51168 0.34112,1.02336 0.51168,1.53504 0,0.34111 0,0.68223 0,1.02335 9.09392,-1.05441 18.18762,-2.10878 27.28149,-3.16318 -2.77398,-4.97269 -1.59093,-9.96449 -1.03994,-15.47451 0.17056,-2.89951 0.34112,-5.79901 0.51168,-8.69852 -0.87903,-1.52827 -0.0974,-6.89524 -2.04671,-11.7686 0,-2.21728 0,-4.43455 0,-6.65182 -1.09105,-12.16812 -9.3e-4,-10.10234 0,-25.07223 0,-1.70559 0,-3.41119 0,-5.11678 0.71847,-1.02771 0.28808,-1.91777 0,-3.07007 4.94622,-5.96958 9.89244,-11.93916 14.83867,-17.90874 2.21727,-1.53503 4.43454,-3.07007 6.65181,-4.6051 1.87616,-1.36448 3.75231,-2.72895 5.62846,-4.09343 1.38879,-1.54139 2.95098,-1.82947 4.60511,-3.07007 2.72895,0.17056 5.4579,0.34112 8.18685,0.51168 1.87327,2.48682 3.91716,3.3121 6.65182,4.09343 2.17034,1.60823 3.67043,2.02897 6.14013,1.53503 4.49387,0.37449 8.18685,0.68224 12.28028,1.02336 2.38783,0.34112 4.77568,0.68224 7.16349,1.02335 0.95284,-0.65169 1.98672,-0.51167 3.07007,-0.51167 3.58175,-1.02336 7.1635,-2.04672 10.74525,-3.07007 2.21727,-1.36448 4.43454,-2.72895 6.65181,-4.09343 0.93155,-0.9329 1.86309,-1.86581 2.79464,-2.79871 1.7974,-1.96661 3.5948,-3.93321 5.39221,-5.89982 1.02336,-1.02335 2.04672,-2.04671 3.07007,-3.07007 -2.04671,-1.53503 -4.09342,-3.07007 -6.14014,-4.6051 -2.04671,-1.53503 -4.09342,-3.07007 -6.14013,-4.6051 -1.38077,-0.16084 -2.46697,-1.21063 -3.58175,-2.04672 -7.89419,-1.57884 -7.6912,-2.65287 -12.28028,-3.07007 -3.58175,-1.02335 -7.16349,-2.04671 -10.74524,-3.07006 -6.14014,0.17055 -12.28028,0.34111 -18.42041,0.51167 -1.0909,0.58356 -2.10871,1.12801 -3.20779,1.71595 -3.33354,3.13765 -6.98513,5.80082 -10.60753,8.51762 -0.92926,1.2348 -1.74104,2.40556 -3.07007,3.07007 -0.22083,1.15273 -0.77263,1.79599 -1.53503,2.55839 0,0.68223 0,1.36447 0,2.04671 -3.58175,2.55839 -7.16349,5.11678 -10.74524,7.67517 -2.58323,2.42748 -4.93213,4.99754 -7.1635,7.67518 -3.07007,2.04671 -6.14013,4.09342 -9.2102,6.14013 -0.8528,0.68224 -1.7056,1.36448 -2.55839,2.04672 -0.51168,0.51167 -1.02336,1.02335 -1.53504,1.53503 0,-1.70559 0,-3.41119 0,-5.11678 -0.17056,-1.53504 -0.34112,-3.07007 -0.51168,-4.6051 -1.37765,-6.08867 -1.86809,-12.20773 -2.55839,-18.42042 0.35129,-6.58786 0.70257,-13.17571 1.05386,-19.76357 0.27792,-1.599 0.37383,-2.1508 0.83376,-4.79698 -1.04128,-3.38712 -1.25841,-4.09342 -1.88762,-6.14014 0.17056,-1.87615 0.34112,-3.75231 0.51168,-5.62846 0.51168,-10.06301 1.02336,-20.12601 1.53503,-30.18901 0,-3.58175 0,-7.1635 0,-10.74525 0,-1.70559 0,-3.41118 0,-5.11678 -1.27527,-5.07867 -1.5219,-9.78755 -0.51167,-14.83866 0.98311,-0.99704 1.14235,-2.71906 1.53503,-4.09343 z"
         sodipodi:nodetypes="ccccccscccccccccccccccccccccccccccccccccccccccccccccccccccccccccccccccccscccccccccccccccccsccccccccccccccccsccccccscccc"
         transform="matrix(0.88178199,0,0,1.000781,54.740891,-0.24450441)"
         inkscape:label="Stem color" />
      <path
         style="fill:#349c3e;fill-opacity:0.968627;stroke:none;stroke-width:1.8;stroke-dasharray:none;stroke-opacity:1"
         d="m 312.16008,336.52203 c 0.32412,-1.60554 2.73619,-4.25882 4.81567,-6.51713 2.07948,-2.2583 3.97357,-4.27867 5.40939,-5.95493 1.43582,-1.67627 2.52125,-3.12351 3.48607,-4.26924 0.96483,-1.14574 1.80906,-1.98997 2.41208,-2.71359 0.60301,-0.72362 0.96483,-1.32664 1.44724,-1.98996 0.48242,-0.66332 1.08543,-1.38694 2.11057,-2.59298 1.02513,-1.20604 2.47237,-2.89449 3.4975,-4.22113 1.02513,-1.32664 1.62815,-2.29147 2.29147,-3.19599 0.66332,-0.90453 1.38695,-1.74876 1.92966,-2.29148 0.54272,-0.54271 0.90453,-0.78392 1.38695,-1.20604 0.48241,-0.42211 1.08543,-1.02513 1.44724,-1.44724 0.36181,-0.42211 0.48242,-0.66332 0.90453,-1.14573 0.42211,-0.48242 1.14573,-1.20604 2.41207,-2.35178 1.26634,-1.14573 3.0754,-2.71358 4.46234,-3.73871 1.38694,-1.02513 2.35177,-1.50755 3.07539,-1.92966 0.72363,-0.42212 1.20604,-0.78393 1.68845,-0.96483 0.48242,-0.18091 0.96483,-0.18091 1.56785,-0.30151 0.60302,-0.12061 1.32664,-0.36181 2.59062,-0.74018 1.26398,-0.37836 2.83273,-0.82657 3.79947,-1.06833 0.96674,-0.24175 1.20795,-0.24175 1.56976,-0.30205 0.36181,-0.0603 0.84422,-0.18091 2.05026,0.1206 1.20604,0.30151 3.1357,1.02513 3.34675,1.64322 0.21106,0.6181 -1.29648,1.13066 -3.91208,2.56284 -2.6156,1.43217 -6.33737,3.78276 -9.23331,5.91701 -2.89593,2.13424 -4.95953,4.04721 -7.53025,7.25861 -2.57072,3.2114 -5.64959,7.72406 -7.76596,10.24665 -2.11636,2.5226 -3.27717,3.06531 -4.90532,4.51256 -1.62815,1.44724 -3.72363,3.79901 -5.48766,5.78349 -1.76402,1.98449 -7.7461,8.7376 -9.98606,10.59017 -2.23995,1.85258 -3.95855,2.44052 -5.69976,2.45559 -1.74122,0.0151 -3.50506,-0.54272 -3.18093,-2.14825 z"
         id="path11"
         inkscape:path-effect="#path-effect12"
         inkscape:original-d="m 310.07213,337.56977 c 2.41207,-2.65328 4.82414,-5.30656 7.23622,-7.95984 1.39839,-2.19004 3.5795,-3.94132 5.42717,-5.78898 1.08543,-1.44725 2.17086,-2.89449 3.2563,-4.34173 0.84422,-0.84423 1.68845,-1.68846 2.53267,-2.53268 0.36181,-0.60302 0.72363,-1.20604 1.08544,-1.80906 0.60302,-0.72362 1.20603,-1.44724 1.80905,-2.17086 1.44725,-1.68846 2.89449,-3.37691 4.34174,-5.06536 0.60301,-0.96483 1.20603,-1.92966 1.80905,-2.89449 0.72362,-0.84422 1.44725,-1.68845 2.17087,-2.53268 0.36181,-0.2412 0.72362,-0.48241 1.08543,-0.72362 0.60302,-0.60302 1.20604,-1.20604 1.80906,-1.80905 0.1206,-0.24121 0.2412,-0.48242 0.36181,-0.72363 0.72362,-0.72362 1.44724,-1.44724 2.17086,-2.17086 1.80906,-1.56785 3.61812,-3.1357 5.42717,-4.70355 0.96483,-0.48241 1.92966,-0.96483 2.89449,-1.44724 0.48242,-0.36181 0.96483,-0.72362 1.44724,-1.08544 0.48242,0 0.96483,0 1.44725,0 0.72362,-0.2412 1.44724,-0.48241 2.17087,-0.72362 1.89331,-0.20411 3.5278,-0.42221 5.06535,-1.44724 0.24121,0 0.48242,0 0.72362,0 0.48242,-0.12061 0.96483,-0.24121 1.44725,-0.36181 1.92966,0.72362 3.85932,1.44724 5.78898,2.17086 -1.50755,0.51257 -3.01509,1.02513 -4.52264,1.5377 -3.72365,2.35178 -7.44542,4.70237 -11.17092,7.05532 -2.06637,1.91554 -4.12997,3.82851 -6.19602,5.74375 -3.07539,4.50756 -6.15426,9.02022 -9.22618,13.52269 -1.16081,0.54272 -2.32162,1.08543 -3.48243,1.62815 -2.09549,2.35177 -4.19097,4.70354 -6.28647,7.05532 -1.38371,1.66045 -7.20717,8.55407 -10.17593,11.4875 -1.71861,0.58795 -3.43721,1.17589 -5.15581,1.76383 -1.76383,-0.55779 -3.52767,-1.11559 -5.29149,-1.67338 z"
         sodipodi:nodetypes="cccccccccccccccccccccccccccccccc"
         inkscape:label="Stem shadow1" />
      <path
         style="fill:#349c3e;fill-opacity:0.968627;stroke:none;stroke-width:1.8;stroke-dasharray:none;stroke-opacity:1"
         d="m 453.35807,320.27593 c 1.3179,-1.64094 7.34808,-4.29422 11.56921,-5.86207 4.22113,-1.56785 6.63321,-2.05026 8.62317,-2.29147 1.98996,-0.24121 3.55781,-0.24121 6.6935,-0.96483 3.1357,-0.72362 7.83925,-2.17087 10.49253,-3.01509 2.65328,-0.84423 3.2563,-1.08543 3.97992,-1.56785 0.72362,-0.48241 1.56785,-1.20604 2.47237,-1.92966 0.90453,-0.72362 1.86936,-1.44724 2.70324,-2.0859 0.83388,-0.63866 1.53681,-1.19234 3.2652,-0.41176 1.72839,0.78059 5.08648,3.35951 6.30222,4.73096 1.21575,1.37144 1.49771,2.46356 0.41803,4.57047 -1.07969,2.1069 -3.52103,5.2286 -6.14567,7.77194 -2.62465,2.54333 -5.3462,4.44785 -8.45718,5.99112 -3.11099,1.54326 -6.09766,2.49563 -10.96556,2.66725 -4.8679,0.17162 -11.10259,-0.54494 -15.73317,-1.49993 -4.63057,-0.95499 -7.55414,-2.18496 -10.47801,-3.03344 -2.92388,-0.84847 -6.0577,-1.42881 -4.7398,-3.06974 z"
         id="path12"
         inkscape:path-effect="#path-effect13"
         inkscape:original-d="m 448.64578,321.28827 c 6.03019,-2.65328 12.06037,-5.30656 18.09056,-7.95984 2.41207,-0.48242 4.82415,-0.96483 7.23622,-1.44725 1.56785,0 3.1357,0 4.70355,0 4.70354,-1.44724 9.40709,-2.89449 14.11063,-4.34173 0.60302,-0.24121 1.20604,-0.48242 1.80906,-0.72362 0.84422,-0.72363 1.68845,-1.44725 2.53267,-2.17087 0.96483,-0.72362 1.92966,-1.44724 2.89449,-2.17087 0.70293,-0.55369 1.40586,-1.10737 2.1088,-1.66107 2.75384,2.11487 6.11193,4.69379 8.26145,6.34456 0.28197,1.09212 0.56393,2.18424 0.8459,3.27636 -2.44134,3.12169 -4.88268,6.24339 -7.32401,9.36508 -2.80796,1.96498 -5.52951,3.8695 -8.42386,5.89494 -3.32762,1.06109 -6.31429,2.01346 -9.68488,3.08826 -6.36521,-0.73157 -12.5999,-1.44813 -19.09573,-2.1947 -2.76532,-1.1634 -5.68889,-2.39337 -8.29595,-3.49019 -2.99539,-1.92472 -6.30092,-1.57787 -9.7689,-1.80906 z"
         sodipodi:nodetypes="ccccccccccccccccc"
         inkscape:label="Stem shadow2" />
      <path
         style="fill:#349c3e;fill-opacity:0.968627;stroke:none;stroke-width:1.8;stroke-dasharray:none;stroke-opacity:1"
         d="m 409.69078,427.66074 c -0.48241,-0.24121 -0.48241,-0.84423 -0.48241,-0.84423 0,0 0,0.60302 -0.13188,-2.2605 -0.13187,-2.86351 -0.78847,-18.62186 -0.87101,-22.29131 -0.0825,-3.66945 -0.0825,-7.04636 -0.25796,-11.19069 -0.17542,-4.14432 -0.57188,-9.69481 -0.74095,-12.96625 -0.16906,-3.27144 -0.16906,-5.0805 -0.20765,-8.06889 -0.0386,-2.98838 -0.29173,-16.65761 0.0753,-25.29069 0.367,-8.63309 0.29616,-7.19261 0.57699,-17.43861 0.28084,-10.246 0.44898,-22.59006 0.40449,-35.32966 -0.0445,-12.7396 -0.1955,-20.13052 -0.55186,-37.0039 -0.35635,-16.87338 -0.48601,-22.789 -0.54378,-32.1466 -0.0578,-9.3576 0.0689,-16.08854 1.12394,-19.77381 1.05506,-3.68527 3.05963,-4.22875 4.81798,-4.56727 1.75836,-0.33851 3.18082,-0.45705 3.96475,-0.45705 0.78392,0 0.90453,0.12061 1.02513,0.18091 0.1206,0.0603 0.24121,0.0603 0.24121,0.1809 0,0.12061 -0.12061,0.36182 -0.12061,1.26634 0,0.90453 0.12061,2.47238 0.12061,3.73872 0,1.26634 -0.12061,2.23117 -0.34782,3.29552 -0.22721,1.06434 -0.5597,2.22358 -0.63797,6.4363 -0.0783,4.21273 0.0985,11.39497 -0.0285,19.34301 -0.12698,7.94804 -0.5405,16.22042 -0.82591,24.72624 -0.28542,8.50581 -0.1422,0.0485 -0.24396,27.61396 -0.10177,27.56549 -0.27627,4.60092 0.24634,20.64891 0.52261,16.04799 1.26773,23.86221 1.61006,25.95057 0.34232,2.08836 0.87525,4.69489 2.70766,4.93435 1.8324,0.23946 4.91356,-1.89463 8.91337,-5.45683 3.9998,-3.56221 8.89578,-8.53677 13.79204,-13.51163 2.93946,-1.39222 6.45287,-3.05628 8.28684,-3.0072 1.83397,0.0491 3.71384,1.80787 4.72136,2.60875 1.00751,0.80089 1.33912,0.83624 1.201,1.3522 -0.13812,0.51596 -0.86501,1.73495 -2.14642,2.25804 -1.28141,0.52309 -3.98189,0.73155 -6.54729,1.68572 -2.5654,0.95418 -5.32964,2.67982 -8.5913,5.43251 -3.26166,2.75269 -7.02061,6.53234 -10.32856,10.77679 -3.30794,4.24446 -6.16479,8.95362 -7.65416,14.7213 -1.48937,5.76767 -1.61125,12.59468 -1.41633,21.45221 0.19492,8.85753 0.71076,19.83605 0.92282,27.5631 0.21206,7.72704 0.12866,12.38013 -0.27454,15.5085 -0.40319,3.12838 -1.12618,4.73218 -2.74431,6.13313 -1.61812,1.40095 -4.13135,2.59904 -5.87038,3.25839 -1.73904,0.65935 -2.70387,0.77996 -3.18629,0.53875 z"
         id="path13"
         inkscape:path-effect="#path-effect14"
         inkscape:original-d="m 409.20837,428.02255 c 0,-0.60302 0,-1.20604 0,-1.80906 0,0.60302 0,1.20604 0,1.80906 0,-6.34104 -0.10346,-22.12244 -1.08543,-26.0504 0,-3.3769 0,-6.75381 0,-10.13071 -1.64193,-4.81953 0.7782,-10.5712 -1.08543,-15.19607 0,-1.80905 0,-3.61811 0,-5.42716 -1.03753,-4.14994 -0.78914,-17.82845 -0.36182,-19.53781 0,-15.60296 1.08544,-14.10561 1.08544,-22.07047 0.42504,-12.5429 0.36513,-24.89006 0.51168,-37.5644 -0.26163,-12.80522 -0.41263,-20.19614 -0.78304,-38.32549 -0.3423,-15.61741 -0.47195,-21.53303 -0.72362,-33.01526 0.13611,-7.23297 0.26278,-13.96391 0.39137,-20.79722 1.98152,-0.53723 3.98609,-1.08071 6.03077,-1.63507 1.47203,-0.12267 2.89449,-0.24121 4.34174,-0.36181 0.1206,0.1206 0.24121,0.24121 0.36181,0.36181 0.1206,0 0.24121,0 0.36181,0 -0.1206,0.24121 -0.24121,0.48242 -0.36181,0.72362 0.1206,1.56785 0.24121,3.1357 0.36181,4.70355 -0.1206,0.96483 -0.24121,1.92966 -0.36181,2.89449 -0.33382,1.16386 -0.66631,2.3231 -1.00141,3.49142 0.17857,7.25713 0.35529,14.43937 0.53363,21.68737 -0.4323,8.64808 -0.84582,16.92046 -1.27343,25.47476 -0.14322,8.45733 0,0 -0.42966,25.37201 0.22613,29.75896 0.0516,6.79439 0.22613,29.75896 0.87072,9.13141 1.61584,16.94563 1.76383,18.4976 0.53666,2.62475 1.06959,5.23128 1.60998,7.87426 3.12442,-2.16406 6.20558,-4.29815 9.30864,-6.44741 4.89655,-4.97515 14.68879,-14.92457 14.68879,-14.92457 0,0 6.45287,-3.05628 8.81837,-4.17666 1.30244,1.21855 3.18231,2.97733 4.85538,4.54264 0.34196,0.0365 0.67357,0.0718 0.9924,0.1058 -0.59507,0.99793 -1.32196,2.21692 -1.85224,3.1062 -2.03254,0.1569 -4.73302,0.36536 -7.09953,0.54804 -2.76429,1.72566 -5.52853,3.45131 -8.29283,5.17698 -3.75902,3.77971 -7.51797,7.55936 -11.27698,11.33906 -2.85688,4.70921 -5.71373,9.41837 -8.57061,14.12758 -0.12186,6.82614 -0.24374,13.65315 -0.36558,20.47837 0.51168,10.88984 1.02752,21.86836 1.53503,32.66961 -0.0834,4.65284 -0.16679,9.30593 -0.25019,13.95889 -0.72299,1.60379 -1.44598,3.20759 -2.16898,4.81139 -2.51325,1.1981 -5.02648,2.39619 -7.53972,3.59429 -0.96483,0.1206 -1.92966,0.24121 -2.89449,0.36181 z"
         sodipodi:nodetypes="cccccccccccscccccccccsscccccccccccccscccccc"
         inkscape:label="Stem shadow 3" />
      <path
         style="display:inline;fill:none;fill-opacity:0.964706;stroke:#000000;stroke-width:1.72532;stroke-dasharray:none;stroke-opacity:1"
         d="m 411.99213,204.69441 c 0.0912,-1.5119 0.27343,-4.53317 0.22062,-6.05804 -0.0528,-1.52488 -0.3407,-1.54824 -4.07269,-1.3807 -3.73199,0.16755 -10.77017,0.51909 -14.45522,0.80171 -3.68505,0.28263 -3.72247,0.47756 -4.79647,6.26239 -1.07401,5.78482 -0.55826,3.0053 -1.30896,9.65563 -0.7507,6.65033 -0.7507,8.60463 -0.7507,12.86862 0,4.26398 0,9.2102 0,14.03712 0,4.82693 0,4.20061 0.50973,14.58945 0.50974,10.38883 1.52921,19.89748 0.76168,24.16151 -0.76752,4.26402 -3.32205,3.2833 -4.99939,2.59289 -1.67734,-0.6904 -6.15808,-2.93077 -7.70133,-3.57389 -1.54324,-0.64313 -3.7718,-1.50027 -5.46673,-2.1784 -1.69493,-0.67813 -2.88885,-1.18981 -4.3507,-1.96458 -1.46184,-0.77477 -3.14469,-1.78448 -4.76429,-3.40437 -1.61959,-1.61988 -3.15463,-3.83716 -6.48054,-5.45747 -3.3259,-1.62032 -8.44269,-2.64367 -11.51276,-2.89951 -3.07006,-0.25584 -4.09342,0.25584 -5.36673,1.0829 -1.2733,0.82706 -2.38562,1.6613 -4.82014,3.57247 -2.43452,1.91117 -5.84571,4.64012 -8.65994,6.68683 -2.81423,2.04671 -5.0315,3.41119 -7.33405,4.94622 -2.30255,1.53503 -4.69039,3.24063 -7.02288,4.88167 -2.33248,1.64104 -4.49904,3.14097 -6.76132,4.99919 -2.26227,1.85822 -6.36514,5.73315 -8.27227,7.64803 -1.90713,1.91488 -2.93048,3.1088 -3.87166,4.30705 -0.94118,1.19826 -1.67745,2.22905 -2.96903,4.43326 -1.29157,2.20421 -2.74481,4.94922 -4.0224,7.50458 -1.2776,2.55537 -2.30095,4.77264 -2.81263,7.16048 -0.51168,2.38783 -0.51168,4.94622 -0.59696,8.01629 -0.0853,3.07007 -0.25584,6.65181 0.59696,8.52796 0.85279,1.87616 2.72895,2.04672 5.75743,2.2124 3.02849,0.16568 7.82157,0.35003 10.5834,0.007 2.76182,-0.34314 3.95573,-1.19593 5.47144,-2.54108 1.51572,-1.34515 3.50007,-3.3295 4.91505,-4.65921 1.41498,-1.3297 2.43833,-2.18249 3.97845,-3.80874 1.54011,-1.62624 3.58452,-4.01137 5.2009,-5.62711 1.61639,-1.61574 2.81031,-2.46853 4.00422,-3.15077 1.19392,-0.68224 2.38783,-1.19391 5.35173,-4.8133 2.96391,-3.61939 3.84309,-4.86875 7.34726,-8.89682 3.50416,-4.02806 6.40367,-6.24533 8.53016,-7.60774 2.12649,-1.36241 3.41337,-1.84499 5.24854,-2.79968 1.83517,-0.95469 4.05245,-2.31917 5.75804,-3.08668 1.70559,-0.76752 2.89951,-0.93808 7.16348,-0.51168 4.26398,0.42639 11.59808,1.44976 16.65941,2.47311 5.06133,1.02335 7.84997,2.04671 9.36613,2.92391 1.51616,0.8772 1.75984,1.60824 1.74746,5.76563 -0.0124,4.15738 -0.28082,11.74111 -0.2663,17.646 0.0145,5.90489 0.31147,10.12368 0.22952,17.9945 -0.082,7.87082 -0.61469,21.18906 -0.91886,24.11175 -0.30416,2.92269 -0.88276,8.02483 -1.29204,14.11555 -0.40929,6.09072 -0.65239,13.26246 -0.20481,21.36337 0.44757,8.1009 1.51803,16.58002 2.35277,21.76253 0.83474,5.18252 1.34642,6.37644 1.68754,7.22924 0.34112,0.8528 0.51168,1.36448 0.59696,1.79088 0.0853,0.42639 0.0853,0.76751 4.63224,0.41087 4.54696,-0.35664 13.64066,-1.41102 18.01502,-4.50618 4.37436,-3.09516 4.04572,-7.98536 3.60371,-14.16201 -0.44201,-6.17664 -1.01699,-13.84316 -1.23808,-22.07835 -0.22109,-8.23519 -0.22109,-18.80988 -0.22109,-24.95001 0,-6.14014 0,-7.84574 0,-9.21239 0,-1.36665 0,-2.25671 2.47311,-5.81765 2.47311,-3.56094 7.41933,-9.53052 11.00108,-13.28282 3.58175,-3.75231 5.79902,-5.28735 7.84574,-6.7371 2.04671,-1.44976 3.92286,-2.81423 5.69737,-4.0541 1.77452,-1.23986 2.989,-2.04951 5.21235,-2.53682 2.22335,-0.4873 4.9523,-0.31674 7.55114,0.52815 2.59883,0.84488 4.44967,1.98386 6.82634,3.00412 2.37667,1.02025 3.88752,1.39796 7.23855,1.86123 3.35104,0.46327 7.04402,0.77102 10.28465,1.11214 3.24063,0.34112 5.62848,0.68224 7.33877,0.76673 1.71029,0.0845 2.69352,-0.0794 5.01143,-0.67889 2.31791,-0.59952 5.89966,-1.62287 8.79917,-2.81679 2.89951,-1.19392 5.11678,-2.55839 6.69119,-3.70708 1.57441,-1.14869 2.50595,-2.0816 3.87043,-3.53135 1.36447,-1.44976 3.16187,-3.41636 4.57225,-4.91134 1.41039,-1.49498 2.43375,-2.51834 1.92207,-3.79754 -0.51168,-1.27919 -2.55839,-2.81422 -4.60511,-4.34926 -2.04671,-1.53503 -4.09342,-3.07007 -5.67186,-4.15478 -1.57844,-1.08471 -2.84949,-1.81102 -3.87615,-2.23931 -1.02667,-0.42829 -1.87947,-0.59884 -2.98811,-0.85468 -1.10863,-0.25584 -2.4731,-0.59696 -4.14843,-1.03836 -1.67532,-0.44141 -3.41994,-0.91721 -6.15965,-1.68766 -2.73971,-0.77045 -6.32145,-1.79381 -11.1824,-2.2202 -4.86094,-0.4264 -11.00108,-0.25585 -14.6166,0.12121 -3.61551,0.37706 -4.63332,0.92152 -6.96213,2.6442 -2.32882,1.72269 -5.84909,4.54939 -8.15446,6.50715 -2.30537,1.95775 -3.29664,2.94902 -4.07853,3.91992 -0.78189,0.97089 -1.21175,1.68732 -1.48083,2.4769 -0.26908,0.78959 -0.26908,1.47183 -2.05995,3.09215 -1.79088,1.62031 -5.37262,4.1787 -7.9383,6.2327 -2.56568,2.05401 -4.17068,3.659 -5.32233,4.89592 -1.15164,1.23693 -2.00444,2.26029 -3.96587,3.79533 -1.96144,1.53503 -5.0315,3.58174 -6.99293,4.94622 -1.96144,1.36447 -2.81424,2.04671 -3.49647,2.64367 -0.68224,0.59695 -1.19392,1.10863 -1.44976,0.51168 -0.25584,-0.59696 -0.25584,-2.30256 -0.34112,-3.92287 -0.0853,-1.62032 -0.25584,-3.15535 -0.76898,-7.00345 -0.51314,-3.84809 -1.3562,-9.91817 -1.61036,-16.30669 -0.25416,-6.38852 0.0971,-12.97637 0.096,-18.10498 -0.001,-5.12861 -0.33646,-8.60867 -0.43367,-11.4406 -0.0972,-2.83192 0.0734,-4.70808 0.41448,-10.67766 0.34112,-5.96958 0.85279,-16.03258 1.10863,-22.85496 0.25584,-6.82237 0.25584,-10.40412 0.25584,-13.04779 0,-2.64367 0,-4.34926 -0.0882,-7.76034 -0.0882,-3.41108 -0.25068,-8.12286 -0.12014,-11.20649 0.13054,-3.08363 0.73146,-4.68609 0.98159,-5.35311 0.25013,-0.66701 0.25013,-0.66703 0.34132,-2.17893 z"
         id="path16"
         inkscape:path-effect="#path-effect17"
         inkscape:original-d="m 411.90094,206.20631 c 0.18239,-3.0238 0.36462,-6.04507 0.54716,-9.07143 -0.28815,-0.0234 -0.57605,-0.0468 -0.86372,-0.0701 -7.17631,0.35844 -14.21449,0.70998 -21.54638,1.07619 -0.0382,0.19904 -0.0759,0.39392 -0.11228,0.58491 -2.16821,11.36816 -1.59561,8.59919 -3.09701,16.69066 0,5.20919 0,7.16349 0,10.74524 0,4.94622 0,9.89244 0,14.83867 -1.56924,4.70762 1.87819,4.0813 0,15.35034 1.01947,9.50863 2.03894,19.01728 3.05842,28.52606 -2.55453,-0.98073 -5.10906,-1.96145 -7.66352,-2.94215 -0.71487,-0.57081 -5.06617,-3.07007 -6.14014,-3.07007 -2.05644,-1.30091 -4.57113,-1.41413 -6.65182,-2.55839 -1.19391,-0.51168 -2.38783,-1.02336 -3.58175,-1.53503 -1.53913,-1.3556 -3.33397,-2.17866 -5.11678,-3.07007 -1.53503,-2.21727 -3.07007,-4.43455 -4.6051,-6.65182 -5.11678,-1.02336 -10.23357,-2.04671 -15.35035,-3.07007 -1.02335,0.51168 -2.04671,1.02336 -3.07007,1.53504 -0.99967,1.84055 -2.3412,2.36918 -4.09342,3.07007 -3.41119,2.72895 -6.82238,5.4579 -10.23357,8.18685 -2.21727,1.36447 -4.43454,2.72895 -6.65181,4.09342 -2.38783,1.7056 -4.77567,3.41119 -7.1635,5.11678 -2.53741,1.20055 -4.58042,2.87894 -6.65181,4.60511 -3.43763,1.00061 -6.57463,5.89823 -9.21021,8.69853 -1.02336,1.19391 -2.04671,2.38783 -3.07007,3.58174 -1.55441,0.70588 -1.92487,1.99796 -2.55839,3.58175 -2.309,2.69531 -3.68577,5.4808 -4.6051,8.69853 -1.02336,2.21727 -2.04672,4.43454 -3.07007,6.65182 0,2.55839 0,5.11678 0,7.67517 -0.17056,3.58175 -0.34112,7.16349 -0.51168,10.74524 1.87615,0.17056 3.75231,0.34112 5.62846,0.51168 4.14168,1.17843 8.9675,0.51168 13.30363,0.51168 1.19392,-0.8528 2.38783,-1.7056 3.58175,-2.55839 1.6528,-2.02221 4.06081,-3.5829 5.62846,-5.62846 1.02336,-0.8528 2.04671,-1.7056 3.07007,-2.55839 2.14001,-2.32843 4.18191,-4.71571 6.14014,-7.1635 1.19391,-0.8528 2.38783,-1.70559 3.58174,-2.55839 1.19392,-0.51168 2.38783,-1.02335 3.58175,-1.53503 4.24337,-7.07228 6.03881,-7.67687 9.72189,-13.81531 2.89951,-2.21728 5.79902,-4.43455 8.69853,-6.65182 1.15823,-1.02819 2.55164,-1.22668 4.09342,-1.53504 2.21727,-1.36447 4.43455,-2.72895 6.65182,-4.09342 1.19391,-0.17056 2.38783,-0.34112 3.58174,-0.51168 7.33404,1.02335 14.66814,2.04672 22.00217,3.07007 2.78863,1.02335 5.57727,2.04671 8.36591,3.07007 0.24368,0.73104 0.48736,1.46208 0.73104,2.19312 -0.26844,7.58373 -0.53688,15.16746 -0.80532,22.75119 0.41424,4.21783 0.76546,8.4328 0.89142,12.66404 -2.0832,11.45755 -1.0808,24.83719 -1.02336,25.58391 -0.5786,5.10215 -1.1572,10.20429 -1.7358,15.30644 1.69728,7.14496 0.15161,14.27254 -0.72654,21.43373 -1.83388,9.39438 0.60724,17.70045 3.36689,26.66935 0.51168,1.19391 1.02336,2.38783 1.53503,3.58175 0.17056,0.51168 0.34112,1.02336 0.51168,1.53504 0,0.34111 0,0.68223 0,1.02335 9.09392,-1.05441 18.18762,-2.10878 27.28149,-3.16318 -2.77398,-4.97269 -1.59093,-9.96449 -1.03994,-15.47451 0.41027,-6.97451 0.76747,-14.71094 -1.53503,-20.46712 0,-10.57468 0,-21.14937 0,-31.72405 0,-1.70559 0,-3.41119 0,-5.11678 0.71847,-1.02771 0.28808,-1.91777 0,-3.07007 4.94622,-5.96958 9.89244,-11.93916 14.83867,-17.90874 2.21727,-1.53503 4.43454,-3.07007 6.65181,-4.6051 1.87616,-1.36448 3.75231,-2.72895 5.62846,-4.09343 1.38879,-1.54139 2.95098,-1.82947 4.60511,-3.07007 2.72895,0.17056 5.4579,0.34112 8.18685,0.51168 1.87327,2.48682 3.91716,3.3121 6.65182,4.09343 2.17034,1.60823 3.67043,2.02897 6.14013,1.53503 4.49387,0.37449 8.18685,0.68224 12.28028,1.02336 2.38783,0.34112 4.77568,0.68224 7.16349,1.02335 0.95284,-0.65169 1.98672,-0.51167 3.07007,-0.51167 3.58175,-1.02336 7.1635,-2.04672 10.74525,-3.07007 2.21727,-1.36448 4.43454,-2.72895 6.65181,-4.09343 0.93155,-0.9329 1.86309,-1.86581 2.79464,-2.79871 1.7974,-1.96661 3.5948,-3.93321 5.39221,-5.89982 1.02336,-1.02335 2.04672,-2.04671 3.07007,-3.07007 -2.04671,-1.53503 -4.09342,-3.07007 -6.14014,-4.6051 -2.04671,-1.53503 -4.09342,-3.07007 -6.14013,-4.6051 -1.38077,-0.16084 -2.46697,-1.21063 -3.58175,-2.04672 -0.8528,-0.17056 -1.7056,-0.34112 -2.55839,-0.51167 -1.36448,-0.34112 -2.72895,-0.68224 -4.09343,-1.02336 -1.85866,-1.00923 -3.58964,-1.53504 -5.62846,-1.53504 -3.58175,-1.02335 -7.16349,-2.04671 -10.74524,-3.07006 -6.14014,0.17055 -12.28028,0.34111 -18.42041,0.51167 -1.0909,0.58356 -2.10871,1.12801 -3.20779,1.71595 -3.33354,3.13765 -6.98513,5.80082 -10.60753,8.51762 -0.92926,1.2348 -1.74104,2.40556 -3.07007,3.07007 -0.22083,1.15273 -0.77263,1.79599 -1.53503,2.55839 0,0.68223 0,1.36447 0,2.04671 -3.58175,2.55839 -7.16349,5.11678 -10.74524,7.67517 -1.53537,1.56386 -2.67111,3.63811 -4.60511,4.60511 -0.85279,1.02335 -1.70559,2.04671 -2.55839,3.07007 -3.07007,2.04671 -6.14013,4.09342 -9.2102,6.14013 -0.8528,0.68224 -1.7056,1.36448 -2.55839,2.04672 -0.51168,0.51167 -1.02336,1.02335 -1.53504,1.53503 0,-1.70559 0,-3.41119 0,-5.11678 -0.17056,-1.53504 -0.34112,-3.07007 -0.51168,-4.6051 -1.37765,-6.08867 -1.86809,-12.20773 -2.55839,-18.42042 0.35129,-6.58786 0.70257,-13.17571 1.05386,-19.76357 1.28646,-3.82739 0.0876,-7.22424 -1.05386,-10.93712 0.17056,-1.87615 0.34112,-3.75231 0.51168,-5.62846 0.51168,-10.06301 1.02336,-20.12601 1.53503,-30.18901 0,-3.58175 0,-7.1635 0,-10.74525 0,-1.70559 0,-3.41118 0,-5.11678 -1.27527,-5.07867 -1.5219,-9.78755 -0.51167,-14.83866 0.43385,-1.15694 1.14235,-2.71906 1.53503,-4.09343 z"
         sodipodi:nodetypes="ccccccscccccccccccccccccccccccccccccccccccccccccccccccccccscccccccccccccccccscccccccccccccccccccscccccscccc"
         transform="matrix(0.88178199,0,0,1.000781,54.740891,-0.24450441)"
         inkscape:label="Stem outline" />
      <path
         style="display:inline;fill:#e93434;fill-opacity:1;stroke:none;stroke-width:1.8;stroke-dasharray:none;stroke-opacity:1"
         d="m 469.12362,145.40188 c -0.76752,0.76752 -1.10864,1.62032 -1.36448,2.81424 -0.25584,1.19391 -0.42639,2.72895 -0.5931,3.82216 -0.1667,1.09321 -0.32762,1.7369 -0.67742,2.79495 -0.34979,1.05806 -0.86147,2.42253 -1.97011,5.32204 -1.10863,2.89951 -2.81423,7.33406 -3.83758,9.97773 -1.02336,2.64367 -1.36448,3.49646 -2.30255,4.94622 -0.93808,1.44975 -2.47312,3.49647 -4.00815,5.4579 -1.53503,1.96143 -3.07007,3.83759 -4.32902,5.28262 -1.25895,1.44502 -2.78788,3.02224 -3.3059,3.4793 -0.51801,0.45706 -2.08969,1.67284 -4.84432,2.98339 -2.75464,1.31054 -4.44843,1.85628 -5.95265,2.42573 -1.50422,0.56946 -2.03524,0.92347 -4.42307,1.34987 -2.38783,0.4264 -6.65182,0.93807 -11.25692,1.53503 -4.6051,0.59696 -9.55132,1.27919 -13.98587,1.44975 -4.43454,0.17056 -8.35741,-0.17055 -11.85388,-0.68223 -3.49646,-0.51168 -6.56653,-1.19392 -8.78381,-1.62032 -2.21727,-0.4264 -3.58174,-0.59695 -5.02851,-1.02202 -1.44677,-0.42508 -2.97279,-1.10331 -4.57579,-1.94455 -1.603,-0.84125 -3.3616,-1.89641 -5.0655,-3.08931 -1.7039,-1.19289 -3.40949,-2.55737 -5.20037,-4.17768 -1.79087,-1.62031 -3.66702,-3.49647 -4.69038,-5.0315 -1.02336,-1.53504 -1.19391,-2.72895 -2.55839,-5.62846 -1.36447,-2.89951 -3.92287,-7.50462 -6.22542,-10.91581 -2.30255,-3.41118 -4.34926,-5.62845 -6.14014,-7.84572 -1.79087,-2.21728 -3.3259,-4.43455 -5.20206,-6.82238 -1.87615,-2.38783 -4.09342,-4.94622 -7.67517,-8.61325 -3.58175,-3.66703 -8.52797,-8.44269 -11.51276,-11.17164 -2.98479,-2.72895 -4.00815,-3.41119 -5.20206,-4.43455 -1.19392,-1.02335 -2.55839,-2.38783 -4.34927,-4.09342 -1.79087,-1.7056 -4.00814,-3.75231 -5.11678,-5.20206 -1.10863,-1.44976 -1.10863,-2.30256 -1.10863,-3.49648 0,-1.19391 0,-2.72894 0.51168,-4.09341 0.51167,-1.36448 1.53503,-2.5584 2.64367,-3.92287 1.10863,-1.36448 2.30255,-2.89951 3.58174,-4.00815 1.2792,-1.10864 2.64367,-1.790872 3.83759,-2.473108 1.19391,-0.682236 2.21727,-1.364476 4.77566,-2.387832 2.55839,-1.023357 6.65182,-2.387834 10.063,-2.899512 3.41119,-0.511677 6.14014,-0.170559 8.61325,0.255841 2.47312,0.426399 4.69039,0.938076 6.05487,1.364475 1.36447,0.426398 1.87615,0.767516 3.66702,1.364473 1.79087,0.596957 4.86094,1.449755 6.22542,1.535035 1.36447,0.08528 1.02336,-0.596956 0.67741,-1.551927 -0.34594,-0.954971 -0.70247,-2.202796 -0.8605,-5.314297 -0.15803,-3.1115 -0.15803,-8.228282 0.18309,-12.065868 0.34112,-3.837587 1.02335,-6.395979 1.96143,-8.698531 0.93808,-2.302551 2.13199,-4.349262 3.07007,-6.054857 0.93808,-1.705595 1.62031,-3.070072 2.52822,-4.319095 0.90791,-1.249024 2.16865,-2.509771 3.46044,-3.956683 1.29178,-1.446913 3.00796,-3.54446 4.40042,-5.102787 1.39246,-1.558328 2.84425,-3.010115 5.56572,-4.622941 2.72146,-1.612826 6.81488,-3.488976 10.81744,-4.852237 4.00256,-1.363261 7.93234,-2.217562 10.7487,-2.729703 2.81636,-0.512142 4.52195,-0.6827 6.73923,-0.93854 2.21727,-0.255839 4.94622,-0.596958 7.4669,-0.684931 2.52068,-0.08797 4.99405,0.0887 8.48546,0.855853 3.49141,0.767157 8.09651,2.131631 11.59298,3.325546 3.49646,1.193914 5.8843,2.217273 8.4184,3.994677 2.53409,1.777405 5.21446,4.308862 6.63756,5.481458 1.4231,1.172596 1.58895,0.986329 2.86173,0.476996 1.27279,-0.509332 3.65252,-1.341736 6.08648,-0.576242 2.43395,0.765495 4.9221,3.128875 8.17745,6.956279 3.25535,3.827404 7.27785,9.118772 9.56093,13.203564 2.28309,4.084792 2.82675,6.962979 3.09858,9.45741 0.27183,2.494431 0.27183,4.6051 0.52767,6.086837 0.25584,1.481737 0.76751,2.334532 1.27919,2.93149 0.51168,0.596959 1.02336,0.938077 1.61227,1.308479 0.58891,0.370402 0.62228,0.390421 2.23395,1.033366 1.61168,0.642945 2.97616,0.813505 3.91423,0.898785 0.93808,0.08528 1.44976,0.08528 2.132,0.255837 0.68223,0.170558 1.53503,0.511678 2.38783,1.023358 0.8528,0.511679 1.70559,1.193914 2.81423,2.046711 1.10863,0.852797 2.47311,1.876156 3.41118,2.814232 0.93808,0.938076 1.44976,1.790869 1.87301,2.970609 0.42325,1.17974 0.76579,2.72116 1.45047,4.69358 0.68468,1.97242 1.70803,4.36025 2.04884,5.72504 0.3408,1.36478 0.10923,1.59636 -0.45691,1.99194 -0.56614,0.39558 -1.24838,0.7367 -1.76005,1.07781 -0.51168,0.34112 -0.8528,0.68224 -1.44976,0.93808 -0.59696,0.25584 -1.44975,0.4264 -2.81423,0.93808 -1.36448,0.51168 -3.24062,1.36447 -4.51982,1.79087 -1.2792,0.4264 -1.96144,0.4264 -3.24064,0.59696 -1.27919,0.17056 -3.15534,0.51167 -4.86094,0.93807 -1.70559,0.4264 -3.24062,0.93808 -4.1787,1.19392 -0.93808,0.25584 -1.2792,0.25584 -1.35714,0.53369 -0.0779,0.27785 0.0486,0.65739 0.40438,1.46897 0.3558,0.81157 0.86748,1.83493 1.29745,2.78194 0.42997,0.947 0.72418,1.68253 0.9999,2.75559 0.27572,1.07306 0.44628,2.26697 0.70209,3.29024 0.2558,1.02328 0.59608,1.87398 0.85238,2.98375 0.25629,1.10977 0.42685,2.47424 0.59741,3.24176 0.17056,0.76752 0.34112,0.93808 0.32702,1.17851 -0.0141,0.24044 -0.26788,0.63663 -0.70017,1.06893 -0.4323,0.43229 -0.74082,0.63341 -2.14527,0.94122 -1.40445,0.30781 -3.79227,0.64892 -5.57482,0.93721 -1.78255,0.28828 -2.5429,0.44035 -3.45025,0.84355 -0.90735,0.4032 -2.10126,1.08544 -2.86878,1.85295 z"
         id="path1"
         inkscape:path-effect="#path-effect1"
         inkscape:original-d="m 468.69722,145.31661 c -0.34112,0.85279 -0.68224,1.70559 -1.02336,2.55839 -0.17056,1.53503 -0.34112,3.07007 -0.51167,4.6051 -0.69622,0.51805 -0.51168,1.2481 -0.51168,2.04671 -0.51168,1.36448 -1.02336,2.72895 -1.53504,4.09343 -1.70559,4.43454 -3.41119,8.86909 -5.11678,13.30363 -0.34112,0.8528 -0.68224,1.70559 -1.02336,2.55839 -1.53503,2.04671 -3.07007,4.09343 -4.6051,6.14014 -1.53503,1.87615 -3.07007,3.75231 -4.6051,5.62846 -0.98287,1.0139 -2.5118,2.59112 -2.94858,3.04169 -0.59925,0.46355 -2.17093,1.67933 -4.04533,3.12928 -3.63487,1.17114 -5.32866,1.71688 -7.84476,2.52756 -0.49234,0.32823 -1.02336,0.68224 -1.53504,1.02336 -4.26398,0.51167 -8.52797,1.02335 -12.79195,1.53503 -4.94622,0.68224 -9.89244,1.36448 -14.83867,2.04671 -3.92286,-0.34112 -7.84573,-0.68223 -11.7686,-1.02335 -3.07006,-0.68224 -6.14013,-1.36448 -9.2102,-2.04672 -1.36448,-0.17056 -2.72895,-0.34111 -4.09343,-0.51167 -1.3425,-1.09935 -2.98841,-1.50782 -4.6051,-2.04672 -1.34737,-1.50793 -3.33602,-2.17968 -5.11678,-3.07007 -1.7056,-1.36447 -3.41119,-2.72895 -5.11679,-4.09342 -1.87615,-1.87615 -3.7523,-3.75231 -5.62846,-5.62846 -0.17056,-1.19392 -0.34111,-2.38783 -0.51167,-3.58175 -2.5584,-4.6051 -5.11679,-9.21021 -7.67518,-13.81531 -2.04671,-2.21727 -4.09342,-4.43454 -6.14014,-6.65182 -1.53503,-2.21727 -3.07006,-4.43454 -4.6051,-6.65181 -2.21727,-2.55839 -4.43454,-5.11678 -6.65182,-7.67518 -4.94622,-4.77566 -9.89244,-9.55132 -14.83866,-14.32698 -1.02336,-0.68224 -2.04672,-1.36448 -3.07007,-2.04672 -1.36448,-1.36447 -2.72895,-2.72895 -4.09343,-4.09342 -2.21727,-2.04672 -4.43454,-4.09343 -6.65181,-6.14014 0,-0.8528 0,-1.7056 0,-2.55839 0,-1.53504 0,-3.07007 0,-4.60511 1.02335,-1.19391 2.04671,-2.38783 3.07007,-3.58174 1.19391,-1.53504 2.38783,-3.07007 3.58174,-4.60511 1.36448,-0.68223 2.72895,-1.364472 4.09343,-2.04671 1.02335,-0.682237 2.04671,-1.364475 3.07007,-2.046713 4.09342,-1.364475 8.18685,-2.72895 12.28027,-4.093425 2.72895,0.341119 5.4579,0.682238 8.18685,1.023356 2.21728,0.511678 4.43455,1.023357 6.65182,1.535035 0.51168,0.341119 1.02336,0.682237 1.53504,1.023356 3.07006,0.852797 6.14013,1.705594 9.2102,2.558391 -0.34112,-0.682237 -0.68223,-1.364475 -1.02335,-2.046713 -0.30065,-1.242024 -0.0927,-2.651128 -1.02336,-3.581747 0,-5.116782 0,-10.233564 0,-15.350346 0.68224,-2.55839 1.36448,-5.116781 2.04671,-7.675172 1.19392,-2.046713 2.38783,-4.093426 3.58175,-6.140139 0.68224,-1.364475 1.36448,-2.72895 2.04671,-4.093425 1.57978,-0.68737 2.50227,-2.286376 3.58175,-3.581747 2.10178,-1.129062 3.24942,-3.691773 4.6051,-5.62846 1.75803,-0.826254 2.84774,-2.64012 4.09343,-4.093426 4.09343,-1.876153 8.18685,-3.752307 12.28028,-5.62846 4.03279,-0.293285 7.88123,-1.521762 11.76859,-2.558391 1.7056,-0.170559 3.41119,-0.341119 5.11679,-0.511678 2.72895,-0.341119 5.4579,-0.682238 8.18685,-1.023357 2.26239,0.865448 4.77365,0.511679 7.16349,0.511679 4.60511,1.364475 9.21021,2.72895 13.81531,4.093425 2.38783,1.023357 4.77567,2.046712 7.1635,3.070069 2.68036,2.531456 5.36073,5.06291 8.04109,7.594364 0.16584,-0.186262 0.33169,-0.372527 0.49753,-0.558789 2.37973,-0.832403 4.75946,-1.664809 7.1392,-2.497216 2.48817,2.363398 4.97632,4.726779 7.4645,7.090181 4.02252,5.291406 8.04502,10.58277 12.06753,15.874163 0.54366,2.878193 1.08732,5.75638 1.63098,8.63457 0,2.110672 0,4.221341 0,6.332017 0.51168,0.852797 1.02335,1.705594 1.53503,2.558391 0.51168,0.341119 1.02336,0.682237 1.53504,1.023356 0.13274,1.288687 0.97834,-0.04502 2.55839,1.535035 1.36447,0.170559 2.72895,0.341119 4.09342,0.511678 0.51168,0 1.02336,0 1.53504,0 0.85279,0.341119 1.70559,0.682238 2.55839,1.023356 0.8528,0.682238 1.70559,1.364475 2.55839,2.046713 1.36447,1.023356 2.72895,2.046713 4.09342,3.070069 0.51168,0.852797 1.02336,1.70559 1.53504,2.55839 0.46563,1.47761 0.76077,3.02956 1.02336,4.6051 1.02335,2.38784 2.04671,4.77567 3.07006,7.1635 -0.68848,-0.005 -0.72332,0.42331 -1.02335,1.02336 -0.68224,0.34111 -1.36448,0.68223 -2.04671,1.02335 -0.34112,0.34112 -0.68224,0.68224 -1.02336,1.02336 -0.8528,0.17056 -1.70559,0.34112 -2.55839,0.51168 -1.87616,0.8528 -3.7523,1.70559 -5.62846,2.55839 -0.68224,0 -1.36448,0 -2.04671,0 -1.87616,0.34112 -3.75231,0.68224 -5.62846,1.02335 -1.53504,0.51168 -3.07007,1.02336 -4.60511,1.53504 -0.34112,0 -0.68224,0 -1.02335,0 0.57961,0.42424 0.51167,0.8686 0.51167,1.53503 0.51168,1.02336 1.02336,2.04672 1.53504,3.07007 -0.13611,1.06441 0.56312,1.63793 1.02335,2.55839 0.17056,1.19392 0.34112,2.38783 0.51168,3.58175 0.46729,0.80213 0.73163,1.68321 1.02336,2.55839 0.17056,1.36448 0.34112,2.72895 0.51168,4.09343 0.17056,0.17056 0.34112,0.34112 0.51168,0.51168 -0.19876,0.31031 -0.45254,0.7065 -0.78351,1.22322 -0.53362,0.34787 -0.84214,0.54899 -1.26321,0.82349 -2.38783,0.34112 -4.77565,0.68223 -7.16349,1.02335 -1.25195,-0.13798 -2.02038,-0.0263 -2.55839,0.51168 -1.19392,0.68224 -2.38783,1.36448 -3.58175,2.04672 z"
         sodipodi:nodetypes="cccccccccccccccccccccccccccccccsccccccccccccccccccccccccccccccccccccccccccccccccccccccccccccccccc"
         inkscape:label="Flower color" />
      <path
         style="display:inline;fill:#bb2525;fill-opacity:1;stroke-width:0.6"
         d="m 402.09378,197.67833 c 0.42639,-1.36447 3.3259,-4.09342 5.20205,-5.88429 1.87615,-1.79088 2.72895,-2.64368 3.66703,-3.92287 0.93808,-1.27919 1.96143,-2.98478 3.24063,-4.51982 1.2792,-1.53503 2.81423,-2.89951 5.03151,-5.4579 2.21727,-2.55839 5.11678,-6.3107 8.10157,-11.00108 2.98479,-4.69038 0.29894,0.23368 3.20861,-4.69038 2.90967,-4.92406 2.16401,-3.75231 3.69904,-6.65182 1.53503,-2.8995 3.41119,-6.82237 5.37262,-9.6366 1.96143,-2.81423 4.00815,-4.51983 5.11679,-5.54318 1.10863,-1.02336 1.27919,-1.36448 1.96143,-1.7056 0.68224,-0.34112 1.87615,-0.68224 4.09343,-0.93808 2.21727,-0.25584 5.45789,-0.4264 8.44268,-0.76752 2.98479,-0.34112 5.71374,-0.85279 8.01629,-1.36447 2.30256,-0.51168 4.17871,-1.02335 5.11679,-1.36447 0.93807,-0.34112 0.93807,-0.51168 0.34111,-1.44976 -0.59696,-0.93808 -1.79087,-2.64367 -2.64366,-3.92287 -0.8528,-1.27919 -1.36448,-2.13199 -2.132,-3.49646 -0.76751,-1.36448 -1.79087,-3.24063 -0.93807,-5.54319 0.85279,-2.30255 3.58174,-5.0315 5.45789,-6.73709 1.87616,-1.7056 2.89952,-2.38784 4.51983,-4.09343 1.62031,-1.70559 3.83759,-4.43454 7.16349,-6.48125 3.32591,-2.04671 7.76046,-3.411192 10.31885,-4.008149 2.55839,-0.596957 3.24063,-0.426397 3.75231,10e-7 0.51167,0.426398 0.85279,1.108634 1.72691,3.635038 0.87411,2.5264 2.28123,6.897 2.30255,9.546 0.0213,2.649 -1.34314,3.57641 -5.47391,4.99953 -4.13078,1.42312 -11.02768,3.34189 -14.54015,4.43987 -3.51248,1.09798 -3.64039,1.37514 -2.76094,4.26933 0.87945,2.89419 2.76625,8.40537 3.62438,11.30488 0.85812,2.89951 0.68757,3.18733 -1.84958,4.21166 -2.53714,1.02433 -7.44087,2.78516 -9.99391,3.70191 -2.55305,0.91675 -2.75545,0.98943 -4.03204,5.01777 -1.27658,4.02834 -3.85019,12.76926 -5.87486,18.17131 -2.02466,5.40205 -3.65726,7.99807 -6.62844,11.62968 -2.97118,3.6316 -7.28094,8.29879 -10.71502,11.02345 -3.43407,2.72467 -5.99245,3.50682 -8.03917,4.10378 -2.04672,0.59696 -3.58175,1.00872 -7.09259,1.73762 -3.51085,0.7289 -6.13005,1.22825 -9.30993,1.68997 -3.17989,0.46172 -5.48672,0.61248 -7.63896,0.73781 -2.15225,0.12533 -4.14989,0.22524 -6.17207,0.27519 -2.02218,0.05 -4.06889,0.05 -3.64249,-1.31452 z"
         id="path3"
         inkscape:path-effect="#path-effect3"
         inkscape:original-d="m 399.62066,199.04281 c 2.89951,-2.72895 5.79902,-5.4579 8.69853,-8.18685 0.8528,-0.85279 1.7056,-1.70559 2.55839,-2.55839 1.02336,-1.70559 2.04672,-3.41118 3.07007,-5.11678 1.53504,-1.36447 3.07007,-2.72895 4.60511,-4.09342 2.89951,-3.75231 5.79902,-7.50462 8.69853,-11.25692 3.07007,-5.62846 0.38422,-0.7044 3.07007,-5.62846 3.13349,-4.92406 2.38783,-3.75231 3.58174,-5.62846 1.87615,-3.92286 3.75231,-7.84573 5.62846,-11.7686 2.04671,-1.70559 4.09343,-3.41119 6.14014,-5.11678 0.17056,-0.34112 0.34112,-0.68224 0.51168,-1.02336 1.19392,-0.34112 2.38783,-0.68224 3.58175,-1.02336 3.24063,-0.17056 6.48125,-0.34112 9.72188,-0.51168 2.72895,-0.51167 5.4579,-1.02335 8.18685,-1.53503 1.87616,-0.51168 3.75231,-1.02336 5.62846,-1.53503 0,-0.17056 0,-0.34112 0,-0.51168 -1.19391,-1.7056 -2.38783,-3.41119 -3.58174,-5.11678 -0.51168,-0.8528 -1.02336,-1.7056 -1.53504,-2.5584 -1.02335,-1.87615 -2.04671,-3.7523 -3.07007,-5.62846 2.72895,-2.72895 5.4579,-5.4579 8.18685,-8.18685 1.02336,-0.68223 2.04672,-1.36447 3.07007,-2.04671 2.21727,-2.72895 4.43455,-5.4579 6.65182,-8.18685 4.43454,-1.36448 8.86909,-2.728951 13.30363,-4.093426 0.68224,0.170559 1.36448,0.341119 2.04671,0.511678 0.34112,0.682238 0.68224,1.364475 1.02336,2.046708 1.40711,4.37057 2.81423,8.74117 4.22135,13.11175 -1.36448,0.92742 -2.72894,1.85483 -4.09343,2.78226 -6.89706,1.91881 -13.79396,3.83758 -20.69099,5.75638 -0.12792,0.27716 -0.25583,0.55432 -0.38375,0.83148 1.88682,5.51122 3.77362,11.0224 5.66043,16.5336 -0.17056,0.28782 -0.34111,0.57564 -0.51167,0.86346 -4.90373,1.76084 -9.80746,3.52167 -14.71113,5.28249 -0.20241,0.0727 -0.40482,0.14537 -0.60724,0.21805 -0.35002,8.57307 -4.53308,16.84012 -7.34109,24.93298 -1.6326,2.59603 -3.2652,5.19205 -4.8978,7.78808 -4.30976,4.66718 -8.61952,9.33437 -12.92928,14.00155 -2.55839,0.78215 -5.11677,1.5643 -7.67517,2.34645 -1.53504,0.41177 -3.07007,0.82353 -4.60511,1.2353 -5.48665,1.04603 -8.10585,1.54538 -12.15878,2.31807 -2.30684,0.15075 -4.61367,0.30151 -6.92051,0.45226 -1.99765,0.0999 -3.99529,0.19982 -5.99294,0.29973 -2.04671,0 -4.09342,0 -6.14014,0 z"
         sodipodi:nodetypes="cccccccccccccccccccccccccccccccccccccccccc"
         inkscape:label="Flower shadow" />
      <path
         style="display:inline;fill:#bb2525;fill-opacity:1;stroke-width:0.6"
         d="m 367.29966,106.08795 c -0.93808,-2.04672 -0.4264,-4.94623 0.0853,-6.651824 0.51168,-1.705594 1.02335,-2.217269 1.44975,-2.728948 0.4264,-0.511679 0.76752,-1.023357 2.04672,-0.767518 1.27919,0.255838 3.49646,1.279193 6.14013,3.070068 2.64368,1.790872 5.71374,4.349262 7.50462,5.799012 1.79087,1.44976 2.30255,1.79088 3.49647,3.75231 1.19391,1.96144 3.07007,5.54319 4.34926,7.84574 1.2792,2.30255 1.96144,3.32591 2.55839,4.69038 0.59696,1.36448 1.10864,3.07007 1.53504,4.26398 0.4264,1.19392 0.76751,1.87616 1.19391,2.89951 0.4264,1.02336 0.93808,2.38784 1.19392,3.66703 0.25584,1.2792 0.25584,2.47311 0.34112,3.24063 0.0853,0.76752 0.25583,1.10864 0.25583,1.44976 10e-6,0.34111 -0.17055,0.68223 -0.34111,1.10863 -0.17056,0.4264 -0.34112,0.93808 -0.4264,1.36448 -0.0853,0.4264 -0.0853,0.76751 -0.8528,-0.25585 -0.76752,-1.02335 -2.30255,-3.41118 -4.51455,-6.38945 -2.21199,-2.97827 -5.16568,-6.62695 -7.02002,-8.73199 -1.85434,-2.10505 -2.70714,-2.78729 -3.38938,-3.46952 -0.68223,-0.68224 -1.19391,-1.36448 -1.87615,-2.04672 -0.68224,-0.68224 -1.53503,-1.36447 -2.38066,-2.04097 -0.84563,-0.67651 -1.64842,-1.31874 -2.61867,-2.28255 -0.97025,-0.96382 -1.99361,-2.15774 -3.6992,-3.35165 -1.70559,-1.19392 -4.09342,-2.38783 -5.0315,-4.43454 z"
         id="path4"
         inkscape:path-effect="#path-effect4"
         inkscape:original-d="m 365.8499,106.94074 c 0.51168,-2.89951 1.02336,-5.79902 1.53504,-8.698528 0.51168,-0.511678 1.02335,-1.023356 1.53503,-1.535035 0.34112,-0.511678 0.68224,-1.023356 1.02336,-1.535034 2.21727,1.023356 4.43454,2.046713 6.65182,3.070069 3.07007,2.558388 6.14013,5.116778 9.2102,7.675168 0.51168,0.34112 1.02336,0.68224 1.53504,1.02336 1.87615,3.58175 3.7523,7.1635 5.62846,10.74524 0.68224,1.02336 1.36447,2.04672 2.04671,3.07007 0.51168,1.7056 1.02336,3.41119 1.53504,5.11678 0.34111,0.68224 0.68223,1.36448 1.02335,2.04672 0.51168,1.36447 1.02336,2.72895 1.53504,4.09342 0,1.19392 0,2.38783 0,3.58175 0.17056,0.34112 0.34111,0.68224 0.51167,1.02336 -0.17056,0.34111 -0.34111,0.68223 -0.51167,1.02335 -0.17056,0.51168 -0.34112,1.02336 -0.51168,1.53504 0,0.34112 0,0.68223 0,1.02335 -1.53504,-2.38783 -3.07007,-4.77566 -4.60511,-7.16349 -2.55505,-3.83901 -5.9412,-7.1376 -8.69852,-10.74524 -0.8528,-0.68224 -1.7056,-1.36448 -2.5584,-2.04672 -0.51167,-0.68223 -1.02335,-1.36447 -1.53503,-2.04671 -0.8528,-0.68224 -1.70559,-1.36447 -2.55839,-2.04671 -0.40237,-1.21588 -1.48402,-1.50953 -2.55839,-2.04671 -1.02336,-1.19392 -2.04672,-2.38784 -3.07007,-3.58175 -2.38783,-1.19392 -4.77566,-2.38783 -7.1635,-3.58175 z"
         sodipodi:nodetypes="ccccccccccccccccccccccccc"
         inkscape:label="Flower shadow2" />
      <path
         style="display:inline;fill:#bb2525;fill-opacity:1;stroke-width:0.6"
         d="m 415.39741,111.03417 c 0.76752,-1.19392 1.96143,-2.38783 2.81423,-3.41119 0.8528,-1.02336 1.36447,-1.87615 1.85476,-2.77145 0.4903,-0.89531 0.74284,-1.40039 1.07052,-1.96739 0.32768,-0.56701 0.64909,-1.04913 1.93198,-1.48105 1.28288,-0.43193 3.50015,-0.77305 5.46158,-1.28473 1.96144,-0.511678 3.66703,-1.193913 6.05486,-1.876149 2.38783,-0.682237 5.4579,-1.364474 7.41933,-1.876153 1.96144,-0.511679 2.81423,-0.852795 4.17871,-1.108635 1.36447,-0.255839 3.24063,-0.426399 4.97152,-0.68786 1.73089,-0.261461 3.19723,-0.587314 4.57075,-1.015724 1.37353,-0.42841 2.56745,-0.940089 4.4436,-2.134003 1.87615,-1.193914 4.43454,-3.070066 5.28734,-4.860941 0.8528,-1.790875 0,-3.496469 -0.8528,-4.860943 -0.85279,-1.364473 -1.70559,-2.387831 -2.31837,-3.148019 -0.61278,-0.760187 -1.23534,-1.59027 -1.84632,-2.205916 -0.61097,-0.615647 -1.29321,-1.127327 -1.89016,-1.724283 -0.59696,-0.596956 -1.10864,-1.279194 -1.53504,-2.131991 -0.4264,-0.852797 -0.76752,-1.876153 -2.21728,-3.496468 -1.44975,-1.620314 -4.00815,-3.837593 -5.8843,-5.713741 -1.87614,-1.876149 -3.07006,-3.411185 -3.66702,-5.0315 -0.59696,-1.620315 -0.59696,-3.325909 1.10863,-4.946223 1.7056,-1.620314 5.11679,-3.155349 7.7438,-3.315819 2.627,-0.16047 4.36221,0.982726 8.12304,5.312057 3.76083,4.329331 9.14144,11.392672 12.32877,17.618093 3.18733,6.22542 4.04012,11.427478 4.46652,15.222425 0.4264,3.794947 0.4264,6.182779 -0.0742,8.377941 -0.50063,2.195162 -1.12316,3.440236 -1.84631,4.801242 -0.72314,1.36101 -1.23481,2.2138 -2.59929,3.57828 -1.36448,1.36448 -3.58175,3.24063 -4.94622,4.26399 -1.36448,1.02335 -1.87616,1.19391 -3.13656,1.82714 -1.2604,0.63322 -3.07211,1.62143 -5.08456,2.45553 -2.01245,0.83411 -4.22972,1.51634 -7.47035,1.94274 -3.24063,0.4264 -7.50461,0.59696 -10.65996,0.68224 -3.15535,0.0853 -5.20206,0.0853 -6.65182,0.25584 -1.44975,0.17056 -2.30255,0.51167 -3.66703,0.85279 -1.36447,0.34112 -3.24062,0.68224 -5.58995,0.7646 -2.34934,0.0823 -4.7264,-0.0662 -6.90227,-0.58596 -2.17588,-0.51975 -3.54036,-1.37255 -4.47843,-1.88423 -0.93808,-0.51168 -1.44976,-0.68224 -1.53504,-1.36448 -0.0853,-0.68223 0.25584,-1.87615 1.02336,-3.07006 z"
         id="path5"
         inkscape:path-effect="#path-effect5"
         inkscape:original-d="m 414.97101,111.03417 c 1.19392,-1.19392 2.38783,-2.38783 3.58175,-3.58175 0.51168,-0.8528 1.02335,-1.70559 1.53503,-2.55839 0.13775,-1.10339 0.3764,-1.61541 1.02336,-2.04671 0.23286,-0.61058 0.57032,-1.082 1.02335,-1.53504 2.21728,-0.34112 4.43455,-0.68224 6.65182,-1.02336 1.7056,-0.682233 3.41119,-1.36447 5.11678,-2.046708 3.07007,-0.682238 6.14014,-1.364475 9.21021,-2.046713 0.8528,-0.341119 1.70559,-0.682237 2.55839,-1.023356 1.87615,-0.17056 3.75231,-0.341119 5.62846,-0.511678 1.52505,-0.624968 2.97527,-1.023357 4.6051,-1.023357 1.19392,-0.511678 2.38784,-1.023356 3.58175,-1.535034 2.55839,-1.876154 5.11678,-3.752307 7.67518,-5.62846 -0.8528,-1.705594 -1.7056,-3.411188 -2.5584,-5.116782 -0.85279,-1.023357 -1.70559,-2.046713 -2.55839,-3.070069 -0.9272,-0.08119 -1.12616,-1.228972 -1.53503,-2.046713 -0.68224,-0.511678 -1.36448,-1.023356 -2.04671,-1.535035 -0.51168,-0.682237 -1.02336,-1.364475 -1.53504,-2.046712 -0.34112,-1.023357 -0.68224,-2.046713 -1.02336,-3.07007 -2.55839,-2.217273 -5.11679,-4.434548 -7.67517,-6.651816 -1.19391,-1.535035 -2.38783,-3.070069 -3.58175,-4.605104 0,-1.705594 0,-3.411188 0,-5.116782 3.41119,-1.535034 6.82238,-3.070069 10.23357,-4.605103 1.84282,1.214096 3.57803,2.357289 5.43658,3.581747 5.66311,7.434208 11.04372,14.497545 16.56558,21.746323 0.8528,5.202064 1.70559,10.404122 2.55839,15.606185 0,2.387831 0,4.775663 0,7.163494 -0.74509,2.130571 -1.00071,3.559103 -2.55839,5.116783 -0.51168,0.8528 -1.02336,1.70559 -1.53503,2.55839 -2.21728,1.87615 -4.43455,3.75231 -6.65182,5.62846 -0.51168,0.17056 -1.02336,0.34112 -1.53503,0.51168 -1.86953,1.35183 -3.28304,3.07007 -5.62846,3.07007 -2.21728,0.68224 -4.43455,1.36447 -6.65182,2.04671 -4.26399,0.17056 -8.52797,0.34112 -12.79196,0.51168 -2.04671,0 -4.09342,0 -6.14013,0 -0.8528,0.34112 -1.7056,0.68224 -2.5584,1.02335 -1.87615,0.34112 -3.7523,0.68224 -5.62846,1.02336 -2.87133,0.60472 -5.21115,-0.13972 -8.18685,-0.51168 -1.36447,-0.85279 -2.72895,-1.70559 -4.09342,-2.55839 -0.51168,-0.17056 -1.02336,-0.34112 -1.53504,-0.51168 0.34112,-1.19391 0.68224,-2.38783 1.02336,-3.58174 z"
         sodipodi:nodetypes="ccccccccccccccccccccccccccccccccccccccccc"
         inkscape:label="Flower shadow3" />
      <path
         style="display:inline;fill:#bb2525;fill-opacity:1;stroke-width:0.6"
         d="m 404.39633,98.327492 c -0.17056,0.255839 -0.68224,-0.426399 -0.68224,-0.426399 0,0 0.51168,0.682238 0.17056,0.170559 -0.34112,-0.51168 -1.53504,-2.217275 -2.64367,-3.581749 -1.10864,-1.364475 -2.13199,-2.387828 -2.72895,-3.070066 -0.59696,-0.682238 -0.76752,-1.023357 -1.2792,-1.535036 -0.51168,-0.511679 -1.36447,-1.193914 -2.6107,-2.471983 -1.24623,-1.278069 -2.17051,-2.334385 -3.53221,-4.451024 -1.3617,-2.116639 -3.0673,-5.186707 -2.89674,-6.977582 0.17056,-1.790874 2.21728,-2.302554 5.22125,-2.479168 3.00398,-0.176613 7.69251,0.01093 10.44584,0.264331 2.75333,0.253403 4.1178,0.594521 7.10259,0.679801 2.98479,0.08528 7.5899,-0.08528 10.48941,-0.170559 2.89951,-0.08528 4.09342,-0.08528 5.78058,-0.588448 1.68715,-0.503168 4.12448,-1.628089 5.71728,-2.289413 1.5928,-0.661325 2.38193,-0.924368 3.28777,-1.368445 0.90583,-0.444078 1.58807,-0.955756 3.42575,-2.796189 1.83768,-1.840433 5.24273,-5.445774 6.39291,-6.748893 1.15018,-1.303119 1.15018,-1.473678 1.40602,-1.132561 0.25584,0.341118 0.76751,1.193916 1.53503,2.217274 0.76752,1.023358 1.79087,2.21727 2.30255,2.984789 0.51168,0.767518 0.51168,1.108636 0.68224,1.620314 0.17056,0.511679 0.51168,1.193916 0.68224,1.790874 0.17056,0.596958 0.17056,1.108636 0.34112,1.705593 0.17056,0.596956 0.51167,1.279196 0.85279,2.302552 0.34112,1.023357 0.68224,2.387833 0.76752,3.411189 0.0853,1.023356 -0.0853,1.705594 -0.17056,2.387831 -0.0853,0.682238 -0.0853,1.364476 -0.51168,2.131994 -0.4264,0.767518 -1.27919,1.620311 -2.21621,2.589672 -0.93701,0.96936 -1.95934,2.056446 -3.25082,2.738538 -1.29149,0.682093 -2.44287,0.887012 -4.28989,1.305825 -1.84703,0.418812 -1.7899,0.401623 -5.4399,0.67874 -3.64999,0.277117 -9.10789,0.277117 -13.28659,0.191837 -4.17871,-0.08528 -7.07822,-0.255839 -9.29032,-0.58942 -2.2121,-0.333582 -3.6179,-0.791463 -5.08877,-1.159179 -1.47086,-0.367717 -2.53383,-0.531571 -3.50078,-0.628042 -0.96695,-0.09647 -1.64919,-0.09647 -2.24615,-0.267028 -0.59695,-0.170558 -1.10863,-0.511678 -1.96143,-0.682238 -0.8528,-0.17056 -2.04671,-0.17056 -3.34544,-0.17056 -1.29873,0 -2.5152,0 -3.16662,0.170559 -0.65143,0.17056 -0.48087,0.511678 -0.39559,0.938077 0.0853,0.426398 0.0853,0.938076 0.25605,1.364685 0.17077,0.42661 0.40254,0.658384 1.05396,1.224525 0.65142,0.56614 1.50422,1.248379 2.35701,2.101176 0.8528,0.852796 1.7056,1.876154 2.38783,2.899509 0.68224,1.023354 1.19392,2.046711 1.53504,3.155346 0.34112,1.108636 0.51168,2.302553 0.34112,2.558392 z"
         id="path6"
         inkscape:path-effect="#path-effect6"
         inkscape:original-d="m 404.73745,99.265568 c -0.51168,-0.682237 -1.02336,-1.364475 -1.53504,-2.046712 0.51168,0.682237 1.02336,1.364475 1.53504,2.046712 -1.19392,-1.705594 -2.38784,-3.411188 -3.58175,-5.116782 -1.02336,-1.023356 -2.04671,-2.046712 -3.07007,-3.070069 -0.17056,-0.341118 -0.34112,-0.682237 -0.51168,-1.023356 -0.8528,-0.682238 -1.70559,-1.364475 -2.55839,-2.046713 -1.49824,-1.997645 -2.48639,-2.998072 -3.58175,-4.093425 -1.70559,-3.070069 -3.41118,-6.140139 -5.11678,-9.210208 2.04671,-0.511678 4.09343,-1.023356 6.14014,-1.535034 3.92056,1.175413 8.64314,0.511678 12.79195,0.511678 1.36448,0.341119 2.72895,0.682238 4.09343,1.023356 4.6051,-0.170559 9.21021,-0.341118 13.81531,-0.511678 1.19392,0 2.38783,0 3.58175,0 2.24236,-0.872073 4.18442,-3.070069 6.65181,-3.070069 0.98683,-0.877883 1.81515,-1.023356 3.07007,-1.023356 0.68224,-0.511679 1.36448,-1.023357 2.04672,-1.535035 2.55316,-3.584709 6.32857,-6.84026 8.69853,-9.210207 0,-0.17056 0,-0.341119 0,-0.511678 0.51167,0.852797 1.02335,1.705594 1.53503,2.55839 1.02336,1.193916 2.04671,2.387832 3.07007,3.581748 0,0.341119 0,0.682237 0,1.023356 0.34112,0.682238 0.68224,1.364475 1.02336,2.046713 0,0.511678 0,1.023356 0,1.535034 0.34111,0.682238 0.68223,1.364476 1.02335,2.046713 0.34112,1.364475 0.68224,2.728951 1.02336,4.093426 -0.17056,0.682237 -0.34112,1.364475 -0.51168,2.046712 0,0.682238 0,1.364476 0,2.046713 -0.8528,0.852797 -1.70559,1.705594 -2.55839,2.558391 -1.05208,1.056913 -2.04999,2.166961 -3.06514,3.2593 -1.56139,0.277893 -2.71277,0.482812 -4.9408,0.879352 -1.46602,0.441084 -1.40889,0.423897 -3.25098,0.97813 -5.4579,0 -10.9158,0 -16.3737,0 -2.89951,-0.170559 -5.79902,-0.341119 -8.69853,-0.511678 -1.52469,-0.496605 -2.93049,-0.954485 -4.57406,-1.489809 -1.29816,-0.200109 -2.36113,-0.363963 -3.61279,-0.556904 -0.68224,0 -1.36448,0 -2.04672,0 -0.51167,-0.341119 -1.02335,-0.682237 -1.53503,-1.023356 -1.19392,0 -2.38783,0 -3.58175,0 -1.40354,-0.762858 -2.62001,-0.148193 -4.09342,0 0.17056,0.341119 0.34112,0.682237 0.51168,1.023356 0,0.511678 0,1.023356 0,1.535035 0.68848,-0.0054 0.72332,0.423306 1.02335,1.023356 0.8528,0.682238 1.7056,1.364475 2.55839,2.046713 0.8528,1.023356 1.7056,2.046713 2.55839,3.070069 0.51168,1.023356 1.02336,2.046713 1.53504,3.070069 0.17056,1.193915 0.34112,2.387832 0.51168,3.581747 z"
         sodipodi:nodetypes="ccccccccccccccccccccccccccccscccccccccccccccccc"
         inkscape:label="Flower shadow4" />
      <path
         style="display:inline;fill:#bb2525;fill-opacity:1;stroke-width:0.6"
         d="m 394.07748,54.237889 c 0.4264,-2.387831 1.96144,-4.775666 2.98479,-6.14014 1.02336,-1.364475 1.53504,-1.705593 1.96144,-2.21727 0.4264,-0.511677 0.76751,-1.193916 1.36447,-1.620315 0.59696,-0.4264 1.44976,-0.59696 2.21727,-0.852798 0.76752,-0.255839 1.44976,-0.596957 2.21728,-0.426397 0.76752,0.17056 1.62031,0.852795 2.72895,1.620312 1.10863,0.767517 2.47311,1.620316 3.3259,2.473113 0.8528,0.852796 1.19392,1.705593 1.96144,3.325906 0.76752,1.620313 1.96143,4.008146 2.55839,5.457901 0.59696,1.449756 0.59696,1.961434 0.4264,2.558392 -0.17056,0.596958 -0.51168,1.279196 -0.68224,1.876153 -0.17056,0.596958 -0.17056,1.108636 -0.48431,1.782814 -0.31376,0.674179 -0.75864,1.267354 -1.41636,1.831623 -0.65772,0.564269 -1.51052,1.075947 -2.3431,1.43333 -0.83258,0.357384 -1.34997,0.486732 -2.3054,0.491073 -0.95544,0.0043 -2.14936,-0.166218 -3.34328,-0.251498 -1.19391,-0.08528 -2.38783,-0.08528 -3.66702,-0.25584 -1.2792,-0.170559 -2.64367,-0.511677 -3.49647,-0.852797 -0.8528,-0.34112 -1.19392,-0.68224 -1.60226,-1.169848 -0.40835,-0.487609 -0.69973,-0.876119 -1.42489,-2.582086 -0.72516,-1.705967 -1.40739,-4.093797 -0.981,-6.481628 z"
         id="path7"
         inkscape:path-effect="#path-effect7"
         inkscape:original-d="m 392.96885,54.237888 c 1.53503,-2.387832 3.07007,-4.775663 4.6051,-7.163495 0.51168,-0.341119 1.02336,-0.682237 1.53504,-1.023356 0.34111,-0.682238 0.68223,-1.364475 1.02335,-2.046713 0.8528,-0.170559 1.7056,-0.341119 2.55839,-0.511678 0.68224,-0.341119 1.36448,-0.682238 2.04672,-1.023356 0.8528,0.682237 1.70559,1.364476 2.55839,2.046712 1.36447,0.852797 2.72895,1.705594 4.09342,2.558391 0.34112,0.852797 0.68224,1.705594 1.02336,2.558391 1.19391,2.387832 2.38783,4.775663 3.58175,7.163495 0,0.511678 0,1.023356 0,1.535034 -0.34112,0.682238 -0.68224,1.364476 -1.02336,2.046713 0,0.511678 0,1.023356 0,1.535035 -0.36033,1.03706 -0.80564,1.629912 -1.53503,2.046712 -0.8528,0.511679 -1.7056,1.023357 -2.5584,1.535035 -0.87688,-0.05501 -1.43729,-0.09774 -2.04671,0.511678 -1.19391,-0.170559 -2.38783,-0.341119 -3.58175,-0.511678 -1.19391,0 -2.38783,0 -3.58174,0 -1.36448,-0.341119 -2.72895,-0.682238 -4.09343,-1.023356 -0.34112,-0.341119 -0.68224,-0.682238 -1.02335,-1.023357 -0.83251,-0.3664 -1.10833,-0.766584 -1.53504,-2.046713 -0.68224,-2.387831 -1.36447,-4.775663 -2.04671,-7.163494 z"
         sodipodi:nodetypes="cccccccccccccccccccccc" />
      <path
         style="display:inline;fill:none;fill-opacity:1;stroke:#000000;stroke-width:1.8;stroke-dasharray:none;stroke-opacity:1"
         d="m 469.12362,145.40188 c -0.76752,0.76752 -1.10864,1.62032 -1.36448,2.81424 -0.25584,1.19391 -0.42639,2.72895 -0.5931,3.82216 -0.1667,1.09321 -0.32762,1.7369 -0.67742,2.79495 -0.34979,1.05806 -0.86147,2.42253 -1.97011,5.32204 -1.10863,2.89951 -2.81423,7.33406 -3.83758,9.97773 -1.02336,2.64367 -1.36448,3.49646 -2.30255,4.94622 -0.93808,1.44975 -2.47312,3.49647 -4.00815,5.4579 -1.53503,1.96143 -3.07007,3.83759 -4.32902,5.28262 -1.25895,1.44502 -2.78788,3.02224 -3.3059,3.4793 -0.51801,0.45706 -2.08969,1.67284 -4.84432,2.98339 -2.75464,1.31054 -4.44843,1.85628 -7.90069,2.65344 -3.45226,0.79717 -8.75396,1.7439 -13.54551,2.49902 -4.79154,0.75513 -9.73776,1.43736 -14.17231,1.60792 -4.43454,0.17056 -8.35741,-0.17055 -11.85388,-0.68223 -3.49646,-0.51168 -6.56653,-1.19392 -8.78381,-1.62032 -2.21727,-0.4264 -3.58174,-0.59695 -5.02851,-1.02202 -1.44677,-0.42508 -2.97279,-1.10331 -4.57579,-1.94455 -1.603,-0.84125 -3.3616,-1.89641 -5.0655,-3.08931 -1.7039,-1.19289 -3.40949,-2.55737 -5.20037,-4.17768 -1.79087,-1.62031 -3.66702,-3.49647 -4.69038,-5.0315 -1.02336,-1.53504 -1.19391,-2.72895 -2.55839,-5.62846 -1.36447,-2.89951 -3.92287,-7.50462 -6.22542,-10.91581 -2.30255,-3.41118 -4.34926,-5.62845 -6.14014,-7.84572 -1.79087,-2.21728 -3.3259,-4.43455 -5.20206,-6.82238 -1.87615,-2.38783 -4.09342,-4.94622 -7.67517,-8.61325 -3.58175,-3.66703 -8.52797,-8.44269 -11.51276,-11.17164 -2.98479,-2.72895 -4.00815,-3.41119 -5.20206,-4.43455 -1.19392,-1.02335 -2.55839,-2.38783 -4.34927,-4.09342 -1.79087,-1.7056 -4.00814,-3.75231 -5.11678,-5.20206 -1.10863,-1.44976 -1.10863,-2.30256 -1.10863,-3.49648 0,-1.19391 0,-2.72894 0.51168,-4.09341 0.51167,-1.36448 1.53503,-2.5584 2.64367,-3.92287 1.10863,-1.36448 2.30255,-2.89951 3.58174,-4.00815 1.2792,-1.10864 2.64367,-1.790872 3.83759,-2.473108 1.19391,-0.682236 2.21727,-1.364476 4.77566,-2.387832 2.55839,-1.023357 6.65182,-2.387834 10.063,-2.899512 3.41119,-0.511677 6.14014,-0.170559 8.61325,0.255841 2.47312,0.426399 4.69039,0.938076 6.05487,1.364475 1.36447,0.426398 1.87615,0.767516 3.66702,1.364473 1.79087,0.596957 4.86094,1.449755 6.22542,1.535035 1.36447,0.08528 1.02336,-0.596956 0.67741,-1.551927 -0.34594,-0.954971 -0.70247,-2.202796 -0.8605,-5.314297 -0.15803,-3.1115 -0.15803,-8.228282 0.18309,-12.065868 0.34112,-3.837587 1.02335,-6.395979 1.96143,-8.698531 0.93808,-2.302551 2.13199,-4.349262 3.07007,-6.054857 0.93808,-1.705595 1.62031,-3.070072 2.52822,-4.319095 0.90791,-1.249024 2.16865,-2.509771 3.46044,-3.956683 1.29178,-1.446913 3.00796,-3.54446 4.40042,-5.102787 1.39246,-1.558328 2.84425,-3.010115 5.56572,-4.622941 2.72146,-1.612826 6.81488,-3.488976 10.81744,-4.852237 4.00256,-1.363261 7.93234,-2.217562 10.7487,-2.729703 2.81636,-0.512142 4.52195,-0.6827 6.73923,-0.93854 2.21727,-0.255839 4.94622,-0.596958 7.4669,-0.684931 2.52068,-0.08797 4.99405,0.0887 8.48546,0.855853 3.49141,0.767157 8.09651,2.131631 11.59298,3.325546 3.49646,1.193914 5.8843,2.217273 8.4184,3.994677 2.53409,1.777405 5.21446,4.308862 6.63756,5.481458 1.4231,1.172596 1.58895,0.986329 2.86173,0.476996 1.27279,-0.509332 3.65252,-1.341736 6.08648,-0.576242 2.43395,0.765495 4.9221,3.128875 8.17745,6.956279 3.25535,3.827404 7.27785,9.118772 9.56093,13.203564 2.28309,4.084792 2.82675,6.962979 3.09858,9.45741 0.27183,2.494431 0.27183,4.6051 0.52767,6.086837 0.25584,1.481737 0.76751,2.334532 1.27919,2.93149 0.51168,0.596959 1.02336,0.938077 1.61227,1.308479 0.58891,0.370402 0.62228,0.390421 2.23395,1.033366 1.61168,0.642945 2.97616,0.813505 3.91423,0.898785 0.93808,0.08528 1.44976,0.08528 2.132,0.255837 0.68223,0.170558 1.53503,0.511678 2.38783,1.023358 0.8528,0.511679 1.70559,1.193914 2.81423,2.046711 1.10863,0.852797 2.47311,1.876156 3.41118,2.814232 0.93808,0.938076 1.44976,1.790869 1.87301,2.970609 0.42325,1.17974 0.76579,2.72116 1.45047,4.69358 0.68468,1.97242 1.70803,4.36025 2.04884,5.72504 0.3408,1.36478 0.10923,1.59636 -0.45691,1.99194 -0.56614,0.39558 -1.24838,0.7367 -1.76005,1.07781 -0.51168,0.34112 -0.8528,0.68224 -1.44976,0.93808 -0.59696,0.25584 -1.44975,0.4264 -3.20629,0.95506 -1.75654,0.52866 -4.2261,1.35185 -6.43685,1.94663 -2.21074,0.59478 -4.08689,0.93589 -5.79249,1.36229 -1.70559,0.4264 -3.24062,0.93808 -4.1787,1.19392 -0.93808,0.25584 -1.2792,0.25584 -1.35714,0.53369 -0.0779,0.27785 0.0486,0.65739 0.40438,1.46897 0.3558,0.81157 0.86748,1.83493 1.29745,2.78194 0.42997,0.947 0.72418,1.68253 0.9999,2.75559 0.27572,1.07306 0.44628,2.26697 0.70209,3.29024 0.2558,1.02328 0.59608,1.87398 0.93487,3.05648 0.33878,1.1825 0.73104,2.94766 0.77944,3.76782 0.0484,0.82016 -0.20538,1.21635 -0.63767,1.64865 -0.4323,0.43229 -0.74082,0.63341 -2.14527,0.94122 -1.40445,0.30781 -3.79227,0.64892 -5.57482,0.93721 -1.78255,0.28828 -2.5429,0.44035 -3.45025,0.84355 -0.90735,0.4032 -2.10126,1.08544 -2.86878,1.85295 z"
         id="path10"
         inkscape:path-effect="#path-effect11"
         inkscape:original-d="m 468.69722,145.31661 c -0.34112,0.85279 -0.68224,1.70559 -1.02336,2.55839 -0.17056,1.53503 -0.34112,3.07007 -0.51167,4.6051 -0.69622,0.51805 -0.51168,1.2481 -0.51168,2.04671 -0.51168,1.36448 -1.02336,2.72895 -1.53504,4.09343 -1.70559,4.43454 -3.41119,8.86909 -5.11678,13.30363 -0.34112,0.8528 -0.68224,1.70559 -1.02336,2.55839 -1.53503,2.04671 -3.07007,4.09343 -4.6051,6.14014 -1.53503,1.87615 -3.07007,3.75231 -4.6051,5.62846 -0.98287,1.0139 -2.5118,2.59112 -2.94858,3.04169 -0.59925,0.46355 -2.17093,1.67933 -4.04533,3.12928 -3.63487,1.17114 -5.32866,1.71688 -7.84476,2.52756 -4.12337,2.26795 -9.64264,1.99627 -14.32699,2.55839 -4.94622,0.68224 -9.89244,1.36448 -14.83867,2.04671 -3.92286,-0.34112 -7.84573,-0.68223 -11.7686,-1.02335 -3.07006,-0.68224 -6.14013,-1.36448 -9.2102,-2.04672 -1.36448,-0.17056 -2.72895,-0.34111 -4.09343,-0.51167 -1.3425,-1.09935 -2.98841,-1.50782 -4.6051,-2.04672 -1.34737,-1.50793 -3.33602,-2.17968 -5.11678,-3.07007 -1.7056,-1.36447 -3.41119,-2.72895 -5.11679,-4.09342 -1.87615,-1.87615 -3.7523,-3.75231 -5.62846,-5.62846 -0.17056,-1.19392 -0.34111,-2.38783 -0.51167,-3.58175 -2.5584,-4.6051 -5.11679,-9.21021 -7.67518,-13.81531 -2.04671,-2.21727 -4.09342,-4.43454 -6.14014,-6.65182 -1.53503,-2.21727 -3.07006,-4.43454 -4.6051,-6.65181 -2.21727,-2.55839 -4.43454,-5.11678 -6.65182,-7.67518 -4.94622,-4.77566 -9.89244,-9.55132 -14.83866,-14.32698 -1.02336,-0.68224 -2.04672,-1.36448 -3.07007,-2.04672 -1.36448,-1.36447 -2.72895,-2.72895 -4.09343,-4.09342 -2.21727,-2.04672 -4.43454,-4.09343 -6.65181,-6.14014 0,-0.8528 0,-1.7056 0,-2.55839 0,-1.53504 0,-3.07007 0,-4.60511 1.02335,-1.19391 2.04671,-2.38783 3.07007,-3.58174 1.19391,-1.53504 2.38783,-3.07007 3.58174,-4.60511 1.36448,-0.68223 2.72895,-1.364472 4.09343,-2.04671 1.02335,-0.682237 2.04671,-1.364475 3.07007,-2.046713 4.09342,-1.364475 8.18685,-2.72895 12.28027,-4.093425 2.72895,0.341119 5.4579,0.682238 8.18685,1.023356 2.21728,0.511678 4.43455,1.023357 6.65182,1.535035 0.51168,0.341119 1.02336,0.682237 1.53504,1.023356 3.07006,0.852797 6.14013,1.705594 9.2102,2.558391 -0.34112,-0.682237 -0.68223,-1.364475 -1.02335,-2.046713 -0.30065,-1.242024 -0.0927,-2.651128 -1.02336,-3.581747 0,-5.116782 0,-10.233564 0,-15.350346 0.68224,-2.55839 1.36448,-5.116781 2.04671,-7.675172 1.19392,-2.046713 2.38783,-4.093426 3.58175,-6.140139 0.68224,-1.364475 1.36448,-2.72895 2.04671,-4.093425 1.57978,-0.68737 2.50227,-2.286376 3.58175,-3.581747 2.10178,-1.129062 3.24942,-3.691773 4.6051,-5.62846 1.75803,-0.826254 2.84774,-2.64012 4.09343,-4.093426 4.09343,-1.876153 8.18685,-3.752307 12.28028,-5.62846 4.03279,-0.293285 7.88123,-1.521762 11.76859,-2.558391 1.7056,-0.170559 3.41119,-0.341119 5.11679,-0.511678 2.72895,-0.341119 5.4579,-0.682238 8.18685,-1.023357 2.26239,0.865448 4.77365,0.511679 7.16349,0.511679 4.60511,1.364475 9.21021,2.72895 13.81531,4.093425 2.38783,1.023357 4.77567,2.046712 7.1635,3.070069 2.68036,2.531456 5.36073,5.06291 8.04109,7.594364 0.16584,-0.186262 0.33169,-0.372527 0.49753,-0.558789 2.37973,-0.832403 4.75946,-1.664809 7.1392,-2.497216 2.48817,2.363398 4.97632,4.726779 7.4645,7.090181 4.02252,5.291406 8.04502,10.58277 12.06753,15.874163 0.54366,2.878193 1.08732,5.75638 1.63098,8.63457 0,2.110672 0,4.221341 0,6.332017 0.51168,0.852797 1.02335,1.705594 1.53503,2.558391 0.51168,0.341119 1.02336,0.682237 1.53504,1.023356 0.13274,1.288687 0.97834,-0.04502 2.55839,1.535035 1.36447,0.170559 2.72895,0.341119 4.09342,0.511678 0.51168,0 1.02336,0 1.53504,0 0.85279,0.341119 1.70559,0.682238 2.55839,1.023356 0.8528,0.682238 1.70559,1.364475 2.55839,2.046713 1.36447,1.023356 2.72895,2.046713 4.09342,3.070069 0.51168,0.852797 1.02336,1.70559 1.53504,2.55839 0.46563,1.47761 0.76077,3.02956 1.02336,4.6051 1.02335,2.38784 2.04671,4.77567 3.07006,7.1635 -0.68848,-0.005 -0.72332,0.42331 -1.02335,1.02336 -0.68224,0.34111 -1.36448,0.68223 -2.04671,1.02335 -0.34112,0.34112 -0.68224,0.68224 -1.02336,1.02336 -0.8528,0.17056 -1.70559,0.34112 -2.55839,0.51168 -2.55427,1.20478 -4.84703,2.55839 -7.67517,2.55839 -1.87616,0.34112 -3.75231,0.68224 -5.62846,1.02335 -1.53504,0.51168 -3.07007,1.02336 -4.60511,1.53504 -0.34112,0 -0.68224,0 -1.02335,0 0.57961,0.42424 0.51167,0.8686 0.51167,1.53503 0.51168,1.02336 1.02336,2.04672 1.53504,3.07007 -0.13611,1.06441 0.56312,1.63793 1.02335,2.55839 0.17056,1.19392 0.34112,2.38783 0.51168,3.58175 0.46729,0.80213 0.73163,1.68321 1.02336,2.55839 0.40021,1.49557 -0.11857,3.46318 1.02336,4.60511 -0.19876,0.31031 -0.45254,0.7065 -0.78351,1.22322 -0.53362,0.34787 -0.84214,0.54899 -1.26321,0.82349 -2.38783,0.34112 -4.77565,0.68223 -7.16349,1.02335 -1.25195,-0.13798 -2.02038,-0.0263 -2.55839,0.51168 -1.19392,0.68224 -2.38783,1.36448 -3.58175,2.04672 z"
         sodipodi:nodetypes="ccccccccccccccccccccccccccccccsccccccccccccccccccccccccccccccccccccccccccccccccccccccccccccccc"
         inkscape:label="Flower outline" />
    </g>
  </g>
</svg>
