<?xml version="1.0" encoding="UTF-8" standalone="no"?>
<!-- Created with Inkscape (http://www.inkscape.org/) -->

<svg
   version="1.1"
   id="svg1"
   width="793.59998"
   height="559.35999"
   viewBox="0 0 793.59998 559.35999"
   sodipodi:docname="Sage.svg"
   inkscape:version="1.4 (86a8ad7, 2024-10-11)"
   xmlns:inkscape="http://www.inkscape.org/namespaces/inkscape"
   xmlns:sodipodi="http://sodipodi.sourceforge.net/DTD/sodipodi-0.dtd"
   xmlns="http://www.w3.org/2000/svg"
   xmlns:svg="http://www.w3.org/2000/svg">
  <defs
     id="defs1">
    <inkscape:path-effect
       effect="bspline"
       id="path-effect17"
       is_visible="true"
       lpeversion="1.3"
       weight="33.333333"
       steps="2"
       helper_size="0"
       apply_no_weight="true"
       apply_with_weight="true"
       only_selected="false"
       uniform="false" />
    <inkscape:path-effect
       effect="bspline"
       id="path-effect15"
       is_visible="true"
       lpeversion="1.3"
       weight="33.333333"
       steps="2"
       helper_size="0"
       apply_no_weight="true"
       apply_with_weight="true"
       only_selected="false"
       uniform="false" />
    <inkscape:path-effect
       effect="bspline"
       id="path-effect14"
       is_visible="true"
       lpeversion="1.3"
       weight="33.333333"
       steps="2"
       helper_size="0"
       apply_no_weight="true"
       apply_with_weight="true"
       only_selected="false"
       uniform="false" />
    <inkscape:path-effect
       effect="bspline"
       id="path-effect13"
       is_visible="true"
       lpeversion="1.3"
       weight="33.333333"
       steps="2"
       helper_size="0"
       apply_no_weight="true"
       apply_with_weight="true"
       only_selected="false"
       uniform="false" />
    <inkscape:path-effect
       effect="bspline"
       id="path-effect12"
       is_visible="true"
       lpeversion="1.3"
       weight="33.333333"
       steps="2"
       helper_size="0"
       apply_no_weight="true"
       apply_with_weight="true"
       only_selected="false"
       uniform="false" />
    <inkscape:path-effect
       effect="bspline"
       id="path-effect11"
       is_visible="true"
       lpeversion="1.3"
       weight="33.333333"
       steps="2"
       helper_size="0"
       apply_no_weight="true"
       apply_with_weight="true"
       only_selected="false"
       uniform="false" />
    <inkscape:path-effect
       effect="bspline"
       id="path-effect10"
       is_visible="true"
       lpeversion="1.3"
       weight="33.333333"
       steps="2"
       helper_size="0"
       apply_no_weight="true"
       apply_with_weight="true"
       only_selected="false"
       uniform="false" />
    <inkscape:path-effect
       effect="bspline"
       id="path-effect9"
       is_visible="true"
       lpeversion="1.3"
       weight="33.333333"
       steps="2"
       helper_size="0"
       apply_no_weight="true"
       apply_with_weight="true"
       only_selected="false"
       uniform="false" />
    <inkscape:path-effect
       effect="bspline"
       id="path-effect8"
       is_visible="true"
       lpeversion="1.3"
       weight="33.333333"
       steps="2"
       helper_size="0"
       apply_no_weight="true"
       apply_with_weight="true"
       only_selected="false"
       uniform="false" />
    <inkscape:path-effect
       effect="bspline"
       id="path-effect7"
       is_visible="true"
       lpeversion="1.3"
       weight="33.333333"
       steps="2"
       helper_size="0"
       apply_no_weight="true"
       apply_with_weight="true"
       only_selected="false"
       uniform="false" />
    <inkscape:path-effect
       effect="bspline"
       id="path-effect6"
       is_visible="true"
       lpeversion="1.3"
       weight="33.333333"
       steps="2"
       helper_size="0"
       apply_no_weight="true"
       apply_with_weight="true"
       only_selected="false"
       uniform="false" />
    <inkscape:path-effect
       effect="bspline"
       id="path-effect5"
       is_visible="true"
       lpeversion="1.3"
       weight="33.333333"
       steps="2"
       helper_size="0"
       apply_no_weight="true"
       apply_with_weight="true"
       only_selected="false"
       uniform="false" />
    <inkscape:path-effect
       effect="bspline"
       id="path-effect4"
       is_visible="true"
       lpeversion="1.3"
       weight="33.333333"
       steps="2"
       helper_size="0"
       apply_no_weight="true"
       apply_with_weight="true"
       only_selected="false"
       uniform="false" />
    <inkscape:path-effect
       effect="bspline"
       id="path-effect3"
       is_visible="true"
       lpeversion="1.3"
       weight="33.333333"
       steps="2"
       helper_size="0"
       apply_no_weight="true"
       apply_with_weight="true"
       only_selected="false"
       uniform="false" />
    <inkscape:path-effect
       effect="bspline"
       id="path-effect2"
       is_visible="true"
       lpeversion="1.3"
       weight="33.333333"
       steps="2"
       helper_size="0"
       apply_no_weight="true"
       apply_with_weight="true"
       only_selected="false"
       uniform="false" />
    <inkscape:path-effect
       effect="bspline"
       id="path-effect1"
       is_visible="true"
       lpeversion="1.3"
       weight="33.333333"
       steps="2"
       helper_size="0"
       apply_no_weight="true"
       apply_with_weight="true"
       only_selected="false"
       uniform="false" />
  </defs>
  <sodipodi:namedview
     id="namedview1"
     pagecolor="#ffffff"
     bordercolor="#111111"
     borderopacity="1"
     inkscape:showpageshadow="0"
     inkscape:pageopacity="0"
     inkscape:pagecheckerboard="1"
     inkscape:deskcolor="#d1d1d1"
     inkscape:zoom="0.69096827"
     inkscape:cx="305.36858"
     inkscape:cy="183.07642"
     inkscape:window-width="1920"
     inkscape:window-height="991"
     inkscape:window-x="-9"
     inkscape:window-y="-9"
     inkscape:window-maximized="1"
     inkscape:current-layer="g1" />
  <g
     inkscape:groupmode="layer"
     inkscape:label="Image"
     id="g1">
    <g
       id="g17"
       transform="matrix(2.0087394,0,0,2.0087394,-376.49764,-215.01291)">
      <path
         style="display:inline;fill:#7eab4b;fill-opacity:0.996078;stroke-width:1.8"
         d="m 497.86287,119.64742 c -8.78381,3.41119 -19.87507,7.89296 -27.07875,10.89677 -7.20368,3.00381 -11.80879,5.05053 -16.24333,7.2678 -4.43454,2.21727 -8.69853,4.60511 -12.28027,6.3107 -3.58175,1.7056 -6.48126,2.72895 -8.78381,3.66703 -2.30256,0.93808 -4.00815,1.79087 -8.0163,3.66702 -4.00814,1.87616 -10.31884,4.77567 -16.27501,7.5834 -5.95616,2.80772 -11.65435,5.57048 -16.06744,7.77735 -4.4131,2.20687 -7.65373,3.91247 -16.07037,8.30382 -8.41665,4.39134 -21.98248,11.45447 -31.00071,16.56471 -9.01824,5.11023 -13.45012,8.2474 -17.77012,11.46778 -4.32,3.22038 -8.52813,6.52398 -13.88878,10.96029 -5.36065,4.43632 -11.87383,10.00537 -17.18748,15.45766 -5.31366,5.45228 -9.42776,10.78779 -13.28132,16.76595 -3.85356,5.97817 -7.44654,12.59893 -10.30304,18.14388 -2.8565,5.54495 -4.97652,10.01409 -6.3475,13.80438 -1.37098,3.79029 -1.94219,6.64798 -2.39777,10.35145 -0.45558,3.70348 -0.63407,6.72815 -0.96796,10.07004 -0.33389,3.34189 -0.67389,5.38193 -0.56168,8.1771 0.11221,2.79517 0.71826,6.09585 0.95733,8.60965 0.23906,2.5138 0.11114,4.24069 0.5482,6.51128 0.43706,2.27059 1.43909,5.0848 2.17463,8.18685 0.73554,3.10204 1.20458,6.49191 1.00204,8.98635 -0.20254,2.49444 -1.07665,4.09342 -2.3112,5.77177 -1.23455,1.67835 -2.82951,3.43603 -4.31989,4.93316 -1.49039,1.49712 -2.87618,2.73368 -4.21933,4.05552 -1.34316,1.32183 -2.64367,2.72894 -4.27465,4.98886 -1.63098,2.25992 -3.5924,5.3726 -6.33538,9.57236 -2.74299,4.19976 -1.63268,2.5343 -3.16919,4.93168 -1.53651,2.39738 -1.78955,2.90345 -2.07476,3.81499 -0.28521,0.91154 -0.45577,1.93489 0.78944,2.69768 1.24521,0.76279 3.90616,1.26501 5.83361,0.57804 1.92744,-0.68697 3.12135,-2.56312 4.31527,-4.18343 1.19391,-1.62032 2.38783,-2.98479 4.1787,-4.86095 1.79088,-1.87615 4.17871,-4.26398 6.99294,-6.22542 2.81423,-1.96143 6.05486,-3.49647 9.46604,-4.1787 3.41119,-0.68224 6.99294,-0.51168 9.55133,-0.4264 2.55839,0.0853 4.09342,0.0853 7.05689,0.064 2.96348,-0.0213 7.35536,-0.064 11.72596,-0.4264 4.3706,-0.36244 8.71984,-1.04467 12.32291,-1.57767 3.60308,-0.533 1.8805,-0.30161 12.7575,-2.18843 10.877,-1.88683 4.23032,-0.59872 10.56442,-1.83815 6.3341,-1.23944 10.17169,-2.00696 14.07323,-2.98768 3.90155,-0.98071 7.86704,-2.17462 11.61937,-3.47514 3.75232,-1.30053 7.00032,-2.5919 10.50749,-4.29934 3.50717,-1.70744 5.86099,-3.10608 9.67987,-5.53285 3.81888,-2.42677 8.16812,-5.32627 14.90524,-10.46439 6.73712,-5.13812 15.86198,-12.51476 21.23462,-17.11988 5.37264,-4.60512 7.25241,-6.73223 7.93283,-7.50219 0.68043,-0.76995 24.60139,-26.22594 25.24786,-27.16396 0.64647,-0.93801 7.89136,-11.45021 10.57274,-15.23382 2.68138,-3.78361 3.53418,-4.80697 4.21642,-5.83033 0.68224,-1.02336 1.19391,-2.04671 9.76452,-16.43765 8.57061,-14.39095 -0.56461,0.85784 5.30351,-8.81326 5.86812,-9.67111 8.4519,-13.73738 12.09557,-19.6779 3.64368,-5.94051 8.50624,-14.02258 11.49023,-19.20242 2.98398,-5.17985 4.47637,-8.10066 5.57435,-10.47784 1.09798,-2.37718 1.80153,-4.21069 2.43047,-6.14014 0.62894,-1.92945 1.18325,-3.95484 1.93962,-6.00582 0.75636,-2.05098 1.85787,-4.43758 2.70407,-6.12886 0.84619,-1.69129 1.52843,-2.8852 2.27806,-4.87109 0.74963,-1.9859 1.6481,-5.04069 2.32298,-7.14945 0.67488,-2.10875 1.16408,-3.41327 1.77468,-5.06998 0.61061,-1.65671 1.29285,-3.53286 1.7706,-4.96377 0.47776,-1.43091 0.75104,-2.41657 1.00688,-3.95161 0.25584,-1.53504 0.49424,-3.61944 0.80596,-7.58083 0.31171,-3.96139 0.69519,-9.77626 0.69536,-12.84887 1.7e-4,-3.07262 -0.38426,-3.38359 -2.51274,-3.81568 -2.12847,-0.4321 -1.61723,-0.35906 -7.07876,0.66987 -5.46153,1.02893 -12.58238,3.62996 -21.3662,7.04115 z"
         id="path1"
         inkscape:path-effect="#path-effect1"
         inkscape:original-d="m 499.52583,118.83726 c -10.44677,4.22135 -21.53803,8.70312 -31.34029,12.66403 -4.6051,2.04672 -9.21021,4.09343 -13.81531,6.14014 -4.26398,2.38783 -8.52797,4.77567 -12.79195,7.1635 -2.89951,1.02335 -5.79902,2.04671 -8.69853,3.07007 -1.7056,0.85279 -3.41119,1.70559 -5.11679,2.55839 -6.31069,2.89951 -12.62139,5.79902 -18.93209,8.69853 -5.82732,2.25046 -11.08259,5.92673 -16.88538,8.18685 -3.24063,1.70559 -6.48126,3.41119 -9.72188,5.11678 -12.92232,8.36461 -26.83084,14.76955 -40.76309,21.22354 -4.43188,3.13716 -8.86376,6.27433 -13.29564,9.4115 -4.20812,3.30359 -8.41625,6.60718 -12.62437,9.91078 -6.51318,5.56904 -13.02636,11.13809 -19.53955,16.70714 -4.11412,5.33552 -8.22822,10.67103 -12.34235,16.00656 -3.59299,6.6208 -7.18597,13.24156 -10.77895,19.86233 -2.12002,4.46913 -4.24004,8.93827 -6.36006,13.4074 -0.62194,3.11145 -1.19315,5.96914 -1.86582,9.33437 -0.23849,4.04172 -0.41698,7.06639 -0.66153,11.21081 -0.42323,2.53936 -0.76324,4.5794 -1.14485,6.86909 0.60604,3.30065 1.21209,6.60133 1.81814,9.90201 -0.12792,1.72692 -0.25584,3.45381 -0.38376,5.18074 1.00205,2.81425 2.00408,5.62846 3.00611,8.44269 0.46904,3.38986 0.93808,6.77973 1.40712,10.16961 -0.87412,1.599 -1.74823,3.19798 -2.62235,4.79698 -1.59498,1.7577 -3.18994,3.51538 -4.78491,5.27307 -1.3858,1.23656 -2.77159,2.47312 -4.15738,3.70968 -1.30052,1.40711 -2.60103,2.81422 -3.90155,4.22134 -1.96144,3.11272 -3.92286,6.2254 -5.8843,9.33812 -4.52793,4.61787 -2.41424,3.62133 -5.11678,7.67518 0.15539,1.00385 -0.35693,1.38028 -1.02336,2.04671 -0.17056,1.02336 -0.34112,2.04671 -0.51168,3.07007 2.66098,0.50222 5.32193,1.00444 7.9829,1.50666 1.19392,-1.87616 2.38783,-3.75231 3.58175,-5.62846 1.19391,-1.36448 2.38783,-2.72895 3.58174,-4.09343 2.38784,-2.38783 4.77567,-4.77566 7.1635,-7.16349 3.24063,-1.53504 6.48126,-3.07007 9.72188,-4.60511 3.58175,0.17056 7.1635,0.34112 10.74525,0.51168 1.53503,0 3.07006,0 4.6051,0 4.39191,-0.0426 8.78379,-0.0853 13.17571,-0.12792 4.34928,-0.68224 8.69852,-1.36447 13.04779,-2.04671 2.85688,-0.38376 1.1343,-0.15237 8.57062,-1.15128 14.31768,-2.77474 7.671,-1.48663 16.50161,-3.19798 3.83759,-0.76752 7.67518,-1.53504 11.51277,-2.30256 3.9655,-1.19391 7.93099,-2.38782 11.89651,-3.58174 3.53913,-1.40713 6.78713,-2.6985 10.61732,-4.22135 3.18415,-1.89203 5.53797,-3.29067 8.82646,-5.2447 4.34927,-2.89951 8.69851,-5.79901 13.04779,-8.69853 9.12496,-7.37672 18.24982,-14.75336 27.37478,-22.13008 1.62032,-1.83352 3.50009,-3.96063 4.86094,-5.50054 l 23.92096,-25.45599 c 1.29294,-1.87603 8.53783,-12.38823 13.0478,-18.9321 0.85279,-1.02335 1.70559,-2.04671 2.55839,-3.07007 0.51167,-1.02336 1.02335,-2.04671 1.53503,-3.07007 21.78111,-30.70777 5.54465,-13.67774 16.62954,-27.75853 2.60102,-4.09342 5.1848,-8.15969 7.80309,-12.28028 4.66906,-7.76044 9.53162,-15.84251 14.00719,-23.28136 1.4924,-2.92084 2.98479,-5.84165 4.47719,-8.76249 0.70356,-1.83352 1.40711,-3.66703 2.11067,-5.50054 0.55431,-2.02539 1.10863,-4.05078 1.66295,-6.07618 1.78576,-1.69471 2.24341,-4.37847 3.07007,-6.65181 0.68224,-1.19392 1.36448,-2.38783 2.04672,-3.58175 0.0277,-3.01002 1.55203,-5.88074 2.55839,-8.69853 -0.22722,-1.62692 0.73207,-2.75516 1.53503,-4.09342 0.68224,-1.87616 1.36448,-3.75231 2.04671,-5.62846 0.27328,-0.98567 0.54656,-1.97133 0.81984,-2.957 0.2384,-2.08441 0.4768,-4.16881 0.7152,-6.25321 0.74924,-5.81436 1.00911,-11.63738 1.15327,-17.48751 -0.38442,-0.31097 -0.76885,-0.62194 -1.15327,-0.93291 -3.66713,-1.99105 -3.2837,-1.02335 -7.1635,-1.02335 -7.12085,2.60103 -14.2417,5.20206 -21.36256,7.80309 z"
         sodipodi:nodetypes="cccccccccccccccccccccccccccccccccccccccccccccccccccccccccccccccccccccc"
         inkscape:label="Base color" />
      <path
         style="display:inline;fill:#6e9d37;fill-opacity:1;stroke-width:1.8"
         d="m 266.62165,290.18549 c 0.64493,0.1066 1.32717,-0.7462 1.32717,-0.7462 0,0 -0.68224,0.8528 0.76751,-0.59695 1.44976,-1.44976 5.0315,-5.20206 8.52797,-8.61325 3.49647,-3.41119 6.90765,-6.48126 9.79736,-9.21048 2.8897,-2.72922 5.14077,-4.99943 7.82707,-8.46563 2.6863,-3.46619 5.59751,-7.86819 7.41809,-10.44639 1.82058,-2.57819 2.50282,-3.26043 3.4409,-4.36906 0.93807,-1.10864 2.13199,-2.64368 5.37262,-5.45791 3.24063,-2.81423 8.52797,-6.90765 11.51276,-9.38077 2.98479,-2.47311 3.66702,-3.3259 4.51982,-4.26398 0.8528,-0.93808 1.87615,-1.96143 3.15535,-3.24063 1.2792,-1.2792 2.81423,-2.81423 5.28958,-4.69184 2.47536,-1.87761 5.88006,-4.09067 8.69529,-5.88219 2.81523,-1.79152 5.0325,-3.156 7.42034,-4.69103 2.38783,-1.53504 4.94622,-3.24063 7.16349,-4.51983 2.21727,-1.27919 4.09342,-2.13199 6.73709,-3.41119 2.64368,-1.27919 6.05486,-2.98479 8.61326,-4.26398 2.55839,-1.2792 4.26398,-2.13199 6.66153,-2.98749 2.39756,-0.8555 5.44481,-1.70196 9.11353,-2.6405 3.66871,-0.93855 7.93269,-1.9619 10.91066,-2.73881 2.97798,-0.7769 4.66949,-1.30721 8.0948,-2.76297 3.42532,-1.45576 8.53122,-3.81399 11.69174,-5.33912 3.16052,-1.52513 4.35443,-2.20736 5.83328,-2.98942 1.47884,-0.78206 3.08041,-1.58285 4.80893,-2.36183 1.72852,-0.77898 3.43411,-1.46122 6.4189,-2.99626 2.98479,-1.53503 7.24877,-3.92286 10.08507,-5.46893 2.83631,-1.54607 4.09422,-2.17503 5.57519,-2.95815 1.48096,-0.78312 3.01599,-1.63591 5.48911,-3.68263 2.47311,-2.04671 5.88429,-5.28734 8.95436,-8.18685 3.07007,-2.89951 5.79902,-5.4579 7.98842,-7.74533 2.18939,-2.28743 3.52089,-3.91481 5.4488,-6.02315 1.92792,-2.10834 4.14942,-4.32983 5.8455,-6.19648 1.69609,-1.86664 2.89,-3.40168 3.99864,-4.59559 1.10864,-1.19392 2.13199,-2.04671 3.61645,-3.44589 1.48446,-1.39917 3.66682,-3.58153 3.82013,-4.50237 0.15331,-0.92083 -1.55228,-0.75027 -3.52128,-0.11044 -1.96899,0.63984 -4.2013,1.74889 -9.34758,4.06434 -5.14629,2.31544 -13.0249,5.75789 -18.00585,7.87618 -4.98095,2.11829 -7.08683,2.90952 -9.81578,4.27399 -2.72895,1.36448 -6.18536,3.34143 -9.19276,4.84158 -3.00741,1.50016 -5.5658,2.52351 -9.06802,3.97548 -3.50223,1.45197 -7.94829,3.33255 -16.1831,7.1648 -8.23482,3.83225 -20.2584,9.61618 -32.22913,15.54624 -11.97072,5.93007 -24.22868,12.17965 -34.43792,17.83751 -10.20924,5.65786 -18.5725,10.77843 -26.83986,16.52874 -8.26736,5.75031 -15.94253,11.82648 -21.76822,16.93794 -5.82568,5.11147 -9.80182,9.25816 -13.55947,13.54348 -3.75765,4.28532 -7.24814,8.64844 -10.99254,14.29477 -3.74441,5.64632 -7.46447,12.1384 -9.60748,15.92979 -2.14301,3.79139 -2.48679,4.48905 -3.71976,8.06467 -1.23298,3.57562 -3.13141,9.3832 -4.18319,12.63395 -1.05178,3.25075 -1.19035,3.74111 -0.95583,4.51929 0.23452,0.77818 0.84213,1.84417 1.48706,1.95077 z"
         id="path2"
         sodipodi:nodetypes="cccccccccccscccccscccccccccccccccccccccccccccccccccccc"
         inkscape:original-d="m 266.58434,291.14489 c 0.68223,-0.8528 1.36447,-1.7056 2.04671,-2.55839 -0.68224,0.85279 -1.36448,1.70559 -2.04671,2.55839 3.58174,-3.75231 7.16349,-7.50461 10.74524,-11.25692 3.41119,-3.07007 6.82237,-6.14014 10.23356,-9.21021 2.36822,-2.38837 4.61929,-4.65858 6.98525,-7.04467 3.00664,-4.5463 5.91785,-8.9483 8.87678,-13.42246 0.68223,-0.68223 1.36447,-1.36447 2.04671,-2.04671 1.19391,-1.53503 2.38783,-3.07007 3.58175,-4.6051 5.28734,-4.09343 10.57468,-8.18685 15.86202,-12.28028 0.68224,-0.8528 1.36447,-1.70559 2.04671,-2.55839 1.02336,-1.02336 2.04671,-2.04671 3.07007,-3.07007 1.53504,-1.53503 3.07007,-3.07007 4.6051,-4.6051 3.52309,-2.05494 6.91778,-4.2834 10.23357,-6.65182 2.21727,-1.36447 4.43454,-2.72895 6.65181,-4.09342 2.5584,-1.7056 5.11679,-3.41119 7.67518,-5.11679 1.87615,-0.85279 3.7523,-1.70559 5.62846,-2.55839 3.41119,-1.70559 6.82237,-3.41119 10.23356,-5.11678 1.7056,-0.8528 3.41119,-1.70559 5.11678,-2.55839 3.14966,-0.64169 6.23068,-1.36658 9.21021,-2.55839 4.26399,-1.02336 8.52797,-2.04671 12.79196,-3.07007 1.69196,-0.53045 3.38347,-1.06076 5.08574,-1.59445 5.14836,-2.37783 10.25426,-4.73605 15.38138,-7.10408 1.19392,-0.68224 2.38783,-1.36448 3.58175,-2.04671 1.99589,-0.41764 3.52456,-1.36424 5.11678,-2.55839 1.7056,-0.68224 3.41119,-1.36448 5.11678,-2.04672 4.26399,-2.38783 8.52797,-4.77566 12.79196,-7.16349 1.67197,-0.1776 2.79625,-1.07383 4.09342,-2.04671 1.53504,-0.8528 3.07007,-1.7056 4.60511,-2.55839 3.41119,-3.24063 6.82237,-6.48126 10.23356,-9.72189 2.72895,-2.55839 5.4579,-5.11678 8.18685,-7.67517 1.66214,-2.00641 3.27176,-3.40623 4.60511,-5.62846 2.18263,-2.2815 4.01391,-4.89321 6.65181,-6.65182 1.19392,-1.53503 2.38783,-3.07007 3.58175,-4.6051 1.02336,-0.8528 2.04671,-1.7056 3.07007,-2.55839 1.43149,-2.45962 4.03209,-4.22374 6.14014,-6.14014 -1.7056,0.17056 -3.41119,0.34112 -5.11678,0.51168 -2.2293,1.11535 -4.45552,2.23666 -6.69705,3.32724 -8.06023,3.52181 -15.93884,6.96426 -24.00365,10.48807 -1.89709,0.71278 -4.00297,1.504 -6.00445,2.25599 -3.45642,1.97696 -6.91283,3.95391 -10.36925,5.93086 -2.55839,1.02335 -5.11678,2.04671 -7.67517,3.07007 -4.44606,1.88058 -8.89212,3.76115 -13.33817,5.64173 -12.02358,5.78393 -24.04716,11.56786 -36.07076,17.3518 -11.91785,6.07619 -24.17581,12.32577 -35.75351,18.22854 -8.84078,5.41294 -17.20404,10.53352 -26.0636,15.95797 -7.67516,6.07617 -15.35033,12.15234 -23.02552,18.22853 -3.97618,4.14674 -7.95232,8.29343 -11.9285,12.44017 -3.53912,4.4239 -7.02961,8.78702 -10.61732,13.27166 -3.9011,6.80801 -7.62116,13.30009 -11.54474,20.14733 -0.36244,0.73554 -0.70622,1.4332 -1.08732,2.20661 -2.08485,6.37783 -3.98329,12.18541 -5.94826,18.19655 -0.13858,0.49036 -0.27716,0.98072 -0.41573,1.47108 0.60762,1.066 1.21523,2.13199 1.82285,3.19799 z"
         inkscape:path-effect="#path-effect2" />
      <path
         style="display:inline;fill:none;fill-opacity:1;stroke:#000000;stroke-width:0.6;stroke-dasharray:none;stroke-opacity:1"
         d="m 269.96479,349.31569 c 0.91989,-2.33433 1.83979,-4.66866 2.89669,-6.51806 1.05691,-1.8494 2.25082,-3.21387 3.35946,-4.74891 1.10864,-1.53503 2.13199,-3.24063 3.32591,-4.94622 1.19392,-1.70559 2.55839,-3.41119 3.92803,-5.29507 1.36963,-1.88389 2.70787,-3.89126 3.90974,-5.77935 1.20188,-1.88809 2.22523,-3.59369 3.33387,-5.12872 1.10864,-1.53504 2.30255,-2.89951 3.15535,-4.00815 0.85279,-1.10863 1.36447,-1.96143 2.38783,-3.15535 1.02336,-1.19391 2.55839,-2.72895 4.00815,-4.34926 1.44976,-1.62032 2.81423,-3.32591 4.77566,-5.71374 1.96143,-2.38783 4.51982,-5.4579 7.16349,-8.61325 2.64367,-3.15535 5.37262,-6.39598 8.61325,-9.46605 3.24063,-3.07007 6.99294,-5.96958 10.83052,-9.12493 3.83759,-3.15534 7.76046,-6.56653 10.14829,-8.69853 2.38783,-2.13199 3.24062,-2.98478 4.26398,-3.7523 1.02336,-0.76752 2.21728,-1.44976 3.51682,-2.22999 1.29955,-0.78023 2.56025,-1.56817 4.29738,-2.86708 1.73713,-1.29891 3.78384,-3.0045 5.14832,-4.02786 1.36447,-1.02335 2.04671,-1.36447 3.75231,-2.55839 1.70559,-1.19392 4.43454,-3.24063 6.73709,-4.86094 2.30255,-1.62032 4.17871,-2.81423 5.37262,-3.66703 1.19392,-0.8528 1.70559,-1.36447 2.47311,-2.04671 0.76752,-0.68224 1.79088,-1.53504 5.73241,-4.70532 3.94153,-3.17028 10.73685,-8.60654 14.9957,-12.0989 4.25884,-3.49235 5.96444,-5.02739 7.58475,-6.30658 1.62032,-1.2792 3.15535,-2.30255 5.37262,-4.09343 2.21728,-1.79087 5.11679,-4.34926 7.41934,-6.14013 2.30255,-1.79088 4.00814,-2.81423 6.39597,-4.51983 2.38784,-1.70559 5.4579,-4.09343 7.93102,-5.79902 2.47311,-1.7056 4.34926,-2.72895 6.39598,-4.1787 2.04671,-1.44976 4.26398,-3.32591 6.06549,-4.78364 1.80151,-1.45773 3.10918,-2.43848 6.53813,-5.0102 3.42896,-2.57172 8.88686,-6.66514 13.66252,-10.33217 4.77566,-3.66703 8.86909,-6.90766 12.70668,-9.97773 3.83758,-3.07006 7.41933,-5.96957 11.51276,-9.03964 4.09342,-3.07007 8.69852,-6.3107 12.87723,-9.29549 4.1787,-2.98479 7.93101,-5.71374 10.40516,-8.10335 2.47415,-2.38961 3.66288,-4.42744 4.85991,-6.47948"
         id="path3"
         inkscape:path-effect="#path-effect3"
         inkscape:original-d="m 269.96479,349.31569 c 0.91989,-2.33433 1.83979,-4.66866 2.75968,-7.00298 1.19392,-1.36448 2.38784,-2.72895 3.58175,-4.09343 1.02336,-1.70559 2.04671,-3.41119 3.07007,-5.11678 1.36448,-1.70559 2.72895,-3.41119 4.09343,-5.11678 0.90373,-2.37622 2.49118,-4.21745 4.09342,-6.14014 1.02336,-1.70559 2.04671,-3.41119 3.07007,-5.11678 1.19392,-1.36448 2.38783,-2.72895 3.58175,-4.09343 0.51168,-0.85279 1.02335,-1.70559 1.53503,-2.55839 1.53504,-1.53503 3.07007,-3.07007 4.60511,-4.6051 1.36447,-1.7056 2.72895,-3.41119 4.09342,-5.11678 2.55839,-3.07007 5.11678,-6.14014 7.67517,-9.21021 2.72895,-3.24063 5.4579,-6.48126 8.18686,-9.72189 3.7523,-2.89951 7.50461,-5.79902 11.25692,-8.69853 3.92286,-3.41118 7.84573,-6.82237 11.76859,-10.23356 0.8528,-0.8528 1.7056,-1.70559 2.55839,-2.55839 1.19392,-0.68224 2.38784,-1.36448 3.58175,-2.04671 1.06803,-1.41767 2.50527,-1.92314 4.09343,-2.55839 2.04671,-1.7056 4.09342,-3.41119 6.14014,-5.11679 0.68223,-0.34112 1.36447,-0.68223 2.04671,-1.02335 2.72895,-2.04672 5.4579,-4.09343 8.18685,-6.14014 1.87615,-1.19392 3.75231,-2.38783 5.62846,-3.58175 0.51168,-0.51168 1.02336,-1.02335 1.53503,-1.53503 1.02336,-0.8528 2.04672,-1.7056 3.07007,-2.55839 7.37765,-4.84035 13.18116,-11.51637 20.46713,-16.37371 1.70559,-1.53503 3.41119,-3.07006 5.11678,-4.6051 1.53504,-1.02336 3.07007,-2.04671 4.60511,-3.07007 2.89951,-2.55839 5.79902,-5.11678 8.69853,-7.67517 1.70559,-1.02336 3.41118,-2.04671 5.11678,-3.07007 3.07007,-2.38783 6.14014,-4.77566 9.2102,-7.1635 1.87616,-1.02335 3.75231,-2.04671 5.62846,-3.07006 2.21728,-1.87616 4.43455,-3.75231 6.65182,-5.62846 1.71208,-0.6042 2.84341,-1.82007 4.09343,-3.07007 5.4579,-4.09343 10.9158,-8.18685 16.3737,-12.28028 4.09342,-3.24063 8.18685,-6.48126 12.28028,-9.72189 3.58174,-2.89951 7.16349,-5.79901 10.74524,-8.69852 4.6051,-3.24063 9.2102,-6.48126 13.81531,-9.72189 3.7523,-2.72895 7.50461,-5.4579 11.25692,-8.18685 0.94102,-2.199 2.2616,-4.15992 3.58175,-6.14014"
         sodipodi:nodetypes="ccccccccccccccccccccccccccccccccccccccc" />
      <path
         style="display:inline;fill:none;fill-opacity:1;stroke:#000000;stroke-width:0.6;stroke-dasharray:none;stroke-opacity:1"
         d="m 301.37845,295.23831 c -1.36447,-2.04671 -2.72894,-4.09341 -3.83758,-6.22541 -1.10864,-2.132 -1.96144,-4.34927 -2.89951,-6.90766 -0.93808,-2.55839 -1.96143,-5.4579 -2.04671,-9.03965 -0.0853,-3.58174 0.76751,-7.84573 1.62031,-12.10971"
         id="path6"
         inkscape:path-effect="#path-effect6"
         inkscape:original-d="m 301.37845,295.23831 c 0,0 -2.72894,-4.09341 -4.09342,-6.14013 -0.8528,-2.21728 -1.7056,-4.43455 -2.55839,-6.65182 -1.02336,-2.89951 -2.04672,-5.79902 -3.07007,-8.69853 0.85279,-4.26398 1.70559,-8.52797 2.55839,-12.79195"
         sodipodi:nodetypes="ccccc"
         transform="translate(-13.303633,13.303633)" />
      <path
         style="display:inline;fill:none;fill-opacity:1;stroke:#000000;stroke-width:0.6;stroke-dasharray:none;stroke-opacity:1"
         d="m 316.21712,299.33174 c 1.02335,1.36447 2.04671,2.72895 6.22541,4.94622 4.17871,2.21727 11.51277,5.28734 16.28843,7.24878 4.77566,1.96143 6.99294,2.81423 9.89245,3.49646 2.8995,0.68224 6.48125,1.19392 9.46604,1.62032 2.98479,0.4264 5.37262,0.76751 7.76045,1.10863"
         id="path7"
         inkscape:path-effect="#path-effect7"
         inkscape:original-d="m 316.21712,299.33174 c 1.02336,1.36447 2.04671,2.72895 3.07007,4.09343 7.33405,3.07006 14.66811,6.14013 22.00216,9.2102 2.21727,0.8528 4.43455,1.7056 6.65182,2.55839 3.58174,0.51168 7.16349,1.02336 10.74524,1.53504 2.38783,0.34112 4.77566,0.68224 7.16349,1.02335"
         transform="translate(-13.303633,13.303633)" />
      <path
         style="display:inline;fill:none;fill-opacity:1;stroke:#000000;stroke-width:0.6;stroke-dasharray:none;stroke-opacity:1"
         d="m 326.96236,273.23615 c -1.19392,-4.77566 -2.38783,-9.55132 -3.49149,-13.25658 -1.10367,-3.70527 -0.22212,-1.41324 -1.60594,-5.42053 -1.38383,-4.00729 -1.72494,-5.71288 -2.15134,-7.16264 -0.4264,-1.44975 -0.93808,-2.64367 -1.87616,-4.1787 -0.93808,-1.53504 -2.30255,-3.41119 -3.66702,-5.28734"
         id="path8"
         inkscape:path-effect="#path-effect8"
         inkscape:original-d="m 326.96236,273.23615 c -1.19391,-4.77566 -2.38783,-9.55132 -3.58175,-14.32699 -1.9883,-2.2599 0.4787,-0.57766 -2.55839,-6.65181 -0.34112,-1.7056 -0.68223,-3.41119 -1.02335,-5.11679 -0.51168,-1.19391 -1.02336,-2.38783 -1.53504,-3.58174 -1.36447,-1.87616 -2.72895,-3.75231 -4.09342,-5.62846"
         sodipodi:nodetypes="cccccc" />
      <path
         style="display:inline;fill:none;fill-opacity:1;stroke:#000000;stroke-width:0.6;stroke-dasharray:none;stroke-opacity:1"
         d="m 333.1025,287.56314 c 4.26398,4.09343 8.52797,8.18685 11.91596,10.8197 3.38799,2.63285 5.99616,3.84999 12.94374,5.28617 6.94758,1.43618 12.27687,2.2257 19.7189,2.7818 7.44202,0.5561 11.36488,0.0444 19.63701,-2.3434 8.27213,-2.38784 20.89353,-6.65182 33.51492,-10.91581"
         id="path9"
         inkscape:path-effect="#path-effect9"
         inkscape:original-d="m 333.1025,287.56314 c 4.26398,4.09343 8.52797,8.18685 12.79195,12.28028 2.80101,0.55296 5.19505,2.22895 7.67518,3.58175 11.03742,3.72348 15.79894,8.34543 27.63062,4.09342 3.92287,-0.51168 7.84573,-1.02336 11.7686,-1.53503 12.62139,-4.26399 25.24279,-8.52797 37.86418,-12.79196"
         sodipodi:nodetypes="cccccc" />
      <path
         style="display:inline;fill:none;fill-opacity:1;stroke:#000000;stroke-width:0.6;stroke-dasharray:none;stroke-opacity:1"
         d="m 373.52508,263.51427 c 3.07007,0.8528 6.14014,1.70559 9.89244,2.64367 3.75231,0.93808 8.18685,1.96143 11.17164,2.47311 2.98479,0.51168 4.51983,0.51168 8.52797,0.34112 4.00815,-0.17056 10.4894,-0.51168 14.66811,-1.10864 4.17871,-0.59696 6.05486,-1.44975 8.2696,-2.30171 2.21473,-0.85195 4.75603,-1.69905 7.33658,-2.55923"
         id="path10"
         inkscape:path-effect="#path-effect10"
         inkscape:original-d="m 373.52508,263.51427 c 0,0 6.14014,1.70559 9.2102,2.55839 4.43455,1.02335 8.86909,2.04671 13.30364,3.07007 1.53503,0 3.07007,0 4.6051,0 6.48126,-0.34112 12.96251,-0.68224 19.44377,-1.02336 1.87616,-0.8528 3.75231,-1.70559 5.62846,-2.55839 2.56478,-0.81674 5.05722,-1.8104 7.67517,-2.55839"
         sodipodi:nodetypes="ccccccc"
         transform="translate(1.2663389,-6.8744112)" />
      <path
         style="display:inline;fill:none;fill-opacity:1;stroke:#000000;stroke-width:0.6;stroke-dasharray:none;stroke-opacity:1"
         d="m 367.38494,238.44204 c -1.36448,-2.72895 -2.72895,-5.45791 -3.58175,-9.38077 -0.8528,-3.92287 -1.19391,-9.03965 -1.53503,-14.15643 -0.34112,-5.11678 -0.68224,-10.23357 -0.34112,-14.15644 0.34112,-3.92286 1.36447,-6.65181 1.96143,-8.44268 0.59696,-1.79087 0.76752,-2.64367 0.93808,-3.49647"
         id="path11"
         inkscape:path-effect="#path-effect11"
         inkscape:original-d="m 367.38494,238.44204 c 0,0 -2.72895,-5.45791 -4.09343,-8.18686 -0.34112,-5.11678 -0.68223,-10.23356 -1.02335,-15.35034 -0.34112,-5.11678 -0.68224,-10.23357 -1.02336,-15.35035 1.02336,-2.72895 2.04671,-5.4579 3.07007,-8.18685 0.17056,-0.85279 0.51168,-2.55839 0.51168,-2.55839"
         sodipodi:nodetypes="ccsccc"
         transform="translate(-8.186851,7.1634946)" />
      <path
         style="display:inline;fill:none;fill-opacity:1;stroke:#000000;stroke-width:0.6;stroke-dasharray:none;stroke-opacity:1"
         d="m 411.38926,203.13624 c 0.17056,-2.04671 0.34112,-4.09343 0.8528,-6.82238 0.51168,-2.72895 1.36447,-6.14013 2.13039,-9.37354 0.76591,-3.23342 0.34963,-1.36014 1.41217,-5.97102 1.06254,-4.61088 1.40366,-5.8048 2.34174,-8.10735 0.93807,-2.30255 2.47311,-5.71374 3.92286,-8.10158 1.44976,-2.38783 2.81423,-3.7523 4.17871,-5.11678"
         id="path12"
         inkscape:path-effect="#path-effect12"
         inkscape:original-d="m 411.38926,203.13624 c 0,0 0.34112,-4.09343 0.51168,-6.14014 0.8528,-3.41119 1.70559,-6.82237 2.55839,-10.23356 0.1086,-3.1824 0.43364,-1.14438 2.04671,-9.21021 0.34112,-1.19391 0.68224,-2.38783 1.02336,-3.58175 1.53504,-3.41118 3.07007,-6.82237 4.6051,-10.23356 1.36448,-1.36448 4.09343,-4.09343 4.09343,-4.09343"
         transform="translate(-15.919689,7.9598446)"
         sodipodi:nodetypes="ccccccc" />
      <path
         style="display:inline;fill:none;fill-opacity:1;stroke:#000000;stroke-width:0.6;stroke-dasharray:none;stroke-opacity:1"
         d="m 413.94765,222.06833 c 13.4742,1.7056 26.94839,3.41119 35.13524,3.92287 8.18685,0.51168 11.08636,-0.17056 13.64475,-1.19392 2.55839,-1.02335 4.77566,-2.38782 6.94715,-3.82924 2.17149,-1.44142 4.17982,-2.87594 6.31385,-4.40024"
         id="path13"
         inkscape:path-effect="#path-effect13"
         inkscape:original-d="m 413.94765,222.06833 c 13.4742,1.7056 26.94839,3.41119 40.42258,5.11679 2.89951,-0.68224 5.79902,-1.36448 8.69853,-2.04672 2.21727,-1.36447 4.43454,-2.72895 6.65182,-4.09342 2.1257,-1.51836 4.13403,-2.95288 6.26806,-4.47718"
         sodipodi:nodetypes="ccccc" />
      <path
         style="display:inline;fill:none;fill-opacity:1;stroke:#000000;stroke-width:0.6;stroke-dasharray:none;stroke-opacity:1"
         d="m 462.10606,181.52556 c 1.68538,0.7223 3.37075,1.4446 5.49263,1.955 2.12189,0.51039 4.6783,0.80864 7.71509,0.48671 3.03678,-0.32193 6.50495,-1.25241 11.03972,-3.11338 4.53478,-1.86097 10.05962,-4.62339 13.17233,-6.86199 3.11271,-2.23859 3.79494,-3.94418 4.47718,-5.64978"
         id="path14"
         inkscape:path-effect="#path-effect14"
         inkscape:original-d="m 462.10606,181.52556 c 0,0 3.37075,1.4446 5.05613,2.16691 2.55839,0.29848 5.1148,0.59673 7.67517,0.89544 3.5132,-0.94257 6.98137,-1.87305 10.4894,-2.81423 5.56152,-2.78076 11.08636,-5.54318 16.62954,-8.31477 0.68224,-1.7056 1.36448,-3.41119 2.04671,-5.11679"
         sodipodi:nodetypes="cccccc" />
      <path
         style="display:inline;fill:none;fill-opacity:1;stroke:#000000;stroke-width:0.6;stroke-dasharray:none;stroke-opacity:1"
         d="m 462.19527,169.93391 c -0.56163,-2.57731 -1.12327,-5.15462 -1.23352,-8.57527 -0.11026,-3.42064 0.23086,-7.68462 1.76589,-11.94861 1.53504,-4.26398 4.26399,-8.52797 5.96958,-11.00108 1.70559,-2.47311 2.38783,-3.15535 3.07007,-3.83759"
         id="path15"
         inkscape:path-effect="#path-effect15"
         inkscape:original-d="m 462.19527,169.93391 c -0.56163,-2.57731 -1.12327,-5.15462 -1.6849,-7.73192 0.34112,-4.26399 0.68224,-8.52797 1.02336,-12.79196 2.72895,-4.26398 5.4579,-8.52797 8.18685,-12.79195 0.68223,-0.68224 2.04671,-2.04672 2.04671,-2.04672"
         sodipodi:nodetypes="ccccc"
         transform="translate(-8.1407501,3.4372056)" />
      <path
         style="display:inline;fill:none;fill-opacity:0.980392;stroke:#000000;stroke-width:2;stroke-dasharray:none;stroke-opacity:1"
         d="m 497.86287,119.64742 c -8.78381,3.41119 -19.87507,7.89296 -27.07875,10.89677 -7.20368,3.00381 -11.80879,5.05053 -16.24333,7.2678 -4.43454,2.21727 -8.69853,4.60511 -12.28027,6.3107 -3.58175,1.7056 -6.48126,2.72895 -8.78381,3.66703 -2.30256,0.93808 -4.00815,1.79087 -8.0163,3.66702 -4.00814,1.87616 -10.31884,4.77567 -16.27501,7.5834 -5.95616,2.80772 -11.65435,5.57048 -16.06744,7.77735 -4.4131,2.20687 -7.65373,3.91247 -16.07037,8.30382 -8.41665,4.39134 -21.98248,11.45447 -31.00071,16.56471 -9.01824,5.11023 -13.45012,8.2474 -17.77012,11.46778 -4.32,3.22038 -8.52813,6.52398 -13.88878,10.96029 -5.36065,4.43632 -11.87383,10.00537 -17.18748,15.45766 -5.31366,5.45228 -9.42776,10.78779 -13.28132,16.76595 -3.85356,5.97817 -7.44654,12.59893 -10.30304,18.14388 -2.8565,5.54495 -4.97652,10.01409 -6.3475,13.80438 -1.37098,3.79029 -1.94219,6.64798 -2.39777,10.35145 -0.45558,3.70348 -0.63407,6.72815 -0.96796,10.07004 -0.33389,3.34189 -0.67389,5.38193 -0.56168,8.1771 0.11221,2.79517 0.71826,6.09585 0.95733,8.60965 0.23906,2.5138 0.11114,4.24069 0.5482,6.51128 0.43706,2.27059 1.43909,5.0848 2.17463,8.18685 0.73554,3.10204 1.20458,6.49191 1.00204,8.98635 -0.20254,2.49444 -1.07665,4.09342 -2.3112,5.77177 -1.23455,1.67835 -2.82951,3.43603 -4.31989,4.93316 -1.49039,1.49712 -2.87618,2.73368 -4.21933,4.05552 -1.34316,1.32183 -2.64367,2.72894 -4.27465,4.98886 -1.63098,2.25992 -3.5924,5.3726 -6.33538,9.57236 -2.74299,4.19976 -1.63268,2.5343 -3.16919,4.93168 -1.53651,2.39738 -1.78955,2.90345 -2.07476,3.81499 -0.28521,0.91154 -0.45577,1.93489 0.78944,2.69768 1.24521,0.76279 3.90616,1.26501 5.83361,0.57804 1.92744,-0.68697 3.12135,-2.56312 4.31527,-4.18343 1.19391,-1.62032 2.38783,-2.98479 4.1787,-4.86095 1.79088,-1.87615 4.17871,-4.26398 6.99294,-6.22542 2.81423,-1.96143 6.05486,-3.49647 9.46604,-4.1787 3.41119,-0.68224 6.99294,-0.51168 9.55133,-0.4264 2.55839,0.0853 4.09342,0.0853 7.05689,0.064 2.96348,-0.0213 7.35536,-0.064 11.72596,-0.4264 4.3706,-0.36244 8.71984,-1.04467 12.32291,-1.57767 3.60308,-0.533 1.8805,-0.30161 12.7575,-2.18843 10.877,-1.88683 4.23032,-0.59872 10.56442,-1.83815 6.3341,-1.23944 10.17169,-2.00696 14.07323,-2.98768 3.90155,-0.98071 7.86704,-2.17462 11.61937,-3.47514 3.75232,-1.30053 7.00032,-2.5919 10.50749,-4.29934 3.50717,-1.70744 5.86099,-3.10608 9.67987,-5.53285 3.81888,-2.42677 8.16812,-5.32627 14.90524,-10.46439 6.73712,-5.13812 15.86198,-12.51476 21.23462,-17.11988 5.37264,-4.60512 7.25241,-6.73223 7.93283,-7.50219 0.68043,-0.76995 24.60139,-26.22594 25.24786,-27.16396 0.64647,-0.93801 7.89136,-11.45021 10.57274,-15.23382 2.68138,-3.78361 3.53418,-4.80697 4.21642,-5.83033 0.68224,-1.02336 1.19391,-2.04671 9.76452,-16.43765 8.57061,-14.39095 -0.56461,0.85784 5.30351,-8.81326 5.86812,-9.67111 8.4519,-13.73738 12.09557,-19.6779 3.64368,-5.94051 8.50624,-14.02258 11.49023,-19.20242 2.98398,-5.17985 4.47637,-8.10066 5.57435,-10.47784 1.09798,-2.37718 1.80153,-4.21069 2.43047,-6.14014 0.62894,-1.92945 1.18325,-3.95484 1.93962,-6.00582 0.75636,-2.05098 1.85787,-4.43758 2.70407,-6.12886 0.84619,-1.69129 1.52843,-2.8852 2.27806,-4.87109 0.74963,-1.9859 1.6481,-5.04069 2.32298,-7.14945 0.67488,-2.10875 1.16408,-3.41327 1.77468,-5.06998 0.61061,-1.65671 1.29285,-3.53286 1.7706,-4.96377 0.47776,-1.43091 0.75104,-2.41657 1.00688,-3.95161 0.25584,-1.53504 0.49424,-3.61944 0.80596,-7.58083 0.31171,-3.96139 0.69519,-9.77626 0.69536,-12.84887 1.7e-4,-3.07262 -0.38426,-3.38359 -2.51274,-3.81568 -2.12847,-0.4321 -1.61723,-0.35906 -7.07876,0.66987 -5.46153,1.02893 -12.58238,3.62996 -21.3662,7.04115 z"
         id="path16"
         inkscape:path-effect="#path-effect17"
         inkscape:original-d="m 499.52583,118.83726 c -10.44677,4.22135 -21.53803,8.70312 -31.34029,12.66403 -4.6051,2.04672 -9.21021,4.09343 -13.81531,6.14014 -4.26398,2.38783 -8.52797,4.77567 -12.79195,7.1635 -2.89951,1.02335 -5.79902,2.04671 -8.69853,3.07007 -1.7056,0.85279 -3.41119,1.70559 -5.11679,2.55839 -6.31069,2.89951 -12.62139,5.79902 -18.93209,8.69853 -5.82732,2.25046 -11.08259,5.92673 -16.88538,8.18685 -3.24063,1.70559 -6.48126,3.41119 -9.72188,5.11678 -12.92232,8.36461 -26.83084,14.76955 -40.76309,21.22354 -4.43188,3.13716 -8.86376,6.27433 -13.29564,9.4115 -4.20812,3.30359 -8.41625,6.60718 -12.62437,9.91078 -6.51318,5.56904 -13.02636,11.13809 -19.53955,16.70714 -4.11412,5.33552 -8.22822,10.67103 -12.34235,16.00656 -3.59299,6.6208 -7.18597,13.24156 -10.77895,19.86233 -2.12002,4.46913 -4.24004,8.93827 -6.36006,13.4074 -0.62194,3.11145 -1.19315,5.96914 -1.86582,9.33437 -0.23849,4.04172 -0.41698,7.06639 -0.66153,11.21081 -0.42323,2.53936 -0.76324,4.5794 -1.14485,6.86909 0.60604,3.30065 1.21209,6.60133 1.81814,9.90201 -0.12792,1.72692 -0.25584,3.45381 -0.38376,5.18074 1.00205,2.81425 2.00408,5.62846 3.00611,8.44269 0.46904,3.38986 0.93808,6.77973 1.40712,10.16961 -0.87412,1.599 -1.74823,3.19798 -2.62235,4.79698 -1.59498,1.7577 -3.18994,3.51538 -4.78491,5.27307 -1.3858,1.23656 -2.77159,2.47312 -4.15738,3.70968 -1.30052,1.40711 -2.60103,2.81422 -3.90155,4.22134 -1.96144,3.11272 -3.92286,6.2254 -5.8843,9.33812 -4.52793,4.61787 -2.41424,3.62133 -5.11678,7.67518 0.15539,1.00385 -0.35693,1.38028 -1.02336,2.04671 -0.17056,1.02336 -0.34112,2.04671 -0.51168,3.07007 2.66098,0.50222 5.32193,1.00444 7.9829,1.50666 1.19392,-1.87616 2.38783,-3.75231 3.58175,-5.62846 1.19391,-1.36448 2.38783,-2.72895 3.58174,-4.09343 2.38784,-2.38783 4.77567,-4.77566 7.1635,-7.16349 3.24063,-1.53504 6.48126,-3.07007 9.72188,-4.60511 3.58175,0.17056 7.1635,0.34112 10.74525,0.51168 1.53503,0 3.07006,0 4.6051,0 4.39191,-0.0426 8.78379,-0.0853 13.17571,-0.12792 4.34928,-0.68224 8.69852,-1.36447 13.04779,-2.04671 2.85688,-0.38376 1.1343,-0.15237 8.57062,-1.15128 14.31768,-2.77474 7.671,-1.48663 16.50161,-3.19798 3.83759,-0.76752 7.67518,-1.53504 11.51277,-2.30256 3.9655,-1.19391 7.93099,-2.38782 11.89651,-3.58174 3.53913,-1.40713 6.78713,-2.6985 10.61732,-4.22135 3.18415,-1.89203 5.53797,-3.29067 8.82646,-5.2447 4.34927,-2.89951 8.69851,-5.79901 13.04779,-8.69853 9.12496,-7.37672 18.24982,-14.75336 27.37478,-22.13008 1.62032,-1.83352 3.50009,-3.96063 4.86094,-5.50054 l 23.92096,-25.45599 c 1.29294,-1.87603 8.53783,-12.38823 13.0478,-18.9321 0.85279,-1.02335 1.70559,-2.04671 2.55839,-3.07007 0.51167,-1.02336 1.02335,-2.04671 1.53503,-3.07007 21.78111,-30.70777 5.54465,-13.67774 16.62954,-27.75853 2.60102,-4.09342 5.1848,-8.15969 7.80309,-12.28028 4.66906,-7.76044 9.53162,-15.84251 14.00719,-23.28136 1.4924,-2.92084 2.98479,-5.84165 4.47719,-8.76249 0.70356,-1.83352 1.40711,-3.66703 2.11067,-5.50054 0.55431,-2.02539 1.10863,-4.05078 1.66295,-6.07618 1.78576,-1.69471 2.24341,-4.37847 3.07007,-6.65181 0.68224,-1.19392 1.36448,-2.38783 2.04672,-3.58175 0.0277,-3.01002 1.55203,-5.88074 2.55839,-8.69853 -0.22722,-1.62692 0.73207,-2.75516 1.53503,-4.09342 0.68224,-1.87616 1.36448,-3.75231 2.04671,-5.62846 0.27328,-0.98567 0.54656,-1.97133 0.81984,-2.957 0.2384,-2.08441 0.4768,-4.16881 0.7152,-6.25321 0.74924,-5.81436 1.00911,-11.63738 1.15327,-17.48751 -0.38442,-0.31097 -0.76885,-0.62194 -1.15327,-0.93291 -3.66713,-1.99105 -3.2837,-1.02335 -7.1635,-1.02335 -7.12085,2.60103 -14.2417,5.20206 -21.36256,7.80309 z"
         sodipodi:nodetypes="cccccccccccccccccccccccccccccccccccccccccccccccccccccccccccccccccccccc"
         inkscape:label="Outline" />
    </g>
  </g>
</svg>
