<?xml version="1.0" encoding="UTF-8" standalone="no"?>
<!-- Created with Inkscape (http://www.inkscape.org/) -->

<svg
   version="1.1"
   id="svg1"
   width="793.59998"
   height="559.35999"
   viewBox="0 0 793.59998 559.35999"
   sodipodi:docname="Tomato.svg"
   inkscape:version="1.4 (86a8ad7, 2024-10-11)"
   xmlns:inkscape="http://www.inkscape.org/namespaces/inkscape"
   xmlns:sodipodi="http://sodipodi.sourceforge.net/DTD/sodipodi-0.dtd"
   xmlns="http://www.w3.org/2000/svg"
   xmlns:svg="http://www.w3.org/2000/svg">
  <defs
     id="defs1">
    <inkscape:path-effect
       effect="bspline"
       id="path-effect9"
       is_visible="true"
       lpeversion="1.3"
       weight="33.333333"
       steps="2"
       helper_size="0"
       apply_no_weight="true"
       apply_with_weight="true"
       only_selected="false"
       uniform="false" />
    <inkscape:path-effect
       effect="bspline"
       id="path-effect7"
       is_visible="true"
       lpeversion="1.3"
       weight="33.333333"
       steps="2"
       helper_size="0"
       apply_no_weight="true"
       apply_with_weight="true"
       only_selected="false"
       uniform="false" />
    <inkscape:path-effect
       effect="bspline"
       id="path-effect5"
       is_visible="true"
       lpeversion="1.3"
       weight="33.333333"
       steps="2"
       helper_size="0"
       apply_no_weight="true"
       apply_with_weight="true"
       only_selected="false"
       uniform="false" />
    <inkscape:path-effect
       effect="bspline"
       id="path-effect4"
       is_visible="true"
       lpeversion="1.3"
       weight="33.333333"
       steps="2"
       helper_size="0"
       apply_no_weight="true"
       apply_with_weight="true"
       only_selected="false"
       uniform="false" />
    <inkscape:path-effect
       effect="bspline"
       id="path-effect3"
       is_visible="true"
       lpeversion="1.3"
       weight="33.333333"
       steps="2"
       helper_size="0"
       apply_no_weight="true"
       apply_with_weight="true"
       only_selected="false"
       uniform="false" />
    <inkscape:path-effect
       effect="bspline"
       id="path-effect2"
       is_visible="true"
       lpeversion="1.3"
       weight="33.333333"
       steps="2"
       helper_size="0"
       apply_no_weight="true"
       apply_with_weight="true"
       only_selected="false"
       uniform="false" />
    <inkscape:path-effect
       effect="bspline"
       id="path-effect1"
       is_visible="true"
       lpeversion="1.3"
       weight="33.333333"
       steps="2"
       helper_size="0"
       apply_no_weight="true"
       apply_with_weight="true"
       only_selected="false"
       uniform="false" />
  </defs>
  <sodipodi:namedview
     id="namedview1"
     pagecolor="#ffffff"
     bordercolor="#111111"
     borderopacity="1"
     inkscape:showpageshadow="0"
     inkscape:pageopacity="0"
     inkscape:pagecheckerboard="1"
     inkscape:deskcolor="#d1d1d1"
     inkscape:zoom="0.9771767"
     inkscape:cx="604.80362"
     inkscape:cy="293.1916"
     inkscape:window-width="1920"
     inkscape:window-height="991"
     inkscape:window-x="-9"
     inkscape:window-y="-9"
     inkscape:window-maximized="1"
     inkscape:current-layer="g1" />
  <g
     inkscape:groupmode="layer"
     inkscape:label="Image"
     id="g1">
    <g
       id="g11"
       transform="matrix(2.0375527,0,0,2.0375527,-469.31072,-225.28147)">
      <path
         style="fill:#d61212;fill-opacity:0.968627;stroke:none;stroke-width:2.5;stroke-dasharray:none;stroke-opacity:1"
         d="m 386.41427,175.11658 c 8.20105,-1.44724 16.40211,-2.89449 24.84437,-3.3769 8.44225,-0.48242 17.12572,0 25.20617,0.36181 8.08045,0.36181 15.55788,0.60301 21.22626,1.08543 5.66837,0.48241 9.52768,1.20604 12.30157,1.68845 2.77388,0.48242 4.46234,0.72362 9.04528,2.65328 4.58294,1.92966 12.06037,5.54778 17.60814,8.32166 5.54777,2.77389 9.16588,4.70354 14.71365,8.92467 5.54777,4.22113 13.0252,10.73373 17.36693,14.47245 4.34174,3.73871 5.54777,4.70354 6.392,5.66837 0.84423,0.96483 1.32664,1.92966 1.92966,2.77389 0.60302,0.84422 1.32664,1.56785 2.05026,2.41208 0.72363,0.84422 1.44725,1.80905 3.1357,4.34173 1.68845,2.53267 4.34173,6.6332 7.71863,12.06037 3.3769,5.42716 7.47743,12.18097 9.5277,15.79908 2.05026,3.61811 2.05026,4.10053 2.65328,5.54777 0.60302,1.44725 1.80906,3.85932 2.17087,8.68347 0.36181,4.82415 -0.12061,12.06037 -0.72363,18.69357 -0.60301,6.63321 -1.32664,12.66339 -4.46233,20.38203 -3.1357,7.71864 -8.68347,17.12573 -13.74883,24.24134 -5.06535,7.11562 -9.64829,11.93977 -12.66338,14.83426 -3.0151,2.89449 -4.46234,3.85932 -7.95985,6.392 -3.49751,2.53267 -9.04528,6.6332 -16.64331,10.49252 -7.59803,3.85932 -17.24633,7.47743 -22.91471,9.40709 -5.66837,1.92966 -7.35682,2.17086 -8.92467,2.53268 -1.56785,0.36181 -3.01509,0.84422 -6.27139,1.44724 -3.2563,0.60302 -8.32166,1.32664 -12.06037,1.68845 -3.73872,0.36181 -6.15079,0.36181 -9.16589,0.60302 -3.01509,0.24121 -6.6332,0.72362 -10.97493,0.96483 -4.34173,0.24121 -9.40709,0.24121 -20.98504,-0.24121 -11.57796,-0.48241 -29.66852,-1.44724 -44.98519,-4.46233 -15.31667,-3.0151 -27.85945,-8.08045 -36.78413,-12.9046 -8.92467,-4.82415 -14.23123,-9.40709 -17.60814,-12.30158 -3.3769,-2.89449 -4.82415,-4.10052 -6.75381,-6.27139 -1.92965,-2.17087 -4.34173,-5.30656 -7.23622,-8.92468 -2.89449,-3.61811 -6.27139,-7.71863 -9.30155,-15.36189 -3.03017,-7.64326 -5.71361,-18.82926 -6.95733,-27.69363 -1.24373,-8.86437 -1.04775,-15.40713 -0.42966,-20.18605 0.6181,-4.77891 1.6583,-7.79401 2.90203,-11.59302 1.24373,-3.79902 2.69097,-8.38196 6.30908,-15.37697 3.61811,-6.99502 9.40709,-16.40211 14.11064,-22.91471 4.70354,-6.5126 8.32165,-10.13071 11.33675,-12.66339 3.01509,-2.53268 5.42716,-3.97992 7.95984,-5.66838 2.53268,-1.68845 5.18596,-3.61811 9.04528,-5.78898 3.85932,-2.17086 8.92467,-4.58293 11.93976,-6.15078 3.0151,-1.56785 3.97993,-2.29147 6.63321,-3.49751 2.65328,-1.20603 6.99506,-2.8945 11.33675,-4.58294 m 0,0 c 6.03018,-2.17087 12.06037,-4.34173 18.09055,-6.5126"
         id="path2"
         inkscape:path-effect="#path-effect2"
         inkscape:original-d="m 386.41427,175.11658 c 0,0 16.40211,-2.89449 24.60316,-4.34173 8.68346,0.48241 17.36693,0.96483 26.0504,1.44724 7.47743,0.24121 14.95486,0.48242 22.43229,0.72362 3.85932,0.72363 7.71863,1.44725 11.57795,2.17087 1.68845,0.24121 3.37691,0.48241 5.06536,0.72362 7.47743,3.61811 14.95486,7.23622 22.43229,10.85434 3.61811,1.92966 7.23622,3.85931 10.85433,5.78897 7.47743,6.5126 14.95486,13.0252 22.43229,19.5378 1.20604,0.96483 2.41207,1.92966 3.61811,2.89449 0.48242,0.96483 0.96483,1.92966 1.44725,2.89449 0.72362,0.72362 1.44724,1.44725 2.17086,2.17087 0.72363,0.96483 1.44725,1.92966 2.17087,2.89449 2.65328,4.10052 5.30656,8.20105 7.95984,12.30158 4.10053,6.7538 8.20106,13.50761 12.30158,20.26142 0,0.48241 0,0.96483 0,1.44724 1.20604,2.41208 2.41208,4.82415 3.61811,7.23622 -0.48241,7.23623 -0.96483,14.47245 -1.44724,21.70867 -0.72362,6.03019 -1.44725,12.06037 -2.17087,18.09056 -5.54777,9.40709 -11.09554,18.81418 -16.64331,28.22126 -4.58294,4.82415 -9.16588,9.6483 -13.74882,14.47245 -1.44725,0.96483 -2.89449,1.92966 -4.34174,2.89449 -5.54777,4.10052 -11.09554,8.20105 -16.64331,12.30158 -9.64829,3.61811 -19.29659,7.23622 -28.94489,10.85433 -1.68845,0.24121 -3.3769,0.48241 -5.06535,0.72362 -1.44725,0.48242 -2.89449,0.96483 -4.34173,1.44725 -5.06536,0.72362 -10.13072,1.44724 -15.19607,2.17086 -2.41208,0 -4.82415,0 -7.23622,0 -3.61812,0.48242 -7.23623,0.96483 -10.85434,1.44725 -5.06535,0 -10.13071,0 -15.19606,0 -18.09056,-0.96483 -36.18112,-1.92966 -54.27167,-2.89449 -12.54279,-5.06536 -25.08557,-10.13071 -37.62836,-15.19607 -5.30656,-4.58294 -10.61312,-9.16588 -15.91969,-13.74882 -1.44724,-1.20604 -2.89449,-2.41207 -4.34173,-3.61811 -2.41207,-3.1357 -4.82415,-6.27139 -7.23622,-9.40709 -3.37691,-4.10053 -6.75381,-8.20105 -10.13071,-12.30158 -2.68343,-11.18599 -5.36687,-22.37199 -8.0503,-33.55798 0.19598,-6.54275 0.39196,-13.08551 0.58794,-19.62825 1.04021,-3.01509 2.08041,-6.03019 3.12062,-9.04528 1.44725,-4.58294 2.89449,-9.16588 4.34174,-13.74882 5.78897,-9.40709 11.57795,-18.81418 17.36693,-28.22127 3.61811,-3.61811 7.23622,-7.23622 10.85433,-10.85433 2.41208,-1.44725 4.82415,-2.89449 7.23623,-4.34174 2.65328,-1.92966 5.30656,-3.85932 7.95984,-5.78898 5.06536,-2.41207 10.13071,-4.82414 15.19607,-7.23622 0.96483,-0.72362 1.92966,-1.44724 2.89449,-2.17086 4.34173,-1.68845 8.68351,-3.37692 13.0252,-5.06536 m 0,0 c 0,0 12.06037,-4.34173 18.09055,-6.5126"
         sodipodi:nodetypes="cccccccccccccccccccccccccccccccccccccsccccccccccc"
         inkscape:label="Base color" />
      <path
         style="fill:#44a94e;fill-opacity:0.992157;stroke:none;stroke-width:2.5;stroke-dasharray:none;stroke-opacity:1"
         d="m 320.56465,185.00608 c 0.24121,-1.44724 1.20604,-2.41207 1.20604,-2.41207 0,0 -0.96483,0.96483 -0.36181,0.48242 0.60301,-0.48242 2.77388,-2.41208 7.54545,-4.41363 4.77157,-2.00156 13.42714,-4.43594 18.67963,-5.80014 5.25248,-1.36419 8.62939,-2.08782 11.64448,-2.57023 3.01509,-0.48242 5.66837,-0.72362 7.83924,-0.84423 2.17087,-0.1206 3.85932,-0.1206 6.5126,-0.2412 2.65327,-0.12061 6.27139,-0.36181 8.56286,-0.36181 2.29147,0 3.2563,0.2412 2.53268,-1.44725 -0.72362,-1.68845 -3.1357,-5.30656 -7.47743,-8.92467 -4.34173,-3.61811 -10.61313,-7.23622 -14.95486,-9.8895 -4.34173,-2.65328 -6.75381,-4.34174 -8.08045,-5.42717 -1.32664,-1.08544 -1.56785,-1.56785 -2.53267,-2.53268 -0.96483,-0.96483 -2.65329,-2.41207 -2.41208,-3.61811 0.24121,-1.20604 2.41207,-2.17087 4.49723,-2.77825 2.08515,-0.60738 3.90332,-0.83465 5.61263,-0.83726 1.7093,-0.003 3.15655,0.2386 4.12138,0.35921 0.96483,0.1206 1.44724,0.1206 2.29147,0.2412 0.84422,0.12061 2.05026,0.36182 4.22112,1.08544 2.17087,0.72362 5.30657,1.92966 11.81917,4.22113 6.5126,2.29147 16.40211,5.66838 23.87953,8.56286 7.47743,2.89449 12.54279,5.30657 15.07547,5.54777 2.53268,0.24121 2.53268,-1.68845 2.89449,-4.94475 0.36181,-3.2563 1.08543,-7.83924 1.56784,-12.54279 0.48242,-4.70354 0.72362,-9.52769 0.96483,-11.93977 0.24121,-2.41207 0.48242,-2.41207 0.72363,-3.25629 0.24121,-0.84423 0.48241,-2.53268 3.49751,-3.1357 3.01509,-0.60302 8.80406,-0.1206 12.42218,0.24121 3.61811,0.36181 5.06535,0.60302 6.15079,0.72362 1.08543,0.12061 1.80905,0.12061 2.29147,0.12061 0.48241,0 0.72362,0 -0.1206,1.68845 -0.84423,1.68845 -2.77389,5.06535 -3.73872,7.11562 -0.96483,2.05026 -0.96483,2.77388 -1.68845,4.70354 -0.72363,1.92966 -2.17088,5.06536 -3.25631,7.95984 -1.08543,2.89449 -1.80905,5.54778 -2.17086,7.23623 -0.36181,1.68845 -0.36181,2.41207 -0.60302,3.2563 -0.24121,0.84422 -0.72362,1.80905 -0.96483,2.53267 -0.24121,0.72363 -0.24121,1.20604 -0.36181,1.44725 -0.1206,0.24121 -0.36181,0.24121 0.72362,0.12061 1.08543,-0.12061 3.49751,-0.36181 7.11562,-1.20604 3.61811,-0.84423 8.44226,-2.29147 11.93976,-2.89449 3.49751,-0.60302 5.66838,-0.36182 7.71865,0.1206 2.05026,0.48241 3.97992,1.20604 6.27139,1.92966 2.29147,0.72362 4.94475,1.44725 6.15079,1.92966 1.20603,0.48242 0.96483,0.72362 0,1.32664 -0.96483,0.60302 -2.65329,1.56785 -4.34174,2.65328 -1.68845,1.08544 -3.3769,2.29147 -4.94475,3.37691 -1.56785,1.08543 -3.01509,2.05026 -3.85932,2.53267 -0.84422,0.48242 -1.08543,0.48242 -1.08543,0.48242 0,0 0.24121,0 0.72363,0 0.48241,0 1.20603,0 7.95984,0.84422 6.7538,0.84423 19.5378,2.53268 27.73885,3.73872 8.20105,1.20603 11.81916,1.92966 15.31667,2.89449 3.49751,0.96483 6.87441,2.17087 8.92467,3.01509 2.05026,0.84423 2.77389,1.32664 3.61811,1.68846 0.84423,0.36181 1.80906,0.60301 3.1357,1.32664 1.32664,0.72362 3.01509,1.92965 4.46234,2.77388 1.44724,0.84422 2.65328,1.32664 3.2563,1.68845 0.60302,0.36181 0.60302,0.60302 0.72362,0.72363 0.1206,0.1206 0.36181,0.1206 0.48241,0.48241 0.12061,0.36181 0.12061,1.08543 0.24121,1.56784 0.1206,0.48242 0.36181,0.72363 0.12061,0.72363 -0.24121,0 -0.96483,-0.24121 -1.80906,-0.36181 -0.84423,-0.12061 -1.80906,-0.12061 -3.01509,-0.36182 -1.20604,-0.2412 -2.65329,-0.72362 -4.46235,-1.08543 -1.80905,-0.36181 -3.97991,-0.60301 -8.68346,-1.20603 -4.70354,-0.60302 -11.93976,-1.56785 -16.52271,-1.92966 -4.58294,-0.36181 -6.5126,-0.12061 -9.7689,0 -3.2563,0.1206 -7.83924,0.1206 -10.61313,0.36181 -2.77388,0.2412 -3.73871,0.72362 -5.54777,1.08543 -1.80905,0.36181 -4.46233,0.60302 -6.51259,0.96483 -2.05026,0.36181 -3.49751,0.84423 -6.87442,1.68845 -3.3769,0.84423 -8.68346,2.05026 -12.18097,3.49751 -3.4975,1.44724 -5.18596,3.1357 -6.15079,4.34174 -0.96483,1.20603 -1.20603,1.92965 -2.17086,3.37689 -0.96483,1.44725 -2.65329,3.61811 -3.73872,5.30657 -1.08543,1.68845 -1.56785,2.89449 -2.89449,4.70355 -1.32664,1.80905 -3.4975,4.22112 -5.42716,6.6332 -1.92966,2.41207 -3.61812,4.82415 -5.06536,6.03018 -1.44724,1.20604 -2.65328,1.20604 -3.97992,1.20604 -1.32664,0 -2.77389,0 -3.61812,-0.1206 -0.84422,-0.12061 -1.08542,-0.36181 -1.44724,-0.48242 -0.36181,-0.1206 -0.84422,-0.1206 -1.08543,-0.2412 -0.24121,-0.12061 -0.24121,-0.36182 -0.48241,-0.48242 -0.24121,-0.1206 -0.72363,-0.1206 -0.96484,-0.36181 -0.2412,-0.24121 -0.2412,-0.72362 -0.48241,-1.56785 -0.24121,-0.84423 -0.72362,-2.05026 -1.20604,-3.2563 -0.48241,-1.20604 -0.96483,-2.41207 -0.96483,-3.3769 0,-0.96483 0.48241,-1.68845 0.72362,-4.34174 0.24121,-2.65328 0.24121,-7.23622 -0.1206,-9.8895 -0.36181,-2.65328 -1.08543,-3.3769 -1.44724,-3.85932 -0.36181,-0.48241 -0.36181,-0.72362 -0.72362,-0.84422 -0.36182,-0.12061 -1.08544,-0.12061 -1.80906,-0.36182 -0.72362,-0.2412 -1.44724,-0.72361 -2.29147,-0.96482 -0.84423,-0.24121 -1.80906,-0.24121 -2.53268,-0.36181 -0.72362,-0.12061 -1.20604,-0.36182 -2.53268,-0.60303 -1.32664,-0.24121 -3.4975,-0.48241 -5.66837,-0.96483 -2.17087,-0.48241 -4.34173,-1.20603 -9.16588,-2.17086 -4.82415,-0.96483 -12.30158,-2.17087 -17.48754,-2.77389 -5.18596,-0.60302 -8.08045,-0.60302 -13.0252,-0.48242 -4.94475,0.12061 -11.93977,0.36182 -17.00512,1.08544 -5.06536,0.72363 -8.20105,1.92966 -10.29281,2.79464 -2.09177,0.86497 -2.80746,1.22282 -4.45838,1.74677 -1.65092,0.52395 -3.82178,1.00636 -5.14842,0.28274 -1.32664,-0.72362 -1.80906,-2.65328 -1.56785,-4.10053 z"
         id="path3"
         inkscape:path-effect="#path-effect3"
         inkscape:original-d="m 319.84103,184.52367 c 0.96483,-0.96483 1.92966,-1.92966 2.89449,-2.89449 -0.96483,0.96483 -1.92966,1.92966 -2.89449,2.89449 2.17086,-1.92966 4.34173,-3.85932 6.5126,-5.78898 8.04006,0.30093 15.464,-6.5126 23.15591,-6.5126 3.3769,-0.72362 6.75381,-1.44724 10.13071,-2.17087 2.65328,-0.2412 5.30656,-0.48241 7.95984,-0.72362 1.68846,0 3.37691,0 5.06536,0 3.6181,-0.24121 7.23622,-0.48241 10.85433,-0.72362 0.96483,0.24121 1.92966,0.48241 2.89449,0.72362 -2.41207,-3.61811 -4.82415,-7.23622 -7.23622,-10.85433 -6.27139,-3.61811 -12.54279,-7.23622 -18.81418,-10.85433 -2.41207,-1.68846 -4.82415,-3.37691 -7.23622,-5.06536 -0.24121,-0.48242 -0.48242,-0.96483 -0.72362,-1.44724 -1.68845,-1.44725 -3.37691,-2.89449 -5.06536,-4.34174 2.17087,-0.96483 4.34173,-1.92966 6.5126,-2.89449 2.05629,0.20487 3.8669,-0.0829 5.78898,-0.72362 1.44724,0.24121 2.89449,0.48242 4.34173,0.72362 0.48242,0 0.96483,0 1.44725,0 1.20603,0.24121 2.41207,0.48242 3.61811,0.72363 3.13569,1.20603 6.27139,2.41207 9.40709,3.61811 9.8895,3.3769 19.77901,6.7538 29.66851,10.13071 5.06535,2.41207 10.13071,4.82415 15.19607,7.23622 0,-1.92966 0,-3.85932 0,-5.78898 0.72362,-4.58294 1.44724,-9.16588 2.17086,-13.74882 0.24121,-4.82415 0.48242,-9.6483 0.72362,-14.47245 0.24121,0 0.48242,0 0.72363,0 0.2412,-1.68845 0.48241,-3.3769 0.72362,-5.06535 5.78898,0.48241 11.57795,0.96483 17.36693,1.44724 1.44725,0.24121 2.89449,0.48242 4.34174,0.72363 0.72362,0 1.44724,0 2.17086,0 0.24121,0 0.48242,0 0.72363,0 -1.92966,3.3769 -3.85932,6.7538 -5.78898,10.13071 0,0.72362 0,1.44724 0,2.17086 -1.44725,3.1357 -2.89449,6.2714 -4.34174,9.40709 -0.72362,2.65328 -1.44724,5.30657 -2.17086,7.95985 0,0.72362 0,1.44724 0,2.17086 -0.48242,0.96483 -0.96483,1.92966 -1.44725,2.89449 0,0.48242 0,0.96483 0,1.44725 -0.2412,0 -0.48241,0 -0.72362,0 2.41207,-0.24121 4.82415,-0.48242 7.23622,-0.72362 4.82415,-1.44725 9.6483,-2.89449 14.47245,-4.34174 2.17086,0.24121 4.34173,0.48242 6.5126,0.72362 1.92966,0.72363 3.85932,1.44725 5.78898,2.17087 2.65328,0.72362 5.30656,1.44725 7.95984,2.17087 -0.24121,0.24121 -0.48241,0.48241 -0.72362,0.72362 -1.68845,0.96483 -3.37691,1.92966 -5.06536,2.89449 -1.68845,1.20604 -3.3769,2.41207 -5.06535,3.61811 -1.44725,0.96483 -2.89449,1.92966 -4.34174,2.89449 -0.2412,0 -0.48241,0 -0.72362,0 0.24121,0 0.48242,0 0.72362,0 0.72363,0 1.44725,0 2.17087,0 12.78399,1.68845 25.56799,3.3769 38.35198,5.06535 3.61811,0.72363 7.23622,1.44725 10.85433,2.17087 3.37691,1.20604 6.75381,2.41208 10.13071,3.61811 0.72362,0.48242 1.44725,0.96483 2.17087,1.44725 0.96483,0.2412 1.92966,0.48241 2.89449,0.72362 1.68845,1.20604 3.3769,2.41207 5.06535,3.61811 1.20604,0.48242 2.41208,0.96483 3.61812,1.44724 0,0.24121 0,0.48242 0,0.72363 0.2412,0 0.48241,0 0.72362,0 0,0.72362 0,1.44724 0,2.17086 0.2412,0.24121 0.48241,0.48242 0.72362,0.72363 -0.72362,-0.24121 -1.44724,-0.48242 -2.17087,-0.72363 -0.96483,0 -1.92966,0 -2.89449,0 -1.44724,-0.48241 -2.89449,-0.96483 -4.34173,-1.44724 -2.17087,-0.24121 -4.34173,-0.48242 -6.5126,-0.72362 -7.23622,-0.96483 -14.47244,-1.92966 -21.70867,-2.89449 -1.92966,0.24121 -3.85932,0.48241 -5.78897,0.72362 -4.58295,0 -9.16589,0 -13.74883,0 -0.96483,0.48242 -1.92966,0.96483 -2.89449,1.44724 -2.65328,0.24121 -5.30656,0.48242 -7.95984,0.72363 -1.44724,0.48241 -2.89449,0.96483 -4.34173,1.44724 -5.30657,1.20604 -10.61313,2.41208 -15.91969,3.61811 -1.68845,1.68845 -3.37691,3.37691 -5.06536,5.06536 -0.24121,0.72362 -0.48241,1.44724 -0.72362,2.17086 -1.68845,2.17087 -3.3769,4.34174 -5.06536,6.5126 -0.48241,1.20604 -0.96483,2.41208 -1.44724,3.61812 -2.17087,2.41207 -4.34173,4.82414 -6.5126,7.23622 -1.68845,2.41207 -3.3769,4.82415 -5.06536,7.23622 -1.20603,0 -2.41207,0 -3.61811,0 -1.44724,0 -2.89449,0 -4.34173,0 -0.24121,-0.24121 -0.48242,-0.48241 -0.72362,-0.72362 -0.48242,0 -0.96483,0 -1.44725,0 0,-0.24121 0,-0.48242 0,-0.72362 -0.48241,0 -0.96483,0 -1.44724,0 0,-0.48242 0,-0.96483 0,-1.44725 -0.48242,-1.20604 -0.96483,-2.41207 -1.44725,-3.61811 -0.48241,-1.20604 -0.96483,-2.41207 -1.44724,-3.61811 0.48241,-0.72362 0.96483,-1.44724 1.44724,-2.17087 0,-4.58294 0,-9.16588 0,-13.74882 -0.72362,-0.72362 -1.44724,-1.44724 -2.17086,-2.17087 0,-0.2412 0,-0.48241 0,-0.72362 -0.72363,0 -1.44725,0 -2.17087,0 -0.72362,-0.48241 -1.44724,-0.96483 -2.17087,-1.44724 -0.96483,0 -1.92966,0 -2.89449,0 -0.48241,-0.24121 -0.96483,-0.48242 -1.44724,-0.72363 -2.17087,-0.2412 -4.34173,-0.48241 -6.5126,-0.72362 -2.17087,-0.72362 -4.34173,-1.44724 -6.5126,-2.17086 -7.47743,-1.20604 -14.95486,-2.41208 -22.43229,-3.61812 -2.89449,0 -5.78898,0 -8.68347,0 -6.99501,0.24121 -13.99003,0.48242 -20.98504,0.72363 -3.1357,1.20603 -6.27139,2.41207 -9.40709,3.61811 -1.41966,-0.21975 -1.95201,0.50477 -2.89449,1.44724 -2.17087,0.48242 -4.34173,0.96483 -6.5126,1.44725 -0.48241,-1.92966 -0.96483,-3.85932 -1.44724,-5.78898 z"
         sodipodi:nodetypes="ccccccccccccccccccccccccccccccscccccccccccccccccccscccccccccccccccccccccccccccccsccccccscccccccccccccccccc"
         inkscape:label="Leaf base color" />
      <path
         style="fill:#c40b0b;fill-opacity:0.96862745;stroke:none;stroke-width:2.5;stroke-dasharray:none;stroke-opacity:1"
         d="m 522.92073,210.75152 c -2.90933,4.58943 -4.58189,17.76387 -5.77999,25.55712 -1.19809,7.79326 -1.92171,10.20533 -3.97197,14.54707 -2.05026,4.34173 -5.42716,10.61312 -13.0252,21.82927 -7.59803,11.21615 -19.4172,27.37704 -28.94489,37.86957 -9.52769,10.49252 -16.76392,15.31666 -23.75893,20.26142 -6.99502,4.94475 -13.74883,10.01011 -18.21116,13.0252 -4.46234,3.01509 -6.63321,3.97992 -9.52769,5.54777 -2.89449,1.56784 -6.51261,3.73871 -9.6483,5.54777 -3.1357,1.80905 -5.78898,3.2563 -7.35683,3.97992 -1.56785,0.72362 -2.05026,0.72362 -2.65328,0.96483 -0.60302,0.2412 -1.32664,0.72362 -5.05741,2.39409 -3.73077,1.67048 -10.46864,4.52899 -14.86768,6.63655 -4.39904,2.10755 -6.4591,3.46406 -5.0478,4.4335 1.41131,0.96943 6.29395,1.55175 10.30313,1.96352 4.00919,0.41177 7.14489,0.65297 10.03938,0.89418 2.89449,0.24121 5.54777,0.48241 7.35682,0.72362 1.80906,0.24121 2.77389,0.48242 7.37481,0.7809 4.60091,0.29848 12.83791,0.65422 20.19473,0.53362 7.35683,-0.12061 13.83348,-0.71756 19.76773,-1.22924 5.93425,-0.51168 11.32608,-0.93808 16.41945,-1.88953 5.09337,-0.95145 9.88825,-2.42796 14.66098,-3.79515 4.77273,-1.36719 9.5233,-2.62506 15.16634,-4.74129 5.64303,-2.11623 9.71012,-3.96733 17.78802,-9.07102 8.0779,-5.10368 14.74201,-10.164 21.23455,-16.51733 6.49254,-6.35334 11.45421,-12.96751 15.85928,-20.70872 4.40507,-7.74122 8.25351,-16.60945 10.3784,-26.06818 2.12488,-9.45873 2.5262,-19.50794 1.55489,-27.32459 -0.97131,-7.81666 -3.31525,-13.4008 -5.47585,-17.73897 -2.16059,-4.33818 -4.05346,-7.29843 -5.80951,-10.04619 -1.75605,-2.74777 -3.28387,-5.14004 -4.41592,-7.0697 -1.13204,-1.92966 -1.85566,-3.3769 -4.0117,-6.27788 -2.15603,-2.90097 -5.74446,-7.25566 -9.61172,-11.43081 -3.86727,-4.17515 -8.01335,-8.17074 -10.92268,-3.58132 z"
         id="path4"
         inkscape:path-effect="#path-effect4"
         inkscape:original-d="m 521.68397,202.1665 c -1.67257,13.17445 -3.34513,26.34889 -5.0177,39.52333 -0.72362,2.41207 -1.44724,4.82414 -2.17086,7.23622 -3.37691,6.27139 -6.75381,12.54278 -10.13071,18.81418 -11.81917,16.16089 -23.63833,32.32179 -35.45749,48.48269 -7.23623,4.82414 -14.47245,9.64829 -21.70867,14.47244 -6.75381,5.06536 -13.50762,10.13071 -20.26142,15.19607 -2.17087,0.96483 -4.34174,1.92966 -6.5126,2.89449 -3.61811,2.17086 -7.23623,4.34173 -10.85434,6.5126 -2.65328,1.44724 -5.30656,2.89448 -7.95984,4.34173 -0.48242,0 -0.96483,0 -1.44725,0 -0.72362,0.48241 -1.44724,0.96483 -2.17086,1.44724 -6.73792,2.85854 -13.47579,5.71706 -20.21376,8.57561 -2.06011,1.35655 -4.12017,2.71306 -6.18027,4.0696 4.88271,0.58233 9.76535,1.16465 14.64803,1.74698 3.13569,0.24121 6.27139,0.48241 9.40709,0.72362 2.65328,0.24121 5.30656,0.48241 7.95984,0.72362 0.96483,0.24121 1.92966,0.48242 2.89449,0.72363 8.237,0.35575 16.474,0.7115 24.711,1.06724 6.47665,-0.59695 12.9533,-1.19391 19.42996,-1.79087 5.39184,-0.4264 10.78367,-0.8528 16.17552,-1.2792 4.79489,-1.4765 9.58977,-2.95301 14.38465,-4.42951 4.75058,-1.25788 9.50115,-2.51575 14.25173,-3.77363 6.53549,-2.97458 10.60258,-4.82568 17.37571,-7.90842 9.38267,-7.12463 16.04678,-12.18495 24.07018,-18.27743 4.96168,-6.61419 9.92335,-13.22836 14.88503,-19.84254 3.84846,-8.86825 7.69691,-17.73648 11.54536,-26.60473 0.40131,-10.04921 0.80263,-20.09842 1.20394,-30.1476 -2.34393,-5.58413 -4.68787,-11.16827 -7.03181,-16.7524 -1.97725,-3.09222 -3.87012,-6.05247 -5.82911,-9.11612 -1.55311,-2.43188 -3.08093,-4.82415 -4.6214,-7.23623 -0.72362,-1.44724 -1.44725,-2.89448 -2.17087,-4.34173 -3.58844,-4.3547 -7.17687,-8.70939 -10.7653,-13.06409 -4.1461,-3.9956 -8.29218,-7.99119 -12.43827,-11.98679 z"
         sodipodi:nodetypes="cccccccccccccccccccscccccccccccccc" />
      <path
         style="fill:#32983b;fill-opacity:0.996078;stroke:none;stroke-width:2.5;stroke-dasharray:none;stroke-opacity:1"
         d="m 416.09406,190.36645 c 0.91691,-2.22678 2.69665,-5.5109 4.56256,-8.95404 1.8659,-3.44314 3.81799,-7.0453 6.22332,-9.99836 2.40534,-2.95306 5.26392,-5.25701 6.78142,-6.38205 1.5175,-1.12504 1.69391,-1.07117 2.33965,-2.08841 0.64574,-1.01724 1.76081,-3.1056 2.61985,-4.70756 0.85905,-1.60197 1.46206,-2.71755 2.45705,-3.23011 0.99498,-0.51257 2.23033,-0.43201 3.85286,-0.15383 1.62253,0.27818 3.06148,0.6627 4.37208,1.3252 1.3106,0.6625 2.47336,1.60388 3.88946,2.84721 1.41611,1.24334 2.71986,2.46387 4.63443,3.97141 1.91457,1.50753 4.32666,3.196 6.75738,4.92641 2.43072,1.73041 4.8801,3.50279 5.84493,5.67366 0.96483,2.17087 0.44511,4.74023 -0.17655,6.14551 -0.62167,1.40528 -1.34529,1.64648 -1.82771,2.00829 -0.48242,0.36182 -0.72362,0.84423 -1.20604,1.32664 -0.48241,0.48242 -1.20603,0.96483 -1.80905,1.32665 -0.60302,0.36181 -1.08543,0.60301 -1.44724,0.72362 -0.36182,0.1206 -0.60302,0.1206 -1.44725,0.60302 -0.84423,0.48241 -2.29147,1.44724 -3.73872,2.17086 -1.44724,0.72362 -2.89448,1.20604 -4.39105,1.90039 -1.49658,0.69436 -3.04248,1.60067 -5.42655,4.38124 -2.38407,2.78058 -5.66138,7.515 -8.18706,9.66277 -2.52567,2.14777 -4.4754,1.85832 -6.85279,1.48352 -2.37739,-0.37481 -5.21518,-0.83984 -6.91498,-1.9585 -1.6998,-1.11866 -2.26159,-2.89093 -4.06111,-4.40618 -1.79952,-1.51526 -4.83676,-2.77348 -6.32833,-3.98732 -1.49157,-1.21383 -1.43748,-2.38326 -0.52056,-4.61004 z"
         id="path5"
         inkscape:path-effect="#path-effect5"
         inkscape:original-d="m 415.23124,191.42379 c 1.77974,-3.28412 3.55947,-6.56824 5.3392,-9.85236 1.95208,-3.60216 3.90417,-7.20432 5.85625,-10.80648 2.85859,-2.30395 5.71717,-4.6079 8.57575,-6.91186 0.17641,0.0539 0.35283,0.10774 0.52924,0.16161 1.11507,-2.08835 2.23014,-4.17671 3.34521,-6.26506 0.60301,-1.11558 1.20603,-2.23116 1.80905,-3.34674 1.38695,0.0905 2.6223,0.17101 4.16083,0.27135 1.70653,0.45602 3.14548,0.84054 4.61516,1.23327 1.15152,0.93227 2.31428,1.87364 3.61604,2.92756 1.53045,1.43276 2.8342,2.65329 4.25128,3.97992 2.41206,1.68844 4.82415,3.37691 7.23622,5.06536 2.44937,1.77237 4.89875,3.54475 7.34812,5.31713 -0.51971,2.56936 -1.03943,5.13872 -1.55914,7.70807 -0.72362,0.24121 -1.44724,0.48241 -2.17087,0.72362 -0.2412,0.48242 -0.48241,0.96483 -0.72362,1.44724 -0.72362,0.48242 -1.44724,0.96483 -2.17086,1.44725 -0.48242,0.24121 -0.96483,0.48241 -1.44725,0.72362 -0.24121,0 -0.48241,0 -0.72362,0 -1.44725,0.96483 -2.89449,1.92966 -4.34173,2.89449 -1.44725,0.48242 -2.89449,0.96483 -4.34174,1.44724 -1.5459,0.9063 -3.0918,1.81261 -4.6377,2.71891 -3.22223,4.65485 -6.49955,9.38927 -9.6667,13.96453 -1.8842,-0.27972 -3.83393,-0.56917 -5.75091,-0.85375 -2.8378,-0.46503 -5.67559,-0.93006 -8.51339,-1.39509 -0.5618,-1.77229 -1.1236,-3.54456 -1.68539,-5.31684 -3.03724,-1.25823 -6.07448,-2.51645 -9.11172,-3.77468 0.0541,-1.16944 0.1082,-2.33887 0.16229,-3.50831 z"
         sodipodi:nodetypes="cccccccccccccccccccccccccccc" />
      <path
         style="fill:none;stroke:#000000;stroke-width:1.76388076;stroke-dasharray:none;stroke-opacity:1"
         d="m 487.76661,181.81009 c 7.22115,3.55781 14.44229,7.11561 21.79158,12.15082 7.34929,5.0352 14.82672,11.5478 19.16845,15.28652 4.34174,3.73871 5.54777,4.70354 6.7713,6.05468 1.22354,1.35113 2.36,2.94218 3.34212,4.29303 0.98213,1.35085 1.70575,2.31568 3.3942,4.84836 1.68845,2.53267 4.34173,6.6332 7.71863,12.06037 3.3769,5.42716 7.47743,12.18097 9.5277,15.79908 2.05026,3.61811 2.05026,4.10053 2.65328,5.54777 0.60302,1.44725 1.80906,3.85932 2.17087,8.68347 0.36181,4.82415 -0.12061,12.06037 -0.72363,18.69357 -0.60301,6.63321 -1.32664,12.66339 -4.46233,20.38203 -3.1357,7.71864 -8.68347,17.12573 -13.74883,24.24134 -5.06535,7.11562 -9.64829,11.93977 -12.66338,14.83426 -3.0151,2.89449 -4.46234,3.85932 -7.95985,6.392 -3.49751,2.53267 -9.04528,6.6332 -16.64331,10.49252 -7.59803,3.85932 -17.24633,7.47743 -22.91471,9.40709 -5.66837,1.92966 -7.35682,2.17086 -8.92467,2.53268 -1.56785,0.36181 -3.01509,0.84422 -6.27139,1.44724 -3.2563,0.60302 -8.32166,1.32664 -12.06037,1.68845 -3.73872,0.36181 -6.15079,0.36181 -9.16589,0.60302 -3.01509,0.24121 -6.6332,0.72362 -10.97493,0.96483 -4.34173,0.24121 -9.40709,0.24121 -20.98504,-0.24121 -11.57796,-0.48241 -29.66852,-1.44724 -44.98519,-4.46233 -15.31667,-3.0151 -27.85945,-8.08045 -36.78413,-12.9046 -8.92467,-4.82415 -14.23123,-9.40709 -17.60814,-12.30158 -3.3769,-2.89449 -4.82415,-4.10052 -6.75381,-6.27139 -1.92965,-2.17087 -4.34173,-5.30656 -7.23622,-8.92468 -2.89449,-3.61811 -6.27139,-7.71863 -9.46738,-15.37697 -3.196,-7.65833 -6.2111,-18.87448 -7.47744,-27.61825 -1.26634,-8.74376 -0.78392,-15.01516 0,-19.779 0.78392,-4.76385 1.86936,-8.02015 3.1357,-11.93977 1.26634,-3.91962 2.71358,-8.50256 6.33169,-15.49757 3.61811,-6.99502 9.40709,-16.40211 14.11064,-22.91471 4.70354,-6.5126 8.32165,-10.13071 11.33675,-12.66339 3.01509,-2.53268 5.42716,-3.97992 7.95984,-5.66838 2.53268,-1.68845 5.18596,-3.61811 9.04528,-5.78898 3.85932,-2.17086 8.92467,-4.58293 11.93976,-6.15078 3.0151,-1.56785 3.97993,-2.29147 6.07405,-3.25103 2.09412,-0.95957 5.31758,-2.15509 8.54096,-3.35059"
         id="path6"
         inkscape:path-effect="#path-effect7"
         inkscape:original-d="m 487.76661,181.81009 c 0,0 14.44229,7.11561 21.66344,10.67342 7.47743,6.5126 14.95486,13.0252 22.43229,19.5378 1.20604,0.96483 2.41207,1.92966 3.61811,2.89449 0.74249,2.09354 2.08801,3.53526 3.61811,5.06536 0.72363,0.96483 1.44725,1.92966 2.17087,2.89449 2.65328,4.10052 5.30656,8.20105 7.95984,12.30158 4.10053,6.7538 8.20106,13.50761 12.30158,20.26142 0,0.48241 0,0.96483 0,1.44724 1.20604,2.41208 2.41208,4.82415 3.61811,7.23622 -0.48241,7.23623 -0.96483,14.47245 -1.44724,21.70867 -0.72362,6.03019 -1.44725,12.06037 -2.17087,18.09056 -5.54777,9.40709 -11.09554,18.81418 -16.64331,28.22126 -4.58294,4.82415 -9.16588,9.6483 -13.74882,14.47245 -1.44725,0.96483 -2.89449,1.92966 -4.34174,2.89449 -5.54777,4.10052 -11.09554,8.20105 -16.64331,12.30158 -9.64829,3.61811 -19.29659,7.23622 -28.94489,10.85433 -1.68845,0.24121 -3.3769,0.48241 -5.06535,0.72362 -1.44725,0.48242 -2.89449,0.96483 -4.34173,1.44725 -5.06536,0.72362 -10.13072,1.44724 -15.19607,2.17086 -2.41208,0 -4.82415,0 -7.23622,0 -3.61812,0.48242 -7.23623,0.96483 -10.85434,1.44725 -5.06535,0 -10.13071,0 -15.19606,0 -18.09056,-0.96483 -36.18112,-1.92966 -54.27167,-2.89449 -12.54279,-5.06536 -25.08557,-10.13071 -37.62836,-15.19607 -5.30656,-4.58294 -10.61312,-9.16588 -15.91969,-13.74882 -1.44724,-1.20604 -2.89449,-2.41207 -4.34173,-3.61811 -2.41207,-3.1357 -4.82415,-6.27139 -7.23622,-9.40709 -3.37691,-4.10053 -6.75381,-8.20105 -10.13071,-12.30158 -3.01509,-11.21614 -6.03019,-22.43229 -9.04528,-33.64843 0.48241,-6.27139 0.96483,-12.54279 1.44724,-18.81418 1.08543,-3.2563 2.17087,-6.5126 3.2563,-9.7689 1.44725,-4.58294 2.89449,-9.16588 4.34174,-13.74882 5.78897,-9.40709 11.57795,-18.81418 17.36693,-28.22127 3.61811,-3.61811 7.23622,-7.23622 10.85433,-10.85433 2.41208,-1.44725 4.82415,-2.89449 7.23623,-4.34174 2.65328,-1.92966 5.30656,-3.85932 7.95984,-5.78898 5.06536,-2.41207 10.13071,-4.82414 15.19607,-7.23622 0.96483,-0.72362 1.92966,-1.44724 2.89449,-2.17086 3.22341,-1.19551 6.44687,-2.39103 9.67025,-3.58653"
         sodipodi:nodetypes="ccccccccccccccccccccccccccccccsccccccccc"
         inkscape:label="Outline" />
      <path
         style="fill:none;stroke:#000000;stroke-width:1.76388076;stroke-dasharray:none;stroke-opacity:1"
         d="m 320.56465,185.00608 c 0.24121,-1.44724 1.20604,-2.41207 1.20604,-2.41207 0,0 -0.96483,0.96483 -0.36181,0.48242 0.60301,-0.48242 2.77388,-2.41208 7.54545,-4.41363 4.77157,-2.00156 13.42714,-4.43594 18.67963,-5.80014 5.25248,-1.36419 8.62939,-2.08782 11.64448,-2.57023 3.01509,-0.48242 5.66837,-0.72362 7.83924,-0.84423 2.17087,-0.1206 3.85932,-0.1206 6.5126,-0.2412 2.65327,-0.12061 6.27139,-0.36181 8.56286,-0.36181 2.29147,0 3.2563,0.2412 2.53268,-1.44725 -0.72362,-1.68845 -3.1357,-5.30656 -7.47743,-8.92467 -4.34173,-3.61811 -10.61313,-7.23622 -14.95486,-9.8895 -4.34173,-2.65328 -6.75381,-4.34174 -8.08045,-5.42717 -1.32664,-1.08544 -1.56785,-1.56785 -2.53267,-2.53268 -0.96483,-0.96483 -2.65329,-2.41207 -2.41208,-3.61811 0.24121,-1.20604 2.41207,-2.17087 4.49723,-2.77825 2.08515,-0.60738 3.90332,-0.83465 5.61263,-0.83726 1.7093,-0.003 3.15655,0.2386 4.12138,0.35921 0.96483,0.1206 1.44724,0.1206 2.29147,0.2412 0.84422,0.12061 2.05026,0.36182 4.22112,1.08544 2.17087,0.72362 5.30657,1.92966 11.81917,4.22113 6.5126,2.29147 16.40211,5.66838 23.87953,8.56286 7.47743,2.89449 12.54279,5.30657 15.07547,5.54777 2.53268,0.24121 2.53268,-1.68845 2.89449,-4.94475 0.36181,-3.2563 1.08543,-7.83924 1.56784,-12.54279 0.48242,-4.70354 0.72362,-9.52769 0.96483,-11.93977 0.24121,-2.41207 0.48242,-2.41207 0.72363,-3.25629 0.24121,-0.84423 0.48241,-2.53268 3.49751,-3.1357 3.01509,-0.60302 8.80406,-0.1206 12.42218,0.24121 3.61811,0.36181 5.06535,0.60302 6.15079,0.72362 1.08543,0.12061 1.80905,0.12061 2.29147,0.12061 0.48241,0 0.72362,0 -0.1206,1.68845 -0.84423,1.68845 -2.77389,5.06535 -3.73872,7.11562 -0.96483,2.05026 -0.96483,2.77388 -1.68845,4.70354 -0.72363,1.92966 -2.17088,5.06536 -3.25631,7.95984 -1.08543,2.89449 -1.80905,5.54778 -2.17086,7.23623 -0.36181,1.68845 -0.36181,2.41207 -0.60302,3.2563 -0.24121,0.84422 -0.72362,1.80905 -0.96483,2.53267 -0.24121,0.72363 -0.24121,1.20604 -0.36181,1.44725 -0.1206,0.24121 -0.36181,0.24121 0.72362,0.12061 1.08543,-0.12061 3.49751,-0.36181 7.11562,-1.20604 3.61811,-0.84423 8.44226,-2.29147 11.93976,-2.89449 3.49751,-0.60302 5.66838,-0.36182 7.71865,0.1206 2.05026,0.48241 3.97992,1.20604 6.27139,1.92966 2.29147,0.72362 4.94475,1.44725 6.15079,1.92966 1.20603,0.48242 0.96483,0.72362 0,1.32664 -0.96483,0.60302 -2.65329,1.56785 -4.34174,2.65328 -1.68845,1.08544 -3.3769,2.29147 -4.94475,3.37691 -1.56785,1.08543 -3.01509,2.05026 -3.85932,2.53267 -0.84422,0.48242 -1.08543,0.48242 -1.08543,0.48242 0,0 0.24121,0 0.72363,0 0.48241,0 1.20603,0 7.95984,0.84422 6.7538,0.84423 19.5378,2.53268 27.73885,3.73872 8.20105,1.20603 11.81916,1.92966 15.31667,2.89449 3.49751,0.96483 6.87441,2.17087 8.92467,3.01509 2.05026,0.84423 2.77389,1.32664 3.61811,1.68846 0.84423,0.36181 1.80906,0.60301 3.1357,1.32664 1.32664,0.72362 3.01509,1.92965 4.46234,2.77388 1.44724,0.84422 2.65328,1.32664 3.2563,1.68845 0.60302,0.36181 0.60302,0.60302 0.72362,0.72363 0.1206,0.1206 0.36181,0.1206 0.48241,0.48241 0.12061,0.36181 0.12061,1.08543 0.24121,1.56784 0.1206,0.48242 0.36181,0.72363 0.12061,0.72363 -0.24121,0 -0.96483,-0.24121 -1.80906,-0.36181 -0.84423,-0.12061 -1.80906,-0.12061 -3.01509,-0.36182 -1.20604,-0.2412 -2.65329,-0.72362 -4.46235,-1.08543 -1.80905,-0.36181 -3.97991,-0.60301 -8.68346,-1.20603 -4.70354,-0.60302 -11.93976,-1.56785 -16.52271,-1.92966 -4.58294,-0.36181 -6.5126,-0.12061 -9.7689,0 -3.2563,0.1206 -7.83924,0.1206 -10.61313,0.36181 -2.77388,0.2412 -3.73871,0.72362 -5.54777,1.08543 -1.80905,0.36181 -4.46233,0.60302 -6.51259,0.96483 -2.05026,0.36181 -3.49751,0.84423 -6.87442,1.68845 -3.3769,0.84423 -8.68346,2.05026 -12.18097,3.49751 -3.4975,1.44724 -5.18596,3.1357 -6.15079,4.34174 -0.96483,1.20603 -1.20603,1.92965 -2.17086,3.37689 -0.96483,1.44725 -2.65329,3.61811 -3.73872,5.30657 -1.08543,1.68845 -1.56785,2.89449 -2.89449,4.70355 -1.32664,1.80905 -3.4975,4.22112 -5.42716,6.6332 -1.92966,2.41207 -3.61812,4.82415 -5.06536,6.03018 -1.44724,1.20604 -2.65328,1.20604 -3.97992,1.20604 -1.32664,0 -2.77389,0 -3.61812,-0.1206 -0.84422,-0.12061 -1.08542,-0.36181 -1.44724,-0.48242 -0.36181,-0.1206 -0.84422,-0.1206 -1.08543,-0.2412 -0.24121,-0.12061 -0.24121,-0.36182 -0.48241,-0.48242 -0.24121,-0.1206 -0.72363,-0.1206 -0.96484,-0.36181 -0.2412,-0.24121 -0.2412,-0.72362 -0.48241,-1.56785 -0.24121,-0.84423 -0.72362,-2.05026 -1.20604,-3.2563 -0.48241,-1.20604 -0.96483,-2.41207 -0.96483,-3.3769 0,-0.96483 0.48241,-1.68845 0.72362,-4.34174 0.24121,-2.65328 0.24121,-7.23622 -0.1206,-9.8895 -0.36181,-2.65328 -1.08543,-3.3769 -1.44724,-3.85932 -0.36181,-0.48241 -0.36181,-0.72362 -0.72362,-0.84422 -0.36182,-0.12061 -1.08544,-0.12061 -1.80906,-0.36182 -0.72362,-0.2412 -1.44724,-0.72361 -2.29147,-0.96482 -0.84423,-0.24121 -1.80906,-0.24121 -2.53268,-0.36181 -0.72362,-0.12061 -1.20604,-0.36182 -2.53268,-0.60303 -1.32664,-0.24121 -3.4975,-0.48241 -5.66837,-0.96483 -2.17087,-0.48241 -4.34173,-1.20603 -9.16588,-2.17086 -4.82415,-0.96483 -12.30158,-2.17087 -17.48754,-2.77389 -5.18596,-0.60302 -8.08045,-0.60302 -13.0252,-0.48242 -4.94475,0.12061 -11.93977,0.36182 -17.00512,1.08544 -5.06536,0.72363 -8.20105,1.92966 -10.29281,2.79464 -2.09177,0.86497 -2.80746,1.22282 -4.45838,1.74677 -1.65092,0.52395 -3.82178,1.00636 -5.14842,0.28274 -1.32664,-0.72362 -1.80906,-2.65328 -1.56785,-4.10053 z"
         id="path7"
         inkscape:path-effect="#path-effect9"
         inkscape:original-d="m 319.84103,184.52367 c 0.96483,-0.96483 1.92966,-1.92966 2.89449,-2.89449 -0.96483,0.96483 -1.92966,1.92966 -2.89449,2.89449 2.17086,-1.92966 4.34173,-3.85932 6.5126,-5.78898 8.04006,0.30093 15.464,-6.5126 23.15591,-6.5126 3.3769,-0.72362 6.75381,-1.44724 10.13071,-2.17087 2.65328,-0.2412 5.30656,-0.48241 7.95984,-0.72362 1.68846,0 3.37691,0 5.06536,0 3.6181,-0.24121 7.23622,-0.48241 10.85433,-0.72362 0.96483,0.24121 1.92966,0.48241 2.89449,0.72362 -2.41207,-3.61811 -4.82415,-7.23622 -7.23622,-10.85433 -6.27139,-3.61811 -12.54279,-7.23622 -18.81418,-10.85433 -2.41207,-1.68846 -4.82415,-3.37691 -7.23622,-5.06536 -0.24121,-0.48242 -0.48242,-0.96483 -0.72362,-1.44724 -1.68845,-1.44725 -3.37691,-2.89449 -5.06536,-4.34174 2.17087,-0.96483 4.34173,-1.92966 6.5126,-2.89449 2.05629,0.20487 3.8669,-0.0829 5.78898,-0.72362 1.44724,0.24121 2.89449,0.48242 4.34173,0.72362 0.48242,0 0.96483,0 1.44725,0 1.20603,0.24121 2.41207,0.48242 3.61811,0.72363 3.13569,1.20603 6.27139,2.41207 9.40709,3.61811 9.8895,3.3769 19.77901,6.7538 29.66851,10.13071 5.06535,2.41207 10.13071,4.82415 15.19607,7.23622 0,-1.92966 0,-3.85932 0,-5.78898 0.72362,-4.58294 1.44724,-9.16588 2.17086,-13.74882 0.24121,-4.82415 0.48242,-9.6483 0.72362,-14.47245 0.24121,0 0.48242,0 0.72363,0 0.2412,-1.68845 0.48241,-3.3769 0.72362,-5.06535 5.78898,0.48241 11.57795,0.96483 17.36693,1.44724 1.44725,0.24121 2.89449,0.48242 4.34174,0.72363 0.72362,0 1.44724,0 2.17086,0 0.24121,0 0.48242,0 0.72363,0 -1.92966,3.3769 -3.85932,6.7538 -5.78898,10.13071 0,0.72362 0,1.44724 0,2.17086 -1.44725,3.1357 -2.89449,6.2714 -4.34174,9.40709 -0.72362,2.65328 -1.44724,5.30657 -2.17086,7.95985 0,0.72362 0,1.44724 0,2.17086 -0.48242,0.96483 -0.96483,1.92966 -1.44725,2.89449 0,0.48242 0,0.96483 0,1.44725 -0.2412,0 -0.48241,0 -0.72362,0 2.41207,-0.24121 4.82415,-0.48242 7.23622,-0.72362 4.82415,-1.44725 9.6483,-2.89449 14.47245,-4.34174 2.17086,0.24121 4.34173,0.48242 6.5126,0.72362 1.92966,0.72363 3.85932,1.44725 5.78898,2.17087 2.65328,0.72362 5.30656,1.44725 7.95984,2.17087 -0.24121,0.24121 -0.48241,0.48241 -0.72362,0.72362 -1.68845,0.96483 -3.37691,1.92966 -5.06536,2.89449 -1.68845,1.20604 -3.3769,2.41207 -5.06535,3.61811 -1.44725,0.96483 -2.89449,1.92966 -4.34174,2.89449 -0.2412,0 -0.48241,0 -0.72362,0 0.24121,0 0.48242,0 0.72362,0 0.72363,0 1.44725,0 2.17087,0 12.78399,1.68845 25.56799,3.3769 38.35198,5.06535 3.61811,0.72363 7.23622,1.44725 10.85433,2.17087 3.37691,1.20604 6.75381,2.41208 10.13071,3.61811 0.72362,0.48242 1.44725,0.96483 2.17087,1.44725 0.96483,0.2412 1.92966,0.48241 2.89449,0.72362 1.68845,1.20604 3.3769,2.41207 5.06535,3.61811 1.20604,0.48242 2.41208,0.96483 3.61812,1.44724 0,0.24121 0,0.48242 0,0.72363 0.2412,0 0.48241,0 0.72362,0 0,0.72362 0,1.44724 0,2.17086 0.2412,0.24121 0.48241,0.48242 0.72362,0.72363 -0.72362,-0.24121 -1.44724,-0.48242 -2.17087,-0.72363 -0.96483,0 -1.92966,0 -2.89449,0 -1.44724,-0.48241 -2.89449,-0.96483 -4.34173,-1.44724 -2.17087,-0.24121 -4.34173,-0.48242 -6.5126,-0.72362 -7.23622,-0.96483 -14.47244,-1.92966 -21.70867,-2.89449 -1.92966,0.24121 -3.85932,0.48241 -5.78897,0.72362 -4.58295,0 -9.16589,0 -13.74883,0 -0.96483,0.48242 -1.92966,0.96483 -2.89449,1.44724 -2.65328,0.24121 -5.30656,0.48242 -7.95984,0.72363 -1.44724,0.48241 -2.89449,0.96483 -4.34173,1.44724 -5.30657,1.20604 -10.61313,2.41208 -15.91969,3.61811 -1.68845,1.68845 -3.37691,3.37691 -5.06536,5.06536 -0.24121,0.72362 -0.48241,1.44724 -0.72362,2.17086 -1.68845,2.17087 -3.3769,4.34174 -5.06536,6.5126 -0.48241,1.20604 -0.96483,2.41208 -1.44724,3.61812 -2.17087,2.41207 -4.34173,4.82414 -6.5126,7.23622 -1.68845,2.41207 -3.3769,4.82415 -5.06536,7.23622 -1.20603,0 -2.41207,0 -3.61811,0 -1.44724,0 -2.89449,0 -4.34173,0 -0.24121,-0.24121 -0.48242,-0.48241 -0.72362,-0.72362 -0.48242,0 -0.96483,0 -1.44725,0 0,-0.24121 0,-0.48242 0,-0.72362 -0.48241,0 -0.96483,0 -1.44724,0 0,-0.48242 0,-0.96483 0,-1.44725 -0.48242,-1.20604 -0.96483,-2.41207 -1.44725,-3.61811 -0.48241,-1.20604 -0.96483,-2.41207 -1.44724,-3.61811 0.48241,-0.72362 0.96483,-1.44724 1.44724,-2.17087 0,-4.58294 0,-9.16588 0,-13.74882 -0.72362,-0.72362 -1.44724,-1.44724 -2.17086,-2.17087 0,-0.2412 0,-0.48241 0,-0.72362 -0.72363,0 -1.44725,0 -2.17087,0 -0.72362,-0.48241 -1.44724,-0.96483 -2.17087,-1.44724 -0.96483,0 -1.92966,0 -2.89449,0 -0.48241,-0.24121 -0.96483,-0.48242 -1.44724,-0.72363 -2.17087,-0.2412 -4.34173,-0.48241 -6.5126,-0.72362 -2.17087,-0.72362 -4.34173,-1.44724 -6.5126,-2.17086 -7.47743,-1.20604 -14.95486,-2.41208 -22.43229,-3.61812 -2.89449,0 -5.78898,0 -8.68347,0 -6.99501,0.24121 -13.99003,0.48242 -20.98504,0.72363 -3.1357,1.20603 -6.27139,2.41207 -9.40709,3.61811 -1.41966,-0.21975 -1.95201,0.50477 -2.89449,1.44724 -2.17087,0.48242 -4.34173,0.96483 -6.5126,1.44725 -0.48241,-1.92966 -0.96483,-3.85932 -1.44724,-5.78898 z"
         sodipodi:nodetypes="ccccccccccccccccccccccccccccccscccccccccccccccccccscccccccccccccccccccccccccccccsccccccscccccccccccccccccc"
         inkscape:label="Leaf outline" />
    </g>
  </g>
</svg>
