<?xml version="1.0" encoding="UTF-8" standalone="no"?>
<!-- Created with Inkscape (http://www.inkscape.org/) -->

<svg
   version="1.1"
   id="svg1"
   width="793.59998"
   height="559.35999"
   viewBox="0 0 793.59998 559.35999"
   sodipodi:docname="Tulip.svg"
   inkscape:version="1.4 (86a8ad7, 2024-10-11)"
   xmlns:inkscape="http://www.inkscape.org/namespaces/inkscape"
   xmlns:sodipodi="http://sodipodi.sourceforge.net/DTD/sodipodi-0.dtd"
   xmlns="http://www.w3.org/2000/svg"
   xmlns:svg="http://www.w3.org/2000/svg">
  <defs
     id="defs1">
    <inkscape:path-effect
       effect="bspline"
       id="path-effect11"
       is_visible="true"
       lpeversion="1.3"
       weight="33.333333"
       steps="2"
       helper_size="0"
       apply_no_weight="true"
       apply_with_weight="true"
       only_selected="false"
       uniform="false" />
    <inkscape:path-effect
       effect="bspline"
       id="path-effect9"
       is_visible="true"
       lpeversion="1.3"
       weight="33.333333"
       steps="2"
       helper_size="0"
       apply_no_weight="true"
       apply_with_weight="true"
       only_selected="false"
       uniform="false" />
    <inkscape:path-effect
       effect="bspline"
       id="path-effect7"
       is_visible="true"
       lpeversion="1.3"
       weight="33.333333"
       steps="2"
       helper_size="0"
       apply_no_weight="true"
       apply_with_weight="true"
       only_selected="false"
       uniform="false" />
    <inkscape:path-effect
       effect="bspline"
       id="path-effect6"
       is_visible="true"
       lpeversion="1.3"
       weight="33.333333"
       steps="2"
       helper_size="0"
       apply_no_weight="true"
       apply_with_weight="true"
       only_selected="false"
       uniform="false" />
    <inkscape:path-effect
       effect="bspline"
       id="path-effect5"
       is_visible="true"
       lpeversion="1.3"
       weight="33.333333"
       steps="2"
       helper_size="0"
       apply_no_weight="true"
       apply_with_weight="true"
       only_selected="false"
       uniform="false" />
    <inkscape:path-effect
       effect="bspline"
       id="path-effect4"
       is_visible="true"
       lpeversion="1.3"
       weight="33.333333"
       steps="2"
       helper_size="0"
       apply_no_weight="true"
       apply_with_weight="true"
       only_selected="false"
       uniform="false" />
    <inkscape:path-effect
       effect="bspline"
       id="path-effect3"
       is_visible="true"
       lpeversion="1.3"
       weight="33.333333"
       steps="2"
       helper_size="0"
       apply_no_weight="true"
       apply_with_weight="true"
       only_selected="false"
       uniform="false" />
    <inkscape:path-effect
       effect="bspline"
       id="path-effect2"
       is_visible="true"
       lpeversion="1.3"
       weight="33.333333"
       steps="2"
       helper_size="0"
       apply_no_weight="true"
       apply_with_weight="true"
       only_selected="false"
       uniform="false" />
    <inkscape:path-effect
       effect="bspline"
       id="path-effect1"
       is_visible="true"
       lpeversion="1.3"
       weight="33.333333"
       steps="2"
       helper_size="0"
       apply_no_weight="true"
       apply_with_weight="true"
       only_selected="false"
       uniform="false" />
  </defs>
  <sodipodi:namedview
     id="namedview1"
     pagecolor="#ffffff"
     bordercolor="#111111"
     borderopacity="1"
     inkscape:showpageshadow="0"
     inkscape:pageopacity="0"
     inkscape:pagecheckerboard="1"
     inkscape:deskcolor="#d1d1d1"
     inkscape:zoom="0.48858835"
     inkscape:cx="227.18511"
     inkscape:cy="-19.443771"
     inkscape:window-width="1920"
     inkscape:window-height="991"
     inkscape:window-x="-9"
     inkscape:window-y="-9"
     inkscape:window-maximized="1"
     inkscape:current-layer="g1" />
  <g
     inkscape:groupmode="layer"
     inkscape:label="Image"
     id="g1">
    <g
       id="g13"
       transform="matrix(1.7238681,0,0,1.3516323,-292.10955,-137.11199)">
      <path
         style="fill:#56b85f;fill-opacity:0.988235;stroke:none;stroke-width:2.5;stroke-opacity:1"
         d="m 385.72007,498.63039 c -0.25583,-1.96143 0.4264,-5.20206 0.76752,-7.24877 0.34112,-2.04671 0.34112,-2.89951 0.51168,-4.00815 0.17056,-1.10863 0.51168,-2.47311 0.68224,-3.83758 0.17056,-1.36448 0.17056,-2.72895 0.25584,-3.92287 0.0853,-1.19391 0.25583,-2.21727 0.42639,-4.26398 0.17056,-2.04672 0.34112,-5.11679 0.93808,-10.48941 0.59696,-5.37262 1.62031,-13.04779 2.13199,-17.48234 0.51168,-4.43454 0.51168,-5.62845 0.59696,-6.31069 0.0853,-0.68224 0.25584,-0.8528 0.25584,-2.55839 0,-1.7056 -0.17056,-4.94623 -0.25584,-9.38077 -0.0853,-4.43454 -0.0853,-10.063 -0.17056,-13.30363 -0.0853,-3.24063 -0.25584,-4.09343 -0.34112,-5.79902 -0.0853,-1.7056 -0.0853,-4.26399 -0.17056,-5.88431 -0.0853,-1.62031 -0.25583,-2.30254 -0.34111,-3.41118 -0.0853,-1.10864 -0.0853,-2.64367 -0.4264,-6.56653 -0.34112,-3.92287 -1.02336,-10.23357 -1.53504,-14.327 -0.51168,-4.09342 -0.85279,-5.96957 -1.02335,-7.41933 -0.17056,-1.44975 -0.17056,-2.47311 -0.4264,-4.09342 -0.25584,-1.62032 -0.76752,-3.83759 -1.19392,-6.3107 -0.4264,-2.47311 -0.76751,-5.20206 -1.36447,-8.35741 -0.59696,-3.15535 -1.44976,-6.7371 -2.132,-10.23356 -0.68224,-3.49647 -1.19391,-6.90766 -1.53503,-8.78381 -0.34112,-1.87616 -0.51168,-2.21728 -0.68224,-2.72896 -0.17056,-0.51167 -0.34112,-1.19391 -0.4264,-2.04671 -0.0853,-0.8528 -0.0853,-1.87615 -0.34112,-3.3259 -0.25584,-1.44976 -0.76751,-3.32591 -1.02335,-4.77566 -0.25584,-1.44976 -0.25584,-2.47312 -0.68224,-4.86095 -0.4264,-2.38783 -1.27919,-6.14014 -2.64367,-10.14829 -1.36447,-4.00814 -3.24063,-8.27213 -4.43454,-10.83052 -1.19392,-2.55839 -1.7056,-3.41119 -2.04672,-4.1787 -0.34112,-0.76752 -0.51168,-1.44976 -0.76752,-2.04671 -0.25583,-0.59696 -0.59695,-1.10864 -1.02335,-2.132 -0.4264,-1.02336 -0.93808,-2.55839 -1.36448,-3.58174 -0.42639,-1.02336 -0.76751,-1.53504 -1.10863,-2.30256 -0.34112,-0.76752 -0.68224,-1.79087 -1.19392,-2.98479 -0.51168,-1.19391 -1.19391,-2.55839 -1.62031,-3.58174 -0.4264,-1.02336 -0.59696,-1.7056 -0.8528,-2.21728 -0.25584,-0.51167 -0.59696,-0.85279 -1.02336,-1.53503 -0.4264,-0.68224 -0.93808,-1.7056 -1.87615,-4.17871 -0.93808,-2.47311 -2.30255,-6.39597 -3.41119,-9.38076 -1.10863,-2.98479 -1.96143,-5.03151 -2.38783,-6.56654 -0.4264,-1.53503 -0.4264,-2.55839 -0.68224,-4.17871 -0.25584,-1.62031 -0.76751,-3.83758 -1.19391,-5.96957 -0.4264,-2.132 -0.76752,-4.17871 -0.68224,-5.20206 0.0853,-1.02336 0.59696,-1.02336 1.96143,-0.17056 1.36448,0.85279 3.58175,2.55839 4.86095,3.49646 1.27919,0.93808 1.62031,1.10864 2.30255,1.79088 0.68223,0.68223 1.70559,1.87615 2.38783,2.55839 0.68224,0.68224 1.02336,0.8528 1.36447,1.19391 0.34112,0.34112 0.68224,0.8528 1.2792,1.53504 0.59696,0.68224 1.44975,1.53504 2.38783,2.64367 0.93808,1.10863 1.96143,2.47311 2.55839,3.41118 0.59696,0.93808 0.76752,1.44976 1.02336,1.79088 0.25584,0.34112 0.59696,0.51168 1.19392,1.44975 0.59695,0.93808 1.44975,2.64368 3.41119,4.09343 1.96143,1.44976 5.0315,2.64368 7.16349,3.49647 2.13199,0.8528 3.32591,1.36448 4.34926,1.62031 1.02336,0.25584 1.87616,0.25584 2.47311,0.34112 0.59696,0.0853 0.93808,0.25584 2.21728,0.25584 1.27919,0 3.49646,-0.17056 5.37262,-0.25584 1.87615,-0.0853 3.41118,-0.0853 5.37262,-0.4264 1.96143,-0.34112 4.34926,-1.02335 6.48125,-2.04671 2.132,-1.02336 4.00815,-2.38783 8.01629,-5.4579 4.00815,-3.07007 10.14829,-7.84573 13.30364,-10.40413 3.15535,-2.55839 3.32591,-2.8995 3.75231,-3.3259 0.42639,-0.4264 1.10863,-0.93808 1.70559,-1.7056 0.59695,-0.76751 1.10863,-1.79087 1.62031,-2.55839 0.51168,-0.76751 1.02336,-1.27919 1.36448,-1.79087 0.34112,-0.51168 0.51168,-1.02336 0.93807,-1.53504 0.4264,-0.51167 1.10864,-1.02335 1.7056,-0.68223 0.59696,0.34112 1.10863,1.53503 1.44975,2.13199 0.34112,0.59696 0.51168,0.59696 0,2.81423 -0.51168,2.21727 -1.70559,6.65182 -2.30255,9.21021 -0.59696,2.55839 -0.59696,3.24063 -0.76752,4.34926 -0.17056,1.10864 -0.51167,2.64367 -1.27919,4.77567 -0.76752,2.13199 -1.96143,4.86094 -2.81423,6.73709 -0.85279,1.87615 -1.36447,2.89951 -2.21727,4.09343 -0.8528,1.19391 -2.04671,2.55839 -3.24063,3.83758 -1.19392,1.2792 -2.38783,2.47311 -4.00815,4.77566 -1.62031,2.30256 -3.66703,5.71375 -5.37262,8.18686 -1.70559,2.47311 -3.07007,4.00814 -4.51982,5.62846 -1.44976,1.62031 -2.98479,3.3259 -4.94622,5.0315 -1.96144,1.70559 -4.34927,3.41119 -6.99294,5.20206 -2.64367,1.79087 -5.54318,3.66703 -7.1635,5.4579 -1.62031,1.79087 -1.96143,3.49647 -2.04671,4.51982 -0.0853,1.02336 0.0853,1.36448 0.17056,1.87616 0.0853,0.51168 0.0853,1.19391 0.17056,1.70559 0.0853,0.51168 0.25584,0.8528 0.4264,1.7056 0.17056,0.85279 0.34112,2.21727 0.34112,3.58174 0,1.36448 -0.17056,2.72895 -0.25584,4.86095 -0.0853,2.13199 -0.0853,5.0315 0.0853,7.33405 0.17056,2.30255 0.51168,4.00815 0.68224,5.20206 0.17056,1.19392 0.17056,1.87616 0.25584,2.38784 0.0853,0.51167 0.25584,0.85279 0.4264,2.30254 0.17056,1.44976 0.34111,4.00815 0.68223,6.7371 0.34112,2.72895 0.8528,5.62846 1.10864,7.41934 0.25584,1.79087 0.25584,2.47311 0.4264,3.32591 0.17056,0.85279 0.51168,1.87615 0.68223,3.15535 0.17056,1.27919 0.17056,2.81422 0.76752,7.84573 0.59696,5.0315 1.79087,13.55947 2.47311,19.52905 0.68224,5.96957 0.8528,9.38076 0.93808,11.85387 0.0853,2.47311 0.0853,4.00815 0.17056,4.86095 0.0853,0.85279 0.25584,1.02335 0.34112,2.81423 0.0853,1.79087 0.0853,5.20206 0,10.83052 -0.0853,5.62846 -0.25584,13.47419 -0.4264,19.78489 -0.17056,6.3107 -0.34112,11.08636 -0.68224,15.43563 -0.34112,4.34926 -0.85279,8.27212 -1.10863,11.34219 -0.25584,3.07007 -0.25584,5.28734 -0.59696,7.50462 -0.34112,2.21727 -1.02336,4.43454 -1.36448,5.8843 -0.34112,1.44975 -0.34112,2.13199 -0.51168,2.81422 -0.17055,0.68224 -0.51167,1.36448 -0.68223,1.96144 -0.17056,0.59696 -0.17056,1.10863 -0.34112,2.04671 -0.17056,0.93808 -0.51168,2.30255 -0.76752,3.07007 -0.25584,0.76752 -0.4264,0.93808 -1.2792,2.21727 -0.85279,1.2792 -2.38783,3.66703 -3.3259,5.03151 -0.93808,1.36447 -1.2792,1.70559 -1.79088,1.96143 -0.51167,0.25584 -1.19391,0.4264 -1.70559,0.68224 -0.51168,0.25583 -0.8528,0.59695 -1.62032,0.42639 -0.76751,-0.17056 -1.96143,-0.85279 -2.21727,-2.81423 z"
         id="path1"
         inkscape:path-effect="#path-effect1"
         inkscape:original-d="m 384.782,499.90959 c 0.68223,-3.24063 1.36447,-6.48126 2.04671,-9.72189 0,-0.85279 0,-1.70559 0,-2.55839 0.34112,-1.36447 0.68224,-2.72895 1.02336,-4.09342 0,-1.36448 0,-2.72895 0,-4.09343 0.17056,-1.02335 0.34111,-2.04671 0.51167,-3.07007 0.17056,-3.07007 0.34112,-6.14014 0.51168,-9.2102 1.02336,-7.67518 2.04672,-15.35035 3.07007,-23.02552 0,-1.19392 0,-2.38783 0,-3.58175 0.17056,-0.17056 0.34112,-0.34112 0.51168,-0.51168 -0.17056,-3.24063 -0.34112,-6.48126 -0.51168,-9.72188 0,-5.62846 0,-11.25692 0,-16.88538 -0.17056,-0.8528 -0.34112,-1.7056 -0.51168,-2.5584 0,-2.55839 0,-5.11678 0,-7.67517 -0.17056,-0.68224 -0.34112,-1.36447 -0.51167,-2.04671 0,-1.53504 0,-3.07007 0,-4.6051 -0.68224,-6.3107 -1.36448,-12.6214 -2.04672,-18.9321 -0.34112,-1.87615 -0.68224,-3.7523 -1.02335,-5.62846 0,-1.02335 0,-2.04671 0,-3.07007 -0.51168,-2.21727 -1.02336,-4.43454 -1.53504,-6.65181 -0.34112,-2.72895 -0.68224,-5.4579 -1.02335,-8.18685 -0.8528,-3.58175 -1.7056,-7.1635 -2.5584,-10.74525 -0.51167,-3.41118 -1.02335,-6.82237 -1.53503,-10.23356 -0.17056,-0.34112 -0.34112,-0.68224 -0.51168,-1.02336 -0.17056,-0.68223 -0.34112,-1.36447 -0.51168,-2.04671 0,-1.02336 0,-2.04671 0,-3.07007 -0.51167,-1.87615 -1.02335,-3.7523 -1.53503,-5.62846 0,-1.02335 0,-2.04671 0,-3.07007 -0.8528,-3.7523 -1.7056,-7.50461 -2.55839,-11.25692 -1.87616,-4.26398 -3.75231,-8.52797 -5.62846,-12.79195 -0.51168,-0.8528 -1.02336,-1.7056 -1.53504,-2.55839 -0.17056,-0.68224 -0.34112,-1.36448 -0.51168,-2.04672 -0.34111,-0.51167 -0.68223,-1.02335 -1.02335,-1.53503 -0.51168,-1.53504 -1.02336,-3.07007 -1.53504,-4.6051 -0.34111,-0.51168 -0.68223,-1.02336 -1.02335,-1.53504 -0.34112,-1.02336 -0.68224,-2.04671 -1.02336,-3.07007 -0.68224,-1.36447 -1.36447,-2.72895 -2.04671,-4.09342 -0.17056,-0.68224 -0.34112,-1.36448 -0.51168,-2.04672 -0.34112,-0.34111 -0.68224,-0.68223 -1.02336,-1.02335 -0.51167,-1.02336 -1.02335,-2.04672 -1.53503,-3.07007 -1.36448,-3.92287 -2.72895,-7.84573 -4.09343,-11.7686 -0.85279,-2.04671 -1.70559,-4.09343 -2.55839,-6.14014 0,-1.02335 0,-2.04671 0,-3.07007 -0.51168,-2.21727 -1.02335,-4.43454 -1.53503,-6.65181 -0.34112,-2.04672 -0.68224,-4.09343 -1.02336,-6.14014 0.51168,0 1.02336,0 1.53504,0 2.21727,1.70559 4.43454,3.41119 6.65181,5.11678 0.34112,0.17056 0.68224,0.34112 1.02336,0.51168 1.02336,1.19391 2.04671,2.38783 3.07007,3.58175 0.34112,0.17055 0.68224,0.34111 1.02335,0.51167 0.34112,0.51168 0.68224,1.02336 1.02336,1.53504 0.8528,0.8528 1.7056,1.70559 2.55839,2.55839 1.02336,1.36447 2.04671,2.72895 3.07007,4.09342 0.17056,0.51168 0.34112,1.02336 0.51168,1.53504 0.34112,0.17056 0.68224,0.34112 1.02336,0.51168 0.85279,1.70559 1.70559,3.41119 2.55839,5.11678 3.07007,1.19391 6.14014,2.38783 9.2102,3.58175 1.19392,0.51167 2.38784,1.02335 3.58175,1.53503 0.8528,0 1.7056,0 2.55839,0 0.34112,0.17056 0.68224,0.34112 1.02336,0.51168 2.21727,-0.17056 4.43454,-0.34112 6.65182,-0.51168 1.53503,0 3.07006,0 4.6051,0 2.38783,-0.68224 4.77566,-1.36447 7.16349,-2.04671 1.87616,-1.36448 3.75231,-2.72895 5.62846,-4.09343 6.14014,-4.77566 12.28028,-9.55132 18.42042,-14.32699 0.17056,-0.34112 0.34112,-0.68223 0.51168,-1.02335 0.68223,-0.51168 1.36447,-1.02336 2.04671,-1.53504 0.51168,-1.02335 1.02336,-2.04671 1.53503,-3.07007 0.51168,-0.51167 1.02336,-1.02335 1.53504,-1.53503 0.17056,-0.51168 0.34112,-1.02336 0.51168,-1.53504 0.68223,-0.51167 1.36447,-1.02335 2.04671,-1.53503 0.51168,1.19392 1.02336,2.38783 1.53503,3.58175 0.17056,0 0.34112,0 0.51168,0 -1.19391,4.43454 -2.38783,8.86909 -3.58175,13.30363 0,0.68224 0,1.36448 0,2.04671 -0.34111,1.53504 -0.68223,3.07007 -1.02335,4.60511 -1.19392,2.72895 -2.38783,5.4579 -3.58175,8.18685 -0.51168,1.02335 -1.02336,2.04671 -1.53503,3.07007 -1.19392,1.36447 -2.38783,2.72895 -3.58175,4.09342 -1.19392,1.19392 -2.38783,2.38783 -3.58175,3.58175 -2.04671,3.41119 -4.09342,6.82238 -6.14014,10.23356 -1.36447,1.53504 -2.72895,3.07007 -4.09342,4.60511 -1.53504,1.70559 -3.07007,3.41118 -4.60511,5.11678 -2.38783,1.70559 -4.77566,3.41119 -7.16349,5.11678 -2.89951,1.87615 -5.79902,3.75231 -8.69853,5.62846 -0.34112,1.70559 -0.68224,3.41119 -1.02336,5.11678 0.17056,0.34112 0.34112,0.68224 0.51168,1.02336 0,0.68224 0,1.36447 0,2.04671 0.17056,0.34112 0.34112,0.68224 0.51168,1.02336 0.17056,1.36447 0.34112,2.72895 0.51168,4.09342 -0.17056,1.36448 -0.34112,2.72895 -0.51168,4.09343 0,2.89951 0,5.79902 0,8.69853 0.34112,1.70559 0.68224,3.41119 1.02336,5.11678 0,0.68224 0,1.36448 0,2.04671 0.17056,0.34112 0.34112,0.68224 0.51168,1.02336 0.17055,2.55839 0.34111,5.11678 0.51167,7.67517 0.51168,2.89951 1.02336,5.79902 1.53504,8.69853 0,0.68224 0,1.36448 0,2.04671 0.34112,1.02336 0.68224,2.04672 1.02335,3.07007 0,1.53504 0,3.07007 0,4.60511 1.19392,8.52797 2.38784,17.05594 3.58175,25.58391 0.17056,3.41118 0.34112,6.82237 0.51168,10.23356 0,1.53503 0,3.07007 0,4.6051 0.17056,0.17056 0.34112,0.34112 0.51168,0.51168 0,3.41119 0,6.82238 0,10.23357 -0.17056,7.84573 -0.34112,15.69146 -0.51168,23.53719 -0.17056,4.77567 -0.34112,9.55133 -0.51168,14.32699 -0.51168,3.92287 -1.02335,7.84573 -1.53503,11.7686 0,2.21727 0,4.43454 0,6.65182 -0.68224,2.21727 -1.36448,4.43454 -2.04672,6.65181 0,0.68224 0,1.36448 0,2.04672 -0.34111,0.68223 -0.68223,1.36447 -1.02335,2.04671 0,0.51168 0,1.02335 0,1.53503 -0.34112,1.36448 -0.68224,2.72895 -1.02336,4.09343 -0.17056,0.17056 -0.34112,0.34112 -0.51168,0.51168 -1.53503,2.38783 -3.07007,4.77566 -4.6051,7.16349 -0.34112,0.34112 -0.68224,0.68224 -1.02336,1.02336 -0.68223,0.17056 -1.36447,0.34112 -2.04671,0.51168 -0.34112,0.34111 -0.68224,0.68223 -1.02336,1.02335 -1.19391,-0.68224 -2.38783,-1.36447 -3.58174,-2.04671 z"
         inkscape:label="Stem base" />
      <path
         style="fill:none;fill-opacity:0;stroke:#000000;stroke-width:2.5;stroke-opacity:1"
         d="m 385.72007,498.63039 c -0.25583,-1.96143 0.4264,-5.20206 0.76752,-7.24877 0.34112,-2.04671 0.34112,-2.89951 0.51168,-4.00815 0.17056,-1.10863 0.51168,-2.47311 0.68224,-3.83758 0.17056,-1.36448 0.17056,-2.72895 0.25584,-3.92287 0.0853,-1.19391 0.25583,-2.21727 0.42639,-4.26398 0.17056,-2.04672 0.34112,-5.11679 0.93808,-10.48941 0.59696,-5.37262 1.62031,-13.04779 2.13199,-17.48234 0.51168,-4.43454 0.51168,-5.62845 0.59696,-6.31069 0.0853,-0.68224 0.25584,-0.8528 0.25584,-2.55839 0,-1.7056 -0.17056,-4.94623 -0.25584,-9.38077 -0.0853,-4.43454 -0.0853,-10.063 -0.17056,-13.30363 -0.0853,-3.24063 -0.25584,-4.09343 -0.34112,-5.79902 -0.0853,-1.7056 -0.0853,-4.26399 -0.17056,-5.88431 -0.0853,-1.62031 -0.25583,-2.30254 -0.34111,-3.41118 -0.0853,-1.10864 -0.0853,-2.64367 -0.4264,-6.56653 -0.34112,-3.92287 -1.02336,-10.23357 -1.53504,-14.327 -0.51168,-4.09342 -0.85279,-5.96957 -1.02335,-7.41933 -0.17056,-1.44975 -0.17056,-2.47311 -0.4264,-4.09342 -0.25584,-1.62032 -0.76752,-3.83759 -1.19392,-6.3107 -0.4264,-2.47311 -0.76751,-5.20206 -1.36447,-8.35741 -0.59696,-3.15535 -1.44976,-6.7371 -2.132,-10.23356 -0.68224,-3.49647 -1.19391,-6.90766 -1.53503,-8.78381 -0.34112,-1.87616 -0.51168,-2.21728 -0.68224,-2.72896 -0.17056,-0.51167 -0.34112,-1.19391 -0.4264,-2.04671 -0.0853,-0.8528 -0.0853,-1.87615 -0.34112,-3.3259 -0.25584,-1.44976 -0.76751,-3.32591 -1.02335,-4.77566 -0.25584,-1.44976 -0.25584,-2.47312 -0.68224,-4.86095 -0.4264,-2.38783 -1.27919,-6.14014 -2.64367,-10.14829 -1.36447,-4.00814 -3.24063,-8.27213 -4.43454,-10.83052 -1.19392,-2.55839 -1.7056,-3.41119 -2.04672,-4.1787 -0.34112,-0.76752 -0.51168,-1.44976 -0.76752,-2.04671 -0.25583,-0.59696 -0.59695,-1.10864 -1.02335,-2.132 -0.4264,-1.02336 -0.93808,-2.55839 -1.36448,-3.58174 -0.42639,-1.02336 -0.76751,-1.53504 -1.10863,-2.30256 -0.34112,-0.76752 -0.68224,-1.79087 -1.19392,-2.98479 -0.51168,-1.19391 -1.19391,-2.55839 -1.62031,-3.58174 -0.4264,-1.02336 -0.59696,-1.7056 -0.8528,-2.21728 -0.25584,-0.51167 -0.59696,-0.85279 -1.02336,-1.53503 -0.4264,-0.68224 -0.93808,-1.7056 -1.87615,-4.17871 -0.93808,-2.47311 -2.30255,-6.39597 -3.41119,-9.38076 -1.10863,-2.98479 -1.96143,-5.03151 -2.38783,-6.56654 -0.4264,-1.53503 -0.4264,-2.55839 -0.68224,-4.17871 -0.25584,-1.62031 -0.76751,-3.83758 -1.19391,-5.96957 -0.4264,-2.132 -0.76752,-4.17871 -0.68224,-5.20206 0.0853,-1.02336 0.59696,-1.02336 1.96143,-0.17056 1.36448,0.85279 3.58175,2.55839 4.86095,3.49646 1.27919,0.93808 1.62031,1.10864 2.30255,1.79088 0.68223,0.68223 1.70559,1.87615 2.38783,2.55839 0.68224,0.68224 1.02336,0.8528 1.36447,1.19391 0.34112,0.34112 0.68224,0.8528 1.2792,1.53504 0.59696,0.68224 1.44975,1.53504 2.38783,2.64367 0.93808,1.10863 1.96143,2.47311 2.55839,3.41118 0.59696,0.93808 0.76752,1.44976 1.02336,1.79088 0.25584,0.34112 0.59696,0.51168 1.19392,1.44975 0.59695,0.93808 1.44975,2.64368 3.41119,4.09343 1.96143,1.44976 5.0315,2.64368 7.16349,3.49647 2.13199,0.8528 3.32591,1.36448 4.34926,1.62031 1.02336,0.25584 1.87616,0.25584 2.47311,0.34112 0.59696,0.0853 0.93808,0.25584 2.21728,0.25584 1.27919,0 3.49646,-0.17056 5.37262,-0.25584 1.87615,-0.0853 3.41118,-0.0853 5.37262,-0.4264 1.96143,-0.34112 4.34926,-1.02335 6.48125,-2.04671 2.132,-1.02336 4.00815,-2.38783 8.01629,-5.4579 4.00815,-3.07007 10.14829,-7.84573 13.30364,-10.40413 3.15535,-2.55839 3.32591,-2.8995 3.75231,-3.3259 0.42639,-0.4264 1.10863,-0.93808 1.70559,-1.7056 0.59695,-0.76751 1.10863,-1.79087 1.62031,-2.55839 0.51168,-0.76751 1.02336,-1.27919 1.36448,-1.79087 0.34112,-0.51168 0.51168,-1.02336 0.93807,-1.53504 0.4264,-0.51167 1.10864,-1.02335 1.7056,-0.68223 0.59696,0.34112 1.10863,1.53503 1.44975,2.13199 0.34112,0.59696 0.51168,0.59696 0,2.81423 -0.51168,2.21727 -1.70559,6.65182 -2.30255,9.21021 -0.59696,2.55839 -0.59696,3.24063 -0.76752,4.34926 -0.17056,1.10864 -0.51167,2.64367 -1.27919,4.77567 -0.76752,2.13199 -1.96143,4.86094 -2.81423,6.73709 -0.85279,1.87615 -1.36447,2.89951 -2.21727,4.09343 -0.8528,1.19391 -2.04671,2.55839 -3.24063,3.83758 -1.19392,1.2792 -2.38783,2.47311 -4.00815,4.77566 -1.62031,2.30256 -3.66703,5.71375 -5.37262,8.18686 -1.70559,2.47311 -3.07007,4.00814 -4.51982,5.62846 -1.44976,1.62031 -2.98479,3.3259 -4.94622,5.0315 -1.96144,1.70559 -4.34927,3.41119 -6.99294,5.20206 -2.64367,1.79087 -5.54318,3.66703 -7.1635,5.4579 -1.62031,1.79087 -1.96143,3.49647 -2.04671,4.51982 -0.0853,1.02336 0.0853,1.36448 0.17056,1.87616 0.0853,0.51168 0.0853,1.19391 0.17056,1.70559 0.0853,0.51168 0.25584,0.8528 0.4264,1.7056 0.17056,0.85279 0.34112,2.21727 0.34112,3.58174 0,1.36448 -0.17056,2.72895 -0.25584,4.86095 -0.0853,2.13199 -0.0853,5.0315 0.0853,7.33405 0.17056,2.30255 0.51168,4.00815 0.68224,5.20206 0.17056,1.19392 0.17056,1.87616 0.25584,2.38784 0.0853,0.51167 0.25584,0.85279 0.4264,2.30254 0.17056,1.44976 0.34111,4.00815 0.68223,6.7371 0.34112,2.72895 0.8528,5.62846 1.10864,7.41934 0.25584,1.79087 0.25584,2.47311 0.4264,3.32591 0.17056,0.85279 0.51168,1.87615 0.68223,3.15535 0.17056,1.27919 0.17056,2.81422 0.76752,7.84573 0.59696,5.0315 1.79087,13.55947 2.47311,19.52905 0.68224,5.96957 0.8528,9.38076 0.93808,11.85387 0.0853,2.47311 0.0853,4.00815 0.17056,4.86095 0.0853,0.85279 0.25584,1.02335 0.34112,2.81423 0.0853,1.79087 0.0853,5.20206 0,10.83052 -0.0853,5.62846 -0.25584,13.47419 -0.4264,19.78489 -0.17056,6.3107 -0.34112,11.08636 -0.68224,15.43563 -0.34112,4.34926 -0.85279,8.27212 -1.10863,11.34219 -0.25584,3.07007 -0.25584,5.28734 -0.59696,7.50462 -0.34112,2.21727 -1.02336,4.43454 -1.36448,5.8843 -0.34112,1.44975 -0.34112,2.13199 -0.51168,2.81422 -0.17055,0.68224 -0.51167,1.36448 -0.68223,1.96144 -0.17056,0.59696 -0.17056,1.10863 -0.34112,2.04671 -0.17056,0.93808 -0.51168,2.30255 -0.76752,3.07007 -0.25584,0.76752 -0.4264,0.93808 -1.2792,2.21727 -0.85279,1.2792 -2.38783,3.66703 -3.3259,5.03151 -0.93808,1.36447 -1.2792,1.70559 -1.79088,1.96143 -0.51167,0.25584 -1.19391,0.4264 -1.70559,0.68224 -0.51168,0.25583 -0.8528,0.59695 -1.62032,0.42639 -0.76751,-0.17056 -1.96143,-0.85279 -2.21727,-2.81423 z"
         id="path8"
         inkscape:path-effect="#path-effect9"
         inkscape:original-d="m 384.782,499.90959 c 0.68223,-3.24063 1.36447,-6.48126 2.04671,-9.72189 0,-0.85279 0,-1.70559 0,-2.55839 0.34112,-1.36447 0.68224,-2.72895 1.02336,-4.09342 0,-1.36448 0,-2.72895 0,-4.09343 0.17056,-1.02335 0.34111,-2.04671 0.51167,-3.07007 0.17056,-3.07007 0.34112,-6.14014 0.51168,-9.2102 1.02336,-7.67518 2.04672,-15.35035 3.07007,-23.02552 0,-1.19392 0,-2.38783 0,-3.58175 0.17056,-0.17056 0.34112,-0.34112 0.51168,-0.51168 -0.17056,-3.24063 -0.34112,-6.48126 -0.51168,-9.72188 0,-5.62846 0,-11.25692 0,-16.88538 -0.17056,-0.8528 -0.34112,-1.7056 -0.51168,-2.5584 0,-2.55839 0,-5.11678 0,-7.67517 -0.17056,-0.68224 -0.34112,-1.36447 -0.51167,-2.04671 0,-1.53504 0,-3.07007 0,-4.6051 -0.68224,-6.3107 -1.36448,-12.6214 -2.04672,-18.9321 -0.34112,-1.87615 -0.68224,-3.7523 -1.02335,-5.62846 0,-1.02335 0,-2.04671 0,-3.07007 -0.51168,-2.21727 -1.02336,-4.43454 -1.53504,-6.65181 -0.34112,-2.72895 -0.68224,-5.4579 -1.02335,-8.18685 -0.8528,-3.58175 -1.7056,-7.1635 -2.5584,-10.74525 -0.51167,-3.41118 -1.02335,-6.82237 -1.53503,-10.23356 -0.17056,-0.34112 -0.34112,-0.68224 -0.51168,-1.02336 -0.17056,-0.68223 -0.34112,-1.36447 -0.51168,-2.04671 0,-1.02336 0,-2.04671 0,-3.07007 -0.51167,-1.87615 -1.02335,-3.7523 -1.53503,-5.62846 0,-1.02335 0,-2.04671 0,-3.07007 -0.8528,-3.7523 -1.7056,-7.50461 -2.55839,-11.25692 -1.87616,-4.26398 -3.75231,-8.52797 -5.62846,-12.79195 -0.51168,-0.8528 -1.02336,-1.7056 -1.53504,-2.55839 -0.17056,-0.68224 -0.34112,-1.36448 -0.51168,-2.04672 -0.34111,-0.51167 -0.68223,-1.02335 -1.02335,-1.53503 -0.51168,-1.53504 -1.02336,-3.07007 -1.53504,-4.6051 -0.34111,-0.51168 -0.68223,-1.02336 -1.02335,-1.53504 -0.34112,-1.02336 -0.68224,-2.04671 -1.02336,-3.07007 -0.68224,-1.36447 -1.36447,-2.72895 -2.04671,-4.09342 -0.17056,-0.68224 -0.34112,-1.36448 -0.51168,-2.04672 -0.34112,-0.34111 -0.68224,-0.68223 -1.02336,-1.02335 -0.51167,-1.02336 -1.02335,-2.04672 -1.53503,-3.07007 -1.36448,-3.92287 -2.72895,-7.84573 -4.09343,-11.7686 -0.85279,-2.04671 -1.70559,-4.09343 -2.55839,-6.14014 0,-1.02335 0,-2.04671 0,-3.07007 -0.51168,-2.21727 -1.02335,-4.43454 -1.53503,-6.65181 -0.34112,-2.04672 -0.68224,-4.09343 -1.02336,-6.14014 0.51168,0 1.02336,0 1.53504,0 2.21727,1.70559 4.43454,3.41119 6.65181,5.11678 0.34112,0.17056 0.68224,0.34112 1.02336,0.51168 1.02336,1.19391 2.04671,2.38783 3.07007,3.58175 0.34112,0.17055 0.68224,0.34111 1.02335,0.51167 0.34112,0.51168 0.68224,1.02336 1.02336,1.53504 0.8528,0.8528 1.7056,1.70559 2.55839,2.55839 1.02336,1.36447 2.04671,2.72895 3.07007,4.09342 0.17056,0.51168 0.34112,1.02336 0.51168,1.53504 0.34112,0.17056 0.68224,0.34112 1.02336,0.51168 0.85279,1.70559 1.70559,3.41119 2.55839,5.11678 3.07007,1.19391 6.14014,2.38783 9.2102,3.58175 1.19392,0.51167 2.38784,1.02335 3.58175,1.53503 0.8528,0 1.7056,0 2.55839,0 0.34112,0.17056 0.68224,0.34112 1.02336,0.51168 2.21727,-0.17056 4.43454,-0.34112 6.65182,-0.51168 1.53503,0 3.07006,0 4.6051,0 2.38783,-0.68224 4.77566,-1.36447 7.16349,-2.04671 1.87616,-1.36448 3.75231,-2.72895 5.62846,-4.09343 6.14014,-4.77566 12.28028,-9.55132 18.42042,-14.32699 0.17056,-0.34112 0.34112,-0.68223 0.51168,-1.02335 0.68223,-0.51168 1.36447,-1.02336 2.04671,-1.53504 0.51168,-1.02335 1.02336,-2.04671 1.53503,-3.07007 0.51168,-0.51167 1.02336,-1.02335 1.53504,-1.53503 0.17056,-0.51168 0.34112,-1.02336 0.51168,-1.53504 0.68223,-0.51167 1.36447,-1.02335 2.04671,-1.53503 0.51168,1.19392 1.02336,2.38783 1.53503,3.58175 0.17056,0 0.34112,0 0.51168,0 -1.19391,4.43454 -2.38783,8.86909 -3.58175,13.30363 0,0.68224 0,1.36448 0,2.04671 -0.34111,1.53504 -0.68223,3.07007 -1.02335,4.60511 -1.19392,2.72895 -2.38783,5.4579 -3.58175,8.18685 -0.51168,1.02335 -1.02336,2.04671 -1.53503,3.07007 -1.19392,1.36447 -2.38783,2.72895 -3.58175,4.09342 -1.19392,1.19392 -2.38783,2.38783 -3.58175,3.58175 -2.04671,3.41119 -4.09342,6.82238 -6.14014,10.23356 -1.36447,1.53504 -2.72895,3.07007 -4.09342,4.60511 -1.53504,1.70559 -3.07007,3.41118 -4.60511,5.11678 -2.38783,1.70559 -4.77566,3.41119 -7.16349,5.11678 -2.89951,1.87615 -5.79902,3.75231 -8.69853,5.62846 -0.34112,1.70559 -0.68224,3.41119 -1.02336,5.11678 0.17056,0.34112 0.34112,0.68224 0.51168,1.02336 0,0.68224 0,1.36447 0,2.04671 0.17056,0.34112 0.34112,0.68224 0.51168,1.02336 0.17056,1.36447 0.34112,2.72895 0.51168,4.09342 -0.17056,1.36448 -0.34112,2.72895 -0.51168,4.09343 0,2.89951 0,5.79902 0,8.69853 0.34112,1.70559 0.68224,3.41119 1.02336,5.11678 0,0.68224 0,1.36448 0,2.04671 0.17056,0.34112 0.34112,0.68224 0.51168,1.02336 0.17055,2.55839 0.34111,5.11678 0.51167,7.67517 0.51168,2.89951 1.02336,5.79902 1.53504,8.69853 0,0.68224 0,1.36448 0,2.04671 0.34112,1.02336 0.68224,2.04672 1.02335,3.07007 0,1.53504 0,3.07007 0,4.60511 1.19392,8.52797 2.38784,17.05594 3.58175,25.58391 0.17056,3.41118 0.34112,6.82237 0.51168,10.23356 0,1.53503 0,3.07007 0,4.6051 0.17056,0.17056 0.34112,0.34112 0.51168,0.51168 0,3.41119 0,6.82238 0,10.23357 -0.17056,7.84573 -0.34112,15.69146 -0.51168,23.53719 -0.17056,4.77567 -0.34112,9.55133 -0.51168,14.32699 -0.51168,3.92287 -1.02335,7.84573 -1.53503,11.7686 0,2.21727 0,4.43454 0,6.65182 -0.68224,2.21727 -1.36448,4.43454 -2.04672,6.65181 0,0.68224 0,1.36448 0,2.04672 -0.34111,0.68223 -0.68223,1.36447 -1.02335,2.04671 0,0.51168 0,1.02335 0,1.53503 -0.34112,1.36448 -0.68224,2.72895 -1.02336,4.09343 -0.17056,0.17056 -0.34112,0.34112 -0.51168,0.51168 -1.53503,2.38783 -3.07007,4.77566 -4.6051,7.16349 -0.34112,0.34112 -0.68224,0.68224 -1.02336,1.02336 -0.68223,0.17056 -1.36447,0.34112 -2.04671,0.51168 -0.34112,0.34111 -0.68224,0.68223 -1.02336,1.02335 -1.19391,-0.68224 -2.38783,-1.36447 -3.58174,-2.04671 z"
         inkscape:label="Stem outline" />
      <path
         style="display:inline;fill:#e4bb37;fill-opacity:1;stroke:none;stroke-width:2.5;stroke-opacity:1"
         d="m 349.93646,227.14624 c 0,-0.4264 0,-1.27919 -0.17056,-2.13199 -0.17056,-0.8528 -0.51168,-1.7056 -0.68224,-2.72895 -0.17056,-1.02336 -0.17056,-2.21727 -0.34112,-3.49647 -0.17056,-1.2792 -0.51167,-2.64366 -0.68223,-3.58175 -0.17056,-0.93808 -0.17056,-1.44975 -0.34112,-1.96143 -0.17056,-0.51168 -0.51168,-1.02336 -0.76752,-1.7056 -0.25584,-0.68223 -0.4264,-1.53503 -0.93808,-3.32591 -0.51168,-1.79088 -1.36447,-4.51981 -2.04671,-7.67517 -0.68224,-3.15535 -1.19391,-6.73709 -1.70559,-9.89244 -0.51168,-3.15535 -1.02336,-5.88429 -1.2792,-8.01629 -0.25584,-2.132 -0.25584,-3.66703 -0.4264,-5.62847 -0.17056,-1.96143 -0.51168,-4.34926 -0.68224,-6.73709 -0.17056,-2.38783 -0.17056,-4.77566 -0.25584,-8.0163 -0.0853,-3.24063 -0.25583,-7.33404 0.76752,-12.45083 1.02336,-5.11678 3.24063,-11.25691 5.28734,-14.92394 2.04671,-3.66703 3.92286,-4.86094 4.44311,-5.35193 0.52025,-0.49099 -0.31541,-0.27904 -0.4774,-0.17307 -0.16198,0.10597 0.3497,0.10597 1.11722,-0.14987 0.76751,-0.25583 1.79087,-0.76751 3.7523,-1.36447 1.96144,-0.59696 4.86095,-1.2792 6.99294,-1.96144 2.13199,-0.68223 3.49647,-1.36447 4.43454,-1.70559 0.93808,-0.34112 1.44976,-0.34112 2.81424,-0.8528 1.36447,-0.51168 3.58174,-1.53503 6.31069,-2.55839 2.72895,-1.02336 5.96958,-2.04671 8.95437,-2.98479 2.98479,-0.93808 5.71374,-1.79087 7.67517,-2.21727 1.96144,-0.4264 3.15535,-0.4264 8.52797,0 5.37262,0.4264 14.92395,1.27919 20.29657,2.13199 5.37262,0.8528 6.56654,1.7056 7.50462,2.30255 0.93807,0.59696 1.62031,0.93808 2.72895,1.62032 1.10863,0.68224 2.64366,1.70559 3.58425,2.34645 0.94059,0.64085 1.28672,0.8992 2.05675,1.62533 0.77003,0.72614 1.96394,1.92005 2.5609,2.68757 0.59696,0.76752 0.59696,1.10864 0.93808,1.79088 0.34112,0.68223 1.02335,1.70559 3.07007,3.92286 2.04671,2.21727 5.4579,5.62846 7.84573,8.61325 2.38783,2.98479 3.7523,5.54317 4.69038,7.24877 0.93808,1.7056 1.44976,2.55839 2.132,4.00815 0.68224,1.44976 1.53503,3.49646 1.87615,5.62846 0.34112,2.13199 0.17056,4.34926 0.0853,5.96958 -0.0853,1.62032 -0.0853,2.64367 -1.53504,7.24879 -1.44976,4.60511 -4.34926,12.79194 -5.96957,17.48232 -1.62031,4.69038 -1.96143,5.8843 -2.30255,6.7371 -0.34112,0.85279 -0.68224,1.36447 -1.44976,2.98479 -0.76752,1.62032 -1.96143,4.34925 -2.81423,6.48125 -0.8528,2.132 -1.36447,3.66703 -1.78021,4.86094 -0.41574,1.19392 -0.73554,2.04671 -1.02336,3.97617 -0.28782,1.92945 -0.54367,4.93577 -0.79818,8.34283 -0.25451,3.40707 -0.50771,7.21529 -1.5016,9.59121 -0.99388,2.37592 -2.72846,3.31952 -3.68102,3.96189 -0.95257,0.64236 -1.12313,0.98348 -1.37897,1.23932 -0.25584,0.25584 -0.59696,0.42639 -1.36448,1.36447 -0.76752,0.93808 -1.96143,2.64367 -3.41119,4.26398 -1.44975,1.62032 -3.15534,3.15535 -4.51982,4.51982 -1.36447,1.36448 -2.38783,2.5584 -3.24062,3.4112 -0.8528,0.85279 -1.53504,1.36447 -1.96144,1.79087 -0.4264,0.4264 -0.59696,0.76752 -1.10864,1.19392 -0.51168,0.4264 -1.36447,0.93807 -1.87615,1.36447 -0.51168,0.4264 -0.68224,0.76752 -1.02336,1.02336 -0.34112,0.25584 -0.85279,0.4264 -1.70559,0.93808 -0.8528,0.51168 -2.04671,1.36447 -4.09342,2.38783 -2.04672,1.02335 -4.94623,2.21727 -7.5899,2.98478 -2.64367,0.76752 -5.0315,1.10864 -6.99293,1.36448 -1.96144,0.25584 -3.49647,0.4264 -5.40662,0.33211 -1.91014,-0.0943 -4.1954,-0.45344 -7.01392,-1.33033 -2.81852,-0.87689 -6.17029,-2.27152 -8.60897,-3.9681 -2.43867,-1.69658 -3.96424,-3.6951 -5.6991,-6.24065 -1.73487,-2.54554 -3.67899,-5.63805 -6.98643,-8.94639 -3.30745,-3.30833 -7.97816,-6.83242 -10.34318,-8.69994 -2.36502,-1.86752 -2.42434,-2.07844 -2.45183,-3.22536 -0.0275,-1.14691 -0.0231,-3.22981 -0.021,-4.27127 0.002,-1.04145 0.002,-1.04145 0.002,-1.46785 z"
         id="path2"
         inkscape:path-effect="#path-effect2"
         inkscape:original-d="m 349.93646,227.57264 c 0,-0.8528 0,-1.70559 0,-2.55839 -0.34112,-0.8528 -0.68224,-1.7056 -1.02336,-2.5584 0,-1.19391 0,-2.38782 0,-3.58174 -0.34112,-1.36448 -0.68224,-2.72894 -1.02335,-4.09343 0,-0.51168 0,-1.02335 0,-1.53503 -0.34113,-0.51168 -0.68224,-1.02336 -1.02336,-1.53504 -0.17056,-0.85279 -0.34112,-1.70559 -0.51168,-2.55839 -0.8528,-2.72896 -1.7056,-5.45789 -2.55839,-8.18685 -0.51168,-3.58175 -1.02336,-7.16349 -1.53503,-10.74524 -0.51168,-2.72895 -1.02336,-5.45789 -1.53504,-8.18685 0,-1.53504 0,-3.07007 0,-4.60511 -0.34113,-2.38783 -0.68224,-4.77566 -1.02336,-7.16349 0,-2.38783 0,-4.77566 0,-7.1635 -0.17056,-4.09343 -0.34112,-8.18684 -0.51167,-12.28027 2.21727,-6.14014 4.43453,-12.28027 6.65181,-18.42042 1.87615,-1.19391 3.7523,-2.38782 5.62846,-3.58174 -0.83566,0.21195 -1.67132,0.42389 -2.50697,0.63583 0.51168,0 1.02336,0 1.53504,0 1.02335,-0.51168 2.04671,-1.02335 3.07007,-1.53503 2.89951,-0.68224 5.79902,-1.36448 8.69853,-2.04672 1.36447,-0.68223 2.72895,-1.36447 4.09342,-2.04671 0.51168,0 1.02336,0 1.53504,0 2.21727,-1.02336 4.43454,-2.04671 6.65181,-3.07007 3.24063,-1.02335 6.48126,-2.04671 9.72189,-3.07007 2.72895,-0.85279 5.4579,-1.70559 8.18685,-2.55839 1.19392,0 2.38783,0 3.58175,0 9.55132,0.8528 19.10265,1.7056 28.65398,2.55839 1.19391,0.8528 2.38783,1.7056 3.58174,2.55839 0.68224,0.34112 1.36448,0.68224 2.04672,1.02336 1.53503,1.02336 3.07006,2.04671 4.6051,3.07007 0.34614,0.25835 0.69227,0.5167 1.03841,0.77505 1.19392,1.19392 2.38784,2.38783 3.58175,3.58175 0,0.34112 0,0.68224 0,1.02336 0.68224,1.02335 1.36448,2.0467 2.04671,3.07006 3.41119,3.41119 6.82238,6.82238 10.23357,10.23357 1.36448,2.55839 2.72895,5.11677 4.09342,7.67517 0.51168,0.8528 1.02336,1.70559 1.53504,2.55839 0.8528,2.04672 1.7056,4.09342 2.55839,6.14014 -0.17056,2.21727 -0.34112,4.43454 -0.51168,6.65182 0,1.02336 0,2.04671 0,3.07007 -2.89952,8.18687 -5.79902,16.3737 -8.69853,24.56055 -0.34111,1.19391 -0.68223,2.38783 -1.02335,3.58175 -0.34112,0.51167 -0.68224,1.02335 -1.02336,1.53503 -1.19392,2.72896 -2.38783,5.45789 -3.58175,8.18685 -0.51167,1.53504 -1.02335,3.07007 -1.53503,4.60511 -0.3198,0.85279 -0.6396,1.70558 -0.9594,2.55838 -0.25584,3.00611 -0.51169,6.01243 -0.76751,9.01833 -0.2532,3.80823 -0.5064,7.61645 -0.7596,11.42468 -1.73457,0.94361 -3.46915,1.88721 -5.20372,2.83082 -0.17056,0.34112 -0.34112,0.68224 -0.51168,1.02336 -0.34112,0.17055 -0.68224,0.34111 -1.02336,0.51167 -1.19391,1.7056 -2.38783,3.41119 -3.58175,5.11679 -1.70559,1.53503 -3.41118,3.07006 -5.11678,4.6051 -1.02335,1.19391 -2.04671,2.38783 -3.07007,3.58175 -0.68223,0.51167 -1.36447,1.02335 -2.04671,1.53503 -0.17056,0.34112 -0.34112,0.68224 -0.51168,1.02336 -0.8528,0.51168 -1.70559,1.02335 -2.55839,1.53503 -0.17056,0.34112 -0.34112,0.68224 -0.51168,1.02336 -0.51168,0.17056 -1.02335,0.34112 -1.53503,0.51168 -1.19392,0.85279 -2.38783,1.70559 -3.58175,2.55839 -2.89951,1.19391 -5.79902,2.38783 -8.69853,3.58174 -2.38783,0.34112 -4.77566,0.68224 -7.16349,1.02336 -1.53504,0.17056 -3.07007,0.34112 -4.60511,0.51168 -2.28525,-0.35915 -4.57051,-0.71829 -6.85577,-1.07744 -3.35178,-1.39463 -6.70355,-2.78926 -10.05532,-4.18388 -1.52558,-1.99854 -3.05115,-3.99706 -4.57673,-5.9956 -1.94415,-3.09255 -3.88827,-6.18506 -5.83241,-9.27761 -4.67075,-3.52412 -9.34146,-7.04821 -14.01219,-10.57232 -0.0593,-0.21093 -0.11863,-0.42185 -0.17794,-0.63278 0.004,-2.0829 0.009,-4.1658 0.013,-6.24871 z"
         sodipodi:nodetypes="cccccccccccccccccccccccccccccccccccccccccccccccccccccccccccccccccccccccc"
         inkscape:label="Flower base" />
      <path
         style="display:inline;fill:#cba425;fill-opacity:1;stroke:none;stroke-width:2.5;stroke-opacity:1"
         d="m 368.91997,251.74567 c 0.17056,-0.68224 0.34112,-1.36448 1.2792,-3.24063 0.93807,-1.87615 2.64367,-4.94622 3.99927,-7.60823 1.3556,-2.66202 26.22095,-58.39469 28.37998,-63.85438 2.15903,-5.45968 2.6707,-7.84751 2.51613,-10.30463 -0.15457,-2.45712 -0.97538,-4.98353 -1.84289,-7.34542 -0.8675,-2.3619 -1.78169,-4.55928 -4.02287,-5.95489 -2.24119,-1.39561 -5.80938,-1.98945 -9.39985,-2.20317 -3.59046,-0.21372 -7.2032,-0.0473 -10.31865,0.41556 -3.11544,0.46287 -5.73358,1.22218 -8.44977,2.43332 -2.71619,1.21114 -5.53043,2.87409 -6.96954,3.70557 -1.43911,0.83147 -1.50302,0.83147 -0.81545,-0.20255 0.68757,-1.03401 2.12666,-3.10204 5.40727,-6.45194 3.28061,-3.34991 8.40271,-7.98165 10.87049,-10.4441 2.46778,-2.46245 2.28123,-2.7556 -1.82359,-4.54068 -4.10482,-1.78507 -12.12786,-5.06205 -16.08489,-6.80909 -3.95702,-1.74704 -3.84797,-1.96411 -1.52708,-2.91415 2.32089,-0.95004 6.29011,-2.42383 13.24396,-4.77428 6.95386,-2.35045 11.71586,-3.86834 17.19655,-5.28164 5.48068,-1.41331 6.50403,-1.07219 7.52739,-0.90163 1.02336,0.17056 2.04671,0.17056 3.07007,0.34112 1.02336,0.17056 2.04671,0.51168 4.23901,0.70633 2.19229,0.19465 5.55351,0.24282 7.8104,0.372 2.25689,0.12918 3.40941,0.33935 4.99441,0.66495 1.58499,0.3256 3.60243,0.76662 4.78172,1.1577 1.17929,0.39108 1.5204,0.73219 2.62904,1.15859 1.10864,0.4264 2.98478,0.93807 5.18137,2.10228 2.19658,1.16422 4.71357,2.98095 6.57421,4.85371 1.86065,1.87276 3.0649,3.80152 4.59566,5.69881 1.53075,1.8973 3.38798,3.7631 4.69601,5.17027 1.30803,1.40716 1.81922,2.04615 2.54869,3.04327 0.72947,0.99712 1.4117,2.02047 2.09394,2.87327 0.68224,0.8528 1.36448,1.53504 2.84483,4.25069 1.48034,2.71564 3.7588,7.4647 4.70161,11.62287 0.94281,4.15817 0.54996,7.72542 -2.11028,15.88423 -2.66024,8.15882 -7.58784,20.90908 -10.26876,28.5835 -2.68091,7.67443 -3.11515,10.27302 -3.7931,14.34782 -0.67795,4.0748 -1.34619,8.09947 -2.82693,12.58448 -1.48074,4.485 -2.192,5.23857 -3.67717,7.13943 -1.48517,1.90087 -2.72908,3.86271 -7.44333,8.00573 -4.71426,4.14301 -12.87628,10.43155 -19.85388,13.93631 -6.9776,3.50476 -12.77068,4.22572 -17.65971,4.15847 -4.88903,-0.0673 -8.63447,-0.8713 -11.9406,-2.38358 -3.30613,-1.51229 -5.36711,-3.34013 -7.67565,-5.38752"
         id="path7"
         inkscape:path-effect="#path-effect7"
         inkscape:original-d="m 368.91997,251.74567 c 0.17056,-0.68224 0.34112,-1.36448 0.51168,-2.04671 1.7056,-3.07007 3.41119,-6.14014 5.11678,-9.21021 1.56732,-2.00335 29.67734,-56.2884 29.67734,-66.51817 0.51168,-2.38783 1.02335,-4.77566 1.53503,-7.16349 -0.82082,-2.52641 -1.64163,-5.05282 -2.46245,-7.57923 -0.91419,-2.19738 -1.82837,-4.39476 -2.74256,-6.59213 -3.56819,-0.59385 -7.13638,-1.1877 -10.70457,-1.78154 -3.61274,0.16641 -7.22548,0.33282 -10.83822,0.49924 -2.61815,0.75932 -5.23629,1.51863 -7.85443,2.27795 -2.81424,1.66296 -5.62848,3.32591 -8.4427,4.98886 -0.064,0 -0.12791,0 -0.19187,0 1.4391,-2.06803 2.87819,-4.13606 4.31729,-6.2041 5.12212,-4.63177 10.24422,-9.26351 15.36633,-13.89527 -0.18655,-0.29314 -0.3731,-0.58629 -0.55965,-0.87944 -8.02309,-3.277 -16.04613,-6.55398 -24.06924,-9.83099 0.10906,-0.21707 0.21811,-0.43414 0.32717,-0.65121 4.53272,-1.68301 8.50194,-3.1568 13.59817,-5.04905 8.81148,-2.80865 13.57348,-4.32654 23.51149,-7.49427 1.02336,0.34112 2.04671,0.68224 3.07007,1.02336 1.02336,0 2.04671,0 3.07007,0 1.02336,0.34112 2.04671,0.68224 3.07007,1.02336 3.36123,0.0482 6.72245,0.0964 10.08369,0.14453 1.15254,0.21018 2.30506,0.42035 3.45759,0.63052 2.01746,0.44103 4.0349,0.88205 6.05236,1.32308 0.34112,0.34113 0.68223,0.68224 1.02335,1.02336 1.87616,0.51168 3.7523,1.02336 5.62846,1.53503 2.51701,1.81675 5.034,3.63348 7.55102,5.45023 1.20427,1.92877 2.40852,3.85753 3.61279,5.78631 1.85724,1.86581 3.71447,3.73161 5.57171,5.59742 0.23451,1.36797 0.96109,1.83465 2.04671,2.55839 0.68224,1.02336 1.36447,2.04671 2.04671,3.07007 0.68224,0.68224 1.36448,1.36448 2.04671,2.04671 2.27847,4.74906 4.55693,9.49812 6.83539,14.24719 -0.39285,3.56727 -0.7857,7.13452 -1.17855,10.7018 -4.92763,12.75035 -9.85523,25.50061 -14.78283,38.25088 -0.43423,2.59858 -0.86847,5.19717 -1.3027,7.79575 -0.92167,5.55102 -1.58991,9.57569 -2.76501,16.65305 -1.78638,1.89265 -2.49764,2.64622 -4.20335,4.45341 -0.89246,2.23051 -2.27909,4.10186 -3.77506,5.9539 -8.16199,6.28851 -16.32401,12.57705 -24.48607,18.86561 -5.79314,0.72096 -11.58622,1.44192 -17.37933,2.16288 -3.98495,-0.85546 -7.73039,-1.65951 -11.95483,-2.56638 -2.38782,-2.1177 -4.4488,-3.94554 -6.75734,-5.99293"
         sodipodi:nodetypes="ccccccccccccccccccccccccccccccccccccccsccccc" />
      <path
         style="display:inline;fill:none;fill-opacity:0;stroke:#000000;stroke-width:2.5;stroke-opacity:1"
         d="m 349.93646,227.14624 c 0,-0.4264 0,-1.27919 -0.17056,-2.13199 -0.17056,-0.8528 -0.51168,-1.7056 -0.68224,-2.72895 -0.17056,-1.02336 -0.17056,-2.21727 -0.34112,-3.49647 -0.17056,-1.2792 -0.51167,-2.64366 -0.68223,-3.58175 -0.17056,-0.93808 -0.17056,-1.44975 -0.34112,-1.96143 -0.17056,-0.51168 -0.51168,-1.02336 -0.76752,-1.7056 -0.25584,-0.68223 -0.4264,-1.53503 -0.93808,-3.32591 -0.51168,-1.79088 -1.36447,-4.51981 -2.04671,-7.67517 -0.68224,-3.15535 -1.19391,-6.73709 -1.70559,-9.89244 -0.51168,-3.15535 -1.02336,-5.88429 -1.2792,-8.01629 -0.25584,-2.132 -0.25584,-3.66703 -0.4264,-5.62847 -0.17056,-1.96143 -0.51168,-4.34926 -0.68224,-6.73709 -0.17056,-2.38783 -0.17056,-4.77566 -0.25584,-8.0163 -0.0853,-3.24063 -0.25583,-7.33404 0.76752,-12.45083 1.02336,-5.11678 3.24063,-11.25691 5.12535,-14.81797 1.88473,-3.56106 3.43691,-4.54303 4.72467,-5.28985 1.28776,-0.74682 2.31112,-1.2585 4.27255,-1.85546 1.96144,-0.59696 4.86095,-1.2792 6.99294,-1.96144 2.13199,-0.68223 3.49647,-1.36447 4.43454,-1.70559 0.93808,-0.34112 1.44976,-0.34112 2.81424,-0.8528 1.36447,-0.51168 3.58174,-1.53503 6.31069,-2.55839 2.72895,-1.02336 5.96958,-2.04671 8.95437,-2.98479 2.98479,-0.93808 5.71374,-1.79087 7.67517,-2.21727 1.96144,-0.4264 3.15535,-0.4264 8.52797,0 5.37262,0.4264 14.92395,1.27919 20.29657,2.13199 5.37262,0.8528 6.56654,1.7056 7.50462,2.30255 0.93807,0.59696 1.62031,0.93808 2.72895,1.62032 1.10863,0.68224 2.64366,1.70559 3.58425,2.34645 0.94059,0.64085 1.28672,0.8992 2.05675,1.62533 0.77003,0.72614 1.96394,1.92005 2.5609,2.68757 0.59696,0.76752 0.59696,1.10864 0.93808,1.79088 0.34112,0.68223 1.02335,1.70559 3.07007,3.92286 2.04671,2.21727 5.4579,5.62846 7.84573,8.61325 2.38783,2.98479 3.7523,5.54317 4.69038,7.24877 0.93808,1.7056 1.44976,2.55839 2.132,4.00815 0.68224,1.44976 1.53503,3.49646 1.87615,5.62846 0.34112,2.13199 0.17056,4.34926 0.0853,5.96958 -0.0853,1.62032 -0.0853,2.64367 -1.53504,7.24879 -1.44976,4.60511 -4.34926,12.79194 -5.96957,17.48232 -1.62031,4.69038 -1.96143,5.8843 -2.30255,6.7371 -0.34112,0.85279 -0.68224,1.36447 -1.44976,2.98479 -0.76752,1.62032 -1.96143,4.34925 -2.81423,6.48125 -0.8528,2.132 -1.36447,3.66703 -1.78021,4.86094 -0.41574,1.19392 -0.73554,2.04671 -1.02336,3.97617 -0.28782,1.92945 -0.54367,4.93577 -0.79818,8.34283 -0.25451,3.40707 -0.50771,7.21529 -1.5016,9.59121 -0.99388,2.37592 -2.72846,3.31952 -3.68102,3.96189 -0.95257,0.64236 -1.12313,0.98348 -1.37897,1.23932 -0.25584,0.25584 -0.59696,0.42639 -1.36448,1.36447 -0.76752,0.93808 -1.96143,2.64367 -3.41119,4.26398 -1.44975,1.62032 -3.15534,3.15535 -4.51982,4.51982 -1.36447,1.36448 -2.38783,2.5584 -3.24062,3.4112 -0.8528,0.85279 -1.53504,1.36447 -1.96144,1.79087 -0.4264,0.4264 -0.59696,0.76752 -1.10864,1.19392 -0.51168,0.4264 -1.36447,0.93807 -1.87615,1.36447 -0.51168,0.4264 -0.68224,0.76752 -1.02336,1.02336 -0.34112,0.25584 -0.85279,0.4264 -1.70559,0.93808 -0.8528,0.51168 -2.04671,1.36447 -4.09342,2.38783 -2.04672,1.02335 -4.94623,2.21727 -7.5899,2.98478 -2.64367,0.76752 -5.0315,1.10864 -6.99293,1.36448 -1.96144,0.25584 -3.49647,0.4264 -5.40662,0.33211 -1.91014,-0.0943 -4.1954,-0.45344 -7.01392,-1.33033 -2.81852,-0.87689 -6.17029,-2.27152 -8.60897,-3.9681 -2.43867,-1.69658 -3.96424,-3.6951 -5.6991,-6.24065 -1.73487,-2.54554 -3.67899,-5.63805 -6.98643,-8.94639 -3.30745,-3.30833 -7.97816,-6.83242 -10.34318,-8.69994 -2.36502,-1.86752 -2.42434,-2.07844 -2.45183,-3.22536 -0.0275,-1.14691 -0.0231,-3.22981 -0.021,-4.27127 0.002,-1.04145 0.002,-1.04145 0.002,-1.46785 z"
         id="path9"
         inkscape:path-effect="#path-effect11"
         inkscape:original-d="m 349.93646,227.57264 c 0,-0.8528 0,-1.70559 0,-2.55839 -0.34112,-0.8528 -0.68224,-1.7056 -1.02336,-2.5584 0,-1.19391 0,-2.38782 0,-3.58174 -0.34112,-1.36448 -0.68224,-2.72894 -1.02335,-4.09343 0,-0.51168 0,-1.02335 0,-1.53503 -0.34113,-0.51168 -0.68224,-1.02336 -1.02336,-1.53504 -0.17056,-0.85279 -0.34112,-1.70559 -0.51168,-2.55839 -0.8528,-2.72896 -1.7056,-5.45789 -2.55839,-8.18685 -0.51168,-3.58175 -1.02336,-7.16349 -1.53503,-10.74524 -0.51168,-2.72895 -1.02336,-5.45789 -1.53504,-8.18685 0,-1.53504 0,-3.07007 0,-4.60511 -0.34113,-2.38783 -0.68224,-4.77566 -1.02336,-7.16349 0,-2.38783 0,-4.77566 0,-7.1635 -0.17056,-4.09343 -0.34112,-8.18684 -0.51167,-12.28027 2.21727,-6.14014 4.43453,-12.28027 6.65181,-18.42042 1.55218,-0.98197 3.10436,-1.96394 4.65653,-2.94591 1.02335,-0.51168 2.04671,-1.02335 3.07007,-1.53503 2.89951,-0.68224 5.79902,-1.36448 8.69853,-2.04672 1.36447,-0.68223 2.72895,-1.36447 4.09342,-2.04671 0.51168,0 1.02336,0 1.53504,0 2.21727,-1.02336 4.43454,-2.04671 6.65181,-3.07007 3.24063,-1.02335 6.48126,-2.04671 9.72189,-3.07007 2.72895,-0.85279 5.4579,-1.70559 8.18685,-2.55839 1.19392,0 2.38783,0 3.58175,0 9.55132,0.8528 19.10265,1.7056 28.65398,2.55839 1.19391,0.8528 2.38783,1.7056 3.58174,2.55839 0.68224,0.34112 1.36448,0.68224 2.04672,1.02336 1.53503,1.02336 3.07006,2.04671 4.6051,3.07007 0.34614,0.25835 0.69227,0.5167 1.03841,0.77505 1.19392,1.19392 2.38784,2.38783 3.58175,3.58175 0,0.34112 0,0.68224 0,1.02336 0.68224,1.02335 1.36448,2.0467 2.04671,3.07006 3.41119,3.41119 6.82238,6.82238 10.23357,10.23357 1.36448,2.55839 2.72895,5.11677 4.09342,7.67517 0.51168,0.8528 1.02336,1.70559 1.53504,2.55839 0.8528,2.04672 1.7056,4.09342 2.55839,6.14014 -0.17056,2.21727 -0.34112,4.43454 -0.51168,6.65182 0,1.02336 0,2.04671 0,3.07007 -2.89952,8.18687 -5.79902,16.3737 -8.69853,24.56055 -0.34111,1.19391 -0.68223,2.38783 -1.02335,3.58175 -0.34112,0.51167 -0.68224,1.02335 -1.02336,1.53503 -1.19392,2.72896 -2.38783,5.45789 -3.58175,8.18685 -0.51167,1.53504 -1.02335,3.07007 -1.53503,4.60511 -0.3198,0.85279 -0.6396,1.70558 -0.9594,2.55838 -0.25584,3.00611 -0.51169,6.01243 -0.76751,9.01833 -0.2532,3.80823 -0.5064,7.61645 -0.7596,11.42468 -1.73457,0.94361 -3.46915,1.88721 -5.20372,2.83082 -0.17056,0.34112 -0.34112,0.68224 -0.51168,1.02336 -0.34112,0.17055 -0.68224,0.34111 -1.02336,0.51167 -1.19391,1.7056 -2.38783,3.41119 -3.58175,5.11679 -1.70559,1.53503 -3.41118,3.07006 -5.11678,4.6051 -1.02335,1.19391 -2.04671,2.38783 -3.07007,3.58175 -0.68223,0.51167 -1.36447,1.02335 -2.04671,1.53503 -0.17056,0.34112 -0.34112,0.68224 -0.51168,1.02336 -0.8528,0.51168 -1.70559,1.02335 -2.55839,1.53503 -0.17056,0.34112 -0.34112,0.68224 -0.51168,1.02336 -0.51168,0.17056 -1.02335,0.34112 -1.53503,0.51168 -1.19392,0.85279 -2.38783,1.70559 -3.58175,2.55839 -2.89951,1.19391 -5.79902,2.38783 -8.69853,3.58174 -2.38783,0.34112 -4.77566,0.68224 -7.16349,1.02336 -1.53504,0.17056 -3.07007,0.34112 -4.60511,0.51168 -2.28525,-0.35915 -4.57051,-0.71829 -6.85577,-1.07744 -3.35178,-1.39463 -6.70355,-2.78926 -10.05532,-4.18388 -1.52558,-1.99854 -3.05115,-3.99706 -4.57673,-5.9956 -1.94415,-3.09255 -3.88827,-6.18506 -5.83241,-9.27761 -4.67075,-3.52412 -9.34146,-7.04821 -14.01219,-10.57232 -0.0593,-0.21093 -0.11863,-0.42185 -0.17794,-0.63278 0.004,-2.0829 0.009,-4.1658 0.013,-6.24871 z"
         sodipodi:nodetypes="cccccccccccccccccccccccccccccccccccccccccccccccccccccccccccccccccccccc"
         inkscape:label="Flower outline" />
      <g
         id="g11">
        <path
           style="display:inline;fill:none;fill-opacity:0;stroke:#000000;stroke-width:0.8;stroke-dasharray:none;stroke-opacity:1"
           d="m 356.89554,127.53579 c 6.33349,2.56351 12.66702,5.12704 16.63253,6.72603 3.9655,1.59899 5.563,2.23346 6.61759,2.80654 1.05459,0.57307 1.56627,1.08475 1.90739,1.34059 0.34112,0.25584 0.51167,0.25584 0.17055,0.59696 -0.34111,0.34111 -1.19391,1.02335 -4.34926,3.49646 -3.15535,2.47312 -8.61325,6.7371 -11.9395,10.91699 -3.32626,4.1799 -4.51953,8.27109 -5.45764,15.60599 -0.93811,7.33489 -1.61853,17.88136 -2.04669,28.00835 -0.42815,10.127 -0.59623,19.53908 -0.25572,26.37895 0.3405,6.83987 1.19375,10.93547 1.94541,13.71415 0.75166,2.77867 1.4526,4.3558 2.14796,5.92034"
           id="path3"
           inkscape:path-effect="#path-effect3"
           inkscape:original-d="m 356.89554,127.53579 c 6.33349,2.56351 12.66702,5.12704 19.00054,7.69056 1.59749,0.63447 3.19499,1.26893 4.79249,1.9034 0.51168,0.51168 1.02336,1.02336 1.53504,1.53504 0.17056,0 0.34111,0 0.51167,0 -0.85279,0.68224 -1.70559,1.36447 -2.55839,2.04671 -5.4579,4.26399 -10.9158,8.52797 -16.3737,12.79196 -1.12578,4.11587 -2.23243,8.23233 -3.58175,12.28027 -2.12354,10.48353 -2.08802,21.07619 -2.04671,31.72405 -2.39095,9.6133 -0.51168,19.06194 -0.51168,28.65398 1.1078,4.03752 1.78758,8.16926 2.55839,12.28028 1.41481,1.1237 1.57172,2.94262 2.04672,4.6051"
           sodipodi:nodetypes="cccccccccccc" />
        <path
           style="display:inline;fill:none;fill-opacity:0;stroke:#000000;stroke-width:0.8;stroke-dasharray:none;stroke-opacity:1"
           d="m 362.71587,159.19587 c 1.77333,-1.16866 3.54666,-2.33732 5.51875,-3.5419 1.97209,-1.20457 4.14295,-2.44506 7.44566,-3.40642 3.3027,-0.96137 7.79818,-1.65298 13.80908,-1.24583 6.0109,0.40714 10.17662,1.21714 14.58851,2.4564 4.41188,1.23925 6.62916,2.43317 8.54182,3.52422 1.91266,1.09105 4.20195,2.49787 5.76439,3.6648 1.56245,1.16692 3.03353,2.53966 3.78178,4.05276 0.74826,1.5131 1.30488,4.47138 1.61841,6.06873 0.31353,1.59736 0.58137,2.88296 0.84921,4.16856"
           id="path4"
           inkscape:path-effect="#path-effect4"
           inkscape:original-d="m 362.71587,159.19587 c 1.77333,-1.16866 3.54666,-2.33732 5.31998,-3.50598 2.17086,-1.24049 4.34172,-2.48098 6.51258,-3.72147 4.43455,-0.68224 9.04491,-0.62713 13.30364,-2.04671 8.00931,-0.37002 12.17165,0.45736 18.42041,3.58175 2.21727,1.19391 4.43455,2.38783 6.65182,3.58174 1.00232,1.97388 3.77934,2.58703 5.7244,3.51779 1.29783,1.21107 2.76891,2.58381 3.89346,3.63319 0.37196,1.97682 0.92858,4.9351 1.2878,6.84421 0.26784,1.2856 0.80352,3.8568 0.80352,3.8568"
           sodipodi:nodetypes="cccccccccc" />
        <path
           style="display:inline;fill:none;fill-opacity:0;stroke:#000000;stroke-width:0.8;stroke-dasharray:none;stroke-opacity:1"
           d="m 455.26567,147.49124 c -1.83351,0.6396 -3.66703,1.27919 -7.22745,2.79291 -3.56043,1.51371 -8.84778,3.90155 -12.77064,7.48329 -3.92287,3.58175 -6.48126,8.35741 -8.01629,11.3422 -1.53504,2.98479 -2.04672,4.17871 -3.49424,8.52096 -1.44752,4.34225 -0.26249,0.61787 -1.97121,6.77598 -1.70873,6.15811 -3.88767,16.3265 -5.86293,25.45909 -1.97526,9.13259 0.58313,-2.636 -0.78134,3.93054 -1.36448,6.56653 -1.53503,7.931 -1.87615,10.65996 -0.34112,2.72895 -0.8528,6.82237 -1.10864,11.00108 -0.25584,4.1787 -0.25584,8.44269 -0.25584,11.7686 0,3.3259 0,5.71373 0,7.33404 0,1.62032 0,2.47312 0.008,3.15536 0.008,0.68224 0.024,1.19391 0.04,1.70559"
           id="path5"
           inkscape:path-effect="#path-effect5"
           inkscape:original-d="m 455.26567,147.49124 c -1.83351,0.6396 -3.66703,1.27919 -5.50054,1.91879 -5.28734,2.38783 -10.57469,4.77566 -15.86203,7.1635 -2.55839,4.77566 -5.11678,9.55132 -7.67517,14.32698 -0.51168,1.19392 -1.02336,2.38784 -1.53503,3.58175 -1.55108,7.75541 -2.03063,3.50139 -3.58175,11.25692 -1.9811,4.62257 -3.66324,14.89742 -4.60511,21.49049 -3.61183,14.44762 2.09207,-3.73287 -2.55839,11.76859 -0.17056,1.36448 -0.34112,2.72895 -0.51167,4.09343 -0.51168,4.09343 -1.02336,8.18685 -1.53504,12.28028 0,4.26398 0,8.52797 0,12.79195 0,2.38783 0,4.77566 0,7.1635 0,0.85279 0,1.70559 0,2.55839 0.016,0.51168 0.048,1.53503 0.048,1.53503"
           sodipodi:nodetypes="ccccccccscsssc" />
      </g>
      <path
         style="display:none;fill:#caa324;fill-opacity:1;stroke:none;stroke-width:2.5;stroke-opacity:1"
         d="m 371.47836,134.05969 c -0.17056,-0.68224 -0.34111,-1.36448 -0.34111,-1.36448 0,0 0.17055,0.68224 -10e-6,-0.59695 -0.17056,-1.2792 -0.68223,-4.51983 -0.85279,-6.14014 -0.17056,-1.62032 0,-1.62032 0.0853,-1.79088 0.0853,-0.17056 0.0853,-0.51168 0.25584,-0.8528 0.17056,-0.34112 0.51167,-0.68223 1.02335,-1.44975 0.51168,-0.76752 1.19392,-1.96143 1.96143,-2.64367 0.76752,-0.68224 1.62032,-0.8528 2.89952,-1.19392 1.27919,-0.34112 2.98479,-0.85279 4.26399,-1.10863 1.27919,-0.25584 2.13198,-0.25584 3.07006,-0.4264 0.93808,-0.17056 1.96143,-0.51168 3.83759,-0.68224 1.87615,-0.17056 4.6051,-0.17056 7.67517,0.34112 3.07007,0.51168 6.48126,1.53503 10.4894,2.47311 4.00815,0.93808 8.61325,1.79087 11.7686,2.55839 3.15535,0.76752 4.86094,1.44975 6.65182,2.04671 1.79087,0.59696 3.66702,1.10864 4.86094,1.53504 1.19392,0.4264 1.70559,0.76751 2.21727,0.93807 0.51168,0.17056 1.02336,0.17056 3.07007,1.2792 2.04671,1.10863 5.62846,3.32591 8.01629,5.11678 2.38784,1.79088 3.58175,3.15535 4.60511,4.6051 1.02335,1.44976 1.87615,2.9848 2.47311,3.83759 0.59696,0.8528 0.93807,1.02336 1.36447,1.62031 0.4264,0.59696 0.93808,1.62032 1.19392,2.30256 0.25584,0.68224 0.25584,1.02335 0.34112,1.19391 0.0853,0.17056 0.25584,0.17056 0.4264,0.34112 0.17056,0.17056 0.34111,0.51168 0.42639,0.93808 0.0853,0.4264 0.0853,0.93808 0.17056,1.36447 0.0853,0.4264 0.25584,0.76752 0.25584,1.02336 0,0.25584 -0.17056,0.4264 -0.25584,0.68224 -0.0853,0.25584 -0.0853,0.59696 -0.8528,1.62031 -0.76751,1.02336 -2.30254,2.72895 -3.24062,3.66703 -0.93808,0.93808 -1.2792,1.10864 -1.44976,1.27919 -0.17056,0.17056 -0.17056,0.34112 -0.51168,0.76752 -0.34111,0.4264 -1.02335,1.10864 -3.15534,2.30256 -2.132,1.19391 -5.71374,2.8995 -7.84573,3.92286 -2.132,1.02336 -2.81424,1.36448 -3.4112,1.53503 -0.59695,0.17056 -1.10863,0.17056 -1.87615,0.34112 -0.76751,0.17056 -1.79087,0.51168 -2.38783,0.59696 -0.59696,0.0853 -0.76752,-0.0853 -1.79088,-0.25584 -1.02335,-0.17056 -2.8995,-0.34112 -4.51981,-0.8528 -1.62032,-0.51167 -2.9848,-1.36447 -3.75231,-1.96143 -0.76752,-0.59696 -0.93808,-0.93807 -1.44976,-1.36447 -0.51168,-0.4264 -1.36447,-0.93808 -2.04671,-1.53504 -0.68223,-0.59695 -1.19391,-1.27919 -1.96143,-1.87615 -0.76752,-0.59696 -1.79088,-1.10864 -2.38784,-1.53503 -0.59695,-0.4264 -0.76751,-0.76752 -1.10863,-1.02336 -0.34112,-0.25584 -0.8528,-0.4264 -1.36448,-0.76752 -0.51168,-0.34112 -1.02336,-0.8528 -1.62031,-1.27919 -0.59696,-0.4264 -1.2792,-0.76752 -1.79087,-1.10864 -0.51168,-0.34112 -0.8528,-0.68224 -2.30255,-1.44976 -1.44976,-0.76751 -4.00815,-1.96143 -5.45791,-2.72894 -1.44975,-0.76752 -1.79087,-1.10864 -2.38783,-1.36448 -0.59696,-0.25584 -1.44975,-0.4264 -2.21727,-0.76752 -0.76752,-0.34112 -1.44976,-0.8528 -3.66703,-2.21727 -2.21727,-1.36448 -5.96958,-3.58175 -8.44269,-5.28735 -2.47311,-1.70559 -3.66702,-2.8995 -4.94622,-3.58174 -1.2792,-0.68224 -2.64367,-0.85279 -3.32591,-1.70559 -0.68224,-0.8528 -0.68224,-2.38783 -0.68224,-3.32591 0,-0.93808 0,-1.2792 -0.0853,-1.44976 -0.0853,-0.17055 -0.25583,-0.17055 -0.17056,-0.0853 0.0853,0.0853 0.4264,0.25583 0.76752,0.42639"
         id="path6"
         inkscape:path-effect="#path-effect6"
         inkscape:original-d="m 371.47836,134.05969 c -0.17056,-0.68224 -0.34111,-1.36448 -0.51167,-2.04672 0.17056,0.68224 0.34111,1.36448 0.51167,2.04672 -0.51167,-3.24063 -1.02335,-6.48126 -1.53503,-9.72189 0.17056,0 0.34112,0 0.51168,0 0,-0.34112 0,-0.68224 0,-1.02336 0.34112,-0.34112 0.68224,-0.68223 1.02335,-1.02335 0.68224,-1.19392 1.36448,-2.38783 2.04672,-3.58175 0.85279,-0.17056 1.70559,-0.34112 2.55839,-0.51168 1.70559,-0.51168 3.41119,-1.02336 5.11678,-1.53503 0.8528,0 1.70559,0 2.55839,0 1.02336,-0.34112 2.04671,-0.68224 3.07007,-1.02336 2.72895,0 5.4579,0 8.18685,0 3.41119,1.02336 6.82238,2.04671 10.23356,3.07007 4.60511,0.8528 9.21021,1.70559 13.81532,2.55839 1.70559,0.68224 3.41118,1.36448 5.11678,2.04671 1.87615,0.51168 3.7523,1.02336 5.62846,1.53504 0.51168,0.34112 1.02335,0.68224 1.53503,1.02335 0.51168,0 1.02336,0 1.53504,0 3.58174,2.21728 7.16349,4.43455 10.74524,6.65182 1.19391,1.36448 2.38783,2.72895 3.58175,4.09343 0.85279,1.53503 1.70559,3.07007 2.55839,4.6051 0.34112,0.17056 0.68223,0.34112 1.02335,0.51168 0.51168,1.02335 1.02336,2.04671 1.53504,3.07007 0,0.34112 0,0.68223 0,1.02335 0.17056,0 0.34112,0 0.51168,0 0.17056,0.34112 0.34111,0.68224 0.51167,1.02336 0,0.51168 0,1.02336 0,1.53503 0.17056,0.34112 0.34112,0.68224 0.51168,1.02336 -0.17056,0.17056 -0.34112,0.34112 -0.51168,0.51168 0,0.34112 0,0.68224 0,1.02336 -1.53503,1.70559 -3.07007,3.41118 -4.6051,5.11678 -0.34112,0.17056 -0.68224,0.34112 -1.02336,0.51168 0,0.17055 0,0.34111 0,0.51167 -0.68223,0.68224 -1.36447,1.36448 -2.04671,2.04672 -3.58175,1.70559 -7.16349,3.41118 -10.74524,5.11678 -0.68224,0.34112 -1.36448,0.68224 -2.04671,1.02335 -0.51168,0 -1.02336,0 -1.53504,0 -1.02335,0.34112 -2.04671,0.68224 -3.07007,1.02336 -0.17056,-0.17056 -0.34112,-0.34112 -0.51168,-0.51168 -1.87615,-0.17056 -3.7523,-0.34112 -5.62846,-0.51168 -1.36447,-0.85279 -2.72895,-1.70559 -4.09342,-2.55839 -0.17056,-0.34112 -0.34112,-0.68223 -0.51168,-1.02335 -0.8528,-0.51168 -1.70559,-1.02336 -2.55839,-1.53504 -0.51168,-0.68223 -1.02336,-1.36447 -1.53503,-2.04671 -1.02336,-0.51168 -2.04672,-1.02336 -3.07007,-1.53503 -0.17056,-0.34112 -0.34112,-0.68224 -0.51168,-1.02336 -0.51168,-0.17056 -1.02336,-0.34112 -1.53504,-0.51168 -0.51167,-0.51168 -1.02335,-1.02336 -1.53503,-1.53503 -0.68224,-0.34112 -1.36448,-0.68224 -2.04671,-1.02336 -0.34112,-0.34112 -0.68224,-0.68224 -1.02336,-1.02336 -2.55839,-1.19391 -5.11678,-2.38783 -7.67517,-3.58174 -0.34112,-0.34112 -0.68224,-0.68224 -1.02336,-1.02336 -0.8528,-0.17056 -1.70559,-0.34112 -2.55839,-0.51168 -0.68224,-0.51168 -1.36448,-1.02335 -2.04671,-1.53503 -3.75231,-2.21728 -7.50462,-4.43455 -11.25692,-6.65182 -1.19392,-1.19392 -2.38783,-2.38783 -3.58175,-3.58175 -1.36448,-0.17056 -2.72895,-0.34112 -4.09343,-0.51167 0,-1.53504 0,-3.07007 0,-4.60511 0,-0.34112 0,-0.68224 0,-1.02335 -0.17056,0 -0.34111,0 -0.51167,0 0.34111,0.17055 0.68223,0.34111 1.02335,0.51167" />
      <g
         id="g12" />
    </g>
  </g>
</svg>
