<?xml version="1.0" encoding="UTF-8" standalone="no"?>
<!-- Created with Inkscape (http://www.inkscape.org/) -->

<svg
   version="1.1"
   id="svg1"
   width="793.59998"
   height="559.35999"
   viewBox="0 0 793.59998 559.35999"
   sodipodi:docname="Watermelon.svg"
   inkscape:version="1.4 (86a8ad7, 2024-10-11)"
   xmlns:inkscape="http://www.inkscape.org/namespaces/inkscape"
   xmlns:sodipodi="http://sodipodi.sourceforge.net/DTD/sodipodi-0.dtd"
   xmlns="http://www.w3.org/2000/svg"
   xmlns:svg="http://www.w3.org/2000/svg">
  <defs
     id="defs1">
    <inkscape:path-effect
       effect="bspline"
       id="path-effect17"
       is_visible="true"
       lpeversion="1.3"
       weight="33.333333"
       steps="2"
       helper_size="0"
       apply_no_weight="true"
       apply_with_weight="true"
       only_selected="false"
       uniform="false" />
    <inkscape:path-effect
       effect="bspline"
       id="path-effect15"
       is_visible="true"
       lpeversion="1.3"
       weight="33.333333"
       steps="2"
       helper_size="0"
       apply_no_weight="true"
       apply_with_weight="true"
       only_selected="false"
       uniform="false" />
    <inkscape:path-effect
       effect="bspline"
       id="path-effect13"
       is_visible="true"
       lpeversion="1.3"
       weight="33.333333"
       steps="2"
       helper_size="0"
       apply_no_weight="true"
       apply_with_weight="true"
       only_selected="false"
       uniform="false" />
    <inkscape:path-effect
       effect="bspline"
       id="path-effect12"
       is_visible="true"
       lpeversion="1.3"
       weight="33.333333"
       steps="2"
       helper_size="0"
       apply_no_weight="true"
       apply_with_weight="true"
       only_selected="false"
       uniform="false" />
    <inkscape:path-effect
       effect="bspline"
       id="path-effect11"
       is_visible="true"
       lpeversion="1.3"
       weight="33.333333"
       steps="2"
       helper_size="0"
       apply_no_weight="true"
       apply_with_weight="true"
       only_selected="false"
       uniform="false" />
    <inkscape:path-effect
       effect="bspline"
       id="path-effect10"
       is_visible="true"
       lpeversion="1.3"
       weight="33.333333"
       steps="2"
       helper_size="0"
       apply_no_weight="true"
       apply_with_weight="true"
       only_selected="false"
       uniform="false" />
    <inkscape:path-effect
       effect="bspline"
       id="path-effect9"
       is_visible="true"
       lpeversion="1.3"
       weight="33.333333"
       steps="2"
       helper_size="0"
       apply_no_weight="true"
       apply_with_weight="true"
       only_selected="false"
       uniform="false" />
    <inkscape:path-effect
       effect="bspline"
       id="path-effect8"
       is_visible="true"
       lpeversion="1.3"
       weight="33.333333"
       steps="2"
       helper_size="0"
       apply_no_weight="true"
       apply_with_weight="true"
       only_selected="false"
       uniform="false" />
    <inkscape:path-effect
       effect="bspline"
       id="path-effect7"
       is_visible="true"
       lpeversion="1.3"
       weight="33.333333"
       steps="2"
       helper_size="0"
       apply_no_weight="true"
       apply_with_weight="true"
       only_selected="false"
       uniform="false" />
    <inkscape:path-effect
       effect="bspline"
       id="path-effect6"
       is_visible="true"
       lpeversion="1.3"
       weight="33.333333"
       steps="2"
       helper_size="0"
       apply_no_weight="true"
       apply_with_weight="true"
       only_selected="false"
       uniform="false" />
    <inkscape:path-effect
       effect="bspline"
       id="path-effect5"
       is_visible="true"
       lpeversion="1.3"
       weight="33.333333"
       steps="2"
       helper_size="0"
       apply_no_weight="true"
       apply_with_weight="true"
       only_selected="false"
       uniform="false" />
    <inkscape:path-effect
       effect="bspline"
       id="path-effect4"
       is_visible="true"
       lpeversion="1.3"
       weight="33.333333"
       steps="2"
       helper_size="0"
       apply_no_weight="true"
       apply_with_weight="true"
       only_selected="false"
       uniform="false" />
    <inkscape:path-effect
       effect="bspline"
       id="path-effect3"
       is_visible="true"
       lpeversion="1.3"
       weight="33.333333"
       steps="2"
       helper_size="0"
       apply_no_weight="true"
       apply_with_weight="true"
       only_selected="false"
       uniform="false" />
    <inkscape:path-effect
       effect="bspline"
       id="path-effect2"
       is_visible="true"
       lpeversion="1.3"
       weight="33.333333"
       steps="2"
       helper_size="0"
       apply_no_weight="true"
       apply_with_weight="true"
       only_selected="false"
       uniform="false" />
    <inkscape:path-effect
       effect="bspline"
       id="path-effect1"
       is_visible="true"
       lpeversion="1.3"
       weight="33.333333"
       steps="2"
       helper_size="0"
       apply_no_weight="true"
       apply_with_weight="true"
       only_selected="false"
       uniform="false" />
  </defs>
  <sodipodi:namedview
     id="namedview1"
     pagecolor="#ffffff"
     bordercolor="#111111"
     borderopacity="1"
     inkscape:showpageshadow="0"
     inkscape:pageopacity="0"
     inkscape:pagecheckerboard="1"
     inkscape:deskcolor="#d1d1d1"
     inkscape:zoom="0.70710678"
     inkscape:cx="408.70772"
     inkscape:cy="301.93459"
     inkscape:window-width="1920"
     inkscape:window-height="991"
     inkscape:window-x="-9"
     inkscape:window-y="-9"
     inkscape:window-maximized="1"
     inkscape:current-layer="g1" />
  <g
     inkscape:groupmode="layer"
     inkscape:label="Image"
     id="g1">
    <g
       id="g17"
       transform="matrix(2.0536878,0,0,2.0536878,-406.69478,-246.95761)">
      <path
         style="display:inline;fill:#47ab51;fill-opacity:1;stroke:none;stroke-width:0.8"
         d="m 408.5554,125.68191 c 4.8741,0.71077 9.45704,1.19319 14.27586,1.91579 4.81881,0.72261 9.82183,1.67556 14.20006,2.52674 4.37824,0.85118 7.99635,1.57481 10.89084,2.41903 2.89449,0.84423 5.06536,1.80906 8.80407,3.37691 3.73872,1.56785 9.04528,3.73871 12.78399,5.66837 3.73872,1.92966 5.90959,3.61811 9.16589,5.90958 3.2563,2.29147 7.59803,5.18596 11.09554,7.59803 3.4975,2.41208 6.15079,4.34174 10.97493,7.83925 4.82415,3.4975 11.81917,8.56286 18.33177,17.84935 6.5126,9.28648 12.54278,22.79409 15.67848,30.27152 3.1357,7.47743 3.3769,8.92468 4.10053,12.18098 0.72362,3.2563 1.92965,8.32165 3.13569,13.0252 1.20604,4.70354 2.41207,9.04528 3.1357,14.11064 0.72362,5.06535 0.96483,10.85433 1.20604,14.35183 0.24121,3.49751 0.48241,4.70355 0.48241,5.78898 0,1.08543 -0.2412,2.05026 -0.60302,4.46234 -0.36181,2.41207 -0.84422,6.27139 -1.68845,9.7689 -0.84423,3.49751 -2.05026,6.6332 -3.01509,9.28648 -0.96483,2.65329 -1.68845,4.82415 -3.37691,7.95985 -1.68845,3.13569 -4.34173,7.23622 -7.23622,11.69856 -2.89448,4.46233 -6.03018,9.28648 -12.18097,15.79908 -6.15079,6.5126 -15.31667,14.71365 -20.38203,19.2966 -5.06536,4.58294 -6.03018,5.54777 -11.81916,9.16588 -5.78898,3.61811 -16.40211,9.8895 -22.6735,13.2664 -6.27139,3.37691 -8.20105,3.85932 -9.7689,4.46234 -1.56785,0.60302 -2.77388,1.32664 -8.00608,2.78484 -5.2322,1.4582 -14.28407,3.60206 -19.72201,4.93125 -5.43793,1.32919 -7.12638,1.81161 -10.74449,2.41462 -3.61811,0.60302 -9.16588,1.32665 -13.99003,1.92967 -4.82415,0.60301 -8.92468,1.08543 -14.23124,1.32663 -5.30656,0.24121 -11.81916,0.24121 -15.55788,0.36181 -3.73871,0.12061 -4.70354,0.36181 -7.83924,0.48242 -3.13569,0.1206 -8.44226,0.1206 -14.71365,0.2412 -6.27139,0.12061 -13.50761,0.36182 -19.77901,-0.12059 -6.27139,-0.48242 -11.57795,-1.68846 -17.79096,-4.25546 -6.213,-2.56701 -12.94176,-6.27942 -17.95742,-9.09243 -5.01567,-2.81301 -7.91016,-4.50147 -11.52827,-7.75777 -3.61811,-3.2563 -7.95984,-8.08044 -12.9046,-14.35183 -4.94475,-6.2714 -10.49252,-13.99004 -14.11063,-19.77901 -3.61811,-5.78898 -5.30656,-9.6483 -7.83924,-16.40211 -2.53268,-6.75381 -5.90958,-16.4021 -7.71864,-22.79409 -1.80906,-6.392 -2.05026,-9.5277 -2.40601,-15.47992 -0.35575,-5.95222 -0.82605,-14.72097 -1.2976,-26.55602 -0.47154,-11.83506 -0.94353,-26.71062 4.72858,-40.92377 5.67212,-14.21315 17.4391,-27.65421 27.08155,-37.41295 9.64244,-9.75875 17.11987,-15.78893 21.4616,-19.04523 4.34174,-3.2563 5.54778,-3.73872 6.63321,-4.34174 1.08543,-0.60301 2.05026,-1.32664 3.49751,-2.17086 1.44724,-0.84423 3.3769,-1.80906 7.83924,-4.10053 4.46233,-2.29147 11.45735,-5.90958 15.43727,-7.83924 3.97992,-1.92966 4.94475,-2.17086 6.03019,-2.53268 1.08543,-0.36181 2.29147,-0.84423 7.95984,-2.89449 5.66838,-2.05026 15.79909,-5.66837 23.15591,-7.59803 7.35683,-1.92966 11.93977,-2.17086 16.68429,-2.15519 4.74453,0.0157 8.15268,0.20502 11.11117,0.33588 2.95849,0.13086 4.16452,0.13086 7.25053,0.58231 3.08601,0.45146 8.87447,1.5039 13.74856,2.21468 z"
         id="path1"
         inkscape:path-effect="#path-effect1"
         inkscape:original-d="m 408.84656,125.91027 c 4.58294,0.48241 9.16588,0.96483 13.74882,1.44724 5.34895,-0.58205 10.16608,1.3468 15.19607,2.89449 3.61811,0.72362 7.23622,1.44725 10.85433,2.17087 2.17087,0.96483 4.34174,1.92966 6.5126,2.89449 5.30657,2.17086 10.61313,4.34173 15.91969,6.5126 2.17087,1.68845 4.34174,3.3769 6.5126,5.06535 4.34174,2.89449 8.68347,5.78898 13.0252,8.68347 2.65328,1.92966 5.30657,3.85932 7.95985,5.78898 6.99501,5.06535 13.99003,10.13071 20.98504,15.19606 6.03019,13.50762 12.06037,27.01523 18.09056,40.52285 0.24121,1.44724 0.48241,2.89449 0.72362,4.34173 1.20604,5.06536 2.41207,10.13071 3.61811,15.19607 1.20604,4.34173 2.41208,8.68347 3.61811,13.0252 0.24121,5.78898 0.48242,11.57796 0.72363,17.36693 0.2412,1.20604 0.48241,2.41208 0.72362,3.61811 -0.24121,0.96483 -0.48242,1.92966 -0.72362,2.89449 -0.48242,3.85932 -0.96483,7.71864 -1.44725,11.57796 -1.20604,3.1357 -2.41207,6.27139 -3.61811,9.40709 -0.72362,2.17087 -1.44724,4.34173 -2.17087,6.5126 -2.65328,4.10052 -5.30656,8.20105 -7.95984,12.30158 -3.1357,4.82414 -6.27139,9.64829 -9.40709,14.47244 -9.16588,8.20105 -18.33176,16.40211 -27.49765,24.60316 -0.96483,0.96483 -1.92965,1.92966 -2.89448,2.89449 -10.61313,6.27139 -21.22626,12.54278 -31.83938,18.81417 -1.92966,0.48242 -3.85932,0.96483 -5.78898,1.44725 -1.20604,0.72362 -2.41207,1.44724 -3.61811,2.17087 -9.25283,2.21612 -18.01936,5.56476 -27.49765,6.5126 -1.68845,0.48241 -3.3769,0.96482 -5.06535,1.44724 -5.54777,0.72362 -11.09554,1.44724 -16.64331,2.17087 -4.10053,0.48241 -8.20106,0.96483 -12.30158,1.44724 -6.5126,0 -13.0252,0 -19.5378,0 -0.96483,0.24121 -1.92966,0.48242 -2.89449,0.72362 -5.30656,0 -10.61313,0 -15.91969,0 -7.23622,0.24121 -14.47244,0.48242 -21.70867,0.72363 -5.30656,-1.20604 -10.61312,-2.41208 -15.91969,-3.61812 -7.32231,-3.56027 -14.11309,-7.16026 -20.98504,-11.57795 -2.89449,-1.68845 -5.78898,-3.37691 -8.68347,-5.06536 -4.34173,-4.82415 -8.68346,-9.64829 -13.0252,-14.47244 -5.54777,-7.71864 -11.09554,-15.43728 -16.64331,-23.15591 -1.68845,-3.85932 -3.3769,-7.71864 -5.06535,-11.57796 -3.37691,-9.6483 -6.75381,-19.29659 -10.13072,-28.94489 -0.2412,-3.13569 -0.48241,-6.27139 -0.72362,-9.40709 -0.47029,-8.76874 -0.94058,-17.53749 -1.41088,-26.30624 -0.4728,-14.90136 -0.94479,-29.77692 -1.41841,-44.70406 11.81785,-13.49916 23.58483,-26.94022 35.39229,-40.42752 7.47743,-6.03019 14.95486,-12.06037 22.43229,-18.09056 1.20604,-0.48241 2.41208,-0.96483 3.61811,-1.44724 0.96483,-0.72362 1.92966,-1.44725 2.89449,-2.17087 1.92966,-0.96483 3.85932,-1.92966 5.78898,-2.89449 6.99501,-3.61811 13.99003,-7.23622 20.98504,-10.85433 0.96483,-0.24121 1.92966,-0.48242 2.89449,-0.72362 1.20604,-0.48242 2.41208,-0.96483 3.61811,-1.44725 10.13072,-3.61811 20.26143,-7.23622 30.39214,-10.85433 4.58294,-0.24121 9.16588,-0.48242 13.74882,-0.72362 5.00825,-1.56599 8.40961,-1.25449 13.0252,0.72362 1.20604,0 2.41207,0 3.61811,0 4.80308,1.79885 10.7326,2.07547 15.91969,2.89449 z"
         sodipodi:nodetypes="cccccccccccccccccccccccccccccccccccccccccccccccccccccccccc"
         inkscape:label="Base color (dark green)" />
      <path
         style="display:inline;fill:#3d9e46;fill-opacity:0.976471;stroke-width:0.8"
         d="m 527.29447,195.21218 c -2.06534,-4.23621 -1.91458,-3.66335 -1.74875,-2.59299 0.16583,1.07036 0.34673,2.63821 0.31658,4.14575 -0.0302,1.50755 -0.27135,2.9548 -0.87437,5.12566 -0.60302,2.17087 -1.56785,5.06536 -2.89449,8.20106 -1.32664,3.13569 -3.01509,6.51259 -6.7538,14.11063 -3.73872,7.59803 -9.5277,19.41719 -13.86943,27.49764 -4.34174,8.08045 -7.23622,12.42219 -9.7689,16.1609 -2.53267,3.73871 -4.70354,6.87441 -6.03019,8.68347 -1.32664,1.80905 -1.80905,2.29147 -2.17086,2.89448 -0.36182,0.60302 -0.60302,1.32665 -1.92966,3.49752 -1.32665,2.17086 -3.73872,5.78897 -5.90958,8.56286 -2.17087,2.77388 -4.10053,4.70354 -5.66838,6.5126 -1.56785,1.80905 -2.77388,3.49751 -3.73871,4.58294 -0.96483,1.08543 -1.68846,1.56785 -2.65329,2.65328 -0.96483,1.08543 -2.17086,2.77388 -3.97991,4.70354 -1.80906,1.92966 -4.22114,4.10053 -5.78899,5.66838 -1.56784,1.56785 -2.29147,2.53267 -3.73871,3.97992 -1.44725,1.44724 -3.61811,3.3769 -6.392,6.03018 -2.77388,2.65328 -6.15079,6.03019 -8.20105,7.95985 -2.05026,1.92966 -2.77389,2.41207 -3.3769,3.01509 -0.60302,0.60302 -1.08544,1.32664 -2.41208,2.53268 -1.32664,1.20604 -3.49751,2.89449 -5.18596,4.58294 -1.68845,1.68845 -2.89448,3.37691 -3.73871,4.34174 -0.84423,0.96483 -1.32664,1.20603 -3.2563,3.01509 -1.92966,1.80905 -5.30657,5.18596 -7.95985,8.08045 -2.65328,2.89448 -4.58294,5.30656 -6.392,7.59803 -1.80905,2.29147 -3.4975,4.46234 -5.66837,7.23622 -2.17087,2.77389 -4.82415,6.15079 -6.09049,8.63824 -1.26633,2.48745 -1.14762,4.06039 4.50247,4.13695 5.65009,0.0766 16.3083,-1.32507 28.2749,-4.00488 11.9666,-2.67982 24.72046,-6.56929 34.35367,-10.35323 9.63322,-3.78394 16.15938,-7.47001 21.74129,-10.86644 5.58191,-3.39643 7.81902,-4.89371 11.78521,-7.90566 3.96618,-3.01195 7.31292,-5.96673 11.80542,-10.11249 4.49249,-4.14576 10.13071,-9.48247 15.75386,-16.0403 5.62315,-6.55783 11.23121,-14.33676 14.77395,-19.76392 3.54274,-5.42717 5.01057,-8.48265 6.42166,-12.01798 1.4111,-3.53532 2.70982,-7.40196 3.734,-11.95977 1.02418,-4.55781 1.61616,-8.86312 1.6926,-15.11619 0.0764,-6.25306 -0.46628,-13.70034 -1.95876,-22.41396 -1.49247,-8.71362 -3.93468,-18.69353 -7.29652,-28.20618 -3.36184,-9.51266 -7.64326,-18.5579 -9.7086,-22.7941 z"
         id="path13"
         inkscape:path-effect="#path-effect13"
         inkscape:original-d="m 525.07838,190.4031 c 0.15076,0.57287 0.30151,1.14573 0.45226,1.7186 0.18091,1.56785 0.36181,3.1357 0.54272,4.70355 -0.2412,1.44724 -0.48241,2.89449 -0.72362,4.34173 -0.96483,2.89449 -1.92966,5.78898 -2.89449,8.68347 -1.68845,3.3769 -3.3769,6.7538 -5.06535,10.13071 -5.78898,11.81916 -11.57796,23.63832 -17.36694,35.45749 -2.89449,4.34173 -5.78898,8.68346 -8.68346,13.0252 -2.17087,3.13569 -4.34174,6.27139 -6.5126,9.40709 -0.48242,0.48241 -0.96483,0.96483 -1.44725,1.44724 -0.24121,0.72362 -0.48241,1.44725 -0.72362,2.17087 -2.41208,3.61811 -4.82415,7.23622 -7.23622,10.85433 -1.92966,1.92966 -3.85932,3.85932 -5.78898,5.78898 -1.20604,1.68845 -2.41208,3.3769 -3.61811,5.06536 -0.72362,0.48241 -1.44725,0.96482 -2.17087,1.44724 -1.20604,1.68845 -2.41207,3.3769 -3.61811,5.06536 -2.41207,2.17086 -4.82415,4.34173 -7.23622,6.5126 -0.72362,0.96483 -1.44725,1.92965 -2.17087,2.89448 -2.17087,1.92966 -4.34173,3.85932 -6.5126,5.78898 -3.3769,3.37691 -6.75381,6.75381 -10.13071,10.13071 -0.72362,0.48242 -1.44725,0.96483 -2.17087,1.44725 -0.48241,0.72362 -0.96483,1.44724 -1.44724,2.17086 -2.17087,1.68846 -4.34174,3.37691 -6.5126,5.06536 -1.20604,1.68845 -2.41208,3.3769 -3.61811,5.06536 -0.48242,0.2412 -0.96483,0.48241 -1.44725,0.72362 -3.3769,3.3769 -6.75381,6.75381 -10.13071,10.13071 -1.92966,2.41207 -3.85932,4.82415 -5.78898,7.23622 -1.68845,2.17087 -3.3769,4.34174 -5.06535,6.5126 -2.65328,3.37691 -5.30657,6.75381 -7.95985,10.13071 0.1206,1.598 0.23932,3.17094 0.36182,4.794 11.17768,-1.46994 21.83589,-2.87157 33.01526,-4.34173 12.75383,-3.88947 25.50769,-7.77894 38.26152,-11.66841 6.5126,-3.67841 13.03876,-7.36448 19.53781,-11.03524 4.66477,-3.1221 6.90188,-4.61938 11.48749,-7.68849 3.34676,-2.95479 6.6935,-5.90957 10.04026,-8.86436 5.63823,-5.33673 11.27645,-10.67344 16.91467,-16.01015 5.60808,-7.77895 11.21614,-15.55788 16.82422,-23.33682 1.4774,-3.07539 2.94523,-6.13087 4.43219,-9.22618 1.33523,-3.97534 2.63395,-7.84198 3.97992,-11.84931 0.70239,-5.10829 1.29437,-9.4136 1.98996,-14.47245 -0.54272,-7.44728 -1.08543,-14.89456 -1.62815,-22.34184 -2.44223,-9.97996 -4.88444,-19.95987 -7.32668,-29.93987 -4.28144,-9.04531 -8.56285,-18.09055 -12.84429,-27.13583 z"
         sodipodi:nodetypes="ccccccccccccccccccccccccccccccccccccccccccc" />
      <path
         style="display:inline;fill:#78d764;fill-opacity:1;stroke-width:0.8"
         d="m 243.74009,204.42328 c -0.48241,1.08544 -1.44724,3.2563 -2.29147,5.66838 -0.84422,2.41207 -1.56785,5.06535 -2.06534,6.85179 -0.49749,1.78644 -0.76885,2.70604 -0.88945,3.42967 -0.12059,0.72363 -0.0904,1.25127 -0.0603,1.77891 1.68845,0 3.37689,0 4.58293,0.36181 1.20604,0.36181 1.92966,1.08543 6.45232,1.92965 4.52265,0.84423 12.84429,1.80906 18.45236,3.37691 5.60806,1.56785 8.50255,3.73871 11.15583,6.03019 2.65329,2.29147 5.06536,4.70354 6.5126,6.03018 1.44725,1.32664 1.92966,1.56785 2.53268,2.17087 0.60303,0.60302 1.32665,1.56784 2.41208,2.77388 1.08543,1.20604 2.53267,2.65328 3.87439,3.73871 1.34172,1.08544 2.30592,1.64985 3.48303,2.23841 1.17711,0.58855 1.61882,0.74219 2.25635,1.00065 0.63754,0.25845 1.11996,0.49966 1.79338,0.7858 0.67343,0.28613 1.12474,0.45897 2.77898,0.45897 1.65425,0 3.52753,-0.23254 5.94714,-0.36822 2.41962,-0.13568 5.0729,-0.13568 7.96739,-0.6181 2.89449,-0.48241 6.03018,-1.44724 8.32166,-2.05026 2.29147,-0.60302 3.73871,-0.84422 5.18595,-1.32664 1.44725,-0.48241 2.89449,-1.20604 4.4665,-1.93144 1.57201,-0.72541 3.12663,-1.39167 4.7036,-2.01785 1.57697,-0.62617 2.54673,-0.96988 3.95378,-1.60944 1.40704,-0.63957 2.78073,-1.37598 4.11492,-1.88855 1.33418,-0.51257 2.38414,-0.72256 3.61004,-0.99498 1.2259,-0.27242 2.70153,-0.64133 3.6425,-0.68247 0.94097,-0.0412 2.32563,-0.0412 3.7959,-0.0412 1.47027,0 2.45163,0 3.60491,-0.24121 1.15327,-0.24121 2.35931,-0.72363 2.96232,-1.32664 0.60302,-0.60302 0.60302,-1.32664 0.60302,-2.18594 0,-0.8593 0,-1.47969 -0.16601,-2.30973 -0.16601,-0.83005 -0.21949,-0.87685 -1.71519,-1.62779 -1.4957,-0.75095 -4.14898,-1.95698 -5.83744,-2.56 -1.68845,-0.60302 -2.41207,-0.60302 -3.97992,-0.96483 -1.56784,-0.36181 -3.97992,-1.08544 -8.08045,-2.41208 -4.10052,-1.32664 -9.8895,-3.2563 -13.86942,-4.22113 -3.97992,-0.96483 -6.15079,-0.96483 -8.26115,-1.07871 -2.11035,-0.11388 -4.40045,-0.36833 -6.75312,-0.71517 -2.35266,-0.34684 -2.80346,-0.42734 -6.31931,-1.08656 -3.51586,-0.65922 -1.09871,-0.16481 -4.1741,-1.05426 -3.0754,-0.88945 -5.24626,-1.85428 -7.01017,-2.60808 -1.7639,-0.7538 -2.74594,-1.14662 -3.98852,-1.76426 -1.24259,-0.61763 -2.44863,-1.34126 -4.7401,-2.42669 -2.29147,-1.08543 -5.66837,-2.53268 -8.44226,-3.61811 -2.77388,-1.08543 -4.94475,-1.80906 -7.17282,-2.62792 -2.22807,-0.81887 -4.72751,-1.81865 -6.07387,-2.30895 -1.34635,-0.4903 -1.58756,-0.4903 -5.86905,-0.24909 -4.28149,0.24121 -12.60302,0.72362 -16.76385,0.96483 -4.16083,0.24121 -4.16087,0.24121 -4.64329,1.32664 z"
         id="path2"
         inkscape:path-effect="#path-effect2"
         inkscape:original-d="m 244.22251,203.33785 c -0.96483,2.17087 -1.92966,4.34173 -2.89449,6.5126 -0.72363,2.65328 -1.44725,5.30656 -2.17087,7.95984 -0.27136,0.9196 -0.54272,1.8392 -0.81408,2.75881 0.0301,0.52765 0.0905,1.58293 0.0905,1.58293 0,0 3.37689,0 5.06535,0 0.72362,0.72362 1.44724,1.44724 2.17087,2.17086 8.32168,0.96483 16.64332,1.92966 24.96496,2.89449 2.89449,2.17087 5.78898,4.34173 8.68347,6.5126 2.41208,2.41208 4.82415,4.82415 7.23622,7.23622 0.48242,0.24121 0.96483,0.48242 1.44725,0.72363 0.72363,0.96483 1.44725,1.92965 2.17087,2.89448 1.44724,1.44725 2.89448,2.89449 4.34173,4.34174 1.23619,0.72362 2.20039,1.28803 3.70856,2.17086 0.84605,0.29428 1.28776,0.44792 2.08042,0.72363 0.48241,0.2412 0.96483,0.48241 1.44724,0.72362 0.86444,0.33106 1.31575,0.5039 2.12564,0.81407 2.4986,-0.31017 4.37188,-0.54271 6.55783,-0.81407 2.65328,0 5.30656,0 7.95984,0 3.1357,-0.96483 6.27139,-1.92966 9.40709,-2.89449 1.44725,-0.24121 2.89449,-0.48241 4.34173,-0.72362 1.44725,-0.72362 2.89449,-1.44725 4.34174,-2.17087 1.27335,-1.71518 3.08772,-1.77534 5.06535,-2.17087 1.33998,-0.47493 2.30974,-0.81864 3.57288,-1.26633 1.55095,-0.83144 2.92464,-1.56785 4.38697,-2.35178 1.20604,-0.24121 2.256,-0.4512 3.61811,-0.72362 1.11237,-0.18168 2.89449,0.67534 2.89449,-0.72362 1.55277,0 2.93743,0 4.65831,0 1.21966,0 2.20102,0 3.30153,0 1.20604,-0.48242 2.41208,-0.96483 3.61811,-1.44725 0,-0.72362 0,-1.44724 0,-2.17086 0,-0.99498 0,-1.61537 0,-2.98494 -0.33202,-0.29052 -0.3855,-0.33732 -0.72362,-0.63317 -2.65328,-1.20604 -5.30656,-2.41208 -7.95984,-3.61811 -0.72363,0 -1.44725,0 -2.17087,0 -2.41207,-0.72363 -4.82415,-1.44725 -7.23622,-2.17087 -5.78898,-1.92966 -11.57796,-3.85932 -17.36694,-5.78898 -2.17086,0 -4.34173,0 -6.5126,0 -1.94561,-1.16587 -4.31312,-0.72362 -6.5126,-0.72362 -2.53267,-0.45226 -2.98347,-0.53276 -7.59803,-1.3568 -2.41715,-0.49441 0,0 -3.97992,-0.81407 -2.17087,-0.96483 -4.34173,-1.92966 -6.5126,-2.89449 -1.18483,-0.97305 -2.13432,-1.44724 -3.61811,-1.44724 -1.20604,-0.72362 -2.41208,-1.44725 -3.61811,-2.17087 -3.37691,-1.44724 -6.75381,-2.89449 -10.13072,-4.34173 -2.17086,-0.72362 -4.34173,-1.44725 -6.5126,-2.17087 -2.76684,0.28982 -4.92154,-1.57182 -7.23622,-2.89449 -0.2412,0 -0.48241,0 -0.72362,0 -8.32177,0.48242 -16.6433,0.96483 -24.96496,1.44725 z"
         sodipodi:nodetypes="ccccccccccccccccccccccccccccccscccccccccccccccccc" />
      <path
         style="display:inline;fill:#78d764;fill-opacity:1;stroke-width:0.8"
         d="m 258.19934,186.30032 c -4.44914,5.94198 -3.24311,5.70078 -2.39888,5.45957 0.84422,-0.24121 1.32664,-0.48241 5.59107,-0.49986 4.26443,-0.0174 17.21251,0.31456 22.03192,0.40721 4.81941,0.0927 7.23148,0.0927 9.16114,-0.14856 1.92966,-0.2412 3.3769,-0.72362 5.30656,-0.96482 1.92966,-0.24121 4.34174,-0.24121 7.21323,-0.35224 2.8715,-0.11103 6.86885,-0.37753 8.99369,-0.61567 2.12485,-0.23814 2.84847,-0.47934 4.77813,-0.11753 1.92966,0.36181 5.06535,1.32664 7.47743,2.41207 2.41207,1.08544 4.10052,2.29148 5.18595,3.2563 1.08544,0.96483 1.56785,1.68846 2.65061,2.78662 1.08275,1.09816 3.31503,3.05141 7.02572,4.59473 3.71069,1.54333 9.25846,2.99057 13.60019,4.07601 4.34173,1.08543 7.47743,1.80906 9.6483,1.80906 2.17086,0 3.3769,-0.72363 4.22113,-1.08544 0.84422,-0.36181 1.32664,-0.36181 1.92966,-0.60302 0.60302,-0.24121 1.32664,-0.72362 2.41207,-1.20604 1.08543,-0.48241 2.53268,-0.96483 3.37691,-1.44724 0.84422,-0.48242 1.08543,-0.96483 1.32663,-1.20604 0.24121,-0.24121 0.48242,-0.24121 0.24121,-1.44724 -0.2412,-1.20604 -0.96483,-3.61811 -1.56784,-4.94475 -0.60302,-1.32664 -1.08544,-1.56785 -1.92966,-2.29148 -0.84423,-0.72362 -2.05027,-1.92966 -3.37691,-3.2563 -1.32664,-1.32664 -2.77388,-2.77388 -3.61811,-3.73871 -0.84423,-0.96483 -1.08543,-1.44724 -2.41207,-2.53267 -1.32664,-1.08544 -3.73872,-2.77389 -5.90959,-4.46234 -2.17086,-1.68846 -4.10052,-3.37691 -6.27139,-4.70355 -2.17086,-1.32664 -4.58294,-2.29147 -6.6332,-2.65328 -2.05026,-0.36181 -3.73872,-0.12061 -5.90959,0 -2.17086,0.1206 -4.82414,0.1206 -8.56286,0.60301 -3.73871,0.48242 -8.56286,1.44725 -11.93977,1.92966 -3.3769,0.48242 -5.30656,0.48242 -7.35682,0.72363 -2.05026,0.24121 -4.22113,0.72362 -6.03019,1.08544 -1.80906,0.36181 -3.25628,0.60301 -4.70354,0.84422 -1.44726,0.24121 -2.89449,0.48241 -7.35682,0.24121 -4.46234,-0.24121 -11.93977,-0.96484 -17.00512,-1.56785 -5.06536,-0.60302 -7.71864,-1.08544 -14.24765,4.9162 -6.52901,6.00163 -0.4924,-1.2423 -4.94154,4.69969 z"
         id="path3"
         inkscape:path-effect="#path-effect3"
         inkscape:original-d="m 252.54416,192.48351 c 1.20604,-0.2412 2.41207,-0.48241 3.61811,-0.72362 0.48241,-0.24121 0.96483,-0.48241 1.44724,-0.72362 8.00779,1.71415 21.08132,-2.84637 28.22127,0.72362 2.41208,0 4.82415,0 7.23622,0 1.44725,-0.48241 2.89449,-0.96483 4.34174,-1.44724 2.41207,0 4.82415,0 7.23622,0 3.2488,-1.4538 7.3126,-0.72363 10.85433,-0.72363 0.72363,-0.2412 1.44725,-0.48241 2.17087,-0.72362 3.1357,0.96483 6.27139,1.92966 9.40709,2.89449 1.68845,1.20604 3.3769,2.41208 5.06535,3.61811 0.48242,0.72362 0.96483,1.44725 1.44725,2.17087 1.70892,1.44318 3.89864,3.44507 5.78898,5.06535 5.54777,1.44725 11.09554,2.89449 16.64331,4.34174 3.13569,0.72362 6.27139,1.44724 9.40709,2.17087 1.20603,-0.72363 2.41207,-1.44725 3.61811,-2.17087 0.48241,0 0.96483,0 1.44724,0 0.72363,-0.48242 1.44725,-0.96483 2.17087,-1.44725 1.44724,-0.48241 2.89449,-0.96483 4.34173,-1.44724 0.24121,-0.48242 0.48242,-0.96483 0.72363,-1.44725 0.2412,0 0.48241,0 0.72362,0 -0.72362,-2.41207 -1.44725,-4.82414 -2.17087,-7.23622 -0.48241,-0.2412 -0.96483,-0.48241 -1.44724,-0.72362 -1.20604,-1.20604 -2.41208,-2.41207 -3.61811,-3.61811 -1.44725,-1.44725 -2.89449,-2.89449 -4.34174,-4.34173 -0.24121,-0.48242 -0.48241,-0.96483 -0.72362,-1.44725 -2.41207,-1.68845 -4.82415,-3.3769 -7.23622,-5.06535 -1.92966,-1.68846 -3.85932,-3.37691 -5.78898,-5.06536 -2.41207,-0.96483 -4.82415,-1.92966 -7.23622,-2.89449 -1.68845,0.24121 -3.37691,0.48242 -5.06536,0.72362 -2.65328,0 -5.30656,0 -7.95984,0 -4.82415,0.96483 -9.6483,1.92966 -14.47245,2.89449 -1.92966,0 -3.85932,0 -5.78898,0 -2.17086,0.48242 -4.34173,0.96483 -6.5126,1.44725 -1.44725,0.24121 -2.89447,0.48241 -4.34173,0.72362 -1.44726,0.24121 -2.89449,0.48241 -4.34173,0.72362 -7.47743,-0.72362 -14.95486,-1.44724 -22.43229,-2.17087 -2.65328,-0.48241 -5.30656,-0.96483 -7.95985,-1.44724 -9.98385,12.83641 -4.61062,5.03967 -14.47244,17.36693 z"
         sodipodi:nodetypes="cccccccccccccccccccccccsccccccccccccccc" />
      <path
         style="display:inline;fill:#78d764;fill-opacity:1;stroke-width:0.8"
         d="m 307.53945,157.02602 c 2.65328,0.72362 5.30656,1.44725 8.08045,1.80906 2.77388,0.36181 5.66837,0.36181 9.76889,0.72362 4.10053,0.36181 9.4071,1.08544 14.59306,1.08544 5.18595,0 10.25131,-0.72363 13.38701,-1.08544 3.13569,-0.36181 4.34173,-0.36181 6.5126,-0.48241 2.17086,-0.12061 5.30656,-0.36181 7.33501,-0.36727 2.02846,-0.005 2.93877,0.22213 4.25187,0.68998 1.3131,0.46785 3.15626,1.25777 4.82996,2.09568 1.67371,0.83791 3.36216,1.80274 6.01544,2.88817 2.65329,1.08544 6.2714,2.29147 8.92468,3.01509 2.65328,0.72363 4.34173,0.96483 6.15078,1.44725 1.80906,0.48241 3.73872,1.20603 5.56729,1.81463 1.82858,0.6086 3.38429,1.05308 5.3608,1.66949 1.97652,0.6164 4.14738,1.34003 5.95644,2.06365 1.80905,0.72362 3.2563,1.44724 4.82414,1.92966 1.56785,0.48241 3.25631,0.72362 4.70355,0.96483 1.44725,0.24121 2.65328,0.48241 1.68845,-1.20604 -0.96483,-1.68845 -4.10052,-5.30656 -6.99501,-7.95984 -2.89449,-2.65329 -5.54777,-4.34174 -7.95985,-5.66838 -2.41207,-1.32664 -4.58294,-2.29147 -6.39199,-3.2563 -1.80906,-0.96483 -3.2563,-1.92966 -6.75381,-3.73871 -3.49751,-1.80906 -9.04528,-4.46234 -13.0252,-6.5126 -3.97992,-2.05027 -6.392,-3.49751 -8.80407,-4.70355 -2.41208,-1.20604 -4.82415,-2.17087 -7.71864,-3.3769 -2.89449,-1.20604 -6.27139,-2.65328 -8.82358,-3.62369 -2.5522,-0.9704 -4.10791,-1.41489 -6.20502,-2.0313 -2.09712,-0.6164 -4.5092,-1.34003 -8.60973,-1.21942 -4.10052,0.1206 -9.8895,1.08543 -15.82459,2.81775 -5.93508,1.73232 -8.52948,2.7988 -14.41698,5.52716 -5.88751,2.72835 -10.0108,4.84227 -12.79932,6.26882 -2.78851,1.42656 -3.27093,1.66777 -3.87395,2.02958 -0.60301,0.36181 -1.32664,0.84422 -2.05026,1.32664"
         id="path4"
         inkscape:path-effect="#path-effect4"
         inkscape:original-d="m 307.53945,157.02602 c 0,0 5.30656,1.44725 7.95984,2.17087 2.89449,0 5.78898,0 8.68347,0 5.30656,0.72362 10.61313,1.44725 15.91969,2.17087 5.06535,-0.72362 10.13071,-1.44725 15.19607,-2.17087 1.20603,0 2.41207,0 3.61811,0 3.13569,-0.24121 6.27139,-0.48241 9.40709,-0.72362 0.73263,0.98461 1.76509,0.72362 2.89449,0.72362 1.28529,1.31849 3.34714,1.59813 5.06535,2.17087 1.68845,0.96483 3.3769,1.92966 5.06536,2.89449 3.61811,1.20603 7.23622,2.41207 10.85433,3.61811 1.68845,0.24121 3.3769,0.48241 5.06536,0.72362 1.92965,0.72362 3.85931,1.44724 5.78897,2.17087 1.94925,-0.2826 3.37867,0.6039 5.06536,1.44724 2.17087,0.72362 4.34173,1.44725 6.5126,2.17087 1.44724,0.72362 2.89449,1.44724 4.34173,2.17086 1.68845,0.24121 3.37691,0.48242 5.06536,0.72363 1.20604,0.2412 2.41207,0.48241 3.61811,0.72362 -3.1357,-3.61811 -6.27139,-7.23622 -9.40709,-10.85433 -2.65328,-1.68846 -5.30656,-3.37691 -7.95984,-5.06536 -2.17087,-0.96483 -4.34174,-1.92966 -6.5126,-2.89449 -1.44725,-0.96483 -2.89449,-1.92966 -4.34174,-2.89449 -5.54777,-2.65328 -11.09554,-5.30656 -16.64331,-7.95984 -2.41207,-1.44725 -4.82415,-2.89449 -7.23622,-4.34174 -2.41208,-0.96483 -4.82415,-1.92966 -7.23622,-2.89448 -3.37691,-1.44725 -6.75381,-2.89449 -10.13072,-4.34174 -1.94924,0.2826 -3.37866,-0.6039 -5.06535,-1.44724 -2.41207,-0.72362 -4.82415,-1.44725 -7.23622,-2.17087 -5.78898,0.96483 -11.57796,1.92966 -17.36694,2.89449 -6.08119,2.49981 -8.67559,3.56629 -14.38466,5.91313 -6.06594,3.10987 -10.18923,5.22379 -15.28385,7.83569 -0.48241,0.24121 -0.96483,0.48242 -1.44724,0.72362 -0.72362,0.48242 -2.17087,1.44725 -2.17087,1.44725"
         sodipodi:nodetypes="ccccccccccccccccccccccccccccccccc" />
      <path
         style="display:inline;fill:#78d764;fill-opacity:1;stroke-width:0.8"
         d="m 466.05795,142.96062 c -0.0452,2.48745 0.67839,7.5528 1.76382,11.53273 1.08544,3.97992 2.53268,6.87441 3.49751,9.40708 0.96483,2.53268 1.44725,4.70355 2.41207,5.90959 0.96483,1.20604 2.41208,1.44724 3.97992,1.68845 1.56785,0.24121 3.25631,0.48241 5.30657,0.60302 2.05026,0.1206 4.46234,0.1206 6.63321,0.1206 2.17086,0 4.10052,0 5.73973,0 1.63921,0 2.45186,0 3.30081,-1.20604 0.84896,-1.20603 1.09016,-3.61811 1.15047,-5.30656 0.0603,-1.68845 -0.0603,-2.65328 -5.44226,-6.70859 -5.38196,-4.05531 -16.02519,-11.20105 -21.75388,-14.81917 -5.72869,-3.61811 -6.54275,-3.70857 -6.58797,-1.22111 z"
         id="path5"
         inkscape:path-effect="#path-effect5"
         inkscape:original-d="m 465.2891,140.38271 c 0.72362,5.06536 1.44724,10.13071 2.17086,15.19607 1.44725,2.89449 2.89449,5.78898 4.34174,8.68347 0.48241,2.17086 0.96482,4.34173 1.44724,6.5126 1.44724,0.2412 2.89449,0.48241 4.34173,0.72362 1.68845,0.24121 3.37691,0.48241 5.06536,0.72362 2.41207,0 4.82415,0 7.23622,0 1.92966,0 3.85932,0 5.78898,0 1.34876,1.04605 2.16141,0.21136 3.61811,0 0.24121,-2.41207 0.48241,-4.82415 0.72362,-7.23622 -0.1206,-0.96483 -0.24121,-1.92966 -0.36181,-2.89449 -10.64331,-7.14579 -21.28654,-14.29153 -31.92983,-21.43731 -0.81408,-0.0905 -1.62815,-0.18091 -2.44222,-0.27136 z"
         sodipodi:nodetypes="ccccccscccccc" />
      <path
         style="display:inline;fill:#78d764;fill-opacity:1;stroke-width:0.8"
         d="m 462.87702,217.68969 c 0.96483,-0.36181 0.96483,-1.56785 0.96483,-1.56785 0,0 0,1.20604 0.24121,0.72362 0.24121,-0.48241 0.72362,-2.65328 1.59266,-4.74324 0.86904,-2.08996 2.00575,-3.90869 3.82466,-5.97472 1.8189,-2.06603 4.23098,-4.23689 6.04003,-5.80474 1.80906,-1.56785 3.01509,-2.53268 3.85932,-3.01509 0.84422,-0.48242 1.32664,-0.48242 5.06533,0.84421 3.73869,1.32663 10.73375,3.97993 16.04032,7.59804 5.30656,3.61811 8.92467,8.20105 11.21614,11.45735 2.29147,3.2563 3.2563,5.18596 3.97992,6.87442 0.72363,1.68845 1.20604,3.13569 1.68846,4.10052 0.48241,0.96483 0.96483,1.44725 1.32664,2.77389 0.36181,1.32664 0.60301,3.4975 1.08543,6.6332 0.48241,3.1357 1.20604,7.23622 0.1206,10.73373 -1.08543,3.49751 -3.97992,6.392 -5.90958,8.08045 -1.92966,1.68845 -2.89449,2.17086 -4.22113,2.77388 -1.32664,0.60302 -3.01509,1.32665 -7.35682,1.20604 -4.34174,-0.1206 -11.33675,-1.08543 -17.50548,-2.66776 -6.16872,-1.58233 -8.41812,-2.50855 -12.70265,-4.44304 -4.28453,-1.93448 -8.14385,-3.86414 -10.55592,-5.9144 -2.41208,-2.05026 -3.37691,-4.22113 -4.22114,-6.27139 -0.84422,-2.05027 -1.56785,-3.97993 -1.44724,-7.95985 0.1206,-3.97992 1.08543,-10.01011 2.53268,-12.78399 1.44724,-2.77389 3.3769,-2.29147 4.34173,-2.65328 z"
         id="path6"
         inkscape:path-effect="#path-effect6"
         inkscape:original-d="m 463.84185,218.53391 c 0,-1.20603 0,-2.41207 0,-3.61811 0,1.20604 0,2.41208 0,3.61811 0.48242,-2.17086 0.96483,-4.34173 1.44725,-6.5126 1.64626,-1.76492 2.86575,-3.53192 3.61811,-5.78897 2.41207,-2.17087 4.82414,-4.34174 7.23622,-6.5126 1.20604,-0.96483 2.41207,-1.92966 3.61811,-2.89449 0.48241,0 0.96483,0 1.44724,0 6.99497,2.65326 13.99003,5.30656 20.98505,7.95984 3.61811,4.58294 7.23622,9.16588 10.85433,13.74882 0.96483,1.92966 1.92966,3.85932 2.89449,5.78898 0.48242,1.44725 0.96483,2.89449 1.44725,4.34174 0.48241,0.48241 0.96483,0.96482 1.44724,1.44724 0.24121,2.17087 0.48242,4.34173 0.72362,6.5126 0.72362,4.10053 1.44725,8.20105 2.17087,12.30158 -2.89449,2.89449 -5.78898,5.78898 -8.68347,8.68346 -0.96483,0.48242 -1.92966,0.96483 -2.89449,1.44725 -1.68845,0.72362 -3.3769,1.44724 -5.06535,2.17087 -6.99502,-0.96483 -13.99003,-1.92966 -20.98505,-2.89449 -4.90245,-3.26835 -7.73375,-2.7814 -12.30157,-5.06536 -3.85932,-1.92966 -7.71864,-3.85932 -11.57796,-5.78898 -0.96483,-2.17086 -1.92966,-4.34173 -2.89449,-6.5126 -0.72362,-1.92966 -1.44724,-3.85932 -2.17087,-5.78897 0.96483,-6.03019 1.92966,-12.06038 2.89449,-18.09056 1.92966,0.48241 3.85932,0.96483 5.78898,1.44724 z"
         sodipodi:nodetypes="cccccccccccccccccccsccccc" />
      <path
         style="display:inline;fill:#63c451;fill-opacity:0.984314;stroke-width:0.8"
         d="m 543.38214,245.19578 c -1.02728,-3.86776 -1.9318,-3.68686 -3.4695,-1.54614 -1.5377,2.14071 -3.70857,6.24124 -4.67339,8.53271 -0.96483,2.29147 -0.72363,2.77388 -0.48242,4.22112 0.24121,1.44725 0.48241,3.85933 0.96483,5.30657 0.48241,1.44724 1.20604,1.92966 3.15077,2.80403 1.94473,0.87438 5.11058,2.14072 6.62027,2.26977 1.50969,0.12905 1.36323,-0.87918 0.71498,-5.34152 -0.64824,-4.46234 -1.79827,-12.37878 -2.82554,-16.24654 z"
         id="path7"
         inkscape:path-effect="#path-effect7"
         inkscape:original-d="m 543.25939,241.14711 c -0.90453,0.18091 -1.80905,0.36181 -2.71358,0.54272 -2.17087,4.10052 -4.34174,8.20105 -6.5126,12.30157 0.2412,0.48242 0.48241,0.96483 0.72362,1.44725 0.24121,2.41207 0.48241,4.82415 0.72362,7.23622 0.72362,0.48242 1.44725,0.96483 2.17087,1.44724 3.16584,1.26634 6.33169,2.53268 9.49754,3.79902 -0.14646,-1.00824 -0.29293,-2.01647 -0.4394,-3.0247 -1.15002,-7.91645 -2.30005,-15.83289 -3.45007,-23.74932 z"
         sodipodi:nodetypes="ccccccccc" />
      <path
         style="display:inline;fill:#61c254;fill-opacity:0.984314;stroke-width:0.8"
         d="m 533.37646,309.70175 c 1.78962,-3.5389 0.49956,-3.93603 -1.59271,-4.014 -2.09228,-0.078 -4.98677,0.16324 -8.12246,1.24868 -3.1357,1.08543 -6.5126,3.01509 -8.92468,4.82414 -2.41207,1.80906 -3.85932,3.49752 -5.42716,5.18597 -1.56785,1.68845 -3.2563,3.3769 -4.58294,5.66837 -1.32664,2.29147 -2.29147,5.18596 -2.41208,7.95984 -0.1206,2.77389 0.60302,5.42717 1.32727,7.20822 0.72425,1.78105 1.44912,2.68985 4.48367,0.68096 3.03455,-2.00889 8.37871,-6.93544 12.83567,-11.84756 4.45697,-4.91212 10.6258,-13.37573 12.41542,-16.91462 z"
         id="path8"
         inkscape:path-effect="#path-effect8"
         inkscape:original-d="m 536.45615,306.55999 c -1.29007,-0.39714 -2.58013,-0.79427 -3.87019,-1.19141 -2.89449,0.24121 -5.78898,0.48242 -8.68346,0.72362 -3.37691,1.92966 -6.75381,3.85932 -10.13072,5.78898 -1.44724,1.68845 -2.89448,3.37691 -4.34173,5.06536 -1.68845,1.68845 -3.3769,3.3769 -5.06535,5.06535 -0.96483,2.89449 -1.92966,5.78898 -2.89449,8.68347 0.72362,2.65328 1.44724,5.30656 2.17086,7.95984 0.72488,0.90882 1.44975,1.81762 2.17463,2.72645 5.34422,-4.92661 10.68838,-9.85316 16.03255,-14.77972 3.56976,-4.89768 9.73859,-13.36129 14.6079,-20.04194 z"
         sodipodi:nodetypes="ccccccccccc" />
      <path
         style="display:inline;fill:#64c655;fill-opacity:0.976471;stroke-width:0.8"
         d="m 461.54551,364.99927 c -0.39347,-0.3678 -3.25143,-0.77608 -7.47256,-0.29367 -4.22113,0.48242 -10.97494,1.68845 -17.48754,3.61812 -6.5126,1.92966 -12.78399,4.58294 -16.5227,6.99501 -3.73872,2.41208 -4.94475,4.58294 -5.06536,6.15079 -0.1206,1.56785 0.84423,2.53268 2.53268,2.89449 1.68845,0.36181 4.10052,0.12061 11.82419,-2.0789 7.72368,-2.19951 19.79875,-6.05105 27.00018,-8.39184 7.20143,-2.34078 7.02723,-2.2478 6.43991,-5.05627 -0.58733,-2.80847 -0.85533,-3.46993 -1.2488,-3.83773 z"
         id="path9"
         inkscape:path-effect="#path-effect9"
         inkscape:original-d="m 461.67098,364.7056 c -0.51894,-0.0741 -3.3769,-0.48241 -5.06535,-0.72362 -6.75381,1.20604 -13.50762,2.41208 -20.26142,3.61811 -6.2714,2.65329 -12.54279,5.30657 -18.81418,7.95985 -1.20604,2.17087 -2.41208,4.34173 -3.61811,6.5126 0.96483,0.96483 1.92966,1.92966 2.89449,2.89449 2.41207,-0.24121 4.82414,-0.48242 7.23622,-0.72362 13.03527,-4.15781 25.11034,-8.00935 39.10569,-12.4734 0.40751,-0.21752 0.23331,-0.12453 1.13865,-0.60779 -2.07999,-5.13369 -2.34799,-5.79515 -2.61599,-6.45662 z"
         sodipodi:nodetypes="cccccccccc" />
      <path
         style="display:inline;fill:#78d764;fill-opacity:1;stroke-width:0.8"
         d="m 271.72015,349.99195 c 1.32664,0 2.29147,-0.2412 2.29147,-0.2412 0,0 -0.96483,0.2412 0,0 0.96483,-0.24121 3.85932,-0.96484 5.78898,-1.32665 1.92966,-0.36181 2.89449,-0.36181 5.18596,-1.20604 2.29147,-0.84422 5.90958,-2.53267 9.64829,-3.85931 3.73872,-1.32664 7.59804,-2.29147 11.45735,-3.2563 3.85932,-0.96483 7.71864,-1.92966 10.25132,-2.77389 2.53268,-0.84422 3.73871,-1.56784 7.71863,-3.13569 3.97993,-1.56785 10.73374,-3.97993 15.79909,-5.54778 5.06536,-1.56784 8.44226,-2.29147 10.49252,-2.89449 2.05027,-0.60302 2.77389,-1.08543 4.58295,-1.92965 1.80905,-0.84423 4.70354,-2.05026 7.23621,-3.49751 2.53268,-1.44724 4.70355,-3.13569 7.73714,-5.46969 3.0336,-2.334 7.24672,-5.5558 9.584,-7.76169 2.33727,-2.20589 2.81969,-3.41193 3.78451,-5.7034 0.96483,-2.29147 2.41207,-5.66837 3.0151,-7.59803 0.60302,-1.92966 0.36181,-2.41208 -0.48242,-2.05027 -0.84422,0.36181 -2.29147,1.56785 -5.90958,3.97993 -3.61811,2.41207 -9.40709,6.03018 -13.86943,7.95984 -4.46233,1.92966 -7.59803,2.17086 -10.04163,2.54168 -2.44361,0.37082 -4.06391,0.83377 -5.39309,1.43752 -1.32919,0.60374 -2.29402,1.32736 -4.34428,1.80978 -2.05026,0.48242 -5.18596,0.72362 -7.73968,0.84423 -2.55373,0.1206 -4.91054,0.1206 -7.5704,0.2412 -2.65987,0.12061 -5.79557,0.36181 -7.84583,0.48242 -2.05027,0.1206 -3.0151,0.1206 -4.58294,0.48241 -1.56785,0.36181 -3.73872,1.08543 -5.30657,1.80906 -1.56785,0.72362 -2.53268,1.44724 -3.4975,1.92966 -0.96483,0.48241 -1.92966,0.72362 -2.65328,1.08543 -0.72363,0.36181 -1.20604,0.84423 -2.29148,0.60302 -1.08543,-0.24121 -2.77388,-1.20604 -3.97992,-1.56785 -1.20604,-0.36181 -1.92966,-0.12061 -4.70355,-0.12061 -2.77388,0 -7.59803,-0.2412 -12.06036,-2.89448 -4.46234,-2.65328 -8.56287,-7.71864 -10.85434,-10.85434 -2.29146,-3.13569 -2.77388,-4.34173 -3.61811,-5.30656 -0.84422,-0.96483 -2.05026,-1.68845 -3.2563,-2.41207 -1.20604,-0.72363 -2.41207,-1.44725 -5.90958,-1.32664 -3.49751,0.1206 -9.28649,1.08543 -12.42218,1.56785 -3.1357,0.48241 -3.61811,0.48241 -4.10053,2.41207 -0.48241,1.92966 -0.92671,5.484 0.40905,11.46274 1.33575,5.97874 -0.52936,1.42518 3.42749,11.08561 3.95686,9.66042 4.34479,10.60753 6.83522,14.54496 2.49043,3.93743 0.57866,1.06309 5.98869,8.69861 5.41003,7.63552 5.95274,7.45461 7.06833,7.48477 1.11559,0.0301 2.80404,0.27135 4.13068,0.27135 z"
         id="path10"
         inkscape:path-effect="#path-effect10"
         inkscape:original-d="m 272.08196,350.23316 c 0.96483,-0.24121 1.92966,-0.48241 2.89449,-0.72362 -0.96483,0.24121 -1.92966,0.48241 -2.89449,0.72362 2.89449,-0.72362 5.78898,-1.44724 8.68347,-2.17087 0.96483,0 1.92966,0 2.89448,0 3.61812,-1.68845 7.23623,-3.3769 10.85434,-5.06535 3.85932,-0.96483 7.71864,-1.92966 11.57795,-2.89449 3.85932,-0.96483 7.71864,-1.92966 11.57796,-2.89449 1.20604,-0.72362 2.41207,-1.44724 3.61811,-2.17087 6.75381,-2.41207 13.50762,-4.82414 20.26142,-7.23622 3.37691,-0.72362 6.75381,-1.44724 10.13071,-2.17087 0.72363,-0.48241 1.44725,-0.96483 2.17087,-1.44724 2.89449,-1.20604 5.78898,-2.41207 8.68347,-3.61811 2.17086,-1.68845 4.34173,-3.3769 6.5126,-5.06536 5.62433,-0.71983 8.68958,-5.4427 12.30158,-9.40709 0.48241,-1.20603 0.96483,-2.41207 1.44724,-3.61811 1.44725,-3.3769 2.89449,-6.7538 4.34173,-10.13071 -0.2412,-0.48241 -0.48241,-0.96483 -0.72362,-1.44724 -1.44724,1.20603 -2.89449,2.41207 -4.34173,3.61811 -5.78898,3.61811 -11.57796,7.23622 -17.36694,10.85433 -3.13569,0.24121 -6.27139,0.48242 -9.40708,0.72362 -1.68274,0.74115 -3.23357,1.44725 -5.06536,1.44725 -0.96483,0.72362 -1.92966,1.44724 -2.89449,2.17087 -3.13569,0.2412 -6.27139,0.48241 -9.40709,0.72362 -1.97175,1.21617 -4.32856,0.312 -6.5126,0 -3.13569,0.2412 -6.27139,0.48241 -9.40709,0.72362 -0.96483,0 -1.92966,0 -2.89449,0 -2.17086,0.72362 -4.34173,1.44724 -6.5126,2.17087 -0.96483,0.72362 -1.92966,1.44724 -2.89448,2.17086 -0.96483,0.24121 -1.92966,0.48242 -2.89449,0.72363 -0.48242,0.48241 -0.96483,0.96483 -1.44725,1.44724 -1.68845,-0.96483 -3.3769,-1.92966 -5.06535,-2.89449 -0.72363,0.24121 -1.44725,0.48242 -2.17087,0.72362 -4.82415,-0.2412 -9.6483,-0.48241 -14.47245,-0.72362 -4.10052,-5.06535 -8.20105,-10.13071 -12.30157,-15.19607 -0.48242,-1.20603 -0.96483,-2.41207 -1.44725,-3.61811 -1.20603,-0.72362 -2.41207,-1.44724 -3.61811,-2.17086 -1.20604,-0.72363 -2.41207,-1.44725 -3.61811,-2.17087 -5.78898,0.96483 -11.57796,1.92966 -17.36693,2.89449 -0.48242,0 -0.96483,0 -1.44725,0 -0.48241,3.85932 -0.92671,7.41366 -1.44724,11.57795 3.19204,7.79319 1.32693,3.23963 8.87481,21.66734 0.36583,0.89314 0.75376,1.84025 1.16545,2.84537 4.56917,6.86974 2.6574,3.9954 12.93474,19.44734 0.54272,-0.1809 1.08543,-0.36181 1.62815,-0.54271 1.68846,0.24121 3.37691,0.48241 5.06536,0.72362 z"
         sodipodi:nodetypes="ccccccscccccccccccccccccccccccccccccsccccccccc" />
      <path
         style="display:inline;fill:#78d764;fill-opacity:1;stroke-width:0.8"
         d="m 236.65668,237.31333 c -0.75529,4.66768 -0.48227,14.58728 -0.22274,22.76147 0.25954,8.17419 0.39139,11.64 0.51709,15.18541 0.12571,3.54541 0.12571,4.02782 1.49757,3.83184 1.37186,-0.19598 4.1156,-1.07036 6.6935,-1.86936 2.57791,-0.799 4.98998,-1.52262 7.3647,-2.23503 2.37471,-0.71242 4.83779,-1.45134 7.74414,-1.69611 2.90635,-0.24476 6.28325,-0.004 9.05714,0.11705 2.77388,0.1206 4.94475,0.1206 8.08044,1.08543 3.1357,0.96483 7.23622,2.89449 10.61313,4.46234 3.3769,1.56785 6.03018,2.77388 8.32165,3.85931 2.29147,1.08544 4.22113,2.05027 6.43372,2.84463 2.21259,0.79435 5.66192,1.65668 8.91857,2.19768 3.25664,0.54099 9.01549,1.14719 11.67778,1.25811 2.6623,0.11093 3.96507,-0.14962 4.80931,-0.39083 0.84423,-0.24121 1.32664,-0.48241 3.13569,-0.36181 1.80906,0.1206 4.94476,0.60302 7.95986,0.72362 3.01509,0.1206 5.90957,-0.1206 7.95983,-0.48241 2.05027,-0.36181 3.25631,-0.84423 6.87442,-3.61811 3.61811,-2.77389 9.6483,-7.83925 13.99003,-9.76891 4.34173,-1.92965 6.99501,-0.72362 9.06946,0.30672 2.07444,1.03033 3.94168,2.09732 6.24018,2.34255 2.2985,0.24522 5.19299,-0.23719 6.76084,-1.08142 1.56785,-0.84422 1.80905,-2.05026 3.01509,-3.2563 1.20604,-1.20604 3.3769,-2.41207 5.30656,-3.13569 1.92966,-0.72363 3.61811,-0.96483 5.30656,-1.56785 1.68846,-0.60302 3.37691,-1.56785 4.82415,-3.49751 1.44725,-1.92966 2.65328,-4.82415 3.97993,-6.63321 1.32664,-1.80905 2.77388,-2.53267 5.54777,-2.89448 2.77388,-0.36181 6.87441,-0.36181 10.85433,-2.05026 3.97992,-1.68846 7.83924,-5.06536 8.80407,-7.47743 0.96483,-2.41208 -0.96483,-3.85932 -3.246,-4.94195 -2.28117,-1.08262 -4.88473,-1.79268 -10.46766,-1.07865 -5.58293,0.71404 -14.02519,2.8849 -18.5768,4.41098 -4.55161,1.52607 -5.19978,2.39029 -6.47487,3.80901 -1.2751,1.41872 -2.96355,3.10717 -3.92838,4.072 -0.96483,0.96483 -1.20604,1.20604 -1.92966,0.72362 -0.72362,-0.48241 -1.92966,-1.68845 -4.46234,-1.56785 -2.53268,0.12061 -6.39199,1.56785 -8.80406,2.65329 -2.41208,1.08543 -3.37691,1.80905 -5.06537,2.41207 -1.68845,0.60302 -4.10052,1.08543 -5.90957,1.68845 -1.80906,0.60302 -3.0151,1.32664 -4.22114,1.80905 -1.20603,0.48242 -2.41207,0.72363 -3.3769,1.08544 -0.96483,0.36181 -1.68845,0.84423 -2.86479,1.31816 -1.17634,0.47393 -2.9339,0.97608 -4.49689,1.33651 -1.56299,0.36042 -3.01024,0.60163 -3.97507,0.84284 -0.96483,0.24121 -1.44724,0.48241 -2.17087,0.72362 -0.72362,0.24121 -1.68845,0.48241 -2.65327,0.60302 -0.96483,0.1206 -1.92966,0.1206 -4.10053,0.48241 -2.17087,0.36181 -5.54777,1.08544 -7.95985,1.44725 -2.41207,0.36181 -3.85931,0.36181 -6.6332,0.72362 -2.77388,0.36181 -6.87441,1.08543 -9.64863,1.32658 -2.77422,0.24115 -4.15888,0.0104 -5.87829,-0.5978 -1.71941,-0.60818 -3.64907,-1.57301 -4.97571,-2.41723 -1.32664,-0.84423 -2.05026,-1.56785 -3.85932,-2.53268 -1.80905,-0.96483 -4.70354,-2.17086 -7.11562,-3.2563 -2.41207,-1.08543 -4.34173,-2.05026 -5.91255,-2.77507 -1.57082,-0.72482 -2.68126,-1.16899 -5.13816,-1.78994 -2.4569,-0.62095 -6.07501,-1.34457 -8.7283,-2.06819 -2.65328,-0.72363 -4.34173,-1.44725 -7.23622,-2.29147 -2.89449,-0.84423 -6.99501,-1.80906 -9.8895,-3.37691 -2.89449,-1.56785 -4.58294,-3.73871 -6.27139,-5.54777 -1.68846,-1.80906 -3.37691,-3.2563 -4.82415,-4.70354 -1.44725,-1.44725 -2.65328,-2.89449 -3.61811,-3.73872 -0.96483,-0.84423 -1.68845,-1.08543 -2.93971,-1.47739 -1.25127,-0.39196 -3.0266,-0.93359 -3.78189,3.7341 z"
         id="path11"
         inkscape:path-effect="#path-effect11"
         inkscape:original-d="m 235.62949,232.10184 c 0.2719,9.87917 0.54492,19.79877 0.81407,29.57805 0.24992,6.5691 0.38177,10.03491 0.63318,16.64331 0,0.48242 0,0.96483 0,1.44724 2.74372,-0.87437 5.48746,-1.74875 8.2312,-2.62313 2.41207,-0.72362 4.82414,-1.44724 7.23622,-2.17086 2.62373,0.25338 4.88368,-1.16264 7.23622,-2.17087 3.37691,0.24121 6.75381,0.48242 10.13071,0.72362 2.17087,0 4.34174,0 6.5126,0 4.10053,1.92966 8.20105,3.85932 12.30158,5.78898 2.65328,1.20604 5.30656,2.41208 7.95985,3.61811 1.92965,0.96483 3.85931,1.92966 5.78897,2.89449 2.22428,1.70885 5.9002,1.66482 8.68347,2.17087 3.61472,1.91688 9.51159,1.21184 13.74882,1.44724 1.10929,-0.22186 2.41206,-0.48241 3.61811,-0.72362 0.48242,-0.24121 0.96483,-0.48241 1.44725,-0.72362 3.13569,0.48241 6.27139,0.96483 9.40709,1.44724 2.89449,-0.2412 5.78897,-0.48241 8.68346,-0.72362 1.20604,-0.48241 2.41208,-0.96483 3.61811,-1.44724 6.03019,-5.06536 12.06038,-10.13072 18.09056,-15.19607 2.65328,1.20604 5.30656,2.41207 7.95985,3.61811 2.09539,-0.19499 3.51544,1.65457 5.06535,2.89449 2.89449,-0.48242 5.78898,-0.96483 8.68347,-1.44725 0.2412,-1.20603 0.48241,-2.41207 0.72362,-3.61811 2.17087,-1.20603 4.34173,-2.41207 6.5126,-3.61811 1.68845,-0.2412 3.3769,-0.48241 5.06536,-0.72362 1.68845,-0.96483 3.3769,-1.92966 5.06535,-2.89449 1.20604,-2.89449 2.41208,-5.78898 3.61811,-8.68347 1.44725,-0.72362 2.89449,-1.44724 4.34174,-2.17086 4.10052,0 8.20105,0 12.30157,0 3.85932,-3.37691 7.71864,-6.75381 11.57796,-10.13071 -1.92966,-1.44725 -3.85932,-2.89449 -5.78898,-4.34174 -2.92737,0.36253 -5.33989,-1.04803 -7.95984,-2.17086 -8.44226,2.17086 -16.88452,4.34173 -25.32678,6.5126 -0.27081,1.17389 -1.51803,1.58882 -2.17087,2.89449 -1.68845,1.68845 -3.3769,3.3769 -5.06535,5.06535 -0.24121,0.24121 -0.48242,0.48242 -0.72363,0.72362 -1.20603,-1.20603 -2.41207,-2.41207 -3.61811,-3.61811 -3.85932,1.44725 -7.71863,2.89449 -11.57795,4.34174 -0.96483,0.72362 -1.92966,1.44724 -2.89449,2.17086 -2.41208,0.48242 -4.82415,0.96483 -7.23622,1.44725 -1.20604,0.72362 -2.41208,1.44724 -3.61812,2.17086 -1.20603,0.24121 -2.41207,0.48242 -3.61811,0.72363 -0.72362,0.48241 -1.44724,0.96483 -2.17086,1.44724 -1.73048,0.11049 -3.40747,0.89462 -5.06536,1.44724 -1.44724,0.24121 -2.89449,0.48242 -4.34173,0.72363 -0.48242,0.2412 -0.96483,0.48241 -1.44725,0.72362 -0.96483,0.24121 -1.92966,0.48241 -2.89449,0.72362 -0.96482,0 -1.92965,0 -2.89448,0 -3.37691,0.72362 -6.75381,1.44725 -10.13072,2.17087 -1.44724,0 -2.89448,0 -4.34173,0 -4.10052,0.72362 -8.20105,1.44724 -12.30158,2.17086 -1.33595,-0.91305 -2.79065,-0.72362 -4.34173,-0.72362 -1.92966,-0.96483 -3.85932,-1.92966 -5.78898,-2.89449 -0.72362,-0.72362 -1.44724,-1.44724 -2.17086,-2.17086 -2.89449,-1.20604 -5.78898,-2.41208 -8.68347,-3.61811 -1.92966,-0.96483 -3.85932,-1.92966 -5.78898,-2.89449 -1.49427,0.22092 -2.43153,-0.65619 -3.61811,-1.44725 -3.61811,-0.72362 -7.23622,-1.44724 -10.85433,-2.17086 -1.68846,-0.72363 -3.37691,-1.44725 -5.06536,-2.17087 -4.10053,-0.96483 -8.20105,-1.92966 -12.30158,-2.89449 -1.68845,-2.17087 -3.3769,-4.34173 -5.06535,-6.5126 -1.68846,-1.44724 -3.37691,-2.89449 -5.06536,-4.34173 -1.20604,-1.44725 -2.41207,-2.89449 -3.61811,-4.34174 -0.72362,-0.2412 -1.44724,-0.48241 -2.17087,-0.72362 -1.7789,-0.54271 -3.55423,-1.08434 -5.33671,-1.62814 z"
         sodipodi:nodetypes="cccccccccccccccccccccccccccccccccccscccccccccccccccccccccccccccccc" />
      <path
         style="display:inline;fill:#78d764;fill-opacity:1;stroke-width:0.8"
         d="m 400.88672,331.41898 c 2.17087,-3.85932 4.34173,-7.71863 6.15079,-10.49252 1.80906,-2.77389 3.2563,-4.46234 3.97992,-6.75381 0.72362,-2.29147 0.72362,-5.18596 1.44724,-7.83924 0.72362,-2.65328 2.17086,-5.06535 3.1357,-6.87441 0.96483,-1.80906 1.44724,-3.01509 2.65328,-4.58294 1.20604,-1.56785 3.1357,-3.49751 4.91815,-4.69594 1.78244,-1.19844 3.51534,-1.69355 5.20817,-1.5742 1.69284,0.11935 3.3813,0.84298 5.06975,0.72237 1.68845,-0.1206 3.3769,-1.08543 5.78897,-3.2563 2.41208,-2.17087 5.54777,-5.54777 7.83925,-6.63321 2.29147,-1.08543 3.73871,0.12061 4.46234,1.20604 0.72362,1.08544 0.72362,2.05027 1.20603,3.49751 0.48242,1.44724 1.44724,3.3769 2.05026,5.18595 0.60302,1.80906 0.84423,3.49752 1.32665,5.66838 0.48241,2.17087 1.20603,4.82415 1.08543,7.11562 -0.12061,2.29147 -1.08544,4.22113 -1.92966,5.90958 -0.84423,1.68845 -1.56785,3.1357 -3.49751,3.97992 -1.92966,0.84423 -5.06536,1.08544 -7.83924,1.20605 -2.77389,0.1206 -5.18596,0.1206 -6.03019,2.29147 -0.84422,2.17086 -0.1206,6.51259 -0.1206,8.92467 0,2.41207 -0.72362,2.89449 -1.56785,3.73871 -0.84422,0.84423 -1.80905,2.05027 -4.77183,4.51355 -2.96277,2.46329 -7.39932,5.79071 -12.8314,7.45269 -5.43208,1.66198 -11.22105,1.17957 -14.59795,0.57655 -3.37691,-0.60302 -4.34174,-1.32664 -5.06536,-1.68846 -0.72362,-0.36181 -1.20604,-0.36181 -1.68845,-1.20604 -0.48242,-0.84422 -0.96483,-2.53267 -0.36182,-3.73871 0.60302,-1.20603 2.29148,-1.92966 3.97993,-2.65328"
         id="path12"
         inkscape:path-effect="#path-effect12"
         inkscape:original-d="m 400.88672,331.41898 c 2.17086,-3.85932 4.34173,-7.71863 6.5126,-11.57795 1.44724,-1.68846 2.89449,-3.37691 4.34173,-5.06536 0,-2.89449 0,-5.78898 0,-8.68347 1.44724,-2.41207 2.89449,-4.82414 4.34173,-7.23622 0.48242,-1.20604 0.96483,-2.41207 1.44725,-3.61811 1.92966,-1.92966 3.85932,-3.85932 5.78898,-5.78898 1.81309,0.1553 3.41786,-0.78825 5.06535,-1.44724 1.68845,0.72362 3.37691,1.44724 5.06536,2.17087 1.68845,-0.96483 3.3769,-1.92966 5.06535,-2.89449 3.1357,-3.37691 6.2714,-6.75381 9.40709,-10.13072 1.44725,1.20604 2.89449,2.41208 4.34174,3.61812 0,0.96483 0,1.92966 0,2.89448 0.96482,1.92966 1.92965,3.85932 2.89448,5.78898 0.24121,1.68845 0.48242,3.37691 0.72363,5.06536 0.72362,2.65328 1.44724,5.30656 2.17086,7.95984 -0.96483,1.92966 -1.92966,3.85932 -2.89449,5.78898 -0.72362,1.44724 -1.44724,2.89449 -2.17086,4.34173 -3.1357,0.24121 -6.2714,0.48242 -9.40709,0.72363 -2.41208,0 -4.82415,0 -7.23622,0 0.72362,4.34173 1.44724,8.68346 2.17086,13.0252 -0.72362,0.48241 -1.44724,0.96483 -2.17086,1.44724 -0.96483,1.20604 -1.92966,2.41208 -2.89449,3.61811 -4.80236,3.93169 -9.46406,6.95891 -14.47245,10.85434 -5.78898,-0.48242 -11.57795,-0.96483 -17.36693,-1.44725 -0.96483,-0.72362 -1.92966,-1.44724 -2.89449,-2.17087 -0.48241,0 -0.96483,0 -1.44724,0 -0.48242,-1.68845 -0.96483,-3.3769 -1.44725,-5.06535 1.68845,-0.72362 5.06536,-2.17087 5.06536,-2.17087"
         sodipodi:nodetypes="ccccccccccccccccccccccccccccc" />
      <path
         style="display:inline;fill:#60c154;fill-opacity:1;stroke-width:0.8"
         d="m 515.03204,225.59445 c 0.0651,-0.3588 0.19526,-1.0764 0.29709,-1.44571 0.10183,-0.3693 0.1754,-0.39035 0.24892,-0.35672 0.0735,0.0336 0.14699,0.12185 0.44896,0.94307 0.30198,0.82122 0.83243,2.3754 1.33887,3.39369 0.50643,1.0183 0.98885,1.50072 1.35066,2.82736 0.36181,1.32664 0.60301,3.4975 1.08543,6.6332 0.48241,3.1357 1.20604,7.23622 0.1206,10.73373 -1.08543,3.49751 -3.97992,6.392 -5.90958,8.08045 -1.92966,1.68845 -2.89449,2.17086 -4.22113,2.77388 -1.32664,0.60302 -3.01508,1.32664 -5.1706,1.4857 -2.15552,0.15905 -4.77767,-0.2464 -6.15933,-0.46003 -1.38166,-0.21364 -1.52204,-0.23534 -1.59627,-0.27113 -0.0742,-0.0358 -0.0823,-0.0857 0.10761,-0.47146 0.18989,-0.38576 0.57775,-1.10732 3.60969,-6.74782 3.03194,-5.64049 8.70796,-16.19992 14.38399,-26.75936 0,-1e-5 0,-1e-5 0,-1e-5 0,-1e-5 0,-5e-5 0.0651,-0.35884 z"
         id="path15"
         inkscape:path-effect="#path-effect17"
         inkscape:original-d="m 514.96695,225.95324 c 0.13017,-0.71759 0.26035,-1.43519 0.39052,-2.15278 0.0735,-0.021 0.14705,-0.0421 0.22058,-0.0631 0.0735,0.0883 0.14699,0.17651 0.22048,0.26477 0.53046,1.55418 1.06091,3.10836 1.59137,4.66254 0.48241,0.48241 0.96483,0.96482 1.44724,1.44724 0.24121,2.17087 0.48242,4.34173 0.72362,6.5126 0.72362,4.10053 1.44725,8.20105 2.17087,12.30158 -2.89449,2.89449 -5.78898,5.78898 -8.68347,8.68346 -0.96483,0.48242 -1.92966,0.96483 -2.89449,1.44725 -1.68845,0.72362 -3.37689,1.44724 -5.06535,2.17087 -2.62258,-0.40552 -5.24473,-0.81097 -7.86766,-1.21654 -0.14039,-0.0217 -0.28077,-0.0434 -0.42116,-0.0651 -0.008,-0.0499 -0.0161,-0.0998 -0.0242,-0.14975 0.38786,-0.72156 0.77572,-1.44312 1.16358,-2.16468 5.67603,-10.55943 11.35204,-21.11886 17.02807,-31.6783 0,0 0,-1e-5 0,-2e-5 z"
         sodipodi:nodetypes="ccccccccccccccccc" />
      <path
         style="fill:none;fill-opacity:1;stroke:#000000;stroke-width:2;stroke-dasharray:none;stroke-opacity:1"
         d="m 408.5554,125.68191 c 4.8741,0.71077 9.45704,1.19319 14.27586,1.91579 4.81881,0.72261 9.82183,1.67556 14.20006,2.52674 4.37824,0.85118 7.99635,1.57481 10.89084,2.41903 2.89449,0.84423 5.06536,1.80906 8.80407,3.37691 3.73872,1.56785 9.04528,3.73871 12.78399,5.66837 3.73872,1.92966 5.90959,3.61811 9.16589,5.90958 3.2563,2.29147 7.59803,5.18596 11.09554,7.59803 3.4975,2.41208 6.15079,4.34174 10.97493,7.83925 4.82415,3.4975 11.81917,8.56286 18.33177,17.84935 6.5126,9.28648 12.54278,22.79409 15.67848,30.27152 3.1357,7.47743 3.3769,8.92468 4.10053,12.18098 0.72362,3.2563 1.92965,8.32165 3.13569,13.0252 1.20604,4.70354 2.41207,9.04528 3.1357,14.11064 0.72362,5.06535 0.96483,10.85433 1.20604,14.35183 0.24121,3.49751 0.48241,4.70355 0.48241,5.78898 0,1.08543 -0.2412,2.05026 -0.60302,4.46234 -0.36181,2.41207 -0.84422,6.27139 -1.68845,9.7689 -0.84423,3.49751 -2.05026,6.6332 -3.01509,9.28648 -0.96483,2.65329 -1.68845,4.82415 -3.37691,7.95985 -1.68845,3.13569 -4.34173,7.23622 -7.23622,11.69856 -2.89448,4.46233 -6.03018,9.28648 -12.18097,15.79908 -6.15079,6.5126 -15.31667,14.71365 -20.38203,19.2966 -5.06536,4.58294 -6.03018,5.54777 -11.81916,9.16588 -5.78898,3.61811 -16.40211,9.8895 -22.6735,13.2664 -6.27139,3.37691 -8.20105,3.85932 -9.7689,4.46234 -1.56785,0.60302 -2.77388,1.32664 -8.00608,2.78484 -5.2322,1.4582 -14.28407,3.60206 -19.72201,4.93125 -5.43793,1.32919 -7.12638,1.81161 -10.74449,2.41462 -3.61811,0.60302 -9.16588,1.32665 -13.99003,1.92967 -4.82415,0.60301 -8.92468,1.08543 -14.23124,1.32663 -5.30656,0.24121 -11.81916,0.24121 -15.55788,0.36181 -3.73871,0.12061 -4.70354,0.36181 -7.83924,0.48242 -3.13569,0.1206 -8.44226,0.1206 -14.71365,0.2412 -6.27139,0.12061 -13.50761,0.36182 -19.77901,-0.12059 -6.27139,-0.48242 -11.57795,-1.68846 -17.79096,-4.25546 -6.213,-2.56701 -12.94176,-6.27942 -17.95742,-9.09243 -5.01567,-2.81301 -7.91016,-4.50147 -11.52827,-7.75777 -3.61811,-3.2563 -7.95984,-8.08044 -12.9046,-14.35183 -4.94475,-6.2714 -10.49252,-13.99004 -14.11063,-19.77901 -3.61811,-5.78898 -5.30656,-9.6483 -7.83924,-16.40211 -2.53268,-6.75381 -5.90958,-16.4021 -7.71864,-22.79409 -1.80906,-6.392 -2.05026,-9.5277 -2.40601,-15.47992 -0.35575,-5.95222 -0.82605,-14.72097 -1.2976,-26.55602 -0.47154,-11.83506 -0.94353,-26.71062 4.72858,-40.92377 5.67212,-14.21315 17.4391,-27.65421 27.08155,-37.41295 9.64244,-9.75875 17.11987,-15.78893 21.4616,-19.04523 4.34174,-3.2563 5.54778,-3.73872 6.63321,-4.34174 1.08543,-0.60301 2.05026,-1.32664 3.49751,-2.17086 1.44724,-0.84423 3.3769,-1.80906 7.83924,-4.10053 4.46233,-2.29147 11.45735,-5.90958 15.43727,-7.83924 3.97992,-1.92966 4.94475,-2.17086 6.03019,-2.53268 1.08543,-0.36181 2.29147,-0.84423 7.95984,-2.89449 5.66838,-2.05026 15.79909,-5.66837 23.15591,-7.59803 7.35683,-1.92966 11.93977,-2.17086 16.68429,-2.15519 4.74453,0.0157 8.15268,0.20502 11.11117,0.33588 2.95849,0.13086 4.16452,0.13086 7.25053,0.58231 3.08601,0.45146 8.87447,1.5039 13.74856,2.21468 z"
         id="path14"
         inkscape:path-effect="#path-effect15"
         inkscape:original-d="m 408.84656,125.91027 c 4.58294,0.48241 9.16588,0.96483 13.74882,1.44724 5.34895,-0.58205 10.16608,1.3468 15.19607,2.89449 3.61811,0.72362 7.23622,1.44725 10.85433,2.17087 2.17087,0.96483 4.34174,1.92966 6.5126,2.89449 5.30657,2.17086 10.61313,4.34173 15.91969,6.5126 2.17087,1.68845 4.34174,3.3769 6.5126,5.06535 4.34174,2.89449 8.68347,5.78898 13.0252,8.68347 2.65328,1.92966 5.30657,3.85932 7.95985,5.78898 6.99501,5.06535 13.99003,10.13071 20.98504,15.19606 6.03019,13.50762 12.06037,27.01523 18.09056,40.52285 0.24121,1.44724 0.48241,2.89449 0.72362,4.34173 1.20604,5.06536 2.41207,10.13071 3.61811,15.19607 1.20604,4.34173 2.41208,8.68347 3.61811,13.0252 0.24121,5.78898 0.48242,11.57796 0.72363,17.36693 0.2412,1.20604 0.48241,2.41208 0.72362,3.61811 -0.24121,0.96483 -0.48242,1.92966 -0.72362,2.89449 -0.48242,3.85932 -0.96483,7.71864 -1.44725,11.57796 -1.20604,3.1357 -2.41207,6.27139 -3.61811,9.40709 -0.72362,2.17087 -1.44724,4.34173 -2.17087,6.5126 -2.65328,4.10052 -5.30656,8.20105 -7.95984,12.30158 -3.1357,4.82414 -6.27139,9.64829 -9.40709,14.47244 -9.16588,8.20105 -18.33176,16.40211 -27.49765,24.60316 -0.96483,0.96483 -1.92965,1.92966 -2.89448,2.89449 -10.61313,6.27139 -21.22626,12.54278 -31.83938,18.81417 -1.92966,0.48242 -3.85932,0.96483 -5.78898,1.44725 -1.20604,0.72362 -2.41207,1.44724 -3.61811,2.17087 -9.25283,2.21612 -18.01936,5.56476 -27.49765,6.5126 -1.68845,0.48241 -3.3769,0.96482 -5.06535,1.44724 -5.54777,0.72362 -11.09554,1.44724 -16.64331,2.17087 -4.10053,0.48241 -8.20106,0.96483 -12.30158,1.44724 -6.5126,0 -13.0252,0 -19.5378,0 -0.96483,0.24121 -1.92966,0.48242 -2.89449,0.72362 -5.30656,0 -10.61313,0 -15.91969,0 -7.23622,0.24121 -14.47244,0.48242 -21.70867,0.72363 -5.30656,-1.20604 -10.61312,-2.41208 -15.91969,-3.61812 -7.32231,-3.56027 -14.11309,-7.16026 -20.98504,-11.57795 -2.89449,-1.68845 -5.78898,-3.37691 -8.68347,-5.06536 -4.34173,-4.82415 -8.68346,-9.64829 -13.0252,-14.47244 -5.54777,-7.71864 -11.09554,-15.43728 -16.64331,-23.15591 -1.68845,-3.85932 -3.3769,-7.71864 -5.06535,-11.57796 -3.37691,-9.6483 -6.75381,-19.29659 -10.13072,-28.94489 -0.2412,-3.13569 -0.48241,-6.27139 -0.72362,-9.40709 -0.47029,-8.76874 -0.94058,-17.53749 -1.41088,-26.30624 -0.4728,-14.90136 -0.94479,-29.77692 -1.41841,-44.70406 11.81785,-13.49916 23.58483,-26.94022 35.39229,-40.42752 7.47743,-6.03019 14.95486,-12.06037 22.43229,-18.09056 1.20604,-0.48241 2.41208,-0.96483 3.61811,-1.44724 0.96483,-0.72362 1.92966,-1.44725 2.89449,-2.17087 1.92966,-0.96483 3.85932,-1.92966 5.78898,-2.89449 6.99501,-3.61811 13.99003,-7.23622 20.98504,-10.85433 0.96483,-0.24121 1.92966,-0.48242 2.89449,-0.72362 1.20604,-0.48242 2.41208,-0.96483 3.61811,-1.44725 10.13072,-3.61811 20.26143,-7.23622 30.39214,-10.85433 4.58294,-0.24121 9.16588,-0.48242 13.74882,-0.72362 5.00825,-1.56599 8.40961,-1.25449 13.0252,0.72362 1.20604,0 2.41207,0 3.61811,0 4.80308,1.79885 10.7326,2.07547 15.91969,2.89449 z"
         sodipodi:nodetypes="cccccccccccccccccccccccccccccccccccccccccccccccccccccccccc"
         inkscape:label="Outline" />
    </g>
  </g>
</svg>
