<?xml version="1.0" encoding="UTF-8" standalone="no"?>
<!DOCTYPE svg PUBLIC "-//W3C//DTD SVG 1.1//EN" "http://www.w3.org/Graphics/SVG/1.1/DTD/svg11.dtd">
<svg width="595.20" height="419.52" viewBox="0.00 0.00 2480.00 1748.00" xmlns="http://www.w3.org/2000/svg" xmlns:xlink="http://www.w3.org/1999/xlink">
<g stroke-linecap="round" id="SVG_Curves">
<path d="M1422.72,374.29 Q1376.04,403.66 1340.95,432.30 Q1323.87,446.24 1309.54,460.01 Q1300.14,469.03 1291.93,477.98 Q1274.77,496.66 1262.76,515.02 Q1215.53,587.21 1247.86,654.33" fill="none" stroke="rgb(0, 0, 0)" stroke-width="3.00" stroke-opacity="1.00" stroke-linejoin="round"/>
<path d="M1245.99,548.01 Q1508.78,545.04 1549.76,816.88" fill="none" stroke="rgb(0, 0, 0)" stroke-width="3.00" stroke-opacity="1.00" stroke-linejoin="round"/>
<path d="M1549.81,816.81 Q1616.46,1188.38 1563.16,1380.68 Q1558.90,1396.02 1553.89,1410.22 Q1550.64,1419.42 1547.07,1428.13 Q1540.98,1443.02 1533.95,1456.52 Q1532.43,1459.43 1530.83,1462.34 Q1489.51,1502.68 1432.85,1487.01 Q1414.11,1481.83 1393.69,1470.51" fill="none" stroke="rgb(0, 0, 0)" stroke-width="3.00" stroke-opacity="1.00" stroke-linejoin="round"/>
<path d="M1401.63,1475.84 Q1127.49,1628.37 1001.75,1388.23" fill="none" stroke="rgb(0, 0, 0)" stroke-width="3.00" stroke-opacity="1.00" stroke-linejoin="round"/>
<path d="M1013.09,1379.99 Q804.91,1526.34 751.32,1291.42" fill="none" stroke="rgb(0, 0, 0)" stroke-width="3.00" stroke-opacity="1.00" stroke-linejoin="round"/>
<path d="M751.32,1291.36 Q747.46,1252.41 744.38,1214.62 Q743.08,1198.63 741.92,1182.84 Q740.31,1161.13 738.97,1139.80 Q738.00,1124.30 737.16,1109.01 Q727.69,935.75 735.98,789.17" fill="none" stroke="rgb(0, 0, 0)" stroke-width="3.00" stroke-opacity="1.00" stroke-linejoin="round"/>
<path d="M735.86,790.48 Q762.65,632.80 911.06,667.84" fill="none" stroke="rgb(0, 0, 0)" stroke-width="3.00" stroke-opacity="1.00" stroke-linejoin="round"/>
<path d="M821.40,664.74 Q912.09,513.24 1130.58,532.57" fill="none" stroke="rgb(0, 0, 0)" stroke-width="3.00" stroke-opacity="1.00" stroke-linejoin="round"/>
<path d="M1091.42,678.14 Q1102.09,633.27 1112.95,593.38 Q1128.14,537.54 1143.69,491.46 Q1148.24,477.94 1152.83,465.27 Q1161.84,440.37 1170.97,418.72 Q1176.00,406.78 1181.06,395.83 Q1221.68,307.99 1264.56,283.42" fill="none" stroke="rgb(0, 0, 0)" stroke-width="3.00" stroke-opacity="1.00" stroke-linejoin="round"/>
<path d="M1421.21,374.11 Q1397.08,247.94 1335.16,250.12 Q1320.71,250.63 1304.21,258.12 Q1290.28,264.44 1274.89,275.74 Q1269.83,279.45 1264.62,283.70" fill="none" stroke="rgb(0, 0, 0)" stroke-width="3.00" stroke-opacity="1.00" stroke-linejoin="round"/>
<path d="M1029.58,626.61 Q1074.93,606.00 1110.05,604.97" fill="none" stroke="rgb(0, 0, 0)" stroke-width="3.00" stroke-opacity="1.00" stroke-linejoin="round"/>
<path d="M983.20,674.02 Q1001.75,713.18 1064.62,715.24" fill="none" stroke="rgb(0, 0, 0)" stroke-width="3.00" stroke-opacity="1.00" stroke-linejoin="round"/>
<path d="M1069.77,736.89 Q1188.29,634.86 1310.94,731.73" fill="none" stroke="rgb(0, 0, 0)" stroke-width="3.00" stroke-opacity="1.00" stroke-linejoin="round"/>
<path d="M1259.03,700.24 Q1316.09,702.88 1320.21,626.61" fill="none" stroke="rgb(0, 0, 0)" stroke-width="3.00" stroke-opacity="1.00" stroke-linejoin="round"/>
</g>
</svg>
